M48
; DRILL file {KiCad (5.1.9)-1} date 05/04/21 10:01:58
; FORMAT={-:-/ absolute / inch / decimal}
; #@! TF.CreationDate,2021-05-04T10:01:58+09:00
; #@! TF.GenerationSoftware,Kicad,Pcbnew,(5.1.9)-1
FMAT,2
INCH
T1C0.0300
T2C0.0315
T3C0.0320
T4C0.0374
T5C0.1260
T6C0.1260
%
G90
G05
T1
X1.32Y-1.925
X1.32Y-2.1
T2
X1.02Y-2.2
X1.02Y-2.3
X1.02Y-2.4
X1.32Y-2.2
X1.32Y-2.3
X1.32Y-2.4
X1.52Y-1.53
X1.52Y-1.83
X1.56Y-2.16
X1.62Y-1.53
X1.62Y-1.83
X1.66Y-2.26
X1.72Y-1.53
X1.72Y-1.83
X1.76Y-2.16
X1.82Y-1.53
X1.82Y-1.83
X2.02Y-1.85
X2.02Y-2.15
X2.12Y-1.85
X2.12Y-2.15
X2.22Y-1.85
X2.22Y-2.15
X2.32Y-1.85
X2.32Y-2.15
T3
X1.02Y-1.175
X1.02Y-1.275
X1.02Y-1.375
X1.02Y-1.575
X1.02Y-1.725
X1.02Y-1.875
X1.02Y-2.025
X1.12Y-2.025
X1.22Y-1.24
X1.22Y-1.44
X1.22Y-1.575
X1.22Y-1.725
X1.22Y-1.875
X1.22Y-2.025
X1.395Y-1.575
X1.395Y-1.775
X1.4Y-1.28
X1.44Y-1.95
X1.44Y-2.15
X1.52Y-1.4
X1.57Y-1.95
X1.6Y-1.28
X1.72Y-1.4
X1.77Y-1.95
X1.89Y-1.95
X1.89Y-2.15
X1.945Y-1.35
X1.945Y-1.475
X2.12Y-1.725
X2.12Y-2.28
X2.12Y-2.48
X2.145Y-1.35
X2.145Y-1.475
X2.27Y-1.175
X2.27Y-1.375
X2.32Y-1.725
X2.42Y-1.175
X2.42Y-1.375
X2.47Y-1.825
X2.47Y-2.025
X2.495Y-1.525
X2.57Y-1.175
X2.57Y-1.375
X2.595Y-1.675
X2.595Y-1.825
X2.595Y-1.975
X2.595Y-2.125
X2.695Y-1.525
X2.72Y-1.175
X2.72Y-1.375
X2.795Y-1.675
X2.795Y-1.825
X2.795Y-1.975
X2.795Y-2.125
T4
X1.52Y-2.42
X1.6184Y-2.42
X1.7169Y-2.42
X1.8Y-1.17
X1.8153Y-2.42
X1.9Y-1.17
X1.9137Y-2.42
X2.0Y-1.17
X2.32Y-2.42
X2.4184Y-2.42
X2.5169Y-2.42
T5
X1.03Y-0.93
X1.03Y-2.67
X2.77Y-0.93
T6
X2.77Y-2.67
T0
M30
