G04 #@! TF.GenerationSoftware,KiCad,Pcbnew,(5.1.9)-1*
G04 #@! TF.CreationDate,2021-05-04T10:01:55+09:00*
G04 #@! TF.ProjectId,ipm165,69706d31-3635-42e6-9b69-6361645f7063,0*
G04 #@! TF.SameCoordinates,Original*
G04 #@! TF.FileFunction,Soldermask,Bot*
G04 #@! TF.FilePolarity,Negative*
%FSLAX46Y46*%
G04 Gerber Fmt 4.6, Leading zero omitted, Abs format (unit mm)*
G04 Created by KiCad (PCBNEW (5.1.9)-1) date 2021-05-04 10:01:55*
%MOMM*%
%LPD*%
G01*
G04 APERTURE LIST*
%ADD10C,3.205080*%
%ADD11C,3.205081*%
%ADD12C,1.783080*%
%ADD13O,1.605080X2.305080*%
%ADD14O,2.305080X1.605080*%
%ADD15O,1.783080X1.783080*%
%ADD16O,1.783080X1.935480*%
G04 APERTURE END LIST*
D10*
X26162000Y-23622000D03*
X70358000Y-23622000D03*
D11*
X70358000Y-67818000D03*
D10*
X26162000Y-67818000D03*
D12*
X43688000Y-35560000D03*
X38608000Y-35560000D03*
X36576000Y-54610000D03*
X36576000Y-49530000D03*
D13*
X46228000Y-46482000D03*
X43688000Y-46482000D03*
X41148000Y-46482000D03*
X38608000Y-46482000D03*
X38608000Y-38862000D03*
X41148000Y-38862000D03*
X43688000Y-38862000D03*
G36*
G01*
X45428000Y-37709460D02*
X47028000Y-37709460D01*
G75*
G02*
X47030540Y-37712000I0J-2540D01*
G01*
X47030540Y-40012000D01*
G75*
G02*
X47028000Y-40014540I-2540J0D01*
G01*
X45428000Y-40014540D01*
G75*
G02*
X45425460Y-40012000I0J2540D01*
G01*
X45425460Y-37712000D01*
G75*
G02*
X45428000Y-37709460I2540J0D01*
G01*
G37*
D12*
X25908000Y-47625000D03*
X30988000Y-47625000D03*
D14*
X33528000Y-58420000D03*
X25908000Y-55880000D03*
X25908000Y-58420000D03*
X25908000Y-60960000D03*
G36*
G01*
X34680540Y-60160000D02*
X34680540Y-61760000D01*
G75*
G02*
X34678000Y-61762540I-2540J0D01*
G01*
X32378000Y-61762540D01*
G75*
G02*
X32375460Y-61760000I0J2540D01*
G01*
X32375460Y-60160000D01*
G75*
G02*
X32378000Y-60157460I2540J0D01*
G01*
X34678000Y-60157460D01*
G75*
G02*
X34680540Y-60160000I0J-2540D01*
G01*
G37*
X33528000Y-55880000D03*
D13*
X51308000Y-46990000D03*
X53848000Y-46990000D03*
X56388000Y-46990000D03*
X58928000Y-46990000D03*
X58928000Y-54610000D03*
X56388000Y-54610000D03*
X53848000Y-54610000D03*
G36*
G01*
X52108000Y-55762540D02*
X50508000Y-55762540D01*
G75*
G02*
X50505460Y-55760000I0J2540D01*
G01*
X50505460Y-53460000D01*
G75*
G02*
X50508000Y-53457460I2540J0D01*
G01*
X52108000Y-53457460D01*
G75*
G02*
X52110540Y-53460000I0J-2540D01*
G01*
X52110540Y-55760000D01*
G75*
G02*
X52108000Y-55762540I-2540J0D01*
G01*
G37*
D12*
X35560000Y-32512000D03*
X40640000Y-32512000D03*
X54483000Y-37465000D03*
X49403000Y-37465000D03*
X57658000Y-34925000D03*
X57658000Y-29845000D03*
X65278000Y-34925000D03*
X65278000Y-29845000D03*
X70993000Y-53975000D03*
X65913000Y-53975000D03*
X70993000Y-46355000D03*
X65913000Y-46355000D03*
G36*
G01*
X44066460Y-50419000D02*
X44066460Y-48641000D01*
G75*
G02*
X44069000Y-48638460I2540J0D01*
G01*
X45847000Y-48638460D01*
G75*
G02*
X45849540Y-48641000I0J-2540D01*
G01*
X45849540Y-50419000D01*
G75*
G02*
X45847000Y-50421540I-2540J0D01*
G01*
X44069000Y-50421540D01*
G75*
G02*
X44066460Y-50419000I0J2540D01*
G01*
G37*
X39878000Y-49530000D03*
G36*
G01*
X61849000Y-50543460D02*
X63627000Y-50543460D01*
G75*
G02*
X63629540Y-50546000I0J-2540D01*
G01*
X63629540Y-52324000D01*
G75*
G02*
X63627000Y-52326540I-2540J0D01*
G01*
X61849000Y-52326540D01*
G75*
G02*
X61846460Y-52324000I0J2540D01*
G01*
X61846460Y-50546000D01*
G75*
G02*
X61849000Y-50543460I2540J0D01*
G01*
G37*
X62738000Y-46355000D03*
X30988000Y-36576000D03*
X30988000Y-31496000D03*
X30988000Y-40005000D03*
X25908000Y-40005000D03*
X25908000Y-43815000D03*
X30988000Y-43815000D03*
X35433000Y-40005000D03*
X35433000Y-45085000D03*
X54483000Y-34290000D03*
X49403000Y-34290000D03*
X61468000Y-34925000D03*
X61468000Y-29845000D03*
X69088000Y-34925000D03*
X69088000Y-29845000D03*
X68453000Y-38735000D03*
X63373000Y-38735000D03*
X70993000Y-50165000D03*
X65913000Y-50165000D03*
X48006000Y-49530000D03*
X48006000Y-54610000D03*
X53848000Y-57912000D03*
X53848000Y-62992000D03*
X53848000Y-43815000D03*
X58928000Y-43815000D03*
X65913000Y-42545000D03*
X70993000Y-42545000D03*
X30988000Y-51435000D03*
X28448000Y-51435000D03*
X25908000Y-51435000D03*
D15*
X50800000Y-29718000D03*
X48260000Y-29718000D03*
G36*
G01*
X46609000Y-30609540D02*
X44831000Y-30609540D01*
G75*
G02*
X44828460Y-30607000I0J2540D01*
G01*
X44828460Y-28829000D01*
G75*
G02*
X44831000Y-28826460I2540J0D01*
G01*
X46609000Y-28826460D01*
G75*
G02*
X46611540Y-28829000I0J-2540D01*
G01*
X46611540Y-30607000D01*
G75*
G02*
X46609000Y-30609540I-2540J0D01*
G01*
G37*
D16*
X48608000Y-61468000D03*
X46108000Y-61468000D03*
X43608000Y-61468000D03*
X41108000Y-61468000D03*
G36*
G01*
X37716460Y-62173635D02*
X37716460Y-60762365D01*
G75*
G02*
X37978565Y-60500260I262105J0D01*
G01*
X39237435Y-60500260D01*
G75*
G02*
X39499540Y-60762365I0J-262105D01*
G01*
X39499540Y-62173635D01*
G75*
G02*
X39237435Y-62435740I-262105J0D01*
G01*
X37978565Y-62435740D01*
G75*
G02*
X37716460Y-62173635I0J262105D01*
G01*
G37*
G36*
G01*
X26799540Y-34036000D02*
X26799540Y-35814000D01*
G75*
G02*
X26797000Y-35816540I-2540J0D01*
G01*
X25019000Y-35816540D01*
G75*
G02*
X25016460Y-35814000I0J2540D01*
G01*
X25016460Y-34036000D01*
G75*
G02*
X25019000Y-34033460I2540J0D01*
G01*
X26797000Y-34033460D01*
G75*
G02*
X26799540Y-34036000I0J-2540D01*
G01*
G37*
D12*
X25908000Y-29845000D03*
X25908000Y-32385000D03*
D16*
X63928000Y-61468000D03*
X61428000Y-61468000D03*
G36*
G01*
X58036460Y-62173635D02*
X58036460Y-60762365D01*
G75*
G02*
X58298565Y-60500260I262105J0D01*
G01*
X59557435Y-60500260D01*
G75*
G02*
X59819540Y-60762365I0J-262105D01*
G01*
X59819540Y-62173635D01*
G75*
G02*
X59557435Y-62435740I-262105J0D01*
G01*
X58298565Y-62435740D01*
G75*
G02*
X58036460Y-62173635I0J262105D01*
G01*
G37*
D12*
X39624000Y-54864000D03*
X42164000Y-57404000D03*
X44704000Y-54864000D03*
M02*
