G04 #@! TF.GenerationSoftware,KiCad,Pcbnew,(5.1.9)-1*
G04 #@! TF.CreationDate,2021-05-04T10:01:55+09:00*
G04 #@! TF.ProjectId,ipm165,69706d31-3635-42e6-9b69-6361645f7063,0*
G04 #@! TF.SameCoordinates,Original*
G04 #@! TF.FileFunction,Legend,Top*
G04 #@! TF.FilePolarity,Positive*
%FSLAX46Y46*%
G04 Gerber Fmt 4.6, Leading zero omitted, Abs format (unit mm)*
G04 Created by KiCad (PCBNEW (5.1.9)-1) date 2021-05-04 10:01:55*
%MOMM*%
%LPD*%
G01*
G04 APERTURE LIST*
%ADD10C,0.150000*%
%ADD11C,0.120000*%
G04 APERTURE END LIST*
D10*
X39878000Y-35560000D02*
X40513000Y-35560000D01*
X41783000Y-35560000D02*
X42418000Y-35560000D01*
X41656000Y-35306000D02*
X40513000Y-35306000D01*
X41656000Y-35814000D02*
X41656000Y-35306000D01*
X40513000Y-35814000D02*
X41656000Y-35814000D01*
X40513000Y-35306000D02*
X40513000Y-35814000D01*
X36576000Y-50800000D02*
X36576000Y-51435000D01*
X36576000Y-52705000D02*
X36576000Y-53340000D01*
X36830000Y-52578000D02*
X36830000Y-51435000D01*
X36322000Y-52578000D02*
X36830000Y-52578000D01*
X36322000Y-51435000D02*
X36322000Y-52578000D01*
X36830000Y-51435000D02*
X36322000Y-51435000D01*
X46228000Y-42672000D02*
X46228000Y-42037000D01*
X46228000Y-42037000D02*
X46863000Y-41402000D01*
X46863000Y-41402000D02*
X47498000Y-41402000D01*
X46228000Y-42672000D02*
X46228000Y-43307000D01*
X46228000Y-43307000D02*
X46863000Y-43942000D01*
X46863000Y-43942000D02*
X47498000Y-43942000D01*
X44958000Y-37592000D02*
X37338000Y-37592000D01*
X37338000Y-37592000D02*
X37338000Y-47752000D01*
X37338000Y-47752000D02*
X47498000Y-47752000D01*
X47498000Y-47752000D02*
X47498000Y-37592000D01*
X47498000Y-37592000D02*
X44958000Y-37592000D01*
X28702000Y-47117000D02*
X28702000Y-48133000D01*
X28194000Y-47117000D02*
X28194000Y-48133000D01*
X28194000Y-47625000D02*
X27178000Y-47625000D01*
X28702000Y-47625000D02*
X29718000Y-47625000D01*
X29718000Y-60960000D02*
X30353000Y-60960000D01*
X28448000Y-61595000D02*
X28448000Y-62230000D01*
X29718000Y-60960000D02*
X29083000Y-60960000D01*
X30353000Y-60960000D02*
X30988000Y-61595000D01*
X30988000Y-61595000D02*
X30988000Y-62230000D01*
X24638000Y-62230000D02*
X34798000Y-62230000D01*
X29083000Y-60960000D02*
X28448000Y-61595000D01*
X34798000Y-62230000D02*
X34798000Y-59690000D01*
D11*
X34798000Y-59690000D02*
X34798000Y-54610000D01*
X34798000Y-54610000D02*
X24638000Y-54610000D01*
X24638000Y-54610000D02*
X24638000Y-62230000D01*
D10*
X51308000Y-50800000D02*
X51308000Y-51435000D01*
X51308000Y-51435000D02*
X50673000Y-52070000D01*
X50673000Y-52070000D02*
X50038000Y-52070000D01*
X51308000Y-50800000D02*
X51308000Y-50165000D01*
X51308000Y-50165000D02*
X50673000Y-49530000D01*
X50673000Y-49530000D02*
X50038000Y-49530000D01*
X52578000Y-55880000D02*
X60198000Y-55880000D01*
X60198000Y-55880000D02*
X60198000Y-45720000D01*
X60198000Y-45720000D02*
X50038000Y-45720000D01*
X50038000Y-45720000D02*
X50038000Y-55880000D01*
X50038000Y-55880000D02*
X52578000Y-55880000D01*
X38354000Y-32004000D02*
X38354000Y-33020000D01*
X37846000Y-32004000D02*
X37846000Y-33020000D01*
X37846000Y-32512000D02*
X36830000Y-32512000D01*
X38354000Y-32512000D02*
X39370000Y-32512000D01*
X51689000Y-37973000D02*
X51689000Y-36957000D01*
X52197000Y-37973000D02*
X52197000Y-36957000D01*
X52197000Y-37465000D02*
X53213000Y-37465000D01*
X51689000Y-37465000D02*
X50673000Y-37465000D01*
X57150000Y-32131000D02*
X58166000Y-32131000D01*
X57150000Y-32639000D02*
X58166000Y-32639000D01*
X57658000Y-32639000D02*
X57658000Y-33655000D01*
X57658000Y-32131000D02*
X57658000Y-31115000D01*
X64770000Y-32131000D02*
X65786000Y-32131000D01*
X64770000Y-32639000D02*
X65786000Y-32639000D01*
X65278000Y-32639000D02*
X65278000Y-33655000D01*
X65278000Y-32131000D02*
X65278000Y-31115000D01*
X68199000Y-54483000D02*
X68199000Y-53467000D01*
X68707000Y-54483000D02*
X68707000Y-53467000D01*
X68707000Y-53975000D02*
X69723000Y-53975000D01*
X68199000Y-53975000D02*
X67183000Y-53975000D01*
X68199000Y-46863000D02*
X68199000Y-45847000D01*
X68707000Y-46863000D02*
X68707000Y-45847000D01*
X68707000Y-46355000D02*
X69723000Y-46355000D01*
X68199000Y-46355000D02*
X67183000Y-46355000D01*
X43053000Y-49530000D02*
X43688000Y-49530000D01*
X41148000Y-49530000D02*
X41783000Y-49530000D01*
X41783000Y-49530000D02*
X43053000Y-48895000D01*
X43053000Y-48895000D02*
X43053000Y-50165000D01*
X43053000Y-50165000D02*
X41783000Y-49530000D01*
X41783000Y-48895000D02*
X41783000Y-50165000D01*
X62738000Y-49530000D02*
X62738000Y-50165000D01*
X62738000Y-47625000D02*
X62738000Y-48260000D01*
X62738000Y-48260000D02*
X63373000Y-49530000D01*
X63373000Y-49530000D02*
X62103000Y-49530000D01*
X62103000Y-49530000D02*
X62738000Y-48260000D01*
X63373000Y-48260000D02*
X62103000Y-48260000D01*
X30988000Y-32766000D02*
X30988000Y-33401000D01*
X30988000Y-34671000D02*
X30988000Y-35306000D01*
X31242000Y-34544000D02*
X31242000Y-33401000D01*
X30734000Y-34544000D02*
X31242000Y-34544000D01*
X30734000Y-33401000D02*
X30734000Y-34544000D01*
X31242000Y-33401000D02*
X30734000Y-33401000D01*
X27178000Y-40005000D02*
X27813000Y-40005000D01*
X29083000Y-40005000D02*
X29718000Y-40005000D01*
X28956000Y-39751000D02*
X27813000Y-39751000D01*
X28956000Y-40259000D02*
X28956000Y-39751000D01*
X27813000Y-40259000D02*
X28956000Y-40259000D01*
X27813000Y-39751000D02*
X27813000Y-40259000D01*
X29718000Y-43815000D02*
X29083000Y-43815000D01*
X27813000Y-43815000D02*
X27178000Y-43815000D01*
X27940000Y-44069000D02*
X29083000Y-44069000D01*
X27940000Y-43561000D02*
X27940000Y-44069000D01*
X29083000Y-43561000D02*
X27940000Y-43561000D01*
X29083000Y-44069000D02*
X29083000Y-43561000D01*
X35433000Y-43815000D02*
X35433000Y-43180000D01*
X35433000Y-41910000D02*
X35433000Y-41275000D01*
X35179000Y-42037000D02*
X35179000Y-43180000D01*
X35687000Y-42037000D02*
X35179000Y-42037000D01*
X35687000Y-43180000D02*
X35687000Y-42037000D01*
X35179000Y-43180000D02*
X35687000Y-43180000D01*
X50673000Y-34290000D02*
X51308000Y-34290000D01*
X52578000Y-34290000D02*
X53213000Y-34290000D01*
X52451000Y-34036000D02*
X51308000Y-34036000D01*
X52451000Y-34544000D02*
X52451000Y-34036000D01*
X51308000Y-34544000D02*
X52451000Y-34544000D01*
X51308000Y-34036000D02*
X51308000Y-34544000D01*
X61468000Y-31115000D02*
X61468000Y-31750000D01*
X61468000Y-33020000D02*
X61468000Y-33655000D01*
X61722000Y-32893000D02*
X61722000Y-31750000D01*
X61214000Y-32893000D02*
X61722000Y-32893000D01*
X61214000Y-31750000D02*
X61214000Y-32893000D01*
X61722000Y-31750000D02*
X61214000Y-31750000D01*
X69088000Y-31115000D02*
X69088000Y-31750000D01*
X69088000Y-33020000D02*
X69088000Y-33655000D01*
X69342000Y-32893000D02*
X69342000Y-31750000D01*
X68834000Y-32893000D02*
X69342000Y-32893000D01*
X68834000Y-31750000D02*
X68834000Y-32893000D01*
X69342000Y-31750000D02*
X68834000Y-31750000D01*
X64643000Y-38735000D02*
X65278000Y-38735000D01*
X66548000Y-38735000D02*
X67183000Y-38735000D01*
X66421000Y-38481000D02*
X65278000Y-38481000D01*
X66421000Y-38989000D02*
X66421000Y-38481000D01*
X65278000Y-38989000D02*
X66421000Y-38989000D01*
X65278000Y-38481000D02*
X65278000Y-38989000D01*
X67183000Y-50165000D02*
X67818000Y-50165000D01*
X69088000Y-50165000D02*
X69723000Y-50165000D01*
X68961000Y-49911000D02*
X67818000Y-49911000D01*
X68961000Y-50419000D02*
X68961000Y-49911000D01*
X67818000Y-50419000D02*
X68961000Y-50419000D01*
X67818000Y-49911000D02*
X67818000Y-50419000D01*
X48006000Y-53340000D02*
X48006000Y-52705000D01*
X48006000Y-51435000D02*
X48006000Y-50800000D01*
X47752000Y-51562000D02*
X47752000Y-52705000D01*
X48260000Y-51562000D02*
X47752000Y-51562000D01*
X48260000Y-52705000D02*
X48260000Y-51562000D01*
X47752000Y-52705000D02*
X48260000Y-52705000D01*
X53848000Y-61722000D02*
X53848000Y-61087000D01*
X53848000Y-59817000D02*
X53848000Y-59182000D01*
X53594000Y-59944000D02*
X53594000Y-61087000D01*
X54102000Y-59944000D02*
X53594000Y-59944000D01*
X54102000Y-61087000D02*
X54102000Y-59944000D01*
X53594000Y-61087000D02*
X54102000Y-61087000D01*
X57658000Y-43815000D02*
X57023000Y-43815000D01*
X55753000Y-43815000D02*
X55118000Y-43815000D01*
X55880000Y-44069000D02*
X57023000Y-44069000D01*
X55880000Y-43561000D02*
X55880000Y-44069000D01*
X57023000Y-43561000D02*
X55880000Y-43561000D01*
X57023000Y-44069000D02*
X57023000Y-43561000D01*
X69723000Y-42545000D02*
X69088000Y-42545000D01*
X67818000Y-42545000D02*
X67183000Y-42545000D01*
X67945000Y-42799000D02*
X69088000Y-42799000D01*
X67945000Y-42291000D02*
X67945000Y-42799000D01*
X69088000Y-42291000D02*
X67945000Y-42291000D01*
X69088000Y-42799000D02*
X69088000Y-42291000D01*
D11*
X25908000Y-52705000D02*
G75*
G02*
X25908000Y-50165000I0J1270000D01*
G01*
X30988000Y-50165000D02*
G75*
G02*
X30988000Y-52705000I0J-1270000D01*
G01*
X30988000Y-52705000D02*
X25908000Y-52705000D01*
X25908000Y-50165000D02*
X30988000Y-50165000D01*
X44390000Y-29718000D02*
X44390000Y-28388000D01*
X44390000Y-28388000D02*
X45720000Y-28388000D01*
X46990000Y-28388000D02*
X52130000Y-28388000D01*
X52130000Y-31048000D02*
X52130000Y-28388000D01*
X46990000Y-31048000D02*
X52130000Y-31048000D01*
X46990000Y-31048000D02*
X46990000Y-28388000D01*
X38908000Y-59368000D02*
X38608000Y-59968000D01*
X38308000Y-59368000D02*
X38908000Y-59368000D01*
X38608000Y-59968000D02*
X38308000Y-59368000D01*
X48858000Y-64668000D02*
X48358000Y-64668000D01*
X48858000Y-70168000D02*
X48858000Y-64668000D01*
X48358000Y-70168000D02*
X48858000Y-70168000D01*
X48358000Y-64668000D02*
X48358000Y-70168000D01*
X46358000Y-64668000D02*
X45858000Y-64668000D01*
X46358000Y-70168000D02*
X46358000Y-64668000D01*
X45858000Y-70168000D02*
X46358000Y-70168000D01*
X45858000Y-64668000D02*
X45858000Y-70168000D01*
X43858000Y-64668000D02*
X43358000Y-64668000D01*
X43858000Y-70168000D02*
X43858000Y-64668000D01*
X43358000Y-70168000D02*
X43858000Y-70168000D01*
X43358000Y-64668000D02*
X43358000Y-70168000D01*
X41358000Y-64668000D02*
X40858000Y-64668000D01*
X41358000Y-70168000D02*
X41358000Y-64668000D01*
X40858000Y-70168000D02*
X41358000Y-70168000D01*
X40858000Y-64668000D02*
X40858000Y-70168000D01*
X38858000Y-64668000D02*
X38358000Y-64668000D01*
X38858000Y-70168000D02*
X38858000Y-64668000D01*
X38358000Y-70168000D02*
X38858000Y-70168000D01*
X38358000Y-64668000D02*
X38358000Y-70168000D01*
X49748000Y-63558000D02*
X43608000Y-63558000D01*
X49748000Y-59058000D02*
X49748000Y-63558000D01*
X51168000Y-59058000D02*
X49748000Y-59058000D01*
X51168000Y-70778000D02*
X51168000Y-59058000D01*
X43608000Y-70778000D02*
X51168000Y-70778000D01*
X37468000Y-63558000D02*
X43608000Y-63558000D01*
X37468000Y-59058000D02*
X37468000Y-63558000D01*
X36048000Y-59058000D02*
X37468000Y-59058000D01*
X36048000Y-70778000D02*
X36048000Y-59058000D01*
X43608000Y-70778000D02*
X36048000Y-70778000D01*
X27030795Y-30060816D02*
G75*
G02*
X27758000Y-30585000I-1122795J-2324184D01*
G01*
X24809193Y-30028600D02*
G75*
G03*
X23308000Y-32385000I1098807J-2356400D01*
G01*
X24809193Y-34741400D02*
G75*
G02*
X23308000Y-32385000I1098807J2356400D01*
G01*
X27030795Y-34709184D02*
G75*
G03*
X27758000Y-34185000I-1122795J2324184D01*
G01*
X27758000Y-34185000D02*
X27758000Y-30585000D01*
X61428000Y-70778000D02*
X56368000Y-70778000D01*
X56368000Y-70778000D02*
X56368000Y-59058000D01*
X56368000Y-59058000D02*
X57788000Y-59058000D01*
X57788000Y-59058000D02*
X57788000Y-63558000D01*
X57788000Y-63558000D02*
X61428000Y-63558000D01*
X61428000Y-70778000D02*
X66488000Y-70778000D01*
X66488000Y-70778000D02*
X66488000Y-59058000D01*
X66488000Y-59058000D02*
X65068000Y-59058000D01*
X65068000Y-59058000D02*
X65068000Y-63558000D01*
X65068000Y-63558000D02*
X61428000Y-63558000D01*
X58678000Y-64668000D02*
X58678000Y-70168000D01*
X58678000Y-70168000D02*
X59178000Y-70168000D01*
X59178000Y-70168000D02*
X59178000Y-64668000D01*
X59178000Y-64668000D02*
X58678000Y-64668000D01*
X61178000Y-64668000D02*
X61178000Y-70168000D01*
X61178000Y-70168000D02*
X61678000Y-70168000D01*
X61678000Y-70168000D02*
X61678000Y-64668000D01*
X61678000Y-64668000D02*
X61178000Y-64668000D01*
X63678000Y-64668000D02*
X63678000Y-70168000D01*
X63678000Y-70168000D02*
X64178000Y-70168000D01*
X64178000Y-70168000D02*
X64178000Y-64668000D01*
X64178000Y-64668000D02*
X63678000Y-64668000D01*
X58928000Y-59968000D02*
X58628000Y-59368000D01*
X58628000Y-59368000D02*
X59228000Y-59368000D01*
X59228000Y-59368000D02*
X58928000Y-59968000D01*
X45584000Y-51184000D02*
X45584000Y-54214000D01*
X45584000Y-55514000D02*
X45584000Y-58424000D01*
X38744000Y-51184000D02*
X38744000Y-54214000D01*
X38744000Y-55514000D02*
X38744000Y-58424000D01*
X45584000Y-51184000D02*
X38744000Y-51184000D01*
X45584000Y-58424000D02*
X38744000Y-58424000D01*
D10*
X25352476Y-27884380D02*
X25352476Y-26884380D01*
X25685809Y-27598666D01*
X26019142Y-26884380D01*
X26019142Y-27884380D01*
X26400095Y-26884380D02*
X27019142Y-26884380D01*
X26685809Y-27265333D01*
X26828666Y-27265333D01*
X26923904Y-27312952D01*
X26971523Y-27360571D01*
X27019142Y-27455809D01*
X27019142Y-27693904D01*
X26971523Y-27789142D01*
X26923904Y-27836761D01*
X26828666Y-27884380D01*
X26542952Y-27884380D01*
X26447714Y-27836761D01*
X26400095Y-27789142D01*
X69548476Y-27884380D02*
X69548476Y-26884380D01*
X69881809Y-27598666D01*
X70215142Y-26884380D01*
X70215142Y-27884380D01*
X70596095Y-26884380D02*
X71215142Y-26884380D01*
X70881809Y-27265333D01*
X71024666Y-27265333D01*
X71119904Y-27312952D01*
X71167523Y-27360571D01*
X71215142Y-27455809D01*
X71215142Y-27693904D01*
X71167523Y-27789142D01*
X71119904Y-27836761D01*
X71024666Y-27884380D01*
X70738952Y-27884380D01*
X70643714Y-27836761D01*
X70596095Y-27789142D01*
X69548476Y-64420380D02*
X69548476Y-63420380D01*
X69881809Y-64134666D01*
X70215142Y-63420380D01*
X70215142Y-64420380D01*
X70596095Y-63420380D02*
X71215142Y-63420380D01*
X70881809Y-63801333D01*
X71024666Y-63801333D01*
X71119904Y-63848952D01*
X71167523Y-63896571D01*
X71215142Y-63991809D01*
X71215142Y-64229904D01*
X71167523Y-64325142D01*
X71119904Y-64372761D01*
X71024666Y-64420380D01*
X70738952Y-64420380D01*
X70643714Y-64372761D01*
X70596095Y-64325142D01*
X25352476Y-64420380D02*
X25352476Y-63420380D01*
X25685809Y-64134666D01*
X26019142Y-63420380D01*
X26019142Y-64420380D01*
X26400095Y-63420380D02*
X27019142Y-63420380D01*
X26685809Y-63801333D01*
X26828666Y-63801333D01*
X26923904Y-63848952D01*
X26971523Y-63896571D01*
X27019142Y-63991809D01*
X27019142Y-64229904D01*
X26971523Y-64325142D01*
X26923904Y-64372761D01*
X26828666Y-64420380D01*
X26542952Y-64420380D01*
X26447714Y-64372761D01*
X26400095Y-64325142D01*
X40981333Y-34996380D02*
X40648000Y-34520190D01*
X40409904Y-34996380D02*
X40409904Y-33996380D01*
X40790857Y-33996380D01*
X40886095Y-34044000D01*
X40933714Y-34091619D01*
X40981333Y-34186857D01*
X40981333Y-34329714D01*
X40933714Y-34424952D01*
X40886095Y-34472571D01*
X40790857Y-34520190D01*
X40409904Y-34520190D01*
X41886095Y-33996380D02*
X41409904Y-33996380D01*
X41362285Y-34472571D01*
X41409904Y-34424952D01*
X41505142Y-34377333D01*
X41743238Y-34377333D01*
X41838476Y-34424952D01*
X41886095Y-34472571D01*
X41933714Y-34567809D01*
X41933714Y-34805904D01*
X41886095Y-34901142D01*
X41838476Y-34948761D01*
X41743238Y-34996380D01*
X41505142Y-34996380D01*
X41409904Y-34948761D01*
X41362285Y-34901142D01*
X35758380Y-52236666D02*
X35282190Y-52570000D01*
X35758380Y-52808095D02*
X34758380Y-52808095D01*
X34758380Y-52427142D01*
X34806000Y-52331904D01*
X34853619Y-52284285D01*
X34948857Y-52236666D01*
X35091714Y-52236666D01*
X35186952Y-52284285D01*
X35234571Y-52331904D01*
X35282190Y-52427142D01*
X35282190Y-52808095D01*
X35758380Y-51760476D02*
X35758380Y-51570000D01*
X35710761Y-51474761D01*
X35663142Y-51427142D01*
X35520285Y-51331904D01*
X35329809Y-51284285D01*
X34948857Y-51284285D01*
X34853619Y-51331904D01*
X34806000Y-51379523D01*
X34758380Y-51474761D01*
X34758380Y-51665238D01*
X34806000Y-51760476D01*
X34853619Y-51808095D01*
X34948857Y-51855714D01*
X35186952Y-51855714D01*
X35282190Y-51808095D01*
X35329809Y-51760476D01*
X35377428Y-51665238D01*
X35377428Y-51474761D01*
X35329809Y-51379523D01*
X35282190Y-51331904D01*
X35186952Y-51284285D01*
X41870380Y-43433904D02*
X42679904Y-43433904D01*
X42775142Y-43386285D01*
X42822761Y-43338666D01*
X42870380Y-43243428D01*
X42870380Y-43052952D01*
X42822761Y-42957714D01*
X42775142Y-42910095D01*
X42679904Y-42862476D01*
X41870380Y-42862476D01*
X42870380Y-41862476D02*
X42870380Y-42433904D01*
X42870380Y-42148190D02*
X41870380Y-42148190D01*
X42013238Y-42243428D01*
X42108476Y-42338666D01*
X42156095Y-42433904D01*
X47950380Y-36671285D02*
X47950380Y-37242714D01*
X47950380Y-36957000D02*
X46950380Y-36957000D01*
X47093238Y-37052238D01*
X47188476Y-37147476D01*
X47236095Y-37242714D01*
X28281333Y-46077142D02*
X28233714Y-46124761D01*
X28090857Y-46172380D01*
X27995619Y-46172380D01*
X27852761Y-46124761D01*
X27757523Y-46029523D01*
X27709904Y-45934285D01*
X27662285Y-45743809D01*
X27662285Y-45600952D01*
X27709904Y-45410476D01*
X27757523Y-45315238D01*
X27852761Y-45220000D01*
X27995619Y-45172380D01*
X28090857Y-45172380D01*
X28233714Y-45220000D01*
X28281333Y-45267619D01*
X29233714Y-46172380D02*
X28662285Y-46172380D01*
X28948000Y-46172380D02*
X28948000Y-45172380D01*
X28852761Y-45315238D01*
X28757523Y-45410476D01*
X28662285Y-45458095D01*
X28956095Y-57872380D02*
X28956095Y-58681904D01*
X29003714Y-58777142D01*
X29051333Y-58824761D01*
X29146571Y-58872380D01*
X29337047Y-58872380D01*
X29432285Y-58824761D01*
X29479904Y-58777142D01*
X29527523Y-58681904D01*
X29527523Y-57872380D01*
X29908476Y-57872380D02*
X30527523Y-57872380D01*
X30194190Y-58253333D01*
X30337047Y-58253333D01*
X30432285Y-58300952D01*
X30479904Y-58348571D01*
X30527523Y-58443809D01*
X30527523Y-58681904D01*
X30479904Y-58777142D01*
X30432285Y-58824761D01*
X30337047Y-58872380D01*
X30051333Y-58872380D01*
X29956095Y-58824761D01*
X29908476Y-58777142D01*
X35718714Y-62682380D02*
X35147285Y-62682380D01*
X35433000Y-62682380D02*
X35433000Y-61682380D01*
X35337761Y-61825238D01*
X35242523Y-61920476D01*
X35147285Y-61968095D01*
X54570380Y-51561904D02*
X55379904Y-51561904D01*
X55475142Y-51514285D01*
X55522761Y-51466666D01*
X55570380Y-51371428D01*
X55570380Y-51180952D01*
X55522761Y-51085714D01*
X55475142Y-51038095D01*
X55379904Y-50990476D01*
X54570380Y-50990476D01*
X54665619Y-50561904D02*
X54618000Y-50514285D01*
X54570380Y-50419047D01*
X54570380Y-50180952D01*
X54618000Y-50085714D01*
X54665619Y-50038095D01*
X54760857Y-49990476D01*
X54856095Y-49990476D01*
X54998952Y-50038095D01*
X55570380Y-50609523D01*
X55570380Y-49990476D01*
X50490380Y-56229285D02*
X50490380Y-56800714D01*
X50490380Y-56515000D02*
X49490380Y-56515000D01*
X49633238Y-56610238D01*
X49728476Y-56705476D01*
X49776095Y-56800714D01*
X37933333Y-31599142D02*
X37885714Y-31646761D01*
X37742857Y-31694380D01*
X37647619Y-31694380D01*
X37504761Y-31646761D01*
X37409523Y-31551523D01*
X37361904Y-31456285D01*
X37314285Y-31265809D01*
X37314285Y-31122952D01*
X37361904Y-30932476D01*
X37409523Y-30837238D01*
X37504761Y-30742000D01*
X37647619Y-30694380D01*
X37742857Y-30694380D01*
X37885714Y-30742000D01*
X37933333Y-30789619D01*
X38314285Y-30789619D02*
X38361904Y-30742000D01*
X38457142Y-30694380D01*
X38695238Y-30694380D01*
X38790476Y-30742000D01*
X38838095Y-30789619D01*
X38885714Y-30884857D01*
X38885714Y-30980095D01*
X38838095Y-31122952D01*
X38266666Y-31694380D01*
X38885714Y-31694380D01*
X51776333Y-36425142D02*
X51728714Y-36472761D01*
X51585857Y-36520380D01*
X51490619Y-36520380D01*
X51347761Y-36472761D01*
X51252523Y-36377523D01*
X51204904Y-36282285D01*
X51157285Y-36091809D01*
X51157285Y-35948952D01*
X51204904Y-35758476D01*
X51252523Y-35663238D01*
X51347761Y-35568000D01*
X51490619Y-35520380D01*
X51585857Y-35520380D01*
X51728714Y-35568000D01*
X51776333Y-35615619D01*
X52109666Y-35520380D02*
X52728714Y-35520380D01*
X52395380Y-35901333D01*
X52538238Y-35901333D01*
X52633476Y-35948952D01*
X52681095Y-35996571D01*
X52728714Y-36091809D01*
X52728714Y-36329904D01*
X52681095Y-36425142D01*
X52633476Y-36472761D01*
X52538238Y-36520380D01*
X52252523Y-36520380D01*
X52157285Y-36472761D01*
X52109666Y-36425142D01*
X56110142Y-32551666D02*
X56157761Y-32599285D01*
X56205380Y-32742142D01*
X56205380Y-32837380D01*
X56157761Y-32980238D01*
X56062523Y-33075476D01*
X55967285Y-33123095D01*
X55776809Y-33170714D01*
X55633952Y-33170714D01*
X55443476Y-33123095D01*
X55348238Y-33075476D01*
X55253000Y-32980238D01*
X55205380Y-32837380D01*
X55205380Y-32742142D01*
X55253000Y-32599285D01*
X55300619Y-32551666D01*
X55538714Y-31694523D02*
X56205380Y-31694523D01*
X55157761Y-31932619D02*
X55872047Y-32170714D01*
X55872047Y-31551666D01*
X63730142Y-32551666D02*
X63777761Y-32599285D01*
X63825380Y-32742142D01*
X63825380Y-32837380D01*
X63777761Y-32980238D01*
X63682523Y-33075476D01*
X63587285Y-33123095D01*
X63396809Y-33170714D01*
X63253952Y-33170714D01*
X63063476Y-33123095D01*
X62968238Y-33075476D01*
X62873000Y-32980238D01*
X62825380Y-32837380D01*
X62825380Y-32742142D01*
X62873000Y-32599285D01*
X62920619Y-32551666D01*
X62825380Y-31646904D02*
X62825380Y-32123095D01*
X63301571Y-32170714D01*
X63253952Y-32123095D01*
X63206333Y-32027857D01*
X63206333Y-31789761D01*
X63253952Y-31694523D01*
X63301571Y-31646904D01*
X63396809Y-31599285D01*
X63634904Y-31599285D01*
X63730142Y-31646904D01*
X63777761Y-31694523D01*
X63825380Y-31789761D01*
X63825380Y-32027857D01*
X63777761Y-32123095D01*
X63730142Y-32170714D01*
X68286333Y-56237142D02*
X68238714Y-56284761D01*
X68095857Y-56332380D01*
X68000619Y-56332380D01*
X67857761Y-56284761D01*
X67762523Y-56189523D01*
X67714904Y-56094285D01*
X67667285Y-55903809D01*
X67667285Y-55760952D01*
X67714904Y-55570476D01*
X67762523Y-55475238D01*
X67857761Y-55380000D01*
X68000619Y-55332380D01*
X68095857Y-55332380D01*
X68238714Y-55380000D01*
X68286333Y-55427619D01*
X69143476Y-55332380D02*
X68953000Y-55332380D01*
X68857761Y-55380000D01*
X68810142Y-55427619D01*
X68714904Y-55570476D01*
X68667285Y-55760952D01*
X68667285Y-56141904D01*
X68714904Y-56237142D01*
X68762523Y-56284761D01*
X68857761Y-56332380D01*
X69048238Y-56332380D01*
X69143476Y-56284761D01*
X69191095Y-56237142D01*
X69238714Y-56141904D01*
X69238714Y-55903809D01*
X69191095Y-55808571D01*
X69143476Y-55760952D01*
X69048238Y-55713333D01*
X68857761Y-55713333D01*
X68762523Y-55760952D01*
X68714904Y-55808571D01*
X68667285Y-55903809D01*
X68286333Y-48617142D02*
X68238714Y-48664761D01*
X68095857Y-48712380D01*
X68000619Y-48712380D01*
X67857761Y-48664761D01*
X67762523Y-48569523D01*
X67714904Y-48474285D01*
X67667285Y-48283809D01*
X67667285Y-48140952D01*
X67714904Y-47950476D01*
X67762523Y-47855238D01*
X67857761Y-47760000D01*
X68000619Y-47712380D01*
X68095857Y-47712380D01*
X68238714Y-47760000D01*
X68286333Y-47807619D01*
X68619666Y-47712380D02*
X69286333Y-47712380D01*
X68857761Y-48712380D01*
X41679904Y-48712380D02*
X41679904Y-47712380D01*
X41918000Y-47712380D01*
X42060857Y-47760000D01*
X42156095Y-47855238D01*
X42203714Y-47950476D01*
X42251333Y-48140952D01*
X42251333Y-48283809D01*
X42203714Y-48474285D01*
X42156095Y-48569523D01*
X42060857Y-48664761D01*
X41918000Y-48712380D01*
X41679904Y-48712380D01*
X43203714Y-48712380D02*
X42632285Y-48712380D01*
X42918000Y-48712380D02*
X42918000Y-47712380D01*
X42822761Y-47855238D01*
X42727523Y-47950476D01*
X42632285Y-47998095D01*
X61666380Y-49633095D02*
X60666380Y-49633095D01*
X60666380Y-49395000D01*
X60714000Y-49252142D01*
X60809238Y-49156904D01*
X60904476Y-49109285D01*
X61094952Y-49061666D01*
X61237809Y-49061666D01*
X61428285Y-49109285D01*
X61523523Y-49156904D01*
X61618761Y-49252142D01*
X61666380Y-49395000D01*
X61666380Y-49633095D01*
X60761619Y-48680714D02*
X60714000Y-48633095D01*
X60666380Y-48537857D01*
X60666380Y-48299761D01*
X60714000Y-48204523D01*
X60761619Y-48156904D01*
X60856857Y-48109285D01*
X60952095Y-48109285D01*
X61094952Y-48156904D01*
X61666380Y-48728333D01*
X61666380Y-48109285D01*
X29916380Y-34202666D02*
X29440190Y-34536000D01*
X29916380Y-34774095D02*
X28916380Y-34774095D01*
X28916380Y-34393142D01*
X28964000Y-34297904D01*
X29011619Y-34250285D01*
X29106857Y-34202666D01*
X29249714Y-34202666D01*
X29344952Y-34250285D01*
X29392571Y-34297904D01*
X29440190Y-34393142D01*
X29440190Y-34774095D01*
X29916380Y-33250285D02*
X29916380Y-33821714D01*
X29916380Y-33536000D02*
X28916380Y-33536000D01*
X29059238Y-33631238D01*
X29154476Y-33726476D01*
X29202095Y-33821714D01*
X28281333Y-39314380D02*
X27948000Y-38838190D01*
X27709904Y-39314380D02*
X27709904Y-38314380D01*
X28090857Y-38314380D01*
X28186095Y-38362000D01*
X28233714Y-38409619D01*
X28281333Y-38504857D01*
X28281333Y-38647714D01*
X28233714Y-38742952D01*
X28186095Y-38790571D01*
X28090857Y-38838190D01*
X27709904Y-38838190D01*
X28662285Y-38409619D02*
X28709904Y-38362000D01*
X28805142Y-38314380D01*
X29043238Y-38314380D01*
X29138476Y-38362000D01*
X29186095Y-38409619D01*
X29233714Y-38504857D01*
X29233714Y-38600095D01*
X29186095Y-38742952D01*
X28614666Y-39314380D01*
X29233714Y-39314380D01*
X28281333Y-42362380D02*
X27948000Y-41886190D01*
X27709904Y-42362380D02*
X27709904Y-41362380D01*
X28090857Y-41362380D01*
X28186095Y-41410000D01*
X28233714Y-41457619D01*
X28281333Y-41552857D01*
X28281333Y-41695714D01*
X28233714Y-41790952D01*
X28186095Y-41838571D01*
X28090857Y-41886190D01*
X27709904Y-41886190D01*
X28614666Y-41362380D02*
X29233714Y-41362380D01*
X28900380Y-41743333D01*
X29043238Y-41743333D01*
X29138476Y-41790952D01*
X29186095Y-41838571D01*
X29233714Y-41933809D01*
X29233714Y-42171904D01*
X29186095Y-42267142D01*
X29138476Y-42314761D01*
X29043238Y-42362380D01*
X28757523Y-42362380D01*
X28662285Y-42314761D01*
X28614666Y-42267142D01*
X34488380Y-42711666D02*
X34012190Y-43045000D01*
X34488380Y-43283095D02*
X33488380Y-43283095D01*
X33488380Y-42902142D01*
X33536000Y-42806904D01*
X33583619Y-42759285D01*
X33678857Y-42711666D01*
X33821714Y-42711666D01*
X33916952Y-42759285D01*
X33964571Y-42806904D01*
X34012190Y-42902142D01*
X34012190Y-43283095D01*
X33821714Y-41854523D02*
X34488380Y-41854523D01*
X33440761Y-42092619D02*
X34155047Y-42330714D01*
X34155047Y-41711666D01*
X51776333Y-33472380D02*
X51443000Y-32996190D01*
X51204904Y-33472380D02*
X51204904Y-32472380D01*
X51585857Y-32472380D01*
X51681095Y-32520000D01*
X51728714Y-32567619D01*
X51776333Y-32662857D01*
X51776333Y-32805714D01*
X51728714Y-32900952D01*
X51681095Y-32948571D01*
X51585857Y-32996190D01*
X51204904Y-32996190D01*
X52633476Y-32472380D02*
X52443000Y-32472380D01*
X52347761Y-32520000D01*
X52300142Y-32567619D01*
X52204904Y-32710476D01*
X52157285Y-32900952D01*
X52157285Y-33281904D01*
X52204904Y-33377142D01*
X52252523Y-33424761D01*
X52347761Y-33472380D01*
X52538238Y-33472380D01*
X52633476Y-33424761D01*
X52681095Y-33377142D01*
X52728714Y-33281904D01*
X52728714Y-33043809D01*
X52681095Y-32948571D01*
X52633476Y-32900952D01*
X52538238Y-32853333D01*
X52347761Y-32853333D01*
X52252523Y-32900952D01*
X52204904Y-32948571D01*
X52157285Y-33043809D01*
X60015380Y-32551666D02*
X59539190Y-32885000D01*
X60015380Y-33123095D02*
X59015380Y-33123095D01*
X59015380Y-32742142D01*
X59063000Y-32646904D01*
X59110619Y-32599285D01*
X59205857Y-32551666D01*
X59348714Y-32551666D01*
X59443952Y-32599285D01*
X59491571Y-32646904D01*
X59539190Y-32742142D01*
X59539190Y-33123095D01*
X59015380Y-32218333D02*
X59015380Y-31551666D01*
X60015380Y-31980238D01*
X67635380Y-32551666D02*
X67159190Y-32885000D01*
X67635380Y-33123095D02*
X66635380Y-33123095D01*
X66635380Y-32742142D01*
X66683000Y-32646904D01*
X66730619Y-32599285D01*
X66825857Y-32551666D01*
X66968714Y-32551666D01*
X67063952Y-32599285D01*
X67111571Y-32646904D01*
X67159190Y-32742142D01*
X67159190Y-33123095D01*
X67063952Y-31980238D02*
X67016333Y-32075476D01*
X66968714Y-32123095D01*
X66873476Y-32170714D01*
X66825857Y-32170714D01*
X66730619Y-32123095D01*
X66683000Y-32075476D01*
X66635380Y-31980238D01*
X66635380Y-31789761D01*
X66683000Y-31694523D01*
X66730619Y-31646904D01*
X66825857Y-31599285D01*
X66873476Y-31599285D01*
X66968714Y-31646904D01*
X67016333Y-31694523D01*
X67063952Y-31789761D01*
X67063952Y-31980238D01*
X67111571Y-32075476D01*
X67159190Y-32123095D01*
X67254428Y-32170714D01*
X67444904Y-32170714D01*
X67540142Y-32123095D01*
X67587761Y-32075476D01*
X67635380Y-31980238D01*
X67635380Y-31789761D01*
X67587761Y-31694523D01*
X67540142Y-31646904D01*
X67444904Y-31599285D01*
X67254428Y-31599285D01*
X67159190Y-31646904D01*
X67111571Y-31694523D01*
X67063952Y-31789761D01*
X65270142Y-37790380D02*
X64936809Y-37314190D01*
X64698714Y-37790380D02*
X64698714Y-36790380D01*
X65079666Y-36790380D01*
X65174904Y-36838000D01*
X65222523Y-36885619D01*
X65270142Y-36980857D01*
X65270142Y-37123714D01*
X65222523Y-37218952D01*
X65174904Y-37266571D01*
X65079666Y-37314190D01*
X64698714Y-37314190D01*
X66222523Y-37790380D02*
X65651095Y-37790380D01*
X65936809Y-37790380D02*
X65936809Y-36790380D01*
X65841571Y-36933238D01*
X65746333Y-37028476D01*
X65651095Y-37076095D01*
X66841571Y-36790380D02*
X66936809Y-36790380D01*
X67032047Y-36838000D01*
X67079666Y-36885619D01*
X67127285Y-36980857D01*
X67174904Y-37171333D01*
X67174904Y-37409428D01*
X67127285Y-37599904D01*
X67079666Y-37695142D01*
X67032047Y-37742761D01*
X66936809Y-37790380D01*
X66841571Y-37790380D01*
X66746333Y-37742761D01*
X66698714Y-37695142D01*
X66651095Y-37599904D01*
X66603476Y-37409428D01*
X66603476Y-37171333D01*
X66651095Y-36980857D01*
X66698714Y-36885619D01*
X66746333Y-36838000D01*
X66841571Y-36790380D01*
X67810142Y-52522380D02*
X67476809Y-52046190D01*
X67238714Y-52522380D02*
X67238714Y-51522380D01*
X67619666Y-51522380D01*
X67714904Y-51570000D01*
X67762523Y-51617619D01*
X67810142Y-51712857D01*
X67810142Y-51855714D01*
X67762523Y-51950952D01*
X67714904Y-51998571D01*
X67619666Y-52046190D01*
X67238714Y-52046190D01*
X68762523Y-52522380D02*
X68191095Y-52522380D01*
X68476809Y-52522380D02*
X68476809Y-51522380D01*
X68381571Y-51665238D01*
X68286333Y-51760476D01*
X68191095Y-51808095D01*
X69714904Y-52522380D02*
X69143476Y-52522380D01*
X69429190Y-52522380D02*
X69429190Y-51522380D01*
X69333952Y-51665238D01*
X69238714Y-51760476D01*
X69143476Y-51808095D01*
X47188380Y-52712857D02*
X46712190Y-53046190D01*
X47188380Y-53284285D02*
X46188380Y-53284285D01*
X46188380Y-52903333D01*
X46236000Y-52808095D01*
X46283619Y-52760476D01*
X46378857Y-52712857D01*
X46521714Y-52712857D01*
X46616952Y-52760476D01*
X46664571Y-52808095D01*
X46712190Y-52903333D01*
X46712190Y-53284285D01*
X47188380Y-51760476D02*
X47188380Y-52331904D01*
X47188380Y-52046190D02*
X46188380Y-52046190D01*
X46331238Y-52141428D01*
X46426476Y-52236666D01*
X46474095Y-52331904D01*
X46283619Y-51379523D02*
X46236000Y-51331904D01*
X46188380Y-51236666D01*
X46188380Y-50998571D01*
X46236000Y-50903333D01*
X46283619Y-50855714D01*
X46378857Y-50808095D01*
X46474095Y-50808095D01*
X46616952Y-50855714D01*
X47188380Y-51427142D01*
X47188380Y-50808095D01*
X53030380Y-61094857D02*
X52554190Y-61428190D01*
X53030380Y-61666285D02*
X52030380Y-61666285D01*
X52030380Y-61285333D01*
X52078000Y-61190095D01*
X52125619Y-61142476D01*
X52220857Y-61094857D01*
X52363714Y-61094857D01*
X52458952Y-61142476D01*
X52506571Y-61190095D01*
X52554190Y-61285333D01*
X52554190Y-61666285D01*
X53030380Y-60142476D02*
X53030380Y-60713904D01*
X53030380Y-60428190D02*
X52030380Y-60428190D01*
X52173238Y-60523428D01*
X52268476Y-60618666D01*
X52316095Y-60713904D01*
X52030380Y-59809142D02*
X52030380Y-59190095D01*
X52411333Y-59523428D01*
X52411333Y-59380571D01*
X52458952Y-59285333D01*
X52506571Y-59237714D01*
X52601809Y-59190095D01*
X52839904Y-59190095D01*
X52935142Y-59237714D01*
X52982761Y-59285333D01*
X53030380Y-59380571D01*
X53030380Y-59666285D01*
X52982761Y-59761523D01*
X52935142Y-59809142D01*
X55745142Y-42870380D02*
X55411809Y-42394190D01*
X55173714Y-42870380D02*
X55173714Y-41870380D01*
X55554666Y-41870380D01*
X55649904Y-41918000D01*
X55697523Y-41965619D01*
X55745142Y-42060857D01*
X55745142Y-42203714D01*
X55697523Y-42298952D01*
X55649904Y-42346571D01*
X55554666Y-42394190D01*
X55173714Y-42394190D01*
X56697523Y-42870380D02*
X56126095Y-42870380D01*
X56411809Y-42870380D02*
X56411809Y-41870380D01*
X56316571Y-42013238D01*
X56221333Y-42108476D01*
X56126095Y-42156095D01*
X57554666Y-42203714D02*
X57554666Y-42870380D01*
X57316571Y-41822761D02*
X57078476Y-42537047D01*
X57697523Y-42537047D01*
X67937142Y-44648380D02*
X67603809Y-44172190D01*
X67365714Y-44648380D02*
X67365714Y-43648380D01*
X67746666Y-43648380D01*
X67841904Y-43696000D01*
X67889523Y-43743619D01*
X67937142Y-43838857D01*
X67937142Y-43981714D01*
X67889523Y-44076952D01*
X67841904Y-44124571D01*
X67746666Y-44172190D01*
X67365714Y-44172190D01*
X68889523Y-44648380D02*
X68318095Y-44648380D01*
X68603809Y-44648380D02*
X68603809Y-43648380D01*
X68508571Y-43791238D01*
X68413333Y-43886476D01*
X68318095Y-43934095D01*
X69794285Y-43648380D02*
X69318095Y-43648380D01*
X69270476Y-44124571D01*
X69318095Y-44076952D01*
X69413333Y-44029333D01*
X69651428Y-44029333D01*
X69746666Y-44076952D01*
X69794285Y-44124571D01*
X69841904Y-44219809D01*
X69841904Y-44457904D01*
X69794285Y-44553142D01*
X69746666Y-44600761D01*
X69651428Y-44648380D01*
X69413333Y-44648380D01*
X69318095Y-44600761D01*
X69270476Y-44553142D01*
X28281333Y-49633142D02*
X28233714Y-49680761D01*
X28090857Y-49728380D01*
X27995619Y-49728380D01*
X27852761Y-49680761D01*
X27757523Y-49585523D01*
X27709904Y-49490285D01*
X27662285Y-49299809D01*
X27662285Y-49156952D01*
X27709904Y-48966476D01*
X27757523Y-48871238D01*
X27852761Y-48776000D01*
X27995619Y-48728380D01*
X28090857Y-48728380D01*
X28233714Y-48776000D01*
X28281333Y-48823619D01*
X28757523Y-49728380D02*
X28948000Y-49728380D01*
X29043238Y-49680761D01*
X29090857Y-49633142D01*
X29186095Y-49490285D01*
X29233714Y-49299809D01*
X29233714Y-48918857D01*
X29186095Y-48823619D01*
X29138476Y-48776000D01*
X29043238Y-48728380D01*
X28852761Y-48728380D01*
X28757523Y-48776000D01*
X28709904Y-48823619D01*
X28662285Y-48918857D01*
X28662285Y-49156952D01*
X28709904Y-49252190D01*
X28757523Y-49299809D01*
X28852761Y-49347428D01*
X29043238Y-49347428D01*
X29138476Y-49299809D01*
X29186095Y-49252190D01*
X29233714Y-49156952D01*
X47926666Y-31710380D02*
X47926666Y-32424666D01*
X47879047Y-32567523D01*
X47783809Y-32662761D01*
X47640952Y-32710380D01*
X47545714Y-32710380D01*
X48926666Y-32710380D02*
X48355238Y-32710380D01*
X48640952Y-32710380D02*
X48640952Y-31710380D01*
X48545714Y-31853238D01*
X48450476Y-31948476D01*
X48355238Y-31996095D01*
X43274666Y-57420380D02*
X43274666Y-58134666D01*
X43227047Y-58277523D01*
X43131809Y-58372761D01*
X42988952Y-58420380D01*
X42893714Y-58420380D01*
X43703238Y-57515619D02*
X43750857Y-57468000D01*
X43846095Y-57420380D01*
X44084190Y-57420380D01*
X44179428Y-57468000D01*
X44227047Y-57515619D01*
X44274666Y-57610857D01*
X44274666Y-57706095D01*
X44227047Y-57848952D01*
X43655619Y-58420380D01*
X44274666Y-58420380D01*
X24423619Y-32480238D02*
X24376000Y-32575476D01*
X24280761Y-32670714D01*
X24137904Y-32813571D01*
X24090285Y-32908809D01*
X24090285Y-33004047D01*
X24328380Y-32956428D02*
X24280761Y-33051666D01*
X24185523Y-33146904D01*
X23995047Y-33194523D01*
X23661714Y-33194523D01*
X23471238Y-33146904D01*
X23376000Y-33051666D01*
X23328380Y-32956428D01*
X23328380Y-32765952D01*
X23376000Y-32670714D01*
X23471238Y-32575476D01*
X23661714Y-32527857D01*
X23995047Y-32527857D01*
X24185523Y-32575476D01*
X24280761Y-32670714D01*
X24328380Y-32765952D01*
X24328380Y-32956428D01*
X24328380Y-31575476D02*
X24328380Y-32146904D01*
X24328380Y-31861190D02*
X23328380Y-31861190D01*
X23471238Y-31956428D01*
X23566476Y-32051666D01*
X23614095Y-32146904D01*
X60832761Y-58420380D02*
X60499428Y-57944190D01*
X60261333Y-58420380D02*
X60261333Y-57420380D01*
X60642285Y-57420380D01*
X60737523Y-57468000D01*
X60785142Y-57515619D01*
X60832761Y-57610857D01*
X60832761Y-57753714D01*
X60785142Y-57848952D01*
X60737523Y-57896571D01*
X60642285Y-57944190D01*
X60261333Y-57944190D01*
X61118476Y-57420380D02*
X61451809Y-58420380D01*
X61785142Y-57420380D01*
X62642285Y-58420380D02*
X62070857Y-58420380D01*
X62356571Y-58420380D02*
X62356571Y-57420380D01*
X62261333Y-57563238D01*
X62166095Y-57658476D01*
X62070857Y-57706095D01*
X41568761Y-52776380D02*
X41235428Y-52300190D01*
X40997333Y-52776380D02*
X40997333Y-51776380D01*
X41378285Y-51776380D01*
X41473523Y-51824000D01*
X41521142Y-51871619D01*
X41568761Y-51966857D01*
X41568761Y-52109714D01*
X41521142Y-52204952D01*
X41473523Y-52252571D01*
X41378285Y-52300190D01*
X40997333Y-52300190D01*
X41854476Y-51776380D02*
X42187809Y-52776380D01*
X42521142Y-51776380D01*
X42806857Y-51871619D02*
X42854476Y-51824000D01*
X42949714Y-51776380D01*
X43187809Y-51776380D01*
X43283047Y-51824000D01*
X43330666Y-51871619D01*
X43378285Y-51966857D01*
X43378285Y-52062095D01*
X43330666Y-52204952D01*
X42759238Y-52776380D01*
X43378285Y-52776380D01*
M02*
