G04 #@! TF.GenerationSoftware,KiCad,Pcbnew,(5.1.9)-1*
G04 #@! TF.CreationDate,2021-05-04T10:01:55+09:00*
G04 #@! TF.ProjectId,ipm165,69706d31-3635-42e6-9b69-6361645f7063,0*
G04 #@! TF.SameCoordinates,Original*
G04 #@! TF.FileFunction,Copper,L2,Bot*
G04 #@! TF.FilePolarity,Positive*
%FSLAX46Y46*%
G04 Gerber Fmt 4.6, Leading zero omitted, Abs format (unit mm)*
G04 Created by KiCad (PCBNEW (5.1.9)-1) date 2021-05-04 10:01:55*
%MOMM*%
%LPD*%
G01*
G04 APERTURE LIST*
G04 #@! TA.AperFunction,ComponentPad*
%ADD10C,1.778000*%
G04 #@! TD*
G04 #@! TA.AperFunction,ComponentPad*
%ADD11O,1.600000X2.300000*%
G04 #@! TD*
G04 #@! TA.AperFunction,ComponentPad*
%ADD12R,1.600000X2.300000*%
G04 #@! TD*
G04 #@! TA.AperFunction,ComponentPad*
%ADD13O,2.300000X1.600000*%
G04 #@! TD*
G04 #@! TA.AperFunction,ComponentPad*
%ADD14R,2.300000X1.600000*%
G04 #@! TD*
G04 #@! TA.AperFunction,ComponentPad*
%ADD15R,1.778000X1.778000*%
G04 #@! TD*
G04 #@! TA.AperFunction,ComponentPad*
%ADD16O,1.778000X1.778000*%
G04 #@! TD*
G04 #@! TA.AperFunction,ComponentPad*
%ADD17O,1.778000X1.930400*%
G04 #@! TD*
G04 #@! TA.AperFunction,ViaPad*
%ADD18C,2.032000*%
G04 #@! TD*
G04 #@! TA.AperFunction,Conductor*
%ADD19C,1.016000*%
G04 #@! TD*
G04 #@! TA.AperFunction,Conductor*
%ADD20C,0.254000*%
G04 #@! TD*
G04 APERTURE END LIST*
D10*
X43688000Y-35560000D03*
X38608000Y-35560000D03*
X36576000Y-54610000D03*
X36576000Y-49530000D03*
D11*
X46228000Y-46482000D03*
X43688000Y-46482000D03*
X41148000Y-46482000D03*
X38608000Y-46482000D03*
X38608000Y-38862000D03*
X41148000Y-38862000D03*
X43688000Y-38862000D03*
D12*
X46228000Y-38862000D03*
D10*
X25908000Y-47625000D03*
X30988000Y-47625000D03*
D13*
X33528000Y-58420000D03*
X25908000Y-55880000D03*
X25908000Y-58420000D03*
X25908000Y-60960000D03*
D14*
X33528000Y-60960000D03*
D13*
X33528000Y-55880000D03*
D11*
X51308000Y-46990000D03*
X53848000Y-46990000D03*
X56388000Y-46990000D03*
X58928000Y-46990000D03*
X58928000Y-54610000D03*
X56388000Y-54610000D03*
X53848000Y-54610000D03*
D12*
X51308000Y-54610000D03*
D10*
X35560000Y-32512000D03*
X40640000Y-32512000D03*
X54483000Y-37465000D03*
X49403000Y-37465000D03*
X57658000Y-34925000D03*
X57658000Y-29845000D03*
X65278000Y-34925000D03*
X65278000Y-29845000D03*
X70993000Y-53975000D03*
X65913000Y-53975000D03*
X70993000Y-46355000D03*
X65913000Y-46355000D03*
D15*
X44958000Y-49530000D03*
D10*
X39878000Y-49530000D03*
D15*
X62738000Y-51435000D03*
D10*
X62738000Y-46355000D03*
X30988000Y-36576000D03*
X30988000Y-31496000D03*
X30988000Y-40005000D03*
X25908000Y-40005000D03*
X25908000Y-43815000D03*
X30988000Y-43815000D03*
X35433000Y-40005000D03*
X35433000Y-45085000D03*
X54483000Y-34290000D03*
X49403000Y-34290000D03*
X61468000Y-34925000D03*
X61468000Y-29845000D03*
X69088000Y-34925000D03*
X69088000Y-29845000D03*
X68453000Y-38735000D03*
X63373000Y-38735000D03*
X70993000Y-50165000D03*
X65913000Y-50165000D03*
X48006000Y-49530000D03*
X48006000Y-54610000D03*
X53848000Y-57912000D03*
X53848000Y-62992000D03*
X53848000Y-43815000D03*
X58928000Y-43815000D03*
X65913000Y-42545000D03*
X70993000Y-42545000D03*
X30988000Y-51435000D03*
X28448000Y-51435000D03*
X25908000Y-51435000D03*
D16*
X50800000Y-29718000D03*
X48260000Y-29718000D03*
D15*
X45720000Y-29718000D03*
D17*
X48608000Y-61468000D03*
X46108000Y-61468000D03*
X43608000Y-61468000D03*
X41108000Y-61468000D03*
G04 #@! TA.AperFunction,ComponentPad*
G36*
G01*
X37719000Y-62171840D02*
X37719000Y-60764160D01*
G75*
G02*
X37980360Y-60502800I261360J0D01*
G01*
X39235640Y-60502800D01*
G75*
G02*
X39497000Y-60764160I0J-261360D01*
G01*
X39497000Y-62171840D01*
G75*
G02*
X39235640Y-62433200I-261360J0D01*
G01*
X37980360Y-62433200D01*
G75*
G02*
X37719000Y-62171840I0J261360D01*
G01*
G37*
G04 #@! TD.AperFunction*
D15*
X25908000Y-34925000D03*
D10*
X25908000Y-29845000D03*
X25908000Y-32385000D03*
D17*
X63928000Y-61468000D03*
X61428000Y-61468000D03*
G04 #@! TA.AperFunction,ComponentPad*
G36*
G01*
X58039000Y-62171840D02*
X58039000Y-60764160D01*
G75*
G02*
X58300360Y-60502800I261360J0D01*
G01*
X59555640Y-60502800D01*
G75*
G02*
X59817000Y-60764160I0J-261360D01*
G01*
X59817000Y-62171840D01*
G75*
G02*
X59555640Y-62433200I-261360J0D01*
G01*
X58300360Y-62433200D01*
G75*
G02*
X58039000Y-62171840I0J261360D01*
G01*
G37*
G04 #@! TD.AperFunction*
D10*
X39624000Y-54864000D03*
X42164000Y-57404000D03*
X44704000Y-54864000D03*
D18*
X33528000Y-53340000D03*
X33528000Y-48895000D03*
D19*
X30988000Y-40005000D02*
X30988000Y-43815000D01*
X30988000Y-43815000D02*
X30988000Y-47625000D01*
X30988000Y-40005000D02*
X35433000Y-40005000D01*
X30614000Y-60960000D02*
X33528000Y-60960000D01*
X28074000Y-58420000D02*
X30614000Y-60960000D01*
X28074000Y-58420000D02*
X25908000Y-58420000D01*
X25908000Y-43815000D02*
X25908000Y-47625000D01*
X28448000Y-58046000D02*
X28074000Y-58420000D01*
X28448000Y-51435000D02*
X28448000Y-58046000D01*
X30223966Y-53340000D02*
X33528000Y-53340000D01*
X28448000Y-51564034D02*
X30223966Y-53340000D01*
X28448000Y-51435000D02*
X28448000Y-51564034D01*
X25908000Y-48765966D02*
X25908000Y-47625000D01*
X28448000Y-51305966D02*
X25908000Y-48765966D01*
X28448000Y-51435000D02*
X28448000Y-51305966D01*
X58928000Y-54610000D02*
X60223401Y-55905401D01*
X60223401Y-55905401D02*
X70967851Y-55905401D01*
X71399401Y-42138599D02*
X70993000Y-42545000D01*
X70993000Y-53975000D02*
X70993000Y-55886606D01*
X70993000Y-55880252D02*
X70993000Y-53975000D01*
X70993000Y-42545000D02*
X70993000Y-46355000D01*
X70993000Y-50165000D02*
X70993000Y-53975000D01*
X70993000Y-46355000D02*
X70993000Y-50165000D01*
X55626020Y-64770020D02*
X63252586Y-64770020D01*
X53848000Y-62992000D02*
X55626020Y-64770020D01*
X52324000Y-61468000D02*
X53848000Y-62992000D01*
X48608000Y-61468000D02*
X52324000Y-61468000D01*
X70993000Y-57029606D02*
X63252586Y-64770020D01*
X70993000Y-53975000D02*
X70993000Y-57029606D01*
X33502599Y-48869599D02*
X33528000Y-48895000D01*
X33502599Y-44158407D02*
X33502599Y-48869599D01*
X34506407Y-43154599D02*
X33502599Y-44158407D01*
X48608000Y-58768000D02*
X48608000Y-61468000D01*
X44704000Y-54864000D02*
X48608000Y-58768000D01*
X42837597Y-33553409D02*
X40538401Y-35852605D01*
X71018401Y-42519599D02*
X70993000Y-42545000D01*
X47242103Y-33553409D02*
X42837597Y-33553409D01*
X50800000Y-29995512D02*
X47242103Y-33553409D01*
X50800000Y-29718000D02*
X50800000Y-29995512D01*
X52603401Y-27914599D02*
X50800000Y-29718000D01*
X70014593Y-27914599D02*
X52603401Y-27914599D01*
X72008999Y-29909005D02*
X70014593Y-27914599D01*
X72008999Y-41529001D02*
X72008999Y-29909005D01*
X70993000Y-42545000D02*
X72008999Y-41529001D01*
X36322000Y-36576000D02*
X38608000Y-38862000D01*
X30988000Y-36576000D02*
X36322000Y-36576000D01*
X40538401Y-36581599D02*
X38608000Y-38512000D01*
X38608000Y-38512000D02*
X38608000Y-38862000D01*
X40538401Y-35852605D02*
X40538401Y-36581599D01*
X38608000Y-41028000D02*
X38608000Y-38862000D01*
X36481401Y-43154599D02*
X38608000Y-41028000D01*
X34506407Y-43154599D02*
X36481401Y-43154599D01*
X48260000Y-30523922D02*
X48260000Y-29718000D01*
X47160921Y-31623001D02*
X48260000Y-30523922D01*
X41528999Y-31623001D02*
X47160921Y-31623001D01*
X40640000Y-32512000D02*
X41528999Y-31623001D01*
X35560000Y-32512000D02*
X38608000Y-35560000D01*
X52259994Y-37465000D02*
X54483000Y-37465000D01*
X50329593Y-39395401D02*
X52259994Y-37465000D01*
X48476407Y-39395401D02*
X50329593Y-39395401D01*
X47943006Y-38862000D02*
X48476407Y-39395401D01*
X46228000Y-38862000D02*
X47943006Y-38862000D01*
X54483000Y-34290000D02*
X54483000Y-37465000D01*
X54483000Y-33020000D02*
X57658000Y-29845000D01*
X54483000Y-34290000D02*
X54483000Y-33020000D01*
X43688000Y-35560000D02*
X43688000Y-38862000D01*
X44696479Y-36797599D02*
X48735599Y-36797599D01*
X43688000Y-37806078D02*
X44696479Y-36797599D01*
X48735599Y-36797599D02*
X49403000Y-37465000D01*
X43688000Y-38862000D02*
X43688000Y-37806078D01*
X49403000Y-34290000D02*
X49403000Y-37465000D01*
X61468000Y-31115000D02*
X61468000Y-29845000D01*
X57658000Y-34925000D02*
X61468000Y-31115000D01*
X69088000Y-34925000D02*
X65278000Y-34925000D01*
X65278000Y-34925000D02*
X65278000Y-36830000D01*
X65278000Y-36830000D02*
X63373000Y-38735000D01*
X43688000Y-48260000D02*
X44958000Y-49530000D01*
X43688000Y-46482000D02*
X43688000Y-48260000D01*
X60223401Y-41884599D02*
X63373000Y-38735000D01*
X52921407Y-41884599D02*
X60223401Y-41884599D01*
X43688000Y-46247459D02*
X43688000Y-46482000D01*
X45517869Y-44417590D02*
X43688000Y-46247459D01*
X50388416Y-44417590D02*
X45517869Y-44417590D01*
X52921407Y-41884599D02*
X50388416Y-44417590D01*
X65278000Y-29845000D02*
X69088000Y-29845000D01*
X64749590Y-29845000D02*
X65278000Y-29845000D01*
X61468000Y-33126590D02*
X64749590Y-29845000D01*
X61468000Y-34925000D02*
X61468000Y-33126590D01*
X58834634Y-37558366D02*
X61468000Y-34925000D01*
X57246629Y-37558366D02*
X58834634Y-37558366D01*
X52552599Y-39395401D02*
X55409593Y-39395401D01*
X51021590Y-40926410D02*
X52552599Y-39395401D01*
X42926000Y-43941049D02*
X42926000Y-41402000D01*
X43401590Y-40926410D02*
X51021590Y-40926410D01*
X41148000Y-45719049D02*
X42926000Y-43941049D01*
X55409593Y-39395401D02*
X57246629Y-37558366D01*
X42926000Y-41402000D02*
X43401590Y-40926410D01*
X41148000Y-46482000D02*
X41148000Y-45719049D01*
X53848000Y-54610000D02*
X53848000Y-54375459D01*
X53848000Y-54375459D02*
X55677869Y-52545590D01*
X55677869Y-52545590D02*
X60602668Y-52545590D01*
X60602668Y-52545590D02*
X62032078Y-53975000D01*
X68453000Y-38735000D02*
X68453000Y-51435000D01*
X62032078Y-53975000D02*
X65913000Y-53975000D01*
X65913000Y-53975000D02*
X68453000Y-51435000D01*
X56388000Y-46589541D02*
X56388000Y-46355000D01*
X58217869Y-49054410D02*
X56388000Y-47224541D01*
X56388000Y-47224541D02*
X56388000Y-46990000D01*
X60038590Y-49054410D02*
X58217869Y-49054410D01*
X65913000Y-46355000D02*
X65913000Y-50165000D01*
X62738000Y-46355000D02*
X65913000Y-46355000D01*
X62738000Y-46355000D02*
X60038590Y-49054410D01*
X25908000Y-55880000D02*
X25908000Y-51435000D01*
X36576000Y-49530000D02*
X39878000Y-49530000D01*
X44958001Y-28956001D02*
X45720000Y-29718000D01*
X26796999Y-28956001D02*
X44958001Y-28956001D01*
X25908000Y-29845000D02*
X26796999Y-28956001D01*
X27622401Y-62674401D02*
X25908000Y-60960000D01*
X37401599Y-62674401D02*
X38608000Y-61468000D01*
X27622401Y-62674401D02*
X37401599Y-62674401D01*
X23843590Y-33388750D02*
X23843590Y-61670131D01*
X24847340Y-32385000D02*
X23843590Y-33388750D01*
X25908000Y-32385000D02*
X24847340Y-32385000D01*
X23843590Y-61670131D02*
X26270270Y-64096811D01*
X41108000Y-61962274D02*
X41108000Y-61468000D01*
X38973463Y-64096811D02*
X41108000Y-61962274D01*
X26270270Y-64096811D02*
X38973463Y-64096811D01*
X30099000Y-32385000D02*
X30988000Y-31496000D01*
X25908000Y-32385000D02*
X30099000Y-32385000D01*
X43608000Y-61341394D02*
X43608000Y-61468000D01*
X41854996Y-59588390D02*
X43608000Y-61341394D01*
X41554390Y-59588390D02*
X41854996Y-59588390D01*
X36576000Y-54610000D02*
X41554390Y-59588390D01*
X46108000Y-61094000D02*
X46108000Y-61468000D01*
X46108000Y-60090765D02*
X46108000Y-61468000D01*
X43421235Y-57404000D02*
X46108000Y-60090765D01*
X42164000Y-57404000D02*
X43421235Y-57404000D01*
X38608000Y-46247459D02*
X38608000Y-46482000D01*
X41148000Y-43707459D02*
X38608000Y-46247459D01*
X41148000Y-38862000D02*
X41148000Y-43707459D01*
X36830000Y-46482000D02*
X35433000Y-45085000D01*
X38608000Y-46482000D02*
X36830000Y-46482000D01*
X63928000Y-61594606D02*
X63928000Y-61468000D01*
X62174996Y-63347610D02*
X63928000Y-61594606D01*
X57813336Y-63347610D02*
X62174996Y-63347610D01*
X54308127Y-59842401D02*
X57813336Y-63347610D01*
X52921407Y-59842401D02*
X54308127Y-59842401D01*
X48006000Y-54926994D02*
X52921407Y-59842401D01*
X48006000Y-54610000D02*
X48006000Y-54926994D01*
X55372000Y-57912000D02*
X58928000Y-61468000D01*
X53848000Y-57912000D02*
X55372000Y-57912000D01*
X56388000Y-54610000D02*
X56388000Y-54844541D01*
X61428000Y-60973726D02*
X61428000Y-61468000D01*
X56388000Y-55933726D02*
X61428000Y-60973726D01*
X56388000Y-54610000D02*
X56388000Y-55933726D01*
X58928000Y-43815000D02*
X58928000Y-46990000D01*
X58928000Y-46990000D02*
X61493401Y-44424599D01*
X65913000Y-44424599D02*
X65913000Y-42545000D01*
X61493401Y-44424599D02*
X65913000Y-44424599D01*
X25908000Y-34925000D02*
X25908000Y-40005000D01*
X27838401Y-41935401D02*
X27838401Y-48156367D01*
X27838401Y-48156367D02*
X30988000Y-51305966D01*
X25908000Y-40005000D02*
X27838401Y-41935401D01*
X51308000Y-46990000D02*
X51308000Y-46355000D01*
X51308000Y-46355000D02*
X53848000Y-43815000D01*
X48768000Y-49530000D02*
X51308000Y-46990000D01*
X48006000Y-49530000D02*
X48768000Y-49530000D01*
X48006000Y-48260000D02*
X46228000Y-46482000D01*
X48006000Y-49530000D02*
X48006000Y-48260000D01*
X46502323Y-51409599D02*
X48006000Y-49905922D01*
X48006000Y-49905922D02*
X48006000Y-49530000D01*
X31013401Y-51409599D02*
X46502323Y-51409599D01*
X30988000Y-51435000D02*
X31013401Y-51409599D01*
X62426180Y-51123180D02*
X62738000Y-51435000D01*
X52628820Y-51123180D02*
X62426180Y-51123180D01*
X51308000Y-52444000D02*
X52628820Y-51123180D01*
X51308000Y-54610000D02*
X51308000Y-52444000D01*
X53848000Y-47892409D02*
X53848000Y-46990000D01*
X49924409Y-51816000D02*
X53848000Y-47892409D01*
X48130966Y-51816000D02*
X49924409Y-51816000D01*
X46886367Y-53060599D02*
X48130966Y-51816000D01*
X41427401Y-53060599D02*
X46886367Y-53060599D01*
X39624000Y-54864000D02*
X41427401Y-53060599D01*
D20*
X73000001Y-70460000D02*
X23520000Y-70460000D01*
X23520000Y-67597872D01*
X23927000Y-67597872D01*
X23927000Y-68038128D01*
X24012890Y-68469925D01*
X24181369Y-68876669D01*
X24425962Y-69242729D01*
X24737271Y-69554038D01*
X25103331Y-69798631D01*
X25510075Y-69967110D01*
X25941872Y-70053000D01*
X26382128Y-70053000D01*
X26813925Y-69967110D01*
X27220669Y-69798631D01*
X27586729Y-69554038D01*
X27898038Y-69242729D01*
X28142631Y-68876669D01*
X28311110Y-68469925D01*
X28397000Y-68038128D01*
X28397000Y-67597872D01*
X68123000Y-67597872D01*
X68123000Y-68038128D01*
X68208890Y-68469925D01*
X68377369Y-68876669D01*
X68621962Y-69242729D01*
X68933271Y-69554038D01*
X69299331Y-69798631D01*
X69706075Y-69967110D01*
X70137872Y-70053000D01*
X70578128Y-70053000D01*
X71009925Y-69967110D01*
X71416669Y-69798631D01*
X71782729Y-69554038D01*
X72094038Y-69242729D01*
X72338631Y-68876669D01*
X72507110Y-68469925D01*
X72593000Y-68038128D01*
X72593000Y-67597872D01*
X72507110Y-67166075D01*
X72338631Y-66759331D01*
X72094038Y-66393271D01*
X71782729Y-66081962D01*
X71416669Y-65837369D01*
X71009925Y-65668890D01*
X70578128Y-65583000D01*
X70137872Y-65583000D01*
X69706075Y-65668890D01*
X69299331Y-65837369D01*
X68933271Y-66081962D01*
X68621962Y-66393271D01*
X68377369Y-66759331D01*
X68208890Y-67166075D01*
X68123000Y-67597872D01*
X28397000Y-67597872D01*
X28311110Y-67166075D01*
X28142631Y-66759331D01*
X27898038Y-66393271D01*
X27586729Y-66081962D01*
X27220669Y-65837369D01*
X26813925Y-65668890D01*
X26382128Y-65583000D01*
X25941872Y-65583000D01*
X25510075Y-65668890D01*
X25103331Y-65837369D01*
X24737271Y-66081962D01*
X24425962Y-66393271D01*
X24181369Y-66759331D01*
X24012890Y-67166075D01*
X23927000Y-67597872D01*
X23520000Y-67597872D01*
X23520000Y-62962986D01*
X25422347Y-64865334D01*
X25458137Y-64908944D01*
X25632181Y-65051779D01*
X25830747Y-65157914D01*
X25980844Y-65203446D01*
X26046202Y-65223272D01*
X26066787Y-65225299D01*
X26214124Y-65239811D01*
X26214131Y-65239811D01*
X26270270Y-65245340D01*
X26326409Y-65239811D01*
X38917324Y-65239811D01*
X38973463Y-65245340D01*
X39029602Y-65239811D01*
X39029609Y-65239811D01*
X39197530Y-65223272D01*
X39412986Y-65157914D01*
X39611552Y-65051779D01*
X39785596Y-64908944D01*
X39821390Y-64865329D01*
X40638488Y-64048231D01*
X52971374Y-64048231D01*
X53053727Y-64301289D01*
X53324418Y-64431086D01*
X53615230Y-64505580D01*
X53914988Y-64521908D01*
X54212171Y-64479443D01*
X54495359Y-64379816D01*
X54642273Y-64301289D01*
X54724626Y-64048231D01*
X53848000Y-63171605D01*
X52971374Y-64048231D01*
X40638488Y-64048231D01*
X41766396Y-62920324D01*
X41958785Y-62817490D01*
X42190844Y-62627044D01*
X42358000Y-62423363D01*
X42525156Y-62627044D01*
X42757216Y-62817490D01*
X43021970Y-62959004D01*
X43309245Y-63046148D01*
X43608000Y-63075573D01*
X43906756Y-63046148D01*
X44194031Y-62959004D01*
X44458785Y-62817490D01*
X44690844Y-62627044D01*
X44858000Y-62423363D01*
X45025156Y-62627044D01*
X45257216Y-62817490D01*
X45521970Y-62959004D01*
X45809245Y-63046148D01*
X46108000Y-63075573D01*
X46276389Y-63058988D01*
X52318092Y-63058988D01*
X52360557Y-63356171D01*
X52460184Y-63639359D01*
X52538711Y-63786273D01*
X52791769Y-63868626D01*
X53668395Y-62992000D01*
X52791769Y-62115374D01*
X52538711Y-62197727D01*
X52408914Y-62468418D01*
X52334420Y-62759230D01*
X52318092Y-63058988D01*
X46276389Y-63058988D01*
X46406756Y-63046148D01*
X46694031Y-62959004D01*
X46958785Y-62817490D01*
X47190844Y-62627044D01*
X47363985Y-62416070D01*
X47524930Y-62614559D01*
X47754558Y-62805289D01*
X48016983Y-62947556D01*
X48244987Y-63024334D01*
X48481000Y-62903530D01*
X48481000Y-61595000D01*
X48735000Y-61595000D01*
X48735000Y-62903530D01*
X48971013Y-63024334D01*
X49199017Y-62947556D01*
X49461442Y-62805289D01*
X49691070Y-62614559D01*
X49879076Y-62382696D01*
X50018235Y-62118610D01*
X50103200Y-61832450D01*
X49971134Y-61595000D01*
X48735000Y-61595000D01*
X48481000Y-61595000D01*
X48461000Y-61595000D01*
X48461000Y-61341000D01*
X48481000Y-61341000D01*
X48481000Y-60032470D01*
X48735000Y-60032470D01*
X48735000Y-61341000D01*
X49971134Y-61341000D01*
X50103200Y-61103550D01*
X50018235Y-60817390D01*
X49879076Y-60553304D01*
X49691070Y-60321441D01*
X49461442Y-60130711D01*
X49199017Y-59988444D01*
X48971013Y-59911666D01*
X48735000Y-60032470D01*
X48481000Y-60032470D01*
X48244987Y-59911666D01*
X48016983Y-59988444D01*
X47754558Y-60130711D01*
X47524930Y-60321441D01*
X47363986Y-60519930D01*
X47251000Y-60382256D01*
X47251000Y-60146904D01*
X47256529Y-60090765D01*
X47251000Y-60034626D01*
X47251000Y-60034619D01*
X47234461Y-59866698D01*
X47224402Y-59833539D01*
X47169103Y-59651241D01*
X47112724Y-59545764D01*
X47062968Y-59452676D01*
X46920133Y-59278632D01*
X46876524Y-59242843D01*
X44269162Y-56635482D01*
X44233368Y-56591867D01*
X44059324Y-56449032D01*
X43860758Y-56342897D01*
X43645302Y-56277539D01*
X43477381Y-56261000D01*
X43477374Y-56261000D01*
X43421235Y-56255471D01*
X43365096Y-56261000D01*
X43176261Y-56261000D01*
X43135493Y-56220232D01*
X42885885Y-56053449D01*
X42608534Y-55938566D01*
X42516358Y-55920231D01*
X43827374Y-55920231D01*
X43909727Y-56173289D01*
X44180418Y-56303086D01*
X44471230Y-56377580D01*
X44770988Y-56393908D01*
X45068171Y-56351443D01*
X45351359Y-56251816D01*
X45498273Y-56173289D01*
X45580626Y-55920231D01*
X44704000Y-55043605D01*
X43827374Y-55920231D01*
X42516358Y-55920231D01*
X42314101Y-55880000D01*
X42013899Y-55880000D01*
X41719466Y-55938566D01*
X41442115Y-56053449D01*
X41192507Y-56220232D01*
X40980232Y-56432507D01*
X40813449Y-56682115D01*
X40698566Y-56959466D01*
X40672576Y-57090130D01*
X39937870Y-56355425D01*
X40068534Y-56329434D01*
X40345885Y-56214551D01*
X40595493Y-56047768D01*
X40807768Y-55835493D01*
X40974551Y-55585885D01*
X41089434Y-55308534D01*
X41148000Y-55014101D01*
X41148000Y-54956445D01*
X41900847Y-54203599D01*
X43330519Y-54203599D01*
X43264914Y-54340418D01*
X43190420Y-54631230D01*
X43174092Y-54930988D01*
X43216557Y-55228171D01*
X43316184Y-55511359D01*
X43394711Y-55658273D01*
X43647769Y-55740626D01*
X44524395Y-54864000D01*
X44510253Y-54849858D01*
X44689858Y-54670253D01*
X44704000Y-54684395D01*
X44718143Y-54670253D01*
X44897748Y-54849858D01*
X44883605Y-54864000D01*
X45760231Y-55740626D01*
X46013289Y-55658273D01*
X46143086Y-55387582D01*
X46217580Y-55096770D01*
X46233908Y-54797012D01*
X46191443Y-54499829D01*
X46091816Y-54216641D01*
X46084845Y-54203599D01*
X46532981Y-54203599D01*
X46482000Y-54459899D01*
X46482000Y-54760101D01*
X46540566Y-55054534D01*
X46655449Y-55331885D01*
X46822232Y-55581493D01*
X47034507Y-55793768D01*
X47284115Y-55960551D01*
X47521398Y-56058837D01*
X52073488Y-60610929D01*
X52109274Y-60654534D01*
X52152878Y-60690319D01*
X52152884Y-60690325D01*
X52242854Y-60764161D01*
X52283318Y-60797369D01*
X52481884Y-60903504D01*
X52631981Y-60949036D01*
X52697339Y-60968862D01*
X52720007Y-60971095D01*
X52865261Y-60985401D01*
X52865267Y-60985401D01*
X52921406Y-60990930D01*
X52977545Y-60985401D01*
X53834682Y-60985401D01*
X54430396Y-61581116D01*
X54371582Y-61552914D01*
X54080770Y-61478420D01*
X53781012Y-61462092D01*
X53483829Y-61504557D01*
X53200641Y-61604184D01*
X53053727Y-61682711D01*
X52971374Y-61935769D01*
X53848000Y-62812395D01*
X53862143Y-62798253D01*
X54041748Y-62977858D01*
X54027605Y-62992000D01*
X54904231Y-63868626D01*
X55157289Y-63786273D01*
X55287086Y-63515582D01*
X55361580Y-63224770D01*
X55377908Y-62925012D01*
X55335443Y-62627829D01*
X55258554Y-62409274D01*
X56965413Y-64116133D01*
X57001203Y-64159743D01*
X57175247Y-64302578D01*
X57373813Y-64408713D01*
X57523910Y-64454245D01*
X57589268Y-64474071D01*
X57611936Y-64476304D01*
X57757190Y-64490610D01*
X57757196Y-64490610D01*
X57813335Y-64496139D01*
X57869474Y-64490610D01*
X62118857Y-64490610D01*
X62174996Y-64496139D01*
X62231135Y-64490610D01*
X62231142Y-64490610D01*
X62399063Y-64474071D01*
X62614519Y-64408713D01*
X62813085Y-64302578D01*
X62987129Y-64159743D01*
X63022923Y-64116128D01*
X64078280Y-63060772D01*
X64226756Y-63046148D01*
X64514031Y-62959004D01*
X64778785Y-62817490D01*
X65010844Y-62627044D01*
X65201290Y-62394984D01*
X65342804Y-62130230D01*
X65429948Y-61842955D01*
X65452000Y-61619058D01*
X65452000Y-61316941D01*
X65429948Y-61093044D01*
X65342804Y-60805769D01*
X65201290Y-60541015D01*
X65010844Y-60308956D01*
X64778784Y-60118510D01*
X64514030Y-59976996D01*
X64226755Y-59889852D01*
X63928000Y-59860427D01*
X63629244Y-59889852D01*
X63341969Y-59976996D01*
X63077215Y-60118510D01*
X62845156Y-60308956D01*
X62678000Y-60512637D01*
X62510844Y-60308956D01*
X62278784Y-60118510D01*
X62086399Y-60015678D01*
X58337516Y-56266796D01*
X58496182Y-56334367D01*
X58578961Y-56351904D01*
X58801000Y-56229915D01*
X58801000Y-54737000D01*
X59055000Y-54737000D01*
X59055000Y-56229915D01*
X59277039Y-56351904D01*
X59359818Y-56334367D01*
X59619646Y-56223715D01*
X59852895Y-56064500D01*
X60050601Y-55862839D01*
X60205166Y-55626483D01*
X60310650Y-55364514D01*
X60363000Y-55087000D01*
X60363000Y-54737000D01*
X59055000Y-54737000D01*
X58801000Y-54737000D01*
X58781000Y-54737000D01*
X58781000Y-54483000D01*
X58801000Y-54483000D01*
X58801000Y-54463000D01*
X59055000Y-54463000D01*
X59055000Y-54483000D01*
X60363000Y-54483000D01*
X60363000Y-54133000D01*
X60314029Y-53873396D01*
X61184155Y-54743523D01*
X61219945Y-54787133D01*
X61393989Y-54929968D01*
X61592555Y-55036103D01*
X61733634Y-55078899D01*
X61808010Y-55101461D01*
X61830678Y-55103694D01*
X61975932Y-55118000D01*
X61975938Y-55118000D01*
X62032077Y-55123529D01*
X62088216Y-55118000D01*
X64900739Y-55118000D01*
X64941507Y-55158768D01*
X65191115Y-55325551D01*
X65468466Y-55440434D01*
X65762899Y-55499000D01*
X66063101Y-55499000D01*
X66357534Y-55440434D01*
X66634885Y-55325551D01*
X66884493Y-55158768D01*
X67012030Y-55031231D01*
X70116374Y-55031231D01*
X70198727Y-55284289D01*
X70469418Y-55414086D01*
X70760230Y-55488580D01*
X71059988Y-55504908D01*
X71357171Y-55462443D01*
X71640359Y-55362816D01*
X71787273Y-55284289D01*
X71869626Y-55031231D01*
X70993000Y-54154605D01*
X70116374Y-55031231D01*
X67012030Y-55031231D01*
X67096768Y-54946493D01*
X67263551Y-54696885D01*
X67378434Y-54419534D01*
X67437000Y-54125101D01*
X67437000Y-54067445D01*
X67462457Y-54041988D01*
X69463092Y-54041988D01*
X69505557Y-54339171D01*
X69605184Y-54622359D01*
X69683711Y-54769273D01*
X69936769Y-54851626D01*
X70813395Y-53975000D01*
X71172605Y-53975000D01*
X72049231Y-54851626D01*
X72302289Y-54769273D01*
X72432086Y-54498582D01*
X72506580Y-54207770D01*
X72522908Y-53908012D01*
X72480443Y-53610829D01*
X72380816Y-53327641D01*
X72302289Y-53180727D01*
X72049231Y-53098374D01*
X71172605Y-53975000D01*
X70813395Y-53975000D01*
X69936769Y-53098374D01*
X69683711Y-53180727D01*
X69553914Y-53451418D01*
X69479420Y-53742230D01*
X69463092Y-54041988D01*
X67462457Y-54041988D01*
X68585676Y-52918769D01*
X70116374Y-52918769D01*
X70993000Y-53795395D01*
X71869626Y-52918769D01*
X71787273Y-52665711D01*
X71516582Y-52535914D01*
X71225770Y-52461420D01*
X70926012Y-52445092D01*
X70628829Y-52487557D01*
X70345641Y-52587184D01*
X70198727Y-52665711D01*
X70116374Y-52918769D01*
X68585676Y-52918769D01*
X69221523Y-52282923D01*
X69265133Y-52247133D01*
X69407968Y-52073089D01*
X69514103Y-51874523D01*
X69573542Y-51678580D01*
X69579461Y-51659068D01*
X69589926Y-51552816D01*
X69596000Y-51491146D01*
X69596000Y-51491140D01*
X69601529Y-51435001D01*
X69596000Y-51378862D01*
X69596000Y-51221231D01*
X70116374Y-51221231D01*
X70198727Y-51474289D01*
X70469418Y-51604086D01*
X70760230Y-51678580D01*
X71059988Y-51694908D01*
X71357171Y-51652443D01*
X71640359Y-51552816D01*
X71787273Y-51474289D01*
X71869626Y-51221231D01*
X70993000Y-50344605D01*
X70116374Y-51221231D01*
X69596000Y-51221231D01*
X69596000Y-50786254D01*
X69605184Y-50812359D01*
X69683711Y-50959273D01*
X69936769Y-51041626D01*
X70813395Y-50165000D01*
X71172605Y-50165000D01*
X72049231Y-51041626D01*
X72302289Y-50959273D01*
X72432086Y-50688582D01*
X72506580Y-50397770D01*
X72522908Y-50098012D01*
X72480443Y-49800829D01*
X72380816Y-49517641D01*
X72302289Y-49370727D01*
X72049231Y-49288374D01*
X71172605Y-50165000D01*
X70813395Y-50165000D01*
X69936769Y-49288374D01*
X69683711Y-49370727D01*
X69596000Y-49553648D01*
X69596000Y-49108769D01*
X70116374Y-49108769D01*
X70993000Y-49985395D01*
X71869626Y-49108769D01*
X71787273Y-48855711D01*
X71516582Y-48725914D01*
X71225770Y-48651420D01*
X70926012Y-48635092D01*
X70628829Y-48677557D01*
X70345641Y-48777184D01*
X70198727Y-48855711D01*
X70116374Y-49108769D01*
X69596000Y-49108769D01*
X69596000Y-47411231D01*
X70116374Y-47411231D01*
X70198727Y-47664289D01*
X70469418Y-47794086D01*
X70760230Y-47868580D01*
X71059988Y-47884908D01*
X71357171Y-47842443D01*
X71640359Y-47742816D01*
X71787273Y-47664289D01*
X71869626Y-47411231D01*
X70993000Y-46534605D01*
X70116374Y-47411231D01*
X69596000Y-47411231D01*
X69596000Y-46976254D01*
X69605184Y-47002359D01*
X69683711Y-47149273D01*
X69936769Y-47231626D01*
X70813395Y-46355000D01*
X71172605Y-46355000D01*
X72049231Y-47231626D01*
X72302289Y-47149273D01*
X72432086Y-46878582D01*
X72506580Y-46587770D01*
X72522908Y-46288012D01*
X72480443Y-45990829D01*
X72380816Y-45707641D01*
X72302289Y-45560727D01*
X72049231Y-45478374D01*
X71172605Y-46355000D01*
X70813395Y-46355000D01*
X69936769Y-45478374D01*
X69683711Y-45560727D01*
X69596000Y-45743648D01*
X69596000Y-45298769D01*
X70116374Y-45298769D01*
X70993000Y-46175395D01*
X71869626Y-45298769D01*
X71787273Y-45045711D01*
X71516582Y-44915914D01*
X71225770Y-44841420D01*
X70926012Y-44825092D01*
X70628829Y-44867557D01*
X70345641Y-44967184D01*
X70198727Y-45045711D01*
X70116374Y-45298769D01*
X69596000Y-45298769D01*
X69596000Y-43601231D01*
X70116374Y-43601231D01*
X70198727Y-43854289D01*
X70469418Y-43984086D01*
X70760230Y-44058580D01*
X71059988Y-44074908D01*
X71357171Y-44032443D01*
X71640359Y-43932816D01*
X71787273Y-43854289D01*
X71869626Y-43601231D01*
X70993000Y-42724605D01*
X70116374Y-43601231D01*
X69596000Y-43601231D01*
X69596000Y-43166254D01*
X69605184Y-43192359D01*
X69683711Y-43339273D01*
X69936769Y-43421626D01*
X70813395Y-42545000D01*
X71172605Y-42545000D01*
X72049231Y-43421626D01*
X72302289Y-43339273D01*
X72432086Y-43068582D01*
X72506580Y-42777770D01*
X72522908Y-42478012D01*
X72480443Y-42180829D01*
X72380816Y-41897641D01*
X72302289Y-41750727D01*
X72049231Y-41668374D01*
X71172605Y-42545000D01*
X70813395Y-42545000D01*
X69936769Y-41668374D01*
X69683711Y-41750727D01*
X69596000Y-41933648D01*
X69596000Y-41488769D01*
X70116374Y-41488769D01*
X70993000Y-42365395D01*
X71869626Y-41488769D01*
X71787273Y-41235711D01*
X71516582Y-41105914D01*
X71225770Y-41031420D01*
X70926012Y-41015092D01*
X70628829Y-41057557D01*
X70345641Y-41157184D01*
X70198727Y-41235711D01*
X70116374Y-41488769D01*
X69596000Y-41488769D01*
X69596000Y-39747261D01*
X69636768Y-39706493D01*
X69803551Y-39456885D01*
X69918434Y-39179534D01*
X69977000Y-38885101D01*
X69977000Y-38584899D01*
X69918434Y-38290466D01*
X69803551Y-38013115D01*
X69636768Y-37763507D01*
X69424493Y-37551232D01*
X69174885Y-37384449D01*
X68897534Y-37269566D01*
X68603101Y-37211000D01*
X68302899Y-37211000D01*
X68008466Y-37269566D01*
X67731115Y-37384449D01*
X67481507Y-37551232D01*
X67269232Y-37763507D01*
X67102449Y-38013115D01*
X66987566Y-38290466D01*
X66929000Y-38584899D01*
X66929000Y-38885101D01*
X66987566Y-39179534D01*
X67102449Y-39456885D01*
X67269232Y-39706493D01*
X67310000Y-39747261D01*
X67310000Y-41935253D01*
X67263551Y-41823115D01*
X67096768Y-41573507D01*
X66884493Y-41361232D01*
X66634885Y-41194449D01*
X66357534Y-41079566D01*
X66063101Y-41021000D01*
X65762899Y-41021000D01*
X65468466Y-41079566D01*
X65191115Y-41194449D01*
X64941507Y-41361232D01*
X64729232Y-41573507D01*
X64562449Y-41823115D01*
X64447566Y-42100466D01*
X64389000Y-42394899D01*
X64389000Y-42695101D01*
X64447566Y-42989534D01*
X64562449Y-43266885D01*
X64572281Y-43281599D01*
X61549540Y-43281599D01*
X61493401Y-43276070D01*
X61437262Y-43281599D01*
X61437255Y-43281599D01*
X61289918Y-43296111D01*
X61269333Y-43298138D01*
X61203975Y-43317964D01*
X61053878Y-43363496D01*
X60855312Y-43469631D01*
X60681268Y-43612466D01*
X60645478Y-43656076D01*
X60452000Y-43849554D01*
X60452000Y-43664899D01*
X60393434Y-43370466D01*
X60278551Y-43093115D01*
X60237539Y-43031736D01*
X60279540Y-43027599D01*
X60279547Y-43027599D01*
X60447468Y-43011060D01*
X60662924Y-42945702D01*
X60861490Y-42839567D01*
X61035534Y-42696732D01*
X61071328Y-42653117D01*
X63465446Y-40259000D01*
X63523101Y-40259000D01*
X63817534Y-40200434D01*
X64094885Y-40085551D01*
X64344493Y-39918768D01*
X64556768Y-39706493D01*
X64723551Y-39456885D01*
X64838434Y-39179534D01*
X64897000Y-38885101D01*
X64897000Y-38827445D01*
X66046523Y-37677923D01*
X66090133Y-37642133D01*
X66232968Y-37468089D01*
X66339103Y-37269523D01*
X66398436Y-37073928D01*
X66404461Y-37054068D01*
X66407770Y-37020466D01*
X66421000Y-36886146D01*
X66421000Y-36886139D01*
X66426529Y-36830000D01*
X66421000Y-36773861D01*
X66421000Y-36068000D01*
X68075739Y-36068000D01*
X68116507Y-36108768D01*
X68366115Y-36275551D01*
X68643466Y-36390434D01*
X68937899Y-36449000D01*
X69238101Y-36449000D01*
X69532534Y-36390434D01*
X69809885Y-36275551D01*
X70059493Y-36108768D01*
X70271768Y-35896493D01*
X70438551Y-35646885D01*
X70553434Y-35369534D01*
X70612000Y-35075101D01*
X70612000Y-34774899D01*
X70553434Y-34480466D01*
X70438551Y-34203115D01*
X70271768Y-33953507D01*
X70059493Y-33741232D01*
X69809885Y-33574449D01*
X69532534Y-33459566D01*
X69238101Y-33401000D01*
X68937899Y-33401000D01*
X68643466Y-33459566D01*
X68366115Y-33574449D01*
X68116507Y-33741232D01*
X68075739Y-33782000D01*
X66290261Y-33782000D01*
X66249493Y-33741232D01*
X65999885Y-33574449D01*
X65722534Y-33459566D01*
X65428101Y-33401000D01*
X65127899Y-33401000D01*
X64833466Y-33459566D01*
X64556115Y-33574449D01*
X64306507Y-33741232D01*
X64094232Y-33953507D01*
X63927449Y-34203115D01*
X63812566Y-34480466D01*
X63754000Y-34774899D01*
X63754000Y-35075101D01*
X63812566Y-35369534D01*
X63927449Y-35646885D01*
X64094232Y-35896493D01*
X64135001Y-35937262D01*
X64135001Y-36356553D01*
X63280555Y-37211000D01*
X63222899Y-37211000D01*
X62928466Y-37269566D01*
X62651115Y-37384449D01*
X62401507Y-37551232D01*
X62189232Y-37763507D01*
X62022449Y-38013115D01*
X61907566Y-38290466D01*
X61849000Y-38584899D01*
X61849000Y-38642554D01*
X59749956Y-40741599D01*
X52977545Y-40741599D01*
X52921406Y-40736070D01*
X52865267Y-40741599D01*
X52865261Y-40741599D01*
X52818213Y-40746233D01*
X53026045Y-40538401D01*
X55353454Y-40538401D01*
X55409593Y-40543930D01*
X55465731Y-40538401D01*
X55465739Y-40538401D01*
X55633660Y-40521862D01*
X55849116Y-40456504D01*
X56047682Y-40350369D01*
X56221726Y-40207534D01*
X56257520Y-40163919D01*
X57720075Y-38701366D01*
X58778495Y-38701366D01*
X58834634Y-38706895D01*
X58890773Y-38701366D01*
X58890780Y-38701366D01*
X59058701Y-38684827D01*
X59274157Y-38619469D01*
X59472723Y-38513334D01*
X59646767Y-38370499D01*
X59682561Y-38326884D01*
X61560446Y-36449000D01*
X61618101Y-36449000D01*
X61912534Y-36390434D01*
X62189885Y-36275551D01*
X62439493Y-36108768D01*
X62651768Y-35896493D01*
X62818551Y-35646885D01*
X62933434Y-35369534D01*
X62992000Y-35075101D01*
X62992000Y-34774899D01*
X62933434Y-34480466D01*
X62818551Y-34203115D01*
X62651768Y-33953507D01*
X62611000Y-33912739D01*
X62611000Y-33600035D01*
X64889463Y-31321572D01*
X65127899Y-31369000D01*
X65428101Y-31369000D01*
X65722534Y-31310434D01*
X65999885Y-31195551D01*
X66249493Y-31028768D01*
X66290261Y-30988000D01*
X68075739Y-30988000D01*
X68116507Y-31028768D01*
X68366115Y-31195551D01*
X68643466Y-31310434D01*
X68937899Y-31369000D01*
X69238101Y-31369000D01*
X69532534Y-31310434D01*
X69809885Y-31195551D01*
X70059493Y-31028768D01*
X70271768Y-30816493D01*
X70438551Y-30566885D01*
X70553434Y-30289534D01*
X70612000Y-29995101D01*
X70612000Y-29694899D01*
X70553434Y-29400466D01*
X70438551Y-29123115D01*
X70271768Y-28873507D01*
X70059493Y-28661232D01*
X69809885Y-28494449D01*
X69532534Y-28379566D01*
X69238101Y-28321000D01*
X68937899Y-28321000D01*
X68643466Y-28379566D01*
X68366115Y-28494449D01*
X68116507Y-28661232D01*
X68075739Y-28702000D01*
X66290261Y-28702000D01*
X66249493Y-28661232D01*
X65999885Y-28494449D01*
X65722534Y-28379566D01*
X65428101Y-28321000D01*
X65127899Y-28321000D01*
X64833466Y-28379566D01*
X64556115Y-28494449D01*
X64306507Y-28661232D01*
X64094232Y-28873507D01*
X64048816Y-28941476D01*
X63937457Y-29032867D01*
X63901667Y-29076477D01*
X62992000Y-29986144D01*
X62992000Y-29694899D01*
X62933434Y-29400466D01*
X62818551Y-29123115D01*
X62651768Y-28873507D01*
X62439493Y-28661232D01*
X62189885Y-28494449D01*
X61912534Y-28379566D01*
X61618101Y-28321000D01*
X61317899Y-28321000D01*
X61023466Y-28379566D01*
X60746115Y-28494449D01*
X60496507Y-28661232D01*
X60284232Y-28873507D01*
X60117449Y-29123115D01*
X60002566Y-29400466D01*
X59944000Y-29694899D01*
X59944000Y-29995101D01*
X60002566Y-30289534D01*
X60117449Y-30566885D01*
X60230491Y-30736063D01*
X57565555Y-33401000D01*
X57507899Y-33401000D01*
X57213466Y-33459566D01*
X56936115Y-33574449D01*
X56686507Y-33741232D01*
X56474232Y-33953507D01*
X56307449Y-34203115D01*
X56192566Y-34480466D01*
X56134000Y-34774899D01*
X56134000Y-35075101D01*
X56192566Y-35369534D01*
X56307449Y-35646885D01*
X56474232Y-35896493D01*
X56686507Y-36108768D01*
X56936115Y-36275551D01*
X57213466Y-36390434D01*
X57338808Y-36415366D01*
X57302768Y-36415366D01*
X57246629Y-36409837D01*
X57190490Y-36415366D01*
X57190483Y-36415366D01*
X57022562Y-36431905D01*
X56807106Y-36497263D01*
X56608540Y-36603398D01*
X56434496Y-36746233D01*
X56398706Y-36789843D01*
X55984876Y-37203673D01*
X55948434Y-37020466D01*
X55833551Y-36743115D01*
X55666768Y-36493507D01*
X55626000Y-36452739D01*
X55626000Y-35302261D01*
X55666768Y-35261493D01*
X55833551Y-35011885D01*
X55948434Y-34734534D01*
X56007000Y-34440101D01*
X56007000Y-34139899D01*
X55948434Y-33845466D01*
X55833551Y-33568115D01*
X55720509Y-33398936D01*
X57750446Y-31369000D01*
X57808101Y-31369000D01*
X58102534Y-31310434D01*
X58379885Y-31195551D01*
X58629493Y-31028768D01*
X58841768Y-30816493D01*
X59008551Y-30566885D01*
X59123434Y-30289534D01*
X59182000Y-29995101D01*
X59182000Y-29694899D01*
X59123434Y-29400466D01*
X59008551Y-29123115D01*
X58841768Y-28873507D01*
X58629493Y-28661232D01*
X58379885Y-28494449D01*
X58102534Y-28379566D01*
X57808101Y-28321000D01*
X57507899Y-28321000D01*
X57213466Y-28379566D01*
X56936115Y-28494449D01*
X56686507Y-28661232D01*
X56474232Y-28873507D01*
X56307449Y-29123115D01*
X56192566Y-29400466D01*
X56134000Y-29694899D01*
X56134000Y-29752554D01*
X53714478Y-32172077D01*
X53670868Y-32207867D01*
X53635078Y-32251477D01*
X53635076Y-32251479D01*
X53627189Y-32261090D01*
X53528033Y-32381911D01*
X53421897Y-32580477D01*
X53356539Y-32795933D01*
X53340000Y-32963854D01*
X53340000Y-32963861D01*
X53334471Y-33020000D01*
X53340000Y-33076139D01*
X53340000Y-33277739D01*
X53299232Y-33318507D01*
X53132449Y-33568115D01*
X53017566Y-33845466D01*
X52959000Y-34139899D01*
X52959000Y-34440101D01*
X53017566Y-34734534D01*
X53132449Y-35011885D01*
X53299232Y-35261493D01*
X53340000Y-35302261D01*
X53340001Y-36322000D01*
X52316132Y-36322000D01*
X52259993Y-36316471D01*
X52203854Y-36322000D01*
X52203848Y-36322000D01*
X52058594Y-36336306D01*
X52035926Y-36338539D01*
X52016154Y-36344537D01*
X51820471Y-36403897D01*
X51621905Y-36510032D01*
X51621903Y-36510033D01*
X51621904Y-36510033D01*
X51491471Y-36617076D01*
X51491465Y-36617082D01*
X51447861Y-36652867D01*
X51412075Y-36696472D01*
X50904876Y-37203672D01*
X50868434Y-37020466D01*
X50753551Y-36743115D01*
X50586768Y-36493507D01*
X50546000Y-36452739D01*
X50546000Y-35302261D01*
X50586768Y-35261493D01*
X50753551Y-35011885D01*
X50868434Y-34734534D01*
X50927000Y-34440101D01*
X50927000Y-34139899D01*
X50868434Y-33845466D01*
X50753551Y-33568115D01*
X50586768Y-33318507D01*
X50374493Y-33106232D01*
X50124885Y-32939449D01*
X49847534Y-32824566D01*
X49553101Y-32766000D01*
X49252899Y-32766000D01*
X48958466Y-32824566D01*
X48681115Y-32939449D01*
X48431507Y-33106232D01*
X48219232Y-33318507D01*
X48052449Y-33568115D01*
X47937566Y-33845466D01*
X47879000Y-34139899D01*
X47879000Y-34440101D01*
X47937566Y-34734534D01*
X48052449Y-35011885D01*
X48219232Y-35261493D01*
X48260000Y-35302261D01*
X48260000Y-35654599D01*
X45212000Y-35654599D01*
X45212000Y-35409899D01*
X45153434Y-35115466D01*
X45038551Y-34838115D01*
X44871768Y-34588507D01*
X44659493Y-34376232D01*
X44409885Y-34209449D01*
X44132534Y-34094566D01*
X43838101Y-34036000D01*
X43537899Y-34036000D01*
X43243466Y-34094566D01*
X42966115Y-34209449D01*
X42716507Y-34376232D01*
X42504232Y-34588507D01*
X42337449Y-34838115D01*
X42222566Y-35115466D01*
X42164000Y-35409899D01*
X42164000Y-35710101D01*
X42222566Y-36004534D01*
X42337449Y-36281885D01*
X42504232Y-36531493D01*
X42545000Y-36572261D01*
X42545001Y-37642745D01*
X42489068Y-37710899D01*
X42418000Y-37843858D01*
X42346932Y-37710899D01*
X42167608Y-37492392D01*
X41949101Y-37313068D01*
X41699808Y-37179818D01*
X41429309Y-37097764D01*
X41148000Y-37070057D01*
X40866692Y-37097764D01*
X40596193Y-37179818D01*
X40346900Y-37313068D01*
X40128393Y-37492392D01*
X39949068Y-37710899D01*
X39880735Y-37838741D01*
X39730601Y-37609161D01*
X39532895Y-37407500D01*
X39299646Y-37248285D01*
X39039818Y-37137633D01*
X38957039Y-37120096D01*
X38735002Y-37242084D01*
X38735002Y-37084000D01*
X38758101Y-37084000D01*
X39052534Y-37025434D01*
X39329885Y-36910551D01*
X39579493Y-36743768D01*
X39791768Y-36531493D01*
X39958551Y-36281885D01*
X40073434Y-36004534D01*
X40132000Y-35710101D01*
X40132000Y-35409899D01*
X40073434Y-35115466D01*
X39958551Y-34838115D01*
X39791768Y-34588507D01*
X39579493Y-34376232D01*
X39329885Y-34209449D01*
X39052534Y-34094566D01*
X38758101Y-34036000D01*
X38700446Y-34036000D01*
X37084000Y-32419555D01*
X37084000Y-32361899D01*
X37025434Y-32067466D01*
X36910551Y-31790115D01*
X36743768Y-31540507D01*
X36531493Y-31328232D01*
X36281885Y-31161449D01*
X36004534Y-31046566D01*
X35710101Y-30988000D01*
X35409899Y-30988000D01*
X35115466Y-31046566D01*
X34838115Y-31161449D01*
X34588507Y-31328232D01*
X34376232Y-31540507D01*
X34209449Y-31790115D01*
X34094566Y-32067466D01*
X34036000Y-32361899D01*
X34036000Y-32662101D01*
X34094566Y-32956534D01*
X34209449Y-33233885D01*
X34376232Y-33483493D01*
X34588507Y-33695768D01*
X34838115Y-33862551D01*
X35115466Y-33977434D01*
X35409899Y-34036000D01*
X35467555Y-34036000D01*
X37084000Y-35652446D01*
X37084000Y-35710101D01*
X37142566Y-36004534D01*
X37257449Y-36281885D01*
X37424232Y-36531493D01*
X37636507Y-36743768D01*
X37886115Y-36910551D01*
X38163466Y-37025434D01*
X38457899Y-37084000D01*
X38480998Y-37084000D01*
X38480998Y-37242084D01*
X38258961Y-37120096D01*
X38176182Y-37137633D01*
X37916354Y-37248285D01*
X37683105Y-37407500D01*
X37485399Y-37609161D01*
X37330834Y-37845517D01*
X37225350Y-38107486D01*
X37173000Y-38385000D01*
X37173000Y-38735000D01*
X38481000Y-38735000D01*
X38481000Y-38715000D01*
X38735000Y-38715000D01*
X38735000Y-38735000D01*
X38755000Y-38735000D01*
X38755000Y-38989000D01*
X38735000Y-38989000D01*
X38735000Y-40481915D01*
X38957039Y-40603904D01*
X39039818Y-40586367D01*
X39299646Y-40475715D01*
X39532895Y-40316500D01*
X39730601Y-40114839D01*
X39880735Y-39885258D01*
X39949068Y-40013100D01*
X40005000Y-40081254D01*
X40005001Y-43234012D01*
X38542506Y-44696508D01*
X38326692Y-44717764D01*
X38056193Y-44799818D01*
X37806900Y-44933068D01*
X37588393Y-45112392D01*
X37409068Y-45330899D01*
X37404738Y-45339000D01*
X37303446Y-45339000D01*
X36957000Y-44992554D01*
X36957000Y-44934899D01*
X36898434Y-44640466D01*
X36783551Y-44363115D01*
X36616768Y-44113507D01*
X36404493Y-43901232D01*
X36154885Y-43734449D01*
X35877534Y-43619566D01*
X35583101Y-43561000D01*
X35282899Y-43561000D01*
X34988466Y-43619566D01*
X34711115Y-43734449D01*
X34461507Y-43901232D01*
X34249232Y-44113507D01*
X34082449Y-44363115D01*
X33967566Y-44640466D01*
X33909000Y-44934899D01*
X33909000Y-45235101D01*
X33967566Y-45529534D01*
X34082449Y-45806885D01*
X34249232Y-46056493D01*
X34461507Y-46268768D01*
X34711115Y-46435551D01*
X34988466Y-46550434D01*
X35282899Y-46609000D01*
X35340554Y-46609000D01*
X35982081Y-47250528D01*
X36017867Y-47294133D01*
X36061471Y-47329918D01*
X36061477Y-47329924D01*
X36161580Y-47412076D01*
X36191911Y-47436968D01*
X36390477Y-47543103D01*
X36540574Y-47588635D01*
X36605932Y-47608461D01*
X36628600Y-47610694D01*
X36773854Y-47625000D01*
X36773860Y-47625000D01*
X36829999Y-47630529D01*
X36886138Y-47625000D01*
X37404738Y-47625000D01*
X37409068Y-47633100D01*
X37588392Y-47851607D01*
X37806899Y-48030932D01*
X38056192Y-48164182D01*
X38326691Y-48246236D01*
X38608000Y-48273943D01*
X38889308Y-48246236D01*
X39159807Y-48164182D01*
X39409100Y-48030932D01*
X39627607Y-47851608D01*
X39806932Y-47633101D01*
X39878000Y-47500142D01*
X39949068Y-47633100D01*
X40128392Y-47851607D01*
X40346899Y-48030932D01*
X40596192Y-48164182D01*
X40866691Y-48246236D01*
X41148000Y-48273943D01*
X41429308Y-48246236D01*
X41699807Y-48164182D01*
X41949100Y-48030932D01*
X42167607Y-47851608D01*
X42346932Y-47633101D01*
X42418000Y-47500142D01*
X42489068Y-47633100D01*
X42545000Y-47701253D01*
X42545000Y-48203861D01*
X42539471Y-48260000D01*
X42545000Y-48316139D01*
X42545000Y-48316146D01*
X42549281Y-48359608D01*
X42561539Y-48484067D01*
X42601224Y-48614887D01*
X42626898Y-48699523D01*
X42733033Y-48898089D01*
X42778518Y-48953512D01*
X42827188Y-49012816D01*
X42875868Y-49072133D01*
X42919478Y-49107923D01*
X43430928Y-49619373D01*
X43430928Y-50266599D01*
X41218719Y-50266599D01*
X41228551Y-50251885D01*
X41343434Y-49974534D01*
X41402000Y-49680101D01*
X41402000Y-49379899D01*
X41343434Y-49085466D01*
X41228551Y-48808115D01*
X41061768Y-48558507D01*
X40849493Y-48346232D01*
X40599885Y-48179449D01*
X40322534Y-48064566D01*
X40028101Y-48006000D01*
X39727899Y-48006000D01*
X39433466Y-48064566D01*
X39156115Y-48179449D01*
X38906507Y-48346232D01*
X38865739Y-48387000D01*
X37588261Y-48387000D01*
X37547493Y-48346232D01*
X37297885Y-48179449D01*
X37020534Y-48064566D01*
X36726101Y-48006000D01*
X36425899Y-48006000D01*
X36131466Y-48064566D01*
X35854115Y-48179449D01*
X35604507Y-48346232D01*
X35392232Y-48558507D01*
X35225449Y-48808115D01*
X35110566Y-49085466D01*
X35052000Y-49379899D01*
X35052000Y-49680101D01*
X35110566Y-49974534D01*
X35225449Y-50251885D01*
X35235281Y-50266599D01*
X31974860Y-50266599D01*
X31959493Y-50251232D01*
X31709885Y-50084449D01*
X31432534Y-49969566D01*
X31227203Y-49928723D01*
X30279628Y-48981148D01*
X30543466Y-49090434D01*
X30837899Y-49149000D01*
X31138101Y-49149000D01*
X31432534Y-49090434D01*
X31709885Y-48975551D01*
X31959493Y-48808768D01*
X32171768Y-48596493D01*
X32338551Y-48346885D01*
X32453434Y-48069534D01*
X32512000Y-47775101D01*
X32512000Y-47474899D01*
X32453434Y-47180466D01*
X32338551Y-46903115D01*
X32171768Y-46653507D01*
X32131000Y-46612739D01*
X32131000Y-44827261D01*
X32171768Y-44786493D01*
X32338551Y-44536885D01*
X32453434Y-44259534D01*
X32512000Y-43965101D01*
X32512000Y-43664899D01*
X32453434Y-43370466D01*
X32338551Y-43093115D01*
X32171768Y-42843507D01*
X32131000Y-42802739D01*
X32131000Y-41148000D01*
X34420739Y-41148000D01*
X34461507Y-41188768D01*
X34711115Y-41355551D01*
X34988466Y-41470434D01*
X35282899Y-41529000D01*
X35583101Y-41529000D01*
X35877534Y-41470434D01*
X36154885Y-41355551D01*
X36404493Y-41188768D01*
X36616768Y-40976493D01*
X36783551Y-40726885D01*
X36898434Y-40449534D01*
X36957000Y-40155101D01*
X36957000Y-39854899D01*
X36898434Y-39560466D01*
X36783551Y-39283115D01*
X36616768Y-39033507D01*
X36572261Y-38989000D01*
X37173000Y-38989000D01*
X37173000Y-39339000D01*
X37225350Y-39616514D01*
X37330834Y-39878483D01*
X37485399Y-40114839D01*
X37683105Y-40316500D01*
X37916354Y-40475715D01*
X38176182Y-40586367D01*
X38258961Y-40603904D01*
X38481000Y-40481915D01*
X38481000Y-38989000D01*
X37173000Y-38989000D01*
X36572261Y-38989000D01*
X36404493Y-38821232D01*
X36154885Y-38654449D01*
X35877534Y-38539566D01*
X35583101Y-38481000D01*
X35282899Y-38481000D01*
X34988466Y-38539566D01*
X34711115Y-38654449D01*
X34461507Y-38821232D01*
X34420739Y-38862000D01*
X32000261Y-38862000D01*
X31959493Y-38821232D01*
X31709885Y-38654449D01*
X31432534Y-38539566D01*
X31138101Y-38481000D01*
X30837899Y-38481000D01*
X30543466Y-38539566D01*
X30266115Y-38654449D01*
X30016507Y-38821232D01*
X29804232Y-39033507D01*
X29637449Y-39283115D01*
X29522566Y-39560466D01*
X29464000Y-39854899D01*
X29464000Y-40155101D01*
X29522566Y-40449534D01*
X29637449Y-40726885D01*
X29804232Y-40976493D01*
X29845000Y-41017261D01*
X29845001Y-42802738D01*
X29804232Y-42843507D01*
X29637449Y-43093115D01*
X29522566Y-43370466D01*
X29464000Y-43664899D01*
X29464000Y-43965101D01*
X29522566Y-44259534D01*
X29637449Y-44536885D01*
X29804232Y-44786493D01*
X29845000Y-44827261D01*
X29845001Y-46612738D01*
X29804232Y-46653507D01*
X29637449Y-46903115D01*
X29522566Y-47180466D01*
X29464000Y-47474899D01*
X29464000Y-47775101D01*
X29522566Y-48069534D01*
X29631852Y-48333373D01*
X28981401Y-47682922D01*
X28981401Y-41991539D01*
X28986930Y-41935400D01*
X28981401Y-41879261D01*
X28981401Y-41879255D01*
X28964862Y-41711334D01*
X28899504Y-41495878D01*
X28793369Y-41297312D01*
X28777124Y-41277518D01*
X28686325Y-41166878D01*
X28686319Y-41166872D01*
X28650534Y-41123268D01*
X28606930Y-41087483D01*
X27432000Y-39912554D01*
X27432000Y-39854899D01*
X27373434Y-39560466D01*
X27258551Y-39283115D01*
X27091768Y-39033507D01*
X27051000Y-38992739D01*
X27051000Y-37632231D01*
X30111374Y-37632231D01*
X30193727Y-37885289D01*
X30464418Y-38015086D01*
X30755230Y-38089580D01*
X31054988Y-38105908D01*
X31352171Y-38063443D01*
X31635359Y-37963816D01*
X31782273Y-37885289D01*
X31864626Y-37632231D01*
X30988000Y-36755605D01*
X30111374Y-37632231D01*
X27051000Y-37632231D01*
X27051000Y-36642988D01*
X29458092Y-36642988D01*
X29500557Y-36940171D01*
X29600184Y-37223359D01*
X29678711Y-37370273D01*
X29931769Y-37452626D01*
X30808395Y-36576000D01*
X31167605Y-36576000D01*
X32044231Y-37452626D01*
X32297289Y-37370273D01*
X32427086Y-37099582D01*
X32501580Y-36808770D01*
X32517908Y-36509012D01*
X32475443Y-36211829D01*
X32375816Y-35928641D01*
X32297289Y-35781727D01*
X32044231Y-35699374D01*
X31167605Y-36576000D01*
X30808395Y-36576000D01*
X29931769Y-35699374D01*
X29678711Y-35781727D01*
X29548914Y-36052418D01*
X29474420Y-36343230D01*
X29458092Y-36642988D01*
X27051000Y-36642988D01*
X27051000Y-36398253D01*
X27151494Y-36344537D01*
X27248185Y-36265185D01*
X27327537Y-36168494D01*
X27386502Y-36058180D01*
X27422812Y-35938482D01*
X27435072Y-35814000D01*
X27435072Y-35519769D01*
X30111374Y-35519769D01*
X30988000Y-36396395D01*
X31864626Y-35519769D01*
X31782273Y-35266711D01*
X31511582Y-35136914D01*
X31220770Y-35062420D01*
X30921012Y-35046092D01*
X30623829Y-35088557D01*
X30340641Y-35188184D01*
X30193727Y-35266711D01*
X30111374Y-35519769D01*
X27435072Y-35519769D01*
X27435072Y-34036000D01*
X27422812Y-33911518D01*
X27386502Y-33791820D01*
X27327537Y-33681506D01*
X27248185Y-33584815D01*
X27178956Y-33528000D01*
X30042861Y-33528000D01*
X30099000Y-33533529D01*
X30155139Y-33528000D01*
X30155146Y-33528000D01*
X30323067Y-33511461D01*
X30538523Y-33446103D01*
X30737089Y-33339968D01*
X30911133Y-33197133D01*
X30946927Y-33153518D01*
X31080445Y-33020000D01*
X31138101Y-33020000D01*
X31432534Y-32961434D01*
X31709885Y-32846551D01*
X31959493Y-32679768D01*
X32171768Y-32467493D01*
X32338551Y-32217885D01*
X32453434Y-31940534D01*
X32512000Y-31646101D01*
X32512000Y-31345899D01*
X32453434Y-31051466D01*
X32338551Y-30774115D01*
X32171768Y-30524507D01*
X31959493Y-30312232D01*
X31709885Y-30145449D01*
X31597750Y-30099001D01*
X44192928Y-30099001D01*
X44192928Y-30480001D01*
X41585137Y-30480001D01*
X41528998Y-30474472D01*
X41472859Y-30480001D01*
X41472853Y-30480001D01*
X41327599Y-30494307D01*
X41304931Y-30496540D01*
X41239573Y-30516366D01*
X41089476Y-30561898D01*
X40890910Y-30668033D01*
X40716866Y-30810868D01*
X40681076Y-30854478D01*
X40547554Y-30988000D01*
X40489899Y-30988000D01*
X40195466Y-31046566D01*
X39918115Y-31161449D01*
X39668507Y-31328232D01*
X39456232Y-31540507D01*
X39289449Y-31790115D01*
X39174566Y-32067466D01*
X39116000Y-32361899D01*
X39116000Y-32662101D01*
X39174566Y-32956534D01*
X39289449Y-33233885D01*
X39456232Y-33483493D01*
X39668507Y-33695768D01*
X39918115Y-33862551D01*
X40195466Y-33977434D01*
X40489899Y-34036000D01*
X40790101Y-34036000D01*
X41084534Y-33977434D01*
X41361885Y-33862551D01*
X41611493Y-33695768D01*
X41823768Y-33483493D01*
X41990551Y-33233885D01*
X42105434Y-32956534D01*
X42143333Y-32766001D01*
X47104782Y-32766001D01*
X47160921Y-32771530D01*
X47217060Y-32766001D01*
X47217067Y-32766001D01*
X47384988Y-32749462D01*
X47600444Y-32684104D01*
X47799010Y-32577969D01*
X47973054Y-32435134D01*
X48008848Y-32391519D01*
X49028524Y-31371844D01*
X49072133Y-31336055D01*
X49214968Y-31162011D01*
X49321103Y-30963445D01*
X49386461Y-30747989D01*
X49386591Y-30746670D01*
X49443768Y-30689493D01*
X49533318Y-30555472D01*
X49571449Y-30619806D01*
X49770989Y-30842156D01*
X50010073Y-31021306D01*
X50279514Y-31150370D01*
X50436987Y-31198134D01*
X50673000Y-31077330D01*
X50673000Y-29845000D01*
X50927000Y-29845000D01*
X50927000Y-31077330D01*
X51163013Y-31198134D01*
X51320486Y-31150370D01*
X51589927Y-31021306D01*
X51829011Y-30842156D01*
X52028551Y-30619806D01*
X52180878Y-30362800D01*
X52280139Y-30081014D01*
X52159954Y-29845000D01*
X50927000Y-29845000D01*
X50673000Y-29845000D01*
X50653000Y-29845000D01*
X50653000Y-29591000D01*
X50673000Y-29591000D01*
X50673000Y-28358670D01*
X50927000Y-28358670D01*
X50927000Y-29591000D01*
X52159954Y-29591000D01*
X52280139Y-29354986D01*
X52180878Y-29073200D01*
X52028551Y-28816194D01*
X51829011Y-28593844D01*
X51589927Y-28414694D01*
X51320486Y-28285630D01*
X51163013Y-28237866D01*
X50927000Y-28358670D01*
X50673000Y-28358670D01*
X50436987Y-28237866D01*
X50279514Y-28285630D01*
X50010073Y-28414694D01*
X49770989Y-28593844D01*
X49571449Y-28816194D01*
X49533318Y-28880528D01*
X49443768Y-28746507D01*
X49231493Y-28534232D01*
X48981885Y-28367449D01*
X48704534Y-28252566D01*
X48410101Y-28194000D01*
X48109899Y-28194000D01*
X47815466Y-28252566D01*
X47538115Y-28367449D01*
X47288507Y-28534232D01*
X47207676Y-28615063D01*
X47198502Y-28584820D01*
X47139537Y-28474506D01*
X47060185Y-28377815D01*
X46963494Y-28298463D01*
X46853180Y-28239498D01*
X46733482Y-28203188D01*
X46609000Y-28190928D01*
X45809373Y-28190928D01*
X45805928Y-28187483D01*
X45770134Y-28143868D01*
X45596090Y-28001033D01*
X45397524Y-27894898D01*
X45182068Y-27829540D01*
X45014147Y-27813001D01*
X45014140Y-27813001D01*
X44958001Y-27807472D01*
X44901862Y-27813001D01*
X26853137Y-27813001D01*
X26796998Y-27807472D01*
X26740859Y-27813001D01*
X26740853Y-27813001D01*
X26595599Y-27827307D01*
X26572931Y-27829540D01*
X26507573Y-27849366D01*
X26357476Y-27894898D01*
X26158910Y-28001033D01*
X25984866Y-28143868D01*
X25949076Y-28187478D01*
X25815554Y-28321000D01*
X25757899Y-28321000D01*
X25463466Y-28379566D01*
X25186115Y-28494449D01*
X24936507Y-28661232D01*
X24724232Y-28873507D01*
X24557449Y-29123115D01*
X24442566Y-29400466D01*
X24384000Y-29694899D01*
X24384000Y-29995101D01*
X24442566Y-30289534D01*
X24557449Y-30566885D01*
X24724232Y-30816493D01*
X24936507Y-31028768D01*
X25065562Y-31115000D01*
X24936507Y-31201232D01*
X24896433Y-31241306D01*
X24847340Y-31236471D01*
X24791201Y-31242000D01*
X24791194Y-31242000D01*
X24643857Y-31256512D01*
X24623272Y-31258539D01*
X24579119Y-31271933D01*
X24407817Y-31323897D01*
X24209251Y-31430032D01*
X24035207Y-31572867D01*
X23999417Y-31616477D01*
X23520000Y-32095895D01*
X23520000Y-23401872D01*
X23927000Y-23401872D01*
X23927000Y-23842128D01*
X24012890Y-24273925D01*
X24181369Y-24680669D01*
X24425962Y-25046729D01*
X24737271Y-25358038D01*
X25103331Y-25602631D01*
X25510075Y-25771110D01*
X25941872Y-25857000D01*
X26382128Y-25857000D01*
X26813925Y-25771110D01*
X27220669Y-25602631D01*
X27586729Y-25358038D01*
X27898038Y-25046729D01*
X28142631Y-24680669D01*
X28311110Y-24273925D01*
X28397000Y-23842128D01*
X28397000Y-23401872D01*
X68123000Y-23401872D01*
X68123000Y-23842128D01*
X68208890Y-24273925D01*
X68377369Y-24680669D01*
X68621962Y-25046729D01*
X68933271Y-25358038D01*
X69299331Y-25602631D01*
X69706075Y-25771110D01*
X70137872Y-25857000D01*
X70578128Y-25857000D01*
X71009925Y-25771110D01*
X71416669Y-25602631D01*
X71782729Y-25358038D01*
X72094038Y-25046729D01*
X72338631Y-24680669D01*
X72507110Y-24273925D01*
X72593000Y-23842128D01*
X72593000Y-23401872D01*
X72507110Y-22970075D01*
X72338631Y-22563331D01*
X72094038Y-22197271D01*
X71782729Y-21885962D01*
X71416669Y-21641369D01*
X71009925Y-21472890D01*
X70578128Y-21387000D01*
X70137872Y-21387000D01*
X69706075Y-21472890D01*
X69299331Y-21641369D01*
X68933271Y-21885962D01*
X68621962Y-22197271D01*
X68377369Y-22563331D01*
X68208890Y-22970075D01*
X68123000Y-23401872D01*
X28397000Y-23401872D01*
X28311110Y-22970075D01*
X28142631Y-22563331D01*
X27898038Y-22197271D01*
X27586729Y-21885962D01*
X27220669Y-21641369D01*
X26813925Y-21472890D01*
X26382128Y-21387000D01*
X25941872Y-21387000D01*
X25510075Y-21472890D01*
X25103331Y-21641369D01*
X24737271Y-21885962D01*
X24425962Y-22197271D01*
X24181369Y-22563331D01*
X24012890Y-22970075D01*
X23927000Y-23401872D01*
X23520000Y-23401872D01*
X23520000Y-20980000D01*
X73000000Y-20980000D01*
X73000001Y-70460000D01*
G04 #@! TA.AperFunction,Conductor*
D19*
G36*
X73000001Y-70460000D02*
G01*
X23520000Y-70460000D01*
X23520000Y-67597872D01*
X23927000Y-67597872D01*
X23927000Y-68038128D01*
X24012890Y-68469925D01*
X24181369Y-68876669D01*
X24425962Y-69242729D01*
X24737271Y-69554038D01*
X25103331Y-69798631D01*
X25510075Y-69967110D01*
X25941872Y-70053000D01*
X26382128Y-70053000D01*
X26813925Y-69967110D01*
X27220669Y-69798631D01*
X27586729Y-69554038D01*
X27898038Y-69242729D01*
X28142631Y-68876669D01*
X28311110Y-68469925D01*
X28397000Y-68038128D01*
X28397000Y-67597872D01*
X68123000Y-67597872D01*
X68123000Y-68038128D01*
X68208890Y-68469925D01*
X68377369Y-68876669D01*
X68621962Y-69242729D01*
X68933271Y-69554038D01*
X69299331Y-69798631D01*
X69706075Y-69967110D01*
X70137872Y-70053000D01*
X70578128Y-70053000D01*
X71009925Y-69967110D01*
X71416669Y-69798631D01*
X71782729Y-69554038D01*
X72094038Y-69242729D01*
X72338631Y-68876669D01*
X72507110Y-68469925D01*
X72593000Y-68038128D01*
X72593000Y-67597872D01*
X72507110Y-67166075D01*
X72338631Y-66759331D01*
X72094038Y-66393271D01*
X71782729Y-66081962D01*
X71416669Y-65837369D01*
X71009925Y-65668890D01*
X70578128Y-65583000D01*
X70137872Y-65583000D01*
X69706075Y-65668890D01*
X69299331Y-65837369D01*
X68933271Y-66081962D01*
X68621962Y-66393271D01*
X68377369Y-66759331D01*
X68208890Y-67166075D01*
X68123000Y-67597872D01*
X28397000Y-67597872D01*
X28311110Y-67166075D01*
X28142631Y-66759331D01*
X27898038Y-66393271D01*
X27586729Y-66081962D01*
X27220669Y-65837369D01*
X26813925Y-65668890D01*
X26382128Y-65583000D01*
X25941872Y-65583000D01*
X25510075Y-65668890D01*
X25103331Y-65837369D01*
X24737271Y-66081962D01*
X24425962Y-66393271D01*
X24181369Y-66759331D01*
X24012890Y-67166075D01*
X23927000Y-67597872D01*
X23520000Y-67597872D01*
X23520000Y-62962986D01*
X25422347Y-64865334D01*
X25458137Y-64908944D01*
X25632181Y-65051779D01*
X25830747Y-65157914D01*
X25980844Y-65203446D01*
X26046202Y-65223272D01*
X26066787Y-65225299D01*
X26214124Y-65239811D01*
X26214131Y-65239811D01*
X26270270Y-65245340D01*
X26326409Y-65239811D01*
X38917324Y-65239811D01*
X38973463Y-65245340D01*
X39029602Y-65239811D01*
X39029609Y-65239811D01*
X39197530Y-65223272D01*
X39412986Y-65157914D01*
X39611552Y-65051779D01*
X39785596Y-64908944D01*
X39821390Y-64865329D01*
X40638488Y-64048231D01*
X52971374Y-64048231D01*
X53053727Y-64301289D01*
X53324418Y-64431086D01*
X53615230Y-64505580D01*
X53914988Y-64521908D01*
X54212171Y-64479443D01*
X54495359Y-64379816D01*
X54642273Y-64301289D01*
X54724626Y-64048231D01*
X53848000Y-63171605D01*
X52971374Y-64048231D01*
X40638488Y-64048231D01*
X41766396Y-62920324D01*
X41958785Y-62817490D01*
X42190844Y-62627044D01*
X42358000Y-62423363D01*
X42525156Y-62627044D01*
X42757216Y-62817490D01*
X43021970Y-62959004D01*
X43309245Y-63046148D01*
X43608000Y-63075573D01*
X43906756Y-63046148D01*
X44194031Y-62959004D01*
X44458785Y-62817490D01*
X44690844Y-62627044D01*
X44858000Y-62423363D01*
X45025156Y-62627044D01*
X45257216Y-62817490D01*
X45521970Y-62959004D01*
X45809245Y-63046148D01*
X46108000Y-63075573D01*
X46276389Y-63058988D01*
X52318092Y-63058988D01*
X52360557Y-63356171D01*
X52460184Y-63639359D01*
X52538711Y-63786273D01*
X52791769Y-63868626D01*
X53668395Y-62992000D01*
X52791769Y-62115374D01*
X52538711Y-62197727D01*
X52408914Y-62468418D01*
X52334420Y-62759230D01*
X52318092Y-63058988D01*
X46276389Y-63058988D01*
X46406756Y-63046148D01*
X46694031Y-62959004D01*
X46958785Y-62817490D01*
X47190844Y-62627044D01*
X47363985Y-62416070D01*
X47524930Y-62614559D01*
X47754558Y-62805289D01*
X48016983Y-62947556D01*
X48244987Y-63024334D01*
X48481000Y-62903530D01*
X48481000Y-61595000D01*
X48735000Y-61595000D01*
X48735000Y-62903530D01*
X48971013Y-63024334D01*
X49199017Y-62947556D01*
X49461442Y-62805289D01*
X49691070Y-62614559D01*
X49879076Y-62382696D01*
X50018235Y-62118610D01*
X50103200Y-61832450D01*
X49971134Y-61595000D01*
X48735000Y-61595000D01*
X48481000Y-61595000D01*
X48461000Y-61595000D01*
X48461000Y-61341000D01*
X48481000Y-61341000D01*
X48481000Y-60032470D01*
X48735000Y-60032470D01*
X48735000Y-61341000D01*
X49971134Y-61341000D01*
X50103200Y-61103550D01*
X50018235Y-60817390D01*
X49879076Y-60553304D01*
X49691070Y-60321441D01*
X49461442Y-60130711D01*
X49199017Y-59988444D01*
X48971013Y-59911666D01*
X48735000Y-60032470D01*
X48481000Y-60032470D01*
X48244987Y-59911666D01*
X48016983Y-59988444D01*
X47754558Y-60130711D01*
X47524930Y-60321441D01*
X47363986Y-60519930D01*
X47251000Y-60382256D01*
X47251000Y-60146904D01*
X47256529Y-60090765D01*
X47251000Y-60034626D01*
X47251000Y-60034619D01*
X47234461Y-59866698D01*
X47224402Y-59833539D01*
X47169103Y-59651241D01*
X47112724Y-59545764D01*
X47062968Y-59452676D01*
X46920133Y-59278632D01*
X46876524Y-59242843D01*
X44269162Y-56635482D01*
X44233368Y-56591867D01*
X44059324Y-56449032D01*
X43860758Y-56342897D01*
X43645302Y-56277539D01*
X43477381Y-56261000D01*
X43477374Y-56261000D01*
X43421235Y-56255471D01*
X43365096Y-56261000D01*
X43176261Y-56261000D01*
X43135493Y-56220232D01*
X42885885Y-56053449D01*
X42608534Y-55938566D01*
X42516358Y-55920231D01*
X43827374Y-55920231D01*
X43909727Y-56173289D01*
X44180418Y-56303086D01*
X44471230Y-56377580D01*
X44770988Y-56393908D01*
X45068171Y-56351443D01*
X45351359Y-56251816D01*
X45498273Y-56173289D01*
X45580626Y-55920231D01*
X44704000Y-55043605D01*
X43827374Y-55920231D01*
X42516358Y-55920231D01*
X42314101Y-55880000D01*
X42013899Y-55880000D01*
X41719466Y-55938566D01*
X41442115Y-56053449D01*
X41192507Y-56220232D01*
X40980232Y-56432507D01*
X40813449Y-56682115D01*
X40698566Y-56959466D01*
X40672576Y-57090130D01*
X39937870Y-56355425D01*
X40068534Y-56329434D01*
X40345885Y-56214551D01*
X40595493Y-56047768D01*
X40807768Y-55835493D01*
X40974551Y-55585885D01*
X41089434Y-55308534D01*
X41148000Y-55014101D01*
X41148000Y-54956445D01*
X41900847Y-54203599D01*
X43330519Y-54203599D01*
X43264914Y-54340418D01*
X43190420Y-54631230D01*
X43174092Y-54930988D01*
X43216557Y-55228171D01*
X43316184Y-55511359D01*
X43394711Y-55658273D01*
X43647769Y-55740626D01*
X44524395Y-54864000D01*
X44510253Y-54849858D01*
X44689858Y-54670253D01*
X44704000Y-54684395D01*
X44718143Y-54670253D01*
X44897748Y-54849858D01*
X44883605Y-54864000D01*
X45760231Y-55740626D01*
X46013289Y-55658273D01*
X46143086Y-55387582D01*
X46217580Y-55096770D01*
X46233908Y-54797012D01*
X46191443Y-54499829D01*
X46091816Y-54216641D01*
X46084845Y-54203599D01*
X46532981Y-54203599D01*
X46482000Y-54459899D01*
X46482000Y-54760101D01*
X46540566Y-55054534D01*
X46655449Y-55331885D01*
X46822232Y-55581493D01*
X47034507Y-55793768D01*
X47284115Y-55960551D01*
X47521398Y-56058837D01*
X52073488Y-60610929D01*
X52109274Y-60654534D01*
X52152878Y-60690319D01*
X52152884Y-60690325D01*
X52242854Y-60764161D01*
X52283318Y-60797369D01*
X52481884Y-60903504D01*
X52631981Y-60949036D01*
X52697339Y-60968862D01*
X52720007Y-60971095D01*
X52865261Y-60985401D01*
X52865267Y-60985401D01*
X52921406Y-60990930D01*
X52977545Y-60985401D01*
X53834682Y-60985401D01*
X54430396Y-61581116D01*
X54371582Y-61552914D01*
X54080770Y-61478420D01*
X53781012Y-61462092D01*
X53483829Y-61504557D01*
X53200641Y-61604184D01*
X53053727Y-61682711D01*
X52971374Y-61935769D01*
X53848000Y-62812395D01*
X53862143Y-62798253D01*
X54041748Y-62977858D01*
X54027605Y-62992000D01*
X54904231Y-63868626D01*
X55157289Y-63786273D01*
X55287086Y-63515582D01*
X55361580Y-63224770D01*
X55377908Y-62925012D01*
X55335443Y-62627829D01*
X55258554Y-62409274D01*
X56965413Y-64116133D01*
X57001203Y-64159743D01*
X57175247Y-64302578D01*
X57373813Y-64408713D01*
X57523910Y-64454245D01*
X57589268Y-64474071D01*
X57611936Y-64476304D01*
X57757190Y-64490610D01*
X57757196Y-64490610D01*
X57813335Y-64496139D01*
X57869474Y-64490610D01*
X62118857Y-64490610D01*
X62174996Y-64496139D01*
X62231135Y-64490610D01*
X62231142Y-64490610D01*
X62399063Y-64474071D01*
X62614519Y-64408713D01*
X62813085Y-64302578D01*
X62987129Y-64159743D01*
X63022923Y-64116128D01*
X64078280Y-63060772D01*
X64226756Y-63046148D01*
X64514031Y-62959004D01*
X64778785Y-62817490D01*
X65010844Y-62627044D01*
X65201290Y-62394984D01*
X65342804Y-62130230D01*
X65429948Y-61842955D01*
X65452000Y-61619058D01*
X65452000Y-61316941D01*
X65429948Y-61093044D01*
X65342804Y-60805769D01*
X65201290Y-60541015D01*
X65010844Y-60308956D01*
X64778784Y-60118510D01*
X64514030Y-59976996D01*
X64226755Y-59889852D01*
X63928000Y-59860427D01*
X63629244Y-59889852D01*
X63341969Y-59976996D01*
X63077215Y-60118510D01*
X62845156Y-60308956D01*
X62678000Y-60512637D01*
X62510844Y-60308956D01*
X62278784Y-60118510D01*
X62086399Y-60015678D01*
X58337516Y-56266796D01*
X58496182Y-56334367D01*
X58578961Y-56351904D01*
X58801000Y-56229915D01*
X58801000Y-54737000D01*
X59055000Y-54737000D01*
X59055000Y-56229915D01*
X59277039Y-56351904D01*
X59359818Y-56334367D01*
X59619646Y-56223715D01*
X59852895Y-56064500D01*
X60050601Y-55862839D01*
X60205166Y-55626483D01*
X60310650Y-55364514D01*
X60363000Y-55087000D01*
X60363000Y-54737000D01*
X59055000Y-54737000D01*
X58801000Y-54737000D01*
X58781000Y-54737000D01*
X58781000Y-54483000D01*
X58801000Y-54483000D01*
X58801000Y-54463000D01*
X59055000Y-54463000D01*
X59055000Y-54483000D01*
X60363000Y-54483000D01*
X60363000Y-54133000D01*
X60314029Y-53873396D01*
X61184155Y-54743523D01*
X61219945Y-54787133D01*
X61393989Y-54929968D01*
X61592555Y-55036103D01*
X61733634Y-55078899D01*
X61808010Y-55101461D01*
X61830678Y-55103694D01*
X61975932Y-55118000D01*
X61975938Y-55118000D01*
X62032077Y-55123529D01*
X62088216Y-55118000D01*
X64900739Y-55118000D01*
X64941507Y-55158768D01*
X65191115Y-55325551D01*
X65468466Y-55440434D01*
X65762899Y-55499000D01*
X66063101Y-55499000D01*
X66357534Y-55440434D01*
X66634885Y-55325551D01*
X66884493Y-55158768D01*
X67012030Y-55031231D01*
X70116374Y-55031231D01*
X70198727Y-55284289D01*
X70469418Y-55414086D01*
X70760230Y-55488580D01*
X71059988Y-55504908D01*
X71357171Y-55462443D01*
X71640359Y-55362816D01*
X71787273Y-55284289D01*
X71869626Y-55031231D01*
X70993000Y-54154605D01*
X70116374Y-55031231D01*
X67012030Y-55031231D01*
X67096768Y-54946493D01*
X67263551Y-54696885D01*
X67378434Y-54419534D01*
X67437000Y-54125101D01*
X67437000Y-54067445D01*
X67462457Y-54041988D01*
X69463092Y-54041988D01*
X69505557Y-54339171D01*
X69605184Y-54622359D01*
X69683711Y-54769273D01*
X69936769Y-54851626D01*
X70813395Y-53975000D01*
X71172605Y-53975000D01*
X72049231Y-54851626D01*
X72302289Y-54769273D01*
X72432086Y-54498582D01*
X72506580Y-54207770D01*
X72522908Y-53908012D01*
X72480443Y-53610829D01*
X72380816Y-53327641D01*
X72302289Y-53180727D01*
X72049231Y-53098374D01*
X71172605Y-53975000D01*
X70813395Y-53975000D01*
X69936769Y-53098374D01*
X69683711Y-53180727D01*
X69553914Y-53451418D01*
X69479420Y-53742230D01*
X69463092Y-54041988D01*
X67462457Y-54041988D01*
X68585676Y-52918769D01*
X70116374Y-52918769D01*
X70993000Y-53795395D01*
X71869626Y-52918769D01*
X71787273Y-52665711D01*
X71516582Y-52535914D01*
X71225770Y-52461420D01*
X70926012Y-52445092D01*
X70628829Y-52487557D01*
X70345641Y-52587184D01*
X70198727Y-52665711D01*
X70116374Y-52918769D01*
X68585676Y-52918769D01*
X69221523Y-52282923D01*
X69265133Y-52247133D01*
X69407968Y-52073089D01*
X69514103Y-51874523D01*
X69573542Y-51678580D01*
X69579461Y-51659068D01*
X69589926Y-51552816D01*
X69596000Y-51491146D01*
X69596000Y-51491140D01*
X69601529Y-51435001D01*
X69596000Y-51378862D01*
X69596000Y-51221231D01*
X70116374Y-51221231D01*
X70198727Y-51474289D01*
X70469418Y-51604086D01*
X70760230Y-51678580D01*
X71059988Y-51694908D01*
X71357171Y-51652443D01*
X71640359Y-51552816D01*
X71787273Y-51474289D01*
X71869626Y-51221231D01*
X70993000Y-50344605D01*
X70116374Y-51221231D01*
X69596000Y-51221231D01*
X69596000Y-50786254D01*
X69605184Y-50812359D01*
X69683711Y-50959273D01*
X69936769Y-51041626D01*
X70813395Y-50165000D01*
X71172605Y-50165000D01*
X72049231Y-51041626D01*
X72302289Y-50959273D01*
X72432086Y-50688582D01*
X72506580Y-50397770D01*
X72522908Y-50098012D01*
X72480443Y-49800829D01*
X72380816Y-49517641D01*
X72302289Y-49370727D01*
X72049231Y-49288374D01*
X71172605Y-50165000D01*
X70813395Y-50165000D01*
X69936769Y-49288374D01*
X69683711Y-49370727D01*
X69596000Y-49553648D01*
X69596000Y-49108769D01*
X70116374Y-49108769D01*
X70993000Y-49985395D01*
X71869626Y-49108769D01*
X71787273Y-48855711D01*
X71516582Y-48725914D01*
X71225770Y-48651420D01*
X70926012Y-48635092D01*
X70628829Y-48677557D01*
X70345641Y-48777184D01*
X70198727Y-48855711D01*
X70116374Y-49108769D01*
X69596000Y-49108769D01*
X69596000Y-47411231D01*
X70116374Y-47411231D01*
X70198727Y-47664289D01*
X70469418Y-47794086D01*
X70760230Y-47868580D01*
X71059988Y-47884908D01*
X71357171Y-47842443D01*
X71640359Y-47742816D01*
X71787273Y-47664289D01*
X71869626Y-47411231D01*
X70993000Y-46534605D01*
X70116374Y-47411231D01*
X69596000Y-47411231D01*
X69596000Y-46976254D01*
X69605184Y-47002359D01*
X69683711Y-47149273D01*
X69936769Y-47231626D01*
X70813395Y-46355000D01*
X71172605Y-46355000D01*
X72049231Y-47231626D01*
X72302289Y-47149273D01*
X72432086Y-46878582D01*
X72506580Y-46587770D01*
X72522908Y-46288012D01*
X72480443Y-45990829D01*
X72380816Y-45707641D01*
X72302289Y-45560727D01*
X72049231Y-45478374D01*
X71172605Y-46355000D01*
X70813395Y-46355000D01*
X69936769Y-45478374D01*
X69683711Y-45560727D01*
X69596000Y-45743648D01*
X69596000Y-45298769D01*
X70116374Y-45298769D01*
X70993000Y-46175395D01*
X71869626Y-45298769D01*
X71787273Y-45045711D01*
X71516582Y-44915914D01*
X71225770Y-44841420D01*
X70926012Y-44825092D01*
X70628829Y-44867557D01*
X70345641Y-44967184D01*
X70198727Y-45045711D01*
X70116374Y-45298769D01*
X69596000Y-45298769D01*
X69596000Y-43601231D01*
X70116374Y-43601231D01*
X70198727Y-43854289D01*
X70469418Y-43984086D01*
X70760230Y-44058580D01*
X71059988Y-44074908D01*
X71357171Y-44032443D01*
X71640359Y-43932816D01*
X71787273Y-43854289D01*
X71869626Y-43601231D01*
X70993000Y-42724605D01*
X70116374Y-43601231D01*
X69596000Y-43601231D01*
X69596000Y-43166254D01*
X69605184Y-43192359D01*
X69683711Y-43339273D01*
X69936769Y-43421626D01*
X70813395Y-42545000D01*
X71172605Y-42545000D01*
X72049231Y-43421626D01*
X72302289Y-43339273D01*
X72432086Y-43068582D01*
X72506580Y-42777770D01*
X72522908Y-42478012D01*
X72480443Y-42180829D01*
X72380816Y-41897641D01*
X72302289Y-41750727D01*
X72049231Y-41668374D01*
X71172605Y-42545000D01*
X70813395Y-42545000D01*
X69936769Y-41668374D01*
X69683711Y-41750727D01*
X69596000Y-41933648D01*
X69596000Y-41488769D01*
X70116374Y-41488769D01*
X70993000Y-42365395D01*
X71869626Y-41488769D01*
X71787273Y-41235711D01*
X71516582Y-41105914D01*
X71225770Y-41031420D01*
X70926012Y-41015092D01*
X70628829Y-41057557D01*
X70345641Y-41157184D01*
X70198727Y-41235711D01*
X70116374Y-41488769D01*
X69596000Y-41488769D01*
X69596000Y-39747261D01*
X69636768Y-39706493D01*
X69803551Y-39456885D01*
X69918434Y-39179534D01*
X69977000Y-38885101D01*
X69977000Y-38584899D01*
X69918434Y-38290466D01*
X69803551Y-38013115D01*
X69636768Y-37763507D01*
X69424493Y-37551232D01*
X69174885Y-37384449D01*
X68897534Y-37269566D01*
X68603101Y-37211000D01*
X68302899Y-37211000D01*
X68008466Y-37269566D01*
X67731115Y-37384449D01*
X67481507Y-37551232D01*
X67269232Y-37763507D01*
X67102449Y-38013115D01*
X66987566Y-38290466D01*
X66929000Y-38584899D01*
X66929000Y-38885101D01*
X66987566Y-39179534D01*
X67102449Y-39456885D01*
X67269232Y-39706493D01*
X67310000Y-39747261D01*
X67310000Y-41935253D01*
X67263551Y-41823115D01*
X67096768Y-41573507D01*
X66884493Y-41361232D01*
X66634885Y-41194449D01*
X66357534Y-41079566D01*
X66063101Y-41021000D01*
X65762899Y-41021000D01*
X65468466Y-41079566D01*
X65191115Y-41194449D01*
X64941507Y-41361232D01*
X64729232Y-41573507D01*
X64562449Y-41823115D01*
X64447566Y-42100466D01*
X64389000Y-42394899D01*
X64389000Y-42695101D01*
X64447566Y-42989534D01*
X64562449Y-43266885D01*
X64572281Y-43281599D01*
X61549540Y-43281599D01*
X61493401Y-43276070D01*
X61437262Y-43281599D01*
X61437255Y-43281599D01*
X61289918Y-43296111D01*
X61269333Y-43298138D01*
X61203975Y-43317964D01*
X61053878Y-43363496D01*
X60855312Y-43469631D01*
X60681268Y-43612466D01*
X60645478Y-43656076D01*
X60452000Y-43849554D01*
X60452000Y-43664899D01*
X60393434Y-43370466D01*
X60278551Y-43093115D01*
X60237539Y-43031736D01*
X60279540Y-43027599D01*
X60279547Y-43027599D01*
X60447468Y-43011060D01*
X60662924Y-42945702D01*
X60861490Y-42839567D01*
X61035534Y-42696732D01*
X61071328Y-42653117D01*
X63465446Y-40259000D01*
X63523101Y-40259000D01*
X63817534Y-40200434D01*
X64094885Y-40085551D01*
X64344493Y-39918768D01*
X64556768Y-39706493D01*
X64723551Y-39456885D01*
X64838434Y-39179534D01*
X64897000Y-38885101D01*
X64897000Y-38827445D01*
X66046523Y-37677923D01*
X66090133Y-37642133D01*
X66232968Y-37468089D01*
X66339103Y-37269523D01*
X66398436Y-37073928D01*
X66404461Y-37054068D01*
X66407770Y-37020466D01*
X66421000Y-36886146D01*
X66421000Y-36886139D01*
X66426529Y-36830000D01*
X66421000Y-36773861D01*
X66421000Y-36068000D01*
X68075739Y-36068000D01*
X68116507Y-36108768D01*
X68366115Y-36275551D01*
X68643466Y-36390434D01*
X68937899Y-36449000D01*
X69238101Y-36449000D01*
X69532534Y-36390434D01*
X69809885Y-36275551D01*
X70059493Y-36108768D01*
X70271768Y-35896493D01*
X70438551Y-35646885D01*
X70553434Y-35369534D01*
X70612000Y-35075101D01*
X70612000Y-34774899D01*
X70553434Y-34480466D01*
X70438551Y-34203115D01*
X70271768Y-33953507D01*
X70059493Y-33741232D01*
X69809885Y-33574449D01*
X69532534Y-33459566D01*
X69238101Y-33401000D01*
X68937899Y-33401000D01*
X68643466Y-33459566D01*
X68366115Y-33574449D01*
X68116507Y-33741232D01*
X68075739Y-33782000D01*
X66290261Y-33782000D01*
X66249493Y-33741232D01*
X65999885Y-33574449D01*
X65722534Y-33459566D01*
X65428101Y-33401000D01*
X65127899Y-33401000D01*
X64833466Y-33459566D01*
X64556115Y-33574449D01*
X64306507Y-33741232D01*
X64094232Y-33953507D01*
X63927449Y-34203115D01*
X63812566Y-34480466D01*
X63754000Y-34774899D01*
X63754000Y-35075101D01*
X63812566Y-35369534D01*
X63927449Y-35646885D01*
X64094232Y-35896493D01*
X64135001Y-35937262D01*
X64135001Y-36356553D01*
X63280555Y-37211000D01*
X63222899Y-37211000D01*
X62928466Y-37269566D01*
X62651115Y-37384449D01*
X62401507Y-37551232D01*
X62189232Y-37763507D01*
X62022449Y-38013115D01*
X61907566Y-38290466D01*
X61849000Y-38584899D01*
X61849000Y-38642554D01*
X59749956Y-40741599D01*
X52977545Y-40741599D01*
X52921406Y-40736070D01*
X52865267Y-40741599D01*
X52865261Y-40741599D01*
X52818213Y-40746233D01*
X53026045Y-40538401D01*
X55353454Y-40538401D01*
X55409593Y-40543930D01*
X55465731Y-40538401D01*
X55465739Y-40538401D01*
X55633660Y-40521862D01*
X55849116Y-40456504D01*
X56047682Y-40350369D01*
X56221726Y-40207534D01*
X56257520Y-40163919D01*
X57720075Y-38701366D01*
X58778495Y-38701366D01*
X58834634Y-38706895D01*
X58890773Y-38701366D01*
X58890780Y-38701366D01*
X59058701Y-38684827D01*
X59274157Y-38619469D01*
X59472723Y-38513334D01*
X59646767Y-38370499D01*
X59682561Y-38326884D01*
X61560446Y-36449000D01*
X61618101Y-36449000D01*
X61912534Y-36390434D01*
X62189885Y-36275551D01*
X62439493Y-36108768D01*
X62651768Y-35896493D01*
X62818551Y-35646885D01*
X62933434Y-35369534D01*
X62992000Y-35075101D01*
X62992000Y-34774899D01*
X62933434Y-34480466D01*
X62818551Y-34203115D01*
X62651768Y-33953507D01*
X62611000Y-33912739D01*
X62611000Y-33600035D01*
X64889463Y-31321572D01*
X65127899Y-31369000D01*
X65428101Y-31369000D01*
X65722534Y-31310434D01*
X65999885Y-31195551D01*
X66249493Y-31028768D01*
X66290261Y-30988000D01*
X68075739Y-30988000D01*
X68116507Y-31028768D01*
X68366115Y-31195551D01*
X68643466Y-31310434D01*
X68937899Y-31369000D01*
X69238101Y-31369000D01*
X69532534Y-31310434D01*
X69809885Y-31195551D01*
X70059493Y-31028768D01*
X70271768Y-30816493D01*
X70438551Y-30566885D01*
X70553434Y-30289534D01*
X70612000Y-29995101D01*
X70612000Y-29694899D01*
X70553434Y-29400466D01*
X70438551Y-29123115D01*
X70271768Y-28873507D01*
X70059493Y-28661232D01*
X69809885Y-28494449D01*
X69532534Y-28379566D01*
X69238101Y-28321000D01*
X68937899Y-28321000D01*
X68643466Y-28379566D01*
X68366115Y-28494449D01*
X68116507Y-28661232D01*
X68075739Y-28702000D01*
X66290261Y-28702000D01*
X66249493Y-28661232D01*
X65999885Y-28494449D01*
X65722534Y-28379566D01*
X65428101Y-28321000D01*
X65127899Y-28321000D01*
X64833466Y-28379566D01*
X64556115Y-28494449D01*
X64306507Y-28661232D01*
X64094232Y-28873507D01*
X64048816Y-28941476D01*
X63937457Y-29032867D01*
X63901667Y-29076477D01*
X62992000Y-29986144D01*
X62992000Y-29694899D01*
X62933434Y-29400466D01*
X62818551Y-29123115D01*
X62651768Y-28873507D01*
X62439493Y-28661232D01*
X62189885Y-28494449D01*
X61912534Y-28379566D01*
X61618101Y-28321000D01*
X61317899Y-28321000D01*
X61023466Y-28379566D01*
X60746115Y-28494449D01*
X60496507Y-28661232D01*
X60284232Y-28873507D01*
X60117449Y-29123115D01*
X60002566Y-29400466D01*
X59944000Y-29694899D01*
X59944000Y-29995101D01*
X60002566Y-30289534D01*
X60117449Y-30566885D01*
X60230491Y-30736063D01*
X57565555Y-33401000D01*
X57507899Y-33401000D01*
X57213466Y-33459566D01*
X56936115Y-33574449D01*
X56686507Y-33741232D01*
X56474232Y-33953507D01*
X56307449Y-34203115D01*
X56192566Y-34480466D01*
X56134000Y-34774899D01*
X56134000Y-35075101D01*
X56192566Y-35369534D01*
X56307449Y-35646885D01*
X56474232Y-35896493D01*
X56686507Y-36108768D01*
X56936115Y-36275551D01*
X57213466Y-36390434D01*
X57338808Y-36415366D01*
X57302768Y-36415366D01*
X57246629Y-36409837D01*
X57190490Y-36415366D01*
X57190483Y-36415366D01*
X57022562Y-36431905D01*
X56807106Y-36497263D01*
X56608540Y-36603398D01*
X56434496Y-36746233D01*
X56398706Y-36789843D01*
X55984876Y-37203673D01*
X55948434Y-37020466D01*
X55833551Y-36743115D01*
X55666768Y-36493507D01*
X55626000Y-36452739D01*
X55626000Y-35302261D01*
X55666768Y-35261493D01*
X55833551Y-35011885D01*
X55948434Y-34734534D01*
X56007000Y-34440101D01*
X56007000Y-34139899D01*
X55948434Y-33845466D01*
X55833551Y-33568115D01*
X55720509Y-33398936D01*
X57750446Y-31369000D01*
X57808101Y-31369000D01*
X58102534Y-31310434D01*
X58379885Y-31195551D01*
X58629493Y-31028768D01*
X58841768Y-30816493D01*
X59008551Y-30566885D01*
X59123434Y-30289534D01*
X59182000Y-29995101D01*
X59182000Y-29694899D01*
X59123434Y-29400466D01*
X59008551Y-29123115D01*
X58841768Y-28873507D01*
X58629493Y-28661232D01*
X58379885Y-28494449D01*
X58102534Y-28379566D01*
X57808101Y-28321000D01*
X57507899Y-28321000D01*
X57213466Y-28379566D01*
X56936115Y-28494449D01*
X56686507Y-28661232D01*
X56474232Y-28873507D01*
X56307449Y-29123115D01*
X56192566Y-29400466D01*
X56134000Y-29694899D01*
X56134000Y-29752554D01*
X53714478Y-32172077D01*
X53670868Y-32207867D01*
X53635078Y-32251477D01*
X53635076Y-32251479D01*
X53627189Y-32261090D01*
X53528033Y-32381911D01*
X53421897Y-32580477D01*
X53356539Y-32795933D01*
X53340000Y-32963854D01*
X53340000Y-32963861D01*
X53334471Y-33020000D01*
X53340000Y-33076139D01*
X53340000Y-33277739D01*
X53299232Y-33318507D01*
X53132449Y-33568115D01*
X53017566Y-33845466D01*
X52959000Y-34139899D01*
X52959000Y-34440101D01*
X53017566Y-34734534D01*
X53132449Y-35011885D01*
X53299232Y-35261493D01*
X53340000Y-35302261D01*
X53340001Y-36322000D01*
X52316132Y-36322000D01*
X52259993Y-36316471D01*
X52203854Y-36322000D01*
X52203848Y-36322000D01*
X52058594Y-36336306D01*
X52035926Y-36338539D01*
X52016154Y-36344537D01*
X51820471Y-36403897D01*
X51621905Y-36510032D01*
X51621903Y-36510033D01*
X51621904Y-36510033D01*
X51491471Y-36617076D01*
X51491465Y-36617082D01*
X51447861Y-36652867D01*
X51412075Y-36696472D01*
X50904876Y-37203672D01*
X50868434Y-37020466D01*
X50753551Y-36743115D01*
X50586768Y-36493507D01*
X50546000Y-36452739D01*
X50546000Y-35302261D01*
X50586768Y-35261493D01*
X50753551Y-35011885D01*
X50868434Y-34734534D01*
X50927000Y-34440101D01*
X50927000Y-34139899D01*
X50868434Y-33845466D01*
X50753551Y-33568115D01*
X50586768Y-33318507D01*
X50374493Y-33106232D01*
X50124885Y-32939449D01*
X49847534Y-32824566D01*
X49553101Y-32766000D01*
X49252899Y-32766000D01*
X48958466Y-32824566D01*
X48681115Y-32939449D01*
X48431507Y-33106232D01*
X48219232Y-33318507D01*
X48052449Y-33568115D01*
X47937566Y-33845466D01*
X47879000Y-34139899D01*
X47879000Y-34440101D01*
X47937566Y-34734534D01*
X48052449Y-35011885D01*
X48219232Y-35261493D01*
X48260000Y-35302261D01*
X48260000Y-35654599D01*
X45212000Y-35654599D01*
X45212000Y-35409899D01*
X45153434Y-35115466D01*
X45038551Y-34838115D01*
X44871768Y-34588507D01*
X44659493Y-34376232D01*
X44409885Y-34209449D01*
X44132534Y-34094566D01*
X43838101Y-34036000D01*
X43537899Y-34036000D01*
X43243466Y-34094566D01*
X42966115Y-34209449D01*
X42716507Y-34376232D01*
X42504232Y-34588507D01*
X42337449Y-34838115D01*
X42222566Y-35115466D01*
X42164000Y-35409899D01*
X42164000Y-35710101D01*
X42222566Y-36004534D01*
X42337449Y-36281885D01*
X42504232Y-36531493D01*
X42545000Y-36572261D01*
X42545001Y-37642745D01*
X42489068Y-37710899D01*
X42418000Y-37843858D01*
X42346932Y-37710899D01*
X42167608Y-37492392D01*
X41949101Y-37313068D01*
X41699808Y-37179818D01*
X41429309Y-37097764D01*
X41148000Y-37070057D01*
X40866692Y-37097764D01*
X40596193Y-37179818D01*
X40346900Y-37313068D01*
X40128393Y-37492392D01*
X39949068Y-37710899D01*
X39880735Y-37838741D01*
X39730601Y-37609161D01*
X39532895Y-37407500D01*
X39299646Y-37248285D01*
X39039818Y-37137633D01*
X38957039Y-37120096D01*
X38735002Y-37242084D01*
X38735002Y-37084000D01*
X38758101Y-37084000D01*
X39052534Y-37025434D01*
X39329885Y-36910551D01*
X39579493Y-36743768D01*
X39791768Y-36531493D01*
X39958551Y-36281885D01*
X40073434Y-36004534D01*
X40132000Y-35710101D01*
X40132000Y-35409899D01*
X40073434Y-35115466D01*
X39958551Y-34838115D01*
X39791768Y-34588507D01*
X39579493Y-34376232D01*
X39329885Y-34209449D01*
X39052534Y-34094566D01*
X38758101Y-34036000D01*
X38700446Y-34036000D01*
X37084000Y-32419555D01*
X37084000Y-32361899D01*
X37025434Y-32067466D01*
X36910551Y-31790115D01*
X36743768Y-31540507D01*
X36531493Y-31328232D01*
X36281885Y-31161449D01*
X36004534Y-31046566D01*
X35710101Y-30988000D01*
X35409899Y-30988000D01*
X35115466Y-31046566D01*
X34838115Y-31161449D01*
X34588507Y-31328232D01*
X34376232Y-31540507D01*
X34209449Y-31790115D01*
X34094566Y-32067466D01*
X34036000Y-32361899D01*
X34036000Y-32662101D01*
X34094566Y-32956534D01*
X34209449Y-33233885D01*
X34376232Y-33483493D01*
X34588507Y-33695768D01*
X34838115Y-33862551D01*
X35115466Y-33977434D01*
X35409899Y-34036000D01*
X35467555Y-34036000D01*
X37084000Y-35652446D01*
X37084000Y-35710101D01*
X37142566Y-36004534D01*
X37257449Y-36281885D01*
X37424232Y-36531493D01*
X37636507Y-36743768D01*
X37886115Y-36910551D01*
X38163466Y-37025434D01*
X38457899Y-37084000D01*
X38480998Y-37084000D01*
X38480998Y-37242084D01*
X38258961Y-37120096D01*
X38176182Y-37137633D01*
X37916354Y-37248285D01*
X37683105Y-37407500D01*
X37485399Y-37609161D01*
X37330834Y-37845517D01*
X37225350Y-38107486D01*
X37173000Y-38385000D01*
X37173000Y-38735000D01*
X38481000Y-38735000D01*
X38481000Y-38715000D01*
X38735000Y-38715000D01*
X38735000Y-38735000D01*
X38755000Y-38735000D01*
X38755000Y-38989000D01*
X38735000Y-38989000D01*
X38735000Y-40481915D01*
X38957039Y-40603904D01*
X39039818Y-40586367D01*
X39299646Y-40475715D01*
X39532895Y-40316500D01*
X39730601Y-40114839D01*
X39880735Y-39885258D01*
X39949068Y-40013100D01*
X40005000Y-40081254D01*
X40005001Y-43234012D01*
X38542506Y-44696508D01*
X38326692Y-44717764D01*
X38056193Y-44799818D01*
X37806900Y-44933068D01*
X37588393Y-45112392D01*
X37409068Y-45330899D01*
X37404738Y-45339000D01*
X37303446Y-45339000D01*
X36957000Y-44992554D01*
X36957000Y-44934899D01*
X36898434Y-44640466D01*
X36783551Y-44363115D01*
X36616768Y-44113507D01*
X36404493Y-43901232D01*
X36154885Y-43734449D01*
X35877534Y-43619566D01*
X35583101Y-43561000D01*
X35282899Y-43561000D01*
X34988466Y-43619566D01*
X34711115Y-43734449D01*
X34461507Y-43901232D01*
X34249232Y-44113507D01*
X34082449Y-44363115D01*
X33967566Y-44640466D01*
X33909000Y-44934899D01*
X33909000Y-45235101D01*
X33967566Y-45529534D01*
X34082449Y-45806885D01*
X34249232Y-46056493D01*
X34461507Y-46268768D01*
X34711115Y-46435551D01*
X34988466Y-46550434D01*
X35282899Y-46609000D01*
X35340554Y-46609000D01*
X35982081Y-47250528D01*
X36017867Y-47294133D01*
X36061471Y-47329918D01*
X36061477Y-47329924D01*
X36161580Y-47412076D01*
X36191911Y-47436968D01*
X36390477Y-47543103D01*
X36540574Y-47588635D01*
X36605932Y-47608461D01*
X36628600Y-47610694D01*
X36773854Y-47625000D01*
X36773860Y-47625000D01*
X36829999Y-47630529D01*
X36886138Y-47625000D01*
X37404738Y-47625000D01*
X37409068Y-47633100D01*
X37588392Y-47851607D01*
X37806899Y-48030932D01*
X38056192Y-48164182D01*
X38326691Y-48246236D01*
X38608000Y-48273943D01*
X38889308Y-48246236D01*
X39159807Y-48164182D01*
X39409100Y-48030932D01*
X39627607Y-47851608D01*
X39806932Y-47633101D01*
X39878000Y-47500142D01*
X39949068Y-47633100D01*
X40128392Y-47851607D01*
X40346899Y-48030932D01*
X40596192Y-48164182D01*
X40866691Y-48246236D01*
X41148000Y-48273943D01*
X41429308Y-48246236D01*
X41699807Y-48164182D01*
X41949100Y-48030932D01*
X42167607Y-47851608D01*
X42346932Y-47633101D01*
X42418000Y-47500142D01*
X42489068Y-47633100D01*
X42545000Y-47701253D01*
X42545000Y-48203861D01*
X42539471Y-48260000D01*
X42545000Y-48316139D01*
X42545000Y-48316146D01*
X42549281Y-48359608D01*
X42561539Y-48484067D01*
X42601224Y-48614887D01*
X42626898Y-48699523D01*
X42733033Y-48898089D01*
X42778518Y-48953512D01*
X42827188Y-49012816D01*
X42875868Y-49072133D01*
X42919478Y-49107923D01*
X43430928Y-49619373D01*
X43430928Y-50266599D01*
X41218719Y-50266599D01*
X41228551Y-50251885D01*
X41343434Y-49974534D01*
X41402000Y-49680101D01*
X41402000Y-49379899D01*
X41343434Y-49085466D01*
X41228551Y-48808115D01*
X41061768Y-48558507D01*
X40849493Y-48346232D01*
X40599885Y-48179449D01*
X40322534Y-48064566D01*
X40028101Y-48006000D01*
X39727899Y-48006000D01*
X39433466Y-48064566D01*
X39156115Y-48179449D01*
X38906507Y-48346232D01*
X38865739Y-48387000D01*
X37588261Y-48387000D01*
X37547493Y-48346232D01*
X37297885Y-48179449D01*
X37020534Y-48064566D01*
X36726101Y-48006000D01*
X36425899Y-48006000D01*
X36131466Y-48064566D01*
X35854115Y-48179449D01*
X35604507Y-48346232D01*
X35392232Y-48558507D01*
X35225449Y-48808115D01*
X35110566Y-49085466D01*
X35052000Y-49379899D01*
X35052000Y-49680101D01*
X35110566Y-49974534D01*
X35225449Y-50251885D01*
X35235281Y-50266599D01*
X31974860Y-50266599D01*
X31959493Y-50251232D01*
X31709885Y-50084449D01*
X31432534Y-49969566D01*
X31227203Y-49928723D01*
X30279628Y-48981148D01*
X30543466Y-49090434D01*
X30837899Y-49149000D01*
X31138101Y-49149000D01*
X31432534Y-49090434D01*
X31709885Y-48975551D01*
X31959493Y-48808768D01*
X32171768Y-48596493D01*
X32338551Y-48346885D01*
X32453434Y-48069534D01*
X32512000Y-47775101D01*
X32512000Y-47474899D01*
X32453434Y-47180466D01*
X32338551Y-46903115D01*
X32171768Y-46653507D01*
X32131000Y-46612739D01*
X32131000Y-44827261D01*
X32171768Y-44786493D01*
X32338551Y-44536885D01*
X32453434Y-44259534D01*
X32512000Y-43965101D01*
X32512000Y-43664899D01*
X32453434Y-43370466D01*
X32338551Y-43093115D01*
X32171768Y-42843507D01*
X32131000Y-42802739D01*
X32131000Y-41148000D01*
X34420739Y-41148000D01*
X34461507Y-41188768D01*
X34711115Y-41355551D01*
X34988466Y-41470434D01*
X35282899Y-41529000D01*
X35583101Y-41529000D01*
X35877534Y-41470434D01*
X36154885Y-41355551D01*
X36404493Y-41188768D01*
X36616768Y-40976493D01*
X36783551Y-40726885D01*
X36898434Y-40449534D01*
X36957000Y-40155101D01*
X36957000Y-39854899D01*
X36898434Y-39560466D01*
X36783551Y-39283115D01*
X36616768Y-39033507D01*
X36572261Y-38989000D01*
X37173000Y-38989000D01*
X37173000Y-39339000D01*
X37225350Y-39616514D01*
X37330834Y-39878483D01*
X37485399Y-40114839D01*
X37683105Y-40316500D01*
X37916354Y-40475715D01*
X38176182Y-40586367D01*
X38258961Y-40603904D01*
X38481000Y-40481915D01*
X38481000Y-38989000D01*
X37173000Y-38989000D01*
X36572261Y-38989000D01*
X36404493Y-38821232D01*
X36154885Y-38654449D01*
X35877534Y-38539566D01*
X35583101Y-38481000D01*
X35282899Y-38481000D01*
X34988466Y-38539566D01*
X34711115Y-38654449D01*
X34461507Y-38821232D01*
X34420739Y-38862000D01*
X32000261Y-38862000D01*
X31959493Y-38821232D01*
X31709885Y-38654449D01*
X31432534Y-38539566D01*
X31138101Y-38481000D01*
X30837899Y-38481000D01*
X30543466Y-38539566D01*
X30266115Y-38654449D01*
X30016507Y-38821232D01*
X29804232Y-39033507D01*
X29637449Y-39283115D01*
X29522566Y-39560466D01*
X29464000Y-39854899D01*
X29464000Y-40155101D01*
X29522566Y-40449534D01*
X29637449Y-40726885D01*
X29804232Y-40976493D01*
X29845000Y-41017261D01*
X29845001Y-42802738D01*
X29804232Y-42843507D01*
X29637449Y-43093115D01*
X29522566Y-43370466D01*
X29464000Y-43664899D01*
X29464000Y-43965101D01*
X29522566Y-44259534D01*
X29637449Y-44536885D01*
X29804232Y-44786493D01*
X29845000Y-44827261D01*
X29845001Y-46612738D01*
X29804232Y-46653507D01*
X29637449Y-46903115D01*
X29522566Y-47180466D01*
X29464000Y-47474899D01*
X29464000Y-47775101D01*
X29522566Y-48069534D01*
X29631852Y-48333373D01*
X28981401Y-47682922D01*
X28981401Y-41991539D01*
X28986930Y-41935400D01*
X28981401Y-41879261D01*
X28981401Y-41879255D01*
X28964862Y-41711334D01*
X28899504Y-41495878D01*
X28793369Y-41297312D01*
X28777124Y-41277518D01*
X28686325Y-41166878D01*
X28686319Y-41166872D01*
X28650534Y-41123268D01*
X28606930Y-41087483D01*
X27432000Y-39912554D01*
X27432000Y-39854899D01*
X27373434Y-39560466D01*
X27258551Y-39283115D01*
X27091768Y-39033507D01*
X27051000Y-38992739D01*
X27051000Y-37632231D01*
X30111374Y-37632231D01*
X30193727Y-37885289D01*
X30464418Y-38015086D01*
X30755230Y-38089580D01*
X31054988Y-38105908D01*
X31352171Y-38063443D01*
X31635359Y-37963816D01*
X31782273Y-37885289D01*
X31864626Y-37632231D01*
X30988000Y-36755605D01*
X30111374Y-37632231D01*
X27051000Y-37632231D01*
X27051000Y-36642988D01*
X29458092Y-36642988D01*
X29500557Y-36940171D01*
X29600184Y-37223359D01*
X29678711Y-37370273D01*
X29931769Y-37452626D01*
X30808395Y-36576000D01*
X31167605Y-36576000D01*
X32044231Y-37452626D01*
X32297289Y-37370273D01*
X32427086Y-37099582D01*
X32501580Y-36808770D01*
X32517908Y-36509012D01*
X32475443Y-36211829D01*
X32375816Y-35928641D01*
X32297289Y-35781727D01*
X32044231Y-35699374D01*
X31167605Y-36576000D01*
X30808395Y-36576000D01*
X29931769Y-35699374D01*
X29678711Y-35781727D01*
X29548914Y-36052418D01*
X29474420Y-36343230D01*
X29458092Y-36642988D01*
X27051000Y-36642988D01*
X27051000Y-36398253D01*
X27151494Y-36344537D01*
X27248185Y-36265185D01*
X27327537Y-36168494D01*
X27386502Y-36058180D01*
X27422812Y-35938482D01*
X27435072Y-35814000D01*
X27435072Y-35519769D01*
X30111374Y-35519769D01*
X30988000Y-36396395D01*
X31864626Y-35519769D01*
X31782273Y-35266711D01*
X31511582Y-35136914D01*
X31220770Y-35062420D01*
X30921012Y-35046092D01*
X30623829Y-35088557D01*
X30340641Y-35188184D01*
X30193727Y-35266711D01*
X30111374Y-35519769D01*
X27435072Y-35519769D01*
X27435072Y-34036000D01*
X27422812Y-33911518D01*
X27386502Y-33791820D01*
X27327537Y-33681506D01*
X27248185Y-33584815D01*
X27178956Y-33528000D01*
X30042861Y-33528000D01*
X30099000Y-33533529D01*
X30155139Y-33528000D01*
X30155146Y-33528000D01*
X30323067Y-33511461D01*
X30538523Y-33446103D01*
X30737089Y-33339968D01*
X30911133Y-33197133D01*
X30946927Y-33153518D01*
X31080445Y-33020000D01*
X31138101Y-33020000D01*
X31432534Y-32961434D01*
X31709885Y-32846551D01*
X31959493Y-32679768D01*
X32171768Y-32467493D01*
X32338551Y-32217885D01*
X32453434Y-31940534D01*
X32512000Y-31646101D01*
X32512000Y-31345899D01*
X32453434Y-31051466D01*
X32338551Y-30774115D01*
X32171768Y-30524507D01*
X31959493Y-30312232D01*
X31709885Y-30145449D01*
X31597750Y-30099001D01*
X44192928Y-30099001D01*
X44192928Y-30480001D01*
X41585137Y-30480001D01*
X41528998Y-30474472D01*
X41472859Y-30480001D01*
X41472853Y-30480001D01*
X41327599Y-30494307D01*
X41304931Y-30496540D01*
X41239573Y-30516366D01*
X41089476Y-30561898D01*
X40890910Y-30668033D01*
X40716866Y-30810868D01*
X40681076Y-30854478D01*
X40547554Y-30988000D01*
X40489899Y-30988000D01*
X40195466Y-31046566D01*
X39918115Y-31161449D01*
X39668507Y-31328232D01*
X39456232Y-31540507D01*
X39289449Y-31790115D01*
X39174566Y-32067466D01*
X39116000Y-32361899D01*
X39116000Y-32662101D01*
X39174566Y-32956534D01*
X39289449Y-33233885D01*
X39456232Y-33483493D01*
X39668507Y-33695768D01*
X39918115Y-33862551D01*
X40195466Y-33977434D01*
X40489899Y-34036000D01*
X40790101Y-34036000D01*
X41084534Y-33977434D01*
X41361885Y-33862551D01*
X41611493Y-33695768D01*
X41823768Y-33483493D01*
X41990551Y-33233885D01*
X42105434Y-32956534D01*
X42143333Y-32766001D01*
X47104782Y-32766001D01*
X47160921Y-32771530D01*
X47217060Y-32766001D01*
X47217067Y-32766001D01*
X47384988Y-32749462D01*
X47600444Y-32684104D01*
X47799010Y-32577969D01*
X47973054Y-32435134D01*
X48008848Y-32391519D01*
X49028524Y-31371844D01*
X49072133Y-31336055D01*
X49214968Y-31162011D01*
X49321103Y-30963445D01*
X49386461Y-30747989D01*
X49386591Y-30746670D01*
X49443768Y-30689493D01*
X49533318Y-30555472D01*
X49571449Y-30619806D01*
X49770989Y-30842156D01*
X50010073Y-31021306D01*
X50279514Y-31150370D01*
X50436987Y-31198134D01*
X50673000Y-31077330D01*
X50673000Y-29845000D01*
X50927000Y-29845000D01*
X50927000Y-31077330D01*
X51163013Y-31198134D01*
X51320486Y-31150370D01*
X51589927Y-31021306D01*
X51829011Y-30842156D01*
X52028551Y-30619806D01*
X52180878Y-30362800D01*
X52280139Y-30081014D01*
X52159954Y-29845000D01*
X50927000Y-29845000D01*
X50673000Y-29845000D01*
X50653000Y-29845000D01*
X50653000Y-29591000D01*
X50673000Y-29591000D01*
X50673000Y-28358670D01*
X50927000Y-28358670D01*
X50927000Y-29591000D01*
X52159954Y-29591000D01*
X52280139Y-29354986D01*
X52180878Y-29073200D01*
X52028551Y-28816194D01*
X51829011Y-28593844D01*
X51589927Y-28414694D01*
X51320486Y-28285630D01*
X51163013Y-28237866D01*
X50927000Y-28358670D01*
X50673000Y-28358670D01*
X50436987Y-28237866D01*
X50279514Y-28285630D01*
X50010073Y-28414694D01*
X49770989Y-28593844D01*
X49571449Y-28816194D01*
X49533318Y-28880528D01*
X49443768Y-28746507D01*
X49231493Y-28534232D01*
X48981885Y-28367449D01*
X48704534Y-28252566D01*
X48410101Y-28194000D01*
X48109899Y-28194000D01*
X47815466Y-28252566D01*
X47538115Y-28367449D01*
X47288507Y-28534232D01*
X47207676Y-28615063D01*
X47198502Y-28584820D01*
X47139537Y-28474506D01*
X47060185Y-28377815D01*
X46963494Y-28298463D01*
X46853180Y-28239498D01*
X46733482Y-28203188D01*
X46609000Y-28190928D01*
X45809373Y-28190928D01*
X45805928Y-28187483D01*
X45770134Y-28143868D01*
X45596090Y-28001033D01*
X45397524Y-27894898D01*
X45182068Y-27829540D01*
X45014147Y-27813001D01*
X45014140Y-27813001D01*
X44958001Y-27807472D01*
X44901862Y-27813001D01*
X26853137Y-27813001D01*
X26796998Y-27807472D01*
X26740859Y-27813001D01*
X26740853Y-27813001D01*
X26595599Y-27827307D01*
X26572931Y-27829540D01*
X26507573Y-27849366D01*
X26357476Y-27894898D01*
X26158910Y-28001033D01*
X25984866Y-28143868D01*
X25949076Y-28187478D01*
X25815554Y-28321000D01*
X25757899Y-28321000D01*
X25463466Y-28379566D01*
X25186115Y-28494449D01*
X24936507Y-28661232D01*
X24724232Y-28873507D01*
X24557449Y-29123115D01*
X24442566Y-29400466D01*
X24384000Y-29694899D01*
X24384000Y-29995101D01*
X24442566Y-30289534D01*
X24557449Y-30566885D01*
X24724232Y-30816493D01*
X24936507Y-31028768D01*
X25065562Y-31115000D01*
X24936507Y-31201232D01*
X24896433Y-31241306D01*
X24847340Y-31236471D01*
X24791201Y-31242000D01*
X24791194Y-31242000D01*
X24643857Y-31256512D01*
X24623272Y-31258539D01*
X24579119Y-31271933D01*
X24407817Y-31323897D01*
X24209251Y-31430032D01*
X24035207Y-31572867D01*
X23999417Y-31616477D01*
X23520000Y-32095895D01*
X23520000Y-23401872D01*
X23927000Y-23401872D01*
X23927000Y-23842128D01*
X24012890Y-24273925D01*
X24181369Y-24680669D01*
X24425962Y-25046729D01*
X24737271Y-25358038D01*
X25103331Y-25602631D01*
X25510075Y-25771110D01*
X25941872Y-25857000D01*
X26382128Y-25857000D01*
X26813925Y-25771110D01*
X27220669Y-25602631D01*
X27586729Y-25358038D01*
X27898038Y-25046729D01*
X28142631Y-24680669D01*
X28311110Y-24273925D01*
X28397000Y-23842128D01*
X28397000Y-23401872D01*
X68123000Y-23401872D01*
X68123000Y-23842128D01*
X68208890Y-24273925D01*
X68377369Y-24680669D01*
X68621962Y-25046729D01*
X68933271Y-25358038D01*
X69299331Y-25602631D01*
X69706075Y-25771110D01*
X70137872Y-25857000D01*
X70578128Y-25857000D01*
X71009925Y-25771110D01*
X71416669Y-25602631D01*
X71782729Y-25358038D01*
X72094038Y-25046729D01*
X72338631Y-24680669D01*
X72507110Y-24273925D01*
X72593000Y-23842128D01*
X72593000Y-23401872D01*
X72507110Y-22970075D01*
X72338631Y-22563331D01*
X72094038Y-22197271D01*
X71782729Y-21885962D01*
X71416669Y-21641369D01*
X71009925Y-21472890D01*
X70578128Y-21387000D01*
X70137872Y-21387000D01*
X69706075Y-21472890D01*
X69299331Y-21641369D01*
X68933271Y-21885962D01*
X68621962Y-22197271D01*
X68377369Y-22563331D01*
X68208890Y-22970075D01*
X68123000Y-23401872D01*
X28397000Y-23401872D01*
X28311110Y-22970075D01*
X28142631Y-22563331D01*
X27898038Y-22197271D01*
X27586729Y-21885962D01*
X27220669Y-21641369D01*
X26813925Y-21472890D01*
X26382128Y-21387000D01*
X25941872Y-21387000D01*
X25510075Y-21472890D01*
X25103331Y-21641369D01*
X24737271Y-21885962D01*
X24425962Y-22197271D01*
X24181369Y-22563331D01*
X24012890Y-22970075D01*
X23927000Y-23401872D01*
X23520000Y-23401872D01*
X23520000Y-20980000D01*
X73000000Y-20980000D01*
X73000001Y-70460000D01*
G37*
G04 #@! TD.AperFunction*
D20*
X26866883Y-48763491D02*
X26883434Y-48794456D01*
X26933705Y-48855711D01*
X26963415Y-48891912D01*
X27026269Y-48968500D01*
X27069879Y-49004290D01*
X28031541Y-49965952D01*
X27800641Y-50047184D01*
X27653727Y-50125711D01*
X27571374Y-50378769D01*
X28448000Y-51255395D01*
X28462143Y-51241253D01*
X28641748Y-51420858D01*
X28627605Y-51435000D01*
X29504231Y-52311626D01*
X29698583Y-52248378D01*
X29804232Y-52406493D01*
X30016507Y-52618768D01*
X30266115Y-52785551D01*
X30543466Y-52900434D01*
X30837899Y-52959000D01*
X31138101Y-52959000D01*
X31432534Y-52900434D01*
X31709885Y-52785551D01*
X31959493Y-52618768D01*
X32025662Y-52552599D01*
X40318955Y-52552599D01*
X39531555Y-53340000D01*
X39473899Y-53340000D01*
X39179466Y-53398566D01*
X38902115Y-53513449D01*
X38652507Y-53680232D01*
X38440232Y-53892507D01*
X38273449Y-54142115D01*
X38158566Y-54419466D01*
X38132575Y-54550130D01*
X38100000Y-54517555D01*
X38100000Y-54459899D01*
X38041434Y-54165466D01*
X37926551Y-53888115D01*
X37759768Y-53638507D01*
X37547493Y-53426232D01*
X37297885Y-53259449D01*
X37020534Y-53144566D01*
X36726101Y-53086000D01*
X36425899Y-53086000D01*
X36131466Y-53144566D01*
X35854115Y-53259449D01*
X35604507Y-53426232D01*
X35392232Y-53638507D01*
X35225449Y-53888115D01*
X35110566Y-54165466D01*
X35052000Y-54459899D01*
X35052000Y-54760101D01*
X35110566Y-55054534D01*
X35225449Y-55331885D01*
X35392232Y-55581493D01*
X35604507Y-55793768D01*
X35854115Y-55960551D01*
X36131466Y-56075434D01*
X36425899Y-56134000D01*
X36483555Y-56134000D01*
X40394620Y-60045066D01*
X40257215Y-60118510D01*
X40025156Y-60308956D01*
X40014326Y-60322153D01*
X39983490Y-60264463D01*
X39871634Y-60128166D01*
X39735337Y-60016310D01*
X39579837Y-59933193D01*
X39411110Y-59882010D01*
X39235639Y-59864728D01*
X37980361Y-59864728D01*
X37804890Y-59882010D01*
X37636163Y-59933193D01*
X37480663Y-60016310D01*
X37344366Y-60128166D01*
X37232510Y-60264463D01*
X37149393Y-60419963D01*
X37098210Y-60588690D01*
X37080928Y-60764161D01*
X37080928Y-61378627D01*
X36928154Y-61531401D01*
X35314706Y-61531401D01*
X35313000Y-61245750D01*
X35154250Y-61087000D01*
X33655000Y-61087000D01*
X33655000Y-61107000D01*
X33401000Y-61107000D01*
X33401000Y-61087000D01*
X31901750Y-61087000D01*
X31743000Y-61245750D01*
X31741294Y-61531401D01*
X28095847Y-61531401D01*
X27684208Y-61119762D01*
X27699943Y-60960000D01*
X27672236Y-60678691D01*
X27590182Y-60408192D01*
X27456932Y-60158899D01*
X27277608Y-59940392D01*
X27059101Y-59761068D01*
X26931259Y-59692735D01*
X27160839Y-59542601D01*
X27362500Y-59344895D01*
X27521715Y-59111646D01*
X27632367Y-58851818D01*
X27649904Y-58769039D01*
X27527915Y-58547000D01*
X26035000Y-58547000D01*
X26035000Y-58567000D01*
X25781000Y-58567000D01*
X25781000Y-58547000D01*
X25761000Y-58547000D01*
X25761000Y-58293000D01*
X25781000Y-58293000D01*
X25781000Y-58273000D01*
X26035000Y-58273000D01*
X26035000Y-58293000D01*
X27527915Y-58293000D01*
X27649904Y-58070961D01*
X27632367Y-57988182D01*
X27521715Y-57728354D01*
X27362500Y-57495105D01*
X27160839Y-57297399D01*
X26931259Y-57147265D01*
X27059101Y-57078932D01*
X27277608Y-56899608D01*
X27456932Y-56681101D01*
X27590182Y-56431808D01*
X27672236Y-56161309D01*
X27699943Y-55880000D01*
X31736057Y-55880000D01*
X31763764Y-56161309D01*
X31845818Y-56431808D01*
X31979068Y-56681101D01*
X32158392Y-56899608D01*
X32376899Y-57078932D01*
X32509858Y-57150000D01*
X32376899Y-57221068D01*
X32158392Y-57400392D01*
X31979068Y-57618899D01*
X31845818Y-57868192D01*
X31763764Y-58138691D01*
X31736057Y-58420000D01*
X31763764Y-58701309D01*
X31845818Y-58971808D01*
X31979068Y-59221101D01*
X32158392Y-59439608D01*
X32271482Y-59532419D01*
X32253518Y-59534188D01*
X32133820Y-59570498D01*
X32023506Y-59629463D01*
X31926815Y-59708815D01*
X31847463Y-59805506D01*
X31788498Y-59915820D01*
X31752188Y-60035518D01*
X31739928Y-60160000D01*
X31743000Y-60674250D01*
X31901750Y-60833000D01*
X33401000Y-60833000D01*
X33401000Y-60813000D01*
X33655000Y-60813000D01*
X33655000Y-60833000D01*
X35154250Y-60833000D01*
X35313000Y-60674250D01*
X35316072Y-60160000D01*
X35303812Y-60035518D01*
X35267502Y-59915820D01*
X35208537Y-59805506D01*
X35129185Y-59708815D01*
X35032494Y-59629463D01*
X34922180Y-59570498D01*
X34802482Y-59534188D01*
X34784518Y-59532419D01*
X34897608Y-59439608D01*
X35076932Y-59221101D01*
X35210182Y-58971808D01*
X35292236Y-58701309D01*
X35319943Y-58420000D01*
X35292236Y-58138691D01*
X35210182Y-57868192D01*
X35076932Y-57618899D01*
X34897608Y-57400392D01*
X34679101Y-57221068D01*
X34546142Y-57150000D01*
X34679101Y-57078932D01*
X34897608Y-56899608D01*
X35076932Y-56681101D01*
X35210182Y-56431808D01*
X35292236Y-56161309D01*
X35319943Y-55880000D01*
X35292236Y-55598691D01*
X35210182Y-55328192D01*
X35076932Y-55078899D01*
X34897608Y-54860392D01*
X34679101Y-54681068D01*
X34429808Y-54547818D01*
X34159309Y-54465764D01*
X33948492Y-54445000D01*
X33107508Y-54445000D01*
X32896691Y-54465764D01*
X32626192Y-54547818D01*
X32376899Y-54681068D01*
X32158392Y-54860392D01*
X31979068Y-55078899D01*
X31845818Y-55328192D01*
X31763764Y-55598691D01*
X31736057Y-55880000D01*
X27699943Y-55880000D01*
X27672236Y-55598691D01*
X27590182Y-55328192D01*
X27456932Y-55078899D01*
X27277608Y-54860392D01*
X27059101Y-54681068D01*
X27051000Y-54676738D01*
X27051000Y-52491231D01*
X27571374Y-52491231D01*
X27653727Y-52744289D01*
X27924418Y-52874086D01*
X28215230Y-52948580D01*
X28514988Y-52964908D01*
X28812171Y-52922443D01*
X29095359Y-52822816D01*
X29242273Y-52744289D01*
X29324626Y-52491231D01*
X28448000Y-51614605D01*
X27571374Y-52491231D01*
X27051000Y-52491231D01*
X27051000Y-52447261D01*
X27091768Y-52406493D01*
X27197417Y-52248378D01*
X27391769Y-52311626D01*
X28268395Y-51435000D01*
X27391769Y-50558374D01*
X27197417Y-50621622D01*
X27091768Y-50463507D01*
X26879493Y-50251232D01*
X26629885Y-50084449D01*
X26352534Y-49969566D01*
X26058101Y-49911000D01*
X25757899Y-49911000D01*
X25463466Y-49969566D01*
X25186115Y-50084449D01*
X24986590Y-50217768D01*
X24986590Y-48726018D01*
X25031375Y-48681233D01*
X25113727Y-48934289D01*
X25384418Y-49064086D01*
X25675230Y-49138580D01*
X25974988Y-49154908D01*
X26272171Y-49112443D01*
X26555359Y-49012816D01*
X26702273Y-48934289D01*
X26784625Y-48681233D01*
X26866883Y-48763491D01*
G04 #@! TA.AperFunction,Conductor*
D19*
G36*
X26866883Y-48763491D02*
G01*
X26883434Y-48794456D01*
X26933705Y-48855711D01*
X26963415Y-48891912D01*
X27026269Y-48968500D01*
X27069879Y-49004290D01*
X28031541Y-49965952D01*
X27800641Y-50047184D01*
X27653727Y-50125711D01*
X27571374Y-50378769D01*
X28448000Y-51255395D01*
X28462143Y-51241253D01*
X28641748Y-51420858D01*
X28627605Y-51435000D01*
X29504231Y-52311626D01*
X29698583Y-52248378D01*
X29804232Y-52406493D01*
X30016507Y-52618768D01*
X30266115Y-52785551D01*
X30543466Y-52900434D01*
X30837899Y-52959000D01*
X31138101Y-52959000D01*
X31432534Y-52900434D01*
X31709885Y-52785551D01*
X31959493Y-52618768D01*
X32025662Y-52552599D01*
X40318955Y-52552599D01*
X39531555Y-53340000D01*
X39473899Y-53340000D01*
X39179466Y-53398566D01*
X38902115Y-53513449D01*
X38652507Y-53680232D01*
X38440232Y-53892507D01*
X38273449Y-54142115D01*
X38158566Y-54419466D01*
X38132575Y-54550130D01*
X38100000Y-54517555D01*
X38100000Y-54459899D01*
X38041434Y-54165466D01*
X37926551Y-53888115D01*
X37759768Y-53638507D01*
X37547493Y-53426232D01*
X37297885Y-53259449D01*
X37020534Y-53144566D01*
X36726101Y-53086000D01*
X36425899Y-53086000D01*
X36131466Y-53144566D01*
X35854115Y-53259449D01*
X35604507Y-53426232D01*
X35392232Y-53638507D01*
X35225449Y-53888115D01*
X35110566Y-54165466D01*
X35052000Y-54459899D01*
X35052000Y-54760101D01*
X35110566Y-55054534D01*
X35225449Y-55331885D01*
X35392232Y-55581493D01*
X35604507Y-55793768D01*
X35854115Y-55960551D01*
X36131466Y-56075434D01*
X36425899Y-56134000D01*
X36483555Y-56134000D01*
X40394620Y-60045066D01*
X40257215Y-60118510D01*
X40025156Y-60308956D01*
X40014326Y-60322153D01*
X39983490Y-60264463D01*
X39871634Y-60128166D01*
X39735337Y-60016310D01*
X39579837Y-59933193D01*
X39411110Y-59882010D01*
X39235639Y-59864728D01*
X37980361Y-59864728D01*
X37804890Y-59882010D01*
X37636163Y-59933193D01*
X37480663Y-60016310D01*
X37344366Y-60128166D01*
X37232510Y-60264463D01*
X37149393Y-60419963D01*
X37098210Y-60588690D01*
X37080928Y-60764161D01*
X37080928Y-61378627D01*
X36928154Y-61531401D01*
X35314706Y-61531401D01*
X35313000Y-61245750D01*
X35154250Y-61087000D01*
X33655000Y-61087000D01*
X33655000Y-61107000D01*
X33401000Y-61107000D01*
X33401000Y-61087000D01*
X31901750Y-61087000D01*
X31743000Y-61245750D01*
X31741294Y-61531401D01*
X28095847Y-61531401D01*
X27684208Y-61119762D01*
X27699943Y-60960000D01*
X27672236Y-60678691D01*
X27590182Y-60408192D01*
X27456932Y-60158899D01*
X27277608Y-59940392D01*
X27059101Y-59761068D01*
X26931259Y-59692735D01*
X27160839Y-59542601D01*
X27362500Y-59344895D01*
X27521715Y-59111646D01*
X27632367Y-58851818D01*
X27649904Y-58769039D01*
X27527915Y-58547000D01*
X26035000Y-58547000D01*
X26035000Y-58567000D01*
X25781000Y-58567000D01*
X25781000Y-58547000D01*
X25761000Y-58547000D01*
X25761000Y-58293000D01*
X25781000Y-58293000D01*
X25781000Y-58273000D01*
X26035000Y-58273000D01*
X26035000Y-58293000D01*
X27527915Y-58293000D01*
X27649904Y-58070961D01*
X27632367Y-57988182D01*
X27521715Y-57728354D01*
X27362500Y-57495105D01*
X27160839Y-57297399D01*
X26931259Y-57147265D01*
X27059101Y-57078932D01*
X27277608Y-56899608D01*
X27456932Y-56681101D01*
X27590182Y-56431808D01*
X27672236Y-56161309D01*
X27699943Y-55880000D01*
X31736057Y-55880000D01*
X31763764Y-56161309D01*
X31845818Y-56431808D01*
X31979068Y-56681101D01*
X32158392Y-56899608D01*
X32376899Y-57078932D01*
X32509858Y-57150000D01*
X32376899Y-57221068D01*
X32158392Y-57400392D01*
X31979068Y-57618899D01*
X31845818Y-57868192D01*
X31763764Y-58138691D01*
X31736057Y-58420000D01*
X31763764Y-58701309D01*
X31845818Y-58971808D01*
X31979068Y-59221101D01*
X32158392Y-59439608D01*
X32271482Y-59532419D01*
X32253518Y-59534188D01*
X32133820Y-59570498D01*
X32023506Y-59629463D01*
X31926815Y-59708815D01*
X31847463Y-59805506D01*
X31788498Y-59915820D01*
X31752188Y-60035518D01*
X31739928Y-60160000D01*
X31743000Y-60674250D01*
X31901750Y-60833000D01*
X33401000Y-60833000D01*
X33401000Y-60813000D01*
X33655000Y-60813000D01*
X33655000Y-60833000D01*
X35154250Y-60833000D01*
X35313000Y-60674250D01*
X35316072Y-60160000D01*
X35303812Y-60035518D01*
X35267502Y-59915820D01*
X35208537Y-59805506D01*
X35129185Y-59708815D01*
X35032494Y-59629463D01*
X34922180Y-59570498D01*
X34802482Y-59534188D01*
X34784518Y-59532419D01*
X34897608Y-59439608D01*
X35076932Y-59221101D01*
X35210182Y-58971808D01*
X35292236Y-58701309D01*
X35319943Y-58420000D01*
X35292236Y-58138691D01*
X35210182Y-57868192D01*
X35076932Y-57618899D01*
X34897608Y-57400392D01*
X34679101Y-57221068D01*
X34546142Y-57150000D01*
X34679101Y-57078932D01*
X34897608Y-56899608D01*
X35076932Y-56681101D01*
X35210182Y-56431808D01*
X35292236Y-56161309D01*
X35319943Y-55880000D01*
X35292236Y-55598691D01*
X35210182Y-55328192D01*
X35076932Y-55078899D01*
X34897608Y-54860392D01*
X34679101Y-54681068D01*
X34429808Y-54547818D01*
X34159309Y-54465764D01*
X33948492Y-54445000D01*
X33107508Y-54445000D01*
X32896691Y-54465764D01*
X32626192Y-54547818D01*
X32376899Y-54681068D01*
X32158392Y-54860392D01*
X31979068Y-55078899D01*
X31845818Y-55328192D01*
X31763764Y-55598691D01*
X31736057Y-55880000D01*
X27699943Y-55880000D01*
X27672236Y-55598691D01*
X27590182Y-55328192D01*
X27456932Y-55078899D01*
X27277608Y-54860392D01*
X27059101Y-54681068D01*
X27051000Y-54676738D01*
X27051000Y-52491231D01*
X27571374Y-52491231D01*
X27653727Y-52744289D01*
X27924418Y-52874086D01*
X28215230Y-52948580D01*
X28514988Y-52964908D01*
X28812171Y-52922443D01*
X29095359Y-52822816D01*
X29242273Y-52744289D01*
X29324626Y-52491231D01*
X28448000Y-51614605D01*
X27571374Y-52491231D01*
X27051000Y-52491231D01*
X27051000Y-52447261D01*
X27091768Y-52406493D01*
X27197417Y-52248378D01*
X27391769Y-52311626D01*
X28268395Y-51435000D01*
X27391769Y-50558374D01*
X27197417Y-50621622D01*
X27091768Y-50463507D01*
X26879493Y-50251232D01*
X26629885Y-50084449D01*
X26352534Y-49969566D01*
X26058101Y-49911000D01*
X25757899Y-49911000D01*
X25463466Y-49969566D01*
X25186115Y-50084449D01*
X24986590Y-50217768D01*
X24986590Y-48726018D01*
X25031375Y-48681233D01*
X25113727Y-48934289D01*
X25384418Y-49064086D01*
X25675230Y-49138580D01*
X25974988Y-49154908D01*
X26272171Y-49112443D01*
X26555359Y-49012816D01*
X26702273Y-48934289D01*
X26784625Y-48681233D01*
X26866883Y-48763491D01*
G37*
G04 #@! TD.AperFunction*
D20*
X26101748Y-47610858D02*
X26087605Y-47625000D01*
X26101748Y-47639143D01*
X25922143Y-47818748D01*
X25908000Y-47804605D01*
X25893858Y-47818748D01*
X25714253Y-47639143D01*
X25728395Y-47625000D01*
X25714253Y-47610858D01*
X25893858Y-47431253D01*
X25908000Y-47445395D01*
X25922143Y-47431253D01*
X26101748Y-47610858D01*
G04 #@! TA.AperFunction,Conductor*
D19*
G36*
X26101748Y-47610858D02*
G01*
X26087605Y-47625000D01*
X26101748Y-47639143D01*
X25922143Y-47818748D01*
X25908000Y-47804605D01*
X25893858Y-47818748D01*
X25714253Y-47639143D01*
X25728395Y-47625000D01*
X25714253Y-47610858D01*
X25893858Y-47431253D01*
X25908000Y-47445395D01*
X25922143Y-47431253D01*
X26101748Y-47610858D01*
G37*
G04 #@! TD.AperFunction*
D20*
X26101748Y-43800858D02*
X26087605Y-43815000D01*
X26101748Y-43829143D01*
X25922143Y-44008748D01*
X25908000Y-43994605D01*
X25893858Y-44008748D01*
X25714253Y-43829143D01*
X25728395Y-43815000D01*
X25714253Y-43800858D01*
X25893858Y-43621253D01*
X25908000Y-43635395D01*
X25922143Y-43621253D01*
X26101748Y-43800858D01*
G04 #@! TA.AperFunction,Conductor*
D19*
G36*
X26101748Y-43800858D02*
G01*
X26087605Y-43815000D01*
X26101748Y-43829143D01*
X25922143Y-44008748D01*
X25908000Y-43994605D01*
X25893858Y-44008748D01*
X25714253Y-43829143D01*
X25728395Y-43815000D01*
X25714253Y-43800858D01*
X25893858Y-43621253D01*
X25908000Y-43635395D01*
X25922143Y-43621253D01*
X26101748Y-43800858D01*
G37*
G04 #@! TD.AperFunction*
M02*
