M48
; DRILL file {KiCad 8.0.2} date 2024-05-23T02:02:22+0900
; FORMAT={-:-/ absolute / inch / decimal}
; #@! TF.CreationDate,2024-05-23T02:02:22+09:00
; #@! TF.GenerationSoftware,Kicad,Pcbnew,8.0.2
; #@! TF.FileFunction,Plated,1,2,PTH
FMAT,2
INCH
; #@! TA.AperFunction,Plated,PTH,ComponentDrill
T1C0.0276
; #@! TA.AperFunction,Plated,PTH,ComponentDrill
T2C0.0315
; #@! TA.AperFunction,Plated,PTH,ComponentDrill
T3C0.0320
; #@! TA.AperFunction,Plated,PTH,ComponentDrill
T4C0.0394
; #@! TA.AperFunction,Plated,PTH,ComponentDrill
T5C0.0400
; #@! TA.AperFunction,Plated,PTH,ComponentDrill
T6C0.0640
; #@! TA.AperFunction,Plated,PTH,ComponentDrill
T7C0.0900
; #@! TA.AperFunction,Plated,PTH,ViaDrill
T8C0.1000
%
G90
G05
T1
X4.5Y-3.45
X4.5Y-3.75
X4.5Y-5.4
X4.5Y-5.7
X4.6Y-3.45
X4.6Y-3.75
X4.6Y-5.4
X4.6Y-5.7
X4.7Y-3.45
X4.7Y-3.75
X4.7Y-5.4
X4.7Y-5.7
X4.8Y-3.45
X4.8Y-3.75
X4.8Y-5.4
X4.8Y-5.7
X5.5Y-3.45
X5.5Y-3.75
X5.5Y-5.4
X5.5Y-5.7
X5.6Y-3.45
X5.6Y-3.75
X5.6Y-5.4
X5.6Y-5.7
X5.7Y-3.45
X5.7Y-3.75
X5.7Y-5.4
X5.7Y-5.7
X5.8Y-3.45
X5.8Y-3.75
X5.8Y-5.4
X5.8Y-5.7
T2
X4.85Y-3.2016
X4.85Y-3.3
X4.85Y-5.1516
X4.85Y-5.25
X5.05Y-3.2016
X5.05Y-3.3
X5.05Y-5.1516
X5.05Y-5.25
X5.25Y-3.2016
X5.25Y-3.3
X5.25Y-5.1516
X5.25Y-5.25
T3
X4.75Y-3.05
X4.75Y-5.0
X4.85Y-3.05
X4.85Y-5.0
X4.95Y-3.05
X4.95Y-5.0
X5.05Y-3.05
X5.05Y-5.0
X5.15Y-3.05
X5.15Y-5.0
X5.25Y-3.05
X5.25Y-5.0
X5.35Y-3.05
X5.35Y-5.0
X5.45Y-3.05
X5.45Y-5.0
X5.55Y-3.05
X5.55Y-5.0
T4
X4.3Y-3.25
X4.3Y-3.35
X4.3Y-3.45
X4.3Y-3.55
X4.3Y-3.65
X4.3Y-5.2
X4.3Y-5.3
X4.3Y-5.4
X4.3Y-5.5
X4.3Y-5.6
X5.0Y-3.95
X5.0Y-5.9
X5.1Y-3.95
X5.1Y-5.9
X5.2Y-3.95
X5.2Y-5.9
X5.3Y-3.95
X5.3Y-5.9
X5.4Y-3.95
X5.4Y-5.9
X6.0Y-3.25
X6.0Y-3.35
X6.0Y-3.45
X6.0Y-3.55
X6.0Y-3.65
X6.0Y-5.2
X6.0Y-5.3
X6.0Y-5.4
X6.0Y-5.5
X6.0Y-5.6
T5
X4.95Y-3.45
X4.95Y-3.56
X4.95Y-3.705
X4.95Y-5.4
X4.95Y-5.51
X4.95Y-5.655
X5.36Y-3.45
X5.36Y-3.56
X5.36Y-3.705
X5.36Y-5.4
X5.36Y-5.51
X5.36Y-5.655
T6
X4.32Y-2.98
X4.32Y-4.93
X5.98Y-2.98
X5.98Y-4.93
T7
X4.45Y-2.95
X4.45Y-4.9
X5.85Y-2.95
X5.85Y-4.9
T8
X4.2Y-2.25
X4.2Y-2.55
X4.2Y-2.85
X4.2Y-3.95
X4.2Y-4.2
X4.2Y-4.5
X4.2Y-4.8
X4.2Y-5.9
X6.1Y-2.25
X6.1Y-2.55
X6.1Y-2.85
X6.1Y-3.95
X6.1Y-4.2
X6.1Y-4.5
X6.1Y-4.8
X6.1Y-5.9
M30
