G04 #@! TF.GenerationSoftware,KiCad,Pcbnew,8.0.2*
G04 #@! TF.CreationDate,2024-05-23T02:02:48+09:00*
G04 #@! TF.ProjectId,5way_lcd_interface,35776179-5f6c-4636-945f-696e74657266,1.0*
G04 #@! TF.SameCoordinates,Original*
G04 #@! TF.FileFunction,Soldermask,Bot*
G04 #@! TF.FilePolarity,Negative*
%FSLAX46Y46*%
G04 Gerber Fmt 4.6, Leading zero omitted, Abs format (unit mm)*
G04 Created by KiCad (PCBNEW 8.0.2) date 2024-05-23 02:02:48*
%MOMM*%
%LPD*%
G01*
G04 APERTURE LIST*
%ADD10C,1.400000*%
%ADD11O,1.400000X1.400000*%
%ADD12O,1.700000X1.700000*%
%ADD13R,1.700000X1.700000*%
%ADD14C,2.032000*%
%ADD15C,1.600000*%
%ADD16C,1.625600*%
%ADD17C,3.048000*%
%ADD18C,4.572000*%
G04 APERTURE END LIST*
D10*
X119380000Y-137160000D03*
D11*
X119380000Y-144780000D03*
D10*
X114300000Y-144780000D03*
D11*
X114300000Y-137160000D03*
D10*
X147320000Y-137160000D03*
D11*
X147320000Y-144780000D03*
D10*
X116840000Y-144780000D03*
D11*
X116840000Y-137160000D03*
D10*
X144780000Y-137160000D03*
D11*
X144780000Y-144780000D03*
D10*
X142240000Y-144780000D03*
D11*
X142240000Y-137160000D03*
D10*
X139700000Y-144780000D03*
D11*
X139700000Y-137160000D03*
D12*
X152400000Y-142240000D03*
X152400000Y-139700000D03*
X152400000Y-137160000D03*
X152400000Y-134620000D03*
D13*
X152400000Y-132080000D03*
D10*
X121920000Y-137160000D03*
D11*
X121920000Y-144780000D03*
D14*
X125730000Y-137160000D03*
X125730000Y-139954000D03*
X125730000Y-143637000D03*
X136144000Y-143637000D03*
X136144000Y-139954000D03*
X136144000Y-137160000D03*
D15*
X123190000Y-133350000D03*
X123190000Y-130850000D03*
X133350000Y-133350000D03*
X133350000Y-130850000D03*
X128270000Y-133350000D03*
X128270000Y-130850000D03*
D12*
X109220000Y-132080000D03*
X109220000Y-134620000D03*
X109220000Y-137160000D03*
X109220000Y-139700000D03*
D13*
X109220000Y-142240000D03*
D16*
X109728000Y-125222000D03*
X151892000Y-125222000D03*
X120650000Y-127000000D03*
X123190000Y-127000000D03*
X125730000Y-127000000D03*
X128270000Y-127000000D03*
X130810000Y-127000000D03*
X133350000Y-127000000D03*
X135890000Y-127000000D03*
X138430000Y-127000000D03*
X140970000Y-127000000D03*
D17*
X113030000Y-124460000D03*
X148590000Y-124460000D03*
D13*
X137160000Y-149860000D03*
D12*
X134620000Y-149860000D03*
X132080000Y-149860000D03*
X129540000Y-149860000D03*
X127000000Y-149860000D03*
D14*
X125730000Y-87630000D03*
X125730000Y-90424000D03*
X125730000Y-94107000D03*
X136144000Y-94107000D03*
X136144000Y-90424000D03*
X136144000Y-87630000D03*
D15*
X123190000Y-83820000D03*
X123190000Y-81320000D03*
X128270000Y-83820000D03*
X128270000Y-81320000D03*
X133350000Y-83820000D03*
X133350000Y-81320000D03*
D10*
X116840000Y-95250000D03*
D11*
X116840000Y-87630000D03*
D10*
X119380000Y-87630000D03*
D11*
X119380000Y-95250000D03*
D10*
X121920000Y-87630000D03*
D11*
X121920000Y-95250000D03*
D10*
X139700000Y-95250000D03*
D11*
X139700000Y-87630000D03*
D10*
X142240000Y-95250000D03*
D11*
X142240000Y-87630000D03*
D10*
X114300000Y-95250000D03*
D11*
X114300000Y-87630000D03*
D10*
X144780000Y-87630000D03*
D11*
X144780000Y-95250000D03*
D10*
X147320000Y-87630000D03*
D11*
X147320000Y-95250000D03*
D12*
X152400000Y-92710000D03*
X152400000Y-90170000D03*
X152400000Y-87630000D03*
X152400000Y-85090000D03*
D13*
X152400000Y-82550000D03*
D16*
X109728000Y-75692000D03*
X151892000Y-75692000D03*
X120650000Y-77470000D03*
X123190000Y-77470000D03*
X125730000Y-77470000D03*
X128270000Y-77470000D03*
X130810000Y-77470000D03*
X133350000Y-77470000D03*
X135890000Y-77470000D03*
X138430000Y-77470000D03*
X140970000Y-77470000D03*
D17*
X113030000Y-74930000D03*
X148590000Y-74930000D03*
D13*
X137160000Y-100330000D03*
D12*
X134620000Y-100330000D03*
X132080000Y-100330000D03*
X129540000Y-100330000D03*
X127000000Y-100330000D03*
X109220000Y-82550000D03*
X109220000Y-85090000D03*
X109220000Y-87630000D03*
X109220000Y-90170000D03*
D13*
X109220000Y-92710000D03*
D18*
X106680000Y-121920000D03*
X154940000Y-106680000D03*
X154940000Y-114300000D03*
X106680000Y-106680000D03*
X106680000Y-114300000D03*
X106680000Y-149860000D03*
X154940000Y-149860000D03*
X154940000Y-121920000D03*
X154940000Y-57150000D03*
X106680000Y-72390000D03*
X106680000Y-57150000D03*
X106680000Y-64770000D03*
X154940000Y-64770000D03*
X154940000Y-72390000D03*
X154940000Y-100330000D03*
X106680000Y-100330000D03*
M02*
