G04 #@! TF.GenerationSoftware,KiCad,Pcbnew,8.0.2*
G04 #@! TF.CreationDate,2024-09-16T05:24:11+09:00*
G04 #@! TF.ProjectId,ESP32-C6_breakout,45535033-322d-4433-965f-627265616b6f,1.0*
G04 #@! TF.SameCoordinates,Original*
G04 #@! TF.FileFunction,Soldermask,Top*
G04 #@! TF.FilePolarity,Negative*
%FSLAX46Y46*%
G04 Gerber Fmt 4.6, Leading zero omitted, Abs format (unit mm)*
G04 Created by KiCad (PCBNEW 8.0.2) date 2024-09-16 05:24:11*
%MOMM*%
%LPD*%
G01*
G04 APERTURE LIST*
G04 Aperture macros list*
%AMRoundRect*
0 Rectangle with rounded corners*
0 $1 Rounding radius*
0 $2 $3 $4 $5 $6 $7 $8 $9 X,Y pos of 4 corners*
0 Add a 4 corners polygon primitive as box body*
4,1,4,$2,$3,$4,$5,$6,$7,$8,$9,$2,$3,0*
0 Add four circle primitives for the rounded corners*
1,1,$1+$1,$2,$3*
1,1,$1+$1,$4,$5*
1,1,$1+$1,$6,$7*
1,1,$1+$1,$8,$9*
0 Add four rect primitives between the rounded corners*
20,1,$1+$1,$2,$3,$4,$5,0*
20,1,$1+$1,$4,$5,$6,$7,0*
20,1,$1+$1,$6,$7,$8,$9,0*
20,1,$1+$1,$8,$9,$2,$3,0*%
G04 Aperture macros list end*
%ADD10C,0.812000*%
%ADD11RoundRect,0.250000X0.450000X-0.350000X0.450000X0.350000X-0.450000X0.350000X-0.450000X-0.350000X0*%
%ADD12R,0.800000X0.800000*%
%ADD13R,1.500000X0.900000*%
G04 APERTURE END LIST*
D10*
X167645000Y-110880000D02*
G75*
G02*
X166833000Y-110880000I-406000J0D01*
G01*
X166833000Y-110880000D02*
G75*
G02*
X167645000Y-110880000I406000J0D01*
G01*
X167645000Y-108340000D02*
G75*
G02*
X166833000Y-108340000I-406000J0D01*
G01*
X166833000Y-108340000D02*
G75*
G02*
X167645000Y-108340000I406000J0D01*
G01*
X167645000Y-105800000D02*
G75*
G02*
X166833000Y-105800000I-406000J0D01*
G01*
X166833000Y-105800000D02*
G75*
G02*
X167645000Y-105800000I406000J0D01*
G01*
X167645000Y-103260000D02*
G75*
G02*
X166833000Y-103260000I-406000J0D01*
G01*
X166833000Y-103260000D02*
G75*
G02*
X167645000Y-103260000I406000J0D01*
G01*
X167645000Y-100720000D02*
G75*
G02*
X166833000Y-100720000I-406000J0D01*
G01*
X166833000Y-100720000D02*
G75*
G02*
X167645000Y-100720000I406000J0D01*
G01*
X167645000Y-113420000D02*
G75*
G02*
X166833000Y-113420000I-406000J0D01*
G01*
X166833000Y-113420000D02*
G75*
G02*
X167645000Y-113420000I406000J0D01*
G01*
X167645000Y-115960000D02*
G75*
G02*
X166833000Y-115960000I-406000J0D01*
G01*
X166833000Y-115960000D02*
G75*
G02*
X167645000Y-115960000I406000J0D01*
G01*
X167645000Y-121040000D02*
G75*
G02*
X166833000Y-121040000I-406000J0D01*
G01*
X166833000Y-121040000D02*
G75*
G02*
X167645000Y-121040000I406000J0D01*
G01*
X167645000Y-126120000D02*
G75*
G02*
X166833000Y-126120000I-406000J0D01*
G01*
X166833000Y-126120000D02*
G75*
G02*
X167645000Y-126120000I406000J0D01*
G01*
X167645000Y-131200000D02*
G75*
G02*
X166833000Y-131200000I-406000J0D01*
G01*
X166833000Y-131200000D02*
G75*
G02*
X167645000Y-131200000I406000J0D01*
G01*
X180345000Y-131200000D02*
G75*
G02*
X179533000Y-131200000I-406000J0D01*
G01*
X179533000Y-131200000D02*
G75*
G02*
X180345000Y-131200000I406000J0D01*
G01*
X180345000Y-123580000D02*
G75*
G02*
X179533000Y-123580000I-406000J0D01*
G01*
X179533000Y-123580000D02*
G75*
G02*
X180345000Y-123580000I406000J0D01*
G01*
X190505000Y-128660000D02*
G75*
G02*
X189693000Y-128660000I-406000J0D01*
G01*
X189693000Y-128660000D02*
G75*
G02*
X190505000Y-128660000I406000J0D01*
G01*
X190505000Y-113420000D02*
G75*
G02*
X189693000Y-113420000I-406000J0D01*
G01*
X189693000Y-113420000D02*
G75*
G02*
X190505000Y-113420000I406000J0D01*
G01*
X167645000Y-128660000D02*
G75*
G02*
X166833000Y-128660000I-406000J0D01*
G01*
X166833000Y-128660000D02*
G75*
G02*
X167645000Y-128660000I406000J0D01*
G01*
X190505000Y-118500000D02*
G75*
G02*
X189693000Y-118500000I-406000J0D01*
G01*
X189693000Y-118500000D02*
G75*
G02*
X190505000Y-118500000I406000J0D01*
G01*
X167645000Y-133740000D02*
G75*
G02*
X166833000Y-133740000I-406000J0D01*
G01*
X166833000Y-133740000D02*
G75*
G02*
X167645000Y-133740000I406000J0D01*
G01*
X180345000Y-128660000D02*
G75*
G02*
X179533000Y-128660000I-406000J0D01*
G01*
X179533000Y-128660000D02*
G75*
G02*
X180345000Y-128660000I406000J0D01*
G01*
X180345000Y-126120000D02*
G75*
G02*
X179533000Y-126120000I-406000J0D01*
G01*
X179533000Y-126120000D02*
G75*
G02*
X180345000Y-126120000I406000J0D01*
G01*
X190505000Y-110880000D02*
G75*
G02*
X189693000Y-110880000I-406000J0D01*
G01*
X189693000Y-110880000D02*
G75*
G02*
X190505000Y-110880000I406000J0D01*
G01*
X190505000Y-126120000D02*
G75*
G02*
X189693000Y-126120000I-406000J0D01*
G01*
X189693000Y-126120000D02*
G75*
G02*
X190505000Y-126120000I406000J0D01*
G01*
X190505000Y-105800000D02*
G75*
G02*
X189693000Y-105800000I-406000J0D01*
G01*
X189693000Y-105800000D02*
G75*
G02*
X190505000Y-105800000I406000J0D01*
G01*
X190505000Y-100720000D02*
G75*
G02*
X189693000Y-100720000I-406000J0D01*
G01*
X189693000Y-100720000D02*
G75*
G02*
X190505000Y-100720000I406000J0D01*
G01*
X190505000Y-121040000D02*
G75*
G02*
X189693000Y-121040000I-406000J0D01*
G01*
X189693000Y-121040000D02*
G75*
G02*
X190505000Y-121040000I406000J0D01*
G01*
X190505000Y-131200000D02*
G75*
G02*
X189693000Y-131200000I-406000J0D01*
G01*
X189693000Y-131200000D02*
G75*
G02*
X190505000Y-131200000I406000J0D01*
G01*
X167645000Y-118500000D02*
G75*
G02*
X166833000Y-118500000I-406000J0D01*
G01*
X166833000Y-118500000D02*
G75*
G02*
X167645000Y-118500000I406000J0D01*
G01*
X167645000Y-123580000D02*
G75*
G02*
X166833000Y-123580000I-406000J0D01*
G01*
X166833000Y-123580000D02*
G75*
G02*
X167645000Y-123580000I406000J0D01*
G01*
X190505000Y-103260000D02*
G75*
G02*
X189693000Y-103260000I-406000J0D01*
G01*
X189693000Y-103260000D02*
G75*
G02*
X190505000Y-103260000I406000J0D01*
G01*
X190505000Y-115960000D02*
G75*
G02*
X189693000Y-115960000I-406000J0D01*
G01*
X189693000Y-115960000D02*
G75*
G02*
X190505000Y-115960000I406000J0D01*
G01*
X190505000Y-133740000D02*
G75*
G02*
X189693000Y-133740000I-406000J0D01*
G01*
X189693000Y-133740000D02*
G75*
G02*
X190505000Y-133740000I406000J0D01*
G01*
X190505000Y-123580000D02*
G75*
G02*
X189693000Y-123580000I-406000J0D01*
G01*
X189693000Y-123580000D02*
G75*
G02*
X190505000Y-123580000I406000J0D01*
G01*
X190505000Y-108340000D02*
G75*
G02*
X189693000Y-108340000I-406000J0D01*
G01*
X189693000Y-108340000D02*
G75*
G02*
X190505000Y-108340000I406000J0D01*
G01*
X142245000Y-110880000D02*
G75*
G02*
X141433000Y-110880000I-406000J0D01*
G01*
X141433000Y-110880000D02*
G75*
G02*
X142245000Y-110880000I406000J0D01*
G01*
X142245000Y-108340000D02*
G75*
G02*
X141433000Y-108340000I-406000J0D01*
G01*
X141433000Y-108340000D02*
G75*
G02*
X142245000Y-108340000I406000J0D01*
G01*
X142245000Y-105800000D02*
G75*
G02*
X141433000Y-105800000I-406000J0D01*
G01*
X141433000Y-105800000D02*
G75*
G02*
X142245000Y-105800000I406000J0D01*
G01*
X142245000Y-103260000D02*
G75*
G02*
X141433000Y-103260000I-406000J0D01*
G01*
X141433000Y-103260000D02*
G75*
G02*
X142245000Y-103260000I406000J0D01*
G01*
X142245000Y-100720000D02*
G75*
G02*
X141433000Y-100720000I-406000J0D01*
G01*
X141433000Y-100720000D02*
G75*
G02*
X142245000Y-100720000I406000J0D01*
G01*
X142245000Y-113420000D02*
G75*
G02*
X141433000Y-113420000I-406000J0D01*
G01*
X141433000Y-113420000D02*
G75*
G02*
X142245000Y-113420000I406000J0D01*
G01*
X142245000Y-115960000D02*
G75*
G02*
X141433000Y-115960000I-406000J0D01*
G01*
X141433000Y-115960000D02*
G75*
G02*
X142245000Y-115960000I406000J0D01*
G01*
X142245000Y-121040000D02*
G75*
G02*
X141433000Y-121040000I-406000J0D01*
G01*
X141433000Y-121040000D02*
G75*
G02*
X142245000Y-121040000I406000J0D01*
G01*
X142245000Y-126120000D02*
G75*
G02*
X141433000Y-126120000I-406000J0D01*
G01*
X141433000Y-126120000D02*
G75*
G02*
X142245000Y-126120000I406000J0D01*
G01*
X142245000Y-131200000D02*
G75*
G02*
X141433000Y-131200000I-406000J0D01*
G01*
X141433000Y-131200000D02*
G75*
G02*
X142245000Y-131200000I406000J0D01*
G01*
X154945000Y-131200000D02*
G75*
G02*
X154133000Y-131200000I-406000J0D01*
G01*
X154133000Y-131200000D02*
G75*
G02*
X154945000Y-131200000I406000J0D01*
G01*
X154945000Y-123580000D02*
G75*
G02*
X154133000Y-123580000I-406000J0D01*
G01*
X154133000Y-123580000D02*
G75*
G02*
X154945000Y-123580000I406000J0D01*
G01*
X165105000Y-128660000D02*
G75*
G02*
X164293000Y-128660000I-406000J0D01*
G01*
X164293000Y-128660000D02*
G75*
G02*
X165105000Y-128660000I406000J0D01*
G01*
X165105000Y-113420000D02*
G75*
G02*
X164293000Y-113420000I-406000J0D01*
G01*
X164293000Y-113420000D02*
G75*
G02*
X165105000Y-113420000I406000J0D01*
G01*
X142245000Y-128660000D02*
G75*
G02*
X141433000Y-128660000I-406000J0D01*
G01*
X141433000Y-128660000D02*
G75*
G02*
X142245000Y-128660000I406000J0D01*
G01*
X165105000Y-118500000D02*
G75*
G02*
X164293000Y-118500000I-406000J0D01*
G01*
X164293000Y-118500000D02*
G75*
G02*
X165105000Y-118500000I406000J0D01*
G01*
X142245000Y-133740000D02*
G75*
G02*
X141433000Y-133740000I-406000J0D01*
G01*
X141433000Y-133740000D02*
G75*
G02*
X142245000Y-133740000I406000J0D01*
G01*
X154945000Y-128660000D02*
G75*
G02*
X154133000Y-128660000I-406000J0D01*
G01*
X154133000Y-128660000D02*
G75*
G02*
X154945000Y-128660000I406000J0D01*
G01*
X154945000Y-126120000D02*
G75*
G02*
X154133000Y-126120000I-406000J0D01*
G01*
X154133000Y-126120000D02*
G75*
G02*
X154945000Y-126120000I406000J0D01*
G01*
X165105000Y-110880000D02*
G75*
G02*
X164293000Y-110880000I-406000J0D01*
G01*
X164293000Y-110880000D02*
G75*
G02*
X165105000Y-110880000I406000J0D01*
G01*
X165105000Y-126120000D02*
G75*
G02*
X164293000Y-126120000I-406000J0D01*
G01*
X164293000Y-126120000D02*
G75*
G02*
X165105000Y-126120000I406000J0D01*
G01*
X165105000Y-105800000D02*
G75*
G02*
X164293000Y-105800000I-406000J0D01*
G01*
X164293000Y-105800000D02*
G75*
G02*
X165105000Y-105800000I406000J0D01*
G01*
X165105000Y-100720000D02*
G75*
G02*
X164293000Y-100720000I-406000J0D01*
G01*
X164293000Y-100720000D02*
G75*
G02*
X165105000Y-100720000I406000J0D01*
G01*
X165105000Y-121040000D02*
G75*
G02*
X164293000Y-121040000I-406000J0D01*
G01*
X164293000Y-121040000D02*
G75*
G02*
X165105000Y-121040000I406000J0D01*
G01*
X165105000Y-131200000D02*
G75*
G02*
X164293000Y-131200000I-406000J0D01*
G01*
X164293000Y-131200000D02*
G75*
G02*
X165105000Y-131200000I406000J0D01*
G01*
X142245000Y-118500000D02*
G75*
G02*
X141433000Y-118500000I-406000J0D01*
G01*
X141433000Y-118500000D02*
G75*
G02*
X142245000Y-118500000I406000J0D01*
G01*
X142245000Y-123580000D02*
G75*
G02*
X141433000Y-123580000I-406000J0D01*
G01*
X141433000Y-123580000D02*
G75*
G02*
X142245000Y-123580000I406000J0D01*
G01*
X165105000Y-103260000D02*
G75*
G02*
X164293000Y-103260000I-406000J0D01*
G01*
X164293000Y-103260000D02*
G75*
G02*
X165105000Y-103260000I406000J0D01*
G01*
X165105000Y-115960000D02*
G75*
G02*
X164293000Y-115960000I-406000J0D01*
G01*
X164293000Y-115960000D02*
G75*
G02*
X165105000Y-115960000I406000J0D01*
G01*
X165105000Y-133740000D02*
G75*
G02*
X164293000Y-133740000I-406000J0D01*
G01*
X164293000Y-133740000D02*
G75*
G02*
X165105000Y-133740000I406000J0D01*
G01*
X165105000Y-123580000D02*
G75*
G02*
X164293000Y-123580000I-406000J0D01*
G01*
X164293000Y-123580000D02*
G75*
G02*
X165105000Y-123580000I406000J0D01*
G01*
X165105000Y-108340000D02*
G75*
G02*
X164293000Y-108340000I-406000J0D01*
G01*
X164293000Y-108340000D02*
G75*
G02*
X165105000Y-108340000I406000J0D01*
G01*
X116845000Y-110880000D02*
G75*
G02*
X116033000Y-110880000I-406000J0D01*
G01*
X116033000Y-110880000D02*
G75*
G02*
X116845000Y-110880000I406000J0D01*
G01*
X116845000Y-108340000D02*
G75*
G02*
X116033000Y-108340000I-406000J0D01*
G01*
X116033000Y-108340000D02*
G75*
G02*
X116845000Y-108340000I406000J0D01*
G01*
X116845000Y-105800000D02*
G75*
G02*
X116033000Y-105800000I-406000J0D01*
G01*
X116033000Y-105800000D02*
G75*
G02*
X116845000Y-105800000I406000J0D01*
G01*
X116845000Y-103260000D02*
G75*
G02*
X116033000Y-103260000I-406000J0D01*
G01*
X116033000Y-103260000D02*
G75*
G02*
X116845000Y-103260000I406000J0D01*
G01*
X116845000Y-100720000D02*
G75*
G02*
X116033000Y-100720000I-406000J0D01*
G01*
X116033000Y-100720000D02*
G75*
G02*
X116845000Y-100720000I406000J0D01*
G01*
X116845000Y-113420000D02*
G75*
G02*
X116033000Y-113420000I-406000J0D01*
G01*
X116033000Y-113420000D02*
G75*
G02*
X116845000Y-113420000I406000J0D01*
G01*
X116845000Y-115960000D02*
G75*
G02*
X116033000Y-115960000I-406000J0D01*
G01*
X116033000Y-115960000D02*
G75*
G02*
X116845000Y-115960000I406000J0D01*
G01*
X116845000Y-121040000D02*
G75*
G02*
X116033000Y-121040000I-406000J0D01*
G01*
X116033000Y-121040000D02*
G75*
G02*
X116845000Y-121040000I406000J0D01*
G01*
X116845000Y-126120000D02*
G75*
G02*
X116033000Y-126120000I-406000J0D01*
G01*
X116033000Y-126120000D02*
G75*
G02*
X116845000Y-126120000I406000J0D01*
G01*
X116845000Y-131200000D02*
G75*
G02*
X116033000Y-131200000I-406000J0D01*
G01*
X116033000Y-131200000D02*
G75*
G02*
X116845000Y-131200000I406000J0D01*
G01*
X129545000Y-131200000D02*
G75*
G02*
X128733000Y-131200000I-406000J0D01*
G01*
X128733000Y-131200000D02*
G75*
G02*
X129545000Y-131200000I406000J0D01*
G01*
X129545000Y-123580000D02*
G75*
G02*
X128733000Y-123580000I-406000J0D01*
G01*
X128733000Y-123580000D02*
G75*
G02*
X129545000Y-123580000I406000J0D01*
G01*
X139705000Y-128660000D02*
G75*
G02*
X138893000Y-128660000I-406000J0D01*
G01*
X138893000Y-128660000D02*
G75*
G02*
X139705000Y-128660000I406000J0D01*
G01*
X139705000Y-113420000D02*
G75*
G02*
X138893000Y-113420000I-406000J0D01*
G01*
X138893000Y-113420000D02*
G75*
G02*
X139705000Y-113420000I406000J0D01*
G01*
X116845000Y-128660000D02*
G75*
G02*
X116033000Y-128660000I-406000J0D01*
G01*
X116033000Y-128660000D02*
G75*
G02*
X116845000Y-128660000I406000J0D01*
G01*
X139705000Y-118500000D02*
G75*
G02*
X138893000Y-118500000I-406000J0D01*
G01*
X138893000Y-118500000D02*
G75*
G02*
X139705000Y-118500000I406000J0D01*
G01*
X116845000Y-133740000D02*
G75*
G02*
X116033000Y-133740000I-406000J0D01*
G01*
X116033000Y-133740000D02*
G75*
G02*
X116845000Y-133740000I406000J0D01*
G01*
X129545000Y-128660000D02*
G75*
G02*
X128733000Y-128660000I-406000J0D01*
G01*
X128733000Y-128660000D02*
G75*
G02*
X129545000Y-128660000I406000J0D01*
G01*
X129545000Y-126120000D02*
G75*
G02*
X128733000Y-126120000I-406000J0D01*
G01*
X128733000Y-126120000D02*
G75*
G02*
X129545000Y-126120000I406000J0D01*
G01*
X139705000Y-110880000D02*
G75*
G02*
X138893000Y-110880000I-406000J0D01*
G01*
X138893000Y-110880000D02*
G75*
G02*
X139705000Y-110880000I406000J0D01*
G01*
X139705000Y-126120000D02*
G75*
G02*
X138893000Y-126120000I-406000J0D01*
G01*
X138893000Y-126120000D02*
G75*
G02*
X139705000Y-126120000I406000J0D01*
G01*
X139705000Y-105800000D02*
G75*
G02*
X138893000Y-105800000I-406000J0D01*
G01*
X138893000Y-105800000D02*
G75*
G02*
X139705000Y-105800000I406000J0D01*
G01*
X139705000Y-100720000D02*
G75*
G02*
X138893000Y-100720000I-406000J0D01*
G01*
X138893000Y-100720000D02*
G75*
G02*
X139705000Y-100720000I406000J0D01*
G01*
X139705000Y-121040000D02*
G75*
G02*
X138893000Y-121040000I-406000J0D01*
G01*
X138893000Y-121040000D02*
G75*
G02*
X139705000Y-121040000I406000J0D01*
G01*
X139705000Y-131200000D02*
G75*
G02*
X138893000Y-131200000I-406000J0D01*
G01*
X138893000Y-131200000D02*
G75*
G02*
X139705000Y-131200000I406000J0D01*
G01*
X116845000Y-118500000D02*
G75*
G02*
X116033000Y-118500000I-406000J0D01*
G01*
X116033000Y-118500000D02*
G75*
G02*
X116845000Y-118500000I406000J0D01*
G01*
X116845000Y-123580000D02*
G75*
G02*
X116033000Y-123580000I-406000J0D01*
G01*
X116033000Y-123580000D02*
G75*
G02*
X116845000Y-123580000I406000J0D01*
G01*
X139705000Y-103260000D02*
G75*
G02*
X138893000Y-103260000I-406000J0D01*
G01*
X138893000Y-103260000D02*
G75*
G02*
X139705000Y-103260000I406000J0D01*
G01*
X139705000Y-115960000D02*
G75*
G02*
X138893000Y-115960000I-406000J0D01*
G01*
X138893000Y-115960000D02*
G75*
G02*
X139705000Y-115960000I406000J0D01*
G01*
X139705000Y-133740000D02*
G75*
G02*
X138893000Y-133740000I-406000J0D01*
G01*
X138893000Y-133740000D02*
G75*
G02*
X139705000Y-133740000I406000J0D01*
G01*
X139705000Y-123580000D02*
G75*
G02*
X138893000Y-123580000I-406000J0D01*
G01*
X138893000Y-123580000D02*
G75*
G02*
X139705000Y-123580000I406000J0D01*
G01*
X139705000Y-108340000D02*
G75*
G02*
X138893000Y-108340000I-406000J0D01*
G01*
X138893000Y-108340000D02*
G75*
G02*
X139705000Y-108340000I406000J0D01*
G01*
X167645000Y-75320000D02*
G75*
G02*
X166833000Y-75320000I-406000J0D01*
G01*
X166833000Y-75320000D02*
G75*
G02*
X167645000Y-75320000I406000J0D01*
G01*
X167645000Y-72780000D02*
G75*
G02*
X166833000Y-72780000I-406000J0D01*
G01*
X166833000Y-72780000D02*
G75*
G02*
X167645000Y-72780000I406000J0D01*
G01*
X167645000Y-70240000D02*
G75*
G02*
X166833000Y-70240000I-406000J0D01*
G01*
X166833000Y-70240000D02*
G75*
G02*
X167645000Y-70240000I406000J0D01*
G01*
X167645000Y-67700000D02*
G75*
G02*
X166833000Y-67700000I-406000J0D01*
G01*
X166833000Y-67700000D02*
G75*
G02*
X167645000Y-67700000I406000J0D01*
G01*
X167645000Y-65160000D02*
G75*
G02*
X166833000Y-65160000I-406000J0D01*
G01*
X166833000Y-65160000D02*
G75*
G02*
X167645000Y-65160000I406000J0D01*
G01*
X167645000Y-77860000D02*
G75*
G02*
X166833000Y-77860000I-406000J0D01*
G01*
X166833000Y-77860000D02*
G75*
G02*
X167645000Y-77860000I406000J0D01*
G01*
X167645000Y-80400000D02*
G75*
G02*
X166833000Y-80400000I-406000J0D01*
G01*
X166833000Y-80400000D02*
G75*
G02*
X167645000Y-80400000I406000J0D01*
G01*
X167645000Y-85480000D02*
G75*
G02*
X166833000Y-85480000I-406000J0D01*
G01*
X166833000Y-85480000D02*
G75*
G02*
X167645000Y-85480000I406000J0D01*
G01*
X167645000Y-90560000D02*
G75*
G02*
X166833000Y-90560000I-406000J0D01*
G01*
X166833000Y-90560000D02*
G75*
G02*
X167645000Y-90560000I406000J0D01*
G01*
X167645000Y-95640000D02*
G75*
G02*
X166833000Y-95640000I-406000J0D01*
G01*
X166833000Y-95640000D02*
G75*
G02*
X167645000Y-95640000I406000J0D01*
G01*
X180345000Y-95640000D02*
G75*
G02*
X179533000Y-95640000I-406000J0D01*
G01*
X179533000Y-95640000D02*
G75*
G02*
X180345000Y-95640000I406000J0D01*
G01*
X180345000Y-88020000D02*
G75*
G02*
X179533000Y-88020000I-406000J0D01*
G01*
X179533000Y-88020000D02*
G75*
G02*
X180345000Y-88020000I406000J0D01*
G01*
X190505000Y-93100000D02*
G75*
G02*
X189693000Y-93100000I-406000J0D01*
G01*
X189693000Y-93100000D02*
G75*
G02*
X190505000Y-93100000I406000J0D01*
G01*
X190505000Y-77860000D02*
G75*
G02*
X189693000Y-77860000I-406000J0D01*
G01*
X189693000Y-77860000D02*
G75*
G02*
X190505000Y-77860000I406000J0D01*
G01*
X167645000Y-93100000D02*
G75*
G02*
X166833000Y-93100000I-406000J0D01*
G01*
X166833000Y-93100000D02*
G75*
G02*
X167645000Y-93100000I406000J0D01*
G01*
X190505000Y-82940000D02*
G75*
G02*
X189693000Y-82940000I-406000J0D01*
G01*
X189693000Y-82940000D02*
G75*
G02*
X190505000Y-82940000I406000J0D01*
G01*
X167645000Y-98180000D02*
G75*
G02*
X166833000Y-98180000I-406000J0D01*
G01*
X166833000Y-98180000D02*
G75*
G02*
X167645000Y-98180000I406000J0D01*
G01*
X180345000Y-93100000D02*
G75*
G02*
X179533000Y-93100000I-406000J0D01*
G01*
X179533000Y-93100000D02*
G75*
G02*
X180345000Y-93100000I406000J0D01*
G01*
X180345000Y-90560000D02*
G75*
G02*
X179533000Y-90560000I-406000J0D01*
G01*
X179533000Y-90560000D02*
G75*
G02*
X180345000Y-90560000I406000J0D01*
G01*
X190505000Y-75320000D02*
G75*
G02*
X189693000Y-75320000I-406000J0D01*
G01*
X189693000Y-75320000D02*
G75*
G02*
X190505000Y-75320000I406000J0D01*
G01*
X190505000Y-90560000D02*
G75*
G02*
X189693000Y-90560000I-406000J0D01*
G01*
X189693000Y-90560000D02*
G75*
G02*
X190505000Y-90560000I406000J0D01*
G01*
X190505000Y-70240000D02*
G75*
G02*
X189693000Y-70240000I-406000J0D01*
G01*
X189693000Y-70240000D02*
G75*
G02*
X190505000Y-70240000I406000J0D01*
G01*
X190505000Y-65160000D02*
G75*
G02*
X189693000Y-65160000I-406000J0D01*
G01*
X189693000Y-65160000D02*
G75*
G02*
X190505000Y-65160000I406000J0D01*
G01*
X190505000Y-85480000D02*
G75*
G02*
X189693000Y-85480000I-406000J0D01*
G01*
X189693000Y-85480000D02*
G75*
G02*
X190505000Y-85480000I406000J0D01*
G01*
X190505000Y-95640000D02*
G75*
G02*
X189693000Y-95640000I-406000J0D01*
G01*
X189693000Y-95640000D02*
G75*
G02*
X190505000Y-95640000I406000J0D01*
G01*
X167645000Y-82940000D02*
G75*
G02*
X166833000Y-82940000I-406000J0D01*
G01*
X166833000Y-82940000D02*
G75*
G02*
X167645000Y-82940000I406000J0D01*
G01*
X167645000Y-88020000D02*
G75*
G02*
X166833000Y-88020000I-406000J0D01*
G01*
X166833000Y-88020000D02*
G75*
G02*
X167645000Y-88020000I406000J0D01*
G01*
X190505000Y-67700000D02*
G75*
G02*
X189693000Y-67700000I-406000J0D01*
G01*
X189693000Y-67700000D02*
G75*
G02*
X190505000Y-67700000I406000J0D01*
G01*
X190505000Y-80400000D02*
G75*
G02*
X189693000Y-80400000I-406000J0D01*
G01*
X189693000Y-80400000D02*
G75*
G02*
X190505000Y-80400000I406000J0D01*
G01*
X190505000Y-98180000D02*
G75*
G02*
X189693000Y-98180000I-406000J0D01*
G01*
X189693000Y-98180000D02*
G75*
G02*
X190505000Y-98180000I406000J0D01*
G01*
X190505000Y-88020000D02*
G75*
G02*
X189693000Y-88020000I-406000J0D01*
G01*
X189693000Y-88020000D02*
G75*
G02*
X190505000Y-88020000I406000J0D01*
G01*
X190505000Y-72780000D02*
G75*
G02*
X189693000Y-72780000I-406000J0D01*
G01*
X189693000Y-72780000D02*
G75*
G02*
X190505000Y-72780000I406000J0D01*
G01*
X142245000Y-75320000D02*
G75*
G02*
X141433000Y-75320000I-406000J0D01*
G01*
X141433000Y-75320000D02*
G75*
G02*
X142245000Y-75320000I406000J0D01*
G01*
X142245000Y-72780000D02*
G75*
G02*
X141433000Y-72780000I-406000J0D01*
G01*
X141433000Y-72780000D02*
G75*
G02*
X142245000Y-72780000I406000J0D01*
G01*
X142245000Y-70240000D02*
G75*
G02*
X141433000Y-70240000I-406000J0D01*
G01*
X141433000Y-70240000D02*
G75*
G02*
X142245000Y-70240000I406000J0D01*
G01*
X142245000Y-67700000D02*
G75*
G02*
X141433000Y-67700000I-406000J0D01*
G01*
X141433000Y-67700000D02*
G75*
G02*
X142245000Y-67700000I406000J0D01*
G01*
X142245000Y-65160000D02*
G75*
G02*
X141433000Y-65160000I-406000J0D01*
G01*
X141433000Y-65160000D02*
G75*
G02*
X142245000Y-65160000I406000J0D01*
G01*
X142245000Y-77860000D02*
G75*
G02*
X141433000Y-77860000I-406000J0D01*
G01*
X141433000Y-77860000D02*
G75*
G02*
X142245000Y-77860000I406000J0D01*
G01*
X142245000Y-80400000D02*
G75*
G02*
X141433000Y-80400000I-406000J0D01*
G01*
X141433000Y-80400000D02*
G75*
G02*
X142245000Y-80400000I406000J0D01*
G01*
X142245000Y-85480000D02*
G75*
G02*
X141433000Y-85480000I-406000J0D01*
G01*
X141433000Y-85480000D02*
G75*
G02*
X142245000Y-85480000I406000J0D01*
G01*
X142245000Y-90560000D02*
G75*
G02*
X141433000Y-90560000I-406000J0D01*
G01*
X141433000Y-90560000D02*
G75*
G02*
X142245000Y-90560000I406000J0D01*
G01*
X142245000Y-95640000D02*
G75*
G02*
X141433000Y-95640000I-406000J0D01*
G01*
X141433000Y-95640000D02*
G75*
G02*
X142245000Y-95640000I406000J0D01*
G01*
X154945000Y-95640000D02*
G75*
G02*
X154133000Y-95640000I-406000J0D01*
G01*
X154133000Y-95640000D02*
G75*
G02*
X154945000Y-95640000I406000J0D01*
G01*
X154945000Y-88020000D02*
G75*
G02*
X154133000Y-88020000I-406000J0D01*
G01*
X154133000Y-88020000D02*
G75*
G02*
X154945000Y-88020000I406000J0D01*
G01*
X165105000Y-93100000D02*
G75*
G02*
X164293000Y-93100000I-406000J0D01*
G01*
X164293000Y-93100000D02*
G75*
G02*
X165105000Y-93100000I406000J0D01*
G01*
X165105000Y-77860000D02*
G75*
G02*
X164293000Y-77860000I-406000J0D01*
G01*
X164293000Y-77860000D02*
G75*
G02*
X165105000Y-77860000I406000J0D01*
G01*
X142245000Y-93100000D02*
G75*
G02*
X141433000Y-93100000I-406000J0D01*
G01*
X141433000Y-93100000D02*
G75*
G02*
X142245000Y-93100000I406000J0D01*
G01*
X165105000Y-82940000D02*
G75*
G02*
X164293000Y-82940000I-406000J0D01*
G01*
X164293000Y-82940000D02*
G75*
G02*
X165105000Y-82940000I406000J0D01*
G01*
X142245000Y-98180000D02*
G75*
G02*
X141433000Y-98180000I-406000J0D01*
G01*
X141433000Y-98180000D02*
G75*
G02*
X142245000Y-98180000I406000J0D01*
G01*
X154945000Y-93100000D02*
G75*
G02*
X154133000Y-93100000I-406000J0D01*
G01*
X154133000Y-93100000D02*
G75*
G02*
X154945000Y-93100000I406000J0D01*
G01*
X154945000Y-90560000D02*
G75*
G02*
X154133000Y-90560000I-406000J0D01*
G01*
X154133000Y-90560000D02*
G75*
G02*
X154945000Y-90560000I406000J0D01*
G01*
X165105000Y-75320000D02*
G75*
G02*
X164293000Y-75320000I-406000J0D01*
G01*
X164293000Y-75320000D02*
G75*
G02*
X165105000Y-75320000I406000J0D01*
G01*
X165105000Y-90560000D02*
G75*
G02*
X164293000Y-90560000I-406000J0D01*
G01*
X164293000Y-90560000D02*
G75*
G02*
X165105000Y-90560000I406000J0D01*
G01*
X165105000Y-70240000D02*
G75*
G02*
X164293000Y-70240000I-406000J0D01*
G01*
X164293000Y-70240000D02*
G75*
G02*
X165105000Y-70240000I406000J0D01*
G01*
X165105000Y-65160000D02*
G75*
G02*
X164293000Y-65160000I-406000J0D01*
G01*
X164293000Y-65160000D02*
G75*
G02*
X165105000Y-65160000I406000J0D01*
G01*
X165105000Y-85480000D02*
G75*
G02*
X164293000Y-85480000I-406000J0D01*
G01*
X164293000Y-85480000D02*
G75*
G02*
X165105000Y-85480000I406000J0D01*
G01*
X165105000Y-95640000D02*
G75*
G02*
X164293000Y-95640000I-406000J0D01*
G01*
X164293000Y-95640000D02*
G75*
G02*
X165105000Y-95640000I406000J0D01*
G01*
X142245000Y-82940000D02*
G75*
G02*
X141433000Y-82940000I-406000J0D01*
G01*
X141433000Y-82940000D02*
G75*
G02*
X142245000Y-82940000I406000J0D01*
G01*
X142245000Y-88020000D02*
G75*
G02*
X141433000Y-88020000I-406000J0D01*
G01*
X141433000Y-88020000D02*
G75*
G02*
X142245000Y-88020000I406000J0D01*
G01*
X165105000Y-67700000D02*
G75*
G02*
X164293000Y-67700000I-406000J0D01*
G01*
X164293000Y-67700000D02*
G75*
G02*
X165105000Y-67700000I406000J0D01*
G01*
X165105000Y-80400000D02*
G75*
G02*
X164293000Y-80400000I-406000J0D01*
G01*
X164293000Y-80400000D02*
G75*
G02*
X165105000Y-80400000I406000J0D01*
G01*
X165105000Y-98180000D02*
G75*
G02*
X164293000Y-98180000I-406000J0D01*
G01*
X164293000Y-98180000D02*
G75*
G02*
X165105000Y-98180000I406000J0D01*
G01*
X165105000Y-88020000D02*
G75*
G02*
X164293000Y-88020000I-406000J0D01*
G01*
X164293000Y-88020000D02*
G75*
G02*
X165105000Y-88020000I406000J0D01*
G01*
X165105000Y-72780000D02*
G75*
G02*
X164293000Y-72780000I-406000J0D01*
G01*
X164293000Y-72780000D02*
G75*
G02*
X165105000Y-72780000I406000J0D01*
G01*
X116845000Y-75320000D02*
G75*
G02*
X116033000Y-75320000I-406000J0D01*
G01*
X116033000Y-75320000D02*
G75*
G02*
X116845000Y-75320000I406000J0D01*
G01*
X116845000Y-72780000D02*
G75*
G02*
X116033000Y-72780000I-406000J0D01*
G01*
X116033000Y-72780000D02*
G75*
G02*
X116845000Y-72780000I406000J0D01*
G01*
X116845000Y-70240000D02*
G75*
G02*
X116033000Y-70240000I-406000J0D01*
G01*
X116033000Y-70240000D02*
G75*
G02*
X116845000Y-70240000I406000J0D01*
G01*
X116845000Y-67700000D02*
G75*
G02*
X116033000Y-67700000I-406000J0D01*
G01*
X116033000Y-67700000D02*
G75*
G02*
X116845000Y-67700000I406000J0D01*
G01*
X116845000Y-65160000D02*
G75*
G02*
X116033000Y-65160000I-406000J0D01*
G01*
X116033000Y-65160000D02*
G75*
G02*
X116845000Y-65160000I406000J0D01*
G01*
X116845000Y-77860000D02*
G75*
G02*
X116033000Y-77860000I-406000J0D01*
G01*
X116033000Y-77860000D02*
G75*
G02*
X116845000Y-77860000I406000J0D01*
G01*
X116845000Y-80400000D02*
G75*
G02*
X116033000Y-80400000I-406000J0D01*
G01*
X116033000Y-80400000D02*
G75*
G02*
X116845000Y-80400000I406000J0D01*
G01*
X116845000Y-82940000D02*
G75*
G02*
X116033000Y-82940000I-406000J0D01*
G01*
X116033000Y-82940000D02*
G75*
G02*
X116845000Y-82940000I406000J0D01*
G01*
X116845000Y-85480000D02*
G75*
G02*
X116033000Y-85480000I-406000J0D01*
G01*
X116033000Y-85480000D02*
G75*
G02*
X116845000Y-85480000I406000J0D01*
G01*
X116845000Y-88020000D02*
G75*
G02*
X116033000Y-88020000I-406000J0D01*
G01*
X116033000Y-88020000D02*
G75*
G02*
X116845000Y-88020000I406000J0D01*
G01*
X116845000Y-90560000D02*
G75*
G02*
X116033000Y-90560000I-406000J0D01*
G01*
X116033000Y-90560000D02*
G75*
G02*
X116845000Y-90560000I406000J0D01*
G01*
X116845000Y-93100000D02*
G75*
G02*
X116033000Y-93100000I-406000J0D01*
G01*
X116033000Y-93100000D02*
G75*
G02*
X116845000Y-93100000I406000J0D01*
G01*
X116845000Y-95640000D02*
G75*
G02*
X116033000Y-95640000I-406000J0D01*
G01*
X116033000Y-95640000D02*
G75*
G02*
X116845000Y-95640000I406000J0D01*
G01*
X116845000Y-98180000D02*
G75*
G02*
X116033000Y-98180000I-406000J0D01*
G01*
X116033000Y-98180000D02*
G75*
G02*
X116845000Y-98180000I406000J0D01*
G01*
X129545000Y-95640000D02*
G75*
G02*
X128733000Y-95640000I-406000J0D01*
G01*
X128733000Y-95640000D02*
G75*
G02*
X129545000Y-95640000I406000J0D01*
G01*
X129545000Y-93100000D02*
G75*
G02*
X128733000Y-93100000I-406000J0D01*
G01*
X128733000Y-93100000D02*
G75*
G02*
X129545000Y-93100000I406000J0D01*
G01*
X129545000Y-90560000D02*
G75*
G02*
X128733000Y-90560000I-406000J0D01*
G01*
X128733000Y-90560000D02*
G75*
G02*
X129545000Y-90560000I406000J0D01*
G01*
X129545000Y-88020000D02*
G75*
G02*
X128733000Y-88020000I-406000J0D01*
G01*
X128733000Y-88020000D02*
G75*
G02*
X129545000Y-88020000I406000J0D01*
G01*
X139705000Y-98180000D02*
G75*
G02*
X138893000Y-98180000I-406000J0D01*
G01*
X138893000Y-98180000D02*
G75*
G02*
X139705000Y-98180000I406000J0D01*
G01*
X139705000Y-95640000D02*
G75*
G02*
X138893000Y-95640000I-406000J0D01*
G01*
X138893000Y-95640000D02*
G75*
G02*
X139705000Y-95640000I406000J0D01*
G01*
X139705000Y-93100000D02*
G75*
G02*
X138893000Y-93100000I-406000J0D01*
G01*
X138893000Y-93100000D02*
G75*
G02*
X139705000Y-93100000I406000J0D01*
G01*
X139705000Y-90560000D02*
G75*
G02*
X138893000Y-90560000I-406000J0D01*
G01*
X138893000Y-90560000D02*
G75*
G02*
X139705000Y-90560000I406000J0D01*
G01*
X139705000Y-88020000D02*
G75*
G02*
X138893000Y-88020000I-406000J0D01*
G01*
X138893000Y-88020000D02*
G75*
G02*
X139705000Y-88020000I406000J0D01*
G01*
X139705000Y-85480000D02*
G75*
G02*
X138893000Y-85480000I-406000J0D01*
G01*
X138893000Y-85480000D02*
G75*
G02*
X139705000Y-85480000I406000J0D01*
G01*
X139705000Y-82940000D02*
G75*
G02*
X138893000Y-82940000I-406000J0D01*
G01*
X138893000Y-82940000D02*
G75*
G02*
X139705000Y-82940000I406000J0D01*
G01*
X139705000Y-80400000D02*
G75*
G02*
X138893000Y-80400000I-406000J0D01*
G01*
X138893000Y-80400000D02*
G75*
G02*
X139705000Y-80400000I406000J0D01*
G01*
X139705000Y-77860000D02*
G75*
G02*
X138893000Y-77860000I-406000J0D01*
G01*
X138893000Y-77860000D02*
G75*
G02*
X139705000Y-77860000I406000J0D01*
G01*
X139705000Y-75320000D02*
G75*
G02*
X138893000Y-75320000I-406000J0D01*
G01*
X138893000Y-75320000D02*
G75*
G02*
X139705000Y-75320000I406000J0D01*
G01*
X139705000Y-72780000D02*
G75*
G02*
X138893000Y-72780000I-406000J0D01*
G01*
X138893000Y-72780000D02*
G75*
G02*
X139705000Y-72780000I406000J0D01*
G01*
X139705000Y-70240000D02*
G75*
G02*
X138893000Y-70240000I-406000J0D01*
G01*
X138893000Y-70240000D02*
G75*
G02*
X139705000Y-70240000I406000J0D01*
G01*
X139705000Y-67700000D02*
G75*
G02*
X138893000Y-67700000I-406000J0D01*
G01*
X138893000Y-67700000D02*
G75*
G02*
X139705000Y-67700000I406000J0D01*
G01*
X139705000Y-65160000D02*
G75*
G02*
X138893000Y-65160000I-406000J0D01*
G01*
X138893000Y-65160000D02*
G75*
G02*
X139705000Y-65160000I406000J0D01*
G01*
D11*
X174605000Y-121580000D03*
X174605000Y-123580000D03*
D12*
X178414000Y-108066000D03*
X178414000Y-106816000D03*
X178414000Y-105566000D03*
X177164000Y-108066000D03*
X177164000Y-106816000D03*
X177164000Y-105566000D03*
X175914000Y-108066000D03*
X175914000Y-106816000D03*
X175914000Y-105566000D03*
D13*
X187419000Y-101096000D03*
X187419000Y-102366000D03*
X187419000Y-103636000D03*
X187419000Y-104906000D03*
X187419000Y-106176000D03*
X187419000Y-107446000D03*
X187419000Y-108716000D03*
X187419000Y-109986000D03*
X187419000Y-111256000D03*
X187419000Y-112526000D03*
X187419000Y-113796000D03*
X187419000Y-115066000D03*
X187419000Y-116336000D03*
X187419000Y-117606000D03*
X169919000Y-117606000D03*
X169919000Y-116336000D03*
X169919000Y-115066000D03*
X169919000Y-113796000D03*
X169919000Y-112526000D03*
X169919000Y-111256000D03*
X169919000Y-109986000D03*
X169919000Y-108716000D03*
X169919000Y-107446000D03*
X169919000Y-106176000D03*
X169919000Y-104906000D03*
X169919000Y-103636000D03*
X169919000Y-102366000D03*
X169919000Y-101096000D03*
D11*
X149205000Y-121580000D03*
X149205000Y-123580000D03*
D12*
X153014000Y-108066000D03*
X153014000Y-106816000D03*
X153014000Y-105566000D03*
X151764000Y-108066000D03*
X151764000Y-106816000D03*
X151764000Y-105566000D03*
X150514000Y-108066000D03*
X150514000Y-106816000D03*
X150514000Y-105566000D03*
D13*
X162019000Y-101096000D03*
X162019000Y-102366000D03*
X162019000Y-103636000D03*
X162019000Y-104906000D03*
X162019000Y-106176000D03*
X162019000Y-107446000D03*
X162019000Y-108716000D03*
X162019000Y-109986000D03*
X162019000Y-111256000D03*
X162019000Y-112526000D03*
X162019000Y-113796000D03*
X162019000Y-115066000D03*
X162019000Y-116336000D03*
X162019000Y-117606000D03*
X144519000Y-117606000D03*
X144519000Y-116336000D03*
X144519000Y-115066000D03*
X144519000Y-113796000D03*
X144519000Y-112526000D03*
X144519000Y-111256000D03*
X144519000Y-109986000D03*
X144519000Y-108716000D03*
X144519000Y-107446000D03*
X144519000Y-106176000D03*
X144519000Y-104906000D03*
X144519000Y-103636000D03*
X144519000Y-102366000D03*
X144519000Y-101096000D03*
D11*
X123805000Y-121580000D03*
X123805000Y-123580000D03*
D12*
X127614000Y-108066000D03*
X127614000Y-106816000D03*
X127614000Y-105566000D03*
X126364000Y-108066000D03*
X126364000Y-106816000D03*
X126364000Y-105566000D03*
X125114000Y-108066000D03*
X125114000Y-106816000D03*
X125114000Y-105566000D03*
D13*
X136619000Y-101096000D03*
X136619000Y-102366000D03*
X136619000Y-103636000D03*
X136619000Y-104906000D03*
X136619000Y-106176000D03*
X136619000Y-107446000D03*
X136619000Y-108716000D03*
X136619000Y-109986000D03*
X136619000Y-111256000D03*
X136619000Y-112526000D03*
X136619000Y-113796000D03*
X136619000Y-115066000D03*
X136619000Y-116336000D03*
X136619000Y-117606000D03*
X119119000Y-117606000D03*
X119119000Y-116336000D03*
X119119000Y-115066000D03*
X119119000Y-113796000D03*
X119119000Y-112526000D03*
X119119000Y-111256000D03*
X119119000Y-109986000D03*
X119119000Y-108716000D03*
X119119000Y-107446000D03*
X119119000Y-106176000D03*
X119119000Y-104906000D03*
X119119000Y-103636000D03*
X119119000Y-102366000D03*
X119119000Y-101096000D03*
D11*
X174605000Y-86020000D03*
X174605000Y-88020000D03*
D12*
X178414000Y-72506000D03*
X178414000Y-71256000D03*
X178414000Y-70006000D03*
X177164000Y-72506000D03*
X177164000Y-71256000D03*
X177164000Y-70006000D03*
X175914000Y-72506000D03*
X175914000Y-71256000D03*
X175914000Y-70006000D03*
D13*
X187419000Y-65536000D03*
X187419000Y-66806000D03*
X187419000Y-68076000D03*
X187419000Y-69346000D03*
X187419000Y-70616000D03*
X187419000Y-71886000D03*
X187419000Y-73156000D03*
X187419000Y-74426000D03*
X187419000Y-75696000D03*
X187419000Y-76966000D03*
X187419000Y-78236000D03*
X187419000Y-79506000D03*
X187419000Y-80776000D03*
X187419000Y-82046000D03*
X169919000Y-82046000D03*
X169919000Y-80776000D03*
X169919000Y-79506000D03*
X169919000Y-78236000D03*
X169919000Y-76966000D03*
X169919000Y-75696000D03*
X169919000Y-74426000D03*
X169919000Y-73156000D03*
X169919000Y-71886000D03*
X169919000Y-70616000D03*
X169919000Y-69346000D03*
X169919000Y-68076000D03*
X169919000Y-66806000D03*
X169919000Y-65536000D03*
D11*
X149205000Y-86020000D03*
X149205000Y-88020000D03*
D12*
X153014000Y-72506000D03*
X153014000Y-71256000D03*
X153014000Y-70006000D03*
X151764000Y-72506000D03*
X151764000Y-71256000D03*
X151764000Y-70006000D03*
X150514000Y-72506000D03*
X150514000Y-71256000D03*
X150514000Y-70006000D03*
D13*
X162019000Y-65536000D03*
X162019000Y-66806000D03*
X162019000Y-68076000D03*
X162019000Y-69346000D03*
X162019000Y-70616000D03*
X162019000Y-71886000D03*
X162019000Y-73156000D03*
X162019000Y-74426000D03*
X162019000Y-75696000D03*
X162019000Y-76966000D03*
X162019000Y-78236000D03*
X162019000Y-79506000D03*
X162019000Y-80776000D03*
X162019000Y-82046000D03*
X144519000Y-82046000D03*
X144519000Y-80776000D03*
X144519000Y-79506000D03*
X144519000Y-78236000D03*
X144519000Y-76966000D03*
X144519000Y-75696000D03*
X144519000Y-74426000D03*
X144519000Y-73156000D03*
X144519000Y-71886000D03*
X144519000Y-70616000D03*
X144519000Y-69346000D03*
X144519000Y-68076000D03*
X144519000Y-66806000D03*
X144519000Y-65536000D03*
D11*
X123805000Y-86020000D03*
X123805000Y-88020000D03*
D12*
X127614000Y-72506000D03*
X127614000Y-71256000D03*
X127614000Y-70006000D03*
X126364000Y-72506000D03*
X126364000Y-71256000D03*
X126364000Y-70006000D03*
X125114000Y-72506000D03*
X125114000Y-71256000D03*
X125114000Y-70006000D03*
D13*
X136619000Y-65536000D03*
X136619000Y-66806000D03*
X136619000Y-68076000D03*
X136619000Y-69346000D03*
X136619000Y-70616000D03*
X136619000Y-71886000D03*
X136619000Y-73156000D03*
X136619000Y-74426000D03*
X136619000Y-75696000D03*
X136619000Y-76966000D03*
X136619000Y-78236000D03*
X136619000Y-79506000D03*
X136619000Y-80776000D03*
X136619000Y-82046000D03*
X119119000Y-82046000D03*
X119119000Y-80776000D03*
X119119000Y-79506000D03*
X119119000Y-78236000D03*
X119119000Y-76966000D03*
X119119000Y-75696000D03*
X119119000Y-74426000D03*
X119119000Y-73156000D03*
X119119000Y-71886000D03*
X119119000Y-70616000D03*
X119119000Y-69346000D03*
X119119000Y-68076000D03*
X119119000Y-66806000D03*
X119119000Y-65536000D03*
M02*
