G04 #@! TF.GenerationSoftware,KiCad,Pcbnew,8.0.2*
G04 #@! TF.CreationDate,2024-09-16T05:24:11+09:00*
G04 #@! TF.ProjectId,ESP32-C6_breakout,45535033-322d-4433-965f-627265616b6f,1.0*
G04 #@! TF.SameCoordinates,Original*
G04 #@! TF.FileFunction,Legend,Top*
G04 #@! TF.FilePolarity,Positive*
%FSLAX46Y46*%
G04 Gerber Fmt 4.6, Leading zero omitted, Abs format (unit mm)*
G04 Created by KiCad (PCBNEW 8.0.2) date 2024-09-16 05:24:11*
%MOMM*%
%LPD*%
G01*
G04 APERTURE LIST*
%ADD10C,0.150000*%
%ADD11C,0.120000*%
G04 APERTURE END LIST*
D10*
X173409819Y-122746666D02*
X172933628Y-123079999D01*
X173409819Y-123318094D02*
X172409819Y-123318094D01*
X172409819Y-123318094D02*
X172409819Y-122937142D01*
X172409819Y-122937142D02*
X172457438Y-122841904D01*
X172457438Y-122841904D02*
X172505057Y-122794285D01*
X172505057Y-122794285D02*
X172600295Y-122746666D01*
X172600295Y-122746666D02*
X172743152Y-122746666D01*
X172743152Y-122746666D02*
X172838390Y-122794285D01*
X172838390Y-122794285D02*
X172886009Y-122841904D01*
X172886009Y-122841904D02*
X172933628Y-122937142D01*
X172933628Y-122937142D02*
X172933628Y-123318094D01*
X172409819Y-121889523D02*
X172409819Y-122079999D01*
X172409819Y-122079999D02*
X172457438Y-122175237D01*
X172457438Y-122175237D02*
X172505057Y-122222856D01*
X172505057Y-122222856D02*
X172647914Y-122318094D01*
X172647914Y-122318094D02*
X172838390Y-122365713D01*
X172838390Y-122365713D02*
X173219342Y-122365713D01*
X173219342Y-122365713D02*
X173314580Y-122318094D01*
X173314580Y-122318094D02*
X173362200Y-122270475D01*
X173362200Y-122270475D02*
X173409819Y-122175237D01*
X173409819Y-122175237D02*
X173409819Y-121984761D01*
X173409819Y-121984761D02*
X173362200Y-121889523D01*
X173362200Y-121889523D02*
X173314580Y-121841904D01*
X173314580Y-121841904D02*
X173219342Y-121794285D01*
X173219342Y-121794285D02*
X172981247Y-121794285D01*
X172981247Y-121794285D02*
X172886009Y-121841904D01*
X172886009Y-121841904D02*
X172838390Y-121889523D01*
X172838390Y-121889523D02*
X172790771Y-121984761D01*
X172790771Y-121984761D02*
X172790771Y-122175237D01*
X172790771Y-122175237D02*
X172838390Y-122270475D01*
X172838390Y-122270475D02*
X172886009Y-122318094D01*
X172886009Y-122318094D02*
X172981247Y-122365713D01*
X174930905Y-103191009D02*
X175264238Y-103191009D01*
X175407095Y-103714819D02*
X174930905Y-103714819D01*
X174930905Y-103714819D02*
X174930905Y-102714819D01*
X174930905Y-102714819D02*
X175407095Y-102714819D01*
X175788048Y-103667200D02*
X175930905Y-103714819D01*
X175930905Y-103714819D02*
X176169000Y-103714819D01*
X176169000Y-103714819D02*
X176264238Y-103667200D01*
X176264238Y-103667200D02*
X176311857Y-103619580D01*
X176311857Y-103619580D02*
X176359476Y-103524342D01*
X176359476Y-103524342D02*
X176359476Y-103429104D01*
X176359476Y-103429104D02*
X176311857Y-103333866D01*
X176311857Y-103333866D02*
X176264238Y-103286247D01*
X176264238Y-103286247D02*
X176169000Y-103238628D01*
X176169000Y-103238628D02*
X175978524Y-103191009D01*
X175978524Y-103191009D02*
X175883286Y-103143390D01*
X175883286Y-103143390D02*
X175835667Y-103095771D01*
X175835667Y-103095771D02*
X175788048Y-103000533D01*
X175788048Y-103000533D02*
X175788048Y-102905295D01*
X175788048Y-102905295D02*
X175835667Y-102810057D01*
X175835667Y-102810057D02*
X175883286Y-102762438D01*
X175883286Y-102762438D02*
X175978524Y-102714819D01*
X175978524Y-102714819D02*
X176216619Y-102714819D01*
X176216619Y-102714819D02*
X176359476Y-102762438D01*
X176788048Y-103714819D02*
X176788048Y-102714819D01*
X176788048Y-102714819D02*
X177169000Y-102714819D01*
X177169000Y-102714819D02*
X177264238Y-102762438D01*
X177264238Y-102762438D02*
X177311857Y-102810057D01*
X177311857Y-102810057D02*
X177359476Y-102905295D01*
X177359476Y-102905295D02*
X177359476Y-103048152D01*
X177359476Y-103048152D02*
X177311857Y-103143390D01*
X177311857Y-103143390D02*
X177264238Y-103191009D01*
X177264238Y-103191009D02*
X177169000Y-103238628D01*
X177169000Y-103238628D02*
X176788048Y-103238628D01*
X177692810Y-102714819D02*
X178311857Y-102714819D01*
X178311857Y-102714819D02*
X177978524Y-103095771D01*
X177978524Y-103095771D02*
X178121381Y-103095771D01*
X178121381Y-103095771D02*
X178216619Y-103143390D01*
X178216619Y-103143390D02*
X178264238Y-103191009D01*
X178264238Y-103191009D02*
X178311857Y-103286247D01*
X178311857Y-103286247D02*
X178311857Y-103524342D01*
X178311857Y-103524342D02*
X178264238Y-103619580D01*
X178264238Y-103619580D02*
X178216619Y-103667200D01*
X178216619Y-103667200D02*
X178121381Y-103714819D01*
X178121381Y-103714819D02*
X177835667Y-103714819D01*
X177835667Y-103714819D02*
X177740429Y-103667200D01*
X177740429Y-103667200D02*
X177692810Y-103619580D01*
X178692810Y-102810057D02*
X178740429Y-102762438D01*
X178740429Y-102762438D02*
X178835667Y-102714819D01*
X178835667Y-102714819D02*
X179073762Y-102714819D01*
X179073762Y-102714819D02*
X179169000Y-102762438D01*
X179169000Y-102762438D02*
X179216619Y-102810057D01*
X179216619Y-102810057D02*
X179264238Y-102905295D01*
X179264238Y-102905295D02*
X179264238Y-103000533D01*
X179264238Y-103000533D02*
X179216619Y-103143390D01*
X179216619Y-103143390D02*
X178645191Y-103714819D01*
X178645191Y-103714819D02*
X179264238Y-103714819D01*
X179692810Y-103333866D02*
X180454715Y-103333866D01*
X181502333Y-103619580D02*
X181454714Y-103667200D01*
X181454714Y-103667200D02*
X181311857Y-103714819D01*
X181311857Y-103714819D02*
X181216619Y-103714819D01*
X181216619Y-103714819D02*
X181073762Y-103667200D01*
X181073762Y-103667200D02*
X180978524Y-103571961D01*
X180978524Y-103571961D02*
X180930905Y-103476723D01*
X180930905Y-103476723D02*
X180883286Y-103286247D01*
X180883286Y-103286247D02*
X180883286Y-103143390D01*
X180883286Y-103143390D02*
X180930905Y-102952914D01*
X180930905Y-102952914D02*
X180978524Y-102857676D01*
X180978524Y-102857676D02*
X181073762Y-102762438D01*
X181073762Y-102762438D02*
X181216619Y-102714819D01*
X181216619Y-102714819D02*
X181311857Y-102714819D01*
X181311857Y-102714819D02*
X181454714Y-102762438D01*
X181454714Y-102762438D02*
X181502333Y-102810057D01*
X182407095Y-102714819D02*
X181930905Y-102714819D01*
X181930905Y-102714819D02*
X181883286Y-103191009D01*
X181883286Y-103191009D02*
X181930905Y-103143390D01*
X181930905Y-103143390D02*
X182026143Y-103095771D01*
X182026143Y-103095771D02*
X182264238Y-103095771D01*
X182264238Y-103095771D02*
X182359476Y-103143390D01*
X182359476Y-103143390D02*
X182407095Y-103191009D01*
X182407095Y-103191009D02*
X182454714Y-103286247D01*
X182454714Y-103286247D02*
X182454714Y-103524342D01*
X182454714Y-103524342D02*
X182407095Y-103619580D01*
X182407095Y-103619580D02*
X182359476Y-103667200D01*
X182359476Y-103667200D02*
X182264238Y-103714819D01*
X182264238Y-103714819D02*
X182026143Y-103714819D01*
X182026143Y-103714819D02*
X181930905Y-103667200D01*
X181930905Y-103667200D02*
X181883286Y-103619580D01*
X148009819Y-122746666D02*
X147533628Y-123079999D01*
X148009819Y-123318094D02*
X147009819Y-123318094D01*
X147009819Y-123318094D02*
X147009819Y-122937142D01*
X147009819Y-122937142D02*
X147057438Y-122841904D01*
X147057438Y-122841904D02*
X147105057Y-122794285D01*
X147105057Y-122794285D02*
X147200295Y-122746666D01*
X147200295Y-122746666D02*
X147343152Y-122746666D01*
X147343152Y-122746666D02*
X147438390Y-122794285D01*
X147438390Y-122794285D02*
X147486009Y-122841904D01*
X147486009Y-122841904D02*
X147533628Y-122937142D01*
X147533628Y-122937142D02*
X147533628Y-123318094D01*
X147009819Y-121841904D02*
X147009819Y-122318094D01*
X147009819Y-122318094D02*
X147486009Y-122365713D01*
X147486009Y-122365713D02*
X147438390Y-122318094D01*
X147438390Y-122318094D02*
X147390771Y-122222856D01*
X147390771Y-122222856D02*
X147390771Y-121984761D01*
X147390771Y-121984761D02*
X147438390Y-121889523D01*
X147438390Y-121889523D02*
X147486009Y-121841904D01*
X147486009Y-121841904D02*
X147581247Y-121794285D01*
X147581247Y-121794285D02*
X147819342Y-121794285D01*
X147819342Y-121794285D02*
X147914580Y-121841904D01*
X147914580Y-121841904D02*
X147962200Y-121889523D01*
X147962200Y-121889523D02*
X148009819Y-121984761D01*
X148009819Y-121984761D02*
X148009819Y-122222856D01*
X148009819Y-122222856D02*
X147962200Y-122318094D01*
X147962200Y-122318094D02*
X147914580Y-122365713D01*
X149530905Y-103191009D02*
X149864238Y-103191009D01*
X150007095Y-103714819D02*
X149530905Y-103714819D01*
X149530905Y-103714819D02*
X149530905Y-102714819D01*
X149530905Y-102714819D02*
X150007095Y-102714819D01*
X150388048Y-103667200D02*
X150530905Y-103714819D01*
X150530905Y-103714819D02*
X150769000Y-103714819D01*
X150769000Y-103714819D02*
X150864238Y-103667200D01*
X150864238Y-103667200D02*
X150911857Y-103619580D01*
X150911857Y-103619580D02*
X150959476Y-103524342D01*
X150959476Y-103524342D02*
X150959476Y-103429104D01*
X150959476Y-103429104D02*
X150911857Y-103333866D01*
X150911857Y-103333866D02*
X150864238Y-103286247D01*
X150864238Y-103286247D02*
X150769000Y-103238628D01*
X150769000Y-103238628D02*
X150578524Y-103191009D01*
X150578524Y-103191009D02*
X150483286Y-103143390D01*
X150483286Y-103143390D02*
X150435667Y-103095771D01*
X150435667Y-103095771D02*
X150388048Y-103000533D01*
X150388048Y-103000533D02*
X150388048Y-102905295D01*
X150388048Y-102905295D02*
X150435667Y-102810057D01*
X150435667Y-102810057D02*
X150483286Y-102762438D01*
X150483286Y-102762438D02*
X150578524Y-102714819D01*
X150578524Y-102714819D02*
X150816619Y-102714819D01*
X150816619Y-102714819D02*
X150959476Y-102762438D01*
X151388048Y-103714819D02*
X151388048Y-102714819D01*
X151388048Y-102714819D02*
X151769000Y-102714819D01*
X151769000Y-102714819D02*
X151864238Y-102762438D01*
X151864238Y-102762438D02*
X151911857Y-102810057D01*
X151911857Y-102810057D02*
X151959476Y-102905295D01*
X151959476Y-102905295D02*
X151959476Y-103048152D01*
X151959476Y-103048152D02*
X151911857Y-103143390D01*
X151911857Y-103143390D02*
X151864238Y-103191009D01*
X151864238Y-103191009D02*
X151769000Y-103238628D01*
X151769000Y-103238628D02*
X151388048Y-103238628D01*
X152292810Y-102714819D02*
X152911857Y-102714819D01*
X152911857Y-102714819D02*
X152578524Y-103095771D01*
X152578524Y-103095771D02*
X152721381Y-103095771D01*
X152721381Y-103095771D02*
X152816619Y-103143390D01*
X152816619Y-103143390D02*
X152864238Y-103191009D01*
X152864238Y-103191009D02*
X152911857Y-103286247D01*
X152911857Y-103286247D02*
X152911857Y-103524342D01*
X152911857Y-103524342D02*
X152864238Y-103619580D01*
X152864238Y-103619580D02*
X152816619Y-103667200D01*
X152816619Y-103667200D02*
X152721381Y-103714819D01*
X152721381Y-103714819D02*
X152435667Y-103714819D01*
X152435667Y-103714819D02*
X152340429Y-103667200D01*
X152340429Y-103667200D02*
X152292810Y-103619580D01*
X153292810Y-102810057D02*
X153340429Y-102762438D01*
X153340429Y-102762438D02*
X153435667Y-102714819D01*
X153435667Y-102714819D02*
X153673762Y-102714819D01*
X153673762Y-102714819D02*
X153769000Y-102762438D01*
X153769000Y-102762438D02*
X153816619Y-102810057D01*
X153816619Y-102810057D02*
X153864238Y-102905295D01*
X153864238Y-102905295D02*
X153864238Y-103000533D01*
X153864238Y-103000533D02*
X153816619Y-103143390D01*
X153816619Y-103143390D02*
X153245191Y-103714819D01*
X153245191Y-103714819D02*
X153864238Y-103714819D01*
X154292810Y-103333866D02*
X155054715Y-103333866D01*
X156102333Y-103619580D02*
X156054714Y-103667200D01*
X156054714Y-103667200D02*
X155911857Y-103714819D01*
X155911857Y-103714819D02*
X155816619Y-103714819D01*
X155816619Y-103714819D02*
X155673762Y-103667200D01*
X155673762Y-103667200D02*
X155578524Y-103571961D01*
X155578524Y-103571961D02*
X155530905Y-103476723D01*
X155530905Y-103476723D02*
X155483286Y-103286247D01*
X155483286Y-103286247D02*
X155483286Y-103143390D01*
X155483286Y-103143390D02*
X155530905Y-102952914D01*
X155530905Y-102952914D02*
X155578524Y-102857676D01*
X155578524Y-102857676D02*
X155673762Y-102762438D01*
X155673762Y-102762438D02*
X155816619Y-102714819D01*
X155816619Y-102714819D02*
X155911857Y-102714819D01*
X155911857Y-102714819D02*
X156054714Y-102762438D01*
X156054714Y-102762438D02*
X156102333Y-102810057D01*
X156959476Y-103048152D02*
X156959476Y-103714819D01*
X156721381Y-102667200D02*
X156483286Y-103381485D01*
X156483286Y-103381485D02*
X157102333Y-103381485D01*
X122609819Y-122746666D02*
X122133628Y-123079999D01*
X122609819Y-123318094D02*
X121609819Y-123318094D01*
X121609819Y-123318094D02*
X121609819Y-122937142D01*
X121609819Y-122937142D02*
X121657438Y-122841904D01*
X121657438Y-122841904D02*
X121705057Y-122794285D01*
X121705057Y-122794285D02*
X121800295Y-122746666D01*
X121800295Y-122746666D02*
X121943152Y-122746666D01*
X121943152Y-122746666D02*
X122038390Y-122794285D01*
X122038390Y-122794285D02*
X122086009Y-122841904D01*
X122086009Y-122841904D02*
X122133628Y-122937142D01*
X122133628Y-122937142D02*
X122133628Y-123318094D01*
X121943152Y-121889523D02*
X122609819Y-121889523D01*
X121562200Y-122127618D02*
X122276485Y-122365713D01*
X122276485Y-122365713D02*
X122276485Y-121746666D01*
X124130905Y-103191009D02*
X124464238Y-103191009D01*
X124607095Y-103714819D02*
X124130905Y-103714819D01*
X124130905Y-103714819D02*
X124130905Y-102714819D01*
X124130905Y-102714819D02*
X124607095Y-102714819D01*
X124988048Y-103667200D02*
X125130905Y-103714819D01*
X125130905Y-103714819D02*
X125369000Y-103714819D01*
X125369000Y-103714819D02*
X125464238Y-103667200D01*
X125464238Y-103667200D02*
X125511857Y-103619580D01*
X125511857Y-103619580D02*
X125559476Y-103524342D01*
X125559476Y-103524342D02*
X125559476Y-103429104D01*
X125559476Y-103429104D02*
X125511857Y-103333866D01*
X125511857Y-103333866D02*
X125464238Y-103286247D01*
X125464238Y-103286247D02*
X125369000Y-103238628D01*
X125369000Y-103238628D02*
X125178524Y-103191009D01*
X125178524Y-103191009D02*
X125083286Y-103143390D01*
X125083286Y-103143390D02*
X125035667Y-103095771D01*
X125035667Y-103095771D02*
X124988048Y-103000533D01*
X124988048Y-103000533D02*
X124988048Y-102905295D01*
X124988048Y-102905295D02*
X125035667Y-102810057D01*
X125035667Y-102810057D02*
X125083286Y-102762438D01*
X125083286Y-102762438D02*
X125178524Y-102714819D01*
X125178524Y-102714819D02*
X125416619Y-102714819D01*
X125416619Y-102714819D02*
X125559476Y-102762438D01*
X125988048Y-103714819D02*
X125988048Y-102714819D01*
X125988048Y-102714819D02*
X126369000Y-102714819D01*
X126369000Y-102714819D02*
X126464238Y-102762438D01*
X126464238Y-102762438D02*
X126511857Y-102810057D01*
X126511857Y-102810057D02*
X126559476Y-102905295D01*
X126559476Y-102905295D02*
X126559476Y-103048152D01*
X126559476Y-103048152D02*
X126511857Y-103143390D01*
X126511857Y-103143390D02*
X126464238Y-103191009D01*
X126464238Y-103191009D02*
X126369000Y-103238628D01*
X126369000Y-103238628D02*
X125988048Y-103238628D01*
X126892810Y-102714819D02*
X127511857Y-102714819D01*
X127511857Y-102714819D02*
X127178524Y-103095771D01*
X127178524Y-103095771D02*
X127321381Y-103095771D01*
X127321381Y-103095771D02*
X127416619Y-103143390D01*
X127416619Y-103143390D02*
X127464238Y-103191009D01*
X127464238Y-103191009D02*
X127511857Y-103286247D01*
X127511857Y-103286247D02*
X127511857Y-103524342D01*
X127511857Y-103524342D02*
X127464238Y-103619580D01*
X127464238Y-103619580D02*
X127416619Y-103667200D01*
X127416619Y-103667200D02*
X127321381Y-103714819D01*
X127321381Y-103714819D02*
X127035667Y-103714819D01*
X127035667Y-103714819D02*
X126940429Y-103667200D01*
X126940429Y-103667200D02*
X126892810Y-103619580D01*
X127892810Y-102810057D02*
X127940429Y-102762438D01*
X127940429Y-102762438D02*
X128035667Y-102714819D01*
X128035667Y-102714819D02*
X128273762Y-102714819D01*
X128273762Y-102714819D02*
X128369000Y-102762438D01*
X128369000Y-102762438D02*
X128416619Y-102810057D01*
X128416619Y-102810057D02*
X128464238Y-102905295D01*
X128464238Y-102905295D02*
X128464238Y-103000533D01*
X128464238Y-103000533D02*
X128416619Y-103143390D01*
X128416619Y-103143390D02*
X127845191Y-103714819D01*
X127845191Y-103714819D02*
X128464238Y-103714819D01*
X128892810Y-103333866D02*
X129654715Y-103333866D01*
X130702333Y-103619580D02*
X130654714Y-103667200D01*
X130654714Y-103667200D02*
X130511857Y-103714819D01*
X130511857Y-103714819D02*
X130416619Y-103714819D01*
X130416619Y-103714819D02*
X130273762Y-103667200D01*
X130273762Y-103667200D02*
X130178524Y-103571961D01*
X130178524Y-103571961D02*
X130130905Y-103476723D01*
X130130905Y-103476723D02*
X130083286Y-103286247D01*
X130083286Y-103286247D02*
X130083286Y-103143390D01*
X130083286Y-103143390D02*
X130130905Y-102952914D01*
X130130905Y-102952914D02*
X130178524Y-102857676D01*
X130178524Y-102857676D02*
X130273762Y-102762438D01*
X130273762Y-102762438D02*
X130416619Y-102714819D01*
X130416619Y-102714819D02*
X130511857Y-102714819D01*
X130511857Y-102714819D02*
X130654714Y-102762438D01*
X130654714Y-102762438D02*
X130702333Y-102810057D01*
X131035667Y-102714819D02*
X131654714Y-102714819D01*
X131654714Y-102714819D02*
X131321381Y-103095771D01*
X131321381Y-103095771D02*
X131464238Y-103095771D01*
X131464238Y-103095771D02*
X131559476Y-103143390D01*
X131559476Y-103143390D02*
X131607095Y-103191009D01*
X131607095Y-103191009D02*
X131654714Y-103286247D01*
X131654714Y-103286247D02*
X131654714Y-103524342D01*
X131654714Y-103524342D02*
X131607095Y-103619580D01*
X131607095Y-103619580D02*
X131559476Y-103667200D01*
X131559476Y-103667200D02*
X131464238Y-103714819D01*
X131464238Y-103714819D02*
X131178524Y-103714819D01*
X131178524Y-103714819D02*
X131083286Y-103667200D01*
X131083286Y-103667200D02*
X131035667Y-103619580D01*
X173409819Y-87186666D02*
X172933628Y-87519999D01*
X173409819Y-87758094D02*
X172409819Y-87758094D01*
X172409819Y-87758094D02*
X172409819Y-87377142D01*
X172409819Y-87377142D02*
X172457438Y-87281904D01*
X172457438Y-87281904D02*
X172505057Y-87234285D01*
X172505057Y-87234285D02*
X172600295Y-87186666D01*
X172600295Y-87186666D02*
X172743152Y-87186666D01*
X172743152Y-87186666D02*
X172838390Y-87234285D01*
X172838390Y-87234285D02*
X172886009Y-87281904D01*
X172886009Y-87281904D02*
X172933628Y-87377142D01*
X172933628Y-87377142D02*
X172933628Y-87758094D01*
X172409819Y-86853332D02*
X172409819Y-86234285D01*
X172409819Y-86234285D02*
X172790771Y-86567618D01*
X172790771Y-86567618D02*
X172790771Y-86424761D01*
X172790771Y-86424761D02*
X172838390Y-86329523D01*
X172838390Y-86329523D02*
X172886009Y-86281904D01*
X172886009Y-86281904D02*
X172981247Y-86234285D01*
X172981247Y-86234285D02*
X173219342Y-86234285D01*
X173219342Y-86234285D02*
X173314580Y-86281904D01*
X173314580Y-86281904D02*
X173362200Y-86329523D01*
X173362200Y-86329523D02*
X173409819Y-86424761D01*
X173409819Y-86424761D02*
X173409819Y-86710475D01*
X173409819Y-86710475D02*
X173362200Y-86805713D01*
X173362200Y-86805713D02*
X173314580Y-86853332D01*
X174930905Y-67631009D02*
X175264238Y-67631009D01*
X175407095Y-68154819D02*
X174930905Y-68154819D01*
X174930905Y-68154819D02*
X174930905Y-67154819D01*
X174930905Y-67154819D02*
X175407095Y-67154819D01*
X175788048Y-68107200D02*
X175930905Y-68154819D01*
X175930905Y-68154819D02*
X176169000Y-68154819D01*
X176169000Y-68154819D02*
X176264238Y-68107200D01*
X176264238Y-68107200D02*
X176311857Y-68059580D01*
X176311857Y-68059580D02*
X176359476Y-67964342D01*
X176359476Y-67964342D02*
X176359476Y-67869104D01*
X176359476Y-67869104D02*
X176311857Y-67773866D01*
X176311857Y-67773866D02*
X176264238Y-67726247D01*
X176264238Y-67726247D02*
X176169000Y-67678628D01*
X176169000Y-67678628D02*
X175978524Y-67631009D01*
X175978524Y-67631009D02*
X175883286Y-67583390D01*
X175883286Y-67583390D02*
X175835667Y-67535771D01*
X175835667Y-67535771D02*
X175788048Y-67440533D01*
X175788048Y-67440533D02*
X175788048Y-67345295D01*
X175788048Y-67345295D02*
X175835667Y-67250057D01*
X175835667Y-67250057D02*
X175883286Y-67202438D01*
X175883286Y-67202438D02*
X175978524Y-67154819D01*
X175978524Y-67154819D02*
X176216619Y-67154819D01*
X176216619Y-67154819D02*
X176359476Y-67202438D01*
X176788048Y-68154819D02*
X176788048Y-67154819D01*
X176788048Y-67154819D02*
X177169000Y-67154819D01*
X177169000Y-67154819D02*
X177264238Y-67202438D01*
X177264238Y-67202438D02*
X177311857Y-67250057D01*
X177311857Y-67250057D02*
X177359476Y-67345295D01*
X177359476Y-67345295D02*
X177359476Y-67488152D01*
X177359476Y-67488152D02*
X177311857Y-67583390D01*
X177311857Y-67583390D02*
X177264238Y-67631009D01*
X177264238Y-67631009D02*
X177169000Y-67678628D01*
X177169000Y-67678628D02*
X176788048Y-67678628D01*
X177692810Y-67154819D02*
X178311857Y-67154819D01*
X178311857Y-67154819D02*
X177978524Y-67535771D01*
X177978524Y-67535771D02*
X178121381Y-67535771D01*
X178121381Y-67535771D02*
X178216619Y-67583390D01*
X178216619Y-67583390D02*
X178264238Y-67631009D01*
X178264238Y-67631009D02*
X178311857Y-67726247D01*
X178311857Y-67726247D02*
X178311857Y-67964342D01*
X178311857Y-67964342D02*
X178264238Y-68059580D01*
X178264238Y-68059580D02*
X178216619Y-68107200D01*
X178216619Y-68107200D02*
X178121381Y-68154819D01*
X178121381Y-68154819D02*
X177835667Y-68154819D01*
X177835667Y-68154819D02*
X177740429Y-68107200D01*
X177740429Y-68107200D02*
X177692810Y-68059580D01*
X178692810Y-67250057D02*
X178740429Y-67202438D01*
X178740429Y-67202438D02*
X178835667Y-67154819D01*
X178835667Y-67154819D02*
X179073762Y-67154819D01*
X179073762Y-67154819D02*
X179169000Y-67202438D01*
X179169000Y-67202438D02*
X179216619Y-67250057D01*
X179216619Y-67250057D02*
X179264238Y-67345295D01*
X179264238Y-67345295D02*
X179264238Y-67440533D01*
X179264238Y-67440533D02*
X179216619Y-67583390D01*
X179216619Y-67583390D02*
X178645191Y-68154819D01*
X178645191Y-68154819D02*
X179264238Y-68154819D01*
X179692810Y-67773866D02*
X180454715Y-67773866D01*
X181502333Y-68059580D02*
X181454714Y-68107200D01*
X181454714Y-68107200D02*
X181311857Y-68154819D01*
X181311857Y-68154819D02*
X181216619Y-68154819D01*
X181216619Y-68154819D02*
X181073762Y-68107200D01*
X181073762Y-68107200D02*
X180978524Y-68011961D01*
X180978524Y-68011961D02*
X180930905Y-67916723D01*
X180930905Y-67916723D02*
X180883286Y-67726247D01*
X180883286Y-67726247D02*
X180883286Y-67583390D01*
X180883286Y-67583390D02*
X180930905Y-67392914D01*
X180930905Y-67392914D02*
X180978524Y-67297676D01*
X180978524Y-67297676D02*
X181073762Y-67202438D01*
X181073762Y-67202438D02*
X181216619Y-67154819D01*
X181216619Y-67154819D02*
X181311857Y-67154819D01*
X181311857Y-67154819D02*
X181454714Y-67202438D01*
X181454714Y-67202438D02*
X181502333Y-67250057D01*
X181883286Y-67250057D02*
X181930905Y-67202438D01*
X181930905Y-67202438D02*
X182026143Y-67154819D01*
X182026143Y-67154819D02*
X182264238Y-67154819D01*
X182264238Y-67154819D02*
X182359476Y-67202438D01*
X182359476Y-67202438D02*
X182407095Y-67250057D01*
X182407095Y-67250057D02*
X182454714Y-67345295D01*
X182454714Y-67345295D02*
X182454714Y-67440533D01*
X182454714Y-67440533D02*
X182407095Y-67583390D01*
X182407095Y-67583390D02*
X181835667Y-68154819D01*
X181835667Y-68154819D02*
X182454714Y-68154819D01*
X148009819Y-87186666D02*
X147533628Y-87519999D01*
X148009819Y-87758094D02*
X147009819Y-87758094D01*
X147009819Y-87758094D02*
X147009819Y-87377142D01*
X147009819Y-87377142D02*
X147057438Y-87281904D01*
X147057438Y-87281904D02*
X147105057Y-87234285D01*
X147105057Y-87234285D02*
X147200295Y-87186666D01*
X147200295Y-87186666D02*
X147343152Y-87186666D01*
X147343152Y-87186666D02*
X147438390Y-87234285D01*
X147438390Y-87234285D02*
X147486009Y-87281904D01*
X147486009Y-87281904D02*
X147533628Y-87377142D01*
X147533628Y-87377142D02*
X147533628Y-87758094D01*
X147105057Y-86805713D02*
X147057438Y-86758094D01*
X147057438Y-86758094D02*
X147009819Y-86662856D01*
X147009819Y-86662856D02*
X147009819Y-86424761D01*
X147009819Y-86424761D02*
X147057438Y-86329523D01*
X147057438Y-86329523D02*
X147105057Y-86281904D01*
X147105057Y-86281904D02*
X147200295Y-86234285D01*
X147200295Y-86234285D02*
X147295533Y-86234285D01*
X147295533Y-86234285D02*
X147438390Y-86281904D01*
X147438390Y-86281904D02*
X148009819Y-86853332D01*
X148009819Y-86853332D02*
X148009819Y-86234285D01*
X149530905Y-67631009D02*
X149864238Y-67631009D01*
X150007095Y-68154819D02*
X149530905Y-68154819D01*
X149530905Y-68154819D02*
X149530905Y-67154819D01*
X149530905Y-67154819D02*
X150007095Y-67154819D01*
X150388048Y-68107200D02*
X150530905Y-68154819D01*
X150530905Y-68154819D02*
X150769000Y-68154819D01*
X150769000Y-68154819D02*
X150864238Y-68107200D01*
X150864238Y-68107200D02*
X150911857Y-68059580D01*
X150911857Y-68059580D02*
X150959476Y-67964342D01*
X150959476Y-67964342D02*
X150959476Y-67869104D01*
X150959476Y-67869104D02*
X150911857Y-67773866D01*
X150911857Y-67773866D02*
X150864238Y-67726247D01*
X150864238Y-67726247D02*
X150769000Y-67678628D01*
X150769000Y-67678628D02*
X150578524Y-67631009D01*
X150578524Y-67631009D02*
X150483286Y-67583390D01*
X150483286Y-67583390D02*
X150435667Y-67535771D01*
X150435667Y-67535771D02*
X150388048Y-67440533D01*
X150388048Y-67440533D02*
X150388048Y-67345295D01*
X150388048Y-67345295D02*
X150435667Y-67250057D01*
X150435667Y-67250057D02*
X150483286Y-67202438D01*
X150483286Y-67202438D02*
X150578524Y-67154819D01*
X150578524Y-67154819D02*
X150816619Y-67154819D01*
X150816619Y-67154819D02*
X150959476Y-67202438D01*
X151388048Y-68154819D02*
X151388048Y-67154819D01*
X151388048Y-67154819D02*
X151769000Y-67154819D01*
X151769000Y-67154819D02*
X151864238Y-67202438D01*
X151864238Y-67202438D02*
X151911857Y-67250057D01*
X151911857Y-67250057D02*
X151959476Y-67345295D01*
X151959476Y-67345295D02*
X151959476Y-67488152D01*
X151959476Y-67488152D02*
X151911857Y-67583390D01*
X151911857Y-67583390D02*
X151864238Y-67631009D01*
X151864238Y-67631009D02*
X151769000Y-67678628D01*
X151769000Y-67678628D02*
X151388048Y-67678628D01*
X152292810Y-67154819D02*
X152911857Y-67154819D01*
X152911857Y-67154819D02*
X152578524Y-67535771D01*
X152578524Y-67535771D02*
X152721381Y-67535771D01*
X152721381Y-67535771D02*
X152816619Y-67583390D01*
X152816619Y-67583390D02*
X152864238Y-67631009D01*
X152864238Y-67631009D02*
X152911857Y-67726247D01*
X152911857Y-67726247D02*
X152911857Y-67964342D01*
X152911857Y-67964342D02*
X152864238Y-68059580D01*
X152864238Y-68059580D02*
X152816619Y-68107200D01*
X152816619Y-68107200D02*
X152721381Y-68154819D01*
X152721381Y-68154819D02*
X152435667Y-68154819D01*
X152435667Y-68154819D02*
X152340429Y-68107200D01*
X152340429Y-68107200D02*
X152292810Y-68059580D01*
X153292810Y-67250057D02*
X153340429Y-67202438D01*
X153340429Y-67202438D02*
X153435667Y-67154819D01*
X153435667Y-67154819D02*
X153673762Y-67154819D01*
X153673762Y-67154819D02*
X153769000Y-67202438D01*
X153769000Y-67202438D02*
X153816619Y-67250057D01*
X153816619Y-67250057D02*
X153864238Y-67345295D01*
X153864238Y-67345295D02*
X153864238Y-67440533D01*
X153864238Y-67440533D02*
X153816619Y-67583390D01*
X153816619Y-67583390D02*
X153245191Y-68154819D01*
X153245191Y-68154819D02*
X153864238Y-68154819D01*
X154292810Y-67773866D02*
X155054715Y-67773866D01*
X156102333Y-68059580D02*
X156054714Y-68107200D01*
X156054714Y-68107200D02*
X155911857Y-68154819D01*
X155911857Y-68154819D02*
X155816619Y-68154819D01*
X155816619Y-68154819D02*
X155673762Y-68107200D01*
X155673762Y-68107200D02*
X155578524Y-68011961D01*
X155578524Y-68011961D02*
X155530905Y-67916723D01*
X155530905Y-67916723D02*
X155483286Y-67726247D01*
X155483286Y-67726247D02*
X155483286Y-67583390D01*
X155483286Y-67583390D02*
X155530905Y-67392914D01*
X155530905Y-67392914D02*
X155578524Y-67297676D01*
X155578524Y-67297676D02*
X155673762Y-67202438D01*
X155673762Y-67202438D02*
X155816619Y-67154819D01*
X155816619Y-67154819D02*
X155911857Y-67154819D01*
X155911857Y-67154819D02*
X156054714Y-67202438D01*
X156054714Y-67202438D02*
X156102333Y-67250057D01*
X157054714Y-68154819D02*
X156483286Y-68154819D01*
X156769000Y-68154819D02*
X156769000Y-67154819D01*
X156769000Y-67154819D02*
X156673762Y-67297676D01*
X156673762Y-67297676D02*
X156578524Y-67392914D01*
X156578524Y-67392914D02*
X156483286Y-67440533D01*
X122609819Y-87186666D02*
X122133628Y-87519999D01*
X122609819Y-87758094D02*
X121609819Y-87758094D01*
X121609819Y-87758094D02*
X121609819Y-87377142D01*
X121609819Y-87377142D02*
X121657438Y-87281904D01*
X121657438Y-87281904D02*
X121705057Y-87234285D01*
X121705057Y-87234285D02*
X121800295Y-87186666D01*
X121800295Y-87186666D02*
X121943152Y-87186666D01*
X121943152Y-87186666D02*
X122038390Y-87234285D01*
X122038390Y-87234285D02*
X122086009Y-87281904D01*
X122086009Y-87281904D02*
X122133628Y-87377142D01*
X122133628Y-87377142D02*
X122133628Y-87758094D01*
X122609819Y-86234285D02*
X122609819Y-86805713D01*
X122609819Y-86519999D02*
X121609819Y-86519999D01*
X121609819Y-86519999D02*
X121752676Y-86615237D01*
X121752676Y-86615237D02*
X121847914Y-86710475D01*
X121847914Y-86710475D02*
X121895533Y-86805713D01*
X124130905Y-67631009D02*
X124464238Y-67631009D01*
X124607095Y-68154819D02*
X124130905Y-68154819D01*
X124130905Y-68154819D02*
X124130905Y-67154819D01*
X124130905Y-67154819D02*
X124607095Y-67154819D01*
X124988048Y-68107200D02*
X125130905Y-68154819D01*
X125130905Y-68154819D02*
X125369000Y-68154819D01*
X125369000Y-68154819D02*
X125464238Y-68107200D01*
X125464238Y-68107200D02*
X125511857Y-68059580D01*
X125511857Y-68059580D02*
X125559476Y-67964342D01*
X125559476Y-67964342D02*
X125559476Y-67869104D01*
X125559476Y-67869104D02*
X125511857Y-67773866D01*
X125511857Y-67773866D02*
X125464238Y-67726247D01*
X125464238Y-67726247D02*
X125369000Y-67678628D01*
X125369000Y-67678628D02*
X125178524Y-67631009D01*
X125178524Y-67631009D02*
X125083286Y-67583390D01*
X125083286Y-67583390D02*
X125035667Y-67535771D01*
X125035667Y-67535771D02*
X124988048Y-67440533D01*
X124988048Y-67440533D02*
X124988048Y-67345295D01*
X124988048Y-67345295D02*
X125035667Y-67250057D01*
X125035667Y-67250057D02*
X125083286Y-67202438D01*
X125083286Y-67202438D02*
X125178524Y-67154819D01*
X125178524Y-67154819D02*
X125416619Y-67154819D01*
X125416619Y-67154819D02*
X125559476Y-67202438D01*
X125988048Y-68154819D02*
X125988048Y-67154819D01*
X125988048Y-67154819D02*
X126369000Y-67154819D01*
X126369000Y-67154819D02*
X126464238Y-67202438D01*
X126464238Y-67202438D02*
X126511857Y-67250057D01*
X126511857Y-67250057D02*
X126559476Y-67345295D01*
X126559476Y-67345295D02*
X126559476Y-67488152D01*
X126559476Y-67488152D02*
X126511857Y-67583390D01*
X126511857Y-67583390D02*
X126464238Y-67631009D01*
X126464238Y-67631009D02*
X126369000Y-67678628D01*
X126369000Y-67678628D02*
X125988048Y-67678628D01*
X126892810Y-67154819D02*
X127511857Y-67154819D01*
X127511857Y-67154819D02*
X127178524Y-67535771D01*
X127178524Y-67535771D02*
X127321381Y-67535771D01*
X127321381Y-67535771D02*
X127416619Y-67583390D01*
X127416619Y-67583390D02*
X127464238Y-67631009D01*
X127464238Y-67631009D02*
X127511857Y-67726247D01*
X127511857Y-67726247D02*
X127511857Y-67964342D01*
X127511857Y-67964342D02*
X127464238Y-68059580D01*
X127464238Y-68059580D02*
X127416619Y-68107200D01*
X127416619Y-68107200D02*
X127321381Y-68154819D01*
X127321381Y-68154819D02*
X127035667Y-68154819D01*
X127035667Y-68154819D02*
X126940429Y-68107200D01*
X126940429Y-68107200D02*
X126892810Y-68059580D01*
X127892810Y-67250057D02*
X127940429Y-67202438D01*
X127940429Y-67202438D02*
X128035667Y-67154819D01*
X128035667Y-67154819D02*
X128273762Y-67154819D01*
X128273762Y-67154819D02*
X128369000Y-67202438D01*
X128369000Y-67202438D02*
X128416619Y-67250057D01*
X128416619Y-67250057D02*
X128464238Y-67345295D01*
X128464238Y-67345295D02*
X128464238Y-67440533D01*
X128464238Y-67440533D02*
X128416619Y-67583390D01*
X128416619Y-67583390D02*
X127845191Y-68154819D01*
X127845191Y-68154819D02*
X128464238Y-68154819D01*
X128892810Y-67773866D02*
X129654715Y-67773866D01*
X130702333Y-68059580D02*
X130654714Y-68107200D01*
X130654714Y-68107200D02*
X130511857Y-68154819D01*
X130511857Y-68154819D02*
X130416619Y-68154819D01*
X130416619Y-68154819D02*
X130273762Y-68107200D01*
X130273762Y-68107200D02*
X130178524Y-68011961D01*
X130178524Y-68011961D02*
X130130905Y-67916723D01*
X130130905Y-67916723D02*
X130083286Y-67726247D01*
X130083286Y-67726247D02*
X130083286Y-67583390D01*
X130083286Y-67583390D02*
X130130905Y-67392914D01*
X130130905Y-67392914D02*
X130178524Y-67297676D01*
X130178524Y-67297676D02*
X130273762Y-67202438D01*
X130273762Y-67202438D02*
X130416619Y-67154819D01*
X130416619Y-67154819D02*
X130511857Y-67154819D01*
X130511857Y-67154819D02*
X130654714Y-67202438D01*
X130654714Y-67202438D02*
X130702333Y-67250057D01*
X131559476Y-67154819D02*
X131369000Y-67154819D01*
X131369000Y-67154819D02*
X131273762Y-67202438D01*
X131273762Y-67202438D02*
X131226143Y-67250057D01*
X131226143Y-67250057D02*
X131130905Y-67392914D01*
X131130905Y-67392914D02*
X131083286Y-67583390D01*
X131083286Y-67583390D02*
X131083286Y-67964342D01*
X131083286Y-67964342D02*
X131130905Y-68059580D01*
X131130905Y-68059580D02*
X131178524Y-68107200D01*
X131178524Y-68107200D02*
X131273762Y-68154819D01*
X131273762Y-68154819D02*
X131464238Y-68154819D01*
X131464238Y-68154819D02*
X131559476Y-68107200D01*
X131559476Y-68107200D02*
X131607095Y-68059580D01*
X131607095Y-68059580D02*
X131654714Y-67964342D01*
X131654714Y-67964342D02*
X131654714Y-67726247D01*
X131654714Y-67726247D02*
X131607095Y-67631009D01*
X131607095Y-67631009D02*
X131559476Y-67583390D01*
X131559476Y-67583390D02*
X131464238Y-67535771D01*
X131464238Y-67535771D02*
X131273762Y-67535771D01*
X131273762Y-67535771D02*
X131178524Y-67583390D01*
X131178524Y-67583390D02*
X131130905Y-67631009D01*
X131130905Y-67631009D02*
X131083286Y-67726247D01*
D11*
X175340000Y-122807064D02*
X175340000Y-122352936D01*
X173870000Y-122807064D02*
X173870000Y-122352936D01*
X187669000Y-119106000D02*
X186669000Y-119106000D01*
X187669000Y-118356000D02*
X187669000Y-119106000D01*
X187669000Y-99906000D02*
X187669000Y-100356000D01*
X187669000Y-99906000D02*
X169669000Y-99906000D01*
X169669000Y-119106000D02*
X170669000Y-119106000D01*
X169669000Y-118356000D02*
X169669000Y-119106000D01*
X169669000Y-99906000D02*
X169669000Y-100356000D01*
X149940000Y-122807064D02*
X149940000Y-122352936D01*
X148470000Y-122807064D02*
X148470000Y-122352936D01*
X162269000Y-119106000D02*
X161269000Y-119106000D01*
X162269000Y-118356000D02*
X162269000Y-119106000D01*
X162269000Y-99906000D02*
X162269000Y-100356000D01*
X162269000Y-99906000D02*
X144269000Y-99906000D01*
X144269000Y-119106000D02*
X145269000Y-119106000D01*
X144269000Y-118356000D02*
X144269000Y-119106000D01*
X144269000Y-99906000D02*
X144269000Y-100356000D01*
X124540000Y-122807064D02*
X124540000Y-122352936D01*
X123070000Y-122807064D02*
X123070000Y-122352936D01*
X136869000Y-119106000D02*
X135869000Y-119106000D01*
X136869000Y-118356000D02*
X136869000Y-119106000D01*
X136869000Y-99906000D02*
X136869000Y-100356000D01*
X136869000Y-99906000D02*
X118869000Y-99906000D01*
X118869000Y-119106000D02*
X119869000Y-119106000D01*
X118869000Y-118356000D02*
X118869000Y-119106000D01*
X118869000Y-99906000D02*
X118869000Y-100356000D01*
X175340000Y-87247064D02*
X175340000Y-86792936D01*
X173870000Y-87247064D02*
X173870000Y-86792936D01*
X187669000Y-83546000D02*
X186669000Y-83546000D01*
X187669000Y-82796000D02*
X187669000Y-83546000D01*
X187669000Y-64346000D02*
X187669000Y-64796000D01*
X187669000Y-64346000D02*
X169669000Y-64346000D01*
X169669000Y-83546000D02*
X170669000Y-83546000D01*
X169669000Y-82796000D02*
X169669000Y-83546000D01*
X169669000Y-64346000D02*
X169669000Y-64796000D01*
X149940000Y-87247064D02*
X149940000Y-86792936D01*
X148470000Y-87247064D02*
X148470000Y-86792936D01*
X162269000Y-83546000D02*
X161269000Y-83546000D01*
X162269000Y-82796000D02*
X162269000Y-83546000D01*
X162269000Y-64346000D02*
X162269000Y-64796000D01*
X162269000Y-64346000D02*
X144269000Y-64346000D01*
X144269000Y-83546000D02*
X145269000Y-83546000D01*
X144269000Y-82796000D02*
X144269000Y-83546000D01*
X144269000Y-64346000D02*
X144269000Y-64796000D01*
X124540000Y-87247064D02*
X124540000Y-86792936D01*
X123070000Y-87247064D02*
X123070000Y-86792936D01*
X136869000Y-83546000D02*
X135869000Y-83546000D01*
X136869000Y-82796000D02*
X136869000Y-83546000D01*
X136869000Y-64346000D02*
X136869000Y-64796000D01*
X136869000Y-64346000D02*
X118869000Y-64346000D01*
X118869000Y-83546000D02*
X119869000Y-83546000D01*
X118869000Y-82796000D02*
X118869000Y-83546000D01*
X118869000Y-64346000D02*
X118869000Y-64796000D01*
M02*
