G04 #@! TF.GenerationSoftware,KiCad,Pcbnew,8.0.2*
G04 #@! TF.CreationDate,2024-09-16T05:24:11+09:00*
G04 #@! TF.ProjectId,ESP32-C6_breakout,45535033-322d-4433-965f-627265616b6f,1.0*
G04 #@! TF.SameCoordinates,Original*
G04 #@! TF.FileFunction,Copper,L2,Bot*
G04 #@! TF.FilePolarity,Positive*
%FSLAX46Y46*%
G04 Gerber Fmt 4.6, Leading zero omitted, Abs format (unit mm)*
G04 Created by KiCad (PCBNEW 8.0.2) date 2024-09-16 05:24:11*
%MOMM*%
%LPD*%
G01*
G04 APERTURE LIST*
G04 #@! TA.AperFunction,ViaPad*
%ADD10C,1.625600*%
G04 #@! TD*
G04 #@! TA.AperFunction,ViaPad*
%ADD11C,0.600000*%
G04 #@! TD*
G04 #@! TA.AperFunction,Conductor*
%ADD12C,0.508000*%
G04 #@! TD*
G04 #@! TA.AperFunction,Conductor*
%ADD13C,1.016000*%
G04 #@! TD*
G04 APERTURE END LIST*
D10*
X167239000Y-115960000D03*
X179939000Y-126120000D03*
X179939000Y-123580000D03*
X190099000Y-100720000D03*
D11*
X183749000Y-112150000D03*
D10*
X179939000Y-131200000D03*
D11*
X183749000Y-115960000D03*
X173589000Y-108848000D03*
D10*
X179939000Y-128660000D03*
X167239000Y-100720000D03*
X190099000Y-131200000D03*
D11*
X173589000Y-106308000D03*
D10*
X167239000Y-123580000D03*
X167239000Y-105800000D03*
X190099000Y-118500000D03*
X190099000Y-121040000D03*
D11*
X173589000Y-107578000D03*
D10*
X190099000Y-123580000D03*
X190099000Y-128660000D03*
X167239000Y-108340000D03*
X167239000Y-126120000D03*
D11*
X183749000Y-114690000D03*
X173589000Y-115198000D03*
D10*
X167239000Y-128660000D03*
X190099000Y-115960000D03*
X167239000Y-118500000D03*
X167239000Y-131200000D03*
X167239000Y-133740000D03*
X167239000Y-103260000D03*
D11*
X183749000Y-117230000D03*
X173589000Y-111388000D03*
X183749000Y-118500000D03*
X173589000Y-110118000D03*
D10*
X167239000Y-121040000D03*
X190099000Y-133740000D03*
D11*
X183749000Y-119770000D03*
X183749000Y-107578000D03*
D10*
X190099000Y-113420000D03*
X190099000Y-103260000D03*
X190099000Y-126120000D03*
D11*
X183749000Y-113420000D03*
X173589000Y-112658000D03*
D10*
X167239000Y-113420000D03*
D11*
X173589000Y-117738000D03*
D10*
X190099000Y-105800000D03*
X190099000Y-108340000D03*
D11*
X173589000Y-116468000D03*
D10*
X167239000Y-110880000D03*
D11*
X183749000Y-106308000D03*
X173589000Y-113928000D03*
D10*
X190099000Y-110880000D03*
X141839000Y-115960000D03*
X154539000Y-126120000D03*
X154539000Y-123580000D03*
X164699000Y-100720000D03*
D11*
X158349000Y-112150000D03*
D10*
X154539000Y-131200000D03*
D11*
X158349000Y-115960000D03*
X148189000Y-108848000D03*
D10*
X154539000Y-128660000D03*
X141839000Y-100720000D03*
X164699000Y-131200000D03*
D11*
X148189000Y-106308000D03*
D10*
X141839000Y-123580000D03*
X141839000Y-105800000D03*
X164699000Y-118500000D03*
X164699000Y-121040000D03*
D11*
X148189000Y-107578000D03*
D10*
X164699000Y-123580000D03*
X164699000Y-128660000D03*
X141839000Y-108340000D03*
X141839000Y-126120000D03*
D11*
X158349000Y-114690000D03*
X148189000Y-115198000D03*
D10*
X141839000Y-128660000D03*
X164699000Y-115960000D03*
X141839000Y-118500000D03*
X141839000Y-131200000D03*
X141839000Y-133740000D03*
X141839000Y-103260000D03*
D11*
X158349000Y-117230000D03*
X148189000Y-111388000D03*
X158349000Y-118500000D03*
X148189000Y-110118000D03*
D10*
X141839000Y-121040000D03*
X164699000Y-133740000D03*
D11*
X158349000Y-119770000D03*
X158349000Y-107578000D03*
D10*
X164699000Y-113420000D03*
X164699000Y-103260000D03*
X164699000Y-126120000D03*
D11*
X158349000Y-113420000D03*
X148189000Y-112658000D03*
D10*
X141839000Y-113420000D03*
D11*
X148189000Y-117738000D03*
D10*
X164699000Y-105800000D03*
X164699000Y-108340000D03*
D11*
X148189000Y-116468000D03*
D10*
X141839000Y-110880000D03*
D11*
X158349000Y-106308000D03*
X148189000Y-113928000D03*
D10*
X164699000Y-110880000D03*
X116439000Y-115960000D03*
X129139000Y-126120000D03*
X129139000Y-123580000D03*
X139299000Y-100720000D03*
D11*
X132949000Y-112150000D03*
D10*
X129139000Y-131200000D03*
D11*
X132949000Y-115960000D03*
X122789000Y-108848000D03*
D10*
X129139000Y-128660000D03*
X116439000Y-100720000D03*
X139299000Y-131200000D03*
D11*
X122789000Y-106308000D03*
D10*
X116439000Y-123580000D03*
X116439000Y-105800000D03*
X139299000Y-118500000D03*
X139299000Y-121040000D03*
D11*
X122789000Y-107578000D03*
D10*
X139299000Y-123580000D03*
X139299000Y-128660000D03*
X116439000Y-108340000D03*
X116439000Y-126120000D03*
D11*
X132949000Y-114690000D03*
X122789000Y-115198000D03*
D10*
X116439000Y-128660000D03*
X139299000Y-115960000D03*
X116439000Y-118500000D03*
X116439000Y-131200000D03*
X116439000Y-133740000D03*
X116439000Y-103260000D03*
D11*
X132949000Y-117230000D03*
X122789000Y-111388000D03*
X132949000Y-118500000D03*
X122789000Y-110118000D03*
D10*
X116439000Y-121040000D03*
X139299000Y-133740000D03*
D11*
X132949000Y-119770000D03*
X132949000Y-107578000D03*
D10*
X139299000Y-113420000D03*
X139299000Y-103260000D03*
X139299000Y-126120000D03*
D11*
X132949000Y-113420000D03*
X122789000Y-112658000D03*
D10*
X116439000Y-113420000D03*
D11*
X122789000Y-117738000D03*
D10*
X139299000Y-105800000D03*
X139299000Y-108340000D03*
D11*
X122789000Y-116468000D03*
D10*
X116439000Y-110880000D03*
D11*
X132949000Y-106308000D03*
X122789000Y-113928000D03*
D10*
X139299000Y-110880000D03*
X167239000Y-80400000D03*
X179939000Y-90560000D03*
X179939000Y-88020000D03*
X190099000Y-65160000D03*
D11*
X183749000Y-76590000D03*
D10*
X179939000Y-95640000D03*
D11*
X183749000Y-80400000D03*
X173589000Y-73288000D03*
D10*
X179939000Y-93100000D03*
X167239000Y-65160000D03*
X190099000Y-95640000D03*
D11*
X173589000Y-70748000D03*
D10*
X167239000Y-88020000D03*
X167239000Y-70240000D03*
X190099000Y-82940000D03*
X190099000Y-85480000D03*
D11*
X173589000Y-72018000D03*
D10*
X190099000Y-88020000D03*
X190099000Y-93100000D03*
X167239000Y-72780000D03*
X167239000Y-90560000D03*
D11*
X183749000Y-79130000D03*
X173589000Y-79638000D03*
D10*
X167239000Y-93100000D03*
X190099000Y-80400000D03*
X167239000Y-82940000D03*
X167239000Y-95640000D03*
X167239000Y-98180000D03*
X167239000Y-67700000D03*
D11*
X183749000Y-81670000D03*
X173589000Y-75828000D03*
X183749000Y-82940000D03*
X173589000Y-74558000D03*
D10*
X167239000Y-85480000D03*
X190099000Y-98180000D03*
D11*
X183749000Y-84210000D03*
X183749000Y-72018000D03*
D10*
X190099000Y-77860000D03*
X190099000Y-67700000D03*
X190099000Y-90560000D03*
D11*
X183749000Y-77860000D03*
X173589000Y-77098000D03*
D10*
X167239000Y-77860000D03*
D11*
X173589000Y-82178000D03*
D10*
X190099000Y-70240000D03*
X190099000Y-72780000D03*
D11*
X173589000Y-80908000D03*
D10*
X167239000Y-75320000D03*
D11*
X183749000Y-70748000D03*
X173589000Y-78368000D03*
D10*
X190099000Y-75320000D03*
X141839000Y-80400000D03*
X154539000Y-90560000D03*
X154539000Y-88020000D03*
X164699000Y-65160000D03*
D11*
X158349000Y-76590000D03*
D10*
X154539000Y-95640000D03*
D11*
X158349000Y-80400000D03*
X148189000Y-73288000D03*
D10*
X154539000Y-93100000D03*
X141839000Y-65160000D03*
X164699000Y-95640000D03*
D11*
X148189000Y-70748000D03*
D10*
X141839000Y-88020000D03*
X141839000Y-70240000D03*
X164699000Y-82940000D03*
X164699000Y-85480000D03*
D11*
X148189000Y-72018000D03*
D10*
X164699000Y-88020000D03*
X164699000Y-93100000D03*
X141839000Y-72780000D03*
X141839000Y-90560000D03*
D11*
X158349000Y-79130000D03*
X148189000Y-79638000D03*
D10*
X141839000Y-93100000D03*
X164699000Y-80400000D03*
X141839000Y-82940000D03*
X141839000Y-95640000D03*
X141839000Y-98180000D03*
X141839000Y-67700000D03*
D11*
X158349000Y-81670000D03*
X148189000Y-75828000D03*
X158349000Y-82940000D03*
X148189000Y-74558000D03*
D10*
X141839000Y-85480000D03*
X164699000Y-98180000D03*
D11*
X158349000Y-84210000D03*
X158349000Y-72018000D03*
D10*
X164699000Y-77860000D03*
X164699000Y-67700000D03*
X164699000Y-90560000D03*
D11*
X158349000Y-77860000D03*
X148189000Y-77098000D03*
D10*
X141839000Y-77860000D03*
D11*
X148189000Y-82178000D03*
D10*
X164699000Y-70240000D03*
X164699000Y-72780000D03*
D11*
X148189000Y-80908000D03*
D10*
X141839000Y-75320000D03*
D11*
X158349000Y-70748000D03*
X148189000Y-78368000D03*
D10*
X164699000Y-75320000D03*
X129139000Y-93100000D03*
X129139000Y-90560000D03*
X129139000Y-95640000D03*
X129139000Y-88020000D03*
X116439000Y-80400000D03*
D11*
X132949000Y-80400000D03*
X122789000Y-73288000D03*
D10*
X116439000Y-65160000D03*
X139299000Y-65160000D03*
D11*
X132949000Y-76590000D03*
D10*
X139299000Y-90560000D03*
X116439000Y-70240000D03*
X139299000Y-82940000D03*
D11*
X132949000Y-77860000D03*
D10*
X139299000Y-85480000D03*
X116439000Y-77860000D03*
D11*
X122789000Y-82178000D03*
D10*
X139299000Y-70240000D03*
D11*
X132949000Y-72018000D03*
D10*
X139299000Y-77860000D03*
X139299000Y-72780000D03*
X139299000Y-88020000D03*
D11*
X132949000Y-79130000D03*
X122789000Y-79638000D03*
D10*
X116439000Y-93100000D03*
X139299000Y-80400000D03*
D11*
X122789000Y-80908000D03*
D10*
X116439000Y-95640000D03*
D11*
X132949000Y-70748000D03*
D10*
X139299000Y-75320000D03*
D11*
X122789000Y-72018000D03*
D10*
X116439000Y-98180000D03*
X116439000Y-67700000D03*
X116439000Y-75320000D03*
D11*
X122789000Y-77098000D03*
D10*
X139299000Y-95640000D03*
X139299000Y-67700000D03*
D11*
X132949000Y-82940000D03*
D10*
X116439000Y-88020000D03*
X116439000Y-72780000D03*
X116439000Y-90560000D03*
D11*
X122789000Y-74558000D03*
D10*
X116439000Y-85480000D03*
D11*
X122789000Y-75828000D03*
D10*
X139299000Y-98180000D03*
D11*
X122789000Y-70748000D03*
X122789000Y-78368000D03*
X132949000Y-84210000D03*
X132949000Y-81670000D03*
D10*
X139299000Y-93100000D03*
X116439000Y-82940000D03*
D12*
X179939000Y-126120000D02*
X174343000Y-120524000D01*
X174343000Y-120524000D02*
X174343000Y-117222000D01*
X174343000Y-117222000D02*
X173589000Y-116468000D01*
X167239000Y-133740000D02*
X173589000Y-127390000D01*
X167239000Y-118500000D02*
X168505800Y-117233200D01*
X183749000Y-114690000D02*
X188124200Y-119065200D01*
X188832200Y-119773200D02*
X190099000Y-121040000D01*
X172045800Y-126393200D02*
X172045800Y-118011200D01*
X167239000Y-128660000D02*
X171337800Y-124561200D01*
X167239000Y-115211526D02*
X167239000Y-115960000D01*
X173589000Y-106308000D02*
X171811000Y-106308000D01*
X187416200Y-119627200D02*
X187416200Y-123437200D01*
D13*
X167239000Y-103260000D02*
X179939000Y-103260000D01*
X179939000Y-103260000D02*
X179939000Y-105800000D01*
X179939000Y-105800000D02*
X190099000Y-115960000D01*
D12*
X171337800Y-124561200D02*
X171337800Y-117449200D01*
X188124200Y-121605200D02*
X190099000Y-123580000D01*
X188832200Y-118503200D02*
X188832200Y-119773200D01*
X168505800Y-115201200D02*
X173589000Y-110118000D01*
X188124200Y-119065200D02*
X188124200Y-121605200D01*
X183749000Y-117230000D02*
X186708200Y-120189200D01*
X187416200Y-123437200D02*
X190099000Y-126120000D01*
X168505800Y-117233200D02*
X168505800Y-115201200D01*
X183749000Y-115960000D02*
X187416200Y-119627200D01*
X172045800Y-118011200D02*
X173589000Y-116468000D01*
X167239000Y-131200000D02*
X172045800Y-126393200D01*
X171337800Y-117449200D02*
X173589000Y-115198000D01*
X190099000Y-118500000D02*
X183749000Y-112150000D01*
X173589000Y-112658000D02*
X169921800Y-116325200D01*
X173589000Y-108848000D02*
X173589000Y-108861526D01*
X186000200Y-127101200D02*
X190099000Y-131200000D01*
X173589000Y-127390000D02*
X173589000Y-117738000D01*
X183749000Y-113420000D02*
X188832200Y-118503200D01*
X185527000Y-106308000D02*
X190099000Y-110880000D01*
D13*
X179939000Y-123580000D02*
X179939000Y-103260000D01*
D12*
X179939000Y-128660000D02*
X173589000Y-122310000D01*
X173589000Y-122310000D02*
X173589000Y-117738000D01*
D13*
X167239000Y-100720000D02*
X190099000Y-100720000D01*
D12*
X183749000Y-106308000D02*
X185527000Y-106308000D01*
X173589000Y-108861526D02*
X167239000Y-115211526D01*
X167239000Y-126120000D02*
X170629800Y-122729200D01*
X184257000Y-107578000D02*
X190099000Y-113420000D01*
X167239000Y-113420000D02*
X167493000Y-113166000D01*
X169213800Y-115763200D02*
X173589000Y-111388000D01*
X185292200Y-128933200D02*
X190099000Y-133740000D01*
X169921800Y-120897200D02*
X167239000Y-123580000D01*
X167493000Y-113166000D02*
X168001000Y-113166000D01*
X167239000Y-121040000D02*
X169213800Y-119065200D01*
X183749000Y-119770000D02*
X185292200Y-121313200D01*
X186708200Y-120189200D02*
X186708200Y-125269200D01*
X183749000Y-118500000D02*
X186000200Y-120751200D01*
X186000200Y-120751200D02*
X186000200Y-127101200D01*
X170629800Y-116887200D02*
X173589000Y-113928000D01*
X183749000Y-107578000D02*
X184257000Y-107578000D01*
X171811000Y-106308000D02*
X167239000Y-110880000D01*
X170629800Y-122729200D02*
X170629800Y-116887200D01*
X185292200Y-121313200D02*
X185292200Y-128933200D01*
X169213800Y-119065200D02*
X169213800Y-115763200D01*
X169921800Y-116325200D02*
X169921800Y-120897200D01*
X186708200Y-125269200D02*
X190099000Y-128660000D01*
X168001000Y-113166000D02*
X173589000Y-107578000D01*
X154539000Y-126120000D02*
X148943000Y-120524000D01*
X148943000Y-120524000D02*
X148943000Y-117222000D01*
X148943000Y-117222000D02*
X148189000Y-116468000D01*
X141839000Y-133740000D02*
X148189000Y-127390000D01*
X141839000Y-118500000D02*
X143105800Y-117233200D01*
X158349000Y-114690000D02*
X162724200Y-119065200D01*
X163432200Y-119773200D02*
X164699000Y-121040000D01*
X146645800Y-126393200D02*
X146645800Y-118011200D01*
X141839000Y-128660000D02*
X145937800Y-124561200D01*
X141839000Y-115211526D02*
X141839000Y-115960000D01*
X148189000Y-106308000D02*
X146411000Y-106308000D01*
X162016200Y-119627200D02*
X162016200Y-123437200D01*
D13*
X141839000Y-103260000D02*
X154539000Y-103260000D01*
X154539000Y-103260000D02*
X154539000Y-105800000D01*
X154539000Y-105800000D02*
X164699000Y-115960000D01*
D12*
X145937800Y-124561200D02*
X145937800Y-117449200D01*
X162724200Y-121605200D02*
X164699000Y-123580000D01*
X163432200Y-118503200D02*
X163432200Y-119773200D01*
X143105800Y-115201200D02*
X148189000Y-110118000D01*
X162724200Y-119065200D02*
X162724200Y-121605200D01*
X158349000Y-117230000D02*
X161308200Y-120189200D01*
X162016200Y-123437200D02*
X164699000Y-126120000D01*
X143105800Y-117233200D02*
X143105800Y-115201200D01*
X158349000Y-115960000D02*
X162016200Y-119627200D01*
X146645800Y-118011200D02*
X148189000Y-116468000D01*
X141839000Y-131200000D02*
X146645800Y-126393200D01*
X145937800Y-117449200D02*
X148189000Y-115198000D01*
X164699000Y-118500000D02*
X158349000Y-112150000D01*
X148189000Y-112658000D02*
X144521800Y-116325200D01*
X148189000Y-108848000D02*
X148189000Y-108861526D01*
X160600200Y-127101200D02*
X164699000Y-131200000D01*
X148189000Y-127390000D02*
X148189000Y-117738000D01*
X158349000Y-113420000D02*
X163432200Y-118503200D01*
X160127000Y-106308000D02*
X164699000Y-110880000D01*
D13*
X154539000Y-123580000D02*
X154539000Y-103260000D01*
D12*
X154539000Y-128660000D02*
X148189000Y-122310000D01*
X148189000Y-122310000D02*
X148189000Y-117738000D01*
D13*
X141839000Y-100720000D02*
X164699000Y-100720000D01*
D12*
X158349000Y-106308000D02*
X160127000Y-106308000D01*
X148189000Y-108861526D02*
X141839000Y-115211526D01*
X141839000Y-126120000D02*
X145229800Y-122729200D01*
X158857000Y-107578000D02*
X164699000Y-113420000D01*
X141839000Y-113420000D02*
X142093000Y-113166000D01*
X143813800Y-115763200D02*
X148189000Y-111388000D01*
X159892200Y-128933200D02*
X164699000Y-133740000D01*
X144521800Y-120897200D02*
X141839000Y-123580000D01*
X142093000Y-113166000D02*
X142601000Y-113166000D01*
X141839000Y-121040000D02*
X143813800Y-119065200D01*
X158349000Y-119770000D02*
X159892200Y-121313200D01*
X161308200Y-120189200D02*
X161308200Y-125269200D01*
X158349000Y-118500000D02*
X160600200Y-120751200D01*
X160600200Y-120751200D02*
X160600200Y-127101200D01*
X145229800Y-116887200D02*
X148189000Y-113928000D01*
X158349000Y-107578000D02*
X158857000Y-107578000D01*
X146411000Y-106308000D02*
X141839000Y-110880000D01*
X145229800Y-122729200D02*
X145229800Y-116887200D01*
X159892200Y-121313200D02*
X159892200Y-128933200D01*
X143813800Y-119065200D02*
X143813800Y-115763200D01*
X144521800Y-116325200D02*
X144521800Y-120897200D01*
X161308200Y-125269200D02*
X164699000Y-128660000D01*
X142601000Y-113166000D02*
X148189000Y-107578000D01*
X129139000Y-126120000D02*
X123543000Y-120524000D01*
X123543000Y-120524000D02*
X123543000Y-117222000D01*
X123543000Y-117222000D02*
X122789000Y-116468000D01*
X116439000Y-133740000D02*
X122789000Y-127390000D01*
X116439000Y-118500000D02*
X117705800Y-117233200D01*
X132949000Y-114690000D02*
X137324200Y-119065200D01*
X138032200Y-119773200D02*
X139299000Y-121040000D01*
X121245800Y-126393200D02*
X121245800Y-118011200D01*
X116439000Y-128660000D02*
X120537800Y-124561200D01*
X116439000Y-115211526D02*
X116439000Y-115960000D01*
X122789000Y-106308000D02*
X121011000Y-106308000D01*
X136616200Y-119627200D02*
X136616200Y-123437200D01*
D13*
X116439000Y-103260000D02*
X129139000Y-103260000D01*
X129139000Y-103260000D02*
X129139000Y-105800000D01*
X129139000Y-105800000D02*
X139299000Y-115960000D01*
D12*
X120537800Y-124561200D02*
X120537800Y-117449200D01*
X137324200Y-121605200D02*
X139299000Y-123580000D01*
X138032200Y-118503200D02*
X138032200Y-119773200D01*
X117705800Y-115201200D02*
X122789000Y-110118000D01*
X137324200Y-119065200D02*
X137324200Y-121605200D01*
X132949000Y-117230000D02*
X135908200Y-120189200D01*
X136616200Y-123437200D02*
X139299000Y-126120000D01*
X117705800Y-117233200D02*
X117705800Y-115201200D01*
X132949000Y-115960000D02*
X136616200Y-119627200D01*
X121245800Y-118011200D02*
X122789000Y-116468000D01*
X116439000Y-131200000D02*
X121245800Y-126393200D01*
X120537800Y-117449200D02*
X122789000Y-115198000D01*
X139299000Y-118500000D02*
X132949000Y-112150000D01*
X122789000Y-112658000D02*
X119121800Y-116325200D01*
X122789000Y-108848000D02*
X122789000Y-108861526D01*
X135200200Y-127101200D02*
X139299000Y-131200000D01*
X122789000Y-127390000D02*
X122789000Y-117738000D01*
X132949000Y-113420000D02*
X138032200Y-118503200D01*
X134727000Y-106308000D02*
X139299000Y-110880000D01*
D13*
X129139000Y-123580000D02*
X129139000Y-103260000D01*
D12*
X129139000Y-128660000D02*
X122789000Y-122310000D01*
X122789000Y-122310000D02*
X122789000Y-117738000D01*
D13*
X116439000Y-100720000D02*
X139299000Y-100720000D01*
D12*
X132949000Y-106308000D02*
X134727000Y-106308000D01*
X122789000Y-108861526D02*
X116439000Y-115211526D01*
X116439000Y-126120000D02*
X119829800Y-122729200D01*
X133457000Y-107578000D02*
X139299000Y-113420000D01*
X116439000Y-113420000D02*
X116693000Y-113166000D01*
X118413800Y-115763200D02*
X122789000Y-111388000D01*
X134492200Y-128933200D02*
X139299000Y-133740000D01*
X119121800Y-120897200D02*
X116439000Y-123580000D01*
X116693000Y-113166000D02*
X117201000Y-113166000D01*
X116439000Y-121040000D02*
X118413800Y-119065200D01*
X132949000Y-119770000D02*
X134492200Y-121313200D01*
X135908200Y-120189200D02*
X135908200Y-125269200D01*
X132949000Y-118500000D02*
X135200200Y-120751200D01*
X135200200Y-120751200D02*
X135200200Y-127101200D01*
X119829800Y-116887200D02*
X122789000Y-113928000D01*
X132949000Y-107578000D02*
X133457000Y-107578000D01*
X121011000Y-106308000D02*
X116439000Y-110880000D01*
X119829800Y-122729200D02*
X119829800Y-116887200D01*
X134492200Y-121313200D02*
X134492200Y-128933200D01*
X118413800Y-119065200D02*
X118413800Y-115763200D01*
X119121800Y-116325200D02*
X119121800Y-120897200D01*
X135908200Y-125269200D02*
X139299000Y-128660000D01*
X117201000Y-113166000D02*
X122789000Y-107578000D01*
X179939000Y-90560000D02*
X174343000Y-84964000D01*
X174343000Y-84964000D02*
X174343000Y-81662000D01*
X174343000Y-81662000D02*
X173589000Y-80908000D01*
X167239000Y-98180000D02*
X173589000Y-91830000D01*
X167239000Y-82940000D02*
X168505800Y-81673200D01*
X183749000Y-79130000D02*
X188124200Y-83505200D01*
X188832200Y-84213200D02*
X190099000Y-85480000D01*
X172045800Y-90833200D02*
X172045800Y-82451200D01*
X167239000Y-93100000D02*
X171337800Y-89001200D01*
X167239000Y-79651526D02*
X167239000Y-80400000D01*
X173589000Y-70748000D02*
X171811000Y-70748000D01*
X187416200Y-84067200D02*
X187416200Y-87877200D01*
D13*
X167239000Y-67700000D02*
X179939000Y-67700000D01*
X179939000Y-67700000D02*
X179939000Y-70240000D01*
X179939000Y-70240000D02*
X190099000Y-80400000D01*
D12*
X171337800Y-89001200D02*
X171337800Y-81889200D01*
X188124200Y-86045200D02*
X190099000Y-88020000D01*
X188832200Y-82943200D02*
X188832200Y-84213200D01*
X168505800Y-79641200D02*
X173589000Y-74558000D01*
X188124200Y-83505200D02*
X188124200Y-86045200D01*
X183749000Y-81670000D02*
X186708200Y-84629200D01*
X187416200Y-87877200D02*
X190099000Y-90560000D01*
X168505800Y-81673200D02*
X168505800Y-79641200D01*
X183749000Y-80400000D02*
X187416200Y-84067200D01*
X172045800Y-82451200D02*
X173589000Y-80908000D01*
X167239000Y-95640000D02*
X172045800Y-90833200D01*
X171337800Y-81889200D02*
X173589000Y-79638000D01*
X190099000Y-82940000D02*
X183749000Y-76590000D01*
X173589000Y-77098000D02*
X169921800Y-80765200D01*
X173589000Y-73288000D02*
X173589000Y-73301526D01*
X186000200Y-91541200D02*
X190099000Y-95640000D01*
X173589000Y-91830000D02*
X173589000Y-82178000D01*
X183749000Y-77860000D02*
X188832200Y-82943200D01*
X185527000Y-70748000D02*
X190099000Y-75320000D01*
D13*
X179939000Y-88020000D02*
X179939000Y-67700000D01*
D12*
X179939000Y-93100000D02*
X173589000Y-86750000D01*
X173589000Y-86750000D02*
X173589000Y-82178000D01*
D13*
X167239000Y-65160000D02*
X190099000Y-65160000D01*
D12*
X183749000Y-70748000D02*
X185527000Y-70748000D01*
X173589000Y-73301526D02*
X167239000Y-79651526D01*
X167239000Y-90560000D02*
X170629800Y-87169200D01*
X184257000Y-72018000D02*
X190099000Y-77860000D01*
X167239000Y-77860000D02*
X167493000Y-77606000D01*
X169213800Y-80203200D02*
X173589000Y-75828000D01*
X185292200Y-93373200D02*
X190099000Y-98180000D01*
X169921800Y-85337200D02*
X167239000Y-88020000D01*
X167493000Y-77606000D02*
X168001000Y-77606000D01*
X167239000Y-85480000D02*
X169213800Y-83505200D01*
X183749000Y-84210000D02*
X185292200Y-85753200D01*
X186708200Y-84629200D02*
X186708200Y-89709200D01*
X183749000Y-82940000D02*
X186000200Y-85191200D01*
X186000200Y-85191200D02*
X186000200Y-91541200D01*
X170629800Y-81327200D02*
X173589000Y-78368000D01*
X183749000Y-72018000D02*
X184257000Y-72018000D01*
X171811000Y-70748000D02*
X167239000Y-75320000D01*
X170629800Y-87169200D02*
X170629800Y-81327200D01*
X185292200Y-85753200D02*
X185292200Y-93373200D01*
X169213800Y-83505200D02*
X169213800Y-80203200D01*
X169921800Y-80765200D02*
X169921800Y-85337200D01*
X186708200Y-89709200D02*
X190099000Y-93100000D01*
X168001000Y-77606000D02*
X173589000Y-72018000D01*
X154539000Y-90560000D02*
X148943000Y-84964000D01*
X148943000Y-84964000D02*
X148943000Y-81662000D01*
X148943000Y-81662000D02*
X148189000Y-80908000D01*
X141839000Y-98180000D02*
X148189000Y-91830000D01*
X141839000Y-82940000D02*
X143105800Y-81673200D01*
X158349000Y-79130000D02*
X162724200Y-83505200D01*
X163432200Y-84213200D02*
X164699000Y-85480000D01*
X146645800Y-90833200D02*
X146645800Y-82451200D01*
X141839000Y-93100000D02*
X145937800Y-89001200D01*
X141839000Y-79651526D02*
X141839000Y-80400000D01*
X148189000Y-70748000D02*
X146411000Y-70748000D01*
X162016200Y-84067200D02*
X162016200Y-87877200D01*
D13*
X141839000Y-67700000D02*
X154539000Y-67700000D01*
X154539000Y-67700000D02*
X154539000Y-70240000D01*
X154539000Y-70240000D02*
X164699000Y-80400000D01*
D12*
X145937800Y-89001200D02*
X145937800Y-81889200D01*
X162724200Y-86045200D02*
X164699000Y-88020000D01*
X163432200Y-82943200D02*
X163432200Y-84213200D01*
X143105800Y-79641200D02*
X148189000Y-74558000D01*
X162724200Y-83505200D02*
X162724200Y-86045200D01*
X158349000Y-81670000D02*
X161308200Y-84629200D01*
X162016200Y-87877200D02*
X164699000Y-90560000D01*
X143105800Y-81673200D02*
X143105800Y-79641200D01*
X158349000Y-80400000D02*
X162016200Y-84067200D01*
X146645800Y-82451200D02*
X148189000Y-80908000D01*
X141839000Y-95640000D02*
X146645800Y-90833200D01*
X145937800Y-81889200D02*
X148189000Y-79638000D01*
X164699000Y-82940000D02*
X158349000Y-76590000D01*
X148189000Y-77098000D02*
X144521800Y-80765200D01*
X148189000Y-73288000D02*
X148189000Y-73301526D01*
X160600200Y-91541200D02*
X164699000Y-95640000D01*
X148189000Y-91830000D02*
X148189000Y-82178000D01*
X158349000Y-77860000D02*
X163432200Y-82943200D01*
X160127000Y-70748000D02*
X164699000Y-75320000D01*
D13*
X154539000Y-88020000D02*
X154539000Y-67700000D01*
D12*
X154539000Y-93100000D02*
X148189000Y-86750000D01*
X148189000Y-86750000D02*
X148189000Y-82178000D01*
D13*
X141839000Y-65160000D02*
X164699000Y-65160000D01*
D12*
X158349000Y-70748000D02*
X160127000Y-70748000D01*
X148189000Y-73301526D02*
X141839000Y-79651526D01*
X141839000Y-90560000D02*
X145229800Y-87169200D01*
X158857000Y-72018000D02*
X164699000Y-77860000D01*
X141839000Y-77860000D02*
X142093000Y-77606000D01*
X143813800Y-80203200D02*
X148189000Y-75828000D01*
X159892200Y-93373200D02*
X164699000Y-98180000D01*
X144521800Y-85337200D02*
X141839000Y-88020000D01*
X142093000Y-77606000D02*
X142601000Y-77606000D01*
X141839000Y-85480000D02*
X143813800Y-83505200D01*
X158349000Y-84210000D02*
X159892200Y-85753200D01*
X161308200Y-84629200D02*
X161308200Y-89709200D01*
X158349000Y-82940000D02*
X160600200Y-85191200D01*
X160600200Y-85191200D02*
X160600200Y-91541200D01*
X145229800Y-81327200D02*
X148189000Y-78368000D01*
X158349000Y-72018000D02*
X158857000Y-72018000D01*
X146411000Y-70748000D02*
X141839000Y-75320000D01*
X145229800Y-87169200D02*
X145229800Y-81327200D01*
X159892200Y-85753200D02*
X159892200Y-93373200D01*
X143813800Y-83505200D02*
X143813800Y-80203200D01*
X144521800Y-80765200D02*
X144521800Y-85337200D01*
X161308200Y-89709200D02*
X164699000Y-93100000D01*
X142601000Y-77606000D02*
X148189000Y-72018000D01*
X129139000Y-90560000D02*
X123543000Y-84964000D01*
X123543000Y-84964000D02*
X123543000Y-81662000D01*
X123543000Y-81662000D02*
X122789000Y-80908000D01*
X116439000Y-98180000D02*
X122789000Y-91830000D01*
X122789000Y-91830000D02*
X122789000Y-82178000D01*
D13*
X129139000Y-88020000D02*
X129139000Y-67700000D01*
D12*
X129139000Y-93100000D02*
X122789000Y-86750000D01*
X122789000Y-86750000D02*
X122789000Y-82178000D01*
D13*
X116439000Y-67700000D02*
X129139000Y-67700000D01*
X129139000Y-67700000D02*
X129139000Y-70240000D01*
X116439000Y-65160000D02*
X139299000Y-65160000D01*
X129139000Y-70240000D02*
X139299000Y-80400000D01*
D12*
X121245800Y-90833200D02*
X121245800Y-82451200D01*
X121245800Y-82451200D02*
X122789000Y-80908000D01*
X116439000Y-93100000D02*
X120537800Y-89001200D01*
X132949000Y-77860000D02*
X138032200Y-82943200D01*
X132949000Y-70748000D02*
X134727000Y-70748000D01*
X120537800Y-89001200D02*
X120537800Y-81889200D01*
X116439000Y-95640000D02*
X121245800Y-90833200D01*
X137324200Y-86045200D02*
X139299000Y-88020000D01*
X138032200Y-82943200D02*
X138032200Y-84213200D01*
X120537800Y-81889200D02*
X122789000Y-79638000D01*
X132949000Y-79130000D02*
X137324200Y-83505200D01*
X138032200Y-84213200D02*
X139299000Y-85480000D01*
X137324200Y-83505200D02*
X137324200Y-86045200D01*
X134727000Y-70748000D02*
X139299000Y-75320000D01*
X136616200Y-87877200D02*
X139299000Y-90560000D01*
X136616200Y-84067200D02*
X136616200Y-87877200D01*
X132949000Y-81670000D02*
X135908200Y-84629200D01*
X132949000Y-80400000D02*
X136616200Y-84067200D01*
X139299000Y-82940000D02*
X132949000Y-76590000D01*
X117705800Y-81673200D02*
X117705800Y-79641200D01*
X117705800Y-79641200D02*
X122789000Y-74558000D01*
X122789000Y-73301526D02*
X116439000Y-79651526D01*
X122789000Y-73288000D02*
X122789000Y-73301526D01*
X116439000Y-79651526D02*
X116439000Y-80400000D01*
X116439000Y-82940000D02*
X117705800Y-81673200D01*
X135200200Y-91541200D02*
X139299000Y-95640000D01*
X122789000Y-77098000D02*
X119121800Y-80765200D01*
X122789000Y-70748000D02*
X121011000Y-70748000D01*
X118413800Y-80203200D02*
X122789000Y-75828000D01*
X116693000Y-77606000D02*
X117201000Y-77606000D01*
X132949000Y-82940000D02*
X135200200Y-85191200D01*
X135200200Y-85191200D02*
X135200200Y-91541200D01*
X133457000Y-72018000D02*
X139299000Y-77860000D01*
X134492200Y-93373200D02*
X139299000Y-98180000D01*
X116439000Y-85480000D02*
X118413800Y-83505200D01*
X132949000Y-84210000D02*
X134492200Y-85753200D01*
X116439000Y-90560000D02*
X119829800Y-87169200D01*
X119121800Y-85337200D02*
X116439000Y-88020000D01*
X134492200Y-85753200D02*
X134492200Y-93373200D01*
X118413800Y-83505200D02*
X118413800Y-80203200D01*
X119121800Y-80765200D02*
X119121800Y-85337200D01*
X135908200Y-89709200D02*
X139299000Y-93100000D01*
X135908200Y-84629200D02*
X135908200Y-89709200D01*
X121011000Y-70748000D02*
X116439000Y-75320000D01*
X116439000Y-77860000D02*
X116693000Y-77606000D01*
X117201000Y-77606000D02*
X122789000Y-72018000D01*
X132949000Y-72018000D02*
X133457000Y-72018000D01*
X119829800Y-87169200D02*
X119829800Y-81327200D01*
X119829800Y-81327200D02*
X122789000Y-78368000D01*
G04 #@! TA.AperFunction,Conductor*
G36*
X130352703Y-72880383D02*
G01*
X130359180Y-72886414D01*
X133045758Y-75572992D01*
X133079242Y-75634314D01*
X133074258Y-75704006D01*
X133032386Y-75759939D01*
X132966922Y-75784356D01*
X132955964Y-75784135D01*
X132955964Y-75784435D01*
X132948996Y-75784435D01*
X132769750Y-75804630D01*
X132769745Y-75804631D01*
X132599476Y-75864211D01*
X132446737Y-75960184D01*
X132319184Y-76087737D01*
X132223211Y-76240476D01*
X132163631Y-76410745D01*
X132163630Y-76410750D01*
X132143435Y-76589996D01*
X132143435Y-76590003D01*
X132163630Y-76769249D01*
X132163631Y-76769254D01*
X132223211Y-76939523D01*
X132319184Y-77092262D01*
X132319185Y-77092263D01*
X132364241Y-77137320D01*
X132397725Y-77198643D01*
X132392740Y-77268335D01*
X132364241Y-77312680D01*
X132319184Y-77357737D01*
X132223211Y-77510476D01*
X132163631Y-77680745D01*
X132163630Y-77680750D01*
X132143435Y-77859996D01*
X132143435Y-77860003D01*
X132163630Y-78039249D01*
X132163631Y-78039254D01*
X132223211Y-78209523D01*
X132319184Y-78362262D01*
X132319185Y-78362263D01*
X132364241Y-78407320D01*
X132397725Y-78468643D01*
X132392740Y-78538335D01*
X132364241Y-78582680D01*
X132319184Y-78627737D01*
X132223211Y-78780476D01*
X132163631Y-78950745D01*
X132163630Y-78950750D01*
X132143435Y-79129996D01*
X132143435Y-79130003D01*
X132163630Y-79309249D01*
X132163631Y-79309254D01*
X132223211Y-79479523D01*
X132319184Y-79632262D01*
X132319185Y-79632263D01*
X132364241Y-79677320D01*
X132397725Y-79738643D01*
X132392740Y-79808335D01*
X132364241Y-79852680D01*
X132319184Y-79897737D01*
X132223211Y-80050476D01*
X132163631Y-80220745D01*
X132163630Y-80220750D01*
X132143435Y-80399996D01*
X132143435Y-80400003D01*
X132163630Y-80579249D01*
X132163631Y-80579254D01*
X132223211Y-80749523D01*
X132319184Y-80902262D01*
X132319185Y-80902263D01*
X132364241Y-80947320D01*
X132397725Y-81008643D01*
X132392740Y-81078335D01*
X132364241Y-81122680D01*
X132319184Y-81167737D01*
X132223211Y-81320476D01*
X132163631Y-81490745D01*
X132163630Y-81490750D01*
X132143435Y-81669996D01*
X132143435Y-81670003D01*
X132163630Y-81849249D01*
X132163631Y-81849254D01*
X132223211Y-82019523D01*
X132319184Y-82172262D01*
X132319185Y-82172263D01*
X132364241Y-82217320D01*
X132397725Y-82278643D01*
X132392740Y-82348335D01*
X132364241Y-82392680D01*
X132319184Y-82437737D01*
X132223211Y-82590476D01*
X132163631Y-82760745D01*
X132163630Y-82760750D01*
X132143435Y-82939996D01*
X132143435Y-82940003D01*
X132163630Y-83119249D01*
X132163631Y-83119254D01*
X132223211Y-83289523D01*
X132319184Y-83442262D01*
X132319185Y-83442263D01*
X132364241Y-83487320D01*
X132397725Y-83548643D01*
X132392740Y-83618335D01*
X132364241Y-83662680D01*
X132319184Y-83707737D01*
X132223211Y-83860476D01*
X132163631Y-84030745D01*
X132163630Y-84030750D01*
X132143435Y-84209996D01*
X132143435Y-84210003D01*
X132163630Y-84389249D01*
X132163631Y-84389254D01*
X132223211Y-84559523D01*
X132265278Y-84626471D01*
X132319184Y-84712262D01*
X132446738Y-84839816D01*
X132535320Y-84895476D01*
X132605374Y-84939494D01*
X132604868Y-84940298D01*
X132630360Y-84958385D01*
X133701381Y-86029405D01*
X133734866Y-86090728D01*
X133737700Y-86117086D01*
X133737700Y-93293752D01*
X133737699Y-93293778D01*
X133737699Y-93298888D01*
X133737699Y-93447512D01*
X133737699Y-93447514D01*
X133737698Y-93447514D01*
X133766693Y-93593273D01*
X133766696Y-93593283D01*
X133823566Y-93730581D01*
X133823572Y-93730592D01*
X133906142Y-93854168D01*
X133906143Y-93854169D01*
X137960012Y-97908037D01*
X137993497Y-97969360D01*
X137995859Y-98006525D01*
X137980683Y-98179997D01*
X137980683Y-98180001D01*
X138000710Y-98408917D01*
X138000712Y-98408928D01*
X138060184Y-98630883D01*
X138060186Y-98630887D01*
X138060187Y-98630891D01*
X138126498Y-98773095D01*
X138136990Y-98842173D01*
X138108470Y-98905957D01*
X138049994Y-98944196D01*
X138014116Y-98949500D01*
X117723884Y-98949500D01*
X117656845Y-98929815D01*
X117611090Y-98877011D01*
X117601146Y-98807853D01*
X117611502Y-98773095D01*
X117677813Y-98630891D01*
X117737289Y-98408923D01*
X117757317Y-98180000D01*
X117742140Y-98006524D01*
X117755907Y-97938024D01*
X117777984Y-97908039D01*
X123269963Y-92416060D01*
X123269966Y-92416059D01*
X123375059Y-92310966D01*
X123457629Y-92187390D01*
X123514505Y-92050080D01*
X123520057Y-92022166D01*
X123543501Y-91904312D01*
X123543501Y-91755688D01*
X123543501Y-91750578D01*
X123543500Y-91750552D01*
X123543500Y-88870886D01*
X123563185Y-88803847D01*
X123615989Y-88758092D01*
X123685147Y-88748148D01*
X123748703Y-88777173D01*
X123755180Y-88783204D01*
X125794699Y-90822724D01*
X127800012Y-92828037D01*
X127833497Y-92889360D01*
X127835859Y-92926525D01*
X127820683Y-93099997D01*
X127820683Y-93100001D01*
X127840710Y-93328917D01*
X127840712Y-93328928D01*
X127900184Y-93550883D01*
X127900186Y-93550887D01*
X127900187Y-93550891D01*
X127997304Y-93759159D01*
X128129111Y-93947398D01*
X128291602Y-94109889D01*
X128479841Y-94241696D01*
X128688109Y-94338813D01*
X128910077Y-94398289D01*
X129073593Y-94412594D01*
X129138998Y-94418317D01*
X129139000Y-94418317D01*
X129139002Y-94418317D01*
X129196230Y-94413310D01*
X129367923Y-94398289D01*
X129589891Y-94338813D01*
X129798159Y-94241696D01*
X129986398Y-94109889D01*
X130148889Y-93947398D01*
X130280696Y-93759159D01*
X130377813Y-93550891D01*
X130437289Y-93328923D01*
X130457317Y-93100000D01*
X130453308Y-93054182D01*
X130442140Y-92926524D01*
X130437289Y-92871077D01*
X130377813Y-92649109D01*
X130280696Y-92440842D01*
X130270493Y-92426271D01*
X130148892Y-92252606D01*
X130148887Y-92252600D01*
X129986398Y-92090111D01*
X129798165Y-91958308D01*
X129798162Y-91958306D01*
X129798159Y-91958304D01*
X129764013Y-91942381D01*
X129711574Y-91896210D01*
X129692422Y-91829017D01*
X129712637Y-91762136D01*
X129764014Y-91717618D01*
X129798159Y-91701696D01*
X129986398Y-91569889D01*
X130148889Y-91407398D01*
X130280696Y-91219159D01*
X130377813Y-91010891D01*
X130437289Y-90788923D01*
X130457317Y-90560000D01*
X130453308Y-90514182D01*
X130442140Y-90386524D01*
X130437289Y-90331077D01*
X130377813Y-90109109D01*
X130280696Y-89900842D01*
X130148889Y-89712602D01*
X129986398Y-89550111D01*
X129908499Y-89495565D01*
X129798165Y-89418308D01*
X129798162Y-89418306D01*
X129798159Y-89418304D01*
X129764013Y-89402381D01*
X129711574Y-89356210D01*
X129692422Y-89289017D01*
X129712637Y-89222136D01*
X129764014Y-89177618D01*
X129764713Y-89177292D01*
X129798159Y-89161696D01*
X129986398Y-89029889D01*
X130148889Y-88867398D01*
X130280696Y-88679159D01*
X130377813Y-88470891D01*
X130437289Y-88248923D01*
X130457317Y-88020000D01*
X130453308Y-87974182D01*
X130442140Y-87846524D01*
X130437289Y-87791077D01*
X130377813Y-87569109D01*
X130280696Y-87360842D01*
X130280695Y-87360840D01*
X130169925Y-87202643D01*
X130147598Y-87136437D01*
X130147500Y-87131520D01*
X130147500Y-72974096D01*
X130167185Y-72907057D01*
X130219989Y-72861302D01*
X130289147Y-72851358D01*
X130352703Y-72880383D01*
G37*
G04 #@! TD.AperFunction*
G04 #@! TA.AperFunction,Conductor*
G36*
X140011539Y-64410185D02*
G01*
X140057294Y-64462989D01*
X140068500Y-64514500D01*
X140068500Y-66415116D01*
X140048815Y-66482155D01*
X139996011Y-66527910D01*
X139926853Y-66537854D01*
X139892095Y-66527498D01*
X139853434Y-66509470D01*
X139749891Y-66461187D01*
X139749887Y-66461186D01*
X139749883Y-66461184D01*
X139527928Y-66401712D01*
X139527924Y-66401711D01*
X139527923Y-66401711D01*
X139527922Y-66401710D01*
X139527917Y-66401710D01*
X139299002Y-66381683D01*
X139298998Y-66381683D01*
X139070082Y-66401710D01*
X139070071Y-66401712D01*
X138848116Y-66461184D01*
X138848107Y-66461188D01*
X138639842Y-66558303D01*
X138639840Y-66558304D01*
X138451606Y-66690107D01*
X138451600Y-66690112D01*
X138289112Y-66852600D01*
X138289107Y-66852606D01*
X138157304Y-67040840D01*
X138157303Y-67040842D01*
X138060188Y-67249107D01*
X138060184Y-67249116D01*
X138000712Y-67471071D01*
X138000710Y-67471082D01*
X137980683Y-67699998D01*
X137980683Y-67700001D01*
X138000710Y-67928917D01*
X138000712Y-67928928D01*
X138060184Y-68150883D01*
X138060186Y-68150887D01*
X138060187Y-68150891D01*
X138157304Y-68359159D01*
X138289111Y-68547398D01*
X138451602Y-68709889D01*
X138639841Y-68841696D01*
X138673986Y-68857618D01*
X138726425Y-68903791D01*
X138745577Y-68970984D01*
X138725361Y-69037865D01*
X138673986Y-69082382D01*
X138639842Y-69098303D01*
X138639840Y-69098304D01*
X138451606Y-69230107D01*
X138451600Y-69230112D01*
X138289112Y-69392600D01*
X138289107Y-69392606D01*
X138157304Y-69580840D01*
X138157303Y-69580842D01*
X138060188Y-69789107D01*
X138060184Y-69789116D01*
X138000712Y-70011071D01*
X138000710Y-70011082D01*
X137980683Y-70239998D01*
X137980683Y-70240001D01*
X138000710Y-70468917D01*
X138000712Y-70468928D01*
X138060184Y-70690883D01*
X138060186Y-70690887D01*
X138060187Y-70690891D01*
X138157304Y-70899159D01*
X138289111Y-71087398D01*
X138451602Y-71249889D01*
X138639841Y-71381696D01*
X138673986Y-71397618D01*
X138726425Y-71443791D01*
X138745577Y-71510984D01*
X138725361Y-71577865D01*
X138673986Y-71622382D01*
X138639842Y-71638303D01*
X138639840Y-71638304D01*
X138451606Y-71770107D01*
X138451600Y-71770112D01*
X138289112Y-71932600D01*
X138289107Y-71932606D01*
X138157304Y-72120840D01*
X138157303Y-72120842D01*
X138060188Y-72329107D01*
X138060184Y-72329116D01*
X138000712Y-72551071D01*
X138000710Y-72551081D01*
X137991416Y-72657309D01*
X137965963Y-72722378D01*
X137909372Y-72763356D01*
X137839610Y-72767233D01*
X137780207Y-72734182D01*
X135207969Y-70161943D01*
X135207968Y-70161942D01*
X135084392Y-70079372D01*
X135084391Y-70079371D01*
X135084389Y-70079370D01*
X135084386Y-70079368D01*
X135084381Y-70079366D01*
X134994891Y-70042299D01*
X134994889Y-70042298D01*
X134947084Y-70022496D01*
X134947080Y-70022495D01*
X134945652Y-70022211D01*
X134922894Y-70017684D01*
X134889680Y-70011077D01*
X134801314Y-69993499D01*
X134801312Y-69993499D01*
X134652688Y-69993499D01*
X134646574Y-69993499D01*
X134646554Y-69993500D01*
X133237540Y-69993500D01*
X133196585Y-69986541D01*
X133128262Y-69962633D01*
X133128249Y-69962630D01*
X132949004Y-69942435D01*
X132948996Y-69942435D01*
X132769750Y-69962630D01*
X132769745Y-69962631D01*
X132599476Y-70022211D01*
X132446737Y-70118184D01*
X132319184Y-70245737D01*
X132223211Y-70398476D01*
X132163631Y-70568745D01*
X132163630Y-70568750D01*
X132143435Y-70747996D01*
X132143435Y-70748003D01*
X132163630Y-70927249D01*
X132163631Y-70927254D01*
X132223211Y-71097523D01*
X132319184Y-71250262D01*
X132319185Y-71250263D01*
X132364241Y-71295320D01*
X132397725Y-71356643D01*
X132392740Y-71426335D01*
X132364241Y-71470680D01*
X132319184Y-71515737D01*
X132219506Y-71674374D01*
X132217786Y-71673293D01*
X132177616Y-71717785D01*
X132110189Y-71736097D01*
X132043565Y-71715048D01*
X132025039Y-71699804D01*
X130183819Y-69858584D01*
X130150334Y-69797261D01*
X130147500Y-69770903D01*
X130147500Y-67600670D01*
X130147499Y-67600666D01*
X130108745Y-67405838D01*
X130108744Y-67405831D01*
X130032721Y-67222296D01*
X130032720Y-67222295D01*
X130032717Y-67222289D01*
X129922353Y-67057119D01*
X129922350Y-67057115D01*
X129781884Y-66916649D01*
X129781880Y-66916646D01*
X129616710Y-66806282D01*
X129616701Y-66806277D01*
X129433169Y-66730256D01*
X129433161Y-66730254D01*
X129238333Y-66691500D01*
X129238329Y-66691500D01*
X117327478Y-66691500D01*
X117260439Y-66671815D01*
X117256354Y-66669074D01*
X117098165Y-66558308D01*
X117098159Y-66558304D01*
X117098157Y-66558303D01*
X116889891Y-66461187D01*
X116889887Y-66461186D01*
X116889883Y-66461184D01*
X116667928Y-66401712D01*
X116667924Y-66401711D01*
X116667923Y-66401711D01*
X116667922Y-66401710D01*
X116667917Y-66401710D01*
X116439002Y-66381683D01*
X116438998Y-66381683D01*
X116210082Y-66401710D01*
X116210071Y-66401712D01*
X115988116Y-66461184D01*
X115988107Y-66461188D01*
X115845905Y-66527498D01*
X115776827Y-66537990D01*
X115713043Y-66509470D01*
X115674804Y-66450994D01*
X115669500Y-66415116D01*
X115669500Y-64514500D01*
X115689185Y-64447461D01*
X115741989Y-64401706D01*
X115793500Y-64390500D01*
X139944500Y-64390500D01*
X140011539Y-64410185D01*
G37*
G04 #@! TD.AperFunction*
G04 #@! TA.AperFunction,Conductor*
G36*
X155752703Y-72880383D02*
G01*
X155759180Y-72886414D01*
X158445758Y-75572992D01*
X158479242Y-75634314D01*
X158474258Y-75704006D01*
X158432386Y-75759939D01*
X158366922Y-75784356D01*
X158355964Y-75784135D01*
X158355964Y-75784435D01*
X158348996Y-75784435D01*
X158169750Y-75804630D01*
X158169745Y-75804631D01*
X157999476Y-75864211D01*
X157846737Y-75960184D01*
X157719184Y-76087737D01*
X157623211Y-76240476D01*
X157563631Y-76410745D01*
X157563630Y-76410750D01*
X157543435Y-76589996D01*
X157543435Y-76590003D01*
X157563630Y-76769249D01*
X157563631Y-76769254D01*
X157623211Y-76939523D01*
X157719184Y-77092262D01*
X157719185Y-77092263D01*
X157764241Y-77137320D01*
X157797725Y-77198643D01*
X157792740Y-77268335D01*
X157764241Y-77312680D01*
X157719184Y-77357737D01*
X157623211Y-77510476D01*
X157563631Y-77680745D01*
X157563630Y-77680750D01*
X157543435Y-77859996D01*
X157543435Y-77860003D01*
X157563630Y-78039249D01*
X157563631Y-78039254D01*
X157623211Y-78209523D01*
X157719184Y-78362262D01*
X157719185Y-78362263D01*
X157764241Y-78407320D01*
X157797725Y-78468643D01*
X157792740Y-78538335D01*
X157764241Y-78582680D01*
X157719184Y-78627737D01*
X157623211Y-78780476D01*
X157563631Y-78950745D01*
X157563630Y-78950750D01*
X157543435Y-79129996D01*
X157543435Y-79130003D01*
X157563630Y-79309249D01*
X157563631Y-79309254D01*
X157623211Y-79479523D01*
X157719184Y-79632262D01*
X157719185Y-79632263D01*
X157764241Y-79677320D01*
X157797725Y-79738643D01*
X157792740Y-79808335D01*
X157764241Y-79852680D01*
X157719184Y-79897737D01*
X157623211Y-80050476D01*
X157563631Y-80220745D01*
X157563630Y-80220750D01*
X157543435Y-80399996D01*
X157543435Y-80400003D01*
X157563630Y-80579249D01*
X157563631Y-80579254D01*
X157623211Y-80749523D01*
X157719184Y-80902262D01*
X157719185Y-80902263D01*
X157764241Y-80947320D01*
X157797725Y-81008643D01*
X157792740Y-81078335D01*
X157764241Y-81122680D01*
X157719184Y-81167737D01*
X157623211Y-81320476D01*
X157563631Y-81490745D01*
X157563630Y-81490750D01*
X157543435Y-81669996D01*
X157543435Y-81670003D01*
X157563630Y-81849249D01*
X157563631Y-81849254D01*
X157623211Y-82019523D01*
X157719184Y-82172262D01*
X157719185Y-82172263D01*
X157764241Y-82217320D01*
X157797725Y-82278643D01*
X157792740Y-82348335D01*
X157764241Y-82392680D01*
X157719184Y-82437737D01*
X157623211Y-82590476D01*
X157563631Y-82760745D01*
X157563630Y-82760750D01*
X157543435Y-82939996D01*
X157543435Y-82940003D01*
X157563630Y-83119249D01*
X157563631Y-83119254D01*
X157623211Y-83289523D01*
X157719184Y-83442262D01*
X157719185Y-83442263D01*
X157764241Y-83487320D01*
X157797725Y-83548643D01*
X157792740Y-83618335D01*
X157764241Y-83662680D01*
X157719184Y-83707737D01*
X157623211Y-83860476D01*
X157563631Y-84030745D01*
X157563630Y-84030750D01*
X157543435Y-84209996D01*
X157543435Y-84210003D01*
X157563630Y-84389249D01*
X157563631Y-84389254D01*
X157623211Y-84559523D01*
X157665278Y-84626471D01*
X157719184Y-84712262D01*
X157846738Y-84839816D01*
X157935320Y-84895476D01*
X158005374Y-84939494D01*
X158004868Y-84940298D01*
X158030360Y-84958385D01*
X159101381Y-86029405D01*
X159134866Y-86090728D01*
X159137700Y-86117086D01*
X159137700Y-93293752D01*
X159137699Y-93293778D01*
X159137699Y-93298888D01*
X159137699Y-93447512D01*
X159137699Y-93447514D01*
X159137698Y-93447514D01*
X159166693Y-93593273D01*
X159166696Y-93593283D01*
X159223566Y-93730581D01*
X159223572Y-93730592D01*
X159306142Y-93854168D01*
X159306143Y-93854169D01*
X163360012Y-97908037D01*
X163393497Y-97969360D01*
X163395859Y-98006525D01*
X163380683Y-98179997D01*
X163380683Y-98180001D01*
X163400710Y-98408917D01*
X163400712Y-98408928D01*
X163460184Y-98630883D01*
X163460186Y-98630887D01*
X163460187Y-98630891D01*
X163526498Y-98773095D01*
X163536990Y-98842173D01*
X163508470Y-98905957D01*
X163449994Y-98944196D01*
X163414116Y-98949500D01*
X143123884Y-98949500D01*
X143056845Y-98929815D01*
X143011090Y-98877011D01*
X143001146Y-98807853D01*
X143011502Y-98773095D01*
X143077813Y-98630891D01*
X143137289Y-98408923D01*
X143157317Y-98180000D01*
X143142140Y-98006524D01*
X143155907Y-97938024D01*
X143177984Y-97908039D01*
X148669963Y-92416060D01*
X148669966Y-92416059D01*
X148775059Y-92310966D01*
X148857629Y-92187390D01*
X148914505Y-92050080D01*
X148920057Y-92022166D01*
X148943501Y-91904312D01*
X148943501Y-91755688D01*
X148943501Y-91750578D01*
X148943500Y-91750552D01*
X148943500Y-88870886D01*
X148963185Y-88803847D01*
X149015989Y-88758092D01*
X149085147Y-88748148D01*
X149148703Y-88777173D01*
X149155180Y-88783204D01*
X151194699Y-90822724D01*
X153200012Y-92828037D01*
X153233497Y-92889360D01*
X153235859Y-92926525D01*
X153220683Y-93099997D01*
X153220683Y-93100001D01*
X153240710Y-93328917D01*
X153240712Y-93328928D01*
X153300184Y-93550883D01*
X153300186Y-93550887D01*
X153300187Y-93550891D01*
X153397304Y-93759159D01*
X153529111Y-93947398D01*
X153691602Y-94109889D01*
X153879841Y-94241696D01*
X154088109Y-94338813D01*
X154310077Y-94398289D01*
X154473593Y-94412594D01*
X154538998Y-94418317D01*
X154539000Y-94418317D01*
X154539002Y-94418317D01*
X154596230Y-94413310D01*
X154767923Y-94398289D01*
X154989891Y-94338813D01*
X155198159Y-94241696D01*
X155386398Y-94109889D01*
X155548889Y-93947398D01*
X155680696Y-93759159D01*
X155777813Y-93550891D01*
X155837289Y-93328923D01*
X155857317Y-93100000D01*
X155853308Y-93054182D01*
X155842140Y-92926524D01*
X155837289Y-92871077D01*
X155777813Y-92649109D01*
X155680696Y-92440842D01*
X155670493Y-92426271D01*
X155548892Y-92252606D01*
X155548887Y-92252600D01*
X155386398Y-92090111D01*
X155198165Y-91958308D01*
X155198162Y-91958306D01*
X155198159Y-91958304D01*
X155164013Y-91942381D01*
X155111574Y-91896210D01*
X155092422Y-91829017D01*
X155112637Y-91762136D01*
X155164014Y-91717618D01*
X155198159Y-91701696D01*
X155386398Y-91569889D01*
X155548889Y-91407398D01*
X155680696Y-91219159D01*
X155777813Y-91010891D01*
X155837289Y-90788923D01*
X155857317Y-90560000D01*
X155853308Y-90514182D01*
X155842140Y-90386524D01*
X155837289Y-90331077D01*
X155777813Y-90109109D01*
X155680696Y-89900842D01*
X155548889Y-89712602D01*
X155386398Y-89550111D01*
X155308499Y-89495565D01*
X155198165Y-89418308D01*
X155198162Y-89418306D01*
X155198159Y-89418304D01*
X155164013Y-89402381D01*
X155111574Y-89356210D01*
X155092422Y-89289017D01*
X155112637Y-89222136D01*
X155164014Y-89177618D01*
X155164713Y-89177292D01*
X155198159Y-89161696D01*
X155386398Y-89029889D01*
X155548889Y-88867398D01*
X155680696Y-88679159D01*
X155777813Y-88470891D01*
X155837289Y-88248923D01*
X155857317Y-88020000D01*
X155853308Y-87974182D01*
X155842140Y-87846524D01*
X155837289Y-87791077D01*
X155777813Y-87569109D01*
X155680696Y-87360842D01*
X155680695Y-87360840D01*
X155569925Y-87202643D01*
X155547598Y-87136437D01*
X155547500Y-87131520D01*
X155547500Y-72974096D01*
X155567185Y-72907057D01*
X155619989Y-72861302D01*
X155689147Y-72851358D01*
X155752703Y-72880383D01*
G37*
G04 #@! TD.AperFunction*
G04 #@! TA.AperFunction,Conductor*
G36*
X165411539Y-64410185D02*
G01*
X165457294Y-64462989D01*
X165468500Y-64514500D01*
X165468500Y-66415116D01*
X165448815Y-66482155D01*
X165396011Y-66527910D01*
X165326853Y-66537854D01*
X165292095Y-66527498D01*
X165253434Y-66509470D01*
X165149891Y-66461187D01*
X165149887Y-66461186D01*
X165149883Y-66461184D01*
X164927928Y-66401712D01*
X164927924Y-66401711D01*
X164927923Y-66401711D01*
X164927922Y-66401710D01*
X164927917Y-66401710D01*
X164699002Y-66381683D01*
X164698998Y-66381683D01*
X164470082Y-66401710D01*
X164470071Y-66401712D01*
X164248116Y-66461184D01*
X164248107Y-66461188D01*
X164039842Y-66558303D01*
X164039840Y-66558304D01*
X163851606Y-66690107D01*
X163851600Y-66690112D01*
X163689112Y-66852600D01*
X163689107Y-66852606D01*
X163557304Y-67040840D01*
X163557303Y-67040842D01*
X163460188Y-67249107D01*
X163460184Y-67249116D01*
X163400712Y-67471071D01*
X163400710Y-67471082D01*
X163380683Y-67699998D01*
X163380683Y-67700001D01*
X163400710Y-67928917D01*
X163400712Y-67928928D01*
X163460184Y-68150883D01*
X163460186Y-68150887D01*
X163460187Y-68150891D01*
X163557304Y-68359159D01*
X163689111Y-68547398D01*
X163851602Y-68709889D01*
X164039841Y-68841696D01*
X164073986Y-68857618D01*
X164126425Y-68903791D01*
X164145577Y-68970984D01*
X164125361Y-69037865D01*
X164073986Y-69082382D01*
X164039842Y-69098303D01*
X164039840Y-69098304D01*
X163851606Y-69230107D01*
X163851600Y-69230112D01*
X163689112Y-69392600D01*
X163689107Y-69392606D01*
X163557304Y-69580840D01*
X163557303Y-69580842D01*
X163460188Y-69789107D01*
X163460184Y-69789116D01*
X163400712Y-70011071D01*
X163400710Y-70011082D01*
X163380683Y-70239998D01*
X163380683Y-70240001D01*
X163400710Y-70468917D01*
X163400712Y-70468928D01*
X163460184Y-70690883D01*
X163460186Y-70690887D01*
X163460187Y-70690891D01*
X163557304Y-70899159D01*
X163689111Y-71087398D01*
X163851602Y-71249889D01*
X164039841Y-71381696D01*
X164073986Y-71397618D01*
X164126425Y-71443791D01*
X164145577Y-71510984D01*
X164125361Y-71577865D01*
X164073986Y-71622382D01*
X164039842Y-71638303D01*
X164039840Y-71638304D01*
X163851606Y-71770107D01*
X163851600Y-71770112D01*
X163689112Y-71932600D01*
X163689107Y-71932606D01*
X163557304Y-72120840D01*
X163557303Y-72120842D01*
X163460188Y-72329107D01*
X163460184Y-72329116D01*
X163400712Y-72551071D01*
X163400710Y-72551081D01*
X163391416Y-72657309D01*
X163365963Y-72722378D01*
X163309372Y-72763356D01*
X163239610Y-72767233D01*
X163180207Y-72734182D01*
X160607969Y-70161943D01*
X160607968Y-70161942D01*
X160484392Y-70079372D01*
X160484391Y-70079371D01*
X160484389Y-70079370D01*
X160484386Y-70079368D01*
X160484381Y-70079366D01*
X160394891Y-70042299D01*
X160394889Y-70042298D01*
X160347084Y-70022496D01*
X160347080Y-70022495D01*
X160345652Y-70022211D01*
X160322894Y-70017684D01*
X160289680Y-70011077D01*
X160201314Y-69993499D01*
X160201312Y-69993499D01*
X160052688Y-69993499D01*
X160046574Y-69993499D01*
X160046554Y-69993500D01*
X158637540Y-69993500D01*
X158596585Y-69986541D01*
X158528262Y-69962633D01*
X158528249Y-69962630D01*
X158349004Y-69942435D01*
X158348996Y-69942435D01*
X158169750Y-69962630D01*
X158169745Y-69962631D01*
X157999476Y-70022211D01*
X157846737Y-70118184D01*
X157719184Y-70245737D01*
X157623211Y-70398476D01*
X157563631Y-70568745D01*
X157563630Y-70568750D01*
X157543435Y-70747996D01*
X157543435Y-70748003D01*
X157563630Y-70927249D01*
X157563631Y-70927254D01*
X157623211Y-71097523D01*
X157719184Y-71250262D01*
X157719185Y-71250263D01*
X157764241Y-71295320D01*
X157797725Y-71356643D01*
X157792740Y-71426335D01*
X157764241Y-71470680D01*
X157719184Y-71515737D01*
X157619506Y-71674374D01*
X157617786Y-71673293D01*
X157577616Y-71717785D01*
X157510189Y-71736097D01*
X157443565Y-71715048D01*
X157425039Y-71699804D01*
X155583819Y-69858584D01*
X155550334Y-69797261D01*
X155547500Y-69770903D01*
X155547500Y-67600670D01*
X155547499Y-67600666D01*
X155508745Y-67405838D01*
X155508744Y-67405831D01*
X155432721Y-67222296D01*
X155432720Y-67222295D01*
X155432717Y-67222289D01*
X155322353Y-67057119D01*
X155322350Y-67057115D01*
X155181884Y-66916649D01*
X155181880Y-66916646D01*
X155016710Y-66806282D01*
X155016701Y-66806277D01*
X154833169Y-66730256D01*
X154833161Y-66730254D01*
X154638333Y-66691500D01*
X154638329Y-66691500D01*
X142727478Y-66691500D01*
X142660439Y-66671815D01*
X142656354Y-66669074D01*
X142498165Y-66558308D01*
X142498159Y-66558304D01*
X142498157Y-66558303D01*
X142289891Y-66461187D01*
X142289887Y-66461186D01*
X142289883Y-66461184D01*
X142067928Y-66401712D01*
X142067924Y-66401711D01*
X142067923Y-66401711D01*
X142067922Y-66401710D01*
X142067917Y-66401710D01*
X141839002Y-66381683D01*
X141838998Y-66381683D01*
X141610082Y-66401710D01*
X141610071Y-66401712D01*
X141388116Y-66461184D01*
X141388107Y-66461188D01*
X141245905Y-66527498D01*
X141176827Y-66537990D01*
X141113043Y-66509470D01*
X141074804Y-66450994D01*
X141069500Y-66415116D01*
X141069500Y-64514500D01*
X141089185Y-64447461D01*
X141141989Y-64401706D01*
X141193500Y-64390500D01*
X165344500Y-64390500D01*
X165411539Y-64410185D01*
G37*
G04 #@! TD.AperFunction*
G04 #@! TA.AperFunction,Conductor*
G36*
X181152703Y-72880383D02*
G01*
X181159180Y-72886414D01*
X183845758Y-75572992D01*
X183879242Y-75634314D01*
X183874258Y-75704006D01*
X183832386Y-75759939D01*
X183766922Y-75784356D01*
X183755964Y-75784135D01*
X183755964Y-75784435D01*
X183748996Y-75784435D01*
X183569750Y-75804630D01*
X183569745Y-75804631D01*
X183399476Y-75864211D01*
X183246737Y-75960184D01*
X183119184Y-76087737D01*
X183023211Y-76240476D01*
X182963631Y-76410745D01*
X182963630Y-76410750D01*
X182943435Y-76589996D01*
X182943435Y-76590003D01*
X182963630Y-76769249D01*
X182963631Y-76769254D01*
X183023211Y-76939523D01*
X183119184Y-77092262D01*
X183119185Y-77092263D01*
X183164241Y-77137320D01*
X183197725Y-77198643D01*
X183192740Y-77268335D01*
X183164241Y-77312680D01*
X183119184Y-77357737D01*
X183023211Y-77510476D01*
X182963631Y-77680745D01*
X182963630Y-77680750D01*
X182943435Y-77859996D01*
X182943435Y-77860003D01*
X182963630Y-78039249D01*
X182963631Y-78039254D01*
X183023211Y-78209523D01*
X183119184Y-78362262D01*
X183119185Y-78362263D01*
X183164241Y-78407320D01*
X183197725Y-78468643D01*
X183192740Y-78538335D01*
X183164241Y-78582680D01*
X183119184Y-78627737D01*
X183023211Y-78780476D01*
X182963631Y-78950745D01*
X182963630Y-78950750D01*
X182943435Y-79129996D01*
X182943435Y-79130003D01*
X182963630Y-79309249D01*
X182963631Y-79309254D01*
X183023211Y-79479523D01*
X183119184Y-79632262D01*
X183119185Y-79632263D01*
X183164241Y-79677320D01*
X183197725Y-79738643D01*
X183192740Y-79808335D01*
X183164241Y-79852680D01*
X183119184Y-79897737D01*
X183023211Y-80050476D01*
X182963631Y-80220745D01*
X182963630Y-80220750D01*
X182943435Y-80399996D01*
X182943435Y-80400003D01*
X182963630Y-80579249D01*
X182963631Y-80579254D01*
X183023211Y-80749523D01*
X183119184Y-80902262D01*
X183119185Y-80902263D01*
X183164241Y-80947320D01*
X183197725Y-81008643D01*
X183192740Y-81078335D01*
X183164241Y-81122680D01*
X183119184Y-81167737D01*
X183023211Y-81320476D01*
X182963631Y-81490745D01*
X182963630Y-81490750D01*
X182943435Y-81669996D01*
X182943435Y-81670003D01*
X182963630Y-81849249D01*
X182963631Y-81849254D01*
X183023211Y-82019523D01*
X183119184Y-82172262D01*
X183119185Y-82172263D01*
X183164241Y-82217320D01*
X183197725Y-82278643D01*
X183192740Y-82348335D01*
X183164241Y-82392680D01*
X183119184Y-82437737D01*
X183023211Y-82590476D01*
X182963631Y-82760745D01*
X182963630Y-82760750D01*
X182943435Y-82939996D01*
X182943435Y-82940003D01*
X182963630Y-83119249D01*
X182963631Y-83119254D01*
X183023211Y-83289523D01*
X183119184Y-83442262D01*
X183119185Y-83442263D01*
X183164241Y-83487320D01*
X183197725Y-83548643D01*
X183192740Y-83618335D01*
X183164241Y-83662680D01*
X183119184Y-83707737D01*
X183023211Y-83860476D01*
X182963631Y-84030745D01*
X182963630Y-84030750D01*
X182943435Y-84209996D01*
X182943435Y-84210003D01*
X182963630Y-84389249D01*
X182963631Y-84389254D01*
X183023211Y-84559523D01*
X183065278Y-84626471D01*
X183119184Y-84712262D01*
X183246738Y-84839816D01*
X183335320Y-84895476D01*
X183405374Y-84939494D01*
X183404868Y-84940298D01*
X183430360Y-84958385D01*
X184501381Y-86029405D01*
X184534866Y-86090728D01*
X184537700Y-86117086D01*
X184537700Y-93293752D01*
X184537699Y-93293778D01*
X184537699Y-93298888D01*
X184537699Y-93447512D01*
X184537699Y-93447514D01*
X184537698Y-93447514D01*
X184566693Y-93593273D01*
X184566696Y-93593283D01*
X184623566Y-93730581D01*
X184623572Y-93730592D01*
X184706142Y-93854168D01*
X184706143Y-93854169D01*
X188760012Y-97908037D01*
X188793497Y-97969360D01*
X188795859Y-98006525D01*
X188780683Y-98179997D01*
X188780683Y-98180001D01*
X188800710Y-98408917D01*
X188800712Y-98408928D01*
X188860184Y-98630883D01*
X188860186Y-98630887D01*
X188860187Y-98630891D01*
X188926498Y-98773095D01*
X188936990Y-98842173D01*
X188908470Y-98905957D01*
X188849994Y-98944196D01*
X188814116Y-98949500D01*
X168523884Y-98949500D01*
X168456845Y-98929815D01*
X168411090Y-98877011D01*
X168401146Y-98807853D01*
X168411502Y-98773095D01*
X168477813Y-98630891D01*
X168537289Y-98408923D01*
X168557317Y-98180000D01*
X168542140Y-98006524D01*
X168555907Y-97938024D01*
X168577984Y-97908039D01*
X174069963Y-92416060D01*
X174069966Y-92416059D01*
X174175059Y-92310966D01*
X174257629Y-92187390D01*
X174314505Y-92050080D01*
X174320057Y-92022166D01*
X174343501Y-91904312D01*
X174343501Y-91755688D01*
X174343501Y-91750578D01*
X174343500Y-91750552D01*
X174343500Y-88870886D01*
X174363185Y-88803847D01*
X174415989Y-88758092D01*
X174485147Y-88748148D01*
X174548703Y-88777173D01*
X174555180Y-88783204D01*
X176594699Y-90822724D01*
X178600012Y-92828037D01*
X178633497Y-92889360D01*
X178635859Y-92926525D01*
X178620683Y-93099997D01*
X178620683Y-93100001D01*
X178640710Y-93328917D01*
X178640712Y-93328928D01*
X178700184Y-93550883D01*
X178700186Y-93550887D01*
X178700187Y-93550891D01*
X178797304Y-93759159D01*
X178929111Y-93947398D01*
X179091602Y-94109889D01*
X179279841Y-94241696D01*
X179488109Y-94338813D01*
X179710077Y-94398289D01*
X179873593Y-94412594D01*
X179938998Y-94418317D01*
X179939000Y-94418317D01*
X179939002Y-94418317D01*
X179996230Y-94413310D01*
X180167923Y-94398289D01*
X180389891Y-94338813D01*
X180598159Y-94241696D01*
X180786398Y-94109889D01*
X180948889Y-93947398D01*
X181080696Y-93759159D01*
X181177813Y-93550891D01*
X181237289Y-93328923D01*
X181257317Y-93100000D01*
X181253308Y-93054182D01*
X181242140Y-92926524D01*
X181237289Y-92871077D01*
X181177813Y-92649109D01*
X181080696Y-92440842D01*
X181070493Y-92426271D01*
X180948892Y-92252606D01*
X180948887Y-92252600D01*
X180786398Y-92090111D01*
X180598165Y-91958308D01*
X180598162Y-91958306D01*
X180598159Y-91958304D01*
X180564013Y-91942381D01*
X180511574Y-91896210D01*
X180492422Y-91829017D01*
X180512637Y-91762136D01*
X180564014Y-91717618D01*
X180598159Y-91701696D01*
X180786398Y-91569889D01*
X180948889Y-91407398D01*
X181080696Y-91219159D01*
X181177813Y-91010891D01*
X181237289Y-90788923D01*
X181257317Y-90560000D01*
X181253308Y-90514182D01*
X181242140Y-90386524D01*
X181237289Y-90331077D01*
X181177813Y-90109109D01*
X181080696Y-89900842D01*
X180948889Y-89712602D01*
X180786398Y-89550111D01*
X180708499Y-89495565D01*
X180598165Y-89418308D01*
X180598162Y-89418306D01*
X180598159Y-89418304D01*
X180564013Y-89402381D01*
X180511574Y-89356210D01*
X180492422Y-89289017D01*
X180512637Y-89222136D01*
X180564014Y-89177618D01*
X180564713Y-89177292D01*
X180598159Y-89161696D01*
X180786398Y-89029889D01*
X180948889Y-88867398D01*
X181080696Y-88679159D01*
X181177813Y-88470891D01*
X181237289Y-88248923D01*
X181257317Y-88020000D01*
X181253308Y-87974182D01*
X181242140Y-87846524D01*
X181237289Y-87791077D01*
X181177813Y-87569109D01*
X181080696Y-87360842D01*
X181080695Y-87360840D01*
X180969925Y-87202643D01*
X180947598Y-87136437D01*
X180947500Y-87131520D01*
X180947500Y-72974096D01*
X180967185Y-72907057D01*
X181019989Y-72861302D01*
X181089147Y-72851358D01*
X181152703Y-72880383D01*
G37*
G04 #@! TD.AperFunction*
G04 #@! TA.AperFunction,Conductor*
G36*
X190811539Y-64410185D02*
G01*
X190857294Y-64462989D01*
X190868500Y-64514500D01*
X190868500Y-66415116D01*
X190848815Y-66482155D01*
X190796011Y-66527910D01*
X190726853Y-66537854D01*
X190692095Y-66527498D01*
X190653434Y-66509470D01*
X190549891Y-66461187D01*
X190549887Y-66461186D01*
X190549883Y-66461184D01*
X190327928Y-66401712D01*
X190327924Y-66401711D01*
X190327923Y-66401711D01*
X190327922Y-66401710D01*
X190327917Y-66401710D01*
X190099002Y-66381683D01*
X190098998Y-66381683D01*
X189870082Y-66401710D01*
X189870071Y-66401712D01*
X189648116Y-66461184D01*
X189648107Y-66461188D01*
X189439842Y-66558303D01*
X189439840Y-66558304D01*
X189251606Y-66690107D01*
X189251600Y-66690112D01*
X189089112Y-66852600D01*
X189089107Y-66852606D01*
X188957304Y-67040840D01*
X188957303Y-67040842D01*
X188860188Y-67249107D01*
X188860184Y-67249116D01*
X188800712Y-67471071D01*
X188800710Y-67471082D01*
X188780683Y-67699998D01*
X188780683Y-67700001D01*
X188800710Y-67928917D01*
X188800712Y-67928928D01*
X188860184Y-68150883D01*
X188860186Y-68150887D01*
X188860187Y-68150891D01*
X188957304Y-68359159D01*
X189089111Y-68547398D01*
X189251602Y-68709889D01*
X189439841Y-68841696D01*
X189473986Y-68857618D01*
X189526425Y-68903791D01*
X189545577Y-68970984D01*
X189525361Y-69037865D01*
X189473986Y-69082382D01*
X189439842Y-69098303D01*
X189439840Y-69098304D01*
X189251606Y-69230107D01*
X189251600Y-69230112D01*
X189089112Y-69392600D01*
X189089107Y-69392606D01*
X188957304Y-69580840D01*
X188957303Y-69580842D01*
X188860188Y-69789107D01*
X188860184Y-69789116D01*
X188800712Y-70011071D01*
X188800710Y-70011082D01*
X188780683Y-70239998D01*
X188780683Y-70240001D01*
X188800710Y-70468917D01*
X188800712Y-70468928D01*
X188860184Y-70690883D01*
X188860186Y-70690887D01*
X188860187Y-70690891D01*
X188957304Y-70899159D01*
X189089111Y-71087398D01*
X189251602Y-71249889D01*
X189439841Y-71381696D01*
X189473986Y-71397618D01*
X189526425Y-71443791D01*
X189545577Y-71510984D01*
X189525361Y-71577865D01*
X189473986Y-71622382D01*
X189439842Y-71638303D01*
X189439840Y-71638304D01*
X189251606Y-71770107D01*
X189251600Y-71770112D01*
X189089112Y-71932600D01*
X189089107Y-71932606D01*
X188957304Y-72120840D01*
X188957303Y-72120842D01*
X188860188Y-72329107D01*
X188860184Y-72329116D01*
X188800712Y-72551071D01*
X188800710Y-72551081D01*
X188791416Y-72657309D01*
X188765963Y-72722378D01*
X188709372Y-72763356D01*
X188639610Y-72767233D01*
X188580207Y-72734182D01*
X186007969Y-70161943D01*
X186007968Y-70161942D01*
X185884392Y-70079372D01*
X185884391Y-70079371D01*
X185884389Y-70079370D01*
X185884386Y-70079368D01*
X185884381Y-70079366D01*
X185794891Y-70042299D01*
X185794889Y-70042298D01*
X185747084Y-70022496D01*
X185747080Y-70022495D01*
X185745652Y-70022211D01*
X185722894Y-70017684D01*
X185689680Y-70011077D01*
X185601314Y-69993499D01*
X185601312Y-69993499D01*
X185452688Y-69993499D01*
X185446574Y-69993499D01*
X185446554Y-69993500D01*
X184037540Y-69993500D01*
X183996585Y-69986541D01*
X183928262Y-69962633D01*
X183928249Y-69962630D01*
X183749004Y-69942435D01*
X183748996Y-69942435D01*
X183569750Y-69962630D01*
X183569745Y-69962631D01*
X183399476Y-70022211D01*
X183246737Y-70118184D01*
X183119184Y-70245737D01*
X183023211Y-70398476D01*
X182963631Y-70568745D01*
X182963630Y-70568750D01*
X182943435Y-70747996D01*
X182943435Y-70748003D01*
X182963630Y-70927249D01*
X182963631Y-70927254D01*
X183023211Y-71097523D01*
X183119184Y-71250262D01*
X183119185Y-71250263D01*
X183164241Y-71295320D01*
X183197725Y-71356643D01*
X183192740Y-71426335D01*
X183164241Y-71470680D01*
X183119184Y-71515737D01*
X183019506Y-71674374D01*
X183017786Y-71673293D01*
X182977616Y-71717785D01*
X182910189Y-71736097D01*
X182843565Y-71715048D01*
X182825039Y-71699804D01*
X180983819Y-69858584D01*
X180950334Y-69797261D01*
X180947500Y-69770903D01*
X180947500Y-67600670D01*
X180947499Y-67600666D01*
X180908745Y-67405838D01*
X180908744Y-67405831D01*
X180832721Y-67222296D01*
X180832720Y-67222295D01*
X180832717Y-67222289D01*
X180722353Y-67057119D01*
X180722350Y-67057115D01*
X180581884Y-66916649D01*
X180581880Y-66916646D01*
X180416710Y-66806282D01*
X180416701Y-66806277D01*
X180233169Y-66730256D01*
X180233161Y-66730254D01*
X180038333Y-66691500D01*
X180038329Y-66691500D01*
X168127478Y-66691500D01*
X168060439Y-66671815D01*
X168056354Y-66669074D01*
X167898165Y-66558308D01*
X167898159Y-66558304D01*
X167898157Y-66558303D01*
X167689891Y-66461187D01*
X167689887Y-66461186D01*
X167689883Y-66461184D01*
X167467928Y-66401712D01*
X167467924Y-66401711D01*
X167467923Y-66401711D01*
X167467922Y-66401710D01*
X167467917Y-66401710D01*
X167239002Y-66381683D01*
X167238998Y-66381683D01*
X167010082Y-66401710D01*
X167010071Y-66401712D01*
X166788116Y-66461184D01*
X166788107Y-66461188D01*
X166645905Y-66527498D01*
X166576827Y-66537990D01*
X166513043Y-66509470D01*
X166474804Y-66450994D01*
X166469500Y-66415116D01*
X166469500Y-64514500D01*
X166489185Y-64447461D01*
X166541989Y-64401706D01*
X166593500Y-64390500D01*
X190744500Y-64390500D01*
X190811539Y-64410185D01*
G37*
G04 #@! TD.AperFunction*
G04 #@! TA.AperFunction,Conductor*
G36*
X130352703Y-108440383D02*
G01*
X130359180Y-108446414D01*
X133045758Y-111132992D01*
X133079242Y-111194314D01*
X133074258Y-111264006D01*
X133032386Y-111319939D01*
X132966922Y-111344356D01*
X132955964Y-111344135D01*
X132955964Y-111344435D01*
X132948996Y-111344435D01*
X132769750Y-111364630D01*
X132769745Y-111364631D01*
X132599476Y-111424211D01*
X132446737Y-111520184D01*
X132319184Y-111647737D01*
X132223211Y-111800476D01*
X132163631Y-111970745D01*
X132163630Y-111970750D01*
X132143435Y-112149996D01*
X132143435Y-112150003D01*
X132163630Y-112329249D01*
X132163631Y-112329254D01*
X132223211Y-112499523D01*
X132319184Y-112652262D01*
X132319185Y-112652263D01*
X132364241Y-112697320D01*
X132397725Y-112758643D01*
X132392740Y-112828335D01*
X132364241Y-112872680D01*
X132319184Y-112917737D01*
X132223211Y-113070476D01*
X132163631Y-113240745D01*
X132163630Y-113240750D01*
X132143435Y-113419996D01*
X132143435Y-113420003D01*
X132163630Y-113599249D01*
X132163631Y-113599254D01*
X132223211Y-113769523D01*
X132319184Y-113922262D01*
X132319185Y-113922263D01*
X132364241Y-113967320D01*
X132397725Y-114028643D01*
X132392740Y-114098335D01*
X132364241Y-114142680D01*
X132319184Y-114187737D01*
X132223211Y-114340476D01*
X132163631Y-114510745D01*
X132163630Y-114510750D01*
X132143435Y-114689996D01*
X132143435Y-114690003D01*
X132163630Y-114869249D01*
X132163631Y-114869254D01*
X132223211Y-115039523D01*
X132319184Y-115192262D01*
X132319185Y-115192263D01*
X132364241Y-115237320D01*
X132397725Y-115298643D01*
X132392740Y-115368335D01*
X132364241Y-115412680D01*
X132319184Y-115457737D01*
X132223211Y-115610476D01*
X132163631Y-115780745D01*
X132163630Y-115780750D01*
X132143435Y-115959996D01*
X132143435Y-115960003D01*
X132163630Y-116139249D01*
X132163631Y-116139254D01*
X132223211Y-116309523D01*
X132319184Y-116462262D01*
X132319185Y-116462263D01*
X132364241Y-116507320D01*
X132397725Y-116568643D01*
X132392740Y-116638335D01*
X132364241Y-116682680D01*
X132319184Y-116727737D01*
X132223211Y-116880476D01*
X132163631Y-117050745D01*
X132163630Y-117050750D01*
X132143435Y-117229996D01*
X132143435Y-117230003D01*
X132163630Y-117409249D01*
X132163631Y-117409254D01*
X132223211Y-117579523D01*
X132319184Y-117732262D01*
X132319185Y-117732263D01*
X132364241Y-117777320D01*
X132397725Y-117838643D01*
X132392740Y-117908335D01*
X132364241Y-117952680D01*
X132319184Y-117997737D01*
X132223211Y-118150476D01*
X132163631Y-118320745D01*
X132163630Y-118320750D01*
X132143435Y-118499996D01*
X132143435Y-118500003D01*
X132163630Y-118679249D01*
X132163631Y-118679254D01*
X132223211Y-118849523D01*
X132319184Y-119002262D01*
X132319185Y-119002263D01*
X132364241Y-119047320D01*
X132397725Y-119108643D01*
X132392740Y-119178335D01*
X132364241Y-119222680D01*
X132319184Y-119267737D01*
X132223211Y-119420476D01*
X132163631Y-119590745D01*
X132163630Y-119590750D01*
X132143435Y-119769996D01*
X132143435Y-119770003D01*
X132163630Y-119949249D01*
X132163631Y-119949254D01*
X132223211Y-120119523D01*
X132265278Y-120186471D01*
X132319184Y-120272262D01*
X132446738Y-120399816D01*
X132535320Y-120455476D01*
X132605374Y-120499494D01*
X132604868Y-120500298D01*
X132630360Y-120518385D01*
X133701381Y-121589405D01*
X133734866Y-121650728D01*
X133737700Y-121677086D01*
X133737700Y-128853752D01*
X133737699Y-128853778D01*
X133737699Y-128858888D01*
X133737699Y-129007512D01*
X133737699Y-129007514D01*
X133737698Y-129007514D01*
X133766693Y-129153273D01*
X133766696Y-129153283D01*
X133823566Y-129290581D01*
X133823572Y-129290592D01*
X133906142Y-129414168D01*
X133906143Y-129414169D01*
X137960012Y-133468037D01*
X137993497Y-133529360D01*
X137995859Y-133566525D01*
X137980683Y-133739997D01*
X137980683Y-133740001D01*
X138000710Y-133968917D01*
X138000712Y-133968928D01*
X138060184Y-134190883D01*
X138060186Y-134190887D01*
X138060187Y-134190891D01*
X138126498Y-134333095D01*
X138136990Y-134402173D01*
X138108470Y-134465957D01*
X138049994Y-134504196D01*
X138014116Y-134509500D01*
X117723884Y-134509500D01*
X117656845Y-134489815D01*
X117611090Y-134437011D01*
X117601146Y-134367853D01*
X117611502Y-134333095D01*
X117677813Y-134190891D01*
X117737289Y-133968923D01*
X117757317Y-133740000D01*
X117742140Y-133566524D01*
X117755907Y-133498024D01*
X117777984Y-133468039D01*
X123269963Y-127976060D01*
X123269966Y-127976059D01*
X123375059Y-127870966D01*
X123457629Y-127747390D01*
X123514505Y-127610080D01*
X123520057Y-127582166D01*
X123543501Y-127464312D01*
X123543501Y-127315688D01*
X123543501Y-127310578D01*
X123543500Y-127310552D01*
X123543500Y-124430886D01*
X123563185Y-124363847D01*
X123615989Y-124318092D01*
X123685147Y-124308148D01*
X123748703Y-124337173D01*
X123755180Y-124343204D01*
X125794699Y-126382724D01*
X127800012Y-128388037D01*
X127833497Y-128449360D01*
X127835859Y-128486525D01*
X127820683Y-128659997D01*
X127820683Y-128660001D01*
X127840710Y-128888917D01*
X127840712Y-128888928D01*
X127900184Y-129110883D01*
X127900186Y-129110887D01*
X127900187Y-129110891D01*
X127997304Y-129319159D01*
X128129111Y-129507398D01*
X128291602Y-129669889D01*
X128479841Y-129801696D01*
X128688109Y-129898813D01*
X128910077Y-129958289D01*
X129073593Y-129972594D01*
X129138998Y-129978317D01*
X129139000Y-129978317D01*
X129139002Y-129978317D01*
X129196230Y-129973310D01*
X129367923Y-129958289D01*
X129589891Y-129898813D01*
X129798159Y-129801696D01*
X129986398Y-129669889D01*
X130148889Y-129507398D01*
X130280696Y-129319159D01*
X130377813Y-129110891D01*
X130437289Y-128888923D01*
X130457317Y-128660000D01*
X130453308Y-128614182D01*
X130442140Y-128486524D01*
X130437289Y-128431077D01*
X130377813Y-128209109D01*
X130280696Y-128000842D01*
X130270493Y-127986271D01*
X130148892Y-127812606D01*
X130148887Y-127812600D01*
X129986398Y-127650111D01*
X129798165Y-127518308D01*
X129798162Y-127518306D01*
X129798159Y-127518304D01*
X129764013Y-127502381D01*
X129711574Y-127456210D01*
X129692422Y-127389017D01*
X129712637Y-127322136D01*
X129764014Y-127277618D01*
X129798159Y-127261696D01*
X129986398Y-127129889D01*
X130148889Y-126967398D01*
X130280696Y-126779159D01*
X130377813Y-126570891D01*
X130437289Y-126348923D01*
X130457317Y-126120000D01*
X130453308Y-126074182D01*
X130442140Y-125946524D01*
X130437289Y-125891077D01*
X130377813Y-125669109D01*
X130280696Y-125460842D01*
X130148889Y-125272602D01*
X129986398Y-125110111D01*
X129908499Y-125055565D01*
X129798165Y-124978308D01*
X129798162Y-124978306D01*
X129798159Y-124978304D01*
X129764013Y-124962381D01*
X129711574Y-124916210D01*
X129692422Y-124849017D01*
X129712637Y-124782136D01*
X129764014Y-124737618D01*
X129764713Y-124737292D01*
X129798159Y-124721696D01*
X129986398Y-124589889D01*
X130148889Y-124427398D01*
X130280696Y-124239159D01*
X130377813Y-124030891D01*
X130437289Y-123808923D01*
X130457317Y-123580000D01*
X130453308Y-123534182D01*
X130442140Y-123406524D01*
X130437289Y-123351077D01*
X130377813Y-123129109D01*
X130280696Y-122920842D01*
X130280695Y-122920840D01*
X130169925Y-122762643D01*
X130147598Y-122696437D01*
X130147500Y-122691520D01*
X130147500Y-108534096D01*
X130167185Y-108467057D01*
X130219989Y-108421302D01*
X130289147Y-108411358D01*
X130352703Y-108440383D01*
G37*
G04 #@! TD.AperFunction*
G04 #@! TA.AperFunction,Conductor*
G36*
X140011539Y-99970185D02*
G01*
X140057294Y-100022989D01*
X140068500Y-100074500D01*
X140068500Y-101975116D01*
X140048815Y-102042155D01*
X139996011Y-102087910D01*
X139926853Y-102097854D01*
X139892095Y-102087498D01*
X139853434Y-102069470D01*
X139749891Y-102021187D01*
X139749887Y-102021186D01*
X139749883Y-102021184D01*
X139527928Y-101961712D01*
X139527924Y-101961711D01*
X139527923Y-101961711D01*
X139527922Y-101961710D01*
X139527917Y-101961710D01*
X139299002Y-101941683D01*
X139298998Y-101941683D01*
X139070082Y-101961710D01*
X139070071Y-101961712D01*
X138848116Y-102021184D01*
X138848107Y-102021188D01*
X138639842Y-102118303D01*
X138639840Y-102118304D01*
X138451606Y-102250107D01*
X138451600Y-102250112D01*
X138289112Y-102412600D01*
X138289107Y-102412606D01*
X138157304Y-102600840D01*
X138157303Y-102600842D01*
X138060188Y-102809107D01*
X138060184Y-102809116D01*
X138000712Y-103031071D01*
X138000710Y-103031082D01*
X137980683Y-103259998D01*
X137980683Y-103260001D01*
X138000710Y-103488917D01*
X138000712Y-103488928D01*
X138060184Y-103710883D01*
X138060186Y-103710887D01*
X138060187Y-103710891D01*
X138157304Y-103919159D01*
X138289111Y-104107398D01*
X138451602Y-104269889D01*
X138639841Y-104401696D01*
X138673986Y-104417618D01*
X138726425Y-104463791D01*
X138745577Y-104530984D01*
X138725361Y-104597865D01*
X138673986Y-104642382D01*
X138639842Y-104658303D01*
X138639840Y-104658304D01*
X138451606Y-104790107D01*
X138451600Y-104790112D01*
X138289112Y-104952600D01*
X138289107Y-104952606D01*
X138157304Y-105140840D01*
X138157303Y-105140842D01*
X138060188Y-105349107D01*
X138060184Y-105349116D01*
X138000712Y-105571071D01*
X138000710Y-105571082D01*
X137980683Y-105799998D01*
X137980683Y-105800001D01*
X138000710Y-106028917D01*
X138000712Y-106028928D01*
X138060184Y-106250883D01*
X138060186Y-106250887D01*
X138060187Y-106250891D01*
X138157304Y-106459159D01*
X138289111Y-106647398D01*
X138451602Y-106809889D01*
X138639841Y-106941696D01*
X138673986Y-106957618D01*
X138726425Y-107003791D01*
X138745577Y-107070984D01*
X138725361Y-107137865D01*
X138673986Y-107182382D01*
X138639842Y-107198303D01*
X138639840Y-107198304D01*
X138451606Y-107330107D01*
X138451600Y-107330112D01*
X138289112Y-107492600D01*
X138289107Y-107492606D01*
X138157304Y-107680840D01*
X138157303Y-107680842D01*
X138060188Y-107889107D01*
X138060184Y-107889116D01*
X138000712Y-108111071D01*
X138000710Y-108111081D01*
X137991416Y-108217309D01*
X137965963Y-108282378D01*
X137909372Y-108323356D01*
X137839610Y-108327233D01*
X137780207Y-108294182D01*
X135207969Y-105721943D01*
X135207968Y-105721942D01*
X135084392Y-105639372D01*
X135084391Y-105639371D01*
X135084389Y-105639370D01*
X135084386Y-105639368D01*
X135084381Y-105639366D01*
X134994891Y-105602299D01*
X134994889Y-105602298D01*
X134947084Y-105582496D01*
X134947080Y-105582495D01*
X134945652Y-105582211D01*
X134922894Y-105577684D01*
X134889680Y-105571077D01*
X134801314Y-105553499D01*
X134801312Y-105553499D01*
X134652688Y-105553499D01*
X134646574Y-105553499D01*
X134646554Y-105553500D01*
X133237540Y-105553500D01*
X133196585Y-105546541D01*
X133128262Y-105522633D01*
X133128249Y-105522630D01*
X132949004Y-105502435D01*
X132948996Y-105502435D01*
X132769750Y-105522630D01*
X132769745Y-105522631D01*
X132599476Y-105582211D01*
X132446737Y-105678184D01*
X132319184Y-105805737D01*
X132223211Y-105958476D01*
X132163631Y-106128745D01*
X132163630Y-106128750D01*
X132143435Y-106307996D01*
X132143435Y-106308003D01*
X132163630Y-106487249D01*
X132163631Y-106487254D01*
X132223211Y-106657523D01*
X132319184Y-106810262D01*
X132319185Y-106810263D01*
X132364241Y-106855320D01*
X132397725Y-106916643D01*
X132392740Y-106986335D01*
X132364241Y-107030680D01*
X132319184Y-107075737D01*
X132219506Y-107234374D01*
X132217786Y-107233293D01*
X132177616Y-107277785D01*
X132110189Y-107296097D01*
X132043565Y-107275048D01*
X132025039Y-107259804D01*
X130183819Y-105418584D01*
X130150334Y-105357261D01*
X130147500Y-105330903D01*
X130147500Y-103160670D01*
X130147499Y-103160666D01*
X130108745Y-102965838D01*
X130108744Y-102965831D01*
X130032721Y-102782296D01*
X130032720Y-102782295D01*
X130032717Y-102782289D01*
X129922353Y-102617119D01*
X129922350Y-102617115D01*
X129781884Y-102476649D01*
X129781880Y-102476646D01*
X129616710Y-102366282D01*
X129616701Y-102366277D01*
X129433169Y-102290256D01*
X129433161Y-102290254D01*
X129238333Y-102251500D01*
X129238329Y-102251500D01*
X117327478Y-102251500D01*
X117260439Y-102231815D01*
X117256354Y-102229074D01*
X117098165Y-102118308D01*
X117098159Y-102118304D01*
X117098157Y-102118303D01*
X116889891Y-102021187D01*
X116889887Y-102021186D01*
X116889883Y-102021184D01*
X116667928Y-101961712D01*
X116667924Y-101961711D01*
X116667923Y-101961711D01*
X116667922Y-101961710D01*
X116667917Y-101961710D01*
X116439002Y-101941683D01*
X116438998Y-101941683D01*
X116210082Y-101961710D01*
X116210071Y-101961712D01*
X115988116Y-102021184D01*
X115988107Y-102021188D01*
X115845905Y-102087498D01*
X115776827Y-102097990D01*
X115713043Y-102069470D01*
X115674804Y-102010994D01*
X115669500Y-101975116D01*
X115669500Y-100074500D01*
X115689185Y-100007461D01*
X115741989Y-99961706D01*
X115793500Y-99950500D01*
X139944500Y-99950500D01*
X140011539Y-99970185D01*
G37*
G04 #@! TD.AperFunction*
G04 #@! TA.AperFunction,Conductor*
G36*
X155752703Y-108440383D02*
G01*
X155759180Y-108446414D01*
X158445758Y-111132992D01*
X158479242Y-111194314D01*
X158474258Y-111264006D01*
X158432386Y-111319939D01*
X158366922Y-111344356D01*
X158355964Y-111344135D01*
X158355964Y-111344435D01*
X158348996Y-111344435D01*
X158169750Y-111364630D01*
X158169745Y-111364631D01*
X157999476Y-111424211D01*
X157846737Y-111520184D01*
X157719184Y-111647737D01*
X157623211Y-111800476D01*
X157563631Y-111970745D01*
X157563630Y-111970750D01*
X157543435Y-112149996D01*
X157543435Y-112150003D01*
X157563630Y-112329249D01*
X157563631Y-112329254D01*
X157623211Y-112499523D01*
X157719184Y-112652262D01*
X157719185Y-112652263D01*
X157764241Y-112697320D01*
X157797725Y-112758643D01*
X157792740Y-112828335D01*
X157764241Y-112872680D01*
X157719184Y-112917737D01*
X157623211Y-113070476D01*
X157563631Y-113240745D01*
X157563630Y-113240750D01*
X157543435Y-113419996D01*
X157543435Y-113420003D01*
X157563630Y-113599249D01*
X157563631Y-113599254D01*
X157623211Y-113769523D01*
X157719184Y-113922262D01*
X157719185Y-113922263D01*
X157764241Y-113967320D01*
X157797725Y-114028643D01*
X157792740Y-114098335D01*
X157764241Y-114142680D01*
X157719184Y-114187737D01*
X157623211Y-114340476D01*
X157563631Y-114510745D01*
X157563630Y-114510750D01*
X157543435Y-114689996D01*
X157543435Y-114690003D01*
X157563630Y-114869249D01*
X157563631Y-114869254D01*
X157623211Y-115039523D01*
X157719184Y-115192262D01*
X157719185Y-115192263D01*
X157764241Y-115237320D01*
X157797725Y-115298643D01*
X157792740Y-115368335D01*
X157764241Y-115412680D01*
X157719184Y-115457737D01*
X157623211Y-115610476D01*
X157563631Y-115780745D01*
X157563630Y-115780750D01*
X157543435Y-115959996D01*
X157543435Y-115960003D01*
X157563630Y-116139249D01*
X157563631Y-116139254D01*
X157623211Y-116309523D01*
X157719184Y-116462262D01*
X157719185Y-116462263D01*
X157764241Y-116507320D01*
X157797725Y-116568643D01*
X157792740Y-116638335D01*
X157764241Y-116682680D01*
X157719184Y-116727737D01*
X157623211Y-116880476D01*
X157563631Y-117050745D01*
X157563630Y-117050750D01*
X157543435Y-117229996D01*
X157543435Y-117230003D01*
X157563630Y-117409249D01*
X157563631Y-117409254D01*
X157623211Y-117579523D01*
X157719184Y-117732262D01*
X157719185Y-117732263D01*
X157764241Y-117777320D01*
X157797725Y-117838643D01*
X157792740Y-117908335D01*
X157764241Y-117952680D01*
X157719184Y-117997737D01*
X157623211Y-118150476D01*
X157563631Y-118320745D01*
X157563630Y-118320750D01*
X157543435Y-118499996D01*
X157543435Y-118500003D01*
X157563630Y-118679249D01*
X157563631Y-118679254D01*
X157623211Y-118849523D01*
X157719184Y-119002262D01*
X157719185Y-119002263D01*
X157764241Y-119047320D01*
X157797725Y-119108643D01*
X157792740Y-119178335D01*
X157764241Y-119222680D01*
X157719184Y-119267737D01*
X157623211Y-119420476D01*
X157563631Y-119590745D01*
X157563630Y-119590750D01*
X157543435Y-119769996D01*
X157543435Y-119770003D01*
X157563630Y-119949249D01*
X157563631Y-119949254D01*
X157623211Y-120119523D01*
X157665278Y-120186471D01*
X157719184Y-120272262D01*
X157846738Y-120399816D01*
X157935320Y-120455476D01*
X158005374Y-120499494D01*
X158004868Y-120500298D01*
X158030360Y-120518385D01*
X159101381Y-121589405D01*
X159134866Y-121650728D01*
X159137700Y-121677086D01*
X159137700Y-128853752D01*
X159137699Y-128853778D01*
X159137699Y-128858888D01*
X159137699Y-129007512D01*
X159137699Y-129007514D01*
X159137698Y-129007514D01*
X159166693Y-129153273D01*
X159166696Y-129153283D01*
X159223566Y-129290581D01*
X159223572Y-129290592D01*
X159306142Y-129414168D01*
X159306143Y-129414169D01*
X163360012Y-133468037D01*
X163393497Y-133529360D01*
X163395859Y-133566525D01*
X163380683Y-133739997D01*
X163380683Y-133740001D01*
X163400710Y-133968917D01*
X163400712Y-133968928D01*
X163460184Y-134190883D01*
X163460186Y-134190887D01*
X163460187Y-134190891D01*
X163526498Y-134333095D01*
X163536990Y-134402173D01*
X163508470Y-134465957D01*
X163449994Y-134504196D01*
X163414116Y-134509500D01*
X143123884Y-134509500D01*
X143056845Y-134489815D01*
X143011090Y-134437011D01*
X143001146Y-134367853D01*
X143011502Y-134333095D01*
X143077813Y-134190891D01*
X143137289Y-133968923D01*
X143157317Y-133740000D01*
X143142140Y-133566524D01*
X143155907Y-133498024D01*
X143177984Y-133468039D01*
X148669963Y-127976060D01*
X148669966Y-127976059D01*
X148775059Y-127870966D01*
X148857629Y-127747390D01*
X148914505Y-127610080D01*
X148920057Y-127582166D01*
X148943501Y-127464312D01*
X148943501Y-127315688D01*
X148943501Y-127310578D01*
X148943500Y-127310552D01*
X148943500Y-124430886D01*
X148963185Y-124363847D01*
X149015989Y-124318092D01*
X149085147Y-124308148D01*
X149148703Y-124337173D01*
X149155180Y-124343204D01*
X151194699Y-126382724D01*
X153200012Y-128388037D01*
X153233497Y-128449360D01*
X153235859Y-128486525D01*
X153220683Y-128659997D01*
X153220683Y-128660001D01*
X153240710Y-128888917D01*
X153240712Y-128888928D01*
X153300184Y-129110883D01*
X153300186Y-129110887D01*
X153300187Y-129110891D01*
X153397304Y-129319159D01*
X153529111Y-129507398D01*
X153691602Y-129669889D01*
X153879841Y-129801696D01*
X154088109Y-129898813D01*
X154310077Y-129958289D01*
X154473593Y-129972594D01*
X154538998Y-129978317D01*
X154539000Y-129978317D01*
X154539002Y-129978317D01*
X154596230Y-129973310D01*
X154767923Y-129958289D01*
X154989891Y-129898813D01*
X155198159Y-129801696D01*
X155386398Y-129669889D01*
X155548889Y-129507398D01*
X155680696Y-129319159D01*
X155777813Y-129110891D01*
X155837289Y-128888923D01*
X155857317Y-128660000D01*
X155853308Y-128614182D01*
X155842140Y-128486524D01*
X155837289Y-128431077D01*
X155777813Y-128209109D01*
X155680696Y-128000842D01*
X155670493Y-127986271D01*
X155548892Y-127812606D01*
X155548887Y-127812600D01*
X155386398Y-127650111D01*
X155198165Y-127518308D01*
X155198162Y-127518306D01*
X155198159Y-127518304D01*
X155164013Y-127502381D01*
X155111574Y-127456210D01*
X155092422Y-127389017D01*
X155112637Y-127322136D01*
X155164014Y-127277618D01*
X155198159Y-127261696D01*
X155386398Y-127129889D01*
X155548889Y-126967398D01*
X155680696Y-126779159D01*
X155777813Y-126570891D01*
X155837289Y-126348923D01*
X155857317Y-126120000D01*
X155853308Y-126074182D01*
X155842140Y-125946524D01*
X155837289Y-125891077D01*
X155777813Y-125669109D01*
X155680696Y-125460842D01*
X155548889Y-125272602D01*
X155386398Y-125110111D01*
X155308499Y-125055565D01*
X155198165Y-124978308D01*
X155198162Y-124978306D01*
X155198159Y-124978304D01*
X155164013Y-124962381D01*
X155111574Y-124916210D01*
X155092422Y-124849017D01*
X155112637Y-124782136D01*
X155164014Y-124737618D01*
X155164713Y-124737292D01*
X155198159Y-124721696D01*
X155386398Y-124589889D01*
X155548889Y-124427398D01*
X155680696Y-124239159D01*
X155777813Y-124030891D01*
X155837289Y-123808923D01*
X155857317Y-123580000D01*
X155853308Y-123534182D01*
X155842140Y-123406524D01*
X155837289Y-123351077D01*
X155777813Y-123129109D01*
X155680696Y-122920842D01*
X155680695Y-122920840D01*
X155569925Y-122762643D01*
X155547598Y-122696437D01*
X155547500Y-122691520D01*
X155547500Y-108534096D01*
X155567185Y-108467057D01*
X155619989Y-108421302D01*
X155689147Y-108411358D01*
X155752703Y-108440383D01*
G37*
G04 #@! TD.AperFunction*
G04 #@! TA.AperFunction,Conductor*
G36*
X165411539Y-99970185D02*
G01*
X165457294Y-100022989D01*
X165468500Y-100074500D01*
X165468500Y-101975116D01*
X165448815Y-102042155D01*
X165396011Y-102087910D01*
X165326853Y-102097854D01*
X165292095Y-102087498D01*
X165253434Y-102069470D01*
X165149891Y-102021187D01*
X165149887Y-102021186D01*
X165149883Y-102021184D01*
X164927928Y-101961712D01*
X164927924Y-101961711D01*
X164927923Y-101961711D01*
X164927922Y-101961710D01*
X164927917Y-101961710D01*
X164699002Y-101941683D01*
X164698998Y-101941683D01*
X164470082Y-101961710D01*
X164470071Y-101961712D01*
X164248116Y-102021184D01*
X164248107Y-102021188D01*
X164039842Y-102118303D01*
X164039840Y-102118304D01*
X163851606Y-102250107D01*
X163851600Y-102250112D01*
X163689112Y-102412600D01*
X163689107Y-102412606D01*
X163557304Y-102600840D01*
X163557303Y-102600842D01*
X163460188Y-102809107D01*
X163460184Y-102809116D01*
X163400712Y-103031071D01*
X163400710Y-103031082D01*
X163380683Y-103259998D01*
X163380683Y-103260001D01*
X163400710Y-103488917D01*
X163400712Y-103488928D01*
X163460184Y-103710883D01*
X163460186Y-103710887D01*
X163460187Y-103710891D01*
X163557304Y-103919159D01*
X163689111Y-104107398D01*
X163851602Y-104269889D01*
X164039841Y-104401696D01*
X164073986Y-104417618D01*
X164126425Y-104463791D01*
X164145577Y-104530984D01*
X164125361Y-104597865D01*
X164073986Y-104642382D01*
X164039842Y-104658303D01*
X164039840Y-104658304D01*
X163851606Y-104790107D01*
X163851600Y-104790112D01*
X163689112Y-104952600D01*
X163689107Y-104952606D01*
X163557304Y-105140840D01*
X163557303Y-105140842D01*
X163460188Y-105349107D01*
X163460184Y-105349116D01*
X163400712Y-105571071D01*
X163400710Y-105571082D01*
X163380683Y-105799998D01*
X163380683Y-105800001D01*
X163400710Y-106028917D01*
X163400712Y-106028928D01*
X163460184Y-106250883D01*
X163460186Y-106250887D01*
X163460187Y-106250891D01*
X163557304Y-106459159D01*
X163689111Y-106647398D01*
X163851602Y-106809889D01*
X164039841Y-106941696D01*
X164073986Y-106957618D01*
X164126425Y-107003791D01*
X164145577Y-107070984D01*
X164125361Y-107137865D01*
X164073986Y-107182382D01*
X164039842Y-107198303D01*
X164039840Y-107198304D01*
X163851606Y-107330107D01*
X163851600Y-107330112D01*
X163689112Y-107492600D01*
X163689107Y-107492606D01*
X163557304Y-107680840D01*
X163557303Y-107680842D01*
X163460188Y-107889107D01*
X163460184Y-107889116D01*
X163400712Y-108111071D01*
X163400710Y-108111081D01*
X163391416Y-108217309D01*
X163365963Y-108282378D01*
X163309372Y-108323356D01*
X163239610Y-108327233D01*
X163180207Y-108294182D01*
X160607969Y-105721943D01*
X160607968Y-105721942D01*
X160484392Y-105639372D01*
X160484391Y-105639371D01*
X160484389Y-105639370D01*
X160484386Y-105639368D01*
X160484381Y-105639366D01*
X160394891Y-105602299D01*
X160394889Y-105602298D01*
X160347084Y-105582496D01*
X160347080Y-105582495D01*
X160345652Y-105582211D01*
X160322894Y-105577684D01*
X160289680Y-105571077D01*
X160201314Y-105553499D01*
X160201312Y-105553499D01*
X160052688Y-105553499D01*
X160046574Y-105553499D01*
X160046554Y-105553500D01*
X158637540Y-105553500D01*
X158596585Y-105546541D01*
X158528262Y-105522633D01*
X158528249Y-105522630D01*
X158349004Y-105502435D01*
X158348996Y-105502435D01*
X158169750Y-105522630D01*
X158169745Y-105522631D01*
X157999476Y-105582211D01*
X157846737Y-105678184D01*
X157719184Y-105805737D01*
X157623211Y-105958476D01*
X157563631Y-106128745D01*
X157563630Y-106128750D01*
X157543435Y-106307996D01*
X157543435Y-106308003D01*
X157563630Y-106487249D01*
X157563631Y-106487254D01*
X157623211Y-106657523D01*
X157719184Y-106810262D01*
X157719185Y-106810263D01*
X157764241Y-106855320D01*
X157797725Y-106916643D01*
X157792740Y-106986335D01*
X157764241Y-107030680D01*
X157719184Y-107075737D01*
X157619506Y-107234374D01*
X157617786Y-107233293D01*
X157577616Y-107277785D01*
X157510189Y-107296097D01*
X157443565Y-107275048D01*
X157425039Y-107259804D01*
X155583819Y-105418584D01*
X155550334Y-105357261D01*
X155547500Y-105330903D01*
X155547500Y-103160670D01*
X155547499Y-103160666D01*
X155508745Y-102965838D01*
X155508744Y-102965831D01*
X155432721Y-102782296D01*
X155432720Y-102782295D01*
X155432717Y-102782289D01*
X155322353Y-102617119D01*
X155322350Y-102617115D01*
X155181884Y-102476649D01*
X155181880Y-102476646D01*
X155016710Y-102366282D01*
X155016701Y-102366277D01*
X154833169Y-102290256D01*
X154833161Y-102290254D01*
X154638333Y-102251500D01*
X154638329Y-102251500D01*
X142727478Y-102251500D01*
X142660439Y-102231815D01*
X142656354Y-102229074D01*
X142498165Y-102118308D01*
X142498159Y-102118304D01*
X142498157Y-102118303D01*
X142289891Y-102021187D01*
X142289887Y-102021186D01*
X142289883Y-102021184D01*
X142067928Y-101961712D01*
X142067924Y-101961711D01*
X142067923Y-101961711D01*
X142067922Y-101961710D01*
X142067917Y-101961710D01*
X141839002Y-101941683D01*
X141838998Y-101941683D01*
X141610082Y-101961710D01*
X141610071Y-101961712D01*
X141388116Y-102021184D01*
X141388107Y-102021188D01*
X141245905Y-102087498D01*
X141176827Y-102097990D01*
X141113043Y-102069470D01*
X141074804Y-102010994D01*
X141069500Y-101975116D01*
X141069500Y-100074500D01*
X141089185Y-100007461D01*
X141141989Y-99961706D01*
X141193500Y-99950500D01*
X165344500Y-99950500D01*
X165411539Y-99970185D01*
G37*
G04 #@! TD.AperFunction*
G04 #@! TA.AperFunction,Conductor*
G36*
X181152703Y-108440383D02*
G01*
X181159180Y-108446414D01*
X183845758Y-111132992D01*
X183879242Y-111194314D01*
X183874258Y-111264006D01*
X183832386Y-111319939D01*
X183766922Y-111344356D01*
X183755964Y-111344135D01*
X183755964Y-111344435D01*
X183748996Y-111344435D01*
X183569750Y-111364630D01*
X183569745Y-111364631D01*
X183399476Y-111424211D01*
X183246737Y-111520184D01*
X183119184Y-111647737D01*
X183023211Y-111800476D01*
X182963631Y-111970745D01*
X182963630Y-111970750D01*
X182943435Y-112149996D01*
X182943435Y-112150003D01*
X182963630Y-112329249D01*
X182963631Y-112329254D01*
X183023211Y-112499523D01*
X183119184Y-112652262D01*
X183119185Y-112652263D01*
X183164241Y-112697320D01*
X183197725Y-112758643D01*
X183192740Y-112828335D01*
X183164241Y-112872680D01*
X183119184Y-112917737D01*
X183023211Y-113070476D01*
X182963631Y-113240745D01*
X182963630Y-113240750D01*
X182943435Y-113419996D01*
X182943435Y-113420003D01*
X182963630Y-113599249D01*
X182963631Y-113599254D01*
X183023211Y-113769523D01*
X183119184Y-113922262D01*
X183119185Y-113922263D01*
X183164241Y-113967320D01*
X183197725Y-114028643D01*
X183192740Y-114098335D01*
X183164241Y-114142680D01*
X183119184Y-114187737D01*
X183023211Y-114340476D01*
X182963631Y-114510745D01*
X182963630Y-114510750D01*
X182943435Y-114689996D01*
X182943435Y-114690003D01*
X182963630Y-114869249D01*
X182963631Y-114869254D01*
X183023211Y-115039523D01*
X183119184Y-115192262D01*
X183119185Y-115192263D01*
X183164241Y-115237320D01*
X183197725Y-115298643D01*
X183192740Y-115368335D01*
X183164241Y-115412680D01*
X183119184Y-115457737D01*
X183023211Y-115610476D01*
X182963631Y-115780745D01*
X182963630Y-115780750D01*
X182943435Y-115959996D01*
X182943435Y-115960003D01*
X182963630Y-116139249D01*
X182963631Y-116139254D01*
X183023211Y-116309523D01*
X183119184Y-116462262D01*
X183119185Y-116462263D01*
X183164241Y-116507320D01*
X183197725Y-116568643D01*
X183192740Y-116638335D01*
X183164241Y-116682680D01*
X183119184Y-116727737D01*
X183023211Y-116880476D01*
X182963631Y-117050745D01*
X182963630Y-117050750D01*
X182943435Y-117229996D01*
X182943435Y-117230003D01*
X182963630Y-117409249D01*
X182963631Y-117409254D01*
X183023211Y-117579523D01*
X183119184Y-117732262D01*
X183119185Y-117732263D01*
X183164241Y-117777320D01*
X183197725Y-117838643D01*
X183192740Y-117908335D01*
X183164241Y-117952680D01*
X183119184Y-117997737D01*
X183023211Y-118150476D01*
X182963631Y-118320745D01*
X182963630Y-118320750D01*
X182943435Y-118499996D01*
X182943435Y-118500003D01*
X182963630Y-118679249D01*
X182963631Y-118679254D01*
X183023211Y-118849523D01*
X183119184Y-119002262D01*
X183119185Y-119002263D01*
X183164241Y-119047320D01*
X183197725Y-119108643D01*
X183192740Y-119178335D01*
X183164241Y-119222680D01*
X183119184Y-119267737D01*
X183023211Y-119420476D01*
X182963631Y-119590745D01*
X182963630Y-119590750D01*
X182943435Y-119769996D01*
X182943435Y-119770003D01*
X182963630Y-119949249D01*
X182963631Y-119949254D01*
X183023211Y-120119523D01*
X183065278Y-120186471D01*
X183119184Y-120272262D01*
X183246738Y-120399816D01*
X183335320Y-120455476D01*
X183405374Y-120499494D01*
X183404868Y-120500298D01*
X183430360Y-120518385D01*
X184501381Y-121589405D01*
X184534866Y-121650728D01*
X184537700Y-121677086D01*
X184537700Y-128853752D01*
X184537699Y-128853778D01*
X184537699Y-128858888D01*
X184537699Y-129007512D01*
X184537699Y-129007514D01*
X184537698Y-129007514D01*
X184566693Y-129153273D01*
X184566696Y-129153283D01*
X184623566Y-129290581D01*
X184623572Y-129290592D01*
X184706142Y-129414168D01*
X184706143Y-129414169D01*
X188760012Y-133468037D01*
X188793497Y-133529360D01*
X188795859Y-133566525D01*
X188780683Y-133739997D01*
X188780683Y-133740001D01*
X188800710Y-133968917D01*
X188800712Y-133968928D01*
X188860184Y-134190883D01*
X188860186Y-134190887D01*
X188860187Y-134190891D01*
X188926498Y-134333095D01*
X188936990Y-134402173D01*
X188908470Y-134465957D01*
X188849994Y-134504196D01*
X188814116Y-134509500D01*
X168523884Y-134509500D01*
X168456845Y-134489815D01*
X168411090Y-134437011D01*
X168401146Y-134367853D01*
X168411502Y-134333095D01*
X168477813Y-134190891D01*
X168537289Y-133968923D01*
X168557317Y-133740000D01*
X168542140Y-133566524D01*
X168555907Y-133498024D01*
X168577984Y-133468039D01*
X174069963Y-127976060D01*
X174069966Y-127976059D01*
X174175059Y-127870966D01*
X174257629Y-127747390D01*
X174314505Y-127610080D01*
X174320057Y-127582166D01*
X174343501Y-127464312D01*
X174343501Y-127315688D01*
X174343501Y-127310578D01*
X174343500Y-127310552D01*
X174343500Y-124430886D01*
X174363185Y-124363847D01*
X174415989Y-124318092D01*
X174485147Y-124308148D01*
X174548703Y-124337173D01*
X174555180Y-124343204D01*
X176594699Y-126382724D01*
X178600012Y-128388037D01*
X178633497Y-128449360D01*
X178635859Y-128486525D01*
X178620683Y-128659997D01*
X178620683Y-128660001D01*
X178640710Y-128888917D01*
X178640712Y-128888928D01*
X178700184Y-129110883D01*
X178700186Y-129110887D01*
X178700187Y-129110891D01*
X178797304Y-129319159D01*
X178929111Y-129507398D01*
X179091602Y-129669889D01*
X179279841Y-129801696D01*
X179488109Y-129898813D01*
X179710077Y-129958289D01*
X179873593Y-129972594D01*
X179938998Y-129978317D01*
X179939000Y-129978317D01*
X179939002Y-129978317D01*
X179996230Y-129973310D01*
X180167923Y-129958289D01*
X180389891Y-129898813D01*
X180598159Y-129801696D01*
X180786398Y-129669889D01*
X180948889Y-129507398D01*
X181080696Y-129319159D01*
X181177813Y-129110891D01*
X181237289Y-128888923D01*
X181257317Y-128660000D01*
X181253308Y-128614182D01*
X181242140Y-128486524D01*
X181237289Y-128431077D01*
X181177813Y-128209109D01*
X181080696Y-128000842D01*
X181070493Y-127986271D01*
X180948892Y-127812606D01*
X180948887Y-127812600D01*
X180786398Y-127650111D01*
X180598165Y-127518308D01*
X180598162Y-127518306D01*
X180598159Y-127518304D01*
X180564013Y-127502381D01*
X180511574Y-127456210D01*
X180492422Y-127389017D01*
X180512637Y-127322136D01*
X180564014Y-127277618D01*
X180598159Y-127261696D01*
X180786398Y-127129889D01*
X180948889Y-126967398D01*
X181080696Y-126779159D01*
X181177813Y-126570891D01*
X181237289Y-126348923D01*
X181257317Y-126120000D01*
X181253308Y-126074182D01*
X181242140Y-125946524D01*
X181237289Y-125891077D01*
X181177813Y-125669109D01*
X181080696Y-125460842D01*
X180948889Y-125272602D01*
X180786398Y-125110111D01*
X180708499Y-125055565D01*
X180598165Y-124978308D01*
X180598162Y-124978306D01*
X180598159Y-124978304D01*
X180564013Y-124962381D01*
X180511574Y-124916210D01*
X180492422Y-124849017D01*
X180512637Y-124782136D01*
X180564014Y-124737618D01*
X180564713Y-124737292D01*
X180598159Y-124721696D01*
X180786398Y-124589889D01*
X180948889Y-124427398D01*
X181080696Y-124239159D01*
X181177813Y-124030891D01*
X181237289Y-123808923D01*
X181257317Y-123580000D01*
X181253308Y-123534182D01*
X181242140Y-123406524D01*
X181237289Y-123351077D01*
X181177813Y-123129109D01*
X181080696Y-122920842D01*
X181080695Y-122920840D01*
X180969925Y-122762643D01*
X180947598Y-122696437D01*
X180947500Y-122691520D01*
X180947500Y-108534096D01*
X180967185Y-108467057D01*
X181019989Y-108421302D01*
X181089147Y-108411358D01*
X181152703Y-108440383D01*
G37*
G04 #@! TD.AperFunction*
G04 #@! TA.AperFunction,Conductor*
G36*
X190811539Y-99970185D02*
G01*
X190857294Y-100022989D01*
X190868500Y-100074500D01*
X190868500Y-101975116D01*
X190848815Y-102042155D01*
X190796011Y-102087910D01*
X190726853Y-102097854D01*
X190692095Y-102087498D01*
X190653434Y-102069470D01*
X190549891Y-102021187D01*
X190549887Y-102021186D01*
X190549883Y-102021184D01*
X190327928Y-101961712D01*
X190327924Y-101961711D01*
X190327923Y-101961711D01*
X190327922Y-101961710D01*
X190327917Y-101961710D01*
X190099002Y-101941683D01*
X190098998Y-101941683D01*
X189870082Y-101961710D01*
X189870071Y-101961712D01*
X189648116Y-102021184D01*
X189648107Y-102021188D01*
X189439842Y-102118303D01*
X189439840Y-102118304D01*
X189251606Y-102250107D01*
X189251600Y-102250112D01*
X189089112Y-102412600D01*
X189089107Y-102412606D01*
X188957304Y-102600840D01*
X188957303Y-102600842D01*
X188860188Y-102809107D01*
X188860184Y-102809116D01*
X188800712Y-103031071D01*
X188800710Y-103031082D01*
X188780683Y-103259998D01*
X188780683Y-103260001D01*
X188800710Y-103488917D01*
X188800712Y-103488928D01*
X188860184Y-103710883D01*
X188860186Y-103710887D01*
X188860187Y-103710891D01*
X188957304Y-103919159D01*
X189089111Y-104107398D01*
X189251602Y-104269889D01*
X189439841Y-104401696D01*
X189473986Y-104417618D01*
X189526425Y-104463791D01*
X189545577Y-104530984D01*
X189525361Y-104597865D01*
X189473986Y-104642382D01*
X189439842Y-104658303D01*
X189439840Y-104658304D01*
X189251606Y-104790107D01*
X189251600Y-104790112D01*
X189089112Y-104952600D01*
X189089107Y-104952606D01*
X188957304Y-105140840D01*
X188957303Y-105140842D01*
X188860188Y-105349107D01*
X188860184Y-105349116D01*
X188800712Y-105571071D01*
X188800710Y-105571082D01*
X188780683Y-105799998D01*
X188780683Y-105800001D01*
X188800710Y-106028917D01*
X188800712Y-106028928D01*
X188860184Y-106250883D01*
X188860186Y-106250887D01*
X188860187Y-106250891D01*
X188957304Y-106459159D01*
X189089111Y-106647398D01*
X189251602Y-106809889D01*
X189439841Y-106941696D01*
X189473986Y-106957618D01*
X189526425Y-107003791D01*
X189545577Y-107070984D01*
X189525361Y-107137865D01*
X189473986Y-107182382D01*
X189439842Y-107198303D01*
X189439840Y-107198304D01*
X189251606Y-107330107D01*
X189251600Y-107330112D01*
X189089112Y-107492600D01*
X189089107Y-107492606D01*
X188957304Y-107680840D01*
X188957303Y-107680842D01*
X188860188Y-107889107D01*
X188860184Y-107889116D01*
X188800712Y-108111071D01*
X188800710Y-108111081D01*
X188791416Y-108217309D01*
X188765963Y-108282378D01*
X188709372Y-108323356D01*
X188639610Y-108327233D01*
X188580207Y-108294182D01*
X186007969Y-105721943D01*
X186007968Y-105721942D01*
X185884392Y-105639372D01*
X185884391Y-105639371D01*
X185884389Y-105639370D01*
X185884386Y-105639368D01*
X185884381Y-105639366D01*
X185794891Y-105602299D01*
X185794889Y-105602298D01*
X185747084Y-105582496D01*
X185747080Y-105582495D01*
X185745652Y-105582211D01*
X185722894Y-105577684D01*
X185689680Y-105571077D01*
X185601314Y-105553499D01*
X185601312Y-105553499D01*
X185452688Y-105553499D01*
X185446574Y-105553499D01*
X185446554Y-105553500D01*
X184037540Y-105553500D01*
X183996585Y-105546541D01*
X183928262Y-105522633D01*
X183928249Y-105522630D01*
X183749004Y-105502435D01*
X183748996Y-105502435D01*
X183569750Y-105522630D01*
X183569745Y-105522631D01*
X183399476Y-105582211D01*
X183246737Y-105678184D01*
X183119184Y-105805737D01*
X183023211Y-105958476D01*
X182963631Y-106128745D01*
X182963630Y-106128750D01*
X182943435Y-106307996D01*
X182943435Y-106308003D01*
X182963630Y-106487249D01*
X182963631Y-106487254D01*
X183023211Y-106657523D01*
X183119184Y-106810262D01*
X183119185Y-106810263D01*
X183164241Y-106855320D01*
X183197725Y-106916643D01*
X183192740Y-106986335D01*
X183164241Y-107030680D01*
X183119184Y-107075737D01*
X183019506Y-107234374D01*
X183017786Y-107233293D01*
X182977616Y-107277785D01*
X182910189Y-107296097D01*
X182843565Y-107275048D01*
X182825039Y-107259804D01*
X180983819Y-105418584D01*
X180950334Y-105357261D01*
X180947500Y-105330903D01*
X180947500Y-103160670D01*
X180947499Y-103160666D01*
X180908745Y-102965838D01*
X180908744Y-102965831D01*
X180832721Y-102782296D01*
X180832720Y-102782295D01*
X180832717Y-102782289D01*
X180722353Y-102617119D01*
X180722350Y-102617115D01*
X180581884Y-102476649D01*
X180581880Y-102476646D01*
X180416710Y-102366282D01*
X180416701Y-102366277D01*
X180233169Y-102290256D01*
X180233161Y-102290254D01*
X180038333Y-102251500D01*
X180038329Y-102251500D01*
X168127478Y-102251500D01*
X168060439Y-102231815D01*
X168056354Y-102229074D01*
X167898165Y-102118308D01*
X167898159Y-102118304D01*
X167898157Y-102118303D01*
X167689891Y-102021187D01*
X167689887Y-102021186D01*
X167689883Y-102021184D01*
X167467928Y-101961712D01*
X167467924Y-101961711D01*
X167467923Y-101961711D01*
X167467922Y-101961710D01*
X167467917Y-101961710D01*
X167239002Y-101941683D01*
X167238998Y-101941683D01*
X167010082Y-101961710D01*
X167010071Y-101961712D01*
X166788116Y-102021184D01*
X166788107Y-102021188D01*
X166645905Y-102087498D01*
X166576827Y-102097990D01*
X166513043Y-102069470D01*
X166474804Y-102010994D01*
X166469500Y-101975116D01*
X166469500Y-100074500D01*
X166489185Y-100007461D01*
X166541989Y-99961706D01*
X166593500Y-99950500D01*
X190744500Y-99950500D01*
X190811539Y-99970185D01*
G37*
G04 #@! TD.AperFunction*
M02*
