M48
; DRILL file {KiCad 8.0.2} date 2024-09-16T05:25:37+0900
; FORMAT={-:-/ absolute / inch / decimal}
; #@! TF.CreationDate,2024-09-16T05:25:37+09:00
; #@! TF.GenerationSoftware,Kicad,Pcbnew,8.0.2
; #@! TF.FileFunction,Plated,1,2,PTH
FMAT,2
INCH
; #@! TA.AperFunction,Plated,PTH,ViaDrill
T1C0.0118
; #@! TA.AperFunction,Plated,PTH,ViaDrill
T2C0.0400
%
G90
G05
T1
X4.8342Y-2.7854
X4.8342Y-2.8354
X4.8342Y-2.8854
X4.8342Y-2.9354
X4.8342Y-2.9854
X4.8342Y-3.0354
X4.8342Y-3.0854
X4.8342Y-3.1354
X4.8342Y-3.1854
X4.8342Y-3.2354
X4.8342Y-4.1854
X4.8342Y-4.2354
X4.8342Y-4.2854
X4.8342Y-4.3354
X4.8342Y-4.3854
X4.8342Y-4.4354
X4.8342Y-4.4854
X4.8342Y-4.5354
X4.8342Y-4.5854
X4.8342Y-4.6354
X5.2342Y-2.7854
X5.2342Y-2.8354
X5.2342Y-3.0154
X5.2342Y-3.0654
X5.2342Y-3.1154
X5.2342Y-3.1654
X5.2342Y-3.2154
X5.2342Y-3.2654
X5.2342Y-3.3154
X5.2342Y-4.1854
X5.2342Y-4.2354
X5.2342Y-4.4154
X5.2342Y-4.4654
X5.2342Y-4.5154
X5.2342Y-4.5654
X5.2342Y-4.6154
X5.2342Y-4.6654
X5.2342Y-4.7154
X5.8342Y-2.7854
X5.8342Y-2.8354
X5.8342Y-2.8854
X5.8342Y-2.9354
X5.8342Y-2.9854
X5.8342Y-3.0354
X5.8342Y-3.0854
X5.8342Y-3.1354
X5.8342Y-3.1854
X5.8342Y-3.2354
X5.8342Y-4.1854
X5.8342Y-4.2354
X5.8342Y-4.2854
X5.8342Y-4.3354
X5.8342Y-4.3854
X5.8342Y-4.4354
X5.8342Y-4.4854
X5.8342Y-4.5354
X5.8342Y-4.5854
X5.8342Y-4.6354
X6.2342Y-2.7854
X6.2342Y-2.8354
X6.2342Y-3.0154
X6.2342Y-3.0654
X6.2342Y-3.1154
X6.2342Y-3.1654
X6.2342Y-3.2154
X6.2342Y-3.2654
X6.2342Y-3.3154
X6.2342Y-4.1854
X6.2342Y-4.2354
X6.2342Y-4.4154
X6.2342Y-4.4654
X6.2342Y-4.5154
X6.2342Y-4.5654
X6.2342Y-4.6154
X6.2342Y-4.6654
X6.2342Y-4.7154
X6.8342Y-2.7854
X6.8342Y-2.8354
X6.8342Y-2.8854
X6.8342Y-2.9354
X6.8342Y-2.9854
X6.8342Y-3.0354
X6.8342Y-3.0854
X6.8342Y-3.1354
X6.8342Y-3.1854
X6.8342Y-3.2354
X6.8342Y-4.1854
X6.8342Y-4.2354
X6.8342Y-4.2854
X6.8342Y-4.3354
X6.8342Y-4.3854
X6.8342Y-4.4354
X6.8342Y-4.4854
X6.8342Y-4.5354
X6.8342Y-4.5854
X6.8342Y-4.6354
X7.2342Y-2.7854
X7.2342Y-2.8354
X7.2342Y-3.0154
X7.2342Y-3.0654
X7.2342Y-3.1154
X7.2342Y-3.1654
X7.2342Y-3.2154
X7.2342Y-3.2654
X7.2342Y-3.3154
X7.2342Y-4.1854
X7.2342Y-4.2354
X7.2342Y-4.4154
X7.2342Y-4.4654
X7.2342Y-4.5154
X7.2342Y-4.5654
X7.2342Y-4.6154
X7.2342Y-4.6654
X7.2342Y-4.7154
T2
X4.5842Y-2.5654
X4.5842Y-2.6654
X4.5842Y-2.7654
X4.5842Y-2.8654
X4.5842Y-2.9654
X4.5842Y-3.0654
X4.5842Y-3.1654
X4.5842Y-3.2654
X4.5842Y-3.3654
X4.5842Y-3.4654
X4.5842Y-3.5654
X4.5842Y-3.6654
X4.5842Y-3.7654
X4.5842Y-3.8654
X4.5842Y-3.9654
X4.5842Y-4.0654
X4.5842Y-4.1654
X4.5842Y-4.2654
X4.5842Y-4.3654
X4.5842Y-4.4654
X4.5842Y-4.5654
X4.5842Y-4.6654
X4.5842Y-4.7654
X4.5842Y-4.8654
X4.5842Y-4.9654
X4.5842Y-5.0654
X4.5842Y-5.1654
X4.5842Y-5.2654
X5.0842Y-3.4654
X5.0842Y-3.5654
X5.0842Y-3.6654
X5.0842Y-3.7654
X5.0842Y-4.8654
X5.0842Y-4.9654
X5.0842Y-5.0654
X5.0842Y-5.1654
X5.4842Y-2.5654
X5.4842Y-2.6654
X5.4842Y-2.7654
X5.4842Y-2.8654
X5.4842Y-2.9654
X5.4842Y-3.0654
X5.4842Y-3.1654
X5.4842Y-3.2654
X5.4842Y-3.3654
X5.4842Y-3.4654
X5.4842Y-3.5654
X5.4842Y-3.6654
X5.4842Y-3.7654
X5.4842Y-3.8654
X5.4842Y-3.9654
X5.4842Y-4.0654
X5.4842Y-4.1654
X5.4842Y-4.2654
X5.4842Y-4.3654
X5.4842Y-4.4654
X5.4842Y-4.5654
X5.4842Y-4.6654
X5.4842Y-4.7654
X5.4842Y-4.8654
X5.4842Y-4.9654
X5.4842Y-5.0654
X5.4842Y-5.1654
X5.4842Y-5.2654
X5.5842Y-2.5654
X5.5842Y-2.6654
X5.5842Y-2.7654
X5.5842Y-2.8654
X5.5842Y-2.9654
X5.5842Y-3.0654
X5.5842Y-3.1654
X5.5842Y-3.2654
X5.5842Y-3.3654
X5.5842Y-3.4654
X5.5842Y-3.5654
X5.5842Y-3.6654
X5.5842Y-3.7654
X5.5842Y-3.8654
X5.5842Y-3.9654
X5.5842Y-4.0654
X5.5842Y-4.1654
X5.5842Y-4.2654
X5.5842Y-4.3654
X5.5842Y-4.4654
X5.5842Y-4.5654
X5.5842Y-4.6654
X5.5842Y-4.7654
X5.5842Y-4.8654
X5.5842Y-4.9654
X5.5842Y-5.0654
X5.5842Y-5.1654
X5.5842Y-5.2654
X6.0842Y-3.4654
X6.0842Y-3.5654
X6.0842Y-3.6654
X6.0842Y-3.7654
X6.0842Y-4.8654
X6.0842Y-4.9654
X6.0842Y-5.0654
X6.0842Y-5.1654
X6.4842Y-2.5654
X6.4842Y-2.6654
X6.4842Y-2.7654
X6.4842Y-2.8654
X6.4842Y-2.9654
X6.4842Y-3.0654
X6.4842Y-3.1654
X6.4842Y-3.2654
X6.4842Y-3.3654
X6.4842Y-3.4654
X6.4842Y-3.5654
X6.4842Y-3.6654
X6.4842Y-3.7654
X6.4842Y-3.8654
X6.4842Y-3.9654
X6.4842Y-4.0654
X6.4842Y-4.1654
X6.4842Y-4.2654
X6.4842Y-4.3654
X6.4842Y-4.4654
X6.4842Y-4.5654
X6.4842Y-4.6654
X6.4842Y-4.7654
X6.4842Y-4.8654
X6.4842Y-4.9654
X6.4842Y-5.0654
X6.4842Y-5.1654
X6.4842Y-5.2654
X6.5842Y-2.5654
X6.5842Y-2.6654
X6.5842Y-2.7654
X6.5842Y-2.8654
X6.5842Y-2.9654
X6.5842Y-3.0654
X6.5842Y-3.1654
X6.5842Y-3.2654
X6.5842Y-3.3654
X6.5842Y-3.4654
X6.5842Y-3.5654
X6.5842Y-3.6654
X6.5842Y-3.7654
X6.5842Y-3.8654
X6.5842Y-3.9654
X6.5842Y-4.0654
X6.5842Y-4.1654
X6.5842Y-4.2654
X6.5842Y-4.3654
X6.5842Y-4.4654
X6.5842Y-4.5654
X6.5842Y-4.6654
X6.5842Y-4.7654
X6.5842Y-4.8654
X6.5842Y-4.9654
X6.5842Y-5.0654
X6.5842Y-5.1654
X6.5842Y-5.2654
X7.0842Y-3.4654
X7.0842Y-3.5654
X7.0842Y-3.6654
X7.0842Y-3.7654
X7.0842Y-4.8654
X7.0842Y-4.9654
X7.0842Y-5.0654
X7.0842Y-5.1654
X7.4842Y-2.5654
X7.4842Y-2.6654
X7.4842Y-2.7654
X7.4842Y-2.8654
X7.4842Y-2.9654
X7.4842Y-3.0654
X7.4842Y-3.1654
X7.4842Y-3.2654
X7.4842Y-3.3654
X7.4842Y-3.4654
X7.4842Y-3.5654
X7.4842Y-3.6654
X7.4842Y-3.7654
X7.4842Y-3.8654
X7.4842Y-3.9654
X7.4842Y-4.0654
X7.4842Y-4.1654
X7.4842Y-4.2654
X7.4842Y-4.3654
X7.4842Y-4.4654
X7.4842Y-4.5654
X7.4842Y-4.6654
X7.4842Y-4.7654
X7.4842Y-4.8654
X7.4842Y-4.9654
X7.4842Y-5.0654
X7.4842Y-5.1654
X7.4842Y-5.2654
M30
