G04 #@! TF.GenerationSoftware,KiCad,Pcbnew,8.0.2*
G04 #@! TF.CreationDate,2024-09-16T05:24:11+09:00*
G04 #@! TF.ProjectId,ESP32-C6_breakout,45535033-322d-4433-965f-627265616b6f,1.0*
G04 #@! TF.SameCoordinates,Original*
G04 #@! TF.FileFunction,Profile,NP*
%FSLAX46Y46*%
G04 Gerber Fmt 4.6, Leading zero omitted, Abs format (unit mm)*
G04 Created by KiCad (PCBNEW 8.0.2) date 2024-09-16 05:24:11*
%MOMM*%
%LPD*%
G01*
G04 APERTURE LIST*
%ADD10C,0.254000*%
G04 #@! TA.AperFunction,Profile*
%ADD11C,0.050000*%
G04 #@! TD*
G04 APERTURE END LIST*
D10*
X193314105Y-98996283D02*
X192152962Y-99431712D01*
X192152962Y-99431712D02*
X193314105Y-99867140D01*
X193822104Y-98488283D02*
X194330104Y-100012283D01*
X194330104Y-100012283D02*
X194838104Y-98488283D01*
X195346105Y-99431712D02*
X196507248Y-99431712D01*
X198103819Y-99867140D02*
X198031247Y-99939712D01*
X198031247Y-99939712D02*
X197813533Y-100012283D01*
X197813533Y-100012283D02*
X197668390Y-100012283D01*
X197668390Y-100012283D02*
X197450676Y-99939712D01*
X197450676Y-99939712D02*
X197305533Y-99794569D01*
X197305533Y-99794569D02*
X197232962Y-99649426D01*
X197232962Y-99649426D02*
X197160390Y-99359140D01*
X197160390Y-99359140D02*
X197160390Y-99141426D01*
X197160390Y-99141426D02*
X197232962Y-98851140D01*
X197232962Y-98851140D02*
X197305533Y-98705997D01*
X197305533Y-98705997D02*
X197450676Y-98560854D01*
X197450676Y-98560854D02*
X197668390Y-98488283D01*
X197668390Y-98488283D02*
X197813533Y-98488283D01*
X197813533Y-98488283D02*
X198031247Y-98560854D01*
X198031247Y-98560854D02*
X198103819Y-98633426D01*
X198756962Y-98488283D02*
X198756962Y-99721997D01*
X198756962Y-99721997D02*
X198829533Y-99867140D01*
X198829533Y-99867140D02*
X198902105Y-99939712D01*
X198902105Y-99939712D02*
X199047247Y-100012283D01*
X199047247Y-100012283D02*
X199337533Y-100012283D01*
X199337533Y-100012283D02*
X199482676Y-99939712D01*
X199482676Y-99939712D02*
X199555247Y-99867140D01*
X199555247Y-99867140D02*
X199627819Y-99721997D01*
X199627819Y-99721997D02*
X199627819Y-98488283D01*
X200135818Y-98488283D02*
X201006676Y-98488283D01*
X200571247Y-100012283D02*
X200571247Y-98488283D01*
D11*
X165969000Y-99450000D02*
X191369000Y-99450000D01*
X191369000Y-135010000D01*
X165969000Y-135010000D01*
X165969000Y-99450000D01*
X140569000Y-99450000D02*
X165969000Y-99450000D01*
X165969000Y-135010000D01*
X140569000Y-135010000D01*
X140569000Y-99450000D01*
X115169000Y-99450000D02*
X140569000Y-99450000D01*
X140569000Y-135010000D01*
X115169000Y-135010000D01*
X115169000Y-99450000D01*
X165969000Y-63890000D02*
X191369000Y-63890000D01*
X191369000Y-99450000D01*
X165969000Y-99450000D01*
X165969000Y-63890000D01*
X140569000Y-63890000D02*
X165969000Y-63890000D01*
X165969000Y-99450000D01*
X140569000Y-99450000D01*
X140569000Y-63890000D01*
X115169000Y-63890000D02*
X140569000Y-63890000D01*
X140569000Y-99450000D01*
X115169000Y-99450000D01*
X115169000Y-63890000D01*
D10*
X166063533Y-137350283D02*
X166063533Y-136189140D01*
X165773247Y-136479426D02*
X166063533Y-136189140D01*
X166063533Y-136189140D02*
X166353819Y-136479426D01*
X167152104Y-135826283D02*
X167660104Y-137350283D01*
X167660104Y-137350283D02*
X168168104Y-135826283D01*
X168676105Y-136769712D02*
X169837248Y-136769712D01*
X171433819Y-137205140D02*
X171361247Y-137277712D01*
X171361247Y-137277712D02*
X171143533Y-137350283D01*
X171143533Y-137350283D02*
X170998390Y-137350283D01*
X170998390Y-137350283D02*
X170780676Y-137277712D01*
X170780676Y-137277712D02*
X170635533Y-137132569D01*
X170635533Y-137132569D02*
X170562962Y-136987426D01*
X170562962Y-136987426D02*
X170490390Y-136697140D01*
X170490390Y-136697140D02*
X170490390Y-136479426D01*
X170490390Y-136479426D02*
X170562962Y-136189140D01*
X170562962Y-136189140D02*
X170635533Y-136043997D01*
X170635533Y-136043997D02*
X170780676Y-135898854D01*
X170780676Y-135898854D02*
X170998390Y-135826283D01*
X170998390Y-135826283D02*
X171143533Y-135826283D01*
X171143533Y-135826283D02*
X171361247Y-135898854D01*
X171361247Y-135898854D02*
X171433819Y-135971426D01*
X172086962Y-135826283D02*
X172086962Y-137059997D01*
X172086962Y-137059997D02*
X172159533Y-137205140D01*
X172159533Y-137205140D02*
X172232105Y-137277712D01*
X172232105Y-137277712D02*
X172377247Y-137350283D01*
X172377247Y-137350283D02*
X172667533Y-137350283D01*
X172667533Y-137350283D02*
X172812676Y-137277712D01*
X172812676Y-137277712D02*
X172885247Y-137205140D01*
X172885247Y-137205140D02*
X172957819Y-137059997D01*
X172957819Y-137059997D02*
X172957819Y-135826283D01*
X173465818Y-135826283D02*
X174336676Y-135826283D01*
X173901247Y-137350283D02*
X173901247Y-135826283D01*
X140663533Y-137350283D02*
X140663533Y-136189140D01*
X140373247Y-136479426D02*
X140663533Y-136189140D01*
X140663533Y-136189140D02*
X140953819Y-136479426D01*
X141752104Y-135826283D02*
X142260104Y-137350283D01*
X142260104Y-137350283D02*
X142768104Y-135826283D01*
X143276105Y-136769712D02*
X144437248Y-136769712D01*
X146033819Y-137205140D02*
X145961247Y-137277712D01*
X145961247Y-137277712D02*
X145743533Y-137350283D01*
X145743533Y-137350283D02*
X145598390Y-137350283D01*
X145598390Y-137350283D02*
X145380676Y-137277712D01*
X145380676Y-137277712D02*
X145235533Y-137132569D01*
X145235533Y-137132569D02*
X145162962Y-136987426D01*
X145162962Y-136987426D02*
X145090390Y-136697140D01*
X145090390Y-136697140D02*
X145090390Y-136479426D01*
X145090390Y-136479426D02*
X145162962Y-136189140D01*
X145162962Y-136189140D02*
X145235533Y-136043997D01*
X145235533Y-136043997D02*
X145380676Y-135898854D01*
X145380676Y-135898854D02*
X145598390Y-135826283D01*
X145598390Y-135826283D02*
X145743533Y-135826283D01*
X145743533Y-135826283D02*
X145961247Y-135898854D01*
X145961247Y-135898854D02*
X146033819Y-135971426D01*
X146686962Y-135826283D02*
X146686962Y-137059997D01*
X146686962Y-137059997D02*
X146759533Y-137205140D01*
X146759533Y-137205140D02*
X146832105Y-137277712D01*
X146832105Y-137277712D02*
X146977247Y-137350283D01*
X146977247Y-137350283D02*
X147267533Y-137350283D01*
X147267533Y-137350283D02*
X147412676Y-137277712D01*
X147412676Y-137277712D02*
X147485247Y-137205140D01*
X147485247Y-137205140D02*
X147557819Y-137059997D01*
X147557819Y-137059997D02*
X147557819Y-135826283D01*
X148065818Y-135826283D02*
X148936676Y-135826283D01*
X148501247Y-137350283D02*
X148501247Y-135826283D01*
M02*
