G04 #@! TF.GenerationSoftware,KiCad,Pcbnew,8.0.2*
G04 #@! TF.CreationDate,2024-12-25T05:51:59+09:00*
G04 #@! TF.ProjectId,ESP32-C6_interface,45535033-322d-4433-965f-696e74657266,1.0*
G04 #@! TF.SameCoordinates,Original*
G04 #@! TF.FileFunction,Legend,Bot*
G04 #@! TF.FilePolarity,Positive*
%FSLAX46Y46*%
G04 Gerber Fmt 4.6, Leading zero omitted, Abs format (unit mm)*
G04 Created by KiCad (PCBNEW 8.0.2) date 2024-12-25 05:51:59*
%MOMM*%
%LPD*%
G01*
G04 APERTURE LIST*
%ADD10C,0.150000*%
%ADD11C,0.125000*%
%ADD12C,0.120000*%
G04 APERTURE END LIST*
D10*
X171018030Y-104637819D02*
X171494220Y-104637819D01*
X171494220Y-104637819D02*
X171494220Y-103637819D01*
X170684696Y-104637819D02*
X170684696Y-103637819D01*
X170684696Y-103637819D02*
X170351363Y-104352104D01*
X170351363Y-104352104D02*
X170018030Y-103637819D01*
X170018030Y-103637819D02*
X170018030Y-104637819D01*
X169637077Y-103637819D02*
X169018030Y-103637819D01*
X169018030Y-103637819D02*
X169351363Y-104018771D01*
X169351363Y-104018771D02*
X169208506Y-104018771D01*
X169208506Y-104018771D02*
X169113268Y-104066390D01*
X169113268Y-104066390D02*
X169065649Y-104114009D01*
X169065649Y-104114009D02*
X169018030Y-104209247D01*
X169018030Y-104209247D02*
X169018030Y-104447342D01*
X169018030Y-104447342D02*
X169065649Y-104542580D01*
X169065649Y-104542580D02*
X169113268Y-104590200D01*
X169113268Y-104590200D02*
X169208506Y-104637819D01*
X169208506Y-104637819D02*
X169494220Y-104637819D01*
X169494220Y-104637819D02*
X169589458Y-104590200D01*
X169589458Y-104590200D02*
X169637077Y-104542580D01*
X168160887Y-103637819D02*
X168351363Y-103637819D01*
X168351363Y-103637819D02*
X168446601Y-103685438D01*
X168446601Y-103685438D02*
X168494220Y-103733057D01*
X168494220Y-103733057D02*
X168589458Y-103875914D01*
X168589458Y-103875914D02*
X168637077Y-104066390D01*
X168637077Y-104066390D02*
X168637077Y-104447342D01*
X168637077Y-104447342D02*
X168589458Y-104542580D01*
X168589458Y-104542580D02*
X168541839Y-104590200D01*
X168541839Y-104590200D02*
X168446601Y-104637819D01*
X168446601Y-104637819D02*
X168256125Y-104637819D01*
X168256125Y-104637819D02*
X168160887Y-104590200D01*
X168160887Y-104590200D02*
X168113268Y-104542580D01*
X168113268Y-104542580D02*
X168065649Y-104447342D01*
X168065649Y-104447342D02*
X168065649Y-104209247D01*
X168065649Y-104209247D02*
X168113268Y-104114009D01*
X168113268Y-104114009D02*
X168160887Y-104066390D01*
X168160887Y-104066390D02*
X168256125Y-104018771D01*
X168256125Y-104018771D02*
X168446601Y-104018771D01*
X168446601Y-104018771D02*
X168541839Y-104066390D01*
X168541839Y-104066390D02*
X168589458Y-104114009D01*
X168589458Y-104114009D02*
X168637077Y-104209247D01*
X167732315Y-103637819D02*
X167065649Y-103637819D01*
X167065649Y-103637819D02*
X167494220Y-104637819D01*
X166160887Y-104637819D02*
X166732315Y-104637819D01*
X166446601Y-104637819D02*
X166446601Y-103637819D01*
X166446601Y-103637819D02*
X166541839Y-103780676D01*
X166541839Y-103780676D02*
X166637077Y-103875914D01*
X166637077Y-103875914D02*
X166732315Y-103923533D01*
X171018030Y-58917819D02*
X171494220Y-58917819D01*
X171494220Y-58917819D02*
X171494220Y-57917819D01*
X170684696Y-58917819D02*
X170684696Y-57917819D01*
X170684696Y-57917819D02*
X170351363Y-58632104D01*
X170351363Y-58632104D02*
X170018030Y-57917819D01*
X170018030Y-57917819D02*
X170018030Y-58917819D01*
X169637077Y-57917819D02*
X169018030Y-57917819D01*
X169018030Y-57917819D02*
X169351363Y-58298771D01*
X169351363Y-58298771D02*
X169208506Y-58298771D01*
X169208506Y-58298771D02*
X169113268Y-58346390D01*
X169113268Y-58346390D02*
X169065649Y-58394009D01*
X169065649Y-58394009D02*
X169018030Y-58489247D01*
X169018030Y-58489247D02*
X169018030Y-58727342D01*
X169018030Y-58727342D02*
X169065649Y-58822580D01*
X169065649Y-58822580D02*
X169113268Y-58870200D01*
X169113268Y-58870200D02*
X169208506Y-58917819D01*
X169208506Y-58917819D02*
X169494220Y-58917819D01*
X169494220Y-58917819D02*
X169589458Y-58870200D01*
X169589458Y-58870200D02*
X169637077Y-58822580D01*
X168160887Y-57917819D02*
X168351363Y-57917819D01*
X168351363Y-57917819D02*
X168446601Y-57965438D01*
X168446601Y-57965438D02*
X168494220Y-58013057D01*
X168494220Y-58013057D02*
X168589458Y-58155914D01*
X168589458Y-58155914D02*
X168637077Y-58346390D01*
X168637077Y-58346390D02*
X168637077Y-58727342D01*
X168637077Y-58727342D02*
X168589458Y-58822580D01*
X168589458Y-58822580D02*
X168541839Y-58870200D01*
X168541839Y-58870200D02*
X168446601Y-58917819D01*
X168446601Y-58917819D02*
X168256125Y-58917819D01*
X168256125Y-58917819D02*
X168160887Y-58870200D01*
X168160887Y-58870200D02*
X168113268Y-58822580D01*
X168113268Y-58822580D02*
X168065649Y-58727342D01*
X168065649Y-58727342D02*
X168065649Y-58489247D01*
X168065649Y-58489247D02*
X168113268Y-58394009D01*
X168113268Y-58394009D02*
X168160887Y-58346390D01*
X168160887Y-58346390D02*
X168256125Y-58298771D01*
X168256125Y-58298771D02*
X168446601Y-58298771D01*
X168446601Y-58298771D02*
X168541839Y-58346390D01*
X168541839Y-58346390D02*
X168589458Y-58394009D01*
X168589458Y-58394009D02*
X168637077Y-58489247D01*
X167732315Y-57917819D02*
X167065649Y-57917819D01*
X167065649Y-57917819D02*
X167494220Y-58917819D01*
X166160887Y-58917819D02*
X166732315Y-58917819D01*
X166446601Y-58917819D02*
X166446601Y-57917819D01*
X166446601Y-57917819D02*
X166541839Y-58060676D01*
X166541839Y-58060676D02*
X166637077Y-58155914D01*
X166637077Y-58155914D02*
X166732315Y-58203533D01*
X170221819Y-46371905D02*
X169221819Y-46371905D01*
X169221819Y-46371905D02*
X169221819Y-46610000D01*
X169221819Y-46610000D02*
X169269438Y-46752857D01*
X169269438Y-46752857D02*
X169364676Y-46848095D01*
X169364676Y-46848095D02*
X169459914Y-46895714D01*
X169459914Y-46895714D02*
X169650390Y-46943333D01*
X169650390Y-46943333D02*
X169793247Y-46943333D01*
X169793247Y-46943333D02*
X169983723Y-46895714D01*
X169983723Y-46895714D02*
X170078961Y-46848095D01*
X170078961Y-46848095D02*
X170174200Y-46752857D01*
X170174200Y-46752857D02*
X170221819Y-46610000D01*
X170221819Y-46610000D02*
X170221819Y-46371905D01*
X170221819Y-47895714D02*
X170221819Y-47324286D01*
X170221819Y-47610000D02*
X169221819Y-47610000D01*
X169221819Y-47610000D02*
X169364676Y-47514762D01*
X169364676Y-47514762D02*
X169459914Y-47419524D01*
X169459914Y-47419524D02*
X169507533Y-47324286D01*
X163798238Y-45027257D02*
X163893476Y-44979638D01*
X163893476Y-44979638D02*
X163988714Y-44884400D01*
X163988714Y-44884400D02*
X164131571Y-44741542D01*
X164131571Y-44741542D02*
X164226809Y-44693923D01*
X164226809Y-44693923D02*
X164322047Y-44693923D01*
X164274428Y-44932019D02*
X164369666Y-44884400D01*
X164369666Y-44884400D02*
X164464904Y-44789161D01*
X164464904Y-44789161D02*
X164512523Y-44598685D01*
X164512523Y-44598685D02*
X164512523Y-44265352D01*
X164512523Y-44265352D02*
X164464904Y-44074876D01*
X164464904Y-44074876D02*
X164369666Y-43979638D01*
X164369666Y-43979638D02*
X164274428Y-43932019D01*
X164274428Y-43932019D02*
X164083952Y-43932019D01*
X164083952Y-43932019D02*
X163988714Y-43979638D01*
X163988714Y-43979638D02*
X163893476Y-44074876D01*
X163893476Y-44074876D02*
X163845857Y-44265352D01*
X163845857Y-44265352D02*
X163845857Y-44598685D01*
X163845857Y-44598685D02*
X163893476Y-44789161D01*
X163893476Y-44789161D02*
X163988714Y-44884400D01*
X163988714Y-44884400D02*
X164083952Y-44932019D01*
X164083952Y-44932019D02*
X164274428Y-44932019D01*
X162893476Y-44932019D02*
X163464904Y-44932019D01*
X163179190Y-44932019D02*
X163179190Y-43932019D01*
X163179190Y-43932019D02*
X163274428Y-44074876D01*
X163274428Y-44074876D02*
X163369666Y-44170114D01*
X163369666Y-44170114D02*
X163464904Y-44217733D01*
X166798237Y-50073104D02*
X166322047Y-50073104D01*
X166893475Y-50358819D02*
X166560142Y-49358819D01*
X166560142Y-49358819D02*
X166226809Y-50358819D01*
X165702999Y-49358819D02*
X165512523Y-49358819D01*
X165512523Y-49358819D02*
X165417285Y-49406438D01*
X165417285Y-49406438D02*
X165322047Y-49501676D01*
X165322047Y-49501676D02*
X165274428Y-49692152D01*
X165274428Y-49692152D02*
X165274428Y-50025485D01*
X165274428Y-50025485D02*
X165322047Y-50215961D01*
X165322047Y-50215961D02*
X165417285Y-50311200D01*
X165417285Y-50311200D02*
X165512523Y-50358819D01*
X165512523Y-50358819D02*
X165702999Y-50358819D01*
X165702999Y-50358819D02*
X165798237Y-50311200D01*
X165798237Y-50311200D02*
X165893475Y-50215961D01*
X165893475Y-50215961D02*
X165941094Y-50025485D01*
X165941094Y-50025485D02*
X165941094Y-49692152D01*
X165941094Y-49692152D02*
X165893475Y-49501676D01*
X165893475Y-49501676D02*
X165798237Y-49406438D01*
X165798237Y-49406438D02*
X165702999Y-49358819D01*
X164941094Y-49358819D02*
X164322047Y-49358819D01*
X164322047Y-49358819D02*
X164655380Y-49739771D01*
X164655380Y-49739771D02*
X164512523Y-49739771D01*
X164512523Y-49739771D02*
X164417285Y-49787390D01*
X164417285Y-49787390D02*
X164369666Y-49835009D01*
X164369666Y-49835009D02*
X164322047Y-49930247D01*
X164322047Y-49930247D02*
X164322047Y-50168342D01*
X164322047Y-50168342D02*
X164369666Y-50263580D01*
X164369666Y-50263580D02*
X164417285Y-50311200D01*
X164417285Y-50311200D02*
X164512523Y-50358819D01*
X164512523Y-50358819D02*
X164798237Y-50358819D01*
X164798237Y-50358819D02*
X164893475Y-50311200D01*
X164893475Y-50311200D02*
X164941094Y-50263580D01*
X163464904Y-49692152D02*
X163464904Y-50358819D01*
X163702999Y-49311200D02*
X163941094Y-50025485D01*
X163941094Y-50025485D02*
X163322047Y-50025485D01*
X162750618Y-49358819D02*
X162655380Y-49358819D01*
X162655380Y-49358819D02*
X162560142Y-49406438D01*
X162560142Y-49406438D02*
X162512523Y-49454057D01*
X162512523Y-49454057D02*
X162464904Y-49549295D01*
X162464904Y-49549295D02*
X162417285Y-49739771D01*
X162417285Y-49739771D02*
X162417285Y-49977866D01*
X162417285Y-49977866D02*
X162464904Y-50168342D01*
X162464904Y-50168342D02*
X162512523Y-50263580D01*
X162512523Y-50263580D02*
X162560142Y-50311200D01*
X162560142Y-50311200D02*
X162655380Y-50358819D01*
X162655380Y-50358819D02*
X162750618Y-50358819D01*
X162750618Y-50358819D02*
X162845856Y-50311200D01*
X162845856Y-50311200D02*
X162893475Y-50263580D01*
X162893475Y-50263580D02*
X162941094Y-50168342D01*
X162941094Y-50168342D02*
X162988713Y-49977866D01*
X162988713Y-49977866D02*
X162988713Y-49739771D01*
X162988713Y-49739771D02*
X162941094Y-49549295D01*
X162941094Y-49549295D02*
X162893475Y-49454057D01*
X162893475Y-49454057D02*
X162845856Y-49406438D01*
X162845856Y-49406438D02*
X162750618Y-49358819D01*
X161464904Y-50358819D02*
X162036332Y-50358819D01*
X161750618Y-50358819D02*
X161750618Y-49358819D01*
X161750618Y-49358819D02*
X161845856Y-49501676D01*
X161845856Y-49501676D02*
X161941094Y-49596914D01*
X161941094Y-49596914D02*
X162036332Y-49644533D01*
X161083951Y-50073104D02*
X160607761Y-50073104D01*
X161179189Y-50358819D02*
X160845856Y-49358819D01*
X160845856Y-49358819D02*
X160512523Y-50358819D01*
X137199666Y-69662819D02*
X137532999Y-69186628D01*
X137771094Y-69662819D02*
X137771094Y-68662819D01*
X137771094Y-68662819D02*
X137390142Y-68662819D01*
X137390142Y-68662819D02*
X137294904Y-68710438D01*
X137294904Y-68710438D02*
X137247285Y-68758057D01*
X137247285Y-68758057D02*
X137199666Y-68853295D01*
X137199666Y-68853295D02*
X137199666Y-68996152D01*
X137199666Y-68996152D02*
X137247285Y-69091390D01*
X137247285Y-69091390D02*
X137294904Y-69139009D01*
X137294904Y-69139009D02*
X137390142Y-69186628D01*
X137390142Y-69186628D02*
X137771094Y-69186628D01*
X136247285Y-69662819D02*
X136818713Y-69662819D01*
X136532999Y-69662819D02*
X136532999Y-68662819D01*
X136532999Y-68662819D02*
X136628237Y-68805676D01*
X136628237Y-68805676D02*
X136723475Y-68900914D01*
X136723475Y-68900914D02*
X136818713Y-68948533D01*
X135024618Y-70186819D02*
X134405571Y-70186819D01*
X134405571Y-70186819D02*
X134738904Y-70567771D01*
X134738904Y-70567771D02*
X134596047Y-70567771D01*
X134596047Y-70567771D02*
X134500809Y-70615390D01*
X134500809Y-70615390D02*
X134453190Y-70663009D01*
X134453190Y-70663009D02*
X134405571Y-70758247D01*
X134405571Y-70758247D02*
X134405571Y-70996342D01*
X134405571Y-70996342D02*
X134453190Y-71091580D01*
X134453190Y-71091580D02*
X134500809Y-71139200D01*
X134500809Y-71139200D02*
X134596047Y-71186819D01*
X134596047Y-71186819D02*
X134881761Y-71186819D01*
X134881761Y-71186819D02*
X134976999Y-71139200D01*
X134976999Y-71139200D02*
X135024618Y-71091580D01*
X133976999Y-71091580D02*
X133929380Y-71139200D01*
X133929380Y-71139200D02*
X133976999Y-71186819D01*
X133976999Y-71186819D02*
X134024618Y-71139200D01*
X134024618Y-71139200D02*
X133976999Y-71091580D01*
X133976999Y-71091580D02*
X133976999Y-71186819D01*
X133596047Y-70186819D02*
X132977000Y-70186819D01*
X132977000Y-70186819D02*
X133310333Y-70567771D01*
X133310333Y-70567771D02*
X133167476Y-70567771D01*
X133167476Y-70567771D02*
X133072238Y-70615390D01*
X133072238Y-70615390D02*
X133024619Y-70663009D01*
X133024619Y-70663009D02*
X132977000Y-70758247D01*
X132977000Y-70758247D02*
X132977000Y-70996342D01*
X132977000Y-70996342D02*
X133024619Y-71091580D01*
X133024619Y-71091580D02*
X133072238Y-71139200D01*
X133072238Y-71139200D02*
X133167476Y-71186819D01*
X133167476Y-71186819D02*
X133453190Y-71186819D01*
X133453190Y-71186819D02*
X133548428Y-71139200D01*
X133548428Y-71139200D02*
X133596047Y-71091580D01*
X132548428Y-71186819D02*
X132548428Y-70186819D01*
X131977000Y-71186819D02*
X132405571Y-70615390D01*
X131977000Y-70186819D02*
X132548428Y-70758247D01*
X163869666Y-54042819D02*
X164345856Y-54042819D01*
X164345856Y-54042819D02*
X164345856Y-53042819D01*
X163012523Y-54042819D02*
X163583951Y-54042819D01*
X163298237Y-54042819D02*
X163298237Y-53042819D01*
X163298237Y-53042819D02*
X163393475Y-53185676D01*
X163393475Y-53185676D02*
X163488713Y-53280914D01*
X163488713Y-53280914D02*
X163583951Y-53328533D01*
X165679189Y-56438057D02*
X165631570Y-56390438D01*
X165631570Y-56390438D02*
X165536332Y-56342819D01*
X165536332Y-56342819D02*
X165298237Y-56342819D01*
X165298237Y-56342819D02*
X165202999Y-56390438D01*
X165202999Y-56390438D02*
X165155380Y-56438057D01*
X165155380Y-56438057D02*
X165107761Y-56533295D01*
X165107761Y-56533295D02*
X165107761Y-56628533D01*
X165107761Y-56628533D02*
X165155380Y-56771390D01*
X165155380Y-56771390D02*
X165726808Y-57342819D01*
X165726808Y-57342819D02*
X165107761Y-57342819D01*
X164679189Y-57247580D02*
X164631570Y-57295200D01*
X164631570Y-57295200D02*
X164679189Y-57342819D01*
X164679189Y-57342819D02*
X164726808Y-57295200D01*
X164726808Y-57295200D02*
X164679189Y-57247580D01*
X164679189Y-57247580D02*
X164679189Y-57342819D01*
X164250618Y-56438057D02*
X164202999Y-56390438D01*
X164202999Y-56390438D02*
X164107761Y-56342819D01*
X164107761Y-56342819D02*
X163869666Y-56342819D01*
X163869666Y-56342819D02*
X163774428Y-56390438D01*
X163774428Y-56390438D02*
X163726809Y-56438057D01*
X163726809Y-56438057D02*
X163679190Y-56533295D01*
X163679190Y-56533295D02*
X163679190Y-56628533D01*
X163679190Y-56628533D02*
X163726809Y-56771390D01*
X163726809Y-56771390D02*
X164298237Y-57342819D01*
X164298237Y-57342819D02*
X163679190Y-57342819D01*
X162822047Y-56676152D02*
X162822047Y-57342819D01*
X163250618Y-56676152D02*
X163250618Y-57199961D01*
X163250618Y-57199961D02*
X163202999Y-57295200D01*
X163202999Y-57295200D02*
X163107761Y-57342819D01*
X163107761Y-57342819D02*
X162964904Y-57342819D01*
X162964904Y-57342819D02*
X162869666Y-57295200D01*
X162869666Y-57295200D02*
X162822047Y-57247580D01*
X162345856Y-57342819D02*
X162345856Y-56342819D01*
X162345856Y-56819009D02*
X161774428Y-56819009D01*
X161774428Y-57342819D02*
X161774428Y-56342819D01*
X145274904Y-83140819D02*
X145274904Y-83950342D01*
X145274904Y-83950342D02*
X145227285Y-84045580D01*
X145227285Y-84045580D02*
X145179666Y-84093200D01*
X145179666Y-84093200D02*
X145084428Y-84140819D01*
X145084428Y-84140819D02*
X144893952Y-84140819D01*
X144893952Y-84140819D02*
X144798714Y-84093200D01*
X144798714Y-84093200D02*
X144751095Y-84045580D01*
X144751095Y-84045580D02*
X144703476Y-83950342D01*
X144703476Y-83950342D02*
X144703476Y-83140819D01*
X144322523Y-83140819D02*
X143703476Y-83140819D01*
X143703476Y-83140819D02*
X144036809Y-83521771D01*
X144036809Y-83521771D02*
X143893952Y-83521771D01*
X143893952Y-83521771D02*
X143798714Y-83569390D01*
X143798714Y-83569390D02*
X143751095Y-83617009D01*
X143751095Y-83617009D02*
X143703476Y-83712247D01*
X143703476Y-83712247D02*
X143703476Y-83950342D01*
X143703476Y-83950342D02*
X143751095Y-84045580D01*
X143751095Y-84045580D02*
X143798714Y-84093200D01*
X143798714Y-84093200D02*
X143893952Y-84140819D01*
X143893952Y-84140819D02*
X144179666Y-84140819D01*
X144179666Y-84140819D02*
X144274904Y-84093200D01*
X144274904Y-84093200D02*
X144322523Y-84045580D01*
X152655856Y-99871009D02*
X152322523Y-99871009D01*
X152179666Y-100394819D02*
X152655856Y-100394819D01*
X152655856Y-100394819D02*
X152655856Y-99394819D01*
X152655856Y-99394819D02*
X152179666Y-99394819D01*
X151798713Y-100347200D02*
X151655856Y-100394819D01*
X151655856Y-100394819D02*
X151417761Y-100394819D01*
X151417761Y-100394819D02*
X151322523Y-100347200D01*
X151322523Y-100347200D02*
X151274904Y-100299580D01*
X151274904Y-100299580D02*
X151227285Y-100204342D01*
X151227285Y-100204342D02*
X151227285Y-100109104D01*
X151227285Y-100109104D02*
X151274904Y-100013866D01*
X151274904Y-100013866D02*
X151322523Y-99966247D01*
X151322523Y-99966247D02*
X151417761Y-99918628D01*
X151417761Y-99918628D02*
X151608237Y-99871009D01*
X151608237Y-99871009D02*
X151703475Y-99823390D01*
X151703475Y-99823390D02*
X151751094Y-99775771D01*
X151751094Y-99775771D02*
X151798713Y-99680533D01*
X151798713Y-99680533D02*
X151798713Y-99585295D01*
X151798713Y-99585295D02*
X151751094Y-99490057D01*
X151751094Y-99490057D02*
X151703475Y-99442438D01*
X151703475Y-99442438D02*
X151608237Y-99394819D01*
X151608237Y-99394819D02*
X151370142Y-99394819D01*
X151370142Y-99394819D02*
X151227285Y-99442438D01*
X150798713Y-100394819D02*
X150798713Y-99394819D01*
X150798713Y-99394819D02*
X150417761Y-99394819D01*
X150417761Y-99394819D02*
X150322523Y-99442438D01*
X150322523Y-99442438D02*
X150274904Y-99490057D01*
X150274904Y-99490057D02*
X150227285Y-99585295D01*
X150227285Y-99585295D02*
X150227285Y-99728152D01*
X150227285Y-99728152D02*
X150274904Y-99823390D01*
X150274904Y-99823390D02*
X150322523Y-99871009D01*
X150322523Y-99871009D02*
X150417761Y-99918628D01*
X150417761Y-99918628D02*
X150798713Y-99918628D01*
X149893951Y-99394819D02*
X149274904Y-99394819D01*
X149274904Y-99394819D02*
X149608237Y-99775771D01*
X149608237Y-99775771D02*
X149465380Y-99775771D01*
X149465380Y-99775771D02*
X149370142Y-99823390D01*
X149370142Y-99823390D02*
X149322523Y-99871009D01*
X149322523Y-99871009D02*
X149274904Y-99966247D01*
X149274904Y-99966247D02*
X149274904Y-100204342D01*
X149274904Y-100204342D02*
X149322523Y-100299580D01*
X149322523Y-100299580D02*
X149370142Y-100347200D01*
X149370142Y-100347200D02*
X149465380Y-100394819D01*
X149465380Y-100394819D02*
X149751094Y-100394819D01*
X149751094Y-100394819D02*
X149846332Y-100347200D01*
X149846332Y-100347200D02*
X149893951Y-100299580D01*
X148893951Y-99490057D02*
X148846332Y-99442438D01*
X148846332Y-99442438D02*
X148751094Y-99394819D01*
X148751094Y-99394819D02*
X148512999Y-99394819D01*
X148512999Y-99394819D02*
X148417761Y-99442438D01*
X148417761Y-99442438D02*
X148370142Y-99490057D01*
X148370142Y-99490057D02*
X148322523Y-99585295D01*
X148322523Y-99585295D02*
X148322523Y-99680533D01*
X148322523Y-99680533D02*
X148370142Y-99823390D01*
X148370142Y-99823390D02*
X148941570Y-100394819D01*
X148941570Y-100394819D02*
X148322523Y-100394819D01*
X147893951Y-100013866D02*
X147132047Y-100013866D01*
X146084428Y-100299580D02*
X146132047Y-100347200D01*
X146132047Y-100347200D02*
X146274904Y-100394819D01*
X146274904Y-100394819D02*
X146370142Y-100394819D01*
X146370142Y-100394819D02*
X146512999Y-100347200D01*
X146512999Y-100347200D02*
X146608237Y-100251961D01*
X146608237Y-100251961D02*
X146655856Y-100156723D01*
X146655856Y-100156723D02*
X146703475Y-99966247D01*
X146703475Y-99966247D02*
X146703475Y-99823390D01*
X146703475Y-99823390D02*
X146655856Y-99632914D01*
X146655856Y-99632914D02*
X146608237Y-99537676D01*
X146608237Y-99537676D02*
X146512999Y-99442438D01*
X146512999Y-99442438D02*
X146370142Y-99394819D01*
X146370142Y-99394819D02*
X146274904Y-99394819D01*
X146274904Y-99394819D02*
X146132047Y-99442438D01*
X146132047Y-99442438D02*
X146084428Y-99490057D01*
X145227285Y-99394819D02*
X145417761Y-99394819D01*
X145417761Y-99394819D02*
X145512999Y-99442438D01*
X145512999Y-99442438D02*
X145560618Y-99490057D01*
X145560618Y-99490057D02*
X145655856Y-99632914D01*
X145655856Y-99632914D02*
X145703475Y-99823390D01*
X145703475Y-99823390D02*
X145703475Y-100204342D01*
X145703475Y-100204342D02*
X145655856Y-100299580D01*
X145655856Y-100299580D02*
X145608237Y-100347200D01*
X145608237Y-100347200D02*
X145512999Y-100394819D01*
X145512999Y-100394819D02*
X145322523Y-100394819D01*
X145322523Y-100394819D02*
X145227285Y-100347200D01*
X145227285Y-100347200D02*
X145179666Y-100299580D01*
X145179666Y-100299580D02*
X145132047Y-100204342D01*
X145132047Y-100204342D02*
X145132047Y-99966247D01*
X145132047Y-99966247D02*
X145179666Y-99871009D01*
X145179666Y-99871009D02*
X145227285Y-99823390D01*
X145227285Y-99823390D02*
X145322523Y-99775771D01*
X145322523Y-99775771D02*
X145512999Y-99775771D01*
X145512999Y-99775771D02*
X145608237Y-99823390D01*
X145608237Y-99823390D02*
X145655856Y-99871009D01*
X145655856Y-99871009D02*
X145703475Y-99966247D01*
X144703475Y-100013866D02*
X143941571Y-100013866D01*
X143560618Y-99394819D02*
X143322523Y-100394819D01*
X143322523Y-100394819D02*
X143132047Y-99680533D01*
X143132047Y-99680533D02*
X142941571Y-100394819D01*
X142941571Y-100394819D02*
X142703476Y-99394819D01*
X141751095Y-100394819D02*
X142084428Y-99918628D01*
X142322523Y-100394819D02*
X142322523Y-99394819D01*
X142322523Y-99394819D02*
X141941571Y-99394819D01*
X141941571Y-99394819D02*
X141846333Y-99442438D01*
X141846333Y-99442438D02*
X141798714Y-99490057D01*
X141798714Y-99490057D02*
X141751095Y-99585295D01*
X141751095Y-99585295D02*
X141751095Y-99728152D01*
X141751095Y-99728152D02*
X141798714Y-99823390D01*
X141798714Y-99823390D02*
X141846333Y-99871009D01*
X141846333Y-99871009D02*
X141941571Y-99918628D01*
X141941571Y-99918628D02*
X142322523Y-99918628D01*
X141132047Y-99394819D02*
X140941571Y-99394819D01*
X140941571Y-99394819D02*
X140846333Y-99442438D01*
X140846333Y-99442438D02*
X140751095Y-99537676D01*
X140751095Y-99537676D02*
X140703476Y-99728152D01*
X140703476Y-99728152D02*
X140703476Y-100061485D01*
X140703476Y-100061485D02*
X140751095Y-100251961D01*
X140751095Y-100251961D02*
X140846333Y-100347200D01*
X140846333Y-100347200D02*
X140941571Y-100394819D01*
X140941571Y-100394819D02*
X141132047Y-100394819D01*
X141132047Y-100394819D02*
X141227285Y-100347200D01*
X141227285Y-100347200D02*
X141322523Y-100251961D01*
X141322523Y-100251961D02*
X141370142Y-100061485D01*
X141370142Y-100061485D02*
X141370142Y-99728152D01*
X141370142Y-99728152D02*
X141322523Y-99537676D01*
X141322523Y-99537676D02*
X141227285Y-99442438D01*
X141227285Y-99442438D02*
X141132047Y-99394819D01*
X140084428Y-99394819D02*
X139893952Y-99394819D01*
X139893952Y-99394819D02*
X139798714Y-99442438D01*
X139798714Y-99442438D02*
X139703476Y-99537676D01*
X139703476Y-99537676D02*
X139655857Y-99728152D01*
X139655857Y-99728152D02*
X139655857Y-100061485D01*
X139655857Y-100061485D02*
X139703476Y-100251961D01*
X139703476Y-100251961D02*
X139798714Y-100347200D01*
X139798714Y-100347200D02*
X139893952Y-100394819D01*
X139893952Y-100394819D02*
X140084428Y-100394819D01*
X140084428Y-100394819D02*
X140179666Y-100347200D01*
X140179666Y-100347200D02*
X140274904Y-100251961D01*
X140274904Y-100251961D02*
X140322523Y-100061485D01*
X140322523Y-100061485D02*
X140322523Y-99728152D01*
X140322523Y-99728152D02*
X140274904Y-99537676D01*
X140274904Y-99537676D02*
X140179666Y-99442438D01*
X140179666Y-99442438D02*
X140084428Y-99394819D01*
X139227285Y-100394819D02*
X139227285Y-99394819D01*
X139227285Y-99394819D02*
X138893952Y-100109104D01*
X138893952Y-100109104D02*
X138560619Y-99394819D01*
X138560619Y-99394819D02*
X138560619Y-100394819D01*
X138084428Y-100013866D02*
X137322524Y-100013866D01*
X136322524Y-100394819D02*
X136893952Y-100394819D01*
X136608238Y-100394819D02*
X136608238Y-99394819D01*
X136608238Y-99394819D02*
X136703476Y-99537676D01*
X136703476Y-99537676D02*
X136798714Y-99632914D01*
X136798714Y-99632914D02*
X136893952Y-99680533D01*
X149274905Y-85969104D02*
X148798715Y-85969104D01*
X149370143Y-86254819D02*
X149036810Y-85254819D01*
X149036810Y-85254819D02*
X148703477Y-86254819D01*
X148370143Y-85588152D02*
X148370143Y-86254819D01*
X148370143Y-85683390D02*
X148322524Y-85635771D01*
X148322524Y-85635771D02*
X148227286Y-85588152D01*
X148227286Y-85588152D02*
X148084429Y-85588152D01*
X148084429Y-85588152D02*
X147989191Y-85635771D01*
X147989191Y-85635771D02*
X147941572Y-85731009D01*
X147941572Y-85731009D02*
X147941572Y-86254819D01*
X147608238Y-85588152D02*
X147227286Y-85588152D01*
X147465381Y-85254819D02*
X147465381Y-86111961D01*
X147465381Y-86111961D02*
X147417762Y-86207200D01*
X147417762Y-86207200D02*
X147322524Y-86254819D01*
X147322524Y-86254819D02*
X147227286Y-86254819D01*
X146513000Y-86207200D02*
X146608238Y-86254819D01*
X146608238Y-86254819D02*
X146798714Y-86254819D01*
X146798714Y-86254819D02*
X146893952Y-86207200D01*
X146893952Y-86207200D02*
X146941571Y-86111961D01*
X146941571Y-86111961D02*
X146941571Y-85731009D01*
X146941571Y-85731009D02*
X146893952Y-85635771D01*
X146893952Y-85635771D02*
X146798714Y-85588152D01*
X146798714Y-85588152D02*
X146608238Y-85588152D01*
X146608238Y-85588152D02*
X146513000Y-85635771D01*
X146513000Y-85635771D02*
X146465381Y-85731009D01*
X146465381Y-85731009D02*
X146465381Y-85826247D01*
X146465381Y-85826247D02*
X146941571Y-85921485D01*
X146036809Y-85588152D02*
X146036809Y-86254819D01*
X146036809Y-85683390D02*
X145989190Y-85635771D01*
X145989190Y-85635771D02*
X145893952Y-85588152D01*
X145893952Y-85588152D02*
X145751095Y-85588152D01*
X145751095Y-85588152D02*
X145655857Y-85635771D01*
X145655857Y-85635771D02*
X145608238Y-85731009D01*
X145608238Y-85731009D02*
X145608238Y-86254819D01*
X145132047Y-85588152D02*
X145132047Y-86254819D01*
X145132047Y-85683390D02*
X145084428Y-85635771D01*
X145084428Y-85635771D02*
X144989190Y-85588152D01*
X144989190Y-85588152D02*
X144846333Y-85588152D01*
X144846333Y-85588152D02*
X144751095Y-85635771D01*
X144751095Y-85635771D02*
X144703476Y-85731009D01*
X144703476Y-85731009D02*
X144703476Y-86254819D01*
X143798714Y-86254819D02*
X143798714Y-85731009D01*
X143798714Y-85731009D02*
X143846333Y-85635771D01*
X143846333Y-85635771D02*
X143941571Y-85588152D01*
X143941571Y-85588152D02*
X144132047Y-85588152D01*
X144132047Y-85588152D02*
X144227285Y-85635771D01*
X143798714Y-86207200D02*
X143893952Y-86254819D01*
X143893952Y-86254819D02*
X144132047Y-86254819D01*
X144132047Y-86254819D02*
X144227285Y-86207200D01*
X144227285Y-86207200D02*
X144274904Y-86111961D01*
X144274904Y-86111961D02*
X144274904Y-86016723D01*
X144274904Y-86016723D02*
X144227285Y-85921485D01*
X144227285Y-85921485D02*
X144132047Y-85873866D01*
X144132047Y-85873866D02*
X143893952Y-85873866D01*
X143893952Y-85873866D02*
X143798714Y-85826247D01*
X142608237Y-85969104D02*
X142132047Y-85969104D01*
X142703475Y-86254819D02*
X142370142Y-85254819D01*
X142370142Y-85254819D02*
X142036809Y-86254819D01*
X141703475Y-86254819D02*
X141703475Y-85588152D01*
X141703475Y-85778628D02*
X141655856Y-85683390D01*
X141655856Y-85683390D02*
X141608237Y-85635771D01*
X141608237Y-85635771D02*
X141512999Y-85588152D01*
X141512999Y-85588152D02*
X141417761Y-85588152D01*
X140703475Y-86207200D02*
X140798713Y-86254819D01*
X140798713Y-86254819D02*
X140989189Y-86254819D01*
X140989189Y-86254819D02*
X141084427Y-86207200D01*
X141084427Y-86207200D02*
X141132046Y-86111961D01*
X141132046Y-86111961D02*
X141132046Y-85731009D01*
X141132046Y-85731009D02*
X141084427Y-85635771D01*
X141084427Y-85635771D02*
X140989189Y-85588152D01*
X140989189Y-85588152D02*
X140798713Y-85588152D01*
X140798713Y-85588152D02*
X140703475Y-85635771D01*
X140703475Y-85635771D02*
X140655856Y-85731009D01*
X140655856Y-85731009D02*
X140655856Y-85826247D01*
X140655856Y-85826247D02*
X141132046Y-85921485D01*
X139798713Y-86254819D02*
X139798713Y-85731009D01*
X139798713Y-85731009D02*
X139846332Y-85635771D01*
X139846332Y-85635771D02*
X139941570Y-85588152D01*
X139941570Y-85588152D02*
X140132046Y-85588152D01*
X140132046Y-85588152D02*
X140227284Y-85635771D01*
X139798713Y-86207200D02*
X139893951Y-86254819D01*
X139893951Y-86254819D02*
X140132046Y-86254819D01*
X140132046Y-86254819D02*
X140227284Y-86207200D01*
X140227284Y-86207200D02*
X140274903Y-86111961D01*
X140274903Y-86111961D02*
X140274903Y-86016723D01*
X140274903Y-86016723D02*
X140227284Y-85921485D01*
X140227284Y-85921485D02*
X140132046Y-85873866D01*
X140132046Y-85873866D02*
X139893951Y-85873866D01*
X139893951Y-85873866D02*
X139798713Y-85826247D01*
X159011857Y-115382819D02*
X159345190Y-114906628D01*
X159583285Y-115382819D02*
X159583285Y-114382819D01*
X159583285Y-114382819D02*
X159202333Y-114382819D01*
X159202333Y-114382819D02*
X159107095Y-114430438D01*
X159107095Y-114430438D02*
X159059476Y-114478057D01*
X159059476Y-114478057D02*
X159011857Y-114573295D01*
X159011857Y-114573295D02*
X159011857Y-114716152D01*
X159011857Y-114716152D02*
X159059476Y-114811390D01*
X159059476Y-114811390D02*
X159107095Y-114859009D01*
X159107095Y-114859009D02*
X159202333Y-114906628D01*
X159202333Y-114906628D02*
X159583285Y-114906628D01*
X158059476Y-115382819D02*
X158630904Y-115382819D01*
X158345190Y-115382819D02*
X158345190Y-114382819D01*
X158345190Y-114382819D02*
X158440428Y-114525676D01*
X158440428Y-114525676D02*
X158535666Y-114620914D01*
X158535666Y-114620914D02*
X158630904Y-114668533D01*
X157202333Y-114716152D02*
X157202333Y-115382819D01*
X157440428Y-114335200D02*
X157678523Y-115049485D01*
X157678523Y-115049485D02*
X157059476Y-115049485D01*
X156376618Y-115906819D02*
X155757571Y-115906819D01*
X155757571Y-115906819D02*
X156090904Y-116287771D01*
X156090904Y-116287771D02*
X155948047Y-116287771D01*
X155948047Y-116287771D02*
X155852809Y-116335390D01*
X155852809Y-116335390D02*
X155805190Y-116383009D01*
X155805190Y-116383009D02*
X155757571Y-116478247D01*
X155757571Y-116478247D02*
X155757571Y-116716342D01*
X155757571Y-116716342D02*
X155805190Y-116811580D01*
X155805190Y-116811580D02*
X155852809Y-116859200D01*
X155852809Y-116859200D02*
X155948047Y-116906819D01*
X155948047Y-116906819D02*
X156233761Y-116906819D01*
X156233761Y-116906819D02*
X156328999Y-116859200D01*
X156328999Y-116859200D02*
X156376618Y-116811580D01*
X155328999Y-116811580D02*
X155281380Y-116859200D01*
X155281380Y-116859200D02*
X155328999Y-116906819D01*
X155328999Y-116906819D02*
X155376618Y-116859200D01*
X155376618Y-116859200D02*
X155328999Y-116811580D01*
X155328999Y-116811580D02*
X155328999Y-116906819D01*
X154948047Y-115906819D02*
X154329000Y-115906819D01*
X154329000Y-115906819D02*
X154662333Y-116287771D01*
X154662333Y-116287771D02*
X154519476Y-116287771D01*
X154519476Y-116287771D02*
X154424238Y-116335390D01*
X154424238Y-116335390D02*
X154376619Y-116383009D01*
X154376619Y-116383009D02*
X154329000Y-116478247D01*
X154329000Y-116478247D02*
X154329000Y-116716342D01*
X154329000Y-116716342D02*
X154376619Y-116811580D01*
X154376619Y-116811580D02*
X154424238Y-116859200D01*
X154424238Y-116859200D02*
X154519476Y-116906819D01*
X154519476Y-116906819D02*
X154805190Y-116906819D01*
X154805190Y-116906819D02*
X154900428Y-116859200D01*
X154900428Y-116859200D02*
X154948047Y-116811580D01*
X153900428Y-116906819D02*
X153900428Y-115906819D01*
X153329000Y-116906819D02*
X153757571Y-116335390D01*
X153329000Y-115906819D02*
X153900428Y-116478247D01*
X150661666Y-111223580D02*
X150709285Y-111271200D01*
X150709285Y-111271200D02*
X150852142Y-111318819D01*
X150852142Y-111318819D02*
X150947380Y-111318819D01*
X150947380Y-111318819D02*
X151090237Y-111271200D01*
X151090237Y-111271200D02*
X151185475Y-111175961D01*
X151185475Y-111175961D02*
X151233094Y-111080723D01*
X151233094Y-111080723D02*
X151280713Y-110890247D01*
X151280713Y-110890247D02*
X151280713Y-110747390D01*
X151280713Y-110747390D02*
X151233094Y-110556914D01*
X151233094Y-110556914D02*
X151185475Y-110461676D01*
X151185475Y-110461676D02*
X151090237Y-110366438D01*
X151090237Y-110366438D02*
X150947380Y-110318819D01*
X150947380Y-110318819D02*
X150852142Y-110318819D01*
X150852142Y-110318819D02*
X150709285Y-110366438D01*
X150709285Y-110366438D02*
X150661666Y-110414057D01*
X150328332Y-110318819D02*
X149661666Y-110318819D01*
X149661666Y-110318819D02*
X150090237Y-111318819D01*
X147867666Y-109794819D02*
X148439094Y-109794819D01*
X148153380Y-109794819D02*
X148153380Y-108794819D01*
X148153380Y-108794819D02*
X148248618Y-108937676D01*
X148248618Y-108937676D02*
X148343856Y-109032914D01*
X148343856Y-109032914D02*
X148439094Y-109080533D01*
X147010523Y-109128152D02*
X147010523Y-109794819D01*
X147439094Y-109128152D02*
X147439094Y-109651961D01*
X147439094Y-109651961D02*
X147391475Y-109747200D01*
X147391475Y-109747200D02*
X147296237Y-109794819D01*
X147296237Y-109794819D02*
X147153380Y-109794819D01*
X147153380Y-109794819D02*
X147058142Y-109747200D01*
X147058142Y-109747200D02*
X147010523Y-109699580D01*
D11*
X169544904Y-52916119D02*
X169544904Y-53725642D01*
X169544904Y-53725642D02*
X169497285Y-53820880D01*
X169497285Y-53820880D02*
X169449666Y-53868500D01*
X169449666Y-53868500D02*
X169354428Y-53916119D01*
X169354428Y-53916119D02*
X169163952Y-53916119D01*
X169163952Y-53916119D02*
X169068714Y-53868500D01*
X169068714Y-53868500D02*
X169021095Y-53820880D01*
X169021095Y-53820880D02*
X168973476Y-53725642D01*
X168973476Y-53725642D02*
X168973476Y-52916119D01*
X168544904Y-53011357D02*
X168497285Y-52963738D01*
X168497285Y-52963738D02*
X168402047Y-52916119D01*
X168402047Y-52916119D02*
X168163952Y-52916119D01*
X168163952Y-52916119D02*
X168068714Y-52963738D01*
X168068714Y-52963738D02*
X168021095Y-53011357D01*
X168021095Y-53011357D02*
X167973476Y-53106595D01*
X167973476Y-53106595D02*
X167973476Y-53201833D01*
X167973476Y-53201833D02*
X168021095Y-53344690D01*
X168021095Y-53344690D02*
X168592523Y-53916119D01*
X168592523Y-53916119D02*
X167973476Y-53916119D01*
D10*
X158535666Y-69662819D02*
X158868999Y-69186628D01*
X159107094Y-69662819D02*
X159107094Y-68662819D01*
X159107094Y-68662819D02*
X158726142Y-68662819D01*
X158726142Y-68662819D02*
X158630904Y-68710438D01*
X158630904Y-68710438D02*
X158583285Y-68758057D01*
X158583285Y-68758057D02*
X158535666Y-68853295D01*
X158535666Y-68853295D02*
X158535666Y-68996152D01*
X158535666Y-68996152D02*
X158583285Y-69091390D01*
X158583285Y-69091390D02*
X158630904Y-69139009D01*
X158630904Y-69139009D02*
X158726142Y-69186628D01*
X158726142Y-69186628D02*
X159107094Y-69186628D01*
X157678523Y-68996152D02*
X157678523Y-69662819D01*
X157916618Y-68615200D02*
X158154713Y-69329485D01*
X158154713Y-69329485D02*
X157535666Y-69329485D01*
X156376618Y-70186819D02*
X155757571Y-70186819D01*
X155757571Y-70186819D02*
X156090904Y-70567771D01*
X156090904Y-70567771D02*
X155948047Y-70567771D01*
X155948047Y-70567771D02*
X155852809Y-70615390D01*
X155852809Y-70615390D02*
X155805190Y-70663009D01*
X155805190Y-70663009D02*
X155757571Y-70758247D01*
X155757571Y-70758247D02*
X155757571Y-70996342D01*
X155757571Y-70996342D02*
X155805190Y-71091580D01*
X155805190Y-71091580D02*
X155852809Y-71139200D01*
X155852809Y-71139200D02*
X155948047Y-71186819D01*
X155948047Y-71186819D02*
X156233761Y-71186819D01*
X156233761Y-71186819D02*
X156328999Y-71139200D01*
X156328999Y-71139200D02*
X156376618Y-71091580D01*
X155328999Y-71091580D02*
X155281380Y-71139200D01*
X155281380Y-71139200D02*
X155328999Y-71186819D01*
X155328999Y-71186819D02*
X155376618Y-71139200D01*
X155376618Y-71139200D02*
X155328999Y-71091580D01*
X155328999Y-71091580D02*
X155328999Y-71186819D01*
X154948047Y-70186819D02*
X154329000Y-70186819D01*
X154329000Y-70186819D02*
X154662333Y-70567771D01*
X154662333Y-70567771D02*
X154519476Y-70567771D01*
X154519476Y-70567771D02*
X154424238Y-70615390D01*
X154424238Y-70615390D02*
X154376619Y-70663009D01*
X154376619Y-70663009D02*
X154329000Y-70758247D01*
X154329000Y-70758247D02*
X154329000Y-70996342D01*
X154329000Y-70996342D02*
X154376619Y-71091580D01*
X154376619Y-71091580D02*
X154424238Y-71139200D01*
X154424238Y-71139200D02*
X154519476Y-71186819D01*
X154519476Y-71186819D02*
X154805190Y-71186819D01*
X154805190Y-71186819D02*
X154900428Y-71139200D01*
X154900428Y-71139200D02*
X154948047Y-71091580D01*
X153900428Y-71186819D02*
X153900428Y-70186819D01*
X153329000Y-71186819D02*
X153757571Y-70615390D01*
X153329000Y-70186819D02*
X153900428Y-70758247D01*
X166885666Y-64074819D02*
X167218999Y-63598628D01*
X167457094Y-64074819D02*
X167457094Y-63074819D01*
X167457094Y-63074819D02*
X167076142Y-63074819D01*
X167076142Y-63074819D02*
X166980904Y-63122438D01*
X166980904Y-63122438D02*
X166933285Y-63170057D01*
X166933285Y-63170057D02*
X166885666Y-63265295D01*
X166885666Y-63265295D02*
X166885666Y-63408152D01*
X166885666Y-63408152D02*
X166933285Y-63503390D01*
X166933285Y-63503390D02*
X166980904Y-63551009D01*
X166980904Y-63551009D02*
X167076142Y-63598628D01*
X167076142Y-63598628D02*
X167457094Y-63598628D01*
X166552332Y-63074819D02*
X165885666Y-63074819D01*
X165885666Y-63074819D02*
X166314237Y-64074819D01*
X167441476Y-67376819D02*
X168012904Y-67376819D01*
X167727190Y-67376819D02*
X167727190Y-66376819D01*
X167727190Y-66376819D02*
X167822428Y-66519676D01*
X167822428Y-66519676D02*
X167917666Y-66614914D01*
X167917666Y-66614914D02*
X168012904Y-66662533D01*
X166822428Y-66376819D02*
X166727190Y-66376819D01*
X166727190Y-66376819D02*
X166631952Y-66424438D01*
X166631952Y-66424438D02*
X166584333Y-66472057D01*
X166584333Y-66472057D02*
X166536714Y-66567295D01*
X166536714Y-66567295D02*
X166489095Y-66757771D01*
X166489095Y-66757771D02*
X166489095Y-66995866D01*
X166489095Y-66995866D02*
X166536714Y-67186342D01*
X166536714Y-67186342D02*
X166584333Y-67281580D01*
X166584333Y-67281580D02*
X166631952Y-67329200D01*
X166631952Y-67329200D02*
X166727190Y-67376819D01*
X166727190Y-67376819D02*
X166822428Y-67376819D01*
X166822428Y-67376819D02*
X166917666Y-67329200D01*
X166917666Y-67329200D02*
X166965285Y-67281580D01*
X166965285Y-67281580D02*
X167012904Y-67186342D01*
X167012904Y-67186342D02*
X167060523Y-66995866D01*
X167060523Y-66995866D02*
X167060523Y-66757771D01*
X167060523Y-66757771D02*
X167012904Y-66567295D01*
X167012904Y-66567295D02*
X166965285Y-66472057D01*
X166965285Y-66472057D02*
X166917666Y-66424438D01*
X166917666Y-66424438D02*
X166822428Y-66376819D01*
X166060523Y-67376819D02*
X166060523Y-66376819D01*
X165489095Y-67376819D02*
X165917666Y-66805390D01*
X165489095Y-66376819D02*
X166060523Y-66948247D01*
X137675857Y-115382819D02*
X138009190Y-114906628D01*
X138247285Y-115382819D02*
X138247285Y-114382819D01*
X138247285Y-114382819D02*
X137866333Y-114382819D01*
X137866333Y-114382819D02*
X137771095Y-114430438D01*
X137771095Y-114430438D02*
X137723476Y-114478057D01*
X137723476Y-114478057D02*
X137675857Y-114573295D01*
X137675857Y-114573295D02*
X137675857Y-114716152D01*
X137675857Y-114716152D02*
X137723476Y-114811390D01*
X137723476Y-114811390D02*
X137771095Y-114859009D01*
X137771095Y-114859009D02*
X137866333Y-114906628D01*
X137866333Y-114906628D02*
X138247285Y-114906628D01*
X136723476Y-115382819D02*
X137294904Y-115382819D01*
X137009190Y-115382819D02*
X137009190Y-114382819D01*
X137009190Y-114382819D02*
X137104428Y-114525676D01*
X137104428Y-114525676D02*
X137199666Y-114620914D01*
X137199666Y-114620914D02*
X137294904Y-114668533D01*
X135771095Y-115382819D02*
X136342523Y-115382819D01*
X136056809Y-115382819D02*
X136056809Y-114382819D01*
X136056809Y-114382819D02*
X136152047Y-114525676D01*
X136152047Y-114525676D02*
X136247285Y-114620914D01*
X136247285Y-114620914D02*
X136342523Y-114668533D01*
X135024618Y-115906819D02*
X134405571Y-115906819D01*
X134405571Y-115906819D02*
X134738904Y-116287771D01*
X134738904Y-116287771D02*
X134596047Y-116287771D01*
X134596047Y-116287771D02*
X134500809Y-116335390D01*
X134500809Y-116335390D02*
X134453190Y-116383009D01*
X134453190Y-116383009D02*
X134405571Y-116478247D01*
X134405571Y-116478247D02*
X134405571Y-116716342D01*
X134405571Y-116716342D02*
X134453190Y-116811580D01*
X134453190Y-116811580D02*
X134500809Y-116859200D01*
X134500809Y-116859200D02*
X134596047Y-116906819D01*
X134596047Y-116906819D02*
X134881761Y-116906819D01*
X134881761Y-116906819D02*
X134976999Y-116859200D01*
X134976999Y-116859200D02*
X135024618Y-116811580D01*
X133976999Y-116811580D02*
X133929380Y-116859200D01*
X133929380Y-116859200D02*
X133976999Y-116906819D01*
X133976999Y-116906819D02*
X134024618Y-116859200D01*
X134024618Y-116859200D02*
X133976999Y-116811580D01*
X133976999Y-116811580D02*
X133976999Y-116906819D01*
X133596047Y-115906819D02*
X132977000Y-115906819D01*
X132977000Y-115906819D02*
X133310333Y-116287771D01*
X133310333Y-116287771D02*
X133167476Y-116287771D01*
X133167476Y-116287771D02*
X133072238Y-116335390D01*
X133072238Y-116335390D02*
X133024619Y-116383009D01*
X133024619Y-116383009D02*
X132977000Y-116478247D01*
X132977000Y-116478247D02*
X132977000Y-116716342D01*
X132977000Y-116716342D02*
X133024619Y-116811580D01*
X133024619Y-116811580D02*
X133072238Y-116859200D01*
X133072238Y-116859200D02*
X133167476Y-116906819D01*
X133167476Y-116906819D02*
X133453190Y-116906819D01*
X133453190Y-116906819D02*
X133548428Y-116859200D01*
X133548428Y-116859200D02*
X133596047Y-116811580D01*
X132548428Y-116906819D02*
X132548428Y-115906819D01*
X131977000Y-116906819D02*
X132405571Y-116335390D01*
X131977000Y-115906819D02*
X132548428Y-116478247D01*
X143771857Y-115382819D02*
X144105190Y-114906628D01*
X144343285Y-115382819D02*
X144343285Y-114382819D01*
X144343285Y-114382819D02*
X143962333Y-114382819D01*
X143962333Y-114382819D02*
X143867095Y-114430438D01*
X143867095Y-114430438D02*
X143819476Y-114478057D01*
X143819476Y-114478057D02*
X143771857Y-114573295D01*
X143771857Y-114573295D02*
X143771857Y-114716152D01*
X143771857Y-114716152D02*
X143819476Y-114811390D01*
X143819476Y-114811390D02*
X143867095Y-114859009D01*
X143867095Y-114859009D02*
X143962333Y-114906628D01*
X143962333Y-114906628D02*
X144343285Y-114906628D01*
X142819476Y-115382819D02*
X143390904Y-115382819D01*
X143105190Y-115382819D02*
X143105190Y-114382819D01*
X143105190Y-114382819D02*
X143200428Y-114525676D01*
X143200428Y-114525676D02*
X143295666Y-114620914D01*
X143295666Y-114620914D02*
X143390904Y-114668533D01*
X142438523Y-114478057D02*
X142390904Y-114430438D01*
X142390904Y-114430438D02*
X142295666Y-114382819D01*
X142295666Y-114382819D02*
X142057571Y-114382819D01*
X142057571Y-114382819D02*
X141962333Y-114430438D01*
X141962333Y-114430438D02*
X141914714Y-114478057D01*
X141914714Y-114478057D02*
X141867095Y-114573295D01*
X141867095Y-114573295D02*
X141867095Y-114668533D01*
X141867095Y-114668533D02*
X141914714Y-114811390D01*
X141914714Y-114811390D02*
X142486142Y-115382819D01*
X142486142Y-115382819D02*
X141867095Y-115382819D01*
X140549285Y-116906819D02*
X141120713Y-116906819D01*
X140834999Y-116906819D02*
X140834999Y-115906819D01*
X140834999Y-115906819D02*
X140930237Y-116049676D01*
X140930237Y-116049676D02*
X141025475Y-116144914D01*
X141025475Y-116144914D02*
X141120713Y-116192533D01*
X140120713Y-116906819D02*
X140120713Y-115906819D01*
X139549285Y-116906819D02*
X139977856Y-116335390D01*
X139549285Y-115906819D02*
X140120713Y-116478247D01*
X156503666Y-111223580D02*
X156551285Y-111271200D01*
X156551285Y-111271200D02*
X156694142Y-111318819D01*
X156694142Y-111318819D02*
X156789380Y-111318819D01*
X156789380Y-111318819D02*
X156932237Y-111271200D01*
X156932237Y-111271200D02*
X157027475Y-111175961D01*
X157027475Y-111175961D02*
X157075094Y-111080723D01*
X157075094Y-111080723D02*
X157122713Y-110890247D01*
X157122713Y-110890247D02*
X157122713Y-110747390D01*
X157122713Y-110747390D02*
X157075094Y-110556914D01*
X157075094Y-110556914D02*
X157027475Y-110461676D01*
X157027475Y-110461676D02*
X156932237Y-110366438D01*
X156932237Y-110366438D02*
X156789380Y-110318819D01*
X156789380Y-110318819D02*
X156694142Y-110318819D01*
X156694142Y-110318819D02*
X156551285Y-110366438D01*
X156551285Y-110366438D02*
X156503666Y-110414057D01*
X155932237Y-110747390D02*
X156027475Y-110699771D01*
X156027475Y-110699771D02*
X156075094Y-110652152D01*
X156075094Y-110652152D02*
X156122713Y-110556914D01*
X156122713Y-110556914D02*
X156122713Y-110509295D01*
X156122713Y-110509295D02*
X156075094Y-110414057D01*
X156075094Y-110414057D02*
X156027475Y-110366438D01*
X156027475Y-110366438D02*
X155932237Y-110318819D01*
X155932237Y-110318819D02*
X155741761Y-110318819D01*
X155741761Y-110318819D02*
X155646523Y-110366438D01*
X155646523Y-110366438D02*
X155598904Y-110414057D01*
X155598904Y-110414057D02*
X155551285Y-110509295D01*
X155551285Y-110509295D02*
X155551285Y-110556914D01*
X155551285Y-110556914D02*
X155598904Y-110652152D01*
X155598904Y-110652152D02*
X155646523Y-110699771D01*
X155646523Y-110699771D02*
X155741761Y-110747390D01*
X155741761Y-110747390D02*
X155932237Y-110747390D01*
X155932237Y-110747390D02*
X156027475Y-110795009D01*
X156027475Y-110795009D02*
X156075094Y-110842628D01*
X156075094Y-110842628D02*
X156122713Y-110937866D01*
X156122713Y-110937866D02*
X156122713Y-111128342D01*
X156122713Y-111128342D02*
X156075094Y-111223580D01*
X156075094Y-111223580D02*
X156027475Y-111271200D01*
X156027475Y-111271200D02*
X155932237Y-111318819D01*
X155932237Y-111318819D02*
X155741761Y-111318819D01*
X155741761Y-111318819D02*
X155646523Y-111271200D01*
X155646523Y-111271200D02*
X155598904Y-111223580D01*
X155598904Y-111223580D02*
X155551285Y-111128342D01*
X155551285Y-111128342D02*
X155551285Y-110937866D01*
X155551285Y-110937866D02*
X155598904Y-110842628D01*
X155598904Y-110842628D02*
X155646523Y-110795009D01*
X155646523Y-110795009D02*
X155741761Y-110747390D01*
X154757285Y-108794819D02*
X154662047Y-108794819D01*
X154662047Y-108794819D02*
X154566809Y-108842438D01*
X154566809Y-108842438D02*
X154519190Y-108890057D01*
X154519190Y-108890057D02*
X154471571Y-108985295D01*
X154471571Y-108985295D02*
X154423952Y-109175771D01*
X154423952Y-109175771D02*
X154423952Y-109413866D01*
X154423952Y-109413866D02*
X154471571Y-109604342D01*
X154471571Y-109604342D02*
X154519190Y-109699580D01*
X154519190Y-109699580D02*
X154566809Y-109747200D01*
X154566809Y-109747200D02*
X154662047Y-109794819D01*
X154662047Y-109794819D02*
X154757285Y-109794819D01*
X154757285Y-109794819D02*
X154852523Y-109747200D01*
X154852523Y-109747200D02*
X154900142Y-109699580D01*
X154900142Y-109699580D02*
X154947761Y-109604342D01*
X154947761Y-109604342D02*
X154995380Y-109413866D01*
X154995380Y-109413866D02*
X154995380Y-109175771D01*
X154995380Y-109175771D02*
X154947761Y-108985295D01*
X154947761Y-108985295D02*
X154900142Y-108890057D01*
X154900142Y-108890057D02*
X154852523Y-108842438D01*
X154852523Y-108842438D02*
X154757285Y-108794819D01*
X153995380Y-109699580D02*
X153947761Y-109747200D01*
X153947761Y-109747200D02*
X153995380Y-109794819D01*
X153995380Y-109794819D02*
X154042999Y-109747200D01*
X154042999Y-109747200D02*
X153995380Y-109699580D01*
X153995380Y-109699580D02*
X153995380Y-109794819D01*
X152995381Y-109794819D02*
X153566809Y-109794819D01*
X153281095Y-109794819D02*
X153281095Y-108794819D01*
X153281095Y-108794819D02*
X153376333Y-108937676D01*
X153376333Y-108937676D02*
X153471571Y-109032914D01*
X153471571Y-109032914D02*
X153566809Y-109080533D01*
X152138238Y-109128152D02*
X152138238Y-109794819D01*
X152566809Y-109128152D02*
X152566809Y-109651961D01*
X152566809Y-109651961D02*
X152519190Y-109747200D01*
X152519190Y-109747200D02*
X152423952Y-109794819D01*
X152423952Y-109794819D02*
X152281095Y-109794819D01*
X152281095Y-109794819D02*
X152185857Y-109747200D01*
X152185857Y-109747200D02*
X152138238Y-109699580D01*
X166123857Y-115382819D02*
X166457190Y-114906628D01*
X166695285Y-115382819D02*
X166695285Y-114382819D01*
X166695285Y-114382819D02*
X166314333Y-114382819D01*
X166314333Y-114382819D02*
X166219095Y-114430438D01*
X166219095Y-114430438D02*
X166171476Y-114478057D01*
X166171476Y-114478057D02*
X166123857Y-114573295D01*
X166123857Y-114573295D02*
X166123857Y-114716152D01*
X166123857Y-114716152D02*
X166171476Y-114811390D01*
X166171476Y-114811390D02*
X166219095Y-114859009D01*
X166219095Y-114859009D02*
X166314333Y-114906628D01*
X166314333Y-114906628D02*
X166695285Y-114906628D01*
X165171476Y-115382819D02*
X165742904Y-115382819D01*
X165457190Y-115382819D02*
X165457190Y-114382819D01*
X165457190Y-114382819D02*
X165552428Y-114525676D01*
X165552428Y-114525676D02*
X165647666Y-114620914D01*
X165647666Y-114620914D02*
X165742904Y-114668533D01*
X164266714Y-114382819D02*
X164742904Y-114382819D01*
X164742904Y-114382819D02*
X164790523Y-114859009D01*
X164790523Y-114859009D02*
X164742904Y-114811390D01*
X164742904Y-114811390D02*
X164647666Y-114763771D01*
X164647666Y-114763771D02*
X164409571Y-114763771D01*
X164409571Y-114763771D02*
X164314333Y-114811390D01*
X164314333Y-114811390D02*
X164266714Y-114859009D01*
X164266714Y-114859009D02*
X164219095Y-114954247D01*
X164219095Y-114954247D02*
X164219095Y-115192342D01*
X164219095Y-115192342D02*
X164266714Y-115287580D01*
X164266714Y-115287580D02*
X164314333Y-115335200D01*
X164314333Y-115335200D02*
X164409571Y-115382819D01*
X164409571Y-115382819D02*
X164647666Y-115382819D01*
X164647666Y-115382819D02*
X164742904Y-115335200D01*
X164742904Y-115335200D02*
X164790523Y-115287580D01*
X162885476Y-116906819D02*
X163456904Y-116906819D01*
X163171190Y-116906819D02*
X163171190Y-115906819D01*
X163171190Y-115906819D02*
X163266428Y-116049676D01*
X163266428Y-116049676D02*
X163361666Y-116144914D01*
X163361666Y-116144914D02*
X163456904Y-116192533D01*
X162266428Y-115906819D02*
X162171190Y-115906819D01*
X162171190Y-115906819D02*
X162075952Y-115954438D01*
X162075952Y-115954438D02*
X162028333Y-116002057D01*
X162028333Y-116002057D02*
X161980714Y-116097295D01*
X161980714Y-116097295D02*
X161933095Y-116287771D01*
X161933095Y-116287771D02*
X161933095Y-116525866D01*
X161933095Y-116525866D02*
X161980714Y-116716342D01*
X161980714Y-116716342D02*
X162028333Y-116811580D01*
X162028333Y-116811580D02*
X162075952Y-116859200D01*
X162075952Y-116859200D02*
X162171190Y-116906819D01*
X162171190Y-116906819D02*
X162266428Y-116906819D01*
X162266428Y-116906819D02*
X162361666Y-116859200D01*
X162361666Y-116859200D02*
X162409285Y-116811580D01*
X162409285Y-116811580D02*
X162456904Y-116716342D01*
X162456904Y-116716342D02*
X162504523Y-116525866D01*
X162504523Y-116525866D02*
X162504523Y-116287771D01*
X162504523Y-116287771D02*
X162456904Y-116097295D01*
X162456904Y-116097295D02*
X162409285Y-116002057D01*
X162409285Y-116002057D02*
X162361666Y-115954438D01*
X162361666Y-115954438D02*
X162266428Y-115906819D01*
X161504523Y-116906819D02*
X161504523Y-115906819D01*
X160933095Y-116906819D02*
X161361666Y-116335390D01*
X160933095Y-115906819D02*
X161504523Y-116478247D01*
X163869666Y-58645580D02*
X163917285Y-58693200D01*
X163917285Y-58693200D02*
X164060142Y-58740819D01*
X164060142Y-58740819D02*
X164155380Y-58740819D01*
X164155380Y-58740819D02*
X164298237Y-58693200D01*
X164298237Y-58693200D02*
X164393475Y-58597961D01*
X164393475Y-58597961D02*
X164441094Y-58502723D01*
X164441094Y-58502723D02*
X164488713Y-58312247D01*
X164488713Y-58312247D02*
X164488713Y-58169390D01*
X164488713Y-58169390D02*
X164441094Y-57978914D01*
X164441094Y-57978914D02*
X164393475Y-57883676D01*
X164393475Y-57883676D02*
X164298237Y-57788438D01*
X164298237Y-57788438D02*
X164155380Y-57740819D01*
X164155380Y-57740819D02*
X164060142Y-57740819D01*
X164060142Y-57740819D02*
X163917285Y-57788438D01*
X163917285Y-57788438D02*
X163869666Y-57836057D01*
X162964904Y-57740819D02*
X163441094Y-57740819D01*
X163441094Y-57740819D02*
X163488713Y-58217009D01*
X163488713Y-58217009D02*
X163441094Y-58169390D01*
X163441094Y-58169390D02*
X163345856Y-58121771D01*
X163345856Y-58121771D02*
X163107761Y-58121771D01*
X163107761Y-58121771D02*
X163012523Y-58169390D01*
X163012523Y-58169390D02*
X162964904Y-58217009D01*
X162964904Y-58217009D02*
X162917285Y-58312247D01*
X162917285Y-58312247D02*
X162917285Y-58550342D01*
X162917285Y-58550342D02*
X162964904Y-58645580D01*
X162964904Y-58645580D02*
X163012523Y-58693200D01*
X163012523Y-58693200D02*
X163107761Y-58740819D01*
X163107761Y-58740819D02*
X163345856Y-58740819D01*
X163345856Y-58740819D02*
X163441094Y-58693200D01*
X163441094Y-58693200D02*
X163488713Y-58645580D01*
X164774428Y-62042819D02*
X165345856Y-62042819D01*
X165060142Y-62042819D02*
X165060142Y-61042819D01*
X165060142Y-61042819D02*
X165155380Y-61185676D01*
X165155380Y-61185676D02*
X165250618Y-61280914D01*
X165250618Y-61280914D02*
X165345856Y-61328533D01*
X164155380Y-61042819D02*
X164060142Y-61042819D01*
X164060142Y-61042819D02*
X163964904Y-61090438D01*
X163964904Y-61090438D02*
X163917285Y-61138057D01*
X163917285Y-61138057D02*
X163869666Y-61233295D01*
X163869666Y-61233295D02*
X163822047Y-61423771D01*
X163822047Y-61423771D02*
X163822047Y-61661866D01*
X163822047Y-61661866D02*
X163869666Y-61852342D01*
X163869666Y-61852342D02*
X163917285Y-61947580D01*
X163917285Y-61947580D02*
X163964904Y-61995200D01*
X163964904Y-61995200D02*
X164060142Y-62042819D01*
X164060142Y-62042819D02*
X164155380Y-62042819D01*
X164155380Y-62042819D02*
X164250618Y-61995200D01*
X164250618Y-61995200D02*
X164298237Y-61947580D01*
X164298237Y-61947580D02*
X164345856Y-61852342D01*
X164345856Y-61852342D02*
X164393475Y-61661866D01*
X164393475Y-61661866D02*
X164393475Y-61423771D01*
X164393475Y-61423771D02*
X164345856Y-61233295D01*
X164345856Y-61233295D02*
X164298237Y-61138057D01*
X164298237Y-61138057D02*
X164250618Y-61090438D01*
X164250618Y-61090438D02*
X164155380Y-61042819D01*
X162964904Y-61376152D02*
X162964904Y-62042819D01*
X163393475Y-61376152D02*
X163393475Y-61899961D01*
X163393475Y-61899961D02*
X163345856Y-61995200D01*
X163345856Y-61995200D02*
X163250618Y-62042819D01*
X163250618Y-62042819D02*
X163107761Y-62042819D01*
X163107761Y-62042819D02*
X163012523Y-61995200D01*
X163012523Y-61995200D02*
X162964904Y-61947580D01*
X162155380Y-61519009D02*
X162488713Y-61519009D01*
X162488713Y-62042819D02*
X162488713Y-61042819D01*
X162488713Y-61042819D02*
X162012523Y-61042819D01*
X171457857Y-90744819D02*
X171791190Y-90268628D01*
X172029285Y-90744819D02*
X172029285Y-89744819D01*
X172029285Y-89744819D02*
X171648333Y-89744819D01*
X171648333Y-89744819D02*
X171553095Y-89792438D01*
X171553095Y-89792438D02*
X171505476Y-89840057D01*
X171505476Y-89840057D02*
X171457857Y-89935295D01*
X171457857Y-89935295D02*
X171457857Y-90078152D01*
X171457857Y-90078152D02*
X171505476Y-90173390D01*
X171505476Y-90173390D02*
X171553095Y-90221009D01*
X171553095Y-90221009D02*
X171648333Y-90268628D01*
X171648333Y-90268628D02*
X172029285Y-90268628D01*
X171076904Y-89840057D02*
X171029285Y-89792438D01*
X171029285Y-89792438D02*
X170934047Y-89744819D01*
X170934047Y-89744819D02*
X170695952Y-89744819D01*
X170695952Y-89744819D02*
X170600714Y-89792438D01*
X170600714Y-89792438D02*
X170553095Y-89840057D01*
X170553095Y-89840057D02*
X170505476Y-89935295D01*
X170505476Y-89935295D02*
X170505476Y-90030533D01*
X170505476Y-90030533D02*
X170553095Y-90173390D01*
X170553095Y-90173390D02*
X171124523Y-90744819D01*
X171124523Y-90744819D02*
X170505476Y-90744819D01*
X169886428Y-89744819D02*
X169791190Y-89744819D01*
X169791190Y-89744819D02*
X169695952Y-89792438D01*
X169695952Y-89792438D02*
X169648333Y-89840057D01*
X169648333Y-89840057D02*
X169600714Y-89935295D01*
X169600714Y-89935295D02*
X169553095Y-90125771D01*
X169553095Y-90125771D02*
X169553095Y-90363866D01*
X169553095Y-90363866D02*
X169600714Y-90554342D01*
X169600714Y-90554342D02*
X169648333Y-90649580D01*
X169648333Y-90649580D02*
X169695952Y-90697200D01*
X169695952Y-90697200D02*
X169791190Y-90744819D01*
X169791190Y-90744819D02*
X169886428Y-90744819D01*
X169886428Y-90744819D02*
X169981666Y-90697200D01*
X169981666Y-90697200D02*
X170029285Y-90649580D01*
X170029285Y-90649580D02*
X170076904Y-90554342D01*
X170076904Y-90554342D02*
X170124523Y-90363866D01*
X170124523Y-90363866D02*
X170124523Y-90125771D01*
X170124523Y-90125771D02*
X170076904Y-89935295D01*
X170076904Y-89935295D02*
X170029285Y-89840057D01*
X170029285Y-89840057D02*
X169981666Y-89792438D01*
X169981666Y-89792438D02*
X169886428Y-89744819D01*
X173047819Y-91663333D02*
X173047819Y-91091905D01*
X173047819Y-91377619D02*
X172047819Y-91377619D01*
X172047819Y-91377619D02*
X172190676Y-91282381D01*
X172190676Y-91282381D02*
X172285914Y-91187143D01*
X172285914Y-91187143D02*
X172333533Y-91091905D01*
X172047819Y-92282381D02*
X172047819Y-92377619D01*
X172047819Y-92377619D02*
X172095438Y-92472857D01*
X172095438Y-92472857D02*
X172143057Y-92520476D01*
X172143057Y-92520476D02*
X172238295Y-92568095D01*
X172238295Y-92568095D02*
X172428771Y-92615714D01*
X172428771Y-92615714D02*
X172666866Y-92615714D01*
X172666866Y-92615714D02*
X172857342Y-92568095D01*
X172857342Y-92568095D02*
X172952580Y-92520476D01*
X172952580Y-92520476D02*
X173000200Y-92472857D01*
X173000200Y-92472857D02*
X173047819Y-92377619D01*
X173047819Y-92377619D02*
X173047819Y-92282381D01*
X173047819Y-92282381D02*
X173000200Y-92187143D01*
X173000200Y-92187143D02*
X172952580Y-92139524D01*
X172952580Y-92139524D02*
X172857342Y-92091905D01*
X172857342Y-92091905D02*
X172666866Y-92044286D01*
X172666866Y-92044286D02*
X172428771Y-92044286D01*
X172428771Y-92044286D02*
X172238295Y-92091905D01*
X172238295Y-92091905D02*
X172143057Y-92139524D01*
X172143057Y-92139524D02*
X172095438Y-92187143D01*
X172095438Y-92187143D02*
X172047819Y-92282381D01*
X172047819Y-93234762D02*
X172047819Y-93330000D01*
X172047819Y-93330000D02*
X172095438Y-93425238D01*
X172095438Y-93425238D02*
X172143057Y-93472857D01*
X172143057Y-93472857D02*
X172238295Y-93520476D01*
X172238295Y-93520476D02*
X172428771Y-93568095D01*
X172428771Y-93568095D02*
X172666866Y-93568095D01*
X172666866Y-93568095D02*
X172857342Y-93520476D01*
X172857342Y-93520476D02*
X172952580Y-93472857D01*
X172952580Y-93472857D02*
X173000200Y-93425238D01*
X173000200Y-93425238D02*
X173047819Y-93330000D01*
X173047819Y-93330000D02*
X173047819Y-93234762D01*
X173047819Y-93234762D02*
X173000200Y-93139524D01*
X173000200Y-93139524D02*
X172952580Y-93091905D01*
X172952580Y-93091905D02*
X172857342Y-93044286D01*
X172857342Y-93044286D02*
X172666866Y-92996667D01*
X172666866Y-92996667D02*
X172428771Y-92996667D01*
X172428771Y-92996667D02*
X172238295Y-93044286D01*
X172238295Y-93044286D02*
X172143057Y-93091905D01*
X172143057Y-93091905D02*
X172095438Y-93139524D01*
X172095438Y-93139524D02*
X172047819Y-93234762D01*
X173047819Y-93996667D02*
X172047819Y-93996667D01*
X173047819Y-94568095D02*
X172476390Y-94139524D01*
X172047819Y-94568095D02*
X172619247Y-93996667D01*
X162599666Y-64074819D02*
X162932999Y-63598628D01*
X163171094Y-64074819D02*
X163171094Y-63074819D01*
X163171094Y-63074819D02*
X162790142Y-63074819D01*
X162790142Y-63074819D02*
X162694904Y-63122438D01*
X162694904Y-63122438D02*
X162647285Y-63170057D01*
X162647285Y-63170057D02*
X162599666Y-63265295D01*
X162599666Y-63265295D02*
X162599666Y-63408152D01*
X162599666Y-63408152D02*
X162647285Y-63503390D01*
X162647285Y-63503390D02*
X162694904Y-63551009D01*
X162694904Y-63551009D02*
X162790142Y-63598628D01*
X162790142Y-63598628D02*
X163171094Y-63598628D01*
X162028237Y-63503390D02*
X162123475Y-63455771D01*
X162123475Y-63455771D02*
X162171094Y-63408152D01*
X162171094Y-63408152D02*
X162218713Y-63312914D01*
X162218713Y-63312914D02*
X162218713Y-63265295D01*
X162218713Y-63265295D02*
X162171094Y-63170057D01*
X162171094Y-63170057D02*
X162123475Y-63122438D01*
X162123475Y-63122438D02*
X162028237Y-63074819D01*
X162028237Y-63074819D02*
X161837761Y-63074819D01*
X161837761Y-63074819D02*
X161742523Y-63122438D01*
X161742523Y-63122438D02*
X161694904Y-63170057D01*
X161694904Y-63170057D02*
X161647285Y-63265295D01*
X161647285Y-63265295D02*
X161647285Y-63312914D01*
X161647285Y-63312914D02*
X161694904Y-63408152D01*
X161694904Y-63408152D02*
X161742523Y-63455771D01*
X161742523Y-63455771D02*
X161837761Y-63503390D01*
X161837761Y-63503390D02*
X162028237Y-63503390D01*
X162028237Y-63503390D02*
X162123475Y-63551009D01*
X162123475Y-63551009D02*
X162171094Y-63598628D01*
X162171094Y-63598628D02*
X162218713Y-63693866D01*
X162218713Y-63693866D02*
X162218713Y-63884342D01*
X162218713Y-63884342D02*
X162171094Y-63979580D01*
X162171094Y-63979580D02*
X162123475Y-64027200D01*
X162123475Y-64027200D02*
X162028237Y-64074819D01*
X162028237Y-64074819D02*
X161837761Y-64074819D01*
X161837761Y-64074819D02*
X161742523Y-64027200D01*
X161742523Y-64027200D02*
X161694904Y-63979580D01*
X161694904Y-63979580D02*
X161647285Y-63884342D01*
X161647285Y-63884342D02*
X161647285Y-63693866D01*
X161647285Y-63693866D02*
X161694904Y-63598628D01*
X161694904Y-63598628D02*
X161742523Y-63551009D01*
X161742523Y-63551009D02*
X161837761Y-63503390D01*
X159821476Y-65598819D02*
X160392904Y-65598819D01*
X160107190Y-65598819D02*
X160107190Y-64598819D01*
X160107190Y-64598819D02*
X160202428Y-64741676D01*
X160202428Y-64741676D02*
X160297666Y-64836914D01*
X160297666Y-64836914D02*
X160392904Y-64884533D01*
X159202428Y-64598819D02*
X159107190Y-64598819D01*
X159107190Y-64598819D02*
X159011952Y-64646438D01*
X159011952Y-64646438D02*
X158964333Y-64694057D01*
X158964333Y-64694057D02*
X158916714Y-64789295D01*
X158916714Y-64789295D02*
X158869095Y-64979771D01*
X158869095Y-64979771D02*
X158869095Y-65217866D01*
X158869095Y-65217866D02*
X158916714Y-65408342D01*
X158916714Y-65408342D02*
X158964333Y-65503580D01*
X158964333Y-65503580D02*
X159011952Y-65551200D01*
X159011952Y-65551200D02*
X159107190Y-65598819D01*
X159107190Y-65598819D02*
X159202428Y-65598819D01*
X159202428Y-65598819D02*
X159297666Y-65551200D01*
X159297666Y-65551200D02*
X159345285Y-65503580D01*
X159345285Y-65503580D02*
X159392904Y-65408342D01*
X159392904Y-65408342D02*
X159440523Y-65217866D01*
X159440523Y-65217866D02*
X159440523Y-64979771D01*
X159440523Y-64979771D02*
X159392904Y-64789295D01*
X159392904Y-64789295D02*
X159345285Y-64694057D01*
X159345285Y-64694057D02*
X159297666Y-64646438D01*
X159297666Y-64646438D02*
X159202428Y-64598819D01*
X158440523Y-65598819D02*
X158440523Y-64598819D01*
X157869095Y-65598819D02*
X158297666Y-65027390D01*
X157869095Y-64598819D02*
X158440523Y-65170247D01*
X145274904Y-37420819D02*
X145274904Y-38230342D01*
X145274904Y-38230342D02*
X145227285Y-38325580D01*
X145227285Y-38325580D02*
X145179666Y-38373200D01*
X145179666Y-38373200D02*
X145084428Y-38420819D01*
X145084428Y-38420819D02*
X144893952Y-38420819D01*
X144893952Y-38420819D02*
X144798714Y-38373200D01*
X144798714Y-38373200D02*
X144751095Y-38325580D01*
X144751095Y-38325580D02*
X144703476Y-38230342D01*
X144703476Y-38230342D02*
X144703476Y-37420819D01*
X143703476Y-38420819D02*
X144274904Y-38420819D01*
X143989190Y-38420819D02*
X143989190Y-37420819D01*
X143989190Y-37420819D02*
X144084428Y-37563676D01*
X144084428Y-37563676D02*
X144179666Y-37658914D01*
X144179666Y-37658914D02*
X144274904Y-37706533D01*
X152655856Y-54151009D02*
X152322523Y-54151009D01*
X152179666Y-54674819D02*
X152655856Y-54674819D01*
X152655856Y-54674819D02*
X152655856Y-53674819D01*
X152655856Y-53674819D02*
X152179666Y-53674819D01*
X151798713Y-54627200D02*
X151655856Y-54674819D01*
X151655856Y-54674819D02*
X151417761Y-54674819D01*
X151417761Y-54674819D02*
X151322523Y-54627200D01*
X151322523Y-54627200D02*
X151274904Y-54579580D01*
X151274904Y-54579580D02*
X151227285Y-54484342D01*
X151227285Y-54484342D02*
X151227285Y-54389104D01*
X151227285Y-54389104D02*
X151274904Y-54293866D01*
X151274904Y-54293866D02*
X151322523Y-54246247D01*
X151322523Y-54246247D02*
X151417761Y-54198628D01*
X151417761Y-54198628D02*
X151608237Y-54151009D01*
X151608237Y-54151009D02*
X151703475Y-54103390D01*
X151703475Y-54103390D02*
X151751094Y-54055771D01*
X151751094Y-54055771D02*
X151798713Y-53960533D01*
X151798713Y-53960533D02*
X151798713Y-53865295D01*
X151798713Y-53865295D02*
X151751094Y-53770057D01*
X151751094Y-53770057D02*
X151703475Y-53722438D01*
X151703475Y-53722438D02*
X151608237Y-53674819D01*
X151608237Y-53674819D02*
X151370142Y-53674819D01*
X151370142Y-53674819D02*
X151227285Y-53722438D01*
X150798713Y-54674819D02*
X150798713Y-53674819D01*
X150798713Y-53674819D02*
X150417761Y-53674819D01*
X150417761Y-53674819D02*
X150322523Y-53722438D01*
X150322523Y-53722438D02*
X150274904Y-53770057D01*
X150274904Y-53770057D02*
X150227285Y-53865295D01*
X150227285Y-53865295D02*
X150227285Y-54008152D01*
X150227285Y-54008152D02*
X150274904Y-54103390D01*
X150274904Y-54103390D02*
X150322523Y-54151009D01*
X150322523Y-54151009D02*
X150417761Y-54198628D01*
X150417761Y-54198628D02*
X150798713Y-54198628D01*
X149893951Y-53674819D02*
X149274904Y-53674819D01*
X149274904Y-53674819D02*
X149608237Y-54055771D01*
X149608237Y-54055771D02*
X149465380Y-54055771D01*
X149465380Y-54055771D02*
X149370142Y-54103390D01*
X149370142Y-54103390D02*
X149322523Y-54151009D01*
X149322523Y-54151009D02*
X149274904Y-54246247D01*
X149274904Y-54246247D02*
X149274904Y-54484342D01*
X149274904Y-54484342D02*
X149322523Y-54579580D01*
X149322523Y-54579580D02*
X149370142Y-54627200D01*
X149370142Y-54627200D02*
X149465380Y-54674819D01*
X149465380Y-54674819D02*
X149751094Y-54674819D01*
X149751094Y-54674819D02*
X149846332Y-54627200D01*
X149846332Y-54627200D02*
X149893951Y-54579580D01*
X148893951Y-53770057D02*
X148846332Y-53722438D01*
X148846332Y-53722438D02*
X148751094Y-53674819D01*
X148751094Y-53674819D02*
X148512999Y-53674819D01*
X148512999Y-53674819D02*
X148417761Y-53722438D01*
X148417761Y-53722438D02*
X148370142Y-53770057D01*
X148370142Y-53770057D02*
X148322523Y-53865295D01*
X148322523Y-53865295D02*
X148322523Y-53960533D01*
X148322523Y-53960533D02*
X148370142Y-54103390D01*
X148370142Y-54103390D02*
X148941570Y-54674819D01*
X148941570Y-54674819D02*
X148322523Y-54674819D01*
X147893951Y-54293866D02*
X147132047Y-54293866D01*
X146084428Y-54579580D02*
X146132047Y-54627200D01*
X146132047Y-54627200D02*
X146274904Y-54674819D01*
X146274904Y-54674819D02*
X146370142Y-54674819D01*
X146370142Y-54674819D02*
X146512999Y-54627200D01*
X146512999Y-54627200D02*
X146608237Y-54531961D01*
X146608237Y-54531961D02*
X146655856Y-54436723D01*
X146655856Y-54436723D02*
X146703475Y-54246247D01*
X146703475Y-54246247D02*
X146703475Y-54103390D01*
X146703475Y-54103390D02*
X146655856Y-53912914D01*
X146655856Y-53912914D02*
X146608237Y-53817676D01*
X146608237Y-53817676D02*
X146512999Y-53722438D01*
X146512999Y-53722438D02*
X146370142Y-53674819D01*
X146370142Y-53674819D02*
X146274904Y-53674819D01*
X146274904Y-53674819D02*
X146132047Y-53722438D01*
X146132047Y-53722438D02*
X146084428Y-53770057D01*
X145227285Y-53674819D02*
X145417761Y-53674819D01*
X145417761Y-53674819D02*
X145512999Y-53722438D01*
X145512999Y-53722438D02*
X145560618Y-53770057D01*
X145560618Y-53770057D02*
X145655856Y-53912914D01*
X145655856Y-53912914D02*
X145703475Y-54103390D01*
X145703475Y-54103390D02*
X145703475Y-54484342D01*
X145703475Y-54484342D02*
X145655856Y-54579580D01*
X145655856Y-54579580D02*
X145608237Y-54627200D01*
X145608237Y-54627200D02*
X145512999Y-54674819D01*
X145512999Y-54674819D02*
X145322523Y-54674819D01*
X145322523Y-54674819D02*
X145227285Y-54627200D01*
X145227285Y-54627200D02*
X145179666Y-54579580D01*
X145179666Y-54579580D02*
X145132047Y-54484342D01*
X145132047Y-54484342D02*
X145132047Y-54246247D01*
X145132047Y-54246247D02*
X145179666Y-54151009D01*
X145179666Y-54151009D02*
X145227285Y-54103390D01*
X145227285Y-54103390D02*
X145322523Y-54055771D01*
X145322523Y-54055771D02*
X145512999Y-54055771D01*
X145512999Y-54055771D02*
X145608237Y-54103390D01*
X145608237Y-54103390D02*
X145655856Y-54151009D01*
X145655856Y-54151009D02*
X145703475Y-54246247D01*
X144703475Y-54293866D02*
X143941571Y-54293866D01*
X143560618Y-53674819D02*
X143322523Y-54674819D01*
X143322523Y-54674819D02*
X143132047Y-53960533D01*
X143132047Y-53960533D02*
X142941571Y-54674819D01*
X142941571Y-54674819D02*
X142703476Y-53674819D01*
X141751095Y-54674819D02*
X142084428Y-54198628D01*
X142322523Y-54674819D02*
X142322523Y-53674819D01*
X142322523Y-53674819D02*
X141941571Y-53674819D01*
X141941571Y-53674819D02*
X141846333Y-53722438D01*
X141846333Y-53722438D02*
X141798714Y-53770057D01*
X141798714Y-53770057D02*
X141751095Y-53865295D01*
X141751095Y-53865295D02*
X141751095Y-54008152D01*
X141751095Y-54008152D02*
X141798714Y-54103390D01*
X141798714Y-54103390D02*
X141846333Y-54151009D01*
X141846333Y-54151009D02*
X141941571Y-54198628D01*
X141941571Y-54198628D02*
X142322523Y-54198628D01*
X141132047Y-53674819D02*
X140941571Y-53674819D01*
X140941571Y-53674819D02*
X140846333Y-53722438D01*
X140846333Y-53722438D02*
X140751095Y-53817676D01*
X140751095Y-53817676D02*
X140703476Y-54008152D01*
X140703476Y-54008152D02*
X140703476Y-54341485D01*
X140703476Y-54341485D02*
X140751095Y-54531961D01*
X140751095Y-54531961D02*
X140846333Y-54627200D01*
X140846333Y-54627200D02*
X140941571Y-54674819D01*
X140941571Y-54674819D02*
X141132047Y-54674819D01*
X141132047Y-54674819D02*
X141227285Y-54627200D01*
X141227285Y-54627200D02*
X141322523Y-54531961D01*
X141322523Y-54531961D02*
X141370142Y-54341485D01*
X141370142Y-54341485D02*
X141370142Y-54008152D01*
X141370142Y-54008152D02*
X141322523Y-53817676D01*
X141322523Y-53817676D02*
X141227285Y-53722438D01*
X141227285Y-53722438D02*
X141132047Y-53674819D01*
X140084428Y-53674819D02*
X139893952Y-53674819D01*
X139893952Y-53674819D02*
X139798714Y-53722438D01*
X139798714Y-53722438D02*
X139703476Y-53817676D01*
X139703476Y-53817676D02*
X139655857Y-54008152D01*
X139655857Y-54008152D02*
X139655857Y-54341485D01*
X139655857Y-54341485D02*
X139703476Y-54531961D01*
X139703476Y-54531961D02*
X139798714Y-54627200D01*
X139798714Y-54627200D02*
X139893952Y-54674819D01*
X139893952Y-54674819D02*
X140084428Y-54674819D01*
X140084428Y-54674819D02*
X140179666Y-54627200D01*
X140179666Y-54627200D02*
X140274904Y-54531961D01*
X140274904Y-54531961D02*
X140322523Y-54341485D01*
X140322523Y-54341485D02*
X140322523Y-54008152D01*
X140322523Y-54008152D02*
X140274904Y-53817676D01*
X140274904Y-53817676D02*
X140179666Y-53722438D01*
X140179666Y-53722438D02*
X140084428Y-53674819D01*
X139227285Y-54674819D02*
X139227285Y-53674819D01*
X139227285Y-53674819D02*
X138893952Y-54389104D01*
X138893952Y-54389104D02*
X138560619Y-53674819D01*
X138560619Y-53674819D02*
X138560619Y-54674819D01*
X138084428Y-54293866D02*
X137322524Y-54293866D01*
X136322524Y-54674819D02*
X136893952Y-54674819D01*
X136608238Y-54674819D02*
X136608238Y-53674819D01*
X136608238Y-53674819D02*
X136703476Y-53817676D01*
X136703476Y-53817676D02*
X136798714Y-53912914D01*
X136798714Y-53912914D02*
X136893952Y-53960533D01*
X149274905Y-40249104D02*
X148798715Y-40249104D01*
X149370143Y-40534819D02*
X149036810Y-39534819D01*
X149036810Y-39534819D02*
X148703477Y-40534819D01*
X148370143Y-39868152D02*
X148370143Y-40534819D01*
X148370143Y-39963390D02*
X148322524Y-39915771D01*
X148322524Y-39915771D02*
X148227286Y-39868152D01*
X148227286Y-39868152D02*
X148084429Y-39868152D01*
X148084429Y-39868152D02*
X147989191Y-39915771D01*
X147989191Y-39915771D02*
X147941572Y-40011009D01*
X147941572Y-40011009D02*
X147941572Y-40534819D01*
X147608238Y-39868152D02*
X147227286Y-39868152D01*
X147465381Y-39534819D02*
X147465381Y-40391961D01*
X147465381Y-40391961D02*
X147417762Y-40487200D01*
X147417762Y-40487200D02*
X147322524Y-40534819D01*
X147322524Y-40534819D02*
X147227286Y-40534819D01*
X146513000Y-40487200D02*
X146608238Y-40534819D01*
X146608238Y-40534819D02*
X146798714Y-40534819D01*
X146798714Y-40534819D02*
X146893952Y-40487200D01*
X146893952Y-40487200D02*
X146941571Y-40391961D01*
X146941571Y-40391961D02*
X146941571Y-40011009D01*
X146941571Y-40011009D02*
X146893952Y-39915771D01*
X146893952Y-39915771D02*
X146798714Y-39868152D01*
X146798714Y-39868152D02*
X146608238Y-39868152D01*
X146608238Y-39868152D02*
X146513000Y-39915771D01*
X146513000Y-39915771D02*
X146465381Y-40011009D01*
X146465381Y-40011009D02*
X146465381Y-40106247D01*
X146465381Y-40106247D02*
X146941571Y-40201485D01*
X146036809Y-39868152D02*
X146036809Y-40534819D01*
X146036809Y-39963390D02*
X145989190Y-39915771D01*
X145989190Y-39915771D02*
X145893952Y-39868152D01*
X145893952Y-39868152D02*
X145751095Y-39868152D01*
X145751095Y-39868152D02*
X145655857Y-39915771D01*
X145655857Y-39915771D02*
X145608238Y-40011009D01*
X145608238Y-40011009D02*
X145608238Y-40534819D01*
X145132047Y-39868152D02*
X145132047Y-40534819D01*
X145132047Y-39963390D02*
X145084428Y-39915771D01*
X145084428Y-39915771D02*
X144989190Y-39868152D01*
X144989190Y-39868152D02*
X144846333Y-39868152D01*
X144846333Y-39868152D02*
X144751095Y-39915771D01*
X144751095Y-39915771D02*
X144703476Y-40011009D01*
X144703476Y-40011009D02*
X144703476Y-40534819D01*
X143798714Y-40534819D02*
X143798714Y-40011009D01*
X143798714Y-40011009D02*
X143846333Y-39915771D01*
X143846333Y-39915771D02*
X143941571Y-39868152D01*
X143941571Y-39868152D02*
X144132047Y-39868152D01*
X144132047Y-39868152D02*
X144227285Y-39915771D01*
X143798714Y-40487200D02*
X143893952Y-40534819D01*
X143893952Y-40534819D02*
X144132047Y-40534819D01*
X144132047Y-40534819D02*
X144227285Y-40487200D01*
X144227285Y-40487200D02*
X144274904Y-40391961D01*
X144274904Y-40391961D02*
X144274904Y-40296723D01*
X144274904Y-40296723D02*
X144227285Y-40201485D01*
X144227285Y-40201485D02*
X144132047Y-40153866D01*
X144132047Y-40153866D02*
X143893952Y-40153866D01*
X143893952Y-40153866D02*
X143798714Y-40106247D01*
X142608237Y-40249104D02*
X142132047Y-40249104D01*
X142703475Y-40534819D02*
X142370142Y-39534819D01*
X142370142Y-39534819D02*
X142036809Y-40534819D01*
X141703475Y-40534819D02*
X141703475Y-39868152D01*
X141703475Y-40058628D02*
X141655856Y-39963390D01*
X141655856Y-39963390D02*
X141608237Y-39915771D01*
X141608237Y-39915771D02*
X141512999Y-39868152D01*
X141512999Y-39868152D02*
X141417761Y-39868152D01*
X140703475Y-40487200D02*
X140798713Y-40534819D01*
X140798713Y-40534819D02*
X140989189Y-40534819D01*
X140989189Y-40534819D02*
X141084427Y-40487200D01*
X141084427Y-40487200D02*
X141132046Y-40391961D01*
X141132046Y-40391961D02*
X141132046Y-40011009D01*
X141132046Y-40011009D02*
X141084427Y-39915771D01*
X141084427Y-39915771D02*
X140989189Y-39868152D01*
X140989189Y-39868152D02*
X140798713Y-39868152D01*
X140798713Y-39868152D02*
X140703475Y-39915771D01*
X140703475Y-39915771D02*
X140655856Y-40011009D01*
X140655856Y-40011009D02*
X140655856Y-40106247D01*
X140655856Y-40106247D02*
X141132046Y-40201485D01*
X139798713Y-40534819D02*
X139798713Y-40011009D01*
X139798713Y-40011009D02*
X139846332Y-39915771D01*
X139846332Y-39915771D02*
X139941570Y-39868152D01*
X139941570Y-39868152D02*
X140132046Y-39868152D01*
X140132046Y-39868152D02*
X140227284Y-39915771D01*
X139798713Y-40487200D02*
X139893951Y-40534819D01*
X139893951Y-40534819D02*
X140132046Y-40534819D01*
X140132046Y-40534819D02*
X140227284Y-40487200D01*
X140227284Y-40487200D02*
X140274903Y-40391961D01*
X140274903Y-40391961D02*
X140274903Y-40296723D01*
X140274903Y-40296723D02*
X140227284Y-40201485D01*
X140227284Y-40201485D02*
X140132046Y-40153866D01*
X140132046Y-40153866D02*
X139893951Y-40153866D01*
X139893951Y-40153866D02*
X139798713Y-40106247D01*
X140501666Y-65503580D02*
X140549285Y-65551200D01*
X140549285Y-65551200D02*
X140692142Y-65598819D01*
X140692142Y-65598819D02*
X140787380Y-65598819D01*
X140787380Y-65598819D02*
X140930237Y-65551200D01*
X140930237Y-65551200D02*
X141025475Y-65455961D01*
X141025475Y-65455961D02*
X141073094Y-65360723D01*
X141073094Y-65360723D02*
X141120713Y-65170247D01*
X141120713Y-65170247D02*
X141120713Y-65027390D01*
X141120713Y-65027390D02*
X141073094Y-64836914D01*
X141073094Y-64836914D02*
X141025475Y-64741676D01*
X141025475Y-64741676D02*
X140930237Y-64646438D01*
X140930237Y-64646438D02*
X140787380Y-64598819D01*
X140787380Y-64598819D02*
X140692142Y-64598819D01*
X140692142Y-64598819D02*
X140549285Y-64646438D01*
X140549285Y-64646438D02*
X140501666Y-64694057D01*
X139549285Y-65598819D02*
X140120713Y-65598819D01*
X139834999Y-65598819D02*
X139834999Y-64598819D01*
X139834999Y-64598819D02*
X139930237Y-64741676D01*
X139930237Y-64741676D02*
X140025475Y-64836914D01*
X140025475Y-64836914D02*
X140120713Y-64884533D01*
X143295666Y-64074819D02*
X143867094Y-64074819D01*
X143581380Y-64074819D02*
X143581380Y-63074819D01*
X143581380Y-63074819D02*
X143676618Y-63217676D01*
X143676618Y-63217676D02*
X143771856Y-63312914D01*
X143771856Y-63312914D02*
X143867094Y-63360533D01*
X142438523Y-63408152D02*
X142438523Y-64074819D01*
X142867094Y-63408152D02*
X142867094Y-63931961D01*
X142867094Y-63931961D02*
X142819475Y-64027200D01*
X142819475Y-64027200D02*
X142724237Y-64074819D01*
X142724237Y-64074819D02*
X142581380Y-64074819D01*
X142581380Y-64074819D02*
X142486142Y-64027200D01*
X142486142Y-64027200D02*
X142438523Y-63979580D01*
X150661666Y-65503580D02*
X150709285Y-65551200D01*
X150709285Y-65551200D02*
X150852142Y-65598819D01*
X150852142Y-65598819D02*
X150947380Y-65598819D01*
X150947380Y-65598819D02*
X151090237Y-65551200D01*
X151090237Y-65551200D02*
X151185475Y-65455961D01*
X151185475Y-65455961D02*
X151233094Y-65360723D01*
X151233094Y-65360723D02*
X151280713Y-65170247D01*
X151280713Y-65170247D02*
X151280713Y-65027390D01*
X151280713Y-65027390D02*
X151233094Y-64836914D01*
X151233094Y-64836914D02*
X151185475Y-64741676D01*
X151185475Y-64741676D02*
X151090237Y-64646438D01*
X151090237Y-64646438D02*
X150947380Y-64598819D01*
X150947380Y-64598819D02*
X150852142Y-64598819D01*
X150852142Y-64598819D02*
X150709285Y-64646438D01*
X150709285Y-64646438D02*
X150661666Y-64694057D01*
X150280713Y-64694057D02*
X150233094Y-64646438D01*
X150233094Y-64646438D02*
X150137856Y-64598819D01*
X150137856Y-64598819D02*
X149899761Y-64598819D01*
X149899761Y-64598819D02*
X149804523Y-64646438D01*
X149804523Y-64646438D02*
X149756904Y-64694057D01*
X149756904Y-64694057D02*
X149709285Y-64789295D01*
X149709285Y-64789295D02*
X149709285Y-64884533D01*
X149709285Y-64884533D02*
X149756904Y-65027390D01*
X149756904Y-65027390D02*
X150328332Y-65598819D01*
X150328332Y-65598819D02*
X149709285Y-65598819D01*
X147867666Y-64074819D02*
X148439094Y-64074819D01*
X148153380Y-64074819D02*
X148153380Y-63074819D01*
X148153380Y-63074819D02*
X148248618Y-63217676D01*
X148248618Y-63217676D02*
X148343856Y-63312914D01*
X148343856Y-63312914D02*
X148439094Y-63360533D01*
X147010523Y-63408152D02*
X147010523Y-64074819D01*
X147439094Y-63408152D02*
X147439094Y-63931961D01*
X147439094Y-63931961D02*
X147391475Y-64027200D01*
X147391475Y-64027200D02*
X147296237Y-64074819D01*
X147296237Y-64074819D02*
X147153380Y-64074819D01*
X147153380Y-64074819D02*
X147058142Y-64027200D01*
X147058142Y-64027200D02*
X147010523Y-63979580D01*
X150915666Y-69662819D02*
X151248999Y-69186628D01*
X151487094Y-69662819D02*
X151487094Y-68662819D01*
X151487094Y-68662819D02*
X151106142Y-68662819D01*
X151106142Y-68662819D02*
X151010904Y-68710438D01*
X151010904Y-68710438D02*
X150963285Y-68758057D01*
X150963285Y-68758057D02*
X150915666Y-68853295D01*
X150915666Y-68853295D02*
X150915666Y-68996152D01*
X150915666Y-68996152D02*
X150963285Y-69091390D01*
X150963285Y-69091390D02*
X151010904Y-69139009D01*
X151010904Y-69139009D02*
X151106142Y-69186628D01*
X151106142Y-69186628D02*
X151487094Y-69186628D01*
X150582332Y-68662819D02*
X149963285Y-68662819D01*
X149963285Y-68662819D02*
X150296618Y-69043771D01*
X150296618Y-69043771D02*
X150153761Y-69043771D01*
X150153761Y-69043771D02*
X150058523Y-69091390D01*
X150058523Y-69091390D02*
X150010904Y-69139009D01*
X150010904Y-69139009D02*
X149963285Y-69234247D01*
X149963285Y-69234247D02*
X149963285Y-69472342D01*
X149963285Y-69472342D02*
X150010904Y-69567580D01*
X150010904Y-69567580D02*
X150058523Y-69615200D01*
X150058523Y-69615200D02*
X150153761Y-69662819D01*
X150153761Y-69662819D02*
X150439475Y-69662819D01*
X150439475Y-69662819D02*
X150534713Y-69615200D01*
X150534713Y-69615200D02*
X150582332Y-69567580D01*
X148121571Y-71186819D02*
X148692999Y-71186819D01*
X148407285Y-71186819D02*
X148407285Y-70186819D01*
X148407285Y-70186819D02*
X148502523Y-70329676D01*
X148502523Y-70329676D02*
X148597761Y-70424914D01*
X148597761Y-70424914D02*
X148692999Y-70472533D01*
X147692999Y-71091580D02*
X147645380Y-71139200D01*
X147645380Y-71139200D02*
X147692999Y-71186819D01*
X147692999Y-71186819D02*
X147740618Y-71139200D01*
X147740618Y-71139200D02*
X147692999Y-71091580D01*
X147692999Y-71091580D02*
X147692999Y-71186819D01*
X146740619Y-70186819D02*
X147216809Y-70186819D01*
X147216809Y-70186819D02*
X147264428Y-70663009D01*
X147264428Y-70663009D02*
X147216809Y-70615390D01*
X147216809Y-70615390D02*
X147121571Y-70567771D01*
X147121571Y-70567771D02*
X146883476Y-70567771D01*
X146883476Y-70567771D02*
X146788238Y-70615390D01*
X146788238Y-70615390D02*
X146740619Y-70663009D01*
X146740619Y-70663009D02*
X146693000Y-70758247D01*
X146693000Y-70758247D02*
X146693000Y-70996342D01*
X146693000Y-70996342D02*
X146740619Y-71091580D01*
X146740619Y-71091580D02*
X146788238Y-71139200D01*
X146788238Y-71139200D02*
X146883476Y-71186819D01*
X146883476Y-71186819D02*
X147121571Y-71186819D01*
X147121571Y-71186819D02*
X147216809Y-71139200D01*
X147216809Y-71139200D02*
X147264428Y-71091580D01*
X146264428Y-71186819D02*
X146264428Y-70186819D01*
X145693000Y-71186819D02*
X146121571Y-70615390D01*
X145693000Y-70186819D02*
X146264428Y-70758247D01*
X171457857Y-45024819D02*
X171791190Y-44548628D01*
X172029285Y-45024819D02*
X172029285Y-44024819D01*
X172029285Y-44024819D02*
X171648333Y-44024819D01*
X171648333Y-44024819D02*
X171553095Y-44072438D01*
X171553095Y-44072438D02*
X171505476Y-44120057D01*
X171505476Y-44120057D02*
X171457857Y-44215295D01*
X171457857Y-44215295D02*
X171457857Y-44358152D01*
X171457857Y-44358152D02*
X171505476Y-44453390D01*
X171505476Y-44453390D02*
X171553095Y-44501009D01*
X171553095Y-44501009D02*
X171648333Y-44548628D01*
X171648333Y-44548628D02*
X172029285Y-44548628D01*
X170505476Y-45024819D02*
X171076904Y-45024819D01*
X170791190Y-45024819D02*
X170791190Y-44024819D01*
X170791190Y-44024819D02*
X170886428Y-44167676D01*
X170886428Y-44167676D02*
X170981666Y-44262914D01*
X170981666Y-44262914D02*
X171076904Y-44310533D01*
X169886428Y-44024819D02*
X169791190Y-44024819D01*
X169791190Y-44024819D02*
X169695952Y-44072438D01*
X169695952Y-44072438D02*
X169648333Y-44120057D01*
X169648333Y-44120057D02*
X169600714Y-44215295D01*
X169600714Y-44215295D02*
X169553095Y-44405771D01*
X169553095Y-44405771D02*
X169553095Y-44643866D01*
X169553095Y-44643866D02*
X169600714Y-44834342D01*
X169600714Y-44834342D02*
X169648333Y-44929580D01*
X169648333Y-44929580D02*
X169695952Y-44977200D01*
X169695952Y-44977200D02*
X169791190Y-45024819D01*
X169791190Y-45024819D02*
X169886428Y-45024819D01*
X169886428Y-45024819D02*
X169981666Y-44977200D01*
X169981666Y-44977200D02*
X170029285Y-44929580D01*
X170029285Y-44929580D02*
X170076904Y-44834342D01*
X170076904Y-44834342D02*
X170124523Y-44643866D01*
X170124523Y-44643866D02*
X170124523Y-44405771D01*
X170124523Y-44405771D02*
X170076904Y-44215295D01*
X170076904Y-44215295D02*
X170029285Y-44120057D01*
X170029285Y-44120057D02*
X169981666Y-44072438D01*
X169981666Y-44072438D02*
X169886428Y-44024819D01*
X173047819Y-45943333D02*
X173047819Y-45371905D01*
X173047819Y-45657619D02*
X172047819Y-45657619D01*
X172047819Y-45657619D02*
X172190676Y-45562381D01*
X172190676Y-45562381D02*
X172285914Y-45467143D01*
X172285914Y-45467143D02*
X172333533Y-45371905D01*
X172047819Y-46562381D02*
X172047819Y-46657619D01*
X172047819Y-46657619D02*
X172095438Y-46752857D01*
X172095438Y-46752857D02*
X172143057Y-46800476D01*
X172143057Y-46800476D02*
X172238295Y-46848095D01*
X172238295Y-46848095D02*
X172428771Y-46895714D01*
X172428771Y-46895714D02*
X172666866Y-46895714D01*
X172666866Y-46895714D02*
X172857342Y-46848095D01*
X172857342Y-46848095D02*
X172952580Y-46800476D01*
X172952580Y-46800476D02*
X173000200Y-46752857D01*
X173000200Y-46752857D02*
X173047819Y-46657619D01*
X173047819Y-46657619D02*
X173047819Y-46562381D01*
X173047819Y-46562381D02*
X173000200Y-46467143D01*
X173000200Y-46467143D02*
X172952580Y-46419524D01*
X172952580Y-46419524D02*
X172857342Y-46371905D01*
X172857342Y-46371905D02*
X172666866Y-46324286D01*
X172666866Y-46324286D02*
X172428771Y-46324286D01*
X172428771Y-46324286D02*
X172238295Y-46371905D01*
X172238295Y-46371905D02*
X172143057Y-46419524D01*
X172143057Y-46419524D02*
X172095438Y-46467143D01*
X172095438Y-46467143D02*
X172047819Y-46562381D01*
X172047819Y-47514762D02*
X172047819Y-47610000D01*
X172047819Y-47610000D02*
X172095438Y-47705238D01*
X172095438Y-47705238D02*
X172143057Y-47752857D01*
X172143057Y-47752857D02*
X172238295Y-47800476D01*
X172238295Y-47800476D02*
X172428771Y-47848095D01*
X172428771Y-47848095D02*
X172666866Y-47848095D01*
X172666866Y-47848095D02*
X172857342Y-47800476D01*
X172857342Y-47800476D02*
X172952580Y-47752857D01*
X172952580Y-47752857D02*
X173000200Y-47705238D01*
X173000200Y-47705238D02*
X173047819Y-47610000D01*
X173047819Y-47610000D02*
X173047819Y-47514762D01*
X173047819Y-47514762D02*
X173000200Y-47419524D01*
X173000200Y-47419524D02*
X172952580Y-47371905D01*
X172952580Y-47371905D02*
X172857342Y-47324286D01*
X172857342Y-47324286D02*
X172666866Y-47276667D01*
X172666866Y-47276667D02*
X172428771Y-47276667D01*
X172428771Y-47276667D02*
X172238295Y-47324286D01*
X172238295Y-47324286D02*
X172143057Y-47371905D01*
X172143057Y-47371905D02*
X172095438Y-47419524D01*
X172095438Y-47419524D02*
X172047819Y-47514762D01*
X173047819Y-48276667D02*
X172047819Y-48276667D01*
X173047819Y-48848095D02*
X172476390Y-48419524D01*
X172047819Y-48848095D02*
X172619247Y-48276667D01*
X151391857Y-115382819D02*
X151725190Y-114906628D01*
X151963285Y-115382819D02*
X151963285Y-114382819D01*
X151963285Y-114382819D02*
X151582333Y-114382819D01*
X151582333Y-114382819D02*
X151487095Y-114430438D01*
X151487095Y-114430438D02*
X151439476Y-114478057D01*
X151439476Y-114478057D02*
X151391857Y-114573295D01*
X151391857Y-114573295D02*
X151391857Y-114716152D01*
X151391857Y-114716152D02*
X151439476Y-114811390D01*
X151439476Y-114811390D02*
X151487095Y-114859009D01*
X151487095Y-114859009D02*
X151582333Y-114906628D01*
X151582333Y-114906628D02*
X151963285Y-114906628D01*
X150439476Y-115382819D02*
X151010904Y-115382819D01*
X150725190Y-115382819D02*
X150725190Y-114382819D01*
X150725190Y-114382819D02*
X150820428Y-114525676D01*
X150820428Y-114525676D02*
X150915666Y-114620914D01*
X150915666Y-114620914D02*
X151010904Y-114668533D01*
X150106142Y-114382819D02*
X149487095Y-114382819D01*
X149487095Y-114382819D02*
X149820428Y-114763771D01*
X149820428Y-114763771D02*
X149677571Y-114763771D01*
X149677571Y-114763771D02*
X149582333Y-114811390D01*
X149582333Y-114811390D02*
X149534714Y-114859009D01*
X149534714Y-114859009D02*
X149487095Y-114954247D01*
X149487095Y-114954247D02*
X149487095Y-115192342D01*
X149487095Y-115192342D02*
X149534714Y-115287580D01*
X149534714Y-115287580D02*
X149582333Y-115335200D01*
X149582333Y-115335200D02*
X149677571Y-115382819D01*
X149677571Y-115382819D02*
X149963285Y-115382819D01*
X149963285Y-115382819D02*
X150058523Y-115335200D01*
X150058523Y-115335200D02*
X150106142Y-115287580D01*
X148121571Y-116906819D02*
X148692999Y-116906819D01*
X148407285Y-116906819D02*
X148407285Y-115906819D01*
X148407285Y-115906819D02*
X148502523Y-116049676D01*
X148502523Y-116049676D02*
X148597761Y-116144914D01*
X148597761Y-116144914D02*
X148692999Y-116192533D01*
X147692999Y-116811580D02*
X147645380Y-116859200D01*
X147645380Y-116859200D02*
X147692999Y-116906819D01*
X147692999Y-116906819D02*
X147740618Y-116859200D01*
X147740618Y-116859200D02*
X147692999Y-116811580D01*
X147692999Y-116811580D02*
X147692999Y-116906819D01*
X146740619Y-115906819D02*
X147216809Y-115906819D01*
X147216809Y-115906819D02*
X147264428Y-116383009D01*
X147264428Y-116383009D02*
X147216809Y-116335390D01*
X147216809Y-116335390D02*
X147121571Y-116287771D01*
X147121571Y-116287771D02*
X146883476Y-116287771D01*
X146883476Y-116287771D02*
X146788238Y-116335390D01*
X146788238Y-116335390D02*
X146740619Y-116383009D01*
X146740619Y-116383009D02*
X146693000Y-116478247D01*
X146693000Y-116478247D02*
X146693000Y-116716342D01*
X146693000Y-116716342D02*
X146740619Y-116811580D01*
X146740619Y-116811580D02*
X146788238Y-116859200D01*
X146788238Y-116859200D02*
X146883476Y-116906819D01*
X146883476Y-116906819D02*
X147121571Y-116906819D01*
X147121571Y-116906819D02*
X147216809Y-116859200D01*
X147216809Y-116859200D02*
X147264428Y-116811580D01*
X146264428Y-116906819D02*
X146264428Y-115906819D01*
X145693000Y-116906819D02*
X146121571Y-116335390D01*
X145693000Y-115906819D02*
X146264428Y-116478247D01*
X143295666Y-69662819D02*
X143628999Y-69186628D01*
X143867094Y-69662819D02*
X143867094Y-68662819D01*
X143867094Y-68662819D02*
X143486142Y-68662819D01*
X143486142Y-68662819D02*
X143390904Y-68710438D01*
X143390904Y-68710438D02*
X143343285Y-68758057D01*
X143343285Y-68758057D02*
X143295666Y-68853295D01*
X143295666Y-68853295D02*
X143295666Y-68996152D01*
X143295666Y-68996152D02*
X143343285Y-69091390D01*
X143343285Y-69091390D02*
X143390904Y-69139009D01*
X143390904Y-69139009D02*
X143486142Y-69186628D01*
X143486142Y-69186628D02*
X143867094Y-69186628D01*
X142914713Y-68758057D02*
X142867094Y-68710438D01*
X142867094Y-68710438D02*
X142771856Y-68662819D01*
X142771856Y-68662819D02*
X142533761Y-68662819D01*
X142533761Y-68662819D02*
X142438523Y-68710438D01*
X142438523Y-68710438D02*
X142390904Y-68758057D01*
X142390904Y-68758057D02*
X142343285Y-68853295D01*
X142343285Y-68853295D02*
X142343285Y-68948533D01*
X142343285Y-68948533D02*
X142390904Y-69091390D01*
X142390904Y-69091390D02*
X142962332Y-69662819D01*
X142962332Y-69662819D02*
X142343285Y-69662819D01*
X140549285Y-71186819D02*
X141120713Y-71186819D01*
X140834999Y-71186819D02*
X140834999Y-70186819D01*
X140834999Y-70186819D02*
X140930237Y-70329676D01*
X140930237Y-70329676D02*
X141025475Y-70424914D01*
X141025475Y-70424914D02*
X141120713Y-70472533D01*
X140120713Y-71186819D02*
X140120713Y-70186819D01*
X139549285Y-71186819D02*
X139977856Y-70615390D01*
X139549285Y-70186819D02*
X140120713Y-70758247D01*
X168505094Y-90744819D02*
X168505094Y-89744819D01*
X168505094Y-89744819D02*
X168266999Y-89744819D01*
X168266999Y-89744819D02*
X168124142Y-89792438D01*
X168124142Y-89792438D02*
X168028904Y-89887676D01*
X168028904Y-89887676D02*
X167981285Y-89982914D01*
X167981285Y-89982914D02*
X167933666Y-90173390D01*
X167933666Y-90173390D02*
X167933666Y-90316247D01*
X167933666Y-90316247D02*
X167981285Y-90506723D01*
X167981285Y-90506723D02*
X168028904Y-90601961D01*
X168028904Y-90601961D02*
X168124142Y-90697200D01*
X168124142Y-90697200D02*
X168266999Y-90744819D01*
X168266999Y-90744819D02*
X168505094Y-90744819D01*
X167552713Y-89840057D02*
X167505094Y-89792438D01*
X167505094Y-89792438D02*
X167409856Y-89744819D01*
X167409856Y-89744819D02*
X167171761Y-89744819D01*
X167171761Y-89744819D02*
X167076523Y-89792438D01*
X167076523Y-89792438D02*
X167028904Y-89840057D01*
X167028904Y-89840057D02*
X166981285Y-89935295D01*
X166981285Y-89935295D02*
X166981285Y-90030533D01*
X166981285Y-90030533D02*
X167028904Y-90173390D01*
X167028904Y-90173390D02*
X167600332Y-90744819D01*
X167600332Y-90744819D02*
X166981285Y-90744819D01*
X156503666Y-65503580D02*
X156551285Y-65551200D01*
X156551285Y-65551200D02*
X156694142Y-65598819D01*
X156694142Y-65598819D02*
X156789380Y-65598819D01*
X156789380Y-65598819D02*
X156932237Y-65551200D01*
X156932237Y-65551200D02*
X157027475Y-65455961D01*
X157027475Y-65455961D02*
X157075094Y-65360723D01*
X157075094Y-65360723D02*
X157122713Y-65170247D01*
X157122713Y-65170247D02*
X157122713Y-65027390D01*
X157122713Y-65027390D02*
X157075094Y-64836914D01*
X157075094Y-64836914D02*
X157027475Y-64741676D01*
X157027475Y-64741676D02*
X156932237Y-64646438D01*
X156932237Y-64646438D02*
X156789380Y-64598819D01*
X156789380Y-64598819D02*
X156694142Y-64598819D01*
X156694142Y-64598819D02*
X156551285Y-64646438D01*
X156551285Y-64646438D02*
X156503666Y-64694057D01*
X156170332Y-64598819D02*
X155551285Y-64598819D01*
X155551285Y-64598819D02*
X155884618Y-64979771D01*
X155884618Y-64979771D02*
X155741761Y-64979771D01*
X155741761Y-64979771D02*
X155646523Y-65027390D01*
X155646523Y-65027390D02*
X155598904Y-65075009D01*
X155598904Y-65075009D02*
X155551285Y-65170247D01*
X155551285Y-65170247D02*
X155551285Y-65408342D01*
X155551285Y-65408342D02*
X155598904Y-65503580D01*
X155598904Y-65503580D02*
X155646523Y-65551200D01*
X155646523Y-65551200D02*
X155741761Y-65598819D01*
X155741761Y-65598819D02*
X156027475Y-65598819D01*
X156027475Y-65598819D02*
X156122713Y-65551200D01*
X156122713Y-65551200D02*
X156170332Y-65503580D01*
X154757285Y-63074819D02*
X154662047Y-63074819D01*
X154662047Y-63074819D02*
X154566809Y-63122438D01*
X154566809Y-63122438D02*
X154519190Y-63170057D01*
X154519190Y-63170057D02*
X154471571Y-63265295D01*
X154471571Y-63265295D02*
X154423952Y-63455771D01*
X154423952Y-63455771D02*
X154423952Y-63693866D01*
X154423952Y-63693866D02*
X154471571Y-63884342D01*
X154471571Y-63884342D02*
X154519190Y-63979580D01*
X154519190Y-63979580D02*
X154566809Y-64027200D01*
X154566809Y-64027200D02*
X154662047Y-64074819D01*
X154662047Y-64074819D02*
X154757285Y-64074819D01*
X154757285Y-64074819D02*
X154852523Y-64027200D01*
X154852523Y-64027200D02*
X154900142Y-63979580D01*
X154900142Y-63979580D02*
X154947761Y-63884342D01*
X154947761Y-63884342D02*
X154995380Y-63693866D01*
X154995380Y-63693866D02*
X154995380Y-63455771D01*
X154995380Y-63455771D02*
X154947761Y-63265295D01*
X154947761Y-63265295D02*
X154900142Y-63170057D01*
X154900142Y-63170057D02*
X154852523Y-63122438D01*
X154852523Y-63122438D02*
X154757285Y-63074819D01*
X153995380Y-63979580D02*
X153947761Y-64027200D01*
X153947761Y-64027200D02*
X153995380Y-64074819D01*
X153995380Y-64074819D02*
X154042999Y-64027200D01*
X154042999Y-64027200D02*
X153995380Y-63979580D01*
X153995380Y-63979580D02*
X153995380Y-64074819D01*
X152995381Y-64074819D02*
X153566809Y-64074819D01*
X153281095Y-64074819D02*
X153281095Y-63074819D01*
X153281095Y-63074819D02*
X153376333Y-63217676D01*
X153376333Y-63217676D02*
X153471571Y-63312914D01*
X153471571Y-63312914D02*
X153566809Y-63360533D01*
X152138238Y-63408152D02*
X152138238Y-64074819D01*
X152566809Y-63408152D02*
X152566809Y-63931961D01*
X152566809Y-63931961D02*
X152519190Y-64027200D01*
X152519190Y-64027200D02*
X152423952Y-64074819D01*
X152423952Y-64074819D02*
X152281095Y-64074819D01*
X152281095Y-64074819D02*
X152185857Y-64027200D01*
X152185857Y-64027200D02*
X152138238Y-63979580D01*
X164345857Y-104365580D02*
X164393476Y-104413200D01*
X164393476Y-104413200D02*
X164536333Y-104460819D01*
X164536333Y-104460819D02*
X164631571Y-104460819D01*
X164631571Y-104460819D02*
X164774428Y-104413200D01*
X164774428Y-104413200D02*
X164869666Y-104317961D01*
X164869666Y-104317961D02*
X164917285Y-104222723D01*
X164917285Y-104222723D02*
X164964904Y-104032247D01*
X164964904Y-104032247D02*
X164964904Y-103889390D01*
X164964904Y-103889390D02*
X164917285Y-103698914D01*
X164917285Y-103698914D02*
X164869666Y-103603676D01*
X164869666Y-103603676D02*
X164774428Y-103508438D01*
X164774428Y-103508438D02*
X164631571Y-103460819D01*
X164631571Y-103460819D02*
X164536333Y-103460819D01*
X164536333Y-103460819D02*
X164393476Y-103508438D01*
X164393476Y-103508438D02*
X164345857Y-103556057D01*
X163393476Y-104460819D02*
X163964904Y-104460819D01*
X163679190Y-104460819D02*
X163679190Y-103460819D01*
X163679190Y-103460819D02*
X163774428Y-103603676D01*
X163774428Y-103603676D02*
X163869666Y-103698914D01*
X163869666Y-103698914D02*
X163964904Y-103746533D01*
X162774428Y-103460819D02*
X162679190Y-103460819D01*
X162679190Y-103460819D02*
X162583952Y-103508438D01*
X162583952Y-103508438D02*
X162536333Y-103556057D01*
X162536333Y-103556057D02*
X162488714Y-103651295D01*
X162488714Y-103651295D02*
X162441095Y-103841771D01*
X162441095Y-103841771D02*
X162441095Y-104079866D01*
X162441095Y-104079866D02*
X162488714Y-104270342D01*
X162488714Y-104270342D02*
X162536333Y-104365580D01*
X162536333Y-104365580D02*
X162583952Y-104413200D01*
X162583952Y-104413200D02*
X162679190Y-104460819D01*
X162679190Y-104460819D02*
X162774428Y-104460819D01*
X162774428Y-104460819D02*
X162869666Y-104413200D01*
X162869666Y-104413200D02*
X162917285Y-104365580D01*
X162917285Y-104365580D02*
X162964904Y-104270342D01*
X162964904Y-104270342D02*
X163012523Y-104079866D01*
X163012523Y-104079866D02*
X163012523Y-103841771D01*
X163012523Y-103841771D02*
X162964904Y-103651295D01*
X162964904Y-103651295D02*
X162917285Y-103556057D01*
X162917285Y-103556057D02*
X162869666Y-103508438D01*
X162869666Y-103508438D02*
X162774428Y-103460819D01*
X164774428Y-107762819D02*
X165345856Y-107762819D01*
X165060142Y-107762819D02*
X165060142Y-106762819D01*
X165060142Y-106762819D02*
X165155380Y-106905676D01*
X165155380Y-106905676D02*
X165250618Y-107000914D01*
X165250618Y-107000914D02*
X165345856Y-107048533D01*
X164155380Y-106762819D02*
X164060142Y-106762819D01*
X164060142Y-106762819D02*
X163964904Y-106810438D01*
X163964904Y-106810438D02*
X163917285Y-106858057D01*
X163917285Y-106858057D02*
X163869666Y-106953295D01*
X163869666Y-106953295D02*
X163822047Y-107143771D01*
X163822047Y-107143771D02*
X163822047Y-107381866D01*
X163822047Y-107381866D02*
X163869666Y-107572342D01*
X163869666Y-107572342D02*
X163917285Y-107667580D01*
X163917285Y-107667580D02*
X163964904Y-107715200D01*
X163964904Y-107715200D02*
X164060142Y-107762819D01*
X164060142Y-107762819D02*
X164155380Y-107762819D01*
X164155380Y-107762819D02*
X164250618Y-107715200D01*
X164250618Y-107715200D02*
X164298237Y-107667580D01*
X164298237Y-107667580D02*
X164345856Y-107572342D01*
X164345856Y-107572342D02*
X164393475Y-107381866D01*
X164393475Y-107381866D02*
X164393475Y-107143771D01*
X164393475Y-107143771D02*
X164345856Y-106953295D01*
X164345856Y-106953295D02*
X164298237Y-106858057D01*
X164298237Y-106858057D02*
X164250618Y-106810438D01*
X164250618Y-106810438D02*
X164155380Y-106762819D01*
X162964904Y-107096152D02*
X162964904Y-107762819D01*
X163393475Y-107096152D02*
X163393475Y-107619961D01*
X163393475Y-107619961D02*
X163345856Y-107715200D01*
X163345856Y-107715200D02*
X163250618Y-107762819D01*
X163250618Y-107762819D02*
X163107761Y-107762819D01*
X163107761Y-107762819D02*
X163012523Y-107715200D01*
X163012523Y-107715200D02*
X162964904Y-107667580D01*
X162155380Y-107239009D02*
X162488713Y-107239009D01*
X162488713Y-107762819D02*
X162488713Y-106762819D01*
X162488713Y-106762819D02*
X162012523Y-106762819D01*
X168949666Y-95983580D02*
X168997285Y-96031200D01*
X168997285Y-96031200D02*
X169140142Y-96078819D01*
X169140142Y-96078819D02*
X169235380Y-96078819D01*
X169235380Y-96078819D02*
X169378237Y-96031200D01*
X169378237Y-96031200D02*
X169473475Y-95935961D01*
X169473475Y-95935961D02*
X169521094Y-95840723D01*
X169521094Y-95840723D02*
X169568713Y-95650247D01*
X169568713Y-95650247D02*
X169568713Y-95507390D01*
X169568713Y-95507390D02*
X169521094Y-95316914D01*
X169521094Y-95316914D02*
X169473475Y-95221676D01*
X169473475Y-95221676D02*
X169378237Y-95126438D01*
X169378237Y-95126438D02*
X169235380Y-95078819D01*
X169235380Y-95078819D02*
X169140142Y-95078819D01*
X169140142Y-95078819D02*
X168997285Y-95126438D01*
X168997285Y-95126438D02*
X168949666Y-95174057D01*
X168473475Y-96078819D02*
X168282999Y-96078819D01*
X168282999Y-96078819D02*
X168187761Y-96031200D01*
X168187761Y-96031200D02*
X168140142Y-95983580D01*
X168140142Y-95983580D02*
X168044904Y-95840723D01*
X168044904Y-95840723D02*
X167997285Y-95650247D01*
X167997285Y-95650247D02*
X167997285Y-95269295D01*
X167997285Y-95269295D02*
X168044904Y-95174057D01*
X168044904Y-95174057D02*
X168092523Y-95126438D01*
X168092523Y-95126438D02*
X168187761Y-95078819D01*
X168187761Y-95078819D02*
X168378237Y-95078819D01*
X168378237Y-95078819D02*
X168473475Y-95126438D01*
X168473475Y-95126438D02*
X168521094Y-95174057D01*
X168521094Y-95174057D02*
X168568713Y-95269295D01*
X168568713Y-95269295D02*
X168568713Y-95507390D01*
X168568713Y-95507390D02*
X168521094Y-95602628D01*
X168521094Y-95602628D02*
X168473475Y-95650247D01*
X168473475Y-95650247D02*
X168378237Y-95697866D01*
X168378237Y-95697866D02*
X168187761Y-95697866D01*
X168187761Y-95697866D02*
X168092523Y-95650247D01*
X168092523Y-95650247D02*
X168044904Y-95602628D01*
X168044904Y-95602628D02*
X167997285Y-95507390D01*
X165869761Y-97190152D02*
X165869761Y-97856819D01*
X166107856Y-96809200D02*
X166345951Y-97523485D01*
X166345951Y-97523485D02*
X165726904Y-97523485D01*
X165345951Y-97761580D02*
X165298332Y-97809200D01*
X165298332Y-97809200D02*
X165345951Y-97856819D01*
X165345951Y-97856819D02*
X165393570Y-97809200D01*
X165393570Y-97809200D02*
X165345951Y-97761580D01*
X165345951Y-97761580D02*
X165345951Y-97856819D01*
X164964999Y-96856819D02*
X164298333Y-96856819D01*
X164298333Y-96856819D02*
X164726904Y-97856819D01*
X163488809Y-97190152D02*
X163488809Y-97856819D01*
X163917380Y-97190152D02*
X163917380Y-97713961D01*
X163917380Y-97713961D02*
X163869761Y-97809200D01*
X163869761Y-97809200D02*
X163774523Y-97856819D01*
X163774523Y-97856819D02*
X163631666Y-97856819D01*
X163631666Y-97856819D02*
X163536428Y-97809200D01*
X163536428Y-97809200D02*
X163488809Y-97761580D01*
X162679285Y-97333009D02*
X163012618Y-97333009D01*
X163012618Y-97856819D02*
X163012618Y-96856819D01*
X163012618Y-96856819D02*
X162536428Y-96856819D01*
D11*
X169544904Y-98636119D02*
X169544904Y-99445642D01*
X169544904Y-99445642D02*
X169497285Y-99540880D01*
X169497285Y-99540880D02*
X169449666Y-99588500D01*
X169449666Y-99588500D02*
X169354428Y-99636119D01*
X169354428Y-99636119D02*
X169163952Y-99636119D01*
X169163952Y-99636119D02*
X169068714Y-99588500D01*
X169068714Y-99588500D02*
X169021095Y-99540880D01*
X169021095Y-99540880D02*
X168973476Y-99445642D01*
X168973476Y-99445642D02*
X168973476Y-98636119D01*
X168068714Y-98969452D02*
X168068714Y-99636119D01*
X168306809Y-98588500D02*
X168544904Y-99302785D01*
X168544904Y-99302785D02*
X167925857Y-99302785D01*
D10*
X167361857Y-109794819D02*
X167695190Y-109318628D01*
X167933285Y-109794819D02*
X167933285Y-108794819D01*
X167933285Y-108794819D02*
X167552333Y-108794819D01*
X167552333Y-108794819D02*
X167457095Y-108842438D01*
X167457095Y-108842438D02*
X167409476Y-108890057D01*
X167409476Y-108890057D02*
X167361857Y-108985295D01*
X167361857Y-108985295D02*
X167361857Y-109128152D01*
X167361857Y-109128152D02*
X167409476Y-109223390D01*
X167409476Y-109223390D02*
X167457095Y-109271009D01*
X167457095Y-109271009D02*
X167552333Y-109318628D01*
X167552333Y-109318628D02*
X167933285Y-109318628D01*
X166409476Y-109794819D02*
X166980904Y-109794819D01*
X166695190Y-109794819D02*
X166695190Y-108794819D01*
X166695190Y-108794819D02*
X166790428Y-108937676D01*
X166790428Y-108937676D02*
X166885666Y-109032914D01*
X166885666Y-109032914D02*
X166980904Y-109080533D01*
X166076142Y-108794819D02*
X165409476Y-108794819D01*
X165409476Y-108794819D02*
X165838047Y-109794819D01*
X167441476Y-113096819D02*
X168012904Y-113096819D01*
X167727190Y-113096819D02*
X167727190Y-112096819D01*
X167727190Y-112096819D02*
X167822428Y-112239676D01*
X167822428Y-112239676D02*
X167917666Y-112334914D01*
X167917666Y-112334914D02*
X168012904Y-112382533D01*
X166822428Y-112096819D02*
X166727190Y-112096819D01*
X166727190Y-112096819D02*
X166631952Y-112144438D01*
X166631952Y-112144438D02*
X166584333Y-112192057D01*
X166584333Y-112192057D02*
X166536714Y-112287295D01*
X166536714Y-112287295D02*
X166489095Y-112477771D01*
X166489095Y-112477771D02*
X166489095Y-112715866D01*
X166489095Y-112715866D02*
X166536714Y-112906342D01*
X166536714Y-112906342D02*
X166584333Y-113001580D01*
X166584333Y-113001580D02*
X166631952Y-113049200D01*
X166631952Y-113049200D02*
X166727190Y-113096819D01*
X166727190Y-113096819D02*
X166822428Y-113096819D01*
X166822428Y-113096819D02*
X166917666Y-113049200D01*
X166917666Y-113049200D02*
X166965285Y-113001580D01*
X166965285Y-113001580D02*
X167012904Y-112906342D01*
X167012904Y-112906342D02*
X167060523Y-112715866D01*
X167060523Y-112715866D02*
X167060523Y-112477771D01*
X167060523Y-112477771D02*
X167012904Y-112287295D01*
X167012904Y-112287295D02*
X166965285Y-112192057D01*
X166965285Y-112192057D02*
X166917666Y-112144438D01*
X166917666Y-112144438D02*
X166822428Y-112096819D01*
X166060523Y-113096819D02*
X166060523Y-112096819D01*
X165489095Y-113096819D02*
X165917666Y-112525390D01*
X165489095Y-112096819D02*
X166060523Y-112668247D01*
X172505666Y-69662819D02*
X172838999Y-69186628D01*
X173077094Y-69662819D02*
X173077094Y-68662819D01*
X173077094Y-68662819D02*
X172696142Y-68662819D01*
X172696142Y-68662819D02*
X172600904Y-68710438D01*
X172600904Y-68710438D02*
X172553285Y-68758057D01*
X172553285Y-68758057D02*
X172505666Y-68853295D01*
X172505666Y-68853295D02*
X172505666Y-68996152D01*
X172505666Y-68996152D02*
X172553285Y-69091390D01*
X172553285Y-69091390D02*
X172600904Y-69139009D01*
X172600904Y-69139009D02*
X172696142Y-69186628D01*
X172696142Y-69186628D02*
X173077094Y-69186628D01*
X171648523Y-68662819D02*
X171838999Y-68662819D01*
X171838999Y-68662819D02*
X171934237Y-68710438D01*
X171934237Y-68710438D02*
X171981856Y-68758057D01*
X171981856Y-68758057D02*
X172077094Y-68900914D01*
X172077094Y-68900914D02*
X172124713Y-69091390D01*
X172124713Y-69091390D02*
X172124713Y-69472342D01*
X172124713Y-69472342D02*
X172077094Y-69567580D01*
X172077094Y-69567580D02*
X172029475Y-69615200D01*
X172029475Y-69615200D02*
X171934237Y-69662819D01*
X171934237Y-69662819D02*
X171743761Y-69662819D01*
X171743761Y-69662819D02*
X171648523Y-69615200D01*
X171648523Y-69615200D02*
X171600904Y-69567580D01*
X171600904Y-69567580D02*
X171553285Y-69472342D01*
X171553285Y-69472342D02*
X171553285Y-69234247D01*
X171553285Y-69234247D02*
X171600904Y-69139009D01*
X171600904Y-69139009D02*
X171648523Y-69091390D01*
X171648523Y-69091390D02*
X171743761Y-69043771D01*
X171743761Y-69043771D02*
X171934237Y-69043771D01*
X171934237Y-69043771D02*
X172029475Y-69091390D01*
X172029475Y-69091390D02*
X172077094Y-69139009D01*
X172077094Y-69139009D02*
X172124713Y-69234247D01*
X169703666Y-71186819D02*
X170275094Y-71186819D01*
X169989380Y-71186819D02*
X169989380Y-70186819D01*
X169989380Y-70186819D02*
X170084618Y-70329676D01*
X170084618Y-70329676D02*
X170179856Y-70424914D01*
X170179856Y-70424914D02*
X170275094Y-70472533D01*
X168798904Y-70186819D02*
X169275094Y-70186819D01*
X169275094Y-70186819D02*
X169322713Y-70663009D01*
X169322713Y-70663009D02*
X169275094Y-70615390D01*
X169275094Y-70615390D02*
X169179856Y-70567771D01*
X169179856Y-70567771D02*
X168941761Y-70567771D01*
X168941761Y-70567771D02*
X168846523Y-70615390D01*
X168846523Y-70615390D02*
X168798904Y-70663009D01*
X168798904Y-70663009D02*
X168751285Y-70758247D01*
X168751285Y-70758247D02*
X168751285Y-70996342D01*
X168751285Y-70996342D02*
X168798904Y-71091580D01*
X168798904Y-71091580D02*
X168846523Y-71139200D01*
X168846523Y-71139200D02*
X168941761Y-71186819D01*
X168941761Y-71186819D02*
X169179856Y-71186819D01*
X169179856Y-71186819D02*
X169275094Y-71139200D01*
X169275094Y-71139200D02*
X169322713Y-71091580D01*
X168132237Y-70186819D02*
X168036999Y-70186819D01*
X168036999Y-70186819D02*
X167941761Y-70234438D01*
X167941761Y-70234438D02*
X167894142Y-70282057D01*
X167894142Y-70282057D02*
X167846523Y-70377295D01*
X167846523Y-70377295D02*
X167798904Y-70567771D01*
X167798904Y-70567771D02*
X167798904Y-70805866D01*
X167798904Y-70805866D02*
X167846523Y-70996342D01*
X167846523Y-70996342D02*
X167894142Y-71091580D01*
X167894142Y-71091580D02*
X167941761Y-71139200D01*
X167941761Y-71139200D02*
X168036999Y-71186819D01*
X168036999Y-71186819D02*
X168132237Y-71186819D01*
X168132237Y-71186819D02*
X168227475Y-71139200D01*
X168227475Y-71139200D02*
X168275094Y-71091580D01*
X168275094Y-71091580D02*
X168322713Y-70996342D01*
X168322713Y-70996342D02*
X168370332Y-70805866D01*
X168370332Y-70805866D02*
X168370332Y-70567771D01*
X168370332Y-70567771D02*
X168322713Y-70377295D01*
X168322713Y-70377295D02*
X168275094Y-70282057D01*
X168275094Y-70282057D02*
X168227475Y-70234438D01*
X168227475Y-70234438D02*
X168132237Y-70186819D01*
X163869666Y-99762819D02*
X164345856Y-99762819D01*
X164345856Y-99762819D02*
X164345856Y-98762819D01*
X163583951Y-98858057D02*
X163536332Y-98810438D01*
X163536332Y-98810438D02*
X163441094Y-98762819D01*
X163441094Y-98762819D02*
X163202999Y-98762819D01*
X163202999Y-98762819D02*
X163107761Y-98810438D01*
X163107761Y-98810438D02*
X163060142Y-98858057D01*
X163060142Y-98858057D02*
X163012523Y-98953295D01*
X163012523Y-98953295D02*
X163012523Y-99048533D01*
X163012523Y-99048533D02*
X163060142Y-99191390D01*
X163060142Y-99191390D02*
X163631570Y-99762819D01*
X163631570Y-99762819D02*
X163012523Y-99762819D01*
X165679189Y-102158057D02*
X165631570Y-102110438D01*
X165631570Y-102110438D02*
X165536332Y-102062819D01*
X165536332Y-102062819D02*
X165298237Y-102062819D01*
X165298237Y-102062819D02*
X165202999Y-102110438D01*
X165202999Y-102110438D02*
X165155380Y-102158057D01*
X165155380Y-102158057D02*
X165107761Y-102253295D01*
X165107761Y-102253295D02*
X165107761Y-102348533D01*
X165107761Y-102348533D02*
X165155380Y-102491390D01*
X165155380Y-102491390D02*
X165726808Y-103062819D01*
X165726808Y-103062819D02*
X165107761Y-103062819D01*
X164679189Y-102967580D02*
X164631570Y-103015200D01*
X164631570Y-103015200D02*
X164679189Y-103062819D01*
X164679189Y-103062819D02*
X164726808Y-103015200D01*
X164726808Y-103015200D02*
X164679189Y-102967580D01*
X164679189Y-102967580D02*
X164679189Y-103062819D01*
X164250618Y-102158057D02*
X164202999Y-102110438D01*
X164202999Y-102110438D02*
X164107761Y-102062819D01*
X164107761Y-102062819D02*
X163869666Y-102062819D01*
X163869666Y-102062819D02*
X163774428Y-102110438D01*
X163774428Y-102110438D02*
X163726809Y-102158057D01*
X163726809Y-102158057D02*
X163679190Y-102253295D01*
X163679190Y-102253295D02*
X163679190Y-102348533D01*
X163679190Y-102348533D02*
X163726809Y-102491390D01*
X163726809Y-102491390D02*
X164298237Y-103062819D01*
X164298237Y-103062819D02*
X163679190Y-103062819D01*
X162822047Y-102396152D02*
X162822047Y-103062819D01*
X163250618Y-102396152D02*
X163250618Y-102919961D01*
X163250618Y-102919961D02*
X163202999Y-103015200D01*
X163202999Y-103015200D02*
X163107761Y-103062819D01*
X163107761Y-103062819D02*
X162964904Y-103062819D01*
X162964904Y-103062819D02*
X162869666Y-103015200D01*
X162869666Y-103015200D02*
X162822047Y-102967580D01*
X162345856Y-103062819D02*
X162345856Y-102062819D01*
X162345856Y-102539009D02*
X161774428Y-102539009D01*
X161774428Y-103062819D02*
X161774428Y-102062819D01*
X168949666Y-50263580D02*
X168997285Y-50311200D01*
X168997285Y-50311200D02*
X169140142Y-50358819D01*
X169140142Y-50358819D02*
X169235380Y-50358819D01*
X169235380Y-50358819D02*
X169378237Y-50311200D01*
X169378237Y-50311200D02*
X169473475Y-50215961D01*
X169473475Y-50215961D02*
X169521094Y-50120723D01*
X169521094Y-50120723D02*
X169568713Y-49930247D01*
X169568713Y-49930247D02*
X169568713Y-49787390D01*
X169568713Y-49787390D02*
X169521094Y-49596914D01*
X169521094Y-49596914D02*
X169473475Y-49501676D01*
X169473475Y-49501676D02*
X169378237Y-49406438D01*
X169378237Y-49406438D02*
X169235380Y-49358819D01*
X169235380Y-49358819D02*
X169140142Y-49358819D01*
X169140142Y-49358819D02*
X168997285Y-49406438D01*
X168997285Y-49406438D02*
X168949666Y-49454057D01*
X168092523Y-49692152D02*
X168092523Y-50358819D01*
X168330618Y-49311200D02*
X168568713Y-50025485D01*
X168568713Y-50025485D02*
X167949666Y-50025485D01*
X165869761Y-51470152D02*
X165869761Y-52136819D01*
X166107856Y-51089200D02*
X166345951Y-51803485D01*
X166345951Y-51803485D02*
X165726904Y-51803485D01*
X165345951Y-52041580D02*
X165298332Y-52089200D01*
X165298332Y-52089200D02*
X165345951Y-52136819D01*
X165345951Y-52136819D02*
X165393570Y-52089200D01*
X165393570Y-52089200D02*
X165345951Y-52041580D01*
X165345951Y-52041580D02*
X165345951Y-52136819D01*
X164964999Y-51136819D02*
X164298333Y-51136819D01*
X164298333Y-51136819D02*
X164726904Y-52136819D01*
X163488809Y-51470152D02*
X163488809Y-52136819D01*
X163917380Y-51470152D02*
X163917380Y-51993961D01*
X163917380Y-51993961D02*
X163869761Y-52089200D01*
X163869761Y-52089200D02*
X163774523Y-52136819D01*
X163774523Y-52136819D02*
X163631666Y-52136819D01*
X163631666Y-52136819D02*
X163536428Y-52089200D01*
X163536428Y-52089200D02*
X163488809Y-52041580D01*
X162679285Y-51613009D02*
X163012618Y-51613009D01*
X163012618Y-52136819D02*
X163012618Y-51136819D01*
X163012618Y-51136819D02*
X162536428Y-51136819D01*
X165647666Y-69662819D02*
X165980999Y-69186628D01*
X166219094Y-69662819D02*
X166219094Y-68662819D01*
X166219094Y-68662819D02*
X165838142Y-68662819D01*
X165838142Y-68662819D02*
X165742904Y-68710438D01*
X165742904Y-68710438D02*
X165695285Y-68758057D01*
X165695285Y-68758057D02*
X165647666Y-68853295D01*
X165647666Y-68853295D02*
X165647666Y-68996152D01*
X165647666Y-68996152D02*
X165695285Y-69091390D01*
X165695285Y-69091390D02*
X165742904Y-69139009D01*
X165742904Y-69139009D02*
X165838142Y-69186628D01*
X165838142Y-69186628D02*
X166219094Y-69186628D01*
X164742904Y-68662819D02*
X165219094Y-68662819D01*
X165219094Y-68662819D02*
X165266713Y-69139009D01*
X165266713Y-69139009D02*
X165219094Y-69091390D01*
X165219094Y-69091390D02*
X165123856Y-69043771D01*
X165123856Y-69043771D02*
X164885761Y-69043771D01*
X164885761Y-69043771D02*
X164790523Y-69091390D01*
X164790523Y-69091390D02*
X164742904Y-69139009D01*
X164742904Y-69139009D02*
X164695285Y-69234247D01*
X164695285Y-69234247D02*
X164695285Y-69472342D01*
X164695285Y-69472342D02*
X164742904Y-69567580D01*
X164742904Y-69567580D02*
X164790523Y-69615200D01*
X164790523Y-69615200D02*
X164885761Y-69662819D01*
X164885761Y-69662819D02*
X165123856Y-69662819D01*
X165123856Y-69662819D02*
X165219094Y-69615200D01*
X165219094Y-69615200D02*
X165266713Y-69567580D01*
X162885476Y-71186819D02*
X163456904Y-71186819D01*
X163171190Y-71186819D02*
X163171190Y-70186819D01*
X163171190Y-70186819D02*
X163266428Y-70329676D01*
X163266428Y-70329676D02*
X163361666Y-70424914D01*
X163361666Y-70424914D02*
X163456904Y-70472533D01*
X162266428Y-70186819D02*
X162171190Y-70186819D01*
X162171190Y-70186819D02*
X162075952Y-70234438D01*
X162075952Y-70234438D02*
X162028333Y-70282057D01*
X162028333Y-70282057D02*
X161980714Y-70377295D01*
X161980714Y-70377295D02*
X161933095Y-70567771D01*
X161933095Y-70567771D02*
X161933095Y-70805866D01*
X161933095Y-70805866D02*
X161980714Y-70996342D01*
X161980714Y-70996342D02*
X162028333Y-71091580D01*
X162028333Y-71091580D02*
X162075952Y-71139200D01*
X162075952Y-71139200D02*
X162171190Y-71186819D01*
X162171190Y-71186819D02*
X162266428Y-71186819D01*
X162266428Y-71186819D02*
X162361666Y-71139200D01*
X162361666Y-71139200D02*
X162409285Y-71091580D01*
X162409285Y-71091580D02*
X162456904Y-70996342D01*
X162456904Y-70996342D02*
X162504523Y-70805866D01*
X162504523Y-70805866D02*
X162504523Y-70567771D01*
X162504523Y-70567771D02*
X162456904Y-70377295D01*
X162456904Y-70377295D02*
X162409285Y-70282057D01*
X162409285Y-70282057D02*
X162361666Y-70234438D01*
X162361666Y-70234438D02*
X162266428Y-70186819D01*
X161504523Y-71186819D02*
X161504523Y-70186819D01*
X160933095Y-71186819D02*
X161361666Y-70615390D01*
X160933095Y-70186819D02*
X161504523Y-70758247D01*
X156249666Y-44516819D02*
X156582999Y-44040628D01*
X156821094Y-44516819D02*
X156821094Y-43516819D01*
X156821094Y-43516819D02*
X156440142Y-43516819D01*
X156440142Y-43516819D02*
X156344904Y-43564438D01*
X156344904Y-43564438D02*
X156297285Y-43612057D01*
X156297285Y-43612057D02*
X156249666Y-43707295D01*
X156249666Y-43707295D02*
X156249666Y-43850152D01*
X156249666Y-43850152D02*
X156297285Y-43945390D01*
X156297285Y-43945390D02*
X156344904Y-43993009D01*
X156344904Y-43993009D02*
X156440142Y-44040628D01*
X156440142Y-44040628D02*
X156821094Y-44040628D01*
X155773475Y-44516819D02*
X155582999Y-44516819D01*
X155582999Y-44516819D02*
X155487761Y-44469200D01*
X155487761Y-44469200D02*
X155440142Y-44421580D01*
X155440142Y-44421580D02*
X155344904Y-44278723D01*
X155344904Y-44278723D02*
X155297285Y-44088247D01*
X155297285Y-44088247D02*
X155297285Y-43707295D01*
X155297285Y-43707295D02*
X155344904Y-43612057D01*
X155344904Y-43612057D02*
X155392523Y-43564438D01*
X155392523Y-43564438D02*
X155487761Y-43516819D01*
X155487761Y-43516819D02*
X155678237Y-43516819D01*
X155678237Y-43516819D02*
X155773475Y-43564438D01*
X155773475Y-43564438D02*
X155821094Y-43612057D01*
X155821094Y-43612057D02*
X155868713Y-43707295D01*
X155868713Y-43707295D02*
X155868713Y-43945390D01*
X155868713Y-43945390D02*
X155821094Y-44040628D01*
X155821094Y-44040628D02*
X155773475Y-44088247D01*
X155773475Y-44088247D02*
X155678237Y-44135866D01*
X155678237Y-44135866D02*
X155487761Y-44135866D01*
X155487761Y-44135866D02*
X155392523Y-44088247D01*
X155392523Y-44088247D02*
X155344904Y-44040628D01*
X155344904Y-44040628D02*
X155297285Y-43945390D01*
X158187819Y-45435333D02*
X158187819Y-44863905D01*
X158187819Y-45149619D02*
X157187819Y-45149619D01*
X157187819Y-45149619D02*
X157330676Y-45054381D01*
X157330676Y-45054381D02*
X157425914Y-44959143D01*
X157425914Y-44959143D02*
X157473533Y-44863905D01*
X157187819Y-46054381D02*
X157187819Y-46149619D01*
X157187819Y-46149619D02*
X157235438Y-46244857D01*
X157235438Y-46244857D02*
X157283057Y-46292476D01*
X157283057Y-46292476D02*
X157378295Y-46340095D01*
X157378295Y-46340095D02*
X157568771Y-46387714D01*
X157568771Y-46387714D02*
X157806866Y-46387714D01*
X157806866Y-46387714D02*
X157997342Y-46340095D01*
X157997342Y-46340095D02*
X158092580Y-46292476D01*
X158092580Y-46292476D02*
X158140200Y-46244857D01*
X158140200Y-46244857D02*
X158187819Y-46149619D01*
X158187819Y-46149619D02*
X158187819Y-46054381D01*
X158187819Y-46054381D02*
X158140200Y-45959143D01*
X158140200Y-45959143D02*
X158092580Y-45911524D01*
X158092580Y-45911524D02*
X157997342Y-45863905D01*
X157997342Y-45863905D02*
X157806866Y-45816286D01*
X157806866Y-45816286D02*
X157568771Y-45816286D01*
X157568771Y-45816286D02*
X157378295Y-45863905D01*
X157378295Y-45863905D02*
X157283057Y-45911524D01*
X157283057Y-45911524D02*
X157235438Y-45959143D01*
X157235438Y-45959143D02*
X157187819Y-46054381D01*
X157187819Y-47006762D02*
X157187819Y-47102000D01*
X157187819Y-47102000D02*
X157235438Y-47197238D01*
X157235438Y-47197238D02*
X157283057Y-47244857D01*
X157283057Y-47244857D02*
X157378295Y-47292476D01*
X157378295Y-47292476D02*
X157568771Y-47340095D01*
X157568771Y-47340095D02*
X157806866Y-47340095D01*
X157806866Y-47340095D02*
X157997342Y-47292476D01*
X157997342Y-47292476D02*
X158092580Y-47244857D01*
X158092580Y-47244857D02*
X158140200Y-47197238D01*
X158140200Y-47197238D02*
X158187819Y-47102000D01*
X158187819Y-47102000D02*
X158187819Y-47006762D01*
X158187819Y-47006762D02*
X158140200Y-46911524D01*
X158140200Y-46911524D02*
X158092580Y-46863905D01*
X158092580Y-46863905D02*
X157997342Y-46816286D01*
X157997342Y-46816286D02*
X157806866Y-46768667D01*
X157806866Y-46768667D02*
X157568771Y-46768667D01*
X157568771Y-46768667D02*
X157378295Y-46816286D01*
X157378295Y-46816286D02*
X157283057Y-46863905D01*
X157283057Y-46863905D02*
X157235438Y-46911524D01*
X157235438Y-46911524D02*
X157187819Y-47006762D01*
X158187819Y-47768667D02*
X157187819Y-47768667D01*
X158187819Y-48340095D02*
X157616390Y-47911524D01*
X157187819Y-48340095D02*
X157759247Y-47768667D01*
X172981857Y-115382819D02*
X173315190Y-114906628D01*
X173553285Y-115382819D02*
X173553285Y-114382819D01*
X173553285Y-114382819D02*
X173172333Y-114382819D01*
X173172333Y-114382819D02*
X173077095Y-114430438D01*
X173077095Y-114430438D02*
X173029476Y-114478057D01*
X173029476Y-114478057D02*
X172981857Y-114573295D01*
X172981857Y-114573295D02*
X172981857Y-114716152D01*
X172981857Y-114716152D02*
X173029476Y-114811390D01*
X173029476Y-114811390D02*
X173077095Y-114859009D01*
X173077095Y-114859009D02*
X173172333Y-114906628D01*
X173172333Y-114906628D02*
X173553285Y-114906628D01*
X172029476Y-115382819D02*
X172600904Y-115382819D01*
X172315190Y-115382819D02*
X172315190Y-114382819D01*
X172315190Y-114382819D02*
X172410428Y-114525676D01*
X172410428Y-114525676D02*
X172505666Y-114620914D01*
X172505666Y-114620914D02*
X172600904Y-114668533D01*
X171172333Y-114382819D02*
X171362809Y-114382819D01*
X171362809Y-114382819D02*
X171458047Y-114430438D01*
X171458047Y-114430438D02*
X171505666Y-114478057D01*
X171505666Y-114478057D02*
X171600904Y-114620914D01*
X171600904Y-114620914D02*
X171648523Y-114811390D01*
X171648523Y-114811390D02*
X171648523Y-115192342D01*
X171648523Y-115192342D02*
X171600904Y-115287580D01*
X171600904Y-115287580D02*
X171553285Y-115335200D01*
X171553285Y-115335200D02*
X171458047Y-115382819D01*
X171458047Y-115382819D02*
X171267571Y-115382819D01*
X171267571Y-115382819D02*
X171172333Y-115335200D01*
X171172333Y-115335200D02*
X171124714Y-115287580D01*
X171124714Y-115287580D02*
X171077095Y-115192342D01*
X171077095Y-115192342D02*
X171077095Y-114954247D01*
X171077095Y-114954247D02*
X171124714Y-114859009D01*
X171124714Y-114859009D02*
X171172333Y-114811390D01*
X171172333Y-114811390D02*
X171267571Y-114763771D01*
X171267571Y-114763771D02*
X171458047Y-114763771D01*
X171458047Y-114763771D02*
X171553285Y-114811390D01*
X171553285Y-114811390D02*
X171600904Y-114859009D01*
X171600904Y-114859009D02*
X171648523Y-114954247D01*
X169703666Y-116906819D02*
X170275094Y-116906819D01*
X169989380Y-116906819D02*
X169989380Y-115906819D01*
X169989380Y-115906819D02*
X170084618Y-116049676D01*
X170084618Y-116049676D02*
X170179856Y-116144914D01*
X170179856Y-116144914D02*
X170275094Y-116192533D01*
X168798904Y-115906819D02*
X169275094Y-115906819D01*
X169275094Y-115906819D02*
X169322713Y-116383009D01*
X169322713Y-116383009D02*
X169275094Y-116335390D01*
X169275094Y-116335390D02*
X169179856Y-116287771D01*
X169179856Y-116287771D02*
X168941761Y-116287771D01*
X168941761Y-116287771D02*
X168846523Y-116335390D01*
X168846523Y-116335390D02*
X168798904Y-116383009D01*
X168798904Y-116383009D02*
X168751285Y-116478247D01*
X168751285Y-116478247D02*
X168751285Y-116716342D01*
X168751285Y-116716342D02*
X168798904Y-116811580D01*
X168798904Y-116811580D02*
X168846523Y-116859200D01*
X168846523Y-116859200D02*
X168941761Y-116906819D01*
X168941761Y-116906819D02*
X169179856Y-116906819D01*
X169179856Y-116906819D02*
X169275094Y-116859200D01*
X169275094Y-116859200D02*
X169322713Y-116811580D01*
X168132237Y-115906819D02*
X168036999Y-115906819D01*
X168036999Y-115906819D02*
X167941761Y-115954438D01*
X167941761Y-115954438D02*
X167894142Y-116002057D01*
X167894142Y-116002057D02*
X167846523Y-116097295D01*
X167846523Y-116097295D02*
X167798904Y-116287771D01*
X167798904Y-116287771D02*
X167798904Y-116525866D01*
X167798904Y-116525866D02*
X167846523Y-116716342D01*
X167846523Y-116716342D02*
X167894142Y-116811580D01*
X167894142Y-116811580D02*
X167941761Y-116859200D01*
X167941761Y-116859200D02*
X168036999Y-116906819D01*
X168036999Y-116906819D02*
X168132237Y-116906819D01*
X168132237Y-116906819D02*
X168227475Y-116859200D01*
X168227475Y-116859200D02*
X168275094Y-116811580D01*
X168275094Y-116811580D02*
X168322713Y-116716342D01*
X168322713Y-116716342D02*
X168370332Y-116525866D01*
X168370332Y-116525866D02*
X168370332Y-116287771D01*
X168370332Y-116287771D02*
X168322713Y-116097295D01*
X168322713Y-116097295D02*
X168275094Y-116002057D01*
X168275094Y-116002057D02*
X168227475Y-115954438D01*
X168227475Y-115954438D02*
X168132237Y-115906819D01*
X140501666Y-111223580D02*
X140549285Y-111271200D01*
X140549285Y-111271200D02*
X140692142Y-111318819D01*
X140692142Y-111318819D02*
X140787380Y-111318819D01*
X140787380Y-111318819D02*
X140930237Y-111271200D01*
X140930237Y-111271200D02*
X141025475Y-111175961D01*
X141025475Y-111175961D02*
X141073094Y-111080723D01*
X141073094Y-111080723D02*
X141120713Y-110890247D01*
X141120713Y-110890247D02*
X141120713Y-110747390D01*
X141120713Y-110747390D02*
X141073094Y-110556914D01*
X141073094Y-110556914D02*
X141025475Y-110461676D01*
X141025475Y-110461676D02*
X140930237Y-110366438D01*
X140930237Y-110366438D02*
X140787380Y-110318819D01*
X140787380Y-110318819D02*
X140692142Y-110318819D01*
X140692142Y-110318819D02*
X140549285Y-110366438D01*
X140549285Y-110366438D02*
X140501666Y-110414057D01*
X139644523Y-110318819D02*
X139834999Y-110318819D01*
X139834999Y-110318819D02*
X139930237Y-110366438D01*
X139930237Y-110366438D02*
X139977856Y-110414057D01*
X139977856Y-110414057D02*
X140073094Y-110556914D01*
X140073094Y-110556914D02*
X140120713Y-110747390D01*
X140120713Y-110747390D02*
X140120713Y-111128342D01*
X140120713Y-111128342D02*
X140073094Y-111223580D01*
X140073094Y-111223580D02*
X140025475Y-111271200D01*
X140025475Y-111271200D02*
X139930237Y-111318819D01*
X139930237Y-111318819D02*
X139739761Y-111318819D01*
X139739761Y-111318819D02*
X139644523Y-111271200D01*
X139644523Y-111271200D02*
X139596904Y-111223580D01*
X139596904Y-111223580D02*
X139549285Y-111128342D01*
X139549285Y-111128342D02*
X139549285Y-110890247D01*
X139549285Y-110890247D02*
X139596904Y-110795009D01*
X139596904Y-110795009D02*
X139644523Y-110747390D01*
X139644523Y-110747390D02*
X139739761Y-110699771D01*
X139739761Y-110699771D02*
X139930237Y-110699771D01*
X139930237Y-110699771D02*
X140025475Y-110747390D01*
X140025475Y-110747390D02*
X140073094Y-110795009D01*
X140073094Y-110795009D02*
X140120713Y-110890247D01*
X143295666Y-109794819D02*
X143867094Y-109794819D01*
X143581380Y-109794819D02*
X143581380Y-108794819D01*
X143581380Y-108794819D02*
X143676618Y-108937676D01*
X143676618Y-108937676D02*
X143771856Y-109032914D01*
X143771856Y-109032914D02*
X143867094Y-109080533D01*
X142438523Y-109128152D02*
X142438523Y-109794819D01*
X142867094Y-109128152D02*
X142867094Y-109651961D01*
X142867094Y-109651961D02*
X142819475Y-109747200D01*
X142819475Y-109747200D02*
X142724237Y-109794819D01*
X142724237Y-109794819D02*
X142581380Y-109794819D01*
X142581380Y-109794819D02*
X142486142Y-109747200D01*
X142486142Y-109747200D02*
X142438523Y-109699580D01*
X163075857Y-109794819D02*
X163409190Y-109318628D01*
X163647285Y-109794819D02*
X163647285Y-108794819D01*
X163647285Y-108794819D02*
X163266333Y-108794819D01*
X163266333Y-108794819D02*
X163171095Y-108842438D01*
X163171095Y-108842438D02*
X163123476Y-108890057D01*
X163123476Y-108890057D02*
X163075857Y-108985295D01*
X163075857Y-108985295D02*
X163075857Y-109128152D01*
X163075857Y-109128152D02*
X163123476Y-109223390D01*
X163123476Y-109223390D02*
X163171095Y-109271009D01*
X163171095Y-109271009D02*
X163266333Y-109318628D01*
X163266333Y-109318628D02*
X163647285Y-109318628D01*
X162123476Y-109794819D02*
X162694904Y-109794819D01*
X162409190Y-109794819D02*
X162409190Y-108794819D01*
X162409190Y-108794819D02*
X162504428Y-108937676D01*
X162504428Y-108937676D02*
X162599666Y-109032914D01*
X162599666Y-109032914D02*
X162694904Y-109080533D01*
X161552047Y-109223390D02*
X161647285Y-109175771D01*
X161647285Y-109175771D02*
X161694904Y-109128152D01*
X161694904Y-109128152D02*
X161742523Y-109032914D01*
X161742523Y-109032914D02*
X161742523Y-108985295D01*
X161742523Y-108985295D02*
X161694904Y-108890057D01*
X161694904Y-108890057D02*
X161647285Y-108842438D01*
X161647285Y-108842438D02*
X161552047Y-108794819D01*
X161552047Y-108794819D02*
X161361571Y-108794819D01*
X161361571Y-108794819D02*
X161266333Y-108842438D01*
X161266333Y-108842438D02*
X161218714Y-108890057D01*
X161218714Y-108890057D02*
X161171095Y-108985295D01*
X161171095Y-108985295D02*
X161171095Y-109032914D01*
X161171095Y-109032914D02*
X161218714Y-109128152D01*
X161218714Y-109128152D02*
X161266333Y-109175771D01*
X161266333Y-109175771D02*
X161361571Y-109223390D01*
X161361571Y-109223390D02*
X161552047Y-109223390D01*
X161552047Y-109223390D02*
X161647285Y-109271009D01*
X161647285Y-109271009D02*
X161694904Y-109318628D01*
X161694904Y-109318628D02*
X161742523Y-109413866D01*
X161742523Y-109413866D02*
X161742523Y-109604342D01*
X161742523Y-109604342D02*
X161694904Y-109699580D01*
X161694904Y-109699580D02*
X161647285Y-109747200D01*
X161647285Y-109747200D02*
X161552047Y-109794819D01*
X161552047Y-109794819D02*
X161361571Y-109794819D01*
X161361571Y-109794819D02*
X161266333Y-109747200D01*
X161266333Y-109747200D02*
X161218714Y-109699580D01*
X161218714Y-109699580D02*
X161171095Y-109604342D01*
X161171095Y-109604342D02*
X161171095Y-109413866D01*
X161171095Y-109413866D02*
X161218714Y-109318628D01*
X161218714Y-109318628D02*
X161266333Y-109271009D01*
X161266333Y-109271009D02*
X161361571Y-109223390D01*
X159821476Y-111318819D02*
X160392904Y-111318819D01*
X160107190Y-111318819D02*
X160107190Y-110318819D01*
X160107190Y-110318819D02*
X160202428Y-110461676D01*
X160202428Y-110461676D02*
X160297666Y-110556914D01*
X160297666Y-110556914D02*
X160392904Y-110604533D01*
X159202428Y-110318819D02*
X159107190Y-110318819D01*
X159107190Y-110318819D02*
X159011952Y-110366438D01*
X159011952Y-110366438D02*
X158964333Y-110414057D01*
X158964333Y-110414057D02*
X158916714Y-110509295D01*
X158916714Y-110509295D02*
X158869095Y-110699771D01*
X158869095Y-110699771D02*
X158869095Y-110937866D01*
X158869095Y-110937866D02*
X158916714Y-111128342D01*
X158916714Y-111128342D02*
X158964333Y-111223580D01*
X158964333Y-111223580D02*
X159011952Y-111271200D01*
X159011952Y-111271200D02*
X159107190Y-111318819D01*
X159107190Y-111318819D02*
X159202428Y-111318819D01*
X159202428Y-111318819D02*
X159297666Y-111271200D01*
X159297666Y-111271200D02*
X159345285Y-111223580D01*
X159345285Y-111223580D02*
X159392904Y-111128342D01*
X159392904Y-111128342D02*
X159440523Y-110937866D01*
X159440523Y-110937866D02*
X159440523Y-110699771D01*
X159440523Y-110699771D02*
X159392904Y-110509295D01*
X159392904Y-110509295D02*
X159345285Y-110414057D01*
X159345285Y-110414057D02*
X159297666Y-110366438D01*
X159297666Y-110366438D02*
X159202428Y-110318819D01*
X158440523Y-111318819D02*
X158440523Y-110318819D01*
X157869095Y-111318819D02*
X158297666Y-110747390D01*
X157869095Y-110318819D02*
X158440523Y-110890247D01*
X156725857Y-90236819D02*
X157059190Y-89760628D01*
X157297285Y-90236819D02*
X157297285Y-89236819D01*
X157297285Y-89236819D02*
X156916333Y-89236819D01*
X156916333Y-89236819D02*
X156821095Y-89284438D01*
X156821095Y-89284438D02*
X156773476Y-89332057D01*
X156773476Y-89332057D02*
X156725857Y-89427295D01*
X156725857Y-89427295D02*
X156725857Y-89570152D01*
X156725857Y-89570152D02*
X156773476Y-89665390D01*
X156773476Y-89665390D02*
X156821095Y-89713009D01*
X156821095Y-89713009D02*
X156916333Y-89760628D01*
X156916333Y-89760628D02*
X157297285Y-89760628D01*
X155773476Y-90236819D02*
X156344904Y-90236819D01*
X156059190Y-90236819D02*
X156059190Y-89236819D01*
X156059190Y-89236819D02*
X156154428Y-89379676D01*
X156154428Y-89379676D02*
X156249666Y-89474914D01*
X156249666Y-89474914D02*
X156344904Y-89522533D01*
X155297285Y-90236819D02*
X155106809Y-90236819D01*
X155106809Y-90236819D02*
X155011571Y-90189200D01*
X155011571Y-90189200D02*
X154963952Y-90141580D01*
X154963952Y-90141580D02*
X154868714Y-89998723D01*
X154868714Y-89998723D02*
X154821095Y-89808247D01*
X154821095Y-89808247D02*
X154821095Y-89427295D01*
X154821095Y-89427295D02*
X154868714Y-89332057D01*
X154868714Y-89332057D02*
X154916333Y-89284438D01*
X154916333Y-89284438D02*
X155011571Y-89236819D01*
X155011571Y-89236819D02*
X155202047Y-89236819D01*
X155202047Y-89236819D02*
X155297285Y-89284438D01*
X155297285Y-89284438D02*
X155344904Y-89332057D01*
X155344904Y-89332057D02*
X155392523Y-89427295D01*
X155392523Y-89427295D02*
X155392523Y-89665390D01*
X155392523Y-89665390D02*
X155344904Y-89760628D01*
X155344904Y-89760628D02*
X155297285Y-89808247D01*
X155297285Y-89808247D02*
X155202047Y-89855866D01*
X155202047Y-89855866D02*
X155011571Y-89855866D01*
X155011571Y-89855866D02*
X154916333Y-89808247D01*
X154916333Y-89808247D02*
X154868714Y-89760628D01*
X154868714Y-89760628D02*
X154821095Y-89665390D01*
X158187819Y-91155333D02*
X158187819Y-90583905D01*
X158187819Y-90869619D02*
X157187819Y-90869619D01*
X157187819Y-90869619D02*
X157330676Y-90774381D01*
X157330676Y-90774381D02*
X157425914Y-90679143D01*
X157425914Y-90679143D02*
X157473533Y-90583905D01*
X157187819Y-91774381D02*
X157187819Y-91869619D01*
X157187819Y-91869619D02*
X157235438Y-91964857D01*
X157235438Y-91964857D02*
X157283057Y-92012476D01*
X157283057Y-92012476D02*
X157378295Y-92060095D01*
X157378295Y-92060095D02*
X157568771Y-92107714D01*
X157568771Y-92107714D02*
X157806866Y-92107714D01*
X157806866Y-92107714D02*
X157997342Y-92060095D01*
X157997342Y-92060095D02*
X158092580Y-92012476D01*
X158092580Y-92012476D02*
X158140200Y-91964857D01*
X158140200Y-91964857D02*
X158187819Y-91869619D01*
X158187819Y-91869619D02*
X158187819Y-91774381D01*
X158187819Y-91774381D02*
X158140200Y-91679143D01*
X158140200Y-91679143D02*
X158092580Y-91631524D01*
X158092580Y-91631524D02*
X157997342Y-91583905D01*
X157997342Y-91583905D02*
X157806866Y-91536286D01*
X157806866Y-91536286D02*
X157568771Y-91536286D01*
X157568771Y-91536286D02*
X157378295Y-91583905D01*
X157378295Y-91583905D02*
X157283057Y-91631524D01*
X157283057Y-91631524D02*
X157235438Y-91679143D01*
X157235438Y-91679143D02*
X157187819Y-91774381D01*
X157187819Y-92726762D02*
X157187819Y-92822000D01*
X157187819Y-92822000D02*
X157235438Y-92917238D01*
X157235438Y-92917238D02*
X157283057Y-92964857D01*
X157283057Y-92964857D02*
X157378295Y-93012476D01*
X157378295Y-93012476D02*
X157568771Y-93060095D01*
X157568771Y-93060095D02*
X157806866Y-93060095D01*
X157806866Y-93060095D02*
X157997342Y-93012476D01*
X157997342Y-93012476D02*
X158092580Y-92964857D01*
X158092580Y-92964857D02*
X158140200Y-92917238D01*
X158140200Y-92917238D02*
X158187819Y-92822000D01*
X158187819Y-92822000D02*
X158187819Y-92726762D01*
X158187819Y-92726762D02*
X158140200Y-92631524D01*
X158140200Y-92631524D02*
X158092580Y-92583905D01*
X158092580Y-92583905D02*
X157997342Y-92536286D01*
X157997342Y-92536286D02*
X157806866Y-92488667D01*
X157806866Y-92488667D02*
X157568771Y-92488667D01*
X157568771Y-92488667D02*
X157378295Y-92536286D01*
X157378295Y-92536286D02*
X157283057Y-92583905D01*
X157283057Y-92583905D02*
X157235438Y-92631524D01*
X157235438Y-92631524D02*
X157187819Y-92726762D01*
X158187819Y-93488667D02*
X157187819Y-93488667D01*
X158187819Y-94060095D02*
X157616390Y-93631524D01*
X157187819Y-94060095D02*
X157759247Y-93488667D01*
X163798238Y-90747257D02*
X163893476Y-90699638D01*
X163893476Y-90699638D02*
X163988714Y-90604400D01*
X163988714Y-90604400D02*
X164131571Y-90461542D01*
X164131571Y-90461542D02*
X164226809Y-90413923D01*
X164226809Y-90413923D02*
X164322047Y-90413923D01*
X164274428Y-90652019D02*
X164369666Y-90604400D01*
X164369666Y-90604400D02*
X164464904Y-90509161D01*
X164464904Y-90509161D02*
X164512523Y-90318685D01*
X164512523Y-90318685D02*
X164512523Y-89985352D01*
X164512523Y-89985352D02*
X164464904Y-89794876D01*
X164464904Y-89794876D02*
X164369666Y-89699638D01*
X164369666Y-89699638D02*
X164274428Y-89652019D01*
X164274428Y-89652019D02*
X164083952Y-89652019D01*
X164083952Y-89652019D02*
X163988714Y-89699638D01*
X163988714Y-89699638D02*
X163893476Y-89794876D01*
X163893476Y-89794876D02*
X163845857Y-89985352D01*
X163845857Y-89985352D02*
X163845857Y-90318685D01*
X163845857Y-90318685D02*
X163893476Y-90509161D01*
X163893476Y-90509161D02*
X163988714Y-90604400D01*
X163988714Y-90604400D02*
X164083952Y-90652019D01*
X164083952Y-90652019D02*
X164274428Y-90652019D01*
X163464904Y-89747257D02*
X163417285Y-89699638D01*
X163417285Y-89699638D02*
X163322047Y-89652019D01*
X163322047Y-89652019D02*
X163083952Y-89652019D01*
X163083952Y-89652019D02*
X162988714Y-89699638D01*
X162988714Y-89699638D02*
X162941095Y-89747257D01*
X162941095Y-89747257D02*
X162893476Y-89842495D01*
X162893476Y-89842495D02*
X162893476Y-89937733D01*
X162893476Y-89937733D02*
X162941095Y-90080590D01*
X162941095Y-90080590D02*
X163512523Y-90652019D01*
X163512523Y-90652019D02*
X162893476Y-90652019D01*
X166798237Y-95793104D02*
X166322047Y-95793104D01*
X166893475Y-96078819D02*
X166560142Y-95078819D01*
X166560142Y-95078819D02*
X166226809Y-96078819D01*
X165702999Y-95078819D02*
X165512523Y-95078819D01*
X165512523Y-95078819D02*
X165417285Y-95126438D01*
X165417285Y-95126438D02*
X165322047Y-95221676D01*
X165322047Y-95221676D02*
X165274428Y-95412152D01*
X165274428Y-95412152D02*
X165274428Y-95745485D01*
X165274428Y-95745485D02*
X165322047Y-95935961D01*
X165322047Y-95935961D02*
X165417285Y-96031200D01*
X165417285Y-96031200D02*
X165512523Y-96078819D01*
X165512523Y-96078819D02*
X165702999Y-96078819D01*
X165702999Y-96078819D02*
X165798237Y-96031200D01*
X165798237Y-96031200D02*
X165893475Y-95935961D01*
X165893475Y-95935961D02*
X165941094Y-95745485D01*
X165941094Y-95745485D02*
X165941094Y-95412152D01*
X165941094Y-95412152D02*
X165893475Y-95221676D01*
X165893475Y-95221676D02*
X165798237Y-95126438D01*
X165798237Y-95126438D02*
X165702999Y-95078819D01*
X164941094Y-95078819D02*
X164322047Y-95078819D01*
X164322047Y-95078819D02*
X164655380Y-95459771D01*
X164655380Y-95459771D02*
X164512523Y-95459771D01*
X164512523Y-95459771D02*
X164417285Y-95507390D01*
X164417285Y-95507390D02*
X164369666Y-95555009D01*
X164369666Y-95555009D02*
X164322047Y-95650247D01*
X164322047Y-95650247D02*
X164322047Y-95888342D01*
X164322047Y-95888342D02*
X164369666Y-95983580D01*
X164369666Y-95983580D02*
X164417285Y-96031200D01*
X164417285Y-96031200D02*
X164512523Y-96078819D01*
X164512523Y-96078819D02*
X164798237Y-96078819D01*
X164798237Y-96078819D02*
X164893475Y-96031200D01*
X164893475Y-96031200D02*
X164941094Y-95983580D01*
X163464904Y-95412152D02*
X163464904Y-96078819D01*
X163702999Y-95031200D02*
X163941094Y-95745485D01*
X163941094Y-95745485D02*
X163322047Y-95745485D01*
X162750618Y-95078819D02*
X162655380Y-95078819D01*
X162655380Y-95078819D02*
X162560142Y-95126438D01*
X162560142Y-95126438D02*
X162512523Y-95174057D01*
X162512523Y-95174057D02*
X162464904Y-95269295D01*
X162464904Y-95269295D02*
X162417285Y-95459771D01*
X162417285Y-95459771D02*
X162417285Y-95697866D01*
X162417285Y-95697866D02*
X162464904Y-95888342D01*
X162464904Y-95888342D02*
X162512523Y-95983580D01*
X162512523Y-95983580D02*
X162560142Y-96031200D01*
X162560142Y-96031200D02*
X162655380Y-96078819D01*
X162655380Y-96078819D02*
X162750618Y-96078819D01*
X162750618Y-96078819D02*
X162845856Y-96031200D01*
X162845856Y-96031200D02*
X162893475Y-95983580D01*
X162893475Y-95983580D02*
X162941094Y-95888342D01*
X162941094Y-95888342D02*
X162988713Y-95697866D01*
X162988713Y-95697866D02*
X162988713Y-95459771D01*
X162988713Y-95459771D02*
X162941094Y-95269295D01*
X162941094Y-95269295D02*
X162893475Y-95174057D01*
X162893475Y-95174057D02*
X162845856Y-95126438D01*
X162845856Y-95126438D02*
X162750618Y-95078819D01*
X161464904Y-96078819D02*
X162036332Y-96078819D01*
X161750618Y-96078819D02*
X161750618Y-95078819D01*
X161750618Y-95078819D02*
X161845856Y-95221676D01*
X161845856Y-95221676D02*
X161941094Y-95316914D01*
X161941094Y-95316914D02*
X162036332Y-95364533D01*
X161083951Y-95793104D02*
X160607761Y-95793104D01*
X161179189Y-96078819D02*
X160845856Y-95078819D01*
X160845856Y-95078819D02*
X160512523Y-96078819D01*
D12*
X166817000Y-49370000D02*
X168717000Y-49370000D01*
X168717000Y-45710000D02*
X168717000Y-49370000D01*
X166817000Y-45710000D02*
X166817000Y-49370000D01*
X162143000Y-46381500D02*
X162143000Y-47031500D01*
X162143000Y-47681500D02*
X162143000Y-47031500D01*
X165263000Y-46381500D02*
X165263000Y-47031500D01*
X165263000Y-47681500D02*
X165263000Y-47031500D01*
X165543000Y-48434000D02*
X165213000Y-48194000D01*
X165543000Y-47954000D01*
X165543000Y-48434000D01*
G36*
X165543000Y-48434000D02*
G01*
X165213000Y-48194000D01*
X165543000Y-47954000D01*
X165543000Y-48434000D01*
G37*
X136805936Y-69997000D02*
X137260064Y-69997000D01*
X136805936Y-71467000D02*
X137260064Y-71467000D01*
X163441748Y-54528000D02*
X163964252Y-54528000D01*
X163441748Y-55948000D02*
X163964252Y-55948000D01*
X135513000Y-82800000D02*
X153513000Y-82800000D01*
X135513000Y-89550000D02*
X135513000Y-82800000D01*
X135513000Y-108300000D02*
X135513000Y-107550000D01*
X136513000Y-108300000D02*
X135513000Y-108300000D01*
X152513000Y-108300000D02*
X153513000Y-108300000D01*
X153513000Y-88800000D02*
X135513000Y-88800000D01*
X153513000Y-89550000D02*
X153513000Y-82800000D01*
X153513000Y-108300000D02*
X153513000Y-107550000D01*
X158596064Y-115717000D02*
X158141936Y-115717000D01*
X158596064Y-117187000D02*
X158141936Y-117187000D01*
X147962252Y-110129000D02*
X147439748Y-110129000D01*
X147962252Y-111599000D02*
X147439748Y-111599000D01*
X167983000Y-54332500D02*
X168783000Y-54332500D01*
X167983000Y-57452500D02*
X168783000Y-57452500D01*
X169583000Y-54332500D02*
X168783000Y-54332500D01*
X169583000Y-57452500D02*
X168783000Y-57452500D01*
X170083000Y-54382500D02*
X169843000Y-54052500D01*
X170323000Y-54052500D01*
X170083000Y-54382500D01*
G36*
X170083000Y-54382500D02*
G01*
X169843000Y-54052500D01*
X170323000Y-54052500D01*
X170083000Y-54382500D01*
G37*
X158596064Y-69997000D02*
X158141936Y-69997000D01*
X158596064Y-71467000D02*
X158141936Y-71467000D01*
X166507936Y-64409000D02*
X166962064Y-64409000D01*
X166507936Y-65879000D02*
X166962064Y-65879000D01*
X136805936Y-115717000D02*
X137260064Y-115717000D01*
X136805936Y-117187000D02*
X137260064Y-117187000D01*
X143356064Y-115717000D02*
X142901936Y-115717000D01*
X143356064Y-117187000D02*
X142901936Y-117187000D01*
X153804252Y-110129000D02*
X153281748Y-110129000D01*
X153804252Y-111599000D02*
X153281748Y-111599000D01*
X165708064Y-115717000D02*
X165253936Y-115717000D01*
X165708064Y-117187000D02*
X165253936Y-117187000D01*
X163964252Y-59075000D02*
X163441748Y-59075000D01*
X163964252Y-60545000D02*
X163441748Y-60545000D01*
X170080000Y-93057064D02*
X170080000Y-92602936D01*
X171550000Y-93057064D02*
X171550000Y-92602936D01*
X162660064Y-64409000D02*
X162205936Y-64409000D01*
X162660064Y-65879000D02*
X162205936Y-65879000D01*
X135513000Y-37080000D02*
X153513000Y-37080000D01*
X135513000Y-43830000D02*
X135513000Y-37080000D01*
X135513000Y-62580000D02*
X135513000Y-61830000D01*
X136513000Y-62580000D02*
X135513000Y-62580000D01*
X152513000Y-62580000D02*
X153513000Y-62580000D01*
X153513000Y-43080000D02*
X135513000Y-43080000D01*
X153513000Y-43830000D02*
X153513000Y-37080000D01*
X153513000Y-62580000D02*
X153513000Y-61830000D01*
X143390252Y-64409000D02*
X142867748Y-64409000D01*
X143390252Y-65879000D02*
X142867748Y-65879000D01*
X147962252Y-64409000D02*
X147439748Y-64409000D01*
X147962252Y-65879000D02*
X147439748Y-65879000D01*
X150976064Y-69997000D02*
X150521936Y-69997000D01*
X150976064Y-71467000D02*
X150521936Y-71467000D01*
X170080000Y-47337064D02*
X170080000Y-46882936D01*
X171550000Y-47337064D02*
X171550000Y-46882936D01*
X150976064Y-115717000D02*
X150521936Y-115717000D01*
X150976064Y-117187000D02*
X150521936Y-117187000D01*
X143356064Y-69997000D02*
X142901936Y-69997000D01*
X143356064Y-71467000D02*
X142901936Y-71467000D01*
X166917000Y-91580000D02*
X166917000Y-94840000D01*
X166917000Y-94840000D02*
X168617000Y-94840000D01*
X168617000Y-91580000D02*
X168617000Y-94840000D01*
X153804252Y-64409000D02*
X153281748Y-64409000D01*
X153804252Y-65879000D02*
X153281748Y-65879000D01*
X163964252Y-104795000D02*
X163441748Y-104795000D01*
X163964252Y-106265000D02*
X163441748Y-106265000D01*
X169044252Y-96667000D02*
X168521748Y-96667000D01*
X169044252Y-98137000D02*
X168521748Y-98137000D01*
X167983000Y-100052500D02*
X168783000Y-100052500D01*
X167983000Y-103172500D02*
X168783000Y-103172500D01*
X169583000Y-100052500D02*
X168783000Y-100052500D01*
X169583000Y-103172500D02*
X168783000Y-103172500D01*
X170083000Y-100102500D02*
X169843000Y-99772500D01*
X170323000Y-99772500D01*
X170083000Y-100102500D01*
G36*
X170083000Y-100102500D02*
G01*
X169843000Y-99772500D01*
X170323000Y-99772500D01*
X170083000Y-100102500D01*
G37*
X166507936Y-110129000D02*
X166962064Y-110129000D01*
X166507936Y-111599000D02*
X166962064Y-111599000D01*
X172566064Y-69997000D02*
X172111936Y-69997000D01*
X172566064Y-71467000D02*
X172111936Y-71467000D01*
X163441748Y-100248000D02*
X163964252Y-100248000D01*
X163441748Y-101668000D02*
X163964252Y-101668000D01*
X169044252Y-50947000D02*
X168521748Y-50947000D01*
X169044252Y-52417000D02*
X168521748Y-52417000D01*
X165708064Y-69997000D02*
X165253936Y-69997000D01*
X165708064Y-71467000D02*
X165253936Y-71467000D01*
X155348000Y-46829064D02*
X155348000Y-46374936D01*
X156818000Y-46829064D02*
X156818000Y-46374936D01*
X172566064Y-115717000D02*
X172111936Y-115717000D01*
X172566064Y-117187000D02*
X172111936Y-117187000D01*
X143390252Y-110129000D02*
X142867748Y-110129000D01*
X143390252Y-111599000D02*
X142867748Y-111599000D01*
X162660064Y-110129000D02*
X162205936Y-110129000D01*
X162660064Y-111599000D02*
X162205936Y-111599000D01*
X155348000Y-92549064D02*
X155348000Y-92094936D01*
X156818000Y-92549064D02*
X156818000Y-92094936D01*
X162143000Y-92101500D02*
X162143000Y-92751500D01*
X162143000Y-93401500D02*
X162143000Y-92751500D01*
X165263000Y-92101500D02*
X165263000Y-92751500D01*
X165263000Y-93401500D02*
X165263000Y-92751500D01*
X165543000Y-94154000D02*
X165213000Y-93914000D01*
X165543000Y-93674000D01*
X165543000Y-94154000D01*
G36*
X165543000Y-94154000D02*
G01*
X165213000Y-93914000D01*
X165543000Y-93674000D01*
X165543000Y-94154000D01*
G37*
M02*
