M48
; DRILL file {KiCad 8.0.2} date 2024-12-25T05:52:02+0900
; FORMAT={-:-/ absolute / inch / decimal}
; #@! TF.CreationDate,2024-12-25T05:52:02+09:00
; #@! TF.GenerationSoftware,Kicad,Pcbnew,8.0.2
; #@! TF.FileFunction,Plated,1,2,PTH
FMAT,2
INCH
; #@! TA.AperFunction,Plated,PTH,ViaDrill
T1C0.0118
; #@! TA.AperFunction,Plated,PTH,ComponentDrill
T2C0.0300
; #@! TA.AperFunction,Plated,PTH,ComponentDrill
T3C0.0394
; #@! TA.AperFunction,Plated,PTH,ViaDrill
T4C0.0400
; #@! TA.AperFunction,Plated,PTH,ComponentDrill
T5C0.0433
; #@! TA.AperFunction,Plated,PTH,ComponentDrill
T6C0.0630
; #@! TA.AperFunction,Plated,PTH,ComponentDrill
T7C0.0900
%
G90
G05
T1
X5.495Y-2.5547
X5.495Y-4.3547
X6.095Y-2.1047
X6.095Y-3.9047
X6.295Y-1.8547
X6.295Y-1.9047
X6.295Y-1.9547
X6.295Y-2.0047
X6.295Y-2.0547
X6.295Y-2.1047
X6.295Y-2.1547
X6.295Y-2.2047
X6.295Y-2.2547
X6.295Y-2.3047
X6.295Y-2.3547
X6.295Y-2.4047
X6.295Y-3.6547
X6.295Y-3.7047
X6.295Y-3.7547
X6.295Y-3.8047
X6.295Y-3.8547
X6.295Y-3.9047
X6.295Y-3.9547
X6.295Y-4.0047
X6.295Y-4.0547
X6.295Y-4.1047
X6.295Y-4.1547
X6.295Y-4.2047
X6.755Y-2.1647
X6.755Y-2.2347
X6.755Y-3.9647
X6.755Y-4.0347
T2
X5.645Y-2.6547
X5.645Y-4.4547
X5.745Y-2.6547
X5.745Y-4.4547
X5.845Y-2.6547
X5.845Y-4.4547
X5.945Y-2.6547
X5.945Y-4.4547
X6.045Y-2.6547
X6.045Y-4.4547
X6.145Y-2.6547
X6.145Y-4.4547
X6.245Y-2.6547
X6.245Y-4.4547
X6.345Y-2.6547
X6.345Y-4.4547
X6.445Y-2.6547
X6.445Y-4.4547
T3
X5.095Y-1.5547
X5.095Y-1.6547
X5.095Y-1.7547
X5.095Y-1.8547
X5.095Y-1.9547
X5.095Y-2.0547
X5.095Y-2.1547
X5.095Y-2.2547
X5.095Y-2.3547
X5.095Y-2.4547
X5.095Y-2.5547
X5.095Y-2.6547
X5.095Y-2.7547
X5.095Y-2.8547
X5.095Y-3.3547
X5.095Y-3.4547
X5.095Y-3.5547
X5.095Y-3.6547
X5.095Y-3.7547
X5.095Y-3.8547
X5.095Y-3.9547
X5.095Y-4.0547
X5.095Y-4.1547
X5.095Y-4.2547
X5.095Y-4.3547
X5.095Y-4.4547
X5.095Y-4.5547
X5.095Y-4.6547
X6.195Y-1.5547
X6.195Y-3.3547
X6.295Y-1.5547
X6.295Y-3.3547
X6.495Y-1.5547
X6.495Y-3.3547
X6.595Y-1.5547
X6.595Y-3.3547
X6.695Y-1.5547
X6.695Y-3.3547
X6.795Y-1.5547
X6.795Y-3.3547
X6.995Y-1.5547
X6.995Y-1.6547
X6.995Y-1.7547
X6.995Y-1.8547
X6.995Y-1.9547
X6.995Y-2.0547
X6.995Y-2.1547
X6.995Y-2.2547
X6.995Y-2.3547
X6.995Y-2.4547
X6.995Y-2.5547
X6.995Y-2.6547
X6.995Y-2.7547
X6.995Y-2.8547
X6.995Y-2.9547
X6.995Y-3.0547
X6.995Y-3.3547
X6.995Y-3.4547
X6.995Y-3.5547
X6.995Y-3.6547
X6.995Y-3.7547
X6.995Y-3.8547
X6.995Y-3.9547
X6.995Y-4.0547
X6.995Y-4.1547
X6.995Y-4.2547
X6.995Y-4.3547
X6.995Y-4.4547
X6.995Y-4.5547
X6.995Y-4.6547
X6.995Y-4.7547
X6.995Y-4.8547
T4
X6.295Y-1.7547
X6.295Y-3.5547
T5
X5.3191Y-2.8776
X5.3191Y-3.0547
X5.3191Y-4.6776
X5.3191Y-4.8547
X5.575Y-2.8776
X5.575Y-3.0547
X5.575Y-4.6776
X5.575Y-4.8547
X5.7191Y-2.8776
X5.7191Y-3.0547
X5.7191Y-4.6776
X5.7191Y-4.8547
X5.975Y-2.8776
X5.975Y-3.0547
X5.975Y-4.6776
X5.975Y-4.8547
X6.115Y-2.8776
X6.115Y-3.0547
X6.115Y-4.6776
X6.115Y-4.8547
X6.3709Y-2.8776
X6.3709Y-3.0547
X6.3709Y-4.6776
X6.3709Y-4.8547
X6.515Y-2.8776
X6.515Y-3.0547
X6.515Y-4.6776
X6.515Y-4.8547
X6.7709Y-2.8776
X6.7709Y-3.0547
X6.7709Y-4.6776
X6.7709Y-4.8547
T6
X5.2163Y-2.5839
X5.2163Y-4.3839
X6.8737Y-2.5839
X6.8737Y-4.3839
T7
X5.3429Y-2.562
X5.3429Y-4.362
X6.7458Y-2.5622
X6.7458Y-4.3622
M30
