G04 #@! TF.GenerationSoftware,KiCad,Pcbnew,8.0.2*
G04 #@! TF.CreationDate,2024-12-25T05:51:59+09:00*
G04 #@! TF.ProjectId,ESP32-C6_interface,45535033-322d-4433-965f-696e74657266,1.0*
G04 #@! TF.SameCoordinates,Original*
G04 #@! TF.FileFunction,Copper,L1,Top*
G04 #@! TF.FilePolarity,Positive*
%FSLAX46Y46*%
G04 Gerber Fmt 4.6, Leading zero omitted, Abs format (unit mm)*
G04 Created by KiCad (PCBNEW 8.0.2) date 2024-12-25 05:51:59*
%MOMM*%
%LPD*%
G01*
G04 APERTURE LIST*
G04 #@! TA.AperFunction,ComponentPad*
%ADD10C,2.000000*%
G04 #@! TD*
G04 #@! TA.AperFunction,ComponentPad*
%ADD11R,1.700000X1.700000*%
G04 #@! TD*
G04 #@! TA.AperFunction,ComponentPad*
%ADD12O,1.700000X1.700000*%
G04 #@! TD*
G04 #@! TA.AperFunction,ComponentPad*
%ADD13C,1.524000*%
G04 #@! TD*
G04 #@! TA.AperFunction,ComponentPad*
%ADD14C,3.048000*%
G04 #@! TD*
G04 #@! TA.AperFunction,ViaPad*
%ADD15C,1.778000*%
G04 #@! TD*
G04 #@! TA.AperFunction,ViaPad*
%ADD16C,0.600000*%
G04 #@! TD*
G04 #@! TA.AperFunction,Conductor*
%ADD17C,1.016000*%
G04 #@! TD*
G04 #@! TA.AperFunction,Conductor*
%ADD18C,0.508000*%
G04 #@! TD*
G04 APERTURE END LIST*
D10*
X165481000Y-73090000D03*
X171981000Y-73090000D03*
X165481000Y-77590000D03*
X171981000Y-77590000D03*
D11*
X159893000Y-39490000D03*
D12*
X157353000Y-39490000D03*
D11*
X177673000Y-39490000D03*
D12*
X177673000Y-42030000D03*
X177673000Y-44570000D03*
X177673000Y-47110000D03*
X177673000Y-49650000D03*
X177673000Y-52190000D03*
X177673000Y-54730000D03*
X177673000Y-57270000D03*
X177673000Y-59810000D03*
X177673000Y-62350000D03*
X177673000Y-64890000D03*
X177673000Y-67430000D03*
X177673000Y-69970000D03*
X177673000Y-72510000D03*
X177673000Y-75050000D03*
X177673000Y-77590000D03*
D11*
X129413000Y-39490000D03*
D12*
X129413000Y-42030000D03*
X129413000Y-44570000D03*
X129413000Y-47110000D03*
X129413000Y-49650000D03*
X129413000Y-52190000D03*
X129413000Y-54730000D03*
X129413000Y-57270000D03*
X129413000Y-59810000D03*
X129413000Y-62350000D03*
X129413000Y-64890000D03*
X129413000Y-67430000D03*
X129413000Y-69970000D03*
X129413000Y-72510000D03*
D11*
X172593000Y-85210000D03*
D12*
X170053000Y-85210000D03*
X167513000Y-85210000D03*
X164973000Y-85210000D03*
D11*
X172593000Y-39490000D03*
D12*
X170053000Y-39490000D03*
X167513000Y-39490000D03*
X164973000Y-39490000D03*
D10*
X135105000Y-73090000D03*
X141605000Y-73090000D03*
X135105000Y-77590000D03*
X141605000Y-77590000D03*
X145265000Y-73090000D03*
X151765000Y-73090000D03*
X145265000Y-77590000D03*
X151765000Y-77590000D03*
D11*
X159893000Y-85210000D03*
D12*
X157353000Y-85210000D03*
D11*
X129413000Y-85210000D03*
D12*
X129413000Y-87750000D03*
X129413000Y-90290000D03*
X129413000Y-92830000D03*
X129413000Y-95370000D03*
X129413000Y-97910000D03*
X129413000Y-100450000D03*
X129413000Y-102990000D03*
X129413000Y-105530000D03*
X129413000Y-108070000D03*
X129413000Y-110610000D03*
X129413000Y-113150000D03*
X129413000Y-115690000D03*
X129413000Y-118230000D03*
D10*
X155321000Y-73090000D03*
X161821000Y-73090000D03*
X155321000Y-77590000D03*
X161821000Y-77590000D03*
X145265000Y-118810000D03*
X151765000Y-118810000D03*
X145265000Y-123310000D03*
X151765000Y-123310000D03*
X132493000Y-111350000D03*
X174593000Y-111350000D03*
D13*
X143383000Y-113150000D03*
X145923000Y-113150000D03*
X148463000Y-113150000D03*
X151003000Y-113150000D03*
X153543000Y-113150000D03*
X156083000Y-113150000D03*
X158623000Y-113150000D03*
X161163000Y-113150000D03*
X163703000Y-113150000D03*
D14*
X135709000Y-110794000D03*
X171343000Y-110800000D03*
D11*
X177673000Y-85210000D03*
D12*
X177673000Y-87750000D03*
X177673000Y-90290000D03*
X177673000Y-92830000D03*
X177673000Y-95370000D03*
X177673000Y-97910000D03*
X177673000Y-100450000D03*
X177673000Y-102990000D03*
X177673000Y-105530000D03*
X177673000Y-108070000D03*
X177673000Y-110610000D03*
X177673000Y-113150000D03*
X177673000Y-115690000D03*
X177673000Y-118230000D03*
X177673000Y-120770000D03*
X177673000Y-123310000D03*
D10*
X135105000Y-118810000D03*
X141605000Y-118810000D03*
X135105000Y-123310000D03*
X141605000Y-123310000D03*
X132493000Y-65630000D03*
X174593000Y-65630000D03*
D13*
X143383000Y-67430000D03*
X145923000Y-67430000D03*
X148463000Y-67430000D03*
X151003000Y-67430000D03*
X153543000Y-67430000D03*
X156083000Y-67430000D03*
X158623000Y-67430000D03*
X161163000Y-67430000D03*
X163703000Y-67430000D03*
D14*
X135709000Y-65074000D03*
X171343000Y-65080000D03*
D10*
X155321000Y-118810000D03*
X161821000Y-118810000D03*
X155321000Y-123310000D03*
X161821000Y-123310000D03*
X165481000Y-118810000D03*
X171981000Y-118810000D03*
X165481000Y-123310000D03*
X171981000Y-123310000D03*
D15*
X159893000Y-90290000D03*
X159893000Y-44570000D03*
D16*
X171577000Y-56762000D03*
X171577000Y-54984000D03*
X171577000Y-100704000D03*
X171577000Y-102482000D03*
X159893000Y-50920000D03*
X159893000Y-96640000D03*
X159893000Y-52190000D03*
X159893000Y-97910000D03*
X154813000Y-99180000D03*
X139573000Y-64890000D03*
X159893000Y-99180000D03*
X154813000Y-53460000D03*
X139573000Y-110610000D03*
X159893000Y-53460000D03*
X159893000Y-92830000D03*
X159893000Y-47110000D03*
X159893000Y-57270000D03*
X159893000Y-102990000D03*
X159893000Y-54730000D03*
X159893000Y-100450000D03*
X159893000Y-104260000D03*
X159893000Y-58540000D03*
X159893000Y-95370000D03*
X159893000Y-49650000D03*
X159893000Y-56000000D03*
X159893000Y-101720000D03*
X159893000Y-48380000D03*
X159893000Y-94100000D03*
X159893000Y-105530000D03*
X159893000Y-59810000D03*
X159893000Y-61080000D03*
X159893000Y-106800000D03*
D17*
X136595000Y-111680000D02*
X135709000Y-110794000D01*
X136595000Y-65960000D02*
X135709000Y-65074000D01*
X135709000Y-110794000D02*
X135709000Y-106746000D01*
X159893000Y-44570000D02*
X175133000Y-44570000D01*
X152073000Y-65960000D02*
X136595000Y-65960000D01*
X152073000Y-111680000D02*
X136595000Y-111680000D01*
X175133000Y-44570000D02*
X177673000Y-42030000D01*
X135709000Y-61026000D02*
X129413000Y-54730000D01*
X153543000Y-113150000D02*
X152073000Y-111680000D01*
X135709000Y-65074000D02*
X135709000Y-61026000D01*
X135709000Y-106746000D02*
X129413000Y-100450000D01*
X153543000Y-67430000D02*
X152073000Y-65960000D01*
X159893000Y-90290000D02*
X175133000Y-90290000D01*
X175133000Y-90290000D02*
X177673000Y-87750000D01*
D18*
X171577000Y-54984000D02*
X171577000Y-56762000D01*
X171577000Y-100704000D02*
X171577000Y-102482000D01*
D17*
X153473000Y-75882000D02*
X151765000Y-77590000D01*
X156083000Y-113150000D02*
X156083000Y-86480000D01*
X153473000Y-115760000D02*
X156083000Y-113150000D01*
X153473000Y-70040000D02*
X153473000Y-75882000D01*
X153473000Y-121602000D02*
X151765000Y-123310000D01*
X153473000Y-70040000D02*
X156083000Y-67430000D01*
X156083000Y-40760000D02*
X157353000Y-39490000D01*
X156083000Y-67430000D02*
X156083000Y-40760000D01*
X153473000Y-115760000D02*
X153473000Y-121602000D01*
X156083000Y-86480000D02*
X157353000Y-85210000D01*
D18*
X159893000Y-50920000D02*
X176403000Y-50920000D01*
X176403000Y-50920000D02*
X177673000Y-52190000D01*
X176403000Y-96640000D02*
X177673000Y-97910000D01*
X159893000Y-96640000D02*
X176403000Y-96640000D01*
X159893000Y-52190000D02*
X175133000Y-52190000D01*
X175133000Y-52190000D02*
X177673000Y-54730000D01*
X175133000Y-97910000D02*
X177673000Y-100450000D01*
X159893000Y-97910000D02*
X175133000Y-97910000D01*
X173863000Y-99180000D02*
X177673000Y-102990000D01*
X159893000Y-99180000D02*
X173863000Y-99180000D01*
X159893000Y-53460000D02*
X173863000Y-53460000D01*
X151003000Y-53460000D02*
X139573000Y-64890000D01*
X173863000Y-53460000D02*
X177673000Y-57270000D01*
X151003000Y-99180000D02*
X139573000Y-110610000D01*
X154813000Y-53460000D02*
X151003000Y-53460000D01*
X154813000Y-99180000D02*
X151003000Y-99180000D01*
X175133000Y-47110000D02*
X177673000Y-44570000D01*
X159893000Y-47110000D02*
X175133000Y-47110000D01*
X159893000Y-92830000D02*
X175133000Y-92830000D01*
X175133000Y-92830000D02*
X177673000Y-90290000D01*
D17*
X159893000Y-85560736D02*
X159893000Y-85210000D01*
X159893000Y-39840736D02*
X159893000Y-39490000D01*
D18*
X172264068Y-105201068D02*
X177673000Y-110610000D01*
X162104068Y-59481068D02*
X172264068Y-59481068D01*
X159893000Y-57270000D02*
X162104068Y-59481068D01*
X159893000Y-102990000D02*
X162104068Y-105201068D01*
X172264068Y-59481068D02*
X177673000Y-64890000D01*
X162104068Y-105201068D02*
X172264068Y-105201068D01*
X162687000Y-103244000D02*
X175387000Y-103244000D01*
X175387000Y-103244000D02*
X177673000Y-105530000D01*
X159893000Y-54730000D02*
X162687000Y-57524000D01*
X162687000Y-57524000D02*
X175387000Y-57524000D01*
X159893000Y-100450000D02*
X162687000Y-103244000D01*
X175387000Y-57524000D02*
X177673000Y-59810000D01*
X176369000Y-66126000D02*
X177673000Y-67430000D01*
X176369000Y-111069733D02*
X176369000Y-111846000D01*
X161542068Y-60189068D02*
X171208335Y-60189068D01*
X159893000Y-58540000D02*
X161542068Y-60189068D01*
X161542068Y-105909068D02*
X171208335Y-105909068D01*
X171208335Y-105909068D02*
X176369000Y-111069733D01*
X171208335Y-60189068D02*
X176369000Y-65349733D01*
X176369000Y-111846000D02*
X177673000Y-113150000D01*
X176369000Y-65349733D02*
X176369000Y-66126000D01*
X159893000Y-104260000D02*
X161542068Y-105909068D01*
X159893000Y-95370000D02*
X177673000Y-95370000D01*
X159893000Y-49650000D02*
X177673000Y-49650000D01*
X173863000Y-58540000D02*
X177673000Y-62350000D01*
X162433000Y-58540000D02*
X173863000Y-58540000D01*
X159893000Y-101720000D02*
X162433000Y-104260000D01*
X162433000Y-104260000D02*
X173863000Y-104260000D01*
X159893000Y-56000000D02*
X162433000Y-58540000D01*
X173863000Y-104260000D02*
X177673000Y-108070000D01*
X159893000Y-94100000D02*
X176403000Y-94100000D01*
X176403000Y-94100000D02*
X177673000Y-92830000D01*
X159893000Y-48380000D02*
X176403000Y-48380000D01*
X176403000Y-48380000D02*
X177673000Y-47110000D01*
X166316000Y-88947000D02*
X159336711Y-88947000D01*
X159893000Y-105530000D02*
X161163000Y-106800000D01*
X158550000Y-44013711D02*
X158550000Y-58467000D01*
X161163000Y-106800000D02*
X164211000Y-106800000D01*
X173101000Y-115690000D02*
X177673000Y-115690000D01*
X173101000Y-69970000D02*
X177673000Y-69970000D01*
X170053000Y-39490000D02*
X166316000Y-43227000D01*
X158550000Y-89733711D02*
X158550000Y-104187000D01*
X158550000Y-58467000D02*
X159893000Y-59810000D01*
X159336711Y-43227000D02*
X158550000Y-44013711D01*
X159893000Y-59810000D02*
X161163000Y-61080000D01*
X164211000Y-61080000D02*
X173101000Y-69970000D01*
X164211000Y-106800000D02*
X173101000Y-115690000D01*
X158550000Y-104187000D02*
X159893000Y-105530000D01*
X159336711Y-88947000D02*
X158550000Y-89733711D01*
X161163000Y-61080000D02*
X164211000Y-61080000D01*
X170053000Y-85210000D02*
X166316000Y-88947000D01*
X166316000Y-43227000D02*
X159336711Y-43227000D01*
X157842000Y-59029000D02*
X159893000Y-61080000D01*
X175895000Y-116452000D02*
X177673000Y-118230000D01*
X175895000Y-70732000D02*
X177673000Y-72510000D01*
X157842000Y-104749000D02*
X159893000Y-106800000D01*
X159893000Y-61080000D02*
X160655000Y-61842000D01*
X157842000Y-43720447D02*
X157842000Y-59029000D01*
X164484000Y-88239000D02*
X159043447Y-88239000D01*
X159043447Y-88239000D02*
X157842000Y-89440447D01*
X159893000Y-106800000D02*
X160655000Y-107562000D01*
X172353736Y-70732000D02*
X175895000Y-70732000D01*
X167513000Y-85210000D02*
X164484000Y-88239000D01*
X163463736Y-61842000D02*
X172353736Y-70732000D01*
X160655000Y-61842000D02*
X163463736Y-61842000D01*
X164484000Y-42519000D02*
X159043447Y-42519000D01*
X160655000Y-107562000D02*
X163463736Y-107562000D01*
X159043447Y-42519000D02*
X157842000Y-43720447D01*
X172353736Y-116452000D02*
X175895000Y-116452000D01*
X163463736Y-107562000D02*
X172353736Y-116452000D01*
X157842000Y-89440447D02*
X157842000Y-104749000D01*
X167513000Y-39490000D02*
X164484000Y-42519000D01*
G04 #@! TA.AperFunction,Conductor*
G36*
X134436039Y-81920185D02*
G01*
X134481794Y-81972989D01*
X134493000Y-82024500D01*
X134493000Y-89020000D01*
X154305000Y-89020000D01*
X154305000Y-84959999D01*
X156022364Y-84959999D01*
X156022364Y-84960000D01*
X156919988Y-84960000D01*
X156887075Y-85017007D01*
X156853000Y-85144174D01*
X156853000Y-85275826D01*
X156887075Y-85402993D01*
X156919988Y-85460000D01*
X156022364Y-85460000D01*
X156079567Y-85673486D01*
X156079570Y-85673492D01*
X156179399Y-85887578D01*
X156314894Y-86081082D01*
X156481917Y-86248105D01*
X156675421Y-86383600D01*
X156889507Y-86483429D01*
X156889516Y-86483433D01*
X157103000Y-86540634D01*
X157103000Y-85643012D01*
X157160007Y-85675925D01*
X157287174Y-85710000D01*
X157418826Y-85710000D01*
X157545993Y-85675925D01*
X157603000Y-85643012D01*
X157603000Y-86540633D01*
X157816483Y-86483433D01*
X157816492Y-86483429D01*
X158030578Y-86383600D01*
X158224078Y-86248108D01*
X158346133Y-86126053D01*
X158407456Y-86092568D01*
X158477148Y-86097552D01*
X158533082Y-86139423D01*
X158549997Y-86170401D01*
X158599202Y-86302328D01*
X158599206Y-86302335D01*
X158685452Y-86417544D01*
X158685455Y-86417547D01*
X158800664Y-86503793D01*
X158800671Y-86503797D01*
X158845618Y-86520561D01*
X158935517Y-86554091D01*
X158995127Y-86560500D01*
X159737536Y-86560499D01*
X159761729Y-86562882D01*
X159793670Y-86569236D01*
X159793671Y-86569236D01*
X159992330Y-86569236D01*
X160011907Y-86565341D01*
X160024271Y-86562881D01*
X160048464Y-86560499D01*
X160790871Y-86560499D01*
X160790872Y-86560499D01*
X160850483Y-86554091D01*
X160985331Y-86503796D01*
X161100546Y-86417546D01*
X161186796Y-86302331D01*
X161237091Y-86167483D01*
X161243500Y-86107873D01*
X161243499Y-84312128D01*
X161237091Y-84252517D01*
X161236002Y-84249598D01*
X161186797Y-84117671D01*
X161186793Y-84117664D01*
X161100547Y-84002455D01*
X161100544Y-84002452D01*
X160985335Y-83916206D01*
X160985328Y-83916202D01*
X160850482Y-83865908D01*
X160850483Y-83865908D01*
X160790883Y-83859501D01*
X160790881Y-83859500D01*
X160790873Y-83859500D01*
X160790864Y-83859500D01*
X158995129Y-83859500D01*
X158995123Y-83859501D01*
X158935516Y-83865908D01*
X158800671Y-83916202D01*
X158800664Y-83916206D01*
X158685455Y-84002452D01*
X158685452Y-84002455D01*
X158599206Y-84117664D01*
X158599202Y-84117671D01*
X158549997Y-84249598D01*
X158508126Y-84305532D01*
X158442661Y-84329949D01*
X158374388Y-84315097D01*
X158346134Y-84293946D01*
X158224082Y-84171894D01*
X158030578Y-84036399D01*
X157816492Y-83936570D01*
X157816486Y-83936567D01*
X157603000Y-83879364D01*
X157603000Y-84776988D01*
X157545993Y-84744075D01*
X157418826Y-84710000D01*
X157287174Y-84710000D01*
X157160007Y-84744075D01*
X157103000Y-84776988D01*
X157103000Y-83879364D01*
X157102999Y-83879364D01*
X156889513Y-83936567D01*
X156889507Y-83936570D01*
X156675422Y-84036399D01*
X156675420Y-84036400D01*
X156481926Y-84171886D01*
X156481920Y-84171891D01*
X156314891Y-84338920D01*
X156314886Y-84338926D01*
X156179400Y-84532420D01*
X156179399Y-84532422D01*
X156079570Y-84746507D01*
X156079567Y-84746513D01*
X156022364Y-84959999D01*
X154305000Y-84959999D01*
X154305000Y-82024500D01*
X154324685Y-81957461D01*
X154377489Y-81911706D01*
X154429000Y-81900500D01*
X179588500Y-81900500D01*
X179655539Y-81920185D01*
X179701294Y-81972989D01*
X179712500Y-82024500D01*
X179712500Y-126495500D01*
X179692815Y-126562539D01*
X179640011Y-126608294D01*
X179588500Y-126619500D01*
X127497500Y-126619500D01*
X127430461Y-126599815D01*
X127384706Y-126547011D01*
X127373500Y-126495500D01*
X127373500Y-123309994D01*
X133599859Y-123309994D01*
X133599859Y-123310005D01*
X133620385Y-123557729D01*
X133620387Y-123557738D01*
X133681412Y-123798717D01*
X133781266Y-124026364D01*
X133881564Y-124179882D01*
X134581212Y-123480234D01*
X134592482Y-123522292D01*
X134664890Y-123647708D01*
X134767292Y-123750110D01*
X134892708Y-123822518D01*
X134934765Y-123833787D01*
X134234942Y-124533609D01*
X134281768Y-124570055D01*
X134281770Y-124570056D01*
X134500385Y-124688364D01*
X134500396Y-124688369D01*
X134735506Y-124769083D01*
X134980707Y-124810000D01*
X135229293Y-124810000D01*
X135474493Y-124769083D01*
X135709603Y-124688369D01*
X135709614Y-124688364D01*
X135928228Y-124570057D01*
X135928231Y-124570055D01*
X135975056Y-124533609D01*
X135275234Y-123833787D01*
X135317292Y-123822518D01*
X135442708Y-123750110D01*
X135545110Y-123647708D01*
X135617518Y-123522292D01*
X135628787Y-123480235D01*
X136328434Y-124179882D01*
X136428731Y-124026369D01*
X136528587Y-123798717D01*
X136589612Y-123557738D01*
X136589614Y-123557729D01*
X136610141Y-123310005D01*
X136610141Y-123309994D01*
X140099859Y-123309994D01*
X140099859Y-123310005D01*
X140120385Y-123557729D01*
X140120387Y-123557738D01*
X140181412Y-123798717D01*
X140281266Y-124026364D01*
X140381564Y-124179882D01*
X141081212Y-123480234D01*
X141092482Y-123522292D01*
X141164890Y-123647708D01*
X141267292Y-123750110D01*
X141392708Y-123822518D01*
X141434765Y-123833787D01*
X140734942Y-124533609D01*
X140781768Y-124570055D01*
X140781770Y-124570056D01*
X141000385Y-124688364D01*
X141000396Y-124688369D01*
X141235506Y-124769083D01*
X141480707Y-124810000D01*
X141729293Y-124810000D01*
X141974493Y-124769083D01*
X142209603Y-124688369D01*
X142209614Y-124688364D01*
X142428228Y-124570057D01*
X142428231Y-124570055D01*
X142475056Y-124533609D01*
X141775234Y-123833787D01*
X141817292Y-123822518D01*
X141942708Y-123750110D01*
X142045110Y-123647708D01*
X142117518Y-123522292D01*
X142128787Y-123480235D01*
X142828434Y-124179882D01*
X142928731Y-124026369D01*
X143028587Y-123798717D01*
X143089612Y-123557738D01*
X143089614Y-123557729D01*
X143110141Y-123310005D01*
X143110141Y-123309994D01*
X143759859Y-123309994D01*
X143759859Y-123310005D01*
X143780385Y-123557729D01*
X143780387Y-123557738D01*
X143841412Y-123798717D01*
X143941266Y-124026364D01*
X144041564Y-124179882D01*
X144741212Y-123480234D01*
X144752482Y-123522292D01*
X144824890Y-123647708D01*
X144927292Y-123750110D01*
X145052708Y-123822518D01*
X145094765Y-123833787D01*
X144394942Y-124533609D01*
X144441768Y-124570055D01*
X144441770Y-124570056D01*
X144660385Y-124688364D01*
X144660396Y-124688369D01*
X144895506Y-124769083D01*
X145140707Y-124810000D01*
X145389293Y-124810000D01*
X145634493Y-124769083D01*
X145869603Y-124688369D01*
X145869614Y-124688364D01*
X146088228Y-124570057D01*
X146088231Y-124570055D01*
X146135056Y-124533609D01*
X145435234Y-123833787D01*
X145477292Y-123822518D01*
X145602708Y-123750110D01*
X145705110Y-123647708D01*
X145777518Y-123522292D01*
X145788787Y-123480235D01*
X146488434Y-124179882D01*
X146588731Y-124026369D01*
X146688587Y-123798717D01*
X146749612Y-123557738D01*
X146749614Y-123557729D01*
X146770141Y-123310005D01*
X146770141Y-123309994D01*
X150259859Y-123309994D01*
X150259859Y-123310005D01*
X150280385Y-123557729D01*
X150280387Y-123557738D01*
X150341412Y-123798717D01*
X150441266Y-124026364D01*
X150541564Y-124179882D01*
X151241212Y-123480234D01*
X151252482Y-123522292D01*
X151324890Y-123647708D01*
X151427292Y-123750110D01*
X151552708Y-123822518D01*
X151594765Y-123833787D01*
X150894942Y-124533609D01*
X150941768Y-124570055D01*
X150941770Y-124570056D01*
X151160385Y-124688364D01*
X151160396Y-124688369D01*
X151395506Y-124769083D01*
X151640707Y-124810000D01*
X151889293Y-124810000D01*
X152134493Y-124769083D01*
X152369603Y-124688369D01*
X152369614Y-124688364D01*
X152588228Y-124570057D01*
X152588231Y-124570055D01*
X152635056Y-124533609D01*
X151935234Y-123833787D01*
X151977292Y-123822518D01*
X152102708Y-123750110D01*
X152205110Y-123647708D01*
X152277518Y-123522292D01*
X152288787Y-123480235D01*
X152988434Y-124179882D01*
X153088731Y-124026369D01*
X153188587Y-123798717D01*
X153249612Y-123557738D01*
X153249614Y-123557729D01*
X153270141Y-123310005D01*
X153270141Y-123309994D01*
X153815859Y-123309994D01*
X153815859Y-123310005D01*
X153836385Y-123557729D01*
X153836387Y-123557738D01*
X153897412Y-123798717D01*
X153997266Y-124026364D01*
X154097564Y-124179882D01*
X154797212Y-123480234D01*
X154808482Y-123522292D01*
X154880890Y-123647708D01*
X154983292Y-123750110D01*
X155108708Y-123822518D01*
X155150765Y-123833787D01*
X154450942Y-124533609D01*
X154497768Y-124570055D01*
X154497770Y-124570056D01*
X154716385Y-124688364D01*
X154716396Y-124688369D01*
X154951506Y-124769083D01*
X155196707Y-124810000D01*
X155445293Y-124810000D01*
X155690493Y-124769083D01*
X155925603Y-124688369D01*
X155925614Y-124688364D01*
X156144228Y-124570057D01*
X156144231Y-124570055D01*
X156191056Y-124533609D01*
X155491234Y-123833787D01*
X155533292Y-123822518D01*
X155658708Y-123750110D01*
X155761110Y-123647708D01*
X155833518Y-123522292D01*
X155844787Y-123480235D01*
X156544434Y-124179882D01*
X156644731Y-124026369D01*
X156744587Y-123798717D01*
X156805612Y-123557738D01*
X156805614Y-123557729D01*
X156826141Y-123310005D01*
X156826141Y-123309994D01*
X160315859Y-123309994D01*
X160315859Y-123310005D01*
X160336385Y-123557729D01*
X160336387Y-123557738D01*
X160397412Y-123798717D01*
X160497266Y-124026364D01*
X160597564Y-124179882D01*
X161297212Y-123480234D01*
X161308482Y-123522292D01*
X161380890Y-123647708D01*
X161483292Y-123750110D01*
X161608708Y-123822518D01*
X161650765Y-123833787D01*
X160950942Y-124533609D01*
X160997768Y-124570055D01*
X160997770Y-124570056D01*
X161216385Y-124688364D01*
X161216396Y-124688369D01*
X161451506Y-124769083D01*
X161696707Y-124810000D01*
X161945293Y-124810000D01*
X162190493Y-124769083D01*
X162425603Y-124688369D01*
X162425614Y-124688364D01*
X162644228Y-124570057D01*
X162644231Y-124570055D01*
X162691056Y-124533609D01*
X161991234Y-123833787D01*
X162033292Y-123822518D01*
X162158708Y-123750110D01*
X162261110Y-123647708D01*
X162333518Y-123522292D01*
X162344787Y-123480235D01*
X163044434Y-124179882D01*
X163144731Y-124026369D01*
X163244587Y-123798717D01*
X163305612Y-123557738D01*
X163305614Y-123557729D01*
X163326141Y-123310005D01*
X163326141Y-123309994D01*
X163975859Y-123309994D01*
X163975859Y-123310005D01*
X163996385Y-123557729D01*
X163996387Y-123557738D01*
X164057412Y-123798717D01*
X164157266Y-124026364D01*
X164257564Y-124179882D01*
X164957212Y-123480234D01*
X164968482Y-123522292D01*
X165040890Y-123647708D01*
X165143292Y-123750110D01*
X165268708Y-123822518D01*
X165310765Y-123833787D01*
X164610942Y-124533609D01*
X164657768Y-124570055D01*
X164657770Y-124570056D01*
X164876385Y-124688364D01*
X164876396Y-124688369D01*
X165111506Y-124769083D01*
X165356707Y-124810000D01*
X165605293Y-124810000D01*
X165850493Y-124769083D01*
X166085603Y-124688369D01*
X166085614Y-124688364D01*
X166304228Y-124570057D01*
X166304231Y-124570055D01*
X166351056Y-124533609D01*
X165651234Y-123833787D01*
X165693292Y-123822518D01*
X165818708Y-123750110D01*
X165921110Y-123647708D01*
X165993518Y-123522292D01*
X166004787Y-123480235D01*
X166704434Y-124179882D01*
X166804731Y-124026369D01*
X166904587Y-123798717D01*
X166965612Y-123557738D01*
X166965614Y-123557729D01*
X166986141Y-123310005D01*
X166986141Y-123309994D01*
X170475859Y-123309994D01*
X170475859Y-123310005D01*
X170496385Y-123557729D01*
X170496387Y-123557738D01*
X170557412Y-123798717D01*
X170657266Y-124026364D01*
X170757564Y-124179882D01*
X171457212Y-123480234D01*
X171468482Y-123522292D01*
X171540890Y-123647708D01*
X171643292Y-123750110D01*
X171768708Y-123822518D01*
X171810765Y-123833787D01*
X171110942Y-124533609D01*
X171157768Y-124570055D01*
X171157770Y-124570056D01*
X171376385Y-124688364D01*
X171376396Y-124688369D01*
X171611506Y-124769083D01*
X171856707Y-124810000D01*
X172105293Y-124810000D01*
X172350493Y-124769083D01*
X172585603Y-124688369D01*
X172585614Y-124688364D01*
X172804228Y-124570057D01*
X172804231Y-124570055D01*
X172851056Y-124533609D01*
X172151234Y-123833787D01*
X172193292Y-123822518D01*
X172318708Y-123750110D01*
X172421110Y-123647708D01*
X172493518Y-123522292D01*
X172504787Y-123480234D01*
X173204434Y-124179882D01*
X173304731Y-124026369D01*
X173404587Y-123798717D01*
X173465612Y-123557738D01*
X173465614Y-123557729D01*
X173486141Y-123310005D01*
X173486141Y-123309994D01*
X173465614Y-123062270D01*
X173465612Y-123062261D01*
X173404587Y-122821282D01*
X173304731Y-122593630D01*
X173204434Y-122440116D01*
X172504787Y-123139764D01*
X172493518Y-123097708D01*
X172421110Y-122972292D01*
X172318708Y-122869890D01*
X172193292Y-122797482D01*
X172151235Y-122786212D01*
X172851057Y-122086390D01*
X172851056Y-122086389D01*
X172804229Y-122049943D01*
X172585614Y-121931635D01*
X172585603Y-121931630D01*
X172350493Y-121850916D01*
X172105293Y-121810000D01*
X171856707Y-121810000D01*
X171611506Y-121850916D01*
X171376396Y-121931630D01*
X171376390Y-121931632D01*
X171157761Y-122049949D01*
X171110942Y-122086388D01*
X171110942Y-122086390D01*
X171810765Y-122786212D01*
X171768708Y-122797482D01*
X171643292Y-122869890D01*
X171540890Y-122972292D01*
X171468482Y-123097708D01*
X171457212Y-123139764D01*
X170757564Y-122440116D01*
X170657267Y-122593632D01*
X170557412Y-122821282D01*
X170496387Y-123062261D01*
X170496385Y-123062270D01*
X170475859Y-123309994D01*
X166986141Y-123309994D01*
X166965614Y-123062270D01*
X166965612Y-123062261D01*
X166904587Y-122821282D01*
X166804731Y-122593630D01*
X166704434Y-122440116D01*
X166004787Y-123139764D01*
X165993518Y-123097708D01*
X165921110Y-122972292D01*
X165818708Y-122869890D01*
X165693292Y-122797482D01*
X165651235Y-122786212D01*
X166351057Y-122086390D01*
X166351056Y-122086389D01*
X166304229Y-122049943D01*
X166085614Y-121931635D01*
X166085603Y-121931630D01*
X165850493Y-121850916D01*
X165605293Y-121810000D01*
X165356707Y-121810000D01*
X165111506Y-121850916D01*
X164876396Y-121931630D01*
X164876390Y-121931632D01*
X164657761Y-122049949D01*
X164610942Y-122086388D01*
X164610942Y-122086390D01*
X165310765Y-122786212D01*
X165268708Y-122797482D01*
X165143292Y-122869890D01*
X165040890Y-122972292D01*
X164968482Y-123097708D01*
X164957212Y-123139764D01*
X164257564Y-122440116D01*
X164157267Y-122593632D01*
X164057412Y-122821282D01*
X163996387Y-123062261D01*
X163996385Y-123062270D01*
X163975859Y-123309994D01*
X163326141Y-123309994D01*
X163305614Y-123062270D01*
X163305612Y-123062261D01*
X163244587Y-122821282D01*
X163144731Y-122593630D01*
X163044434Y-122440116D01*
X162344787Y-123139764D01*
X162333518Y-123097708D01*
X162261110Y-122972292D01*
X162158708Y-122869890D01*
X162033292Y-122797482D01*
X161991235Y-122786212D01*
X162691057Y-122086390D01*
X162691056Y-122086389D01*
X162644229Y-122049943D01*
X162425614Y-121931635D01*
X162425603Y-121931630D01*
X162190493Y-121850916D01*
X161945293Y-121810000D01*
X161696707Y-121810000D01*
X161451506Y-121850916D01*
X161216396Y-121931630D01*
X161216390Y-121931632D01*
X160997761Y-122049949D01*
X160950942Y-122086388D01*
X160950942Y-122086390D01*
X161650765Y-122786212D01*
X161608708Y-122797482D01*
X161483292Y-122869890D01*
X161380890Y-122972292D01*
X161308482Y-123097708D01*
X161297212Y-123139764D01*
X160597564Y-122440116D01*
X160497267Y-122593632D01*
X160397412Y-122821282D01*
X160336387Y-123062261D01*
X160336385Y-123062270D01*
X160315859Y-123309994D01*
X156826141Y-123309994D01*
X156805614Y-123062270D01*
X156805612Y-123062261D01*
X156744587Y-122821282D01*
X156644731Y-122593630D01*
X156544434Y-122440116D01*
X155844787Y-123139764D01*
X155833518Y-123097708D01*
X155761110Y-122972292D01*
X155658708Y-122869890D01*
X155533292Y-122797482D01*
X155491235Y-122786212D01*
X156191057Y-122086390D01*
X156191056Y-122086389D01*
X156144229Y-122049943D01*
X155925614Y-121931635D01*
X155925603Y-121931630D01*
X155690493Y-121850916D01*
X155445293Y-121810000D01*
X155196707Y-121810000D01*
X154951506Y-121850916D01*
X154716396Y-121931630D01*
X154716390Y-121931632D01*
X154497761Y-122049949D01*
X154450942Y-122086388D01*
X154450942Y-122086390D01*
X155150765Y-122786212D01*
X155108708Y-122797482D01*
X154983292Y-122869890D01*
X154880890Y-122972292D01*
X154808482Y-123097708D01*
X154797212Y-123139764D01*
X154097564Y-122440116D01*
X153997267Y-122593632D01*
X153897412Y-122821282D01*
X153836387Y-123062261D01*
X153836385Y-123062270D01*
X153815859Y-123309994D01*
X153270141Y-123309994D01*
X153249614Y-123062270D01*
X153249612Y-123062261D01*
X153188587Y-122821282D01*
X153088731Y-122593630D01*
X152988434Y-122440116D01*
X152288787Y-123139764D01*
X152277518Y-123097708D01*
X152205110Y-122972292D01*
X152102708Y-122869890D01*
X151977292Y-122797482D01*
X151935235Y-122786212D01*
X152635057Y-122086390D01*
X152635056Y-122086389D01*
X152588229Y-122049943D01*
X152369614Y-121931635D01*
X152369603Y-121931630D01*
X152134493Y-121850916D01*
X151889293Y-121810000D01*
X151640707Y-121810000D01*
X151395506Y-121850916D01*
X151160396Y-121931630D01*
X151160390Y-121931632D01*
X150941761Y-122049949D01*
X150894942Y-122086388D01*
X150894942Y-122086390D01*
X151594765Y-122786212D01*
X151552708Y-122797482D01*
X151427292Y-122869890D01*
X151324890Y-122972292D01*
X151252482Y-123097708D01*
X151241212Y-123139764D01*
X150541564Y-122440116D01*
X150441267Y-122593632D01*
X150341412Y-122821282D01*
X150280387Y-123062261D01*
X150280385Y-123062270D01*
X150259859Y-123309994D01*
X146770141Y-123309994D01*
X146749614Y-123062270D01*
X146749612Y-123062261D01*
X146688587Y-122821282D01*
X146588731Y-122593630D01*
X146488434Y-122440116D01*
X145788787Y-123139764D01*
X145777518Y-123097708D01*
X145705110Y-122972292D01*
X145602708Y-122869890D01*
X145477292Y-122797482D01*
X145435235Y-122786212D01*
X146135057Y-122086390D01*
X146135056Y-122086389D01*
X146088229Y-122049943D01*
X145869614Y-121931635D01*
X145869603Y-121931630D01*
X145634493Y-121850916D01*
X145389293Y-121810000D01*
X145140707Y-121810000D01*
X144895506Y-121850916D01*
X144660396Y-121931630D01*
X144660390Y-121931632D01*
X144441761Y-122049949D01*
X144394942Y-122086388D01*
X144394942Y-122086390D01*
X145094765Y-122786212D01*
X145052708Y-122797482D01*
X144927292Y-122869890D01*
X144824890Y-122972292D01*
X144752482Y-123097708D01*
X144741212Y-123139764D01*
X144041564Y-122440116D01*
X143941267Y-122593632D01*
X143841412Y-122821282D01*
X143780387Y-123062261D01*
X143780385Y-123062270D01*
X143759859Y-123309994D01*
X143110141Y-123309994D01*
X143089614Y-123062270D01*
X143089612Y-123062261D01*
X143028587Y-122821282D01*
X142928731Y-122593630D01*
X142828434Y-122440116D01*
X142128787Y-123139764D01*
X142117518Y-123097708D01*
X142045110Y-122972292D01*
X141942708Y-122869890D01*
X141817292Y-122797482D01*
X141775235Y-122786212D01*
X142475057Y-122086390D01*
X142475056Y-122086389D01*
X142428229Y-122049943D01*
X142209614Y-121931635D01*
X142209603Y-121931630D01*
X141974493Y-121850916D01*
X141729293Y-121810000D01*
X141480707Y-121810000D01*
X141235506Y-121850916D01*
X141000396Y-121931630D01*
X141000390Y-121931632D01*
X140781761Y-122049949D01*
X140734942Y-122086388D01*
X140734942Y-122086390D01*
X141434765Y-122786212D01*
X141392708Y-122797482D01*
X141267292Y-122869890D01*
X141164890Y-122972292D01*
X141092482Y-123097708D01*
X141081212Y-123139764D01*
X140381564Y-122440116D01*
X140281267Y-122593632D01*
X140181412Y-122821282D01*
X140120387Y-123062261D01*
X140120385Y-123062270D01*
X140099859Y-123309994D01*
X136610141Y-123309994D01*
X136589614Y-123062270D01*
X136589612Y-123062261D01*
X136528587Y-122821282D01*
X136428731Y-122593630D01*
X136328434Y-122440116D01*
X135628787Y-123139764D01*
X135617518Y-123097708D01*
X135545110Y-122972292D01*
X135442708Y-122869890D01*
X135317292Y-122797482D01*
X135275235Y-122786212D01*
X135975057Y-122086390D01*
X135975056Y-122086389D01*
X135928229Y-122049943D01*
X135709614Y-121931635D01*
X135709603Y-121931630D01*
X135474493Y-121850916D01*
X135229293Y-121810000D01*
X134980707Y-121810000D01*
X134735506Y-121850916D01*
X134500396Y-121931630D01*
X134500390Y-121931632D01*
X134281761Y-122049949D01*
X134234942Y-122086388D01*
X134234942Y-122086390D01*
X134934765Y-122786212D01*
X134892708Y-122797482D01*
X134767292Y-122869890D01*
X134664890Y-122972292D01*
X134592482Y-123097708D01*
X134581212Y-123139764D01*
X133881564Y-122440116D01*
X133781267Y-122593632D01*
X133681412Y-122821282D01*
X133620387Y-123062261D01*
X133620385Y-123062270D01*
X133599859Y-123309994D01*
X127373500Y-123309994D01*
X127373500Y-87749999D01*
X128057341Y-87749999D01*
X128057341Y-87750000D01*
X128077936Y-87985403D01*
X128077938Y-87985413D01*
X128139094Y-88213655D01*
X128139096Y-88213659D01*
X128139097Y-88213663D01*
X128238965Y-88427830D01*
X128238967Y-88427834D01*
X128374501Y-88621395D01*
X128374506Y-88621402D01*
X128541597Y-88788493D01*
X128541603Y-88788498D01*
X128727158Y-88918425D01*
X128770783Y-88973002D01*
X128777977Y-89042500D01*
X128746454Y-89104855D01*
X128727158Y-89121575D01*
X128541597Y-89251505D01*
X128374505Y-89418597D01*
X128238965Y-89612169D01*
X128238964Y-89612171D01*
X128139098Y-89826335D01*
X128139094Y-89826344D01*
X128077938Y-90054586D01*
X128077936Y-90054596D01*
X128057341Y-90289999D01*
X128057341Y-90290000D01*
X128077936Y-90525403D01*
X128077938Y-90525413D01*
X128139094Y-90753655D01*
X128139096Y-90753659D01*
X128139097Y-90753663D01*
X128222668Y-90932881D01*
X128238965Y-90967830D01*
X128238967Y-90967834D01*
X128374501Y-91161395D01*
X128374506Y-91161402D01*
X128541597Y-91328493D01*
X128541603Y-91328498D01*
X128727158Y-91458425D01*
X128770783Y-91513002D01*
X128777977Y-91582500D01*
X128746454Y-91644855D01*
X128727158Y-91661575D01*
X128541597Y-91791505D01*
X128374505Y-91958597D01*
X128238965Y-92152169D01*
X128238964Y-92152171D01*
X128139098Y-92366335D01*
X128139094Y-92366344D01*
X128077938Y-92594586D01*
X128077936Y-92594596D01*
X128057341Y-92829999D01*
X128057341Y-92830000D01*
X128077936Y-93065403D01*
X128077938Y-93065413D01*
X128139094Y-93293655D01*
X128139096Y-93293659D01*
X128139097Y-93293663D01*
X128163269Y-93345500D01*
X128238965Y-93507830D01*
X128238967Y-93507834D01*
X128374501Y-93701395D01*
X128374506Y-93701402D01*
X128541597Y-93868493D01*
X128541603Y-93868498D01*
X128727158Y-93998425D01*
X128770783Y-94053002D01*
X128777977Y-94122500D01*
X128746454Y-94184855D01*
X128727158Y-94201575D01*
X128541597Y-94331505D01*
X128374505Y-94498597D01*
X128238965Y-94692169D01*
X128238964Y-94692171D01*
X128139098Y-94906335D01*
X128139094Y-94906344D01*
X128077938Y-95134586D01*
X128077936Y-95134596D01*
X128057341Y-95369999D01*
X128057341Y-95370000D01*
X128077936Y-95605403D01*
X128077938Y-95605413D01*
X128139094Y-95833655D01*
X128139096Y-95833659D01*
X128139097Y-95833663D01*
X128176362Y-95913578D01*
X128238965Y-96047830D01*
X128238967Y-96047834D01*
X128374501Y-96241395D01*
X128374506Y-96241402D01*
X128541597Y-96408493D01*
X128541603Y-96408498D01*
X128727158Y-96538425D01*
X128770783Y-96593002D01*
X128777977Y-96662500D01*
X128746454Y-96724855D01*
X128727158Y-96741575D01*
X128541597Y-96871505D01*
X128374505Y-97038597D01*
X128238965Y-97232169D01*
X128238964Y-97232171D01*
X128139098Y-97446335D01*
X128139094Y-97446344D01*
X128077938Y-97674586D01*
X128077936Y-97674596D01*
X128057341Y-97909999D01*
X128057341Y-97910000D01*
X128077936Y-98145403D01*
X128077938Y-98145413D01*
X128139094Y-98373655D01*
X128139096Y-98373659D01*
X128139097Y-98373663D01*
X128176790Y-98454495D01*
X128238965Y-98587830D01*
X128238967Y-98587834D01*
X128374501Y-98781395D01*
X128374506Y-98781402D01*
X128541597Y-98948493D01*
X128541603Y-98948498D01*
X128727158Y-99078425D01*
X128770783Y-99133002D01*
X128777977Y-99202500D01*
X128746454Y-99264855D01*
X128727158Y-99281575D01*
X128541597Y-99411505D01*
X128374505Y-99578597D01*
X128238965Y-99772169D01*
X128238964Y-99772171D01*
X128139098Y-99986335D01*
X128139094Y-99986344D01*
X128077938Y-100214586D01*
X128077936Y-100214596D01*
X128057341Y-100449999D01*
X128057341Y-100450000D01*
X128077936Y-100685403D01*
X128077938Y-100685413D01*
X128139094Y-100913655D01*
X128139096Y-100913659D01*
X128139097Y-100913663D01*
X128156779Y-100951582D01*
X128238965Y-101127830D01*
X128238967Y-101127834D01*
X128374501Y-101321395D01*
X128374506Y-101321402D01*
X128541597Y-101488493D01*
X128541603Y-101488498D01*
X128727158Y-101618425D01*
X128770783Y-101673002D01*
X128777977Y-101742500D01*
X128746454Y-101804855D01*
X128727158Y-101821575D01*
X128541597Y-101951505D01*
X128374505Y-102118597D01*
X128238965Y-102312169D01*
X128238964Y-102312171D01*
X128139098Y-102526335D01*
X128139094Y-102526344D01*
X128077938Y-102754586D01*
X128077936Y-102754596D01*
X128057341Y-102989999D01*
X128057341Y-102990000D01*
X128077936Y-103225403D01*
X128077938Y-103225413D01*
X128139094Y-103453655D01*
X128139096Y-103453659D01*
X128139097Y-103453663D01*
X128176362Y-103533578D01*
X128238965Y-103667830D01*
X128238967Y-103667834D01*
X128374501Y-103861395D01*
X128374506Y-103861402D01*
X128541597Y-104028493D01*
X128541603Y-104028498D01*
X128727158Y-104158425D01*
X128770783Y-104213002D01*
X128777977Y-104282500D01*
X128746454Y-104344855D01*
X128727158Y-104361575D01*
X128541597Y-104491505D01*
X128374505Y-104658597D01*
X128238965Y-104852169D01*
X128238964Y-104852171D01*
X128139098Y-105066335D01*
X128139094Y-105066344D01*
X128077938Y-105294586D01*
X128077936Y-105294596D01*
X128057341Y-105529999D01*
X128057341Y-105530000D01*
X128077936Y-105765403D01*
X128077938Y-105765413D01*
X128139094Y-105993655D01*
X128139096Y-105993659D01*
X128139097Y-105993663D01*
X128190139Y-106103123D01*
X128238965Y-106207830D01*
X128238967Y-106207834D01*
X128374501Y-106401395D01*
X128374506Y-106401402D01*
X128541597Y-106568493D01*
X128541603Y-106568498D01*
X128727158Y-106698425D01*
X128770783Y-106753002D01*
X128777977Y-106822500D01*
X128746454Y-106884855D01*
X128727158Y-106901575D01*
X128541597Y-107031505D01*
X128374505Y-107198597D01*
X128238965Y-107392169D01*
X128238964Y-107392171D01*
X128139098Y-107606335D01*
X128139094Y-107606344D01*
X128077938Y-107834586D01*
X128077936Y-107834596D01*
X128057341Y-108069999D01*
X128057341Y-108070000D01*
X128077936Y-108305403D01*
X128077938Y-108305413D01*
X128139094Y-108533655D01*
X128139096Y-108533659D01*
X128139097Y-108533663D01*
X128238965Y-108747830D01*
X128238967Y-108747834D01*
X128374501Y-108941395D01*
X128374506Y-108941402D01*
X128541597Y-109108493D01*
X128541603Y-109108498D01*
X128727158Y-109238425D01*
X128770783Y-109293002D01*
X128777977Y-109362500D01*
X128746454Y-109424855D01*
X128727158Y-109441575D01*
X128541597Y-109571505D01*
X128374505Y-109738597D01*
X128238965Y-109932169D01*
X128238964Y-109932171D01*
X128139098Y-110146335D01*
X128139094Y-110146344D01*
X128077938Y-110374586D01*
X128077936Y-110374596D01*
X128057341Y-110609999D01*
X128057341Y-110610000D01*
X128077936Y-110845403D01*
X128077938Y-110845413D01*
X128139094Y-111073655D01*
X128139096Y-111073659D01*
X128139097Y-111073663D01*
X128152398Y-111102187D01*
X128238965Y-111287830D01*
X128238967Y-111287834D01*
X128374501Y-111481395D01*
X128374506Y-111481402D01*
X128541597Y-111648493D01*
X128541603Y-111648498D01*
X128727158Y-111778425D01*
X128770783Y-111833002D01*
X128777977Y-111902500D01*
X128746454Y-111964855D01*
X128727158Y-111981575D01*
X128541597Y-112111505D01*
X128374505Y-112278597D01*
X128238965Y-112472169D01*
X128238964Y-112472171D01*
X128139098Y-112686335D01*
X128139094Y-112686344D01*
X128077938Y-112914586D01*
X128077936Y-112914596D01*
X128057341Y-113149999D01*
X128057341Y-113150000D01*
X128077936Y-113385403D01*
X128077938Y-113385413D01*
X128139094Y-113613655D01*
X128139096Y-113613659D01*
X128139097Y-113613663D01*
X128158009Y-113654219D01*
X128238965Y-113827830D01*
X128238967Y-113827834D01*
X128374501Y-114021395D01*
X128374506Y-114021402D01*
X128541597Y-114188493D01*
X128541603Y-114188498D01*
X128727158Y-114318425D01*
X128770783Y-114373002D01*
X128777977Y-114442500D01*
X128746454Y-114504855D01*
X128727158Y-114521575D01*
X128541597Y-114651505D01*
X128374505Y-114818597D01*
X128238965Y-115012169D01*
X128238964Y-115012171D01*
X128139098Y-115226335D01*
X128139094Y-115226344D01*
X128077938Y-115454586D01*
X128077936Y-115454596D01*
X128057341Y-115689999D01*
X128057341Y-115690000D01*
X128077936Y-115925403D01*
X128077938Y-115925413D01*
X128139094Y-116153655D01*
X128139096Y-116153659D01*
X128139097Y-116153663D01*
X128238965Y-116367830D01*
X128238967Y-116367834D01*
X128374501Y-116561395D01*
X128374506Y-116561402D01*
X128541597Y-116728493D01*
X128541603Y-116728498D01*
X128727158Y-116858425D01*
X128770783Y-116913002D01*
X128777977Y-116982500D01*
X128746454Y-117044855D01*
X128727158Y-117061575D01*
X128541597Y-117191505D01*
X128374505Y-117358597D01*
X128238965Y-117552169D01*
X128238964Y-117552171D01*
X128139098Y-117766335D01*
X128139094Y-117766344D01*
X128077938Y-117994586D01*
X128077936Y-117994596D01*
X128057341Y-118229999D01*
X128057341Y-118230000D01*
X128077936Y-118465403D01*
X128077938Y-118465413D01*
X128139094Y-118693655D01*
X128139096Y-118693659D01*
X128139097Y-118693663D01*
X128238965Y-118907830D01*
X128238967Y-118907834D01*
X128343984Y-119057812D01*
X128374505Y-119101401D01*
X128541599Y-119268495D01*
X128584995Y-119298881D01*
X128735165Y-119404032D01*
X128735167Y-119404033D01*
X128735170Y-119404035D01*
X128949337Y-119503903D01*
X129177592Y-119565063D01*
X129365918Y-119581539D01*
X129412999Y-119585659D01*
X129413000Y-119585659D01*
X129413001Y-119585659D01*
X129452234Y-119582226D01*
X129648408Y-119565063D01*
X129876663Y-119503903D01*
X130090830Y-119404035D01*
X130284401Y-119268495D01*
X130451495Y-119101401D01*
X130587035Y-118907830D01*
X130632657Y-118809994D01*
X133599357Y-118809994D01*
X133599357Y-118810005D01*
X133619890Y-119057812D01*
X133619892Y-119057824D01*
X133680936Y-119298881D01*
X133780826Y-119526606D01*
X133916833Y-119734782D01*
X133916836Y-119734785D01*
X134085256Y-119917738D01*
X134281491Y-120070474D01*
X134500190Y-120188828D01*
X134735386Y-120269571D01*
X134980665Y-120310500D01*
X135229335Y-120310500D01*
X135474614Y-120269571D01*
X135709810Y-120188828D01*
X135928509Y-120070474D01*
X136124744Y-119917738D01*
X136293164Y-119734785D01*
X136429173Y-119526607D01*
X136529063Y-119298881D01*
X136590108Y-119057821D01*
X136590109Y-119057812D01*
X136610643Y-118810005D01*
X136610643Y-118809994D01*
X140099357Y-118809994D01*
X140099357Y-118810005D01*
X140119890Y-119057812D01*
X140119892Y-119057824D01*
X140180936Y-119298881D01*
X140280826Y-119526606D01*
X140416833Y-119734782D01*
X140416836Y-119734785D01*
X140585256Y-119917738D01*
X140781491Y-120070474D01*
X141000190Y-120188828D01*
X141235386Y-120269571D01*
X141480665Y-120310500D01*
X141729335Y-120310500D01*
X141974614Y-120269571D01*
X142209810Y-120188828D01*
X142428509Y-120070474D01*
X142624744Y-119917738D01*
X142793164Y-119734785D01*
X142929173Y-119526607D01*
X143029063Y-119298881D01*
X143090108Y-119057821D01*
X143090109Y-119057812D01*
X143110643Y-118810005D01*
X143110643Y-118809994D01*
X143759357Y-118809994D01*
X143759357Y-118810005D01*
X143779890Y-119057812D01*
X143779892Y-119057824D01*
X143840936Y-119298881D01*
X143940826Y-119526606D01*
X144076833Y-119734782D01*
X144076836Y-119734785D01*
X144245256Y-119917738D01*
X144441491Y-120070474D01*
X144660190Y-120188828D01*
X144895386Y-120269571D01*
X145140665Y-120310500D01*
X145389335Y-120310500D01*
X145634614Y-120269571D01*
X145869810Y-120188828D01*
X146088509Y-120070474D01*
X146284744Y-119917738D01*
X146453164Y-119734785D01*
X146589173Y-119526607D01*
X146689063Y-119298881D01*
X146750108Y-119057821D01*
X146750109Y-119057812D01*
X146770643Y-118810005D01*
X146770643Y-118809994D01*
X150259357Y-118809994D01*
X150259357Y-118810005D01*
X150279890Y-119057812D01*
X150279892Y-119057824D01*
X150340936Y-119298881D01*
X150440826Y-119526606D01*
X150576833Y-119734782D01*
X150576836Y-119734785D01*
X150745256Y-119917738D01*
X150941491Y-120070474D01*
X151160190Y-120188828D01*
X151395386Y-120269571D01*
X151640665Y-120310500D01*
X151889335Y-120310500D01*
X152134614Y-120269571D01*
X152369810Y-120188828D01*
X152588509Y-120070474D01*
X152784744Y-119917738D01*
X152953164Y-119734785D01*
X153089173Y-119526607D01*
X153189063Y-119298881D01*
X153250108Y-119057821D01*
X153250109Y-119057812D01*
X153270643Y-118810005D01*
X153270643Y-118809994D01*
X153815357Y-118809994D01*
X153815357Y-118810005D01*
X153835890Y-119057812D01*
X153835892Y-119057824D01*
X153896936Y-119298881D01*
X153996826Y-119526606D01*
X154132833Y-119734782D01*
X154132836Y-119734785D01*
X154301256Y-119917738D01*
X154497491Y-120070474D01*
X154716190Y-120188828D01*
X154951386Y-120269571D01*
X155196665Y-120310500D01*
X155445335Y-120310500D01*
X155690614Y-120269571D01*
X155925810Y-120188828D01*
X156144509Y-120070474D01*
X156340744Y-119917738D01*
X156509164Y-119734785D01*
X156645173Y-119526607D01*
X156745063Y-119298881D01*
X156806108Y-119057821D01*
X156806109Y-119057812D01*
X156826643Y-118810005D01*
X156826643Y-118809994D01*
X160315357Y-118809994D01*
X160315357Y-118810005D01*
X160335890Y-119057812D01*
X160335892Y-119057824D01*
X160396936Y-119298881D01*
X160496826Y-119526606D01*
X160632833Y-119734782D01*
X160632836Y-119734785D01*
X160801256Y-119917738D01*
X160997491Y-120070474D01*
X161216190Y-120188828D01*
X161451386Y-120269571D01*
X161696665Y-120310500D01*
X161945335Y-120310500D01*
X162190614Y-120269571D01*
X162425810Y-120188828D01*
X162644509Y-120070474D01*
X162840744Y-119917738D01*
X163009164Y-119734785D01*
X163145173Y-119526607D01*
X163245063Y-119298881D01*
X163306108Y-119057821D01*
X163306109Y-119057812D01*
X163326643Y-118810005D01*
X163326643Y-118809994D01*
X163975357Y-118809994D01*
X163975357Y-118810005D01*
X163995890Y-119057812D01*
X163995892Y-119057824D01*
X164056936Y-119298881D01*
X164156826Y-119526606D01*
X164292833Y-119734782D01*
X164292836Y-119734785D01*
X164461256Y-119917738D01*
X164657491Y-120070474D01*
X164876190Y-120188828D01*
X165111386Y-120269571D01*
X165356665Y-120310500D01*
X165605335Y-120310500D01*
X165850614Y-120269571D01*
X166085810Y-120188828D01*
X166304509Y-120070474D01*
X166500744Y-119917738D01*
X166669164Y-119734785D01*
X166805173Y-119526607D01*
X166905063Y-119298881D01*
X166966108Y-119057821D01*
X166966109Y-119057812D01*
X166986643Y-118810005D01*
X166986643Y-118809994D01*
X166966109Y-118562187D01*
X166966107Y-118562175D01*
X166905063Y-118321118D01*
X166805173Y-118093393D01*
X166669166Y-117885217D01*
X166647557Y-117861744D01*
X166500744Y-117702262D01*
X166304509Y-117549526D01*
X166304507Y-117549525D01*
X166304506Y-117549524D01*
X166085811Y-117431172D01*
X166085802Y-117431169D01*
X165850616Y-117350429D01*
X165605335Y-117309500D01*
X165356665Y-117309500D01*
X165111383Y-117350429D01*
X164876197Y-117431169D01*
X164876188Y-117431172D01*
X164657493Y-117549524D01*
X164461257Y-117702261D01*
X164292833Y-117885217D01*
X164156826Y-118093393D01*
X164056936Y-118321118D01*
X163995892Y-118562175D01*
X163995890Y-118562187D01*
X163975357Y-118809994D01*
X163326643Y-118809994D01*
X163306109Y-118562187D01*
X163306107Y-118562175D01*
X163245063Y-118321118D01*
X163145173Y-118093393D01*
X163009166Y-117885217D01*
X162987557Y-117861744D01*
X162840744Y-117702262D01*
X162644509Y-117549526D01*
X162644507Y-117549525D01*
X162644506Y-117549524D01*
X162425811Y-117431172D01*
X162425802Y-117431169D01*
X162190616Y-117350429D01*
X161945335Y-117309500D01*
X161696665Y-117309500D01*
X161451383Y-117350429D01*
X161216197Y-117431169D01*
X161216188Y-117431172D01*
X160997493Y-117549524D01*
X160801257Y-117702261D01*
X160632833Y-117885217D01*
X160496826Y-118093393D01*
X160396936Y-118321118D01*
X160335892Y-118562175D01*
X160335890Y-118562187D01*
X160315357Y-118809994D01*
X156826643Y-118809994D01*
X156806109Y-118562187D01*
X156806107Y-118562175D01*
X156745063Y-118321118D01*
X156645173Y-118093393D01*
X156509166Y-117885217D01*
X156487557Y-117861744D01*
X156340744Y-117702262D01*
X156144509Y-117549526D01*
X156144507Y-117549525D01*
X156144506Y-117549524D01*
X155925811Y-117431172D01*
X155925802Y-117431169D01*
X155690616Y-117350429D01*
X155445335Y-117309500D01*
X155196665Y-117309500D01*
X154951383Y-117350429D01*
X154716197Y-117431169D01*
X154716188Y-117431172D01*
X154497493Y-117549524D01*
X154301257Y-117702261D01*
X154132833Y-117885217D01*
X153996826Y-118093393D01*
X153896936Y-118321118D01*
X153835892Y-118562175D01*
X153835890Y-118562187D01*
X153815357Y-118809994D01*
X153270643Y-118809994D01*
X153250109Y-118562187D01*
X153250107Y-118562175D01*
X153189063Y-118321118D01*
X153089173Y-118093393D01*
X152953166Y-117885217D01*
X152931557Y-117861744D01*
X152784744Y-117702262D01*
X152588509Y-117549526D01*
X152588507Y-117549525D01*
X152588506Y-117549524D01*
X152369811Y-117431172D01*
X152369802Y-117431169D01*
X152134616Y-117350429D01*
X151889335Y-117309500D01*
X151640665Y-117309500D01*
X151395383Y-117350429D01*
X151160197Y-117431169D01*
X151160188Y-117431172D01*
X150941493Y-117549524D01*
X150745257Y-117702261D01*
X150576833Y-117885217D01*
X150440826Y-118093393D01*
X150340936Y-118321118D01*
X150279892Y-118562175D01*
X150279890Y-118562187D01*
X150259357Y-118809994D01*
X146770643Y-118809994D01*
X146750109Y-118562187D01*
X146750107Y-118562175D01*
X146689063Y-118321118D01*
X146589173Y-118093393D01*
X146453166Y-117885217D01*
X146431557Y-117861744D01*
X146284744Y-117702262D01*
X146088509Y-117549526D01*
X146088507Y-117549525D01*
X146088506Y-117549524D01*
X145869811Y-117431172D01*
X145869802Y-117431169D01*
X145634616Y-117350429D01*
X145389335Y-117309500D01*
X145140665Y-117309500D01*
X144895383Y-117350429D01*
X144660197Y-117431169D01*
X144660188Y-117431172D01*
X144441493Y-117549524D01*
X144245257Y-117702261D01*
X144076833Y-117885217D01*
X143940826Y-118093393D01*
X143840936Y-118321118D01*
X143779892Y-118562175D01*
X143779890Y-118562187D01*
X143759357Y-118809994D01*
X143110643Y-118809994D01*
X143090109Y-118562187D01*
X143090107Y-118562175D01*
X143029063Y-118321118D01*
X142929173Y-118093393D01*
X142793166Y-117885217D01*
X142771557Y-117861744D01*
X142624744Y-117702262D01*
X142428509Y-117549526D01*
X142428507Y-117549525D01*
X142428506Y-117549524D01*
X142209811Y-117431172D01*
X142209802Y-117431169D01*
X141974616Y-117350429D01*
X141729335Y-117309500D01*
X141480665Y-117309500D01*
X141235383Y-117350429D01*
X141000197Y-117431169D01*
X141000188Y-117431172D01*
X140781493Y-117549524D01*
X140585257Y-117702261D01*
X140416833Y-117885217D01*
X140280826Y-118093393D01*
X140180936Y-118321118D01*
X140119892Y-118562175D01*
X140119890Y-118562187D01*
X140099357Y-118809994D01*
X136610643Y-118809994D01*
X136590109Y-118562187D01*
X136590107Y-118562175D01*
X136529063Y-118321118D01*
X136429173Y-118093393D01*
X136293166Y-117885217D01*
X136271557Y-117861744D01*
X136124744Y-117702262D01*
X135928509Y-117549526D01*
X135928507Y-117549525D01*
X135928506Y-117549524D01*
X135709811Y-117431172D01*
X135709802Y-117431169D01*
X135474616Y-117350429D01*
X135229335Y-117309500D01*
X134980665Y-117309500D01*
X134735383Y-117350429D01*
X134500197Y-117431169D01*
X134500188Y-117431172D01*
X134281493Y-117549524D01*
X134085257Y-117702261D01*
X133916833Y-117885217D01*
X133780826Y-118093393D01*
X133680936Y-118321118D01*
X133619892Y-118562175D01*
X133619890Y-118562187D01*
X133599357Y-118809994D01*
X130632657Y-118809994D01*
X130686903Y-118693663D01*
X130748063Y-118465408D01*
X130768659Y-118230000D01*
X130748063Y-117994592D01*
X130686903Y-117766337D01*
X130587035Y-117552171D01*
X130451495Y-117358599D01*
X130451494Y-117358597D01*
X130284402Y-117191506D01*
X130284396Y-117191501D01*
X130098842Y-117061575D01*
X130055217Y-117006998D01*
X130048023Y-116937500D01*
X130079546Y-116875145D01*
X130098842Y-116858425D01*
X130121026Y-116842891D01*
X130284401Y-116728495D01*
X130451495Y-116561401D01*
X130587035Y-116367830D01*
X130686903Y-116153663D01*
X130748063Y-115925408D01*
X130768659Y-115690000D01*
X130748063Y-115454592D01*
X130686903Y-115226337D01*
X130587035Y-115012171D01*
X130451495Y-114818599D01*
X130451494Y-114818597D01*
X130284402Y-114651506D01*
X130284396Y-114651501D01*
X130098842Y-114521575D01*
X130055217Y-114466998D01*
X130048023Y-114397500D01*
X130079546Y-114335145D01*
X130098842Y-114318425D01*
X130121026Y-114302891D01*
X130284401Y-114188495D01*
X130451495Y-114021401D01*
X130587035Y-113827830D01*
X130686903Y-113613663D01*
X130748063Y-113385408D01*
X130768659Y-113150000D01*
X130748063Y-112914592D01*
X130695000Y-112716554D01*
X130686905Y-112686344D01*
X130686904Y-112686343D01*
X130686903Y-112686337D01*
X130587035Y-112472171D01*
X130576989Y-112457823D01*
X130451494Y-112278597D01*
X130284402Y-112111506D01*
X130284396Y-112111501D01*
X130098842Y-111981575D01*
X130055217Y-111926998D01*
X130048023Y-111857500D01*
X130079546Y-111795145D01*
X130098842Y-111778425D01*
X130168211Y-111729852D01*
X130284401Y-111648495D01*
X130451495Y-111481401D01*
X130587035Y-111287830D01*
X130686903Y-111073663D01*
X130748063Y-110845408D01*
X130768659Y-110610000D01*
X130748063Y-110374592D01*
X130686903Y-110146337D01*
X130587035Y-109932171D01*
X130570828Y-109909024D01*
X130451494Y-109738597D01*
X130284402Y-109571506D01*
X130284396Y-109571501D01*
X130098842Y-109441575D01*
X130055217Y-109386998D01*
X130048023Y-109317500D01*
X130079546Y-109255145D01*
X130098842Y-109238425D01*
X130236295Y-109142179D01*
X130284401Y-109108495D01*
X130451495Y-108941401D01*
X130587035Y-108747830D01*
X130686903Y-108533663D01*
X130748063Y-108305408D01*
X130768659Y-108070000D01*
X130748063Y-107834592D01*
X130686903Y-107606337D01*
X130587035Y-107392171D01*
X130524081Y-107302262D01*
X130451494Y-107198597D01*
X130284402Y-107031506D01*
X130284396Y-107031501D01*
X130098842Y-106901575D01*
X130055217Y-106846998D01*
X130048023Y-106777500D01*
X130079546Y-106715145D01*
X130098842Y-106698425D01*
X130121026Y-106682891D01*
X130284401Y-106568495D01*
X130451495Y-106401401D01*
X130587035Y-106207830D01*
X130686903Y-105993663D01*
X130748063Y-105765408D01*
X130768659Y-105530000D01*
X130748063Y-105294592D01*
X130686903Y-105066337D01*
X130587035Y-104852171D01*
X130566829Y-104823313D01*
X130451494Y-104658597D01*
X130284402Y-104491506D01*
X130284396Y-104491501D01*
X130098842Y-104361575D01*
X130055217Y-104306998D01*
X130048023Y-104237500D01*
X130079546Y-104175145D01*
X130098842Y-104158425D01*
X130275369Y-104034819D01*
X130284401Y-104028495D01*
X130451495Y-103861401D01*
X130587035Y-103667830D01*
X130686903Y-103453663D01*
X130695457Y-103421736D01*
X130731819Y-103362077D01*
X130794665Y-103331546D01*
X130864040Y-103339838D01*
X130902913Y-103366147D01*
X134664181Y-107127415D01*
X134697666Y-107188738D01*
X134700500Y-107215096D01*
X134700500Y-108968114D01*
X134680815Y-109035153D01*
X134640929Y-109074062D01*
X134538782Y-109136178D01*
X134323941Y-109310965D01*
X134134907Y-109513372D01*
X134134904Y-109513374D01*
X134134903Y-109513377D01*
X134130668Y-109519377D01*
X133975186Y-109739643D01*
X133918263Y-109849500D01*
X133850548Y-109980184D01*
X133847763Y-109985558D01*
X133847760Y-109985564D01*
X133757468Y-110239622D01*
X133716470Y-110296199D01*
X133651392Y-110321629D01*
X133582897Y-110307838D01*
X133549401Y-110282082D01*
X133512744Y-110242262D01*
X133316509Y-110089526D01*
X133316507Y-110089525D01*
X133316506Y-110089524D01*
X133097811Y-109971172D01*
X133097802Y-109971169D01*
X132862616Y-109890429D01*
X132617335Y-109849500D01*
X132368665Y-109849500D01*
X132123383Y-109890429D01*
X131888197Y-109971169D01*
X131888188Y-109971172D01*
X131669493Y-110089524D01*
X131473257Y-110242261D01*
X131304833Y-110425217D01*
X131168826Y-110633393D01*
X131068936Y-110861118D01*
X131007892Y-111102175D01*
X131007890Y-111102187D01*
X130987357Y-111349994D01*
X130987357Y-111350005D01*
X131007890Y-111597812D01*
X131007892Y-111597824D01*
X131068936Y-111838881D01*
X131168826Y-112066606D01*
X131304833Y-112274782D01*
X131337245Y-112309991D01*
X131473256Y-112457738D01*
X131669491Y-112610474D01*
X131778840Y-112669651D01*
X131865498Y-112716548D01*
X131888190Y-112728828D01*
X132123386Y-112809571D01*
X132368665Y-112850500D01*
X132617335Y-112850500D01*
X132862614Y-112809571D01*
X133097810Y-112728828D01*
X133316509Y-112610474D01*
X133512744Y-112457738D01*
X133681164Y-112274785D01*
X133817173Y-112066607D01*
X133848561Y-111995049D01*
X133893514Y-111941567D01*
X133960249Y-111920876D01*
X134027578Y-111939550D01*
X134063418Y-111973352D01*
X134134903Y-112074623D01*
X134323942Y-112277035D01*
X134538782Y-112451821D01*
X134538784Y-112451822D01*
X134538785Y-112451823D01*
X134775423Y-112595725D01*
X134948917Y-112671083D01*
X135029452Y-112706065D01*
X135296141Y-112780788D01*
X135537364Y-112813942D01*
X135570519Y-112818500D01*
X135570520Y-112818500D01*
X135847481Y-112818500D01*
X135877061Y-112814434D01*
X136121859Y-112780788D01*
X136388548Y-112706065D01*
X136414365Y-112694850D01*
X136483695Y-112686194D01*
X136487914Y-112686957D01*
X136495671Y-112688500D01*
X142038022Y-112688500D01*
X142105061Y-112708185D01*
X142150816Y-112760989D01*
X142160760Y-112830147D01*
X142157798Y-112844585D01*
X142156214Y-112850500D01*
X142134930Y-112929930D01*
X142134929Y-112929937D01*
X142115677Y-113149997D01*
X142115677Y-113150002D01*
X142134929Y-113370062D01*
X142134930Y-113370070D01*
X142192104Y-113583445D01*
X142192105Y-113583447D01*
X142192106Y-113583450D01*
X142206195Y-113613664D01*
X142285466Y-113783662D01*
X142285468Y-113783666D01*
X142412170Y-113964615D01*
X142412175Y-113964621D01*
X142568378Y-114120824D01*
X142568384Y-114120829D01*
X142749333Y-114247531D01*
X142749335Y-114247532D01*
X142749338Y-114247534D01*
X142949550Y-114340894D01*
X143162932Y-114398070D01*
X143320123Y-114411822D01*
X143382998Y-114417323D01*
X143383000Y-114417323D01*
X143383002Y-114417323D01*
X143438017Y-114412509D01*
X143603068Y-114398070D01*
X143816450Y-114340894D01*
X144016662Y-114247534D01*
X144197620Y-114120826D01*
X144353826Y-113964620D01*
X144480534Y-113783662D01*
X144540618Y-113654811D01*
X144586790Y-113602371D01*
X144653983Y-113583219D01*
X144720865Y-113603435D01*
X144765382Y-113654811D01*
X144825464Y-113783658D01*
X144825468Y-113783666D01*
X144952170Y-113964615D01*
X144952175Y-113964621D01*
X145108378Y-114120824D01*
X145108384Y-114120829D01*
X145289333Y-114247531D01*
X145289335Y-114247532D01*
X145289338Y-114247534D01*
X145489550Y-114340894D01*
X145702932Y-114398070D01*
X145860123Y-114411822D01*
X145922998Y-114417323D01*
X145923000Y-114417323D01*
X145923002Y-114417323D01*
X145978017Y-114412509D01*
X146143068Y-114398070D01*
X146356450Y-114340894D01*
X146556662Y-114247534D01*
X146737620Y-114120826D01*
X146893826Y-113964620D01*
X147020534Y-113783662D01*
X147080618Y-113654811D01*
X147126790Y-113602371D01*
X147193983Y-113583219D01*
X147260865Y-113603435D01*
X147305382Y-113654811D01*
X147365464Y-113783658D01*
X147365468Y-113783666D01*
X147492170Y-113964615D01*
X147492175Y-113964621D01*
X147648378Y-114120824D01*
X147648384Y-114120829D01*
X147829333Y-114247531D01*
X147829335Y-114247532D01*
X147829338Y-114247534D01*
X148029550Y-114340894D01*
X148242932Y-114398070D01*
X148400123Y-114411822D01*
X148462998Y-114417323D01*
X148463000Y-114417323D01*
X148463002Y-114417323D01*
X148518017Y-114412509D01*
X148683068Y-114398070D01*
X148896450Y-114340894D01*
X149096662Y-114247534D01*
X149277620Y-114120826D01*
X149433826Y-113964620D01*
X149560534Y-113783662D01*
X149620618Y-113654811D01*
X149666790Y-113602371D01*
X149733983Y-113583219D01*
X149800865Y-113603435D01*
X149845382Y-113654811D01*
X149905464Y-113783658D01*
X149905468Y-113783666D01*
X150032170Y-113964615D01*
X150032175Y-113964621D01*
X150188378Y-114120824D01*
X150188384Y-114120829D01*
X150369333Y-114247531D01*
X150369335Y-114247532D01*
X150369338Y-114247534D01*
X150569550Y-114340894D01*
X150782932Y-114398070D01*
X150940123Y-114411822D01*
X151002998Y-114417323D01*
X151003000Y-114417323D01*
X151003002Y-114417323D01*
X151058017Y-114412509D01*
X151223068Y-114398070D01*
X151436450Y-114340894D01*
X151636662Y-114247534D01*
X151817620Y-114120826D01*
X151973826Y-113964620D01*
X152100534Y-113783662D01*
X152160618Y-113654811D01*
X152206790Y-113602371D01*
X152273983Y-113583219D01*
X152340865Y-113603435D01*
X152385382Y-113654811D01*
X152445464Y-113783658D01*
X152445468Y-113783666D01*
X152572170Y-113964615D01*
X152572175Y-113964621D01*
X152728378Y-114120824D01*
X152728384Y-114120829D01*
X152909333Y-114247531D01*
X152909335Y-114247532D01*
X152909338Y-114247534D01*
X153109550Y-114340894D01*
X153322932Y-114398070D01*
X153480123Y-114411822D01*
X153542998Y-114417323D01*
X153543000Y-114417323D01*
X153543002Y-114417323D01*
X153598017Y-114412509D01*
X153763068Y-114398070D01*
X153976450Y-114340894D01*
X154176662Y-114247534D01*
X154357620Y-114120826D01*
X154513826Y-113964620D01*
X154640534Y-113783662D01*
X154700894Y-113654218D01*
X154747066Y-113601779D01*
X154814259Y-113582627D01*
X154881141Y-113602843D01*
X154925658Y-113654219D01*
X154985898Y-113783405D01*
X154985901Y-113783411D01*
X155031258Y-113848187D01*
X155031259Y-113848188D01*
X155702000Y-113177447D01*
X155702000Y-113200160D01*
X155727964Y-113297061D01*
X155778124Y-113383940D01*
X155849060Y-113454876D01*
X155935939Y-113505036D01*
X156032840Y-113531000D01*
X156055553Y-113531000D01*
X155384810Y-114201740D01*
X155449590Y-114247099D01*
X155449592Y-114247100D01*
X155649715Y-114340419D01*
X155649729Y-114340424D01*
X155863013Y-114397573D01*
X155863023Y-114397575D01*
X156082999Y-114416821D01*
X156083001Y-114416821D01*
X156302976Y-114397575D01*
X156302986Y-114397573D01*
X156516270Y-114340424D01*
X156516284Y-114340419D01*
X156716407Y-114247100D01*
X156716417Y-114247094D01*
X156781188Y-114201741D01*
X156110448Y-113531000D01*
X156133160Y-113531000D01*
X156230061Y-113505036D01*
X156316940Y-113454876D01*
X156387876Y-113383940D01*
X156438036Y-113297061D01*
X156464000Y-113200160D01*
X156464000Y-113177447D01*
X157134741Y-113848188D01*
X157180094Y-113783417D01*
X157180095Y-113783416D01*
X157240340Y-113654219D01*
X157286512Y-113601780D01*
X157353706Y-113582627D01*
X157420587Y-113602842D01*
X157465105Y-113654218D01*
X157525466Y-113783662D01*
X157525468Y-113783666D01*
X157652170Y-113964615D01*
X157652175Y-113964621D01*
X157808378Y-114120824D01*
X157808384Y-114120829D01*
X157989333Y-114247531D01*
X157989335Y-114247532D01*
X157989338Y-114247534D01*
X158189550Y-114340894D01*
X158402932Y-114398070D01*
X158560123Y-114411822D01*
X158622998Y-114417323D01*
X158623000Y-114417323D01*
X158623002Y-114417323D01*
X158678017Y-114412509D01*
X158843068Y-114398070D01*
X159056450Y-114340894D01*
X159256662Y-114247534D01*
X159437620Y-114120826D01*
X159593826Y-113964620D01*
X159720534Y-113783662D01*
X159780618Y-113654811D01*
X159826790Y-113602371D01*
X159893983Y-113583219D01*
X159960865Y-113603435D01*
X160005382Y-113654811D01*
X160065464Y-113783658D01*
X160065468Y-113783666D01*
X160192170Y-113964615D01*
X160192175Y-113964621D01*
X160348378Y-114120824D01*
X160348384Y-114120829D01*
X160529333Y-114247531D01*
X160529335Y-114247532D01*
X160529338Y-114247534D01*
X160729550Y-114340894D01*
X160942932Y-114398070D01*
X161100123Y-114411822D01*
X161162998Y-114417323D01*
X161163000Y-114417323D01*
X161163002Y-114417323D01*
X161218017Y-114412509D01*
X161383068Y-114398070D01*
X161596450Y-114340894D01*
X161796662Y-114247534D01*
X161977620Y-114120826D01*
X162133826Y-113964620D01*
X162260534Y-113783662D01*
X162320618Y-113654811D01*
X162366790Y-113602371D01*
X162433983Y-113583219D01*
X162500865Y-113603435D01*
X162545382Y-113654811D01*
X162605464Y-113783658D01*
X162605468Y-113783666D01*
X162732170Y-113964615D01*
X162732175Y-113964621D01*
X162888378Y-114120824D01*
X162888384Y-114120829D01*
X163069333Y-114247531D01*
X163069335Y-114247532D01*
X163069338Y-114247534D01*
X163269550Y-114340894D01*
X163482932Y-114398070D01*
X163640123Y-114411822D01*
X163702998Y-114417323D01*
X163703000Y-114417323D01*
X163703002Y-114417323D01*
X163758017Y-114412509D01*
X163923068Y-114398070D01*
X164136450Y-114340894D01*
X164336662Y-114247534D01*
X164517620Y-114120826D01*
X164673826Y-113964620D01*
X164800534Y-113783662D01*
X164893894Y-113583450D01*
X164951070Y-113370068D01*
X164970323Y-113150000D01*
X164951070Y-112929932D01*
X164893894Y-112716550D01*
X164800534Y-112516339D01*
X164673826Y-112335380D01*
X164517620Y-112179174D01*
X164517616Y-112179171D01*
X164517615Y-112179170D01*
X164336666Y-112052468D01*
X164336662Y-112052466D01*
X164336660Y-112052465D01*
X164136450Y-111959106D01*
X164136447Y-111959105D01*
X164136445Y-111959104D01*
X163923070Y-111901930D01*
X163923062Y-111901929D01*
X163703002Y-111882677D01*
X163702998Y-111882677D01*
X163482937Y-111901929D01*
X163482929Y-111901930D01*
X163269554Y-111959104D01*
X163269548Y-111959107D01*
X163069340Y-112052465D01*
X163069338Y-112052466D01*
X162888377Y-112179175D01*
X162732175Y-112335377D01*
X162605466Y-112516338D01*
X162605465Y-112516340D01*
X162545382Y-112645189D01*
X162499209Y-112697628D01*
X162432016Y-112716780D01*
X162365135Y-112696564D01*
X162320618Y-112645189D01*
X162260651Y-112516590D01*
X162260534Y-112516339D01*
X162133826Y-112335380D01*
X161977620Y-112179174D01*
X161977616Y-112179171D01*
X161977615Y-112179170D01*
X161796666Y-112052468D01*
X161796662Y-112052466D01*
X161796660Y-112052465D01*
X161596450Y-111959106D01*
X161596447Y-111959105D01*
X161596445Y-111959104D01*
X161383070Y-111901930D01*
X161383062Y-111901929D01*
X161163002Y-111882677D01*
X161162998Y-111882677D01*
X160942937Y-111901929D01*
X160942929Y-111901930D01*
X160729554Y-111959104D01*
X160729548Y-111959107D01*
X160529340Y-112052465D01*
X160529338Y-112052466D01*
X160348377Y-112179175D01*
X160192175Y-112335377D01*
X160065466Y-112516338D01*
X160065465Y-112516340D01*
X160005382Y-112645189D01*
X159959209Y-112697628D01*
X159892016Y-112716780D01*
X159825135Y-112696564D01*
X159780618Y-112645189D01*
X159720651Y-112516590D01*
X159720534Y-112516339D01*
X159593826Y-112335380D01*
X159437620Y-112179174D01*
X159437616Y-112179171D01*
X159437615Y-112179170D01*
X159256666Y-112052468D01*
X159256662Y-112052466D01*
X159256660Y-112052465D01*
X159056450Y-111959106D01*
X159056447Y-111959105D01*
X159056445Y-111959104D01*
X158843070Y-111901930D01*
X158843062Y-111901929D01*
X158623002Y-111882677D01*
X158622998Y-111882677D01*
X158402937Y-111901929D01*
X158402929Y-111901930D01*
X158189554Y-111959104D01*
X158189548Y-111959107D01*
X157989340Y-112052465D01*
X157989338Y-112052466D01*
X157808377Y-112179175D01*
X157652175Y-112335377D01*
X157525467Y-112516337D01*
X157465105Y-112645782D01*
X157418932Y-112698221D01*
X157351738Y-112717372D01*
X157284857Y-112697156D01*
X157240341Y-112645780D01*
X157180098Y-112516589D01*
X157180097Y-112516587D01*
X157134741Y-112451811D01*
X157134740Y-112451810D01*
X156464000Y-113122551D01*
X156464000Y-113099840D01*
X156438036Y-113002939D01*
X156387876Y-112916060D01*
X156316940Y-112845124D01*
X156230061Y-112794964D01*
X156133160Y-112769000D01*
X156110448Y-112769000D01*
X156781188Y-112098259D01*
X156781187Y-112098258D01*
X156716411Y-112052901D01*
X156716405Y-112052898D01*
X156516284Y-111959580D01*
X156516270Y-111959575D01*
X156302986Y-111902426D01*
X156302976Y-111902424D01*
X156083001Y-111883179D01*
X156082999Y-111883179D01*
X155863023Y-111902424D01*
X155863013Y-111902426D01*
X155649729Y-111959575D01*
X155649720Y-111959579D01*
X155449590Y-112052901D01*
X155384811Y-112098258D01*
X156055553Y-112769000D01*
X156032840Y-112769000D01*
X155935939Y-112794964D01*
X155849060Y-112845124D01*
X155778124Y-112916060D01*
X155727964Y-113002939D01*
X155702000Y-113099840D01*
X155702000Y-113122553D01*
X155031258Y-112451811D01*
X154985901Y-112516590D01*
X154925658Y-112645781D01*
X154879485Y-112698220D01*
X154812292Y-112717372D01*
X154745411Y-112697156D01*
X154700894Y-112645781D01*
X154640651Y-112516590D01*
X154640534Y-112516339D01*
X154513826Y-112335380D01*
X154357620Y-112179174D01*
X154357616Y-112179171D01*
X154357615Y-112179170D01*
X154176666Y-112052468D01*
X154176662Y-112052466D01*
X154176660Y-112052465D01*
X153976450Y-111959106D01*
X153976447Y-111959105D01*
X153976445Y-111959104D01*
X153763070Y-111901930D01*
X153763060Y-111901929D01*
X153762088Y-111901844D01*
X153761686Y-111901687D01*
X153757739Y-111900991D01*
X153757879Y-111900196D01*
X153697023Y-111876382D01*
X153685232Y-111865998D01*
X152715884Y-110896649D01*
X152715880Y-110896646D01*
X152550710Y-110786282D01*
X152550697Y-110786275D01*
X152503722Y-110766818D01*
X152503721Y-110766818D01*
X152367169Y-110710256D01*
X152367161Y-110710254D01*
X152172333Y-110671500D01*
X152172329Y-110671500D01*
X140877887Y-110671500D01*
X140810848Y-110651815D01*
X140765093Y-110599011D01*
X140755149Y-110529853D01*
X140784174Y-110466297D01*
X140790206Y-110459819D01*
X151279206Y-99970819D01*
X151340529Y-99937334D01*
X151366887Y-99934500D01*
X154524460Y-99934500D01*
X154565415Y-99941459D01*
X154633737Y-99965366D01*
X154633743Y-99965367D01*
X154633745Y-99965368D01*
X154633746Y-99965368D01*
X154633750Y-99965369D01*
X154812996Y-99985565D01*
X154813000Y-99985565D01*
X154813004Y-99985565D01*
X154992249Y-99965369D01*
X154992252Y-99965368D01*
X154992255Y-99965368D01*
X155162522Y-99905789D01*
X155315262Y-99809816D01*
X155442816Y-99682262D01*
X155538789Y-99529522D01*
X155598368Y-99359255D01*
X155598369Y-99359249D01*
X155618565Y-99180003D01*
X155618565Y-99179996D01*
X155598369Y-99000750D01*
X155598368Y-99000745D01*
X155538788Y-98830476D01*
X155485184Y-98745166D01*
X155442816Y-98677738D01*
X155315262Y-98550184D01*
X155307012Y-98545000D01*
X155162523Y-98454211D01*
X154992254Y-98394631D01*
X154992249Y-98394630D01*
X154813004Y-98374435D01*
X154812996Y-98374435D01*
X154633750Y-98394630D01*
X154633737Y-98394633D01*
X154565415Y-98418541D01*
X154524460Y-98425500D01*
X151083446Y-98425500D01*
X151083426Y-98425499D01*
X151077312Y-98425499D01*
X150928688Y-98425499D01*
X150928686Y-98425499D01*
X150807105Y-98449684D01*
X150792540Y-98452581D01*
X150782918Y-98454495D01*
X150782917Y-98454495D01*
X150726045Y-98478053D01*
X150645614Y-98511368D01*
X150522031Y-98593942D01*
X139254357Y-109861616D01*
X139228869Y-109879705D01*
X139229373Y-109880507D01*
X139070737Y-109980184D01*
X138943184Y-110107737D01*
X138847211Y-110260476D01*
X138787631Y-110430745D01*
X138787630Y-110430749D01*
X138772912Y-110561384D01*
X138745846Y-110625798D01*
X138688251Y-110665353D01*
X138649692Y-110671500D01*
X137845660Y-110671500D01*
X137778621Y-110651815D01*
X137732866Y-110599011D01*
X137721949Y-110555961D01*
X137719331Y-110517686D01*
X137719330Y-110517683D01*
X137662985Y-110246530D01*
X137662980Y-110246514D01*
X137570239Y-109985564D01*
X137570236Y-109985558D01*
X137570234Y-109985552D01*
X137442814Y-109739644D01*
X137283097Y-109513377D01*
X137094058Y-109310965D01*
X136879218Y-109136179D01*
X136879217Y-109136178D01*
X136777071Y-109074062D01*
X136730019Y-109022410D01*
X136717500Y-108968114D01*
X136717500Y-106646670D01*
X136717499Y-106646666D01*
X136678745Y-106451838D01*
X136678744Y-106451831D01*
X136630585Y-106335565D01*
X136602722Y-106268297D01*
X136562319Y-106207830D01*
X136492357Y-106103123D01*
X136492351Y-106103115D01*
X130793805Y-100404571D01*
X130760320Y-100343248D01*
X130757958Y-100327697D01*
X130748063Y-100214597D01*
X130748063Y-100214596D01*
X130748063Y-100214592D01*
X130686903Y-99986337D01*
X130587035Y-99772171D01*
X130524081Y-99682262D01*
X130451494Y-99578597D01*
X130284402Y-99411506D01*
X130284396Y-99411501D01*
X130098842Y-99281575D01*
X130055217Y-99226998D01*
X130048023Y-99157500D01*
X130079546Y-99095145D01*
X130098842Y-99078425D01*
X130209780Y-99000745D01*
X130284401Y-98948495D01*
X130451495Y-98781401D01*
X130587035Y-98587830D01*
X130686903Y-98373663D01*
X130748063Y-98145408D01*
X130768659Y-97910000D01*
X130748063Y-97674592D01*
X130686903Y-97446337D01*
X130587035Y-97232171D01*
X130451495Y-97038599D01*
X130451494Y-97038597D01*
X130284402Y-96871506D01*
X130284396Y-96871501D01*
X130098842Y-96741575D01*
X130055217Y-96686998D01*
X130048023Y-96617500D01*
X130079546Y-96555145D01*
X130098842Y-96538425D01*
X130121026Y-96522891D01*
X130284401Y-96408495D01*
X130451495Y-96241401D01*
X130587035Y-96047830D01*
X130686903Y-95833663D01*
X130748063Y-95605408D01*
X130768659Y-95370000D01*
X130748063Y-95134592D01*
X130686903Y-94906337D01*
X130587035Y-94692171D01*
X130451495Y-94498599D01*
X130451494Y-94498597D01*
X130284402Y-94331506D01*
X130284396Y-94331501D01*
X130098842Y-94201575D01*
X130055217Y-94146998D01*
X130048023Y-94077500D01*
X130079546Y-94015145D01*
X130098842Y-93998425D01*
X130121026Y-93982891D01*
X130284401Y-93868495D01*
X130451495Y-93701401D01*
X130587035Y-93507830D01*
X130686903Y-93293663D01*
X130748063Y-93065408D01*
X130768659Y-92830000D01*
X130748063Y-92594592D01*
X130686903Y-92366337D01*
X130587035Y-92152171D01*
X130553454Y-92104211D01*
X130451494Y-91958597D01*
X130284402Y-91791506D01*
X130284396Y-91791501D01*
X130098842Y-91661575D01*
X130055217Y-91606998D01*
X130048023Y-91537500D01*
X130079546Y-91475145D01*
X130098842Y-91458425D01*
X130272724Y-91336671D01*
X130284401Y-91328495D01*
X130451495Y-91161401D01*
X130587035Y-90967830D01*
X130686903Y-90753663D01*
X130748063Y-90525408D01*
X130768659Y-90290000D01*
X130748063Y-90054592D01*
X130686903Y-89826337D01*
X130587035Y-89612171D01*
X130518831Y-89514764D01*
X130451494Y-89418597D01*
X130399029Y-89366132D01*
X157087499Y-89366132D01*
X157087499Y-89520872D01*
X157087500Y-89520893D01*
X157087500Y-104669552D01*
X157087499Y-104669578D01*
X157087499Y-104823313D01*
X157106196Y-104917303D01*
X157106196Y-104917305D01*
X157116493Y-104969072D01*
X157116496Y-104969084D01*
X157135308Y-105014499D01*
X157135309Y-105014501D01*
X157173366Y-105106381D01*
X157173372Y-105106392D01*
X157255942Y-105229968D01*
X157255943Y-105229969D01*
X159144615Y-107118640D01*
X159162704Y-107144131D01*
X159163507Y-107143627D01*
X159167210Y-107149521D01*
X159167211Y-107149522D01*
X159263184Y-107302262D01*
X159390738Y-107429816D01*
X159479320Y-107485476D01*
X159549374Y-107529494D01*
X159548868Y-107530298D01*
X159574360Y-107548385D01*
X160064600Y-108038624D01*
X160064621Y-108038647D01*
X160174031Y-108148057D01*
X160204689Y-108168542D01*
X160204688Y-108168542D01*
X160297600Y-108230623D01*
X160297604Y-108230625D01*
X160297611Y-108230630D01*
X160378043Y-108263945D01*
X160378044Y-108263946D01*
X160401603Y-108273704D01*
X160434920Y-108287505D01*
X160434929Y-108287506D01*
X160434930Y-108287507D01*
X160459103Y-108292315D01*
X160459110Y-108292316D01*
X160580686Y-108316501D01*
X160580688Y-108316501D01*
X160735426Y-108316501D01*
X160735446Y-108316500D01*
X163099849Y-108316500D01*
X163166888Y-108336185D01*
X163187530Y-108352819D01*
X171763336Y-116928624D01*
X171763357Y-116928647D01*
X171872764Y-117038054D01*
X171872771Y-117038060D01*
X171939128Y-117082398D01*
X171983934Y-117136010D01*
X171992641Y-117205335D01*
X171962487Y-117268362D01*
X171903044Y-117305082D01*
X171870238Y-117309500D01*
X171856665Y-117309500D01*
X171611383Y-117350429D01*
X171376197Y-117431169D01*
X171376188Y-117431172D01*
X171157493Y-117549524D01*
X170961257Y-117702261D01*
X170792833Y-117885217D01*
X170656826Y-118093393D01*
X170556936Y-118321118D01*
X170495892Y-118562175D01*
X170495890Y-118562187D01*
X170475357Y-118809994D01*
X170475357Y-118810005D01*
X170495890Y-119057812D01*
X170495892Y-119057824D01*
X170556936Y-119298881D01*
X170656826Y-119526606D01*
X170792833Y-119734782D01*
X170792836Y-119734785D01*
X170961256Y-119917738D01*
X171157491Y-120070474D01*
X171376190Y-120188828D01*
X171611386Y-120269571D01*
X171856665Y-120310500D01*
X172105335Y-120310500D01*
X172350614Y-120269571D01*
X172585810Y-120188828D01*
X172804509Y-120070474D01*
X173000744Y-119917738D01*
X173169164Y-119734785D01*
X173305173Y-119526607D01*
X173405063Y-119298881D01*
X173466108Y-119057821D01*
X173466109Y-119057812D01*
X173486643Y-118810005D01*
X173486643Y-118809994D01*
X173466109Y-118562187D01*
X173466107Y-118562175D01*
X173405063Y-118321118D01*
X173305173Y-118093393D01*
X173169166Y-117885217D01*
X173147557Y-117861744D01*
X173000744Y-117702262D01*
X172804509Y-117549526D01*
X172804507Y-117549525D01*
X172804506Y-117549524D01*
X172601300Y-117439555D01*
X172551710Y-117390335D01*
X172536602Y-117322119D01*
X172560772Y-117256563D01*
X172616548Y-117214482D01*
X172660318Y-117206500D01*
X175531113Y-117206500D01*
X175598152Y-117226185D01*
X175618794Y-117242819D01*
X176299675Y-117923700D01*
X176333160Y-117985023D01*
X176335522Y-118022188D01*
X176317341Y-118229998D01*
X176317341Y-118230000D01*
X176337936Y-118465403D01*
X176337938Y-118465413D01*
X176399094Y-118693655D01*
X176399096Y-118693659D01*
X176399097Y-118693663D01*
X176498965Y-118907830D01*
X176498967Y-118907834D01*
X176634501Y-119101395D01*
X176634506Y-119101402D01*
X176801597Y-119268493D01*
X176801603Y-119268498D01*
X176987158Y-119398425D01*
X177030783Y-119453002D01*
X177037977Y-119522500D01*
X177006454Y-119584855D01*
X176987158Y-119601575D01*
X176801597Y-119731505D01*
X176634505Y-119898597D01*
X176498965Y-120092169D01*
X176498964Y-120092171D01*
X176399098Y-120306335D01*
X176399094Y-120306344D01*
X176337938Y-120534586D01*
X176337936Y-120534596D01*
X176317341Y-120769999D01*
X176317341Y-120770000D01*
X176337936Y-121005403D01*
X176337938Y-121005413D01*
X176399094Y-121233655D01*
X176399096Y-121233659D01*
X176399097Y-121233663D01*
X176498965Y-121447830D01*
X176498967Y-121447834D01*
X176634501Y-121641395D01*
X176634506Y-121641402D01*
X176801597Y-121808493D01*
X176801603Y-121808498D01*
X176987594Y-121938730D01*
X177031219Y-121993307D01*
X177038413Y-122062805D01*
X177006890Y-122125160D01*
X176987595Y-122141880D01*
X176801922Y-122271890D01*
X176801920Y-122271891D01*
X176634891Y-122438920D01*
X176634886Y-122438926D01*
X176499400Y-122632420D01*
X176499399Y-122632422D01*
X176399570Y-122846507D01*
X176399567Y-122846513D01*
X176342364Y-123059999D01*
X176342364Y-123060000D01*
X177239988Y-123060000D01*
X177207075Y-123117007D01*
X177173000Y-123244174D01*
X177173000Y-123375826D01*
X177207075Y-123502993D01*
X177239988Y-123560000D01*
X176342364Y-123560000D01*
X176399567Y-123773486D01*
X176399570Y-123773492D01*
X176499399Y-123987578D01*
X176634894Y-124181082D01*
X176801917Y-124348105D01*
X176995421Y-124483600D01*
X177209507Y-124583429D01*
X177209516Y-124583433D01*
X177423000Y-124640634D01*
X177423000Y-123743012D01*
X177480007Y-123775925D01*
X177607174Y-123810000D01*
X177738826Y-123810000D01*
X177865993Y-123775925D01*
X177923000Y-123743012D01*
X177923000Y-124640633D01*
X178136483Y-124583433D01*
X178136492Y-124583429D01*
X178350578Y-124483600D01*
X178544082Y-124348105D01*
X178711105Y-124181082D01*
X178846600Y-123987578D01*
X178946429Y-123773492D01*
X178946432Y-123773486D01*
X179003636Y-123560000D01*
X178106012Y-123560000D01*
X178138925Y-123502993D01*
X178173000Y-123375826D01*
X178173000Y-123244174D01*
X178138925Y-123117007D01*
X178106012Y-123060000D01*
X179003636Y-123060000D01*
X179003635Y-123059999D01*
X178946432Y-122846513D01*
X178946429Y-122846507D01*
X178846600Y-122632422D01*
X178846599Y-122632420D01*
X178711113Y-122438926D01*
X178711108Y-122438920D01*
X178544078Y-122271890D01*
X178358405Y-122141879D01*
X178314780Y-122087302D01*
X178307588Y-122017804D01*
X178339110Y-121955449D01*
X178358406Y-121938730D01*
X178368546Y-121931630D01*
X178544401Y-121808495D01*
X178711495Y-121641401D01*
X178847035Y-121447830D01*
X178946903Y-121233663D01*
X179008063Y-121005408D01*
X179028659Y-120770000D01*
X179008063Y-120534592D01*
X178961626Y-120361285D01*
X178946905Y-120306344D01*
X178946904Y-120306343D01*
X178946903Y-120306337D01*
X178847035Y-120092171D01*
X178831844Y-120070475D01*
X178711494Y-119898597D01*
X178544402Y-119731506D01*
X178544396Y-119731501D01*
X178358842Y-119601575D01*
X178315217Y-119546998D01*
X178308023Y-119477500D01*
X178339546Y-119415145D01*
X178358842Y-119398425D01*
X178501005Y-119298881D01*
X178544401Y-119268495D01*
X178711495Y-119101401D01*
X178847035Y-118907830D01*
X178946903Y-118693663D01*
X179008063Y-118465408D01*
X179028659Y-118230000D01*
X179008063Y-117994592D01*
X178946903Y-117766337D01*
X178847035Y-117552171D01*
X178711495Y-117358599D01*
X178711494Y-117358597D01*
X178544402Y-117191506D01*
X178544396Y-117191501D01*
X178358842Y-117061575D01*
X178315217Y-117006998D01*
X178308023Y-116937500D01*
X178339546Y-116875145D01*
X178358842Y-116858425D01*
X178381026Y-116842891D01*
X178544401Y-116728495D01*
X178711495Y-116561401D01*
X178847035Y-116367830D01*
X178946903Y-116153663D01*
X179008063Y-115925408D01*
X179028659Y-115690000D01*
X179008063Y-115454592D01*
X178946903Y-115226337D01*
X178847035Y-115012171D01*
X178711495Y-114818599D01*
X178711494Y-114818597D01*
X178544402Y-114651506D01*
X178544396Y-114651501D01*
X178358842Y-114521575D01*
X178315217Y-114466998D01*
X178308023Y-114397500D01*
X178339546Y-114335145D01*
X178358842Y-114318425D01*
X178381026Y-114302891D01*
X178544401Y-114188495D01*
X178711495Y-114021401D01*
X178847035Y-113827830D01*
X178946903Y-113613663D01*
X179008063Y-113385408D01*
X179028659Y-113150000D01*
X179008063Y-112914592D01*
X178955000Y-112716554D01*
X178946905Y-112686344D01*
X178946904Y-112686343D01*
X178946903Y-112686337D01*
X178847035Y-112472171D01*
X178836989Y-112457823D01*
X178711494Y-112278597D01*
X178544402Y-112111506D01*
X178544396Y-112111501D01*
X178358842Y-111981575D01*
X178315217Y-111926998D01*
X178308023Y-111857500D01*
X178339546Y-111795145D01*
X178358842Y-111778425D01*
X178428211Y-111729852D01*
X178544401Y-111648495D01*
X178711495Y-111481401D01*
X178847035Y-111287830D01*
X178946903Y-111073663D01*
X179008063Y-110845408D01*
X179028659Y-110610000D01*
X179008063Y-110374592D01*
X178946903Y-110146337D01*
X178847035Y-109932171D01*
X178830828Y-109909024D01*
X178711494Y-109738597D01*
X178544402Y-109571506D01*
X178544396Y-109571501D01*
X178358842Y-109441575D01*
X178315217Y-109386998D01*
X178308023Y-109317500D01*
X178339546Y-109255145D01*
X178358842Y-109238425D01*
X178496295Y-109142179D01*
X178544401Y-109108495D01*
X178711495Y-108941401D01*
X178847035Y-108747830D01*
X178946903Y-108533663D01*
X179008063Y-108305408D01*
X179028659Y-108070000D01*
X179008063Y-107834592D01*
X178946903Y-107606337D01*
X178847035Y-107392171D01*
X178784081Y-107302262D01*
X178711494Y-107198597D01*
X178544402Y-107031506D01*
X178544396Y-107031501D01*
X178358842Y-106901575D01*
X178315217Y-106846998D01*
X178308023Y-106777500D01*
X178339546Y-106715145D01*
X178358842Y-106698425D01*
X178381026Y-106682891D01*
X178544401Y-106568495D01*
X178711495Y-106401401D01*
X178847035Y-106207830D01*
X178946903Y-105993663D01*
X179008063Y-105765408D01*
X179028659Y-105530000D01*
X179008063Y-105294592D01*
X178946903Y-105066337D01*
X178847035Y-104852171D01*
X178826829Y-104823313D01*
X178711494Y-104658597D01*
X178544402Y-104491506D01*
X178544396Y-104491501D01*
X178358842Y-104361575D01*
X178315217Y-104306998D01*
X178308023Y-104237500D01*
X178339546Y-104175145D01*
X178358842Y-104158425D01*
X178535369Y-104034819D01*
X178544401Y-104028495D01*
X178711495Y-103861401D01*
X178847035Y-103667830D01*
X178946903Y-103453663D01*
X179008063Y-103225408D01*
X179028659Y-102990000D01*
X179008063Y-102754592D01*
X178946903Y-102526337D01*
X178847035Y-102312171D01*
X178792590Y-102234414D01*
X178711494Y-102118597D01*
X178544402Y-101951506D01*
X178544396Y-101951501D01*
X178358842Y-101821575D01*
X178315217Y-101766998D01*
X178308023Y-101697500D01*
X178339546Y-101635145D01*
X178358842Y-101618425D01*
X178381026Y-101602891D01*
X178544401Y-101488495D01*
X178711495Y-101321401D01*
X178847035Y-101127830D01*
X178946903Y-100913663D01*
X179008063Y-100685408D01*
X179028659Y-100450000D01*
X179008063Y-100214592D01*
X178946903Y-99986337D01*
X178847035Y-99772171D01*
X178784081Y-99682262D01*
X178711494Y-99578597D01*
X178544402Y-99411506D01*
X178544396Y-99411501D01*
X178358842Y-99281575D01*
X178315217Y-99226998D01*
X178308023Y-99157500D01*
X178339546Y-99095145D01*
X178358842Y-99078425D01*
X178469780Y-99000745D01*
X178544401Y-98948495D01*
X178711495Y-98781401D01*
X178847035Y-98587830D01*
X178946903Y-98373663D01*
X179008063Y-98145408D01*
X179028659Y-97910000D01*
X179008063Y-97674592D01*
X178946903Y-97446337D01*
X178847035Y-97232171D01*
X178711495Y-97038599D01*
X178711494Y-97038597D01*
X178544402Y-96871506D01*
X178544396Y-96871501D01*
X178358842Y-96741575D01*
X178315217Y-96686998D01*
X178308023Y-96617500D01*
X178339546Y-96555145D01*
X178358842Y-96538425D01*
X178381026Y-96522891D01*
X178544401Y-96408495D01*
X178711495Y-96241401D01*
X178847035Y-96047830D01*
X178946903Y-95833663D01*
X179008063Y-95605408D01*
X179028659Y-95370000D01*
X179008063Y-95134592D01*
X178946903Y-94906337D01*
X178847035Y-94692171D01*
X178711495Y-94498599D01*
X178711494Y-94498597D01*
X178544402Y-94331506D01*
X178544396Y-94331501D01*
X178358842Y-94201575D01*
X178315217Y-94146998D01*
X178308023Y-94077500D01*
X178339546Y-94015145D01*
X178358842Y-93998425D01*
X178381026Y-93982891D01*
X178544401Y-93868495D01*
X178711495Y-93701401D01*
X178847035Y-93507830D01*
X178946903Y-93293663D01*
X179008063Y-93065408D01*
X179028659Y-92830000D01*
X179008063Y-92594592D01*
X178946903Y-92366337D01*
X178847035Y-92152171D01*
X178813454Y-92104211D01*
X178711494Y-91958597D01*
X178544402Y-91791506D01*
X178544396Y-91791501D01*
X178358842Y-91661575D01*
X178315217Y-91606998D01*
X178308023Y-91537500D01*
X178339546Y-91475145D01*
X178358842Y-91458425D01*
X178532724Y-91336671D01*
X178544401Y-91328495D01*
X178711495Y-91161401D01*
X178847035Y-90967830D01*
X178946903Y-90753663D01*
X179008063Y-90525408D01*
X179028659Y-90290000D01*
X179008063Y-90054592D01*
X178946903Y-89826337D01*
X178847035Y-89612171D01*
X178778831Y-89514764D01*
X178711494Y-89418597D01*
X178544402Y-89251506D01*
X178544396Y-89251501D01*
X178358842Y-89121575D01*
X178315217Y-89066998D01*
X178308023Y-88997500D01*
X178339546Y-88935145D01*
X178358842Y-88918425D01*
X178527970Y-88800000D01*
X178544401Y-88788495D01*
X178711495Y-88621401D01*
X178847035Y-88427830D01*
X178946903Y-88213663D01*
X179008063Y-87985408D01*
X179028659Y-87750000D01*
X179008063Y-87514592D01*
X178946903Y-87286337D01*
X178847035Y-87072171D01*
X178711495Y-86878599D01*
X178589179Y-86756283D01*
X178555696Y-86694963D01*
X178560680Y-86625271D01*
X178602551Y-86569337D01*
X178633529Y-86552422D01*
X178765086Y-86503354D01*
X178765093Y-86503350D01*
X178880187Y-86417190D01*
X178880190Y-86417187D01*
X178966350Y-86302093D01*
X178966354Y-86302086D01*
X179016596Y-86167379D01*
X179016598Y-86167372D01*
X179022999Y-86107844D01*
X179023000Y-86107827D01*
X179023000Y-85460000D01*
X178106012Y-85460000D01*
X178138925Y-85402993D01*
X178173000Y-85275826D01*
X178173000Y-85144174D01*
X178138925Y-85017007D01*
X178106012Y-84960000D01*
X179023000Y-84960000D01*
X179023000Y-84312172D01*
X179022999Y-84312155D01*
X179016598Y-84252627D01*
X179016596Y-84252620D01*
X178966354Y-84117913D01*
X178966350Y-84117906D01*
X178880190Y-84002812D01*
X178880187Y-84002809D01*
X178765093Y-83916649D01*
X178765086Y-83916645D01*
X178630379Y-83866403D01*
X178630372Y-83866401D01*
X178570844Y-83860000D01*
X177923000Y-83860000D01*
X177923000Y-84776988D01*
X177865993Y-84744075D01*
X177738826Y-84710000D01*
X177607174Y-84710000D01*
X177480007Y-84744075D01*
X177423000Y-84776988D01*
X177423000Y-83860000D01*
X176775155Y-83860000D01*
X176715627Y-83866401D01*
X176715620Y-83866403D01*
X176580913Y-83916645D01*
X176580906Y-83916649D01*
X176465812Y-84002809D01*
X176465809Y-84002812D01*
X176379649Y-84117906D01*
X176379645Y-84117913D01*
X176329403Y-84252620D01*
X176329401Y-84252627D01*
X176323000Y-84312155D01*
X176323000Y-84960000D01*
X177239988Y-84960000D01*
X177207075Y-85017007D01*
X177173000Y-85144174D01*
X177173000Y-85275826D01*
X177207075Y-85402993D01*
X177239988Y-85460000D01*
X176323000Y-85460000D01*
X176323000Y-86107844D01*
X176329401Y-86167372D01*
X176329403Y-86167379D01*
X176379645Y-86302086D01*
X176379649Y-86302093D01*
X176465809Y-86417187D01*
X176465812Y-86417190D01*
X176580906Y-86503350D01*
X176580913Y-86503354D01*
X176712470Y-86552421D01*
X176768403Y-86594292D01*
X176792821Y-86659756D01*
X176777970Y-86728029D01*
X176756819Y-86756284D01*
X176634503Y-86878600D01*
X176498965Y-87072169D01*
X176498964Y-87072171D01*
X176399098Y-87286335D01*
X176399094Y-87286344D01*
X176337938Y-87514586D01*
X176337936Y-87514596D01*
X176328040Y-87627699D01*
X176302587Y-87692767D01*
X176292193Y-87704571D01*
X174751585Y-89245181D01*
X174690262Y-89278666D01*
X174663904Y-89281500D01*
X167347887Y-89281500D01*
X167280848Y-89261815D01*
X167235093Y-89209011D01*
X167225149Y-89139853D01*
X167254174Y-89076297D01*
X167260206Y-89069819D01*
X167708630Y-88621395D01*
X169746701Y-86583322D01*
X169808022Y-86549839D01*
X169845185Y-86547477D01*
X169994034Y-86560500D01*
X170052999Y-86565659D01*
X170053000Y-86565659D01*
X170053001Y-86565659D01*
X170111966Y-86560500D01*
X170288408Y-86545063D01*
X170516663Y-86483903D01*
X170730830Y-86384035D01*
X170924401Y-86248495D01*
X171046329Y-86126566D01*
X171107648Y-86093084D01*
X171177340Y-86098068D01*
X171233274Y-86139939D01*
X171250189Y-86170917D01*
X171299202Y-86302328D01*
X171299206Y-86302335D01*
X171385452Y-86417544D01*
X171385455Y-86417547D01*
X171500664Y-86503793D01*
X171500671Y-86503797D01*
X171635517Y-86554091D01*
X171635516Y-86554091D01*
X171642444Y-86554835D01*
X171695127Y-86560500D01*
X173490872Y-86560499D01*
X173550483Y-86554091D01*
X173685331Y-86503796D01*
X173800546Y-86417546D01*
X173886796Y-86302331D01*
X173937091Y-86167483D01*
X173943500Y-86107873D01*
X173943499Y-84312128D01*
X173937091Y-84252517D01*
X173936002Y-84249598D01*
X173886797Y-84117671D01*
X173886793Y-84117664D01*
X173800547Y-84002455D01*
X173800544Y-84002452D01*
X173685335Y-83916206D01*
X173685328Y-83916202D01*
X173550482Y-83865908D01*
X173550483Y-83865908D01*
X173490883Y-83859501D01*
X173490881Y-83859500D01*
X173490873Y-83859500D01*
X173490864Y-83859500D01*
X171695129Y-83859500D01*
X171695123Y-83859501D01*
X171635516Y-83865908D01*
X171500671Y-83916202D01*
X171500664Y-83916206D01*
X171385455Y-84002452D01*
X171385452Y-84002455D01*
X171299206Y-84117664D01*
X171299203Y-84117669D01*
X171250189Y-84249083D01*
X171208317Y-84305016D01*
X171142853Y-84329433D01*
X171074580Y-84314581D01*
X171046326Y-84293430D01*
X170924402Y-84171506D01*
X170924395Y-84171501D01*
X170730834Y-84035967D01*
X170730830Y-84035965D01*
X170659727Y-84002809D01*
X170516663Y-83936097D01*
X170516659Y-83936096D01*
X170516655Y-83936094D01*
X170288413Y-83874938D01*
X170288403Y-83874936D01*
X170053001Y-83854341D01*
X170052999Y-83854341D01*
X169817596Y-83874936D01*
X169817586Y-83874938D01*
X169589344Y-83936094D01*
X169589335Y-83936098D01*
X169375171Y-84035964D01*
X169375169Y-84035965D01*
X169181597Y-84171505D01*
X169014505Y-84338597D01*
X168884575Y-84524158D01*
X168829998Y-84567783D01*
X168760500Y-84574977D01*
X168698145Y-84543454D01*
X168681425Y-84524158D01*
X168551494Y-84338597D01*
X168384402Y-84171506D01*
X168384395Y-84171501D01*
X168190834Y-84035967D01*
X168190830Y-84035965D01*
X168119727Y-84002809D01*
X167976663Y-83936097D01*
X167976659Y-83936096D01*
X167976655Y-83936094D01*
X167748413Y-83874938D01*
X167748403Y-83874936D01*
X167513001Y-83854341D01*
X167512999Y-83854341D01*
X167277596Y-83874936D01*
X167277586Y-83874938D01*
X167049344Y-83936094D01*
X167049335Y-83936098D01*
X166835171Y-84035964D01*
X166835169Y-84035965D01*
X166641597Y-84171505D01*
X166474508Y-84338594D01*
X166344269Y-84524595D01*
X166289692Y-84568219D01*
X166220193Y-84575412D01*
X166157839Y-84543890D01*
X166141119Y-84524594D01*
X166011113Y-84338926D01*
X166011108Y-84338920D01*
X165844082Y-84171894D01*
X165650578Y-84036399D01*
X165436492Y-83936570D01*
X165436486Y-83936567D01*
X165223000Y-83879364D01*
X165223000Y-84776988D01*
X165165993Y-84744075D01*
X165038826Y-84710000D01*
X164907174Y-84710000D01*
X164780007Y-84744075D01*
X164723000Y-84776988D01*
X164723000Y-83879364D01*
X164722999Y-83879364D01*
X164509513Y-83936567D01*
X164509507Y-83936570D01*
X164295422Y-84036399D01*
X164295420Y-84036400D01*
X164101926Y-84171886D01*
X164101920Y-84171891D01*
X163934891Y-84338920D01*
X163934886Y-84338926D01*
X163799400Y-84532420D01*
X163799399Y-84532422D01*
X163699570Y-84746507D01*
X163699567Y-84746513D01*
X163642364Y-84959999D01*
X163642364Y-84960000D01*
X164539988Y-84960000D01*
X164507075Y-85017007D01*
X164473000Y-85144174D01*
X164473000Y-85275826D01*
X164507075Y-85402993D01*
X164539988Y-85460000D01*
X163642364Y-85460000D01*
X163699567Y-85673486D01*
X163699570Y-85673492D01*
X163799399Y-85887578D01*
X163934894Y-86081082D01*
X164101917Y-86248105D01*
X164295421Y-86383600D01*
X164509507Y-86483429D01*
X164509516Y-86483433D01*
X164737673Y-86544567D01*
X164737684Y-86544569D01*
X164816432Y-86551459D01*
X164881501Y-86576911D01*
X164922480Y-86633502D01*
X164926358Y-86703264D01*
X164893306Y-86762668D01*
X164207794Y-87448181D01*
X164146471Y-87481666D01*
X164120113Y-87484500D01*
X159123893Y-87484500D01*
X159123873Y-87484499D01*
X159117759Y-87484499D01*
X158969135Y-87484499D01*
X158969133Y-87484499D01*
X158847552Y-87508684D01*
X158832987Y-87511581D01*
X158823365Y-87513495D01*
X158823364Y-87513495D01*
X158766492Y-87537052D01*
X158766492Y-87537053D01*
X158686058Y-87570370D01*
X158686056Y-87570371D01*
X158562480Y-87652941D01*
X158522655Y-87692767D01*
X158457388Y-87758034D01*
X158457386Y-87758036D01*
X157255943Y-88959477D01*
X157255942Y-88959478D01*
X157173372Y-89083054D01*
X157173366Y-89083065D01*
X157116496Y-89220363D01*
X157116493Y-89220373D01*
X157087499Y-89366132D01*
X130399029Y-89366132D01*
X130284402Y-89251506D01*
X130284396Y-89251501D01*
X130098842Y-89121575D01*
X130055217Y-89066998D01*
X130048023Y-88997500D01*
X130079546Y-88935145D01*
X130098842Y-88918425D01*
X130267970Y-88800000D01*
X130284401Y-88788495D01*
X130451495Y-88621401D01*
X130587035Y-88427830D01*
X130686903Y-88213663D01*
X130748063Y-87985408D01*
X130768659Y-87750000D01*
X130748063Y-87514592D01*
X130686903Y-87286337D01*
X130587035Y-87072171D01*
X130451495Y-86878599D01*
X130329179Y-86756283D01*
X130295696Y-86694963D01*
X130300680Y-86625271D01*
X130342551Y-86569337D01*
X130373529Y-86552422D01*
X130505086Y-86503354D01*
X130505093Y-86503350D01*
X130620187Y-86417190D01*
X130620190Y-86417187D01*
X130706350Y-86302093D01*
X130706354Y-86302086D01*
X130756596Y-86167379D01*
X130756598Y-86167372D01*
X130762999Y-86107844D01*
X130763000Y-86107827D01*
X130763000Y-85460000D01*
X129846012Y-85460000D01*
X129878925Y-85402993D01*
X129913000Y-85275826D01*
X129913000Y-85144174D01*
X129878925Y-85017007D01*
X129846012Y-84960000D01*
X130763000Y-84960000D01*
X130763000Y-84312172D01*
X130762999Y-84312155D01*
X130756598Y-84252627D01*
X130756596Y-84252620D01*
X130706354Y-84117913D01*
X130706350Y-84117906D01*
X130620190Y-84002812D01*
X130620187Y-84002809D01*
X130505093Y-83916649D01*
X130505086Y-83916645D01*
X130370379Y-83866403D01*
X130370372Y-83866401D01*
X130310844Y-83860000D01*
X129663000Y-83860000D01*
X129663000Y-84776988D01*
X129605993Y-84744075D01*
X129478826Y-84710000D01*
X129347174Y-84710000D01*
X129220007Y-84744075D01*
X129163000Y-84776988D01*
X129163000Y-83860000D01*
X128515155Y-83860000D01*
X128455627Y-83866401D01*
X128455620Y-83866403D01*
X128320913Y-83916645D01*
X128320906Y-83916649D01*
X128205812Y-84002809D01*
X128205809Y-84002812D01*
X128119649Y-84117906D01*
X128119645Y-84117913D01*
X128069403Y-84252620D01*
X128069401Y-84252627D01*
X128063000Y-84312155D01*
X128063000Y-84960000D01*
X128979988Y-84960000D01*
X128947075Y-85017007D01*
X128913000Y-85144174D01*
X128913000Y-85275826D01*
X128947075Y-85402993D01*
X128979988Y-85460000D01*
X128063000Y-85460000D01*
X128063000Y-86107844D01*
X128069401Y-86167372D01*
X128069403Y-86167379D01*
X128119645Y-86302086D01*
X128119649Y-86302093D01*
X128205809Y-86417187D01*
X128205812Y-86417190D01*
X128320906Y-86503350D01*
X128320913Y-86503354D01*
X128452470Y-86552421D01*
X128508403Y-86594292D01*
X128532821Y-86659756D01*
X128517970Y-86728029D01*
X128496819Y-86756284D01*
X128374503Y-86878600D01*
X128238965Y-87072169D01*
X128238964Y-87072171D01*
X128139098Y-87286335D01*
X128139094Y-87286344D01*
X128077938Y-87514586D01*
X128077936Y-87514596D01*
X128057341Y-87749999D01*
X127373500Y-87749999D01*
X127373500Y-82024500D01*
X127393185Y-81957461D01*
X127445989Y-81911706D01*
X127497500Y-81900500D01*
X134369000Y-81900500D01*
X134436039Y-81920185D01*
G37*
G04 #@! TD.AperFunction*
G04 #@! TA.AperFunction,Conductor*
G36*
X134436039Y-36200185D02*
G01*
X134481794Y-36252989D01*
X134493000Y-36304500D01*
X134493000Y-43300000D01*
X154305000Y-43300000D01*
X154305000Y-39239999D01*
X156022364Y-39239999D01*
X156022364Y-39240000D01*
X156919988Y-39240000D01*
X156887075Y-39297007D01*
X156853000Y-39424174D01*
X156853000Y-39555826D01*
X156887075Y-39682993D01*
X156919988Y-39740000D01*
X156022364Y-39740000D01*
X156079567Y-39953486D01*
X156079570Y-39953492D01*
X156179399Y-40167578D01*
X156314894Y-40361082D01*
X156481917Y-40528105D01*
X156675421Y-40663600D01*
X156889507Y-40763429D01*
X156889516Y-40763433D01*
X157103000Y-40820634D01*
X157103000Y-39923012D01*
X157160007Y-39955925D01*
X157287174Y-39990000D01*
X157418826Y-39990000D01*
X157545993Y-39955925D01*
X157603000Y-39923012D01*
X157603000Y-40820633D01*
X157816483Y-40763433D01*
X157816492Y-40763429D01*
X158030578Y-40663600D01*
X158224078Y-40528108D01*
X158346133Y-40406053D01*
X158407456Y-40372568D01*
X158477148Y-40377552D01*
X158533082Y-40419423D01*
X158549997Y-40450401D01*
X158599202Y-40582328D01*
X158599206Y-40582335D01*
X158685452Y-40697544D01*
X158685455Y-40697547D01*
X158800664Y-40783793D01*
X158800671Y-40783797D01*
X158845618Y-40800561D01*
X158935517Y-40834091D01*
X158995127Y-40840500D01*
X159737536Y-40840499D01*
X159761729Y-40842882D01*
X159793670Y-40849236D01*
X159793671Y-40849236D01*
X159992330Y-40849236D01*
X160011907Y-40845341D01*
X160024271Y-40842881D01*
X160048464Y-40840499D01*
X160790871Y-40840499D01*
X160790872Y-40840499D01*
X160850483Y-40834091D01*
X160985331Y-40783796D01*
X161100546Y-40697546D01*
X161186796Y-40582331D01*
X161237091Y-40447483D01*
X161243500Y-40387873D01*
X161243499Y-38592128D01*
X161237091Y-38532517D01*
X161236002Y-38529598D01*
X161186797Y-38397671D01*
X161186793Y-38397664D01*
X161100547Y-38282455D01*
X161100544Y-38282452D01*
X160985335Y-38196206D01*
X160985328Y-38196202D01*
X160850482Y-38145908D01*
X160850483Y-38145908D01*
X160790883Y-38139501D01*
X160790881Y-38139500D01*
X160790873Y-38139500D01*
X160790864Y-38139500D01*
X158995129Y-38139500D01*
X158995123Y-38139501D01*
X158935516Y-38145908D01*
X158800671Y-38196202D01*
X158800664Y-38196206D01*
X158685455Y-38282452D01*
X158685452Y-38282455D01*
X158599206Y-38397664D01*
X158599202Y-38397671D01*
X158549997Y-38529598D01*
X158508126Y-38585532D01*
X158442661Y-38609949D01*
X158374388Y-38595097D01*
X158346134Y-38573946D01*
X158224082Y-38451894D01*
X158030578Y-38316399D01*
X157816492Y-38216570D01*
X157816486Y-38216567D01*
X157603000Y-38159364D01*
X157603000Y-39056988D01*
X157545993Y-39024075D01*
X157418826Y-38990000D01*
X157287174Y-38990000D01*
X157160007Y-39024075D01*
X157103000Y-39056988D01*
X157103000Y-38159364D01*
X157102999Y-38159364D01*
X156889513Y-38216567D01*
X156889507Y-38216570D01*
X156675422Y-38316399D01*
X156675420Y-38316400D01*
X156481926Y-38451886D01*
X156481920Y-38451891D01*
X156314891Y-38618920D01*
X156314886Y-38618926D01*
X156179400Y-38812420D01*
X156179399Y-38812422D01*
X156079570Y-39026507D01*
X156079567Y-39026513D01*
X156022364Y-39239999D01*
X154305000Y-39239999D01*
X154305000Y-36304500D01*
X154324685Y-36237461D01*
X154377489Y-36191706D01*
X154429000Y-36180500D01*
X179588500Y-36180500D01*
X179655539Y-36200185D01*
X179701294Y-36252989D01*
X179712500Y-36304500D01*
X179712500Y-80775500D01*
X179692815Y-80842539D01*
X179640011Y-80888294D01*
X179588500Y-80899500D01*
X127497500Y-80899500D01*
X127430461Y-80879815D01*
X127384706Y-80827011D01*
X127373500Y-80775500D01*
X127373500Y-77589994D01*
X133599859Y-77589994D01*
X133599859Y-77590005D01*
X133620385Y-77837729D01*
X133620387Y-77837738D01*
X133681412Y-78078717D01*
X133781266Y-78306364D01*
X133881564Y-78459882D01*
X134581212Y-77760234D01*
X134592482Y-77802292D01*
X134664890Y-77927708D01*
X134767292Y-78030110D01*
X134892708Y-78102518D01*
X134934765Y-78113787D01*
X134234942Y-78813609D01*
X134281768Y-78850055D01*
X134281770Y-78850056D01*
X134500385Y-78968364D01*
X134500396Y-78968369D01*
X134735506Y-79049083D01*
X134980707Y-79090000D01*
X135229293Y-79090000D01*
X135474493Y-79049083D01*
X135709603Y-78968369D01*
X135709614Y-78968364D01*
X135928228Y-78850057D01*
X135928231Y-78850055D01*
X135975056Y-78813609D01*
X135275234Y-78113787D01*
X135317292Y-78102518D01*
X135442708Y-78030110D01*
X135545110Y-77927708D01*
X135617518Y-77802292D01*
X135628787Y-77760235D01*
X136328434Y-78459882D01*
X136428731Y-78306369D01*
X136528587Y-78078717D01*
X136589612Y-77837738D01*
X136589614Y-77837729D01*
X136610141Y-77590005D01*
X136610141Y-77589994D01*
X140099859Y-77589994D01*
X140099859Y-77590005D01*
X140120385Y-77837729D01*
X140120387Y-77837738D01*
X140181412Y-78078717D01*
X140281266Y-78306364D01*
X140381564Y-78459882D01*
X141081212Y-77760234D01*
X141092482Y-77802292D01*
X141164890Y-77927708D01*
X141267292Y-78030110D01*
X141392708Y-78102518D01*
X141434765Y-78113787D01*
X140734942Y-78813609D01*
X140781768Y-78850055D01*
X140781770Y-78850056D01*
X141000385Y-78968364D01*
X141000396Y-78968369D01*
X141235506Y-79049083D01*
X141480707Y-79090000D01*
X141729293Y-79090000D01*
X141974493Y-79049083D01*
X142209603Y-78968369D01*
X142209614Y-78968364D01*
X142428228Y-78850057D01*
X142428231Y-78850055D01*
X142475056Y-78813609D01*
X141775234Y-78113787D01*
X141817292Y-78102518D01*
X141942708Y-78030110D01*
X142045110Y-77927708D01*
X142117518Y-77802292D01*
X142128787Y-77760235D01*
X142828434Y-78459882D01*
X142928731Y-78306369D01*
X143028587Y-78078717D01*
X143089612Y-77837738D01*
X143089614Y-77837729D01*
X143110141Y-77590005D01*
X143110141Y-77589994D01*
X143759859Y-77589994D01*
X143759859Y-77590005D01*
X143780385Y-77837729D01*
X143780387Y-77837738D01*
X143841412Y-78078717D01*
X143941266Y-78306364D01*
X144041564Y-78459882D01*
X144741212Y-77760234D01*
X144752482Y-77802292D01*
X144824890Y-77927708D01*
X144927292Y-78030110D01*
X145052708Y-78102518D01*
X145094765Y-78113787D01*
X144394942Y-78813609D01*
X144441768Y-78850055D01*
X144441770Y-78850056D01*
X144660385Y-78968364D01*
X144660396Y-78968369D01*
X144895506Y-79049083D01*
X145140707Y-79090000D01*
X145389293Y-79090000D01*
X145634493Y-79049083D01*
X145869603Y-78968369D01*
X145869614Y-78968364D01*
X146088228Y-78850057D01*
X146088231Y-78850055D01*
X146135056Y-78813609D01*
X145435234Y-78113787D01*
X145477292Y-78102518D01*
X145602708Y-78030110D01*
X145705110Y-77927708D01*
X145777518Y-77802292D01*
X145788787Y-77760235D01*
X146488434Y-78459882D01*
X146588731Y-78306369D01*
X146688587Y-78078717D01*
X146749612Y-77837738D01*
X146749614Y-77837729D01*
X146770141Y-77590005D01*
X146770141Y-77589994D01*
X150259859Y-77589994D01*
X150259859Y-77590005D01*
X150280385Y-77837729D01*
X150280387Y-77837738D01*
X150341412Y-78078717D01*
X150441266Y-78306364D01*
X150541564Y-78459882D01*
X151241212Y-77760234D01*
X151252482Y-77802292D01*
X151324890Y-77927708D01*
X151427292Y-78030110D01*
X151552708Y-78102518D01*
X151594765Y-78113787D01*
X150894942Y-78813609D01*
X150941768Y-78850055D01*
X150941770Y-78850056D01*
X151160385Y-78968364D01*
X151160396Y-78968369D01*
X151395506Y-79049083D01*
X151640707Y-79090000D01*
X151889293Y-79090000D01*
X152134493Y-79049083D01*
X152369603Y-78968369D01*
X152369614Y-78968364D01*
X152588228Y-78850057D01*
X152588231Y-78850055D01*
X152635056Y-78813609D01*
X151935234Y-78113787D01*
X151977292Y-78102518D01*
X152102708Y-78030110D01*
X152205110Y-77927708D01*
X152277518Y-77802292D01*
X152288787Y-77760235D01*
X152988434Y-78459882D01*
X153088731Y-78306369D01*
X153188587Y-78078717D01*
X153249612Y-77837738D01*
X153249614Y-77837729D01*
X153270141Y-77590005D01*
X153270141Y-77589994D01*
X153815859Y-77589994D01*
X153815859Y-77590005D01*
X153836385Y-77837729D01*
X153836387Y-77837738D01*
X153897412Y-78078717D01*
X153997266Y-78306364D01*
X154097564Y-78459882D01*
X154797212Y-77760234D01*
X154808482Y-77802292D01*
X154880890Y-77927708D01*
X154983292Y-78030110D01*
X155108708Y-78102518D01*
X155150765Y-78113787D01*
X154450942Y-78813609D01*
X154497768Y-78850055D01*
X154497770Y-78850056D01*
X154716385Y-78968364D01*
X154716396Y-78968369D01*
X154951506Y-79049083D01*
X155196707Y-79090000D01*
X155445293Y-79090000D01*
X155690493Y-79049083D01*
X155925603Y-78968369D01*
X155925614Y-78968364D01*
X156144228Y-78850057D01*
X156144231Y-78850055D01*
X156191056Y-78813609D01*
X155491234Y-78113787D01*
X155533292Y-78102518D01*
X155658708Y-78030110D01*
X155761110Y-77927708D01*
X155833518Y-77802292D01*
X155844787Y-77760235D01*
X156544434Y-78459882D01*
X156644731Y-78306369D01*
X156744587Y-78078717D01*
X156805612Y-77837738D01*
X156805614Y-77837729D01*
X156826141Y-77590005D01*
X156826141Y-77589994D01*
X160315859Y-77589994D01*
X160315859Y-77590005D01*
X160336385Y-77837729D01*
X160336387Y-77837738D01*
X160397412Y-78078717D01*
X160497266Y-78306364D01*
X160597564Y-78459882D01*
X161297212Y-77760234D01*
X161308482Y-77802292D01*
X161380890Y-77927708D01*
X161483292Y-78030110D01*
X161608708Y-78102518D01*
X161650765Y-78113787D01*
X160950942Y-78813609D01*
X160997768Y-78850055D01*
X160997770Y-78850056D01*
X161216385Y-78968364D01*
X161216396Y-78968369D01*
X161451506Y-79049083D01*
X161696707Y-79090000D01*
X161945293Y-79090000D01*
X162190493Y-79049083D01*
X162425603Y-78968369D01*
X162425614Y-78968364D01*
X162644228Y-78850057D01*
X162644231Y-78850055D01*
X162691056Y-78813609D01*
X161991234Y-78113787D01*
X162033292Y-78102518D01*
X162158708Y-78030110D01*
X162261110Y-77927708D01*
X162333518Y-77802292D01*
X162344787Y-77760235D01*
X163044434Y-78459882D01*
X163144731Y-78306369D01*
X163244587Y-78078717D01*
X163305612Y-77837738D01*
X163305614Y-77837729D01*
X163326141Y-77590005D01*
X163326141Y-77589994D01*
X163975859Y-77589994D01*
X163975859Y-77590005D01*
X163996385Y-77837729D01*
X163996387Y-77837738D01*
X164057412Y-78078717D01*
X164157266Y-78306364D01*
X164257564Y-78459882D01*
X164957212Y-77760234D01*
X164968482Y-77802292D01*
X165040890Y-77927708D01*
X165143292Y-78030110D01*
X165268708Y-78102518D01*
X165310765Y-78113787D01*
X164610942Y-78813609D01*
X164657768Y-78850055D01*
X164657770Y-78850056D01*
X164876385Y-78968364D01*
X164876396Y-78968369D01*
X165111506Y-79049083D01*
X165356707Y-79090000D01*
X165605293Y-79090000D01*
X165850493Y-79049083D01*
X166085603Y-78968369D01*
X166085614Y-78968364D01*
X166304228Y-78850057D01*
X166304231Y-78850055D01*
X166351056Y-78813609D01*
X165651234Y-78113787D01*
X165693292Y-78102518D01*
X165818708Y-78030110D01*
X165921110Y-77927708D01*
X165993518Y-77802292D01*
X166004787Y-77760235D01*
X166704434Y-78459882D01*
X166804731Y-78306369D01*
X166904587Y-78078717D01*
X166965612Y-77837738D01*
X166965614Y-77837729D01*
X166986141Y-77590005D01*
X166986141Y-77589994D01*
X170475859Y-77589994D01*
X170475859Y-77590005D01*
X170496385Y-77837729D01*
X170496387Y-77837738D01*
X170557412Y-78078717D01*
X170657266Y-78306364D01*
X170757564Y-78459882D01*
X171457212Y-77760234D01*
X171468482Y-77802292D01*
X171540890Y-77927708D01*
X171643292Y-78030110D01*
X171768708Y-78102518D01*
X171810765Y-78113787D01*
X171110942Y-78813609D01*
X171157768Y-78850055D01*
X171157770Y-78850056D01*
X171376385Y-78968364D01*
X171376396Y-78968369D01*
X171611506Y-79049083D01*
X171856707Y-79090000D01*
X172105293Y-79090000D01*
X172350493Y-79049083D01*
X172585603Y-78968369D01*
X172585614Y-78968364D01*
X172804228Y-78850057D01*
X172804231Y-78850055D01*
X172851056Y-78813609D01*
X172151234Y-78113787D01*
X172193292Y-78102518D01*
X172318708Y-78030110D01*
X172421110Y-77927708D01*
X172493518Y-77802292D01*
X172504787Y-77760234D01*
X173204434Y-78459882D01*
X173304731Y-78306369D01*
X173404587Y-78078717D01*
X173465612Y-77837738D01*
X173465614Y-77837729D01*
X173486141Y-77590005D01*
X173486141Y-77589994D01*
X173465614Y-77342270D01*
X173465612Y-77342261D01*
X173404587Y-77101282D01*
X173304731Y-76873630D01*
X173204434Y-76720116D01*
X172504787Y-77419764D01*
X172493518Y-77377708D01*
X172421110Y-77252292D01*
X172318708Y-77149890D01*
X172193292Y-77077482D01*
X172151235Y-77066212D01*
X172851057Y-76366390D01*
X172851056Y-76366389D01*
X172804229Y-76329943D01*
X172585614Y-76211635D01*
X172585603Y-76211630D01*
X172350493Y-76130916D01*
X172105293Y-76090000D01*
X171856707Y-76090000D01*
X171611506Y-76130916D01*
X171376396Y-76211630D01*
X171376390Y-76211632D01*
X171157761Y-76329949D01*
X171110942Y-76366388D01*
X171110942Y-76366390D01*
X171810765Y-77066212D01*
X171768708Y-77077482D01*
X171643292Y-77149890D01*
X171540890Y-77252292D01*
X171468482Y-77377708D01*
X171457212Y-77419764D01*
X170757564Y-76720116D01*
X170657267Y-76873632D01*
X170557412Y-77101282D01*
X170496387Y-77342261D01*
X170496385Y-77342270D01*
X170475859Y-77589994D01*
X166986141Y-77589994D01*
X166965614Y-77342270D01*
X166965612Y-77342261D01*
X166904587Y-77101282D01*
X166804731Y-76873630D01*
X166704434Y-76720116D01*
X166004787Y-77419764D01*
X165993518Y-77377708D01*
X165921110Y-77252292D01*
X165818708Y-77149890D01*
X165693292Y-77077482D01*
X165651235Y-77066212D01*
X166351057Y-76366390D01*
X166351056Y-76366389D01*
X166304229Y-76329943D01*
X166085614Y-76211635D01*
X166085603Y-76211630D01*
X165850493Y-76130916D01*
X165605293Y-76090000D01*
X165356707Y-76090000D01*
X165111506Y-76130916D01*
X164876396Y-76211630D01*
X164876390Y-76211632D01*
X164657761Y-76329949D01*
X164610942Y-76366388D01*
X164610942Y-76366390D01*
X165310765Y-77066212D01*
X165268708Y-77077482D01*
X165143292Y-77149890D01*
X165040890Y-77252292D01*
X164968482Y-77377708D01*
X164957212Y-77419764D01*
X164257564Y-76720116D01*
X164157267Y-76873632D01*
X164057412Y-77101282D01*
X163996387Y-77342261D01*
X163996385Y-77342270D01*
X163975859Y-77589994D01*
X163326141Y-77589994D01*
X163305614Y-77342270D01*
X163305612Y-77342261D01*
X163244587Y-77101282D01*
X163144731Y-76873630D01*
X163044434Y-76720116D01*
X162344787Y-77419764D01*
X162333518Y-77377708D01*
X162261110Y-77252292D01*
X162158708Y-77149890D01*
X162033292Y-77077482D01*
X161991235Y-77066212D01*
X162691057Y-76366390D01*
X162691056Y-76366389D01*
X162644229Y-76329943D01*
X162425614Y-76211635D01*
X162425603Y-76211630D01*
X162190493Y-76130916D01*
X161945293Y-76090000D01*
X161696707Y-76090000D01*
X161451506Y-76130916D01*
X161216396Y-76211630D01*
X161216390Y-76211632D01*
X160997761Y-76329949D01*
X160950942Y-76366388D01*
X160950942Y-76366390D01*
X161650765Y-77066212D01*
X161608708Y-77077482D01*
X161483292Y-77149890D01*
X161380890Y-77252292D01*
X161308482Y-77377708D01*
X161297212Y-77419764D01*
X160597564Y-76720116D01*
X160497267Y-76873632D01*
X160397412Y-77101282D01*
X160336387Y-77342261D01*
X160336385Y-77342270D01*
X160315859Y-77589994D01*
X156826141Y-77589994D01*
X156805614Y-77342270D01*
X156805612Y-77342261D01*
X156744587Y-77101282D01*
X156644731Y-76873630D01*
X156544434Y-76720116D01*
X155844787Y-77419764D01*
X155833518Y-77377708D01*
X155761110Y-77252292D01*
X155658708Y-77149890D01*
X155533292Y-77077482D01*
X155491235Y-77066212D01*
X156191057Y-76366390D01*
X156191056Y-76366389D01*
X156144229Y-76329943D01*
X155925614Y-76211635D01*
X155925603Y-76211630D01*
X155690493Y-76130916D01*
X155445293Y-76090000D01*
X155196707Y-76090000D01*
X154951506Y-76130916D01*
X154716396Y-76211630D01*
X154716390Y-76211632D01*
X154497761Y-76329949D01*
X154450942Y-76366388D01*
X154450942Y-76366390D01*
X155150765Y-77066212D01*
X155108708Y-77077482D01*
X154983292Y-77149890D01*
X154880890Y-77252292D01*
X154808482Y-77377708D01*
X154797212Y-77419764D01*
X154097564Y-76720116D01*
X153997267Y-76873632D01*
X153897412Y-77101282D01*
X153836387Y-77342261D01*
X153836385Y-77342270D01*
X153815859Y-77589994D01*
X153270141Y-77589994D01*
X153249614Y-77342270D01*
X153249612Y-77342261D01*
X153188587Y-77101282D01*
X153088731Y-76873630D01*
X152988434Y-76720116D01*
X152288787Y-77419764D01*
X152277518Y-77377708D01*
X152205110Y-77252292D01*
X152102708Y-77149890D01*
X151977292Y-77077482D01*
X151935235Y-77066212D01*
X152635057Y-76366390D01*
X152635056Y-76366389D01*
X152588229Y-76329943D01*
X152369614Y-76211635D01*
X152369603Y-76211630D01*
X152134493Y-76130916D01*
X151889293Y-76090000D01*
X151640707Y-76090000D01*
X151395506Y-76130916D01*
X151160396Y-76211630D01*
X151160390Y-76211632D01*
X150941761Y-76329949D01*
X150894942Y-76366388D01*
X150894942Y-76366390D01*
X151594765Y-77066212D01*
X151552708Y-77077482D01*
X151427292Y-77149890D01*
X151324890Y-77252292D01*
X151252482Y-77377708D01*
X151241212Y-77419764D01*
X150541564Y-76720116D01*
X150441267Y-76873632D01*
X150341412Y-77101282D01*
X150280387Y-77342261D01*
X150280385Y-77342270D01*
X150259859Y-77589994D01*
X146770141Y-77589994D01*
X146749614Y-77342270D01*
X146749612Y-77342261D01*
X146688587Y-77101282D01*
X146588731Y-76873630D01*
X146488434Y-76720116D01*
X145788787Y-77419764D01*
X145777518Y-77377708D01*
X145705110Y-77252292D01*
X145602708Y-77149890D01*
X145477292Y-77077482D01*
X145435235Y-77066212D01*
X146135057Y-76366390D01*
X146135056Y-76366389D01*
X146088229Y-76329943D01*
X145869614Y-76211635D01*
X145869603Y-76211630D01*
X145634493Y-76130916D01*
X145389293Y-76090000D01*
X145140707Y-76090000D01*
X144895506Y-76130916D01*
X144660396Y-76211630D01*
X144660390Y-76211632D01*
X144441761Y-76329949D01*
X144394942Y-76366388D01*
X144394942Y-76366390D01*
X145094765Y-77066212D01*
X145052708Y-77077482D01*
X144927292Y-77149890D01*
X144824890Y-77252292D01*
X144752482Y-77377708D01*
X144741212Y-77419764D01*
X144041564Y-76720116D01*
X143941267Y-76873632D01*
X143841412Y-77101282D01*
X143780387Y-77342261D01*
X143780385Y-77342270D01*
X143759859Y-77589994D01*
X143110141Y-77589994D01*
X143089614Y-77342270D01*
X143089612Y-77342261D01*
X143028587Y-77101282D01*
X142928731Y-76873630D01*
X142828434Y-76720116D01*
X142128787Y-77419764D01*
X142117518Y-77377708D01*
X142045110Y-77252292D01*
X141942708Y-77149890D01*
X141817292Y-77077482D01*
X141775235Y-77066212D01*
X142475057Y-76366390D01*
X142475056Y-76366389D01*
X142428229Y-76329943D01*
X142209614Y-76211635D01*
X142209603Y-76211630D01*
X141974493Y-76130916D01*
X141729293Y-76090000D01*
X141480707Y-76090000D01*
X141235506Y-76130916D01*
X141000396Y-76211630D01*
X141000390Y-76211632D01*
X140781761Y-76329949D01*
X140734942Y-76366388D01*
X140734942Y-76366390D01*
X141434765Y-77066212D01*
X141392708Y-77077482D01*
X141267292Y-77149890D01*
X141164890Y-77252292D01*
X141092482Y-77377708D01*
X141081212Y-77419764D01*
X140381564Y-76720116D01*
X140281267Y-76873632D01*
X140181412Y-77101282D01*
X140120387Y-77342261D01*
X140120385Y-77342270D01*
X140099859Y-77589994D01*
X136610141Y-77589994D01*
X136589614Y-77342270D01*
X136589612Y-77342261D01*
X136528587Y-77101282D01*
X136428731Y-76873630D01*
X136328434Y-76720116D01*
X135628787Y-77419764D01*
X135617518Y-77377708D01*
X135545110Y-77252292D01*
X135442708Y-77149890D01*
X135317292Y-77077482D01*
X135275235Y-77066212D01*
X135975057Y-76366390D01*
X135975056Y-76366389D01*
X135928229Y-76329943D01*
X135709614Y-76211635D01*
X135709603Y-76211630D01*
X135474493Y-76130916D01*
X135229293Y-76090000D01*
X134980707Y-76090000D01*
X134735506Y-76130916D01*
X134500396Y-76211630D01*
X134500390Y-76211632D01*
X134281761Y-76329949D01*
X134234942Y-76366388D01*
X134234942Y-76366390D01*
X134934765Y-77066212D01*
X134892708Y-77077482D01*
X134767292Y-77149890D01*
X134664890Y-77252292D01*
X134592482Y-77377708D01*
X134581212Y-77419764D01*
X133881564Y-76720116D01*
X133781267Y-76873632D01*
X133681412Y-77101282D01*
X133620387Y-77342261D01*
X133620385Y-77342270D01*
X133599859Y-77589994D01*
X127373500Y-77589994D01*
X127373500Y-42029999D01*
X128057341Y-42029999D01*
X128057341Y-42030000D01*
X128077936Y-42265403D01*
X128077938Y-42265413D01*
X128139094Y-42493655D01*
X128139096Y-42493659D01*
X128139097Y-42493663D01*
X128238965Y-42707830D01*
X128238967Y-42707834D01*
X128374501Y-42901395D01*
X128374506Y-42901402D01*
X128541597Y-43068493D01*
X128541603Y-43068498D01*
X128727158Y-43198425D01*
X128770783Y-43253002D01*
X128777977Y-43322500D01*
X128746454Y-43384855D01*
X128727158Y-43401575D01*
X128541597Y-43531505D01*
X128374505Y-43698597D01*
X128238965Y-43892169D01*
X128238964Y-43892171D01*
X128139098Y-44106335D01*
X128139094Y-44106344D01*
X128077938Y-44334586D01*
X128077936Y-44334596D01*
X128057341Y-44569999D01*
X128057341Y-44570000D01*
X128077936Y-44805403D01*
X128077938Y-44805413D01*
X128139094Y-45033655D01*
X128139096Y-45033659D01*
X128139097Y-45033663D01*
X128222668Y-45212881D01*
X128238965Y-45247830D01*
X128238967Y-45247834D01*
X128374501Y-45441395D01*
X128374506Y-45441402D01*
X128541597Y-45608493D01*
X128541603Y-45608498D01*
X128727158Y-45738425D01*
X128770783Y-45793002D01*
X128777977Y-45862500D01*
X128746454Y-45924855D01*
X128727158Y-45941575D01*
X128541597Y-46071505D01*
X128374505Y-46238597D01*
X128238965Y-46432169D01*
X128238964Y-46432171D01*
X128139098Y-46646335D01*
X128139094Y-46646344D01*
X128077938Y-46874586D01*
X128077936Y-46874596D01*
X128057341Y-47109999D01*
X128057341Y-47110000D01*
X128077936Y-47345403D01*
X128077938Y-47345413D01*
X128139094Y-47573655D01*
X128139096Y-47573659D01*
X128139097Y-47573663D01*
X128163269Y-47625500D01*
X128238965Y-47787830D01*
X128238967Y-47787834D01*
X128374501Y-47981395D01*
X128374506Y-47981402D01*
X128541597Y-48148493D01*
X128541603Y-48148498D01*
X128727158Y-48278425D01*
X128770783Y-48333002D01*
X128777977Y-48402500D01*
X128746454Y-48464855D01*
X128727158Y-48481575D01*
X128541597Y-48611505D01*
X128374505Y-48778597D01*
X128238965Y-48972169D01*
X128238964Y-48972171D01*
X128139098Y-49186335D01*
X128139094Y-49186344D01*
X128077938Y-49414586D01*
X128077936Y-49414596D01*
X128057341Y-49649999D01*
X128057341Y-49650000D01*
X128077936Y-49885403D01*
X128077938Y-49885413D01*
X128139094Y-50113655D01*
X128139096Y-50113659D01*
X128139097Y-50113663D01*
X128176362Y-50193578D01*
X128238965Y-50327830D01*
X128238967Y-50327834D01*
X128374501Y-50521395D01*
X128374506Y-50521402D01*
X128541597Y-50688493D01*
X128541603Y-50688498D01*
X128727158Y-50818425D01*
X128770783Y-50873002D01*
X128777977Y-50942500D01*
X128746454Y-51004855D01*
X128727158Y-51021575D01*
X128541597Y-51151505D01*
X128374505Y-51318597D01*
X128238965Y-51512169D01*
X128238964Y-51512171D01*
X128139098Y-51726335D01*
X128139094Y-51726344D01*
X128077938Y-51954586D01*
X128077936Y-51954596D01*
X128057341Y-52189999D01*
X128057341Y-52190000D01*
X128077936Y-52425403D01*
X128077938Y-52425413D01*
X128139094Y-52653655D01*
X128139096Y-52653659D01*
X128139097Y-52653663D01*
X128176790Y-52734495D01*
X128238965Y-52867830D01*
X128238967Y-52867834D01*
X128374501Y-53061395D01*
X128374506Y-53061402D01*
X128541597Y-53228493D01*
X128541603Y-53228498D01*
X128727158Y-53358425D01*
X128770783Y-53413002D01*
X128777977Y-53482500D01*
X128746454Y-53544855D01*
X128727158Y-53561575D01*
X128541597Y-53691505D01*
X128374505Y-53858597D01*
X128238965Y-54052169D01*
X128238964Y-54052171D01*
X128139098Y-54266335D01*
X128139094Y-54266344D01*
X128077938Y-54494586D01*
X128077936Y-54494596D01*
X128057341Y-54729999D01*
X128057341Y-54730000D01*
X128077936Y-54965403D01*
X128077938Y-54965413D01*
X128139094Y-55193655D01*
X128139096Y-55193659D01*
X128139097Y-55193663D01*
X128156779Y-55231582D01*
X128238965Y-55407830D01*
X128238967Y-55407834D01*
X128374501Y-55601395D01*
X128374506Y-55601402D01*
X128541597Y-55768493D01*
X128541603Y-55768498D01*
X128727158Y-55898425D01*
X128770783Y-55953002D01*
X128777977Y-56022500D01*
X128746454Y-56084855D01*
X128727158Y-56101575D01*
X128541597Y-56231505D01*
X128374505Y-56398597D01*
X128238965Y-56592169D01*
X128238964Y-56592171D01*
X128139098Y-56806335D01*
X128139094Y-56806344D01*
X128077938Y-57034586D01*
X128077936Y-57034596D01*
X128057341Y-57269999D01*
X128057341Y-57270000D01*
X128077936Y-57505403D01*
X128077938Y-57505413D01*
X128139094Y-57733655D01*
X128139096Y-57733659D01*
X128139097Y-57733663D01*
X128176362Y-57813578D01*
X128238965Y-57947830D01*
X128238967Y-57947834D01*
X128374501Y-58141395D01*
X128374506Y-58141402D01*
X128541597Y-58308493D01*
X128541603Y-58308498D01*
X128727158Y-58438425D01*
X128770783Y-58493002D01*
X128777977Y-58562500D01*
X128746454Y-58624855D01*
X128727158Y-58641575D01*
X128541597Y-58771505D01*
X128374505Y-58938597D01*
X128238965Y-59132169D01*
X128238964Y-59132171D01*
X128139098Y-59346335D01*
X128139094Y-59346344D01*
X128077938Y-59574586D01*
X128077936Y-59574596D01*
X128057341Y-59809999D01*
X128057341Y-59810000D01*
X128077936Y-60045403D01*
X128077938Y-60045413D01*
X128139094Y-60273655D01*
X128139096Y-60273659D01*
X128139097Y-60273663D01*
X128190139Y-60383123D01*
X128238965Y-60487830D01*
X128238967Y-60487834D01*
X128374501Y-60681395D01*
X128374506Y-60681402D01*
X128541597Y-60848493D01*
X128541603Y-60848498D01*
X128727158Y-60978425D01*
X128770783Y-61033002D01*
X128777977Y-61102500D01*
X128746454Y-61164855D01*
X128727158Y-61181575D01*
X128541597Y-61311505D01*
X128374505Y-61478597D01*
X128238965Y-61672169D01*
X128238964Y-61672171D01*
X128139098Y-61886335D01*
X128139094Y-61886344D01*
X128077938Y-62114586D01*
X128077936Y-62114596D01*
X128057341Y-62349999D01*
X128057341Y-62350000D01*
X128077936Y-62585403D01*
X128077938Y-62585413D01*
X128139094Y-62813655D01*
X128139096Y-62813659D01*
X128139097Y-62813663D01*
X128238965Y-63027830D01*
X128238967Y-63027834D01*
X128374501Y-63221395D01*
X128374506Y-63221402D01*
X128541597Y-63388493D01*
X128541603Y-63388498D01*
X128727158Y-63518425D01*
X128770783Y-63573002D01*
X128777977Y-63642500D01*
X128746454Y-63704855D01*
X128727158Y-63721575D01*
X128541597Y-63851505D01*
X128374505Y-64018597D01*
X128238965Y-64212169D01*
X128238964Y-64212171D01*
X128139098Y-64426335D01*
X128139094Y-64426344D01*
X128077938Y-64654586D01*
X128077936Y-64654596D01*
X128057341Y-64889999D01*
X128057341Y-64890000D01*
X128077936Y-65125403D01*
X128077938Y-65125413D01*
X128139094Y-65353655D01*
X128139096Y-65353659D01*
X128139097Y-65353663D01*
X128152398Y-65382187D01*
X128238965Y-65567830D01*
X128238967Y-65567834D01*
X128374501Y-65761395D01*
X128374506Y-65761402D01*
X128541597Y-65928493D01*
X128541603Y-65928498D01*
X128727158Y-66058425D01*
X128770783Y-66113002D01*
X128777977Y-66182500D01*
X128746454Y-66244855D01*
X128727158Y-66261575D01*
X128541597Y-66391505D01*
X128374505Y-66558597D01*
X128238965Y-66752169D01*
X128238964Y-66752171D01*
X128139098Y-66966335D01*
X128139094Y-66966344D01*
X128077938Y-67194586D01*
X128077936Y-67194596D01*
X128057341Y-67429999D01*
X128057341Y-67430000D01*
X128077936Y-67665403D01*
X128077938Y-67665413D01*
X128139094Y-67893655D01*
X128139096Y-67893659D01*
X128139097Y-67893663D01*
X128158009Y-67934219D01*
X128238965Y-68107830D01*
X128238967Y-68107834D01*
X128374501Y-68301395D01*
X128374506Y-68301402D01*
X128541597Y-68468493D01*
X128541603Y-68468498D01*
X128727158Y-68598425D01*
X128770783Y-68653002D01*
X128777977Y-68722500D01*
X128746454Y-68784855D01*
X128727158Y-68801575D01*
X128541597Y-68931505D01*
X128374505Y-69098597D01*
X128238965Y-69292169D01*
X128238964Y-69292171D01*
X128139098Y-69506335D01*
X128139094Y-69506344D01*
X128077938Y-69734586D01*
X128077936Y-69734596D01*
X128057341Y-69969999D01*
X128057341Y-69970000D01*
X128077936Y-70205403D01*
X128077938Y-70205413D01*
X128139094Y-70433655D01*
X128139096Y-70433659D01*
X128139097Y-70433663D01*
X128238965Y-70647830D01*
X128238967Y-70647834D01*
X128374501Y-70841395D01*
X128374506Y-70841402D01*
X128541597Y-71008493D01*
X128541603Y-71008498D01*
X128727158Y-71138425D01*
X128770783Y-71193002D01*
X128777977Y-71262500D01*
X128746454Y-71324855D01*
X128727158Y-71341575D01*
X128541597Y-71471505D01*
X128374505Y-71638597D01*
X128238965Y-71832169D01*
X128238964Y-71832171D01*
X128139098Y-72046335D01*
X128139094Y-72046344D01*
X128077938Y-72274586D01*
X128077936Y-72274596D01*
X128057341Y-72509999D01*
X128057341Y-72510000D01*
X128077936Y-72745403D01*
X128077938Y-72745413D01*
X128139094Y-72973655D01*
X128139096Y-72973659D01*
X128139097Y-72973663D01*
X128238965Y-73187830D01*
X128238967Y-73187834D01*
X128343984Y-73337812D01*
X128374505Y-73381401D01*
X128541599Y-73548495D01*
X128584995Y-73578881D01*
X128735165Y-73684032D01*
X128735167Y-73684033D01*
X128735170Y-73684035D01*
X128949337Y-73783903D01*
X129177592Y-73845063D01*
X129365918Y-73861539D01*
X129412999Y-73865659D01*
X129413000Y-73865659D01*
X129413001Y-73865659D01*
X129452234Y-73862226D01*
X129648408Y-73845063D01*
X129876663Y-73783903D01*
X130090830Y-73684035D01*
X130284401Y-73548495D01*
X130451495Y-73381401D01*
X130587035Y-73187830D01*
X130632657Y-73089994D01*
X133599357Y-73089994D01*
X133599357Y-73090005D01*
X133619890Y-73337812D01*
X133619892Y-73337824D01*
X133680936Y-73578881D01*
X133780826Y-73806606D01*
X133916833Y-74014782D01*
X133916836Y-74014785D01*
X134085256Y-74197738D01*
X134281491Y-74350474D01*
X134500190Y-74468828D01*
X134735386Y-74549571D01*
X134980665Y-74590500D01*
X135229335Y-74590500D01*
X135474614Y-74549571D01*
X135709810Y-74468828D01*
X135928509Y-74350474D01*
X136124744Y-74197738D01*
X136293164Y-74014785D01*
X136429173Y-73806607D01*
X136529063Y-73578881D01*
X136590108Y-73337821D01*
X136590109Y-73337812D01*
X136610643Y-73090005D01*
X136610643Y-73089994D01*
X140099357Y-73089994D01*
X140099357Y-73090005D01*
X140119890Y-73337812D01*
X140119892Y-73337824D01*
X140180936Y-73578881D01*
X140280826Y-73806606D01*
X140416833Y-74014782D01*
X140416836Y-74014785D01*
X140585256Y-74197738D01*
X140781491Y-74350474D01*
X141000190Y-74468828D01*
X141235386Y-74549571D01*
X141480665Y-74590500D01*
X141729335Y-74590500D01*
X141974614Y-74549571D01*
X142209810Y-74468828D01*
X142428509Y-74350474D01*
X142624744Y-74197738D01*
X142793164Y-74014785D01*
X142929173Y-73806607D01*
X143029063Y-73578881D01*
X143090108Y-73337821D01*
X143090109Y-73337812D01*
X143110643Y-73090005D01*
X143110643Y-73089994D01*
X143759357Y-73089994D01*
X143759357Y-73090005D01*
X143779890Y-73337812D01*
X143779892Y-73337824D01*
X143840936Y-73578881D01*
X143940826Y-73806606D01*
X144076833Y-74014782D01*
X144076836Y-74014785D01*
X144245256Y-74197738D01*
X144441491Y-74350474D01*
X144660190Y-74468828D01*
X144895386Y-74549571D01*
X145140665Y-74590500D01*
X145389335Y-74590500D01*
X145634614Y-74549571D01*
X145869810Y-74468828D01*
X146088509Y-74350474D01*
X146284744Y-74197738D01*
X146453164Y-74014785D01*
X146589173Y-73806607D01*
X146689063Y-73578881D01*
X146750108Y-73337821D01*
X146750109Y-73337812D01*
X146770643Y-73090005D01*
X146770643Y-73089994D01*
X150259357Y-73089994D01*
X150259357Y-73090005D01*
X150279890Y-73337812D01*
X150279892Y-73337824D01*
X150340936Y-73578881D01*
X150440826Y-73806606D01*
X150576833Y-74014782D01*
X150576836Y-74014785D01*
X150745256Y-74197738D01*
X150941491Y-74350474D01*
X151160190Y-74468828D01*
X151395386Y-74549571D01*
X151640665Y-74590500D01*
X151889335Y-74590500D01*
X152134614Y-74549571D01*
X152369810Y-74468828D01*
X152588509Y-74350474D01*
X152784744Y-74197738D01*
X152953164Y-74014785D01*
X153089173Y-73806607D01*
X153189063Y-73578881D01*
X153250108Y-73337821D01*
X153250109Y-73337812D01*
X153270643Y-73090005D01*
X153270643Y-73089994D01*
X153815357Y-73089994D01*
X153815357Y-73090005D01*
X153835890Y-73337812D01*
X153835892Y-73337824D01*
X153896936Y-73578881D01*
X153996826Y-73806606D01*
X154132833Y-74014782D01*
X154132836Y-74014785D01*
X154301256Y-74197738D01*
X154497491Y-74350474D01*
X154716190Y-74468828D01*
X154951386Y-74549571D01*
X155196665Y-74590500D01*
X155445335Y-74590500D01*
X155690614Y-74549571D01*
X155925810Y-74468828D01*
X156144509Y-74350474D01*
X156340744Y-74197738D01*
X156509164Y-74014785D01*
X156645173Y-73806607D01*
X156745063Y-73578881D01*
X156806108Y-73337821D01*
X156806109Y-73337812D01*
X156826643Y-73090005D01*
X156826643Y-73089994D01*
X160315357Y-73089994D01*
X160315357Y-73090005D01*
X160335890Y-73337812D01*
X160335892Y-73337824D01*
X160396936Y-73578881D01*
X160496826Y-73806606D01*
X160632833Y-74014782D01*
X160632836Y-74014785D01*
X160801256Y-74197738D01*
X160997491Y-74350474D01*
X161216190Y-74468828D01*
X161451386Y-74549571D01*
X161696665Y-74590500D01*
X161945335Y-74590500D01*
X162190614Y-74549571D01*
X162425810Y-74468828D01*
X162644509Y-74350474D01*
X162840744Y-74197738D01*
X163009164Y-74014785D01*
X163145173Y-73806607D01*
X163245063Y-73578881D01*
X163306108Y-73337821D01*
X163306109Y-73337812D01*
X163326643Y-73090005D01*
X163326643Y-73089994D01*
X163975357Y-73089994D01*
X163975357Y-73090005D01*
X163995890Y-73337812D01*
X163995892Y-73337824D01*
X164056936Y-73578881D01*
X164156826Y-73806606D01*
X164292833Y-74014782D01*
X164292836Y-74014785D01*
X164461256Y-74197738D01*
X164657491Y-74350474D01*
X164876190Y-74468828D01*
X165111386Y-74549571D01*
X165356665Y-74590500D01*
X165605335Y-74590500D01*
X165850614Y-74549571D01*
X166085810Y-74468828D01*
X166304509Y-74350474D01*
X166500744Y-74197738D01*
X166669164Y-74014785D01*
X166805173Y-73806607D01*
X166905063Y-73578881D01*
X166966108Y-73337821D01*
X166966109Y-73337812D01*
X166986643Y-73090005D01*
X166986643Y-73089994D01*
X166966109Y-72842187D01*
X166966107Y-72842175D01*
X166905063Y-72601118D01*
X166805173Y-72373393D01*
X166669166Y-72165217D01*
X166647557Y-72141744D01*
X166500744Y-71982262D01*
X166304509Y-71829526D01*
X166304507Y-71829525D01*
X166304506Y-71829524D01*
X166085811Y-71711172D01*
X166085802Y-71711169D01*
X165850616Y-71630429D01*
X165605335Y-71589500D01*
X165356665Y-71589500D01*
X165111383Y-71630429D01*
X164876197Y-71711169D01*
X164876188Y-71711172D01*
X164657493Y-71829524D01*
X164461257Y-71982261D01*
X164292833Y-72165217D01*
X164156826Y-72373393D01*
X164056936Y-72601118D01*
X163995892Y-72842175D01*
X163995890Y-72842187D01*
X163975357Y-73089994D01*
X163326643Y-73089994D01*
X163306109Y-72842187D01*
X163306107Y-72842175D01*
X163245063Y-72601118D01*
X163145173Y-72373393D01*
X163009166Y-72165217D01*
X162987557Y-72141744D01*
X162840744Y-71982262D01*
X162644509Y-71829526D01*
X162644507Y-71829525D01*
X162644506Y-71829524D01*
X162425811Y-71711172D01*
X162425802Y-71711169D01*
X162190616Y-71630429D01*
X161945335Y-71589500D01*
X161696665Y-71589500D01*
X161451383Y-71630429D01*
X161216197Y-71711169D01*
X161216188Y-71711172D01*
X160997493Y-71829524D01*
X160801257Y-71982261D01*
X160632833Y-72165217D01*
X160496826Y-72373393D01*
X160396936Y-72601118D01*
X160335892Y-72842175D01*
X160335890Y-72842187D01*
X160315357Y-73089994D01*
X156826643Y-73089994D01*
X156806109Y-72842187D01*
X156806107Y-72842175D01*
X156745063Y-72601118D01*
X156645173Y-72373393D01*
X156509166Y-72165217D01*
X156487557Y-72141744D01*
X156340744Y-71982262D01*
X156144509Y-71829526D01*
X156144507Y-71829525D01*
X156144506Y-71829524D01*
X155925811Y-71711172D01*
X155925802Y-71711169D01*
X155690616Y-71630429D01*
X155445335Y-71589500D01*
X155196665Y-71589500D01*
X154951383Y-71630429D01*
X154716197Y-71711169D01*
X154716188Y-71711172D01*
X154497493Y-71829524D01*
X154301257Y-71982261D01*
X154132833Y-72165217D01*
X153996826Y-72373393D01*
X153896936Y-72601118D01*
X153835892Y-72842175D01*
X153835890Y-72842187D01*
X153815357Y-73089994D01*
X153270643Y-73089994D01*
X153250109Y-72842187D01*
X153250107Y-72842175D01*
X153189063Y-72601118D01*
X153089173Y-72373393D01*
X152953166Y-72165217D01*
X152931557Y-72141744D01*
X152784744Y-71982262D01*
X152588509Y-71829526D01*
X152588507Y-71829525D01*
X152588506Y-71829524D01*
X152369811Y-71711172D01*
X152369802Y-71711169D01*
X152134616Y-71630429D01*
X151889335Y-71589500D01*
X151640665Y-71589500D01*
X151395383Y-71630429D01*
X151160197Y-71711169D01*
X151160188Y-71711172D01*
X150941493Y-71829524D01*
X150745257Y-71982261D01*
X150576833Y-72165217D01*
X150440826Y-72373393D01*
X150340936Y-72601118D01*
X150279892Y-72842175D01*
X150279890Y-72842187D01*
X150259357Y-73089994D01*
X146770643Y-73089994D01*
X146750109Y-72842187D01*
X146750107Y-72842175D01*
X146689063Y-72601118D01*
X146589173Y-72373393D01*
X146453166Y-72165217D01*
X146431557Y-72141744D01*
X146284744Y-71982262D01*
X146088509Y-71829526D01*
X146088507Y-71829525D01*
X146088506Y-71829524D01*
X145869811Y-71711172D01*
X145869802Y-71711169D01*
X145634616Y-71630429D01*
X145389335Y-71589500D01*
X145140665Y-71589500D01*
X144895383Y-71630429D01*
X144660197Y-71711169D01*
X144660188Y-71711172D01*
X144441493Y-71829524D01*
X144245257Y-71982261D01*
X144076833Y-72165217D01*
X143940826Y-72373393D01*
X143840936Y-72601118D01*
X143779892Y-72842175D01*
X143779890Y-72842187D01*
X143759357Y-73089994D01*
X143110643Y-73089994D01*
X143090109Y-72842187D01*
X143090107Y-72842175D01*
X143029063Y-72601118D01*
X142929173Y-72373393D01*
X142793166Y-72165217D01*
X142771557Y-72141744D01*
X142624744Y-71982262D01*
X142428509Y-71829526D01*
X142428507Y-71829525D01*
X142428506Y-71829524D01*
X142209811Y-71711172D01*
X142209802Y-71711169D01*
X141974616Y-71630429D01*
X141729335Y-71589500D01*
X141480665Y-71589500D01*
X141235383Y-71630429D01*
X141000197Y-71711169D01*
X141000188Y-71711172D01*
X140781493Y-71829524D01*
X140585257Y-71982261D01*
X140416833Y-72165217D01*
X140280826Y-72373393D01*
X140180936Y-72601118D01*
X140119892Y-72842175D01*
X140119890Y-72842187D01*
X140099357Y-73089994D01*
X136610643Y-73089994D01*
X136590109Y-72842187D01*
X136590107Y-72842175D01*
X136529063Y-72601118D01*
X136429173Y-72373393D01*
X136293166Y-72165217D01*
X136271557Y-72141744D01*
X136124744Y-71982262D01*
X135928509Y-71829526D01*
X135928507Y-71829525D01*
X135928506Y-71829524D01*
X135709811Y-71711172D01*
X135709802Y-71711169D01*
X135474616Y-71630429D01*
X135229335Y-71589500D01*
X134980665Y-71589500D01*
X134735383Y-71630429D01*
X134500197Y-71711169D01*
X134500188Y-71711172D01*
X134281493Y-71829524D01*
X134085257Y-71982261D01*
X133916833Y-72165217D01*
X133780826Y-72373393D01*
X133680936Y-72601118D01*
X133619892Y-72842175D01*
X133619890Y-72842187D01*
X133599357Y-73089994D01*
X130632657Y-73089994D01*
X130686903Y-72973663D01*
X130748063Y-72745408D01*
X130768659Y-72510000D01*
X130748063Y-72274592D01*
X130686903Y-72046337D01*
X130587035Y-71832171D01*
X130451495Y-71638599D01*
X130451494Y-71638597D01*
X130284402Y-71471506D01*
X130284396Y-71471501D01*
X130098842Y-71341575D01*
X130055217Y-71286998D01*
X130048023Y-71217500D01*
X130079546Y-71155145D01*
X130098842Y-71138425D01*
X130121026Y-71122891D01*
X130284401Y-71008495D01*
X130451495Y-70841401D01*
X130587035Y-70647830D01*
X130686903Y-70433663D01*
X130748063Y-70205408D01*
X130768659Y-69970000D01*
X130748063Y-69734592D01*
X130686903Y-69506337D01*
X130587035Y-69292171D01*
X130451495Y-69098599D01*
X130451494Y-69098597D01*
X130284402Y-68931506D01*
X130284396Y-68931501D01*
X130098842Y-68801575D01*
X130055217Y-68746998D01*
X130048023Y-68677500D01*
X130079546Y-68615145D01*
X130098842Y-68598425D01*
X130121026Y-68582891D01*
X130284401Y-68468495D01*
X130451495Y-68301401D01*
X130587035Y-68107830D01*
X130686903Y-67893663D01*
X130748063Y-67665408D01*
X130768659Y-67430000D01*
X130748063Y-67194592D01*
X130695000Y-66996554D01*
X130686905Y-66966344D01*
X130686904Y-66966343D01*
X130686903Y-66966337D01*
X130587035Y-66752171D01*
X130576989Y-66737823D01*
X130451494Y-66558597D01*
X130284402Y-66391506D01*
X130284396Y-66391501D01*
X130098842Y-66261575D01*
X130055217Y-66206998D01*
X130048023Y-66137500D01*
X130079546Y-66075145D01*
X130098842Y-66058425D01*
X130168211Y-66009852D01*
X130284401Y-65928495D01*
X130451495Y-65761401D01*
X130587035Y-65567830D01*
X130686903Y-65353663D01*
X130748063Y-65125408D01*
X130768659Y-64890000D01*
X130748063Y-64654592D01*
X130686903Y-64426337D01*
X130587035Y-64212171D01*
X130570828Y-64189024D01*
X130451494Y-64018597D01*
X130284402Y-63851506D01*
X130284396Y-63851501D01*
X130098842Y-63721575D01*
X130055217Y-63666998D01*
X130048023Y-63597500D01*
X130079546Y-63535145D01*
X130098842Y-63518425D01*
X130236295Y-63422179D01*
X130284401Y-63388495D01*
X130451495Y-63221401D01*
X130587035Y-63027830D01*
X130686903Y-62813663D01*
X130748063Y-62585408D01*
X130768659Y-62350000D01*
X130748063Y-62114592D01*
X130686903Y-61886337D01*
X130587035Y-61672171D01*
X130524081Y-61582262D01*
X130451494Y-61478597D01*
X130284402Y-61311506D01*
X130284396Y-61311501D01*
X130098842Y-61181575D01*
X130055217Y-61126998D01*
X130048023Y-61057500D01*
X130079546Y-60995145D01*
X130098842Y-60978425D01*
X130121026Y-60962891D01*
X130284401Y-60848495D01*
X130451495Y-60681401D01*
X130587035Y-60487830D01*
X130686903Y-60273663D01*
X130748063Y-60045408D01*
X130768659Y-59810000D01*
X130748063Y-59574592D01*
X130686903Y-59346337D01*
X130587035Y-59132171D01*
X130566829Y-59103313D01*
X130451494Y-58938597D01*
X130284402Y-58771506D01*
X130284396Y-58771501D01*
X130098842Y-58641575D01*
X130055217Y-58586998D01*
X130048023Y-58517500D01*
X130079546Y-58455145D01*
X130098842Y-58438425D01*
X130275369Y-58314819D01*
X130284401Y-58308495D01*
X130451495Y-58141401D01*
X130587035Y-57947830D01*
X130686903Y-57733663D01*
X130695457Y-57701736D01*
X130731819Y-57642077D01*
X130794665Y-57611546D01*
X130864040Y-57619838D01*
X130902913Y-57646147D01*
X134664181Y-61407415D01*
X134697666Y-61468738D01*
X134700500Y-61495096D01*
X134700500Y-63248114D01*
X134680815Y-63315153D01*
X134640929Y-63354062D01*
X134538782Y-63416178D01*
X134323941Y-63590965D01*
X134134907Y-63793372D01*
X134134904Y-63793374D01*
X134134903Y-63793377D01*
X134130668Y-63799377D01*
X133975186Y-64019643D01*
X133918263Y-64129500D01*
X133850548Y-64260184D01*
X133847763Y-64265558D01*
X133847760Y-64265564D01*
X133757468Y-64519622D01*
X133716470Y-64576199D01*
X133651392Y-64601629D01*
X133582897Y-64587838D01*
X133549401Y-64562082D01*
X133512744Y-64522262D01*
X133316509Y-64369526D01*
X133316507Y-64369525D01*
X133316506Y-64369524D01*
X133097811Y-64251172D01*
X133097802Y-64251169D01*
X132862616Y-64170429D01*
X132617335Y-64129500D01*
X132368665Y-64129500D01*
X132123383Y-64170429D01*
X131888197Y-64251169D01*
X131888188Y-64251172D01*
X131669493Y-64369524D01*
X131473257Y-64522261D01*
X131304833Y-64705217D01*
X131168826Y-64913393D01*
X131068936Y-65141118D01*
X131007892Y-65382175D01*
X131007890Y-65382187D01*
X130987357Y-65629994D01*
X130987357Y-65630005D01*
X131007890Y-65877812D01*
X131007892Y-65877824D01*
X131068936Y-66118881D01*
X131168826Y-66346606D01*
X131304833Y-66554782D01*
X131337245Y-66589991D01*
X131473256Y-66737738D01*
X131669491Y-66890474D01*
X131778840Y-66949651D01*
X131865498Y-66996548D01*
X131888190Y-67008828D01*
X132123386Y-67089571D01*
X132368665Y-67130500D01*
X132617335Y-67130500D01*
X132862614Y-67089571D01*
X133097810Y-67008828D01*
X133316509Y-66890474D01*
X133512744Y-66737738D01*
X133681164Y-66554785D01*
X133817173Y-66346607D01*
X133848561Y-66275049D01*
X133893514Y-66221567D01*
X133960249Y-66200876D01*
X134027578Y-66219550D01*
X134063418Y-66253352D01*
X134134903Y-66354623D01*
X134323942Y-66557035D01*
X134538782Y-66731821D01*
X134538784Y-66731822D01*
X134538785Y-66731823D01*
X134775423Y-66875725D01*
X134948917Y-66951083D01*
X135029452Y-66986065D01*
X135296141Y-67060788D01*
X135537364Y-67093942D01*
X135570519Y-67098500D01*
X135570520Y-67098500D01*
X135847481Y-67098500D01*
X135877061Y-67094434D01*
X136121859Y-67060788D01*
X136388548Y-66986065D01*
X136414365Y-66974850D01*
X136483695Y-66966194D01*
X136487914Y-66966957D01*
X136495671Y-66968500D01*
X142038022Y-66968500D01*
X142105061Y-66988185D01*
X142150816Y-67040989D01*
X142160760Y-67110147D01*
X142157798Y-67124585D01*
X142156214Y-67130500D01*
X142134930Y-67209930D01*
X142134929Y-67209937D01*
X142115677Y-67429997D01*
X142115677Y-67430002D01*
X142134929Y-67650062D01*
X142134930Y-67650070D01*
X142192104Y-67863445D01*
X142192105Y-67863447D01*
X142192106Y-67863450D01*
X142206195Y-67893664D01*
X142285466Y-68063662D01*
X142285468Y-68063666D01*
X142412170Y-68244615D01*
X142412175Y-68244621D01*
X142568378Y-68400824D01*
X142568384Y-68400829D01*
X142749333Y-68527531D01*
X142749335Y-68527532D01*
X142749338Y-68527534D01*
X142949550Y-68620894D01*
X143162932Y-68678070D01*
X143320123Y-68691822D01*
X143382998Y-68697323D01*
X143383000Y-68697323D01*
X143383002Y-68697323D01*
X143438017Y-68692509D01*
X143603068Y-68678070D01*
X143816450Y-68620894D01*
X144016662Y-68527534D01*
X144197620Y-68400826D01*
X144353826Y-68244620D01*
X144480534Y-68063662D01*
X144540618Y-67934811D01*
X144586790Y-67882371D01*
X144653983Y-67863219D01*
X144720865Y-67883435D01*
X144765382Y-67934811D01*
X144825464Y-68063658D01*
X144825468Y-68063666D01*
X144952170Y-68244615D01*
X144952175Y-68244621D01*
X145108378Y-68400824D01*
X145108384Y-68400829D01*
X145289333Y-68527531D01*
X145289335Y-68527532D01*
X145289338Y-68527534D01*
X145489550Y-68620894D01*
X145702932Y-68678070D01*
X145860123Y-68691822D01*
X145922998Y-68697323D01*
X145923000Y-68697323D01*
X145923002Y-68697323D01*
X145978017Y-68692509D01*
X146143068Y-68678070D01*
X146356450Y-68620894D01*
X146556662Y-68527534D01*
X146737620Y-68400826D01*
X146893826Y-68244620D01*
X147020534Y-68063662D01*
X147080618Y-67934811D01*
X147126790Y-67882371D01*
X147193983Y-67863219D01*
X147260865Y-67883435D01*
X147305382Y-67934811D01*
X147365464Y-68063658D01*
X147365468Y-68063666D01*
X147492170Y-68244615D01*
X147492175Y-68244621D01*
X147648378Y-68400824D01*
X147648384Y-68400829D01*
X147829333Y-68527531D01*
X147829335Y-68527532D01*
X147829338Y-68527534D01*
X148029550Y-68620894D01*
X148242932Y-68678070D01*
X148400123Y-68691822D01*
X148462998Y-68697323D01*
X148463000Y-68697323D01*
X148463002Y-68697323D01*
X148518017Y-68692509D01*
X148683068Y-68678070D01*
X148896450Y-68620894D01*
X149096662Y-68527534D01*
X149277620Y-68400826D01*
X149433826Y-68244620D01*
X149560534Y-68063662D01*
X149620618Y-67934811D01*
X149666790Y-67882371D01*
X149733983Y-67863219D01*
X149800865Y-67883435D01*
X149845382Y-67934811D01*
X149905464Y-68063658D01*
X149905468Y-68063666D01*
X150032170Y-68244615D01*
X150032175Y-68244621D01*
X150188378Y-68400824D01*
X150188384Y-68400829D01*
X150369333Y-68527531D01*
X150369335Y-68527532D01*
X150369338Y-68527534D01*
X150569550Y-68620894D01*
X150782932Y-68678070D01*
X150940123Y-68691822D01*
X151002998Y-68697323D01*
X151003000Y-68697323D01*
X151003002Y-68697323D01*
X151058017Y-68692509D01*
X151223068Y-68678070D01*
X151436450Y-68620894D01*
X151636662Y-68527534D01*
X151817620Y-68400826D01*
X151973826Y-68244620D01*
X152100534Y-68063662D01*
X152160618Y-67934811D01*
X152206790Y-67882371D01*
X152273983Y-67863219D01*
X152340865Y-67883435D01*
X152385382Y-67934811D01*
X152445464Y-68063658D01*
X152445468Y-68063666D01*
X152572170Y-68244615D01*
X152572175Y-68244621D01*
X152728378Y-68400824D01*
X152728384Y-68400829D01*
X152909333Y-68527531D01*
X152909335Y-68527532D01*
X152909338Y-68527534D01*
X153109550Y-68620894D01*
X153322932Y-68678070D01*
X153480123Y-68691822D01*
X153542998Y-68697323D01*
X153543000Y-68697323D01*
X153543002Y-68697323D01*
X153598017Y-68692509D01*
X153763068Y-68678070D01*
X153976450Y-68620894D01*
X154176662Y-68527534D01*
X154357620Y-68400826D01*
X154513826Y-68244620D01*
X154640534Y-68063662D01*
X154700894Y-67934218D01*
X154747066Y-67881779D01*
X154814259Y-67862627D01*
X154881141Y-67882843D01*
X154925658Y-67934219D01*
X154985898Y-68063405D01*
X154985901Y-68063411D01*
X155031258Y-68128187D01*
X155031259Y-68128188D01*
X155702000Y-67457447D01*
X155702000Y-67480160D01*
X155727964Y-67577061D01*
X155778124Y-67663940D01*
X155849060Y-67734876D01*
X155935939Y-67785036D01*
X156032840Y-67811000D01*
X156055553Y-67811000D01*
X155384810Y-68481740D01*
X155449590Y-68527099D01*
X155449592Y-68527100D01*
X155649715Y-68620419D01*
X155649729Y-68620424D01*
X155863013Y-68677573D01*
X155863023Y-68677575D01*
X156082999Y-68696821D01*
X156083001Y-68696821D01*
X156302976Y-68677575D01*
X156302986Y-68677573D01*
X156516270Y-68620424D01*
X156516284Y-68620419D01*
X156716407Y-68527100D01*
X156716417Y-68527094D01*
X156781188Y-68481741D01*
X156110448Y-67811000D01*
X156133160Y-67811000D01*
X156230061Y-67785036D01*
X156316940Y-67734876D01*
X156387876Y-67663940D01*
X156438036Y-67577061D01*
X156464000Y-67480160D01*
X156464000Y-67457447D01*
X157134741Y-68128188D01*
X157180094Y-68063417D01*
X157180095Y-68063416D01*
X157240340Y-67934219D01*
X157286512Y-67881780D01*
X157353706Y-67862627D01*
X157420587Y-67882842D01*
X157465105Y-67934218D01*
X157525466Y-68063662D01*
X157525468Y-68063666D01*
X157652170Y-68244615D01*
X157652175Y-68244621D01*
X157808378Y-68400824D01*
X157808384Y-68400829D01*
X157989333Y-68527531D01*
X157989335Y-68527532D01*
X157989338Y-68527534D01*
X158189550Y-68620894D01*
X158402932Y-68678070D01*
X158560123Y-68691822D01*
X158622998Y-68697323D01*
X158623000Y-68697323D01*
X158623002Y-68697323D01*
X158678017Y-68692509D01*
X158843068Y-68678070D01*
X159056450Y-68620894D01*
X159256662Y-68527534D01*
X159437620Y-68400826D01*
X159593826Y-68244620D01*
X159720534Y-68063662D01*
X159780618Y-67934811D01*
X159826790Y-67882371D01*
X159893983Y-67863219D01*
X159960865Y-67883435D01*
X160005382Y-67934811D01*
X160065464Y-68063658D01*
X160065468Y-68063666D01*
X160192170Y-68244615D01*
X160192175Y-68244621D01*
X160348378Y-68400824D01*
X160348384Y-68400829D01*
X160529333Y-68527531D01*
X160529335Y-68527532D01*
X160529338Y-68527534D01*
X160729550Y-68620894D01*
X160942932Y-68678070D01*
X161100123Y-68691822D01*
X161162998Y-68697323D01*
X161163000Y-68697323D01*
X161163002Y-68697323D01*
X161218017Y-68692509D01*
X161383068Y-68678070D01*
X161596450Y-68620894D01*
X161796662Y-68527534D01*
X161977620Y-68400826D01*
X162133826Y-68244620D01*
X162260534Y-68063662D01*
X162320618Y-67934811D01*
X162366790Y-67882371D01*
X162433983Y-67863219D01*
X162500865Y-67883435D01*
X162545382Y-67934811D01*
X162605464Y-68063658D01*
X162605468Y-68063666D01*
X162732170Y-68244615D01*
X162732175Y-68244621D01*
X162888378Y-68400824D01*
X162888384Y-68400829D01*
X163069333Y-68527531D01*
X163069335Y-68527532D01*
X163069338Y-68527534D01*
X163269550Y-68620894D01*
X163482932Y-68678070D01*
X163640123Y-68691822D01*
X163702998Y-68697323D01*
X163703000Y-68697323D01*
X163703002Y-68697323D01*
X163758017Y-68692509D01*
X163923068Y-68678070D01*
X164136450Y-68620894D01*
X164336662Y-68527534D01*
X164517620Y-68400826D01*
X164673826Y-68244620D01*
X164800534Y-68063662D01*
X164893894Y-67863450D01*
X164951070Y-67650068D01*
X164970323Y-67430000D01*
X164951070Y-67209932D01*
X164893894Y-66996550D01*
X164800534Y-66796339D01*
X164673826Y-66615380D01*
X164517620Y-66459174D01*
X164517616Y-66459171D01*
X164517615Y-66459170D01*
X164336666Y-66332468D01*
X164336662Y-66332466D01*
X164336660Y-66332465D01*
X164136450Y-66239106D01*
X164136447Y-66239105D01*
X164136445Y-66239104D01*
X163923070Y-66181930D01*
X163923062Y-66181929D01*
X163703002Y-66162677D01*
X163702998Y-66162677D01*
X163482937Y-66181929D01*
X163482929Y-66181930D01*
X163269554Y-66239104D01*
X163269548Y-66239107D01*
X163069340Y-66332465D01*
X163069338Y-66332466D01*
X162888377Y-66459175D01*
X162732175Y-66615377D01*
X162605466Y-66796338D01*
X162605465Y-66796340D01*
X162545382Y-66925189D01*
X162499209Y-66977628D01*
X162432016Y-66996780D01*
X162365135Y-66976564D01*
X162320618Y-66925189D01*
X162260651Y-66796590D01*
X162260534Y-66796339D01*
X162133826Y-66615380D01*
X161977620Y-66459174D01*
X161977616Y-66459171D01*
X161977615Y-66459170D01*
X161796666Y-66332468D01*
X161796662Y-66332466D01*
X161796660Y-66332465D01*
X161596450Y-66239106D01*
X161596447Y-66239105D01*
X161596445Y-66239104D01*
X161383070Y-66181930D01*
X161383062Y-66181929D01*
X161163002Y-66162677D01*
X161162998Y-66162677D01*
X160942937Y-66181929D01*
X160942929Y-66181930D01*
X160729554Y-66239104D01*
X160729548Y-66239107D01*
X160529340Y-66332465D01*
X160529338Y-66332466D01*
X160348377Y-66459175D01*
X160192175Y-66615377D01*
X160065466Y-66796338D01*
X160065465Y-66796340D01*
X160005382Y-66925189D01*
X159959209Y-66977628D01*
X159892016Y-66996780D01*
X159825135Y-66976564D01*
X159780618Y-66925189D01*
X159720651Y-66796590D01*
X159720534Y-66796339D01*
X159593826Y-66615380D01*
X159437620Y-66459174D01*
X159437616Y-66459171D01*
X159437615Y-66459170D01*
X159256666Y-66332468D01*
X159256662Y-66332466D01*
X159256660Y-66332465D01*
X159056450Y-66239106D01*
X159056447Y-66239105D01*
X159056445Y-66239104D01*
X158843070Y-66181930D01*
X158843062Y-66181929D01*
X158623002Y-66162677D01*
X158622998Y-66162677D01*
X158402937Y-66181929D01*
X158402929Y-66181930D01*
X158189554Y-66239104D01*
X158189548Y-66239107D01*
X157989340Y-66332465D01*
X157989338Y-66332466D01*
X157808377Y-66459175D01*
X157652175Y-66615377D01*
X157525467Y-66796337D01*
X157465105Y-66925782D01*
X157418932Y-66978221D01*
X157351738Y-66997372D01*
X157284857Y-66977156D01*
X157240341Y-66925780D01*
X157180098Y-66796589D01*
X157180097Y-66796587D01*
X157134741Y-66731811D01*
X157134740Y-66731810D01*
X156464000Y-67402551D01*
X156464000Y-67379840D01*
X156438036Y-67282939D01*
X156387876Y-67196060D01*
X156316940Y-67125124D01*
X156230061Y-67074964D01*
X156133160Y-67049000D01*
X156110448Y-67049000D01*
X156781188Y-66378259D01*
X156781187Y-66378258D01*
X156716411Y-66332901D01*
X156716405Y-66332898D01*
X156516284Y-66239580D01*
X156516270Y-66239575D01*
X156302986Y-66182426D01*
X156302976Y-66182424D01*
X156083001Y-66163179D01*
X156082999Y-66163179D01*
X155863023Y-66182424D01*
X155863013Y-66182426D01*
X155649729Y-66239575D01*
X155649720Y-66239579D01*
X155449590Y-66332901D01*
X155384811Y-66378258D01*
X156055553Y-67049000D01*
X156032840Y-67049000D01*
X155935939Y-67074964D01*
X155849060Y-67125124D01*
X155778124Y-67196060D01*
X155727964Y-67282939D01*
X155702000Y-67379840D01*
X155702000Y-67402553D01*
X155031258Y-66731811D01*
X154985901Y-66796590D01*
X154925658Y-66925781D01*
X154879485Y-66978220D01*
X154812292Y-66997372D01*
X154745411Y-66977156D01*
X154700894Y-66925781D01*
X154640651Y-66796590D01*
X154640534Y-66796339D01*
X154513826Y-66615380D01*
X154357620Y-66459174D01*
X154357616Y-66459171D01*
X154357615Y-66459170D01*
X154176666Y-66332468D01*
X154176662Y-66332466D01*
X154176660Y-66332465D01*
X153976450Y-66239106D01*
X153976447Y-66239105D01*
X153976445Y-66239104D01*
X153763070Y-66181930D01*
X153763060Y-66181929D01*
X153762088Y-66181844D01*
X153761686Y-66181687D01*
X153757739Y-66180991D01*
X153757879Y-66180196D01*
X153697023Y-66156382D01*
X153685232Y-66145998D01*
X152715884Y-65176649D01*
X152715880Y-65176646D01*
X152550710Y-65066282D01*
X152550697Y-65066275D01*
X152503722Y-65046818D01*
X152503721Y-65046818D01*
X152367169Y-64990256D01*
X152367161Y-64990254D01*
X152172333Y-64951500D01*
X152172329Y-64951500D01*
X140877887Y-64951500D01*
X140810848Y-64931815D01*
X140765093Y-64879011D01*
X140755149Y-64809853D01*
X140784174Y-64746297D01*
X140790206Y-64739819D01*
X151279206Y-54250819D01*
X151340529Y-54217334D01*
X151366887Y-54214500D01*
X154524460Y-54214500D01*
X154565415Y-54221459D01*
X154633737Y-54245366D01*
X154633743Y-54245367D01*
X154633745Y-54245368D01*
X154633746Y-54245368D01*
X154633750Y-54245369D01*
X154812996Y-54265565D01*
X154813000Y-54265565D01*
X154813004Y-54265565D01*
X154992249Y-54245369D01*
X154992252Y-54245368D01*
X154992255Y-54245368D01*
X155162522Y-54185789D01*
X155315262Y-54089816D01*
X155442816Y-53962262D01*
X155538789Y-53809522D01*
X155598368Y-53639255D01*
X155598369Y-53639249D01*
X155618565Y-53460003D01*
X155618565Y-53459996D01*
X155598369Y-53280750D01*
X155598368Y-53280745D01*
X155538788Y-53110476D01*
X155485184Y-53025166D01*
X155442816Y-52957738D01*
X155315262Y-52830184D01*
X155307012Y-52825000D01*
X155162523Y-52734211D01*
X154992254Y-52674631D01*
X154992249Y-52674630D01*
X154813004Y-52654435D01*
X154812996Y-52654435D01*
X154633750Y-52674630D01*
X154633737Y-52674633D01*
X154565415Y-52698541D01*
X154524460Y-52705500D01*
X151083446Y-52705500D01*
X151083426Y-52705499D01*
X151077312Y-52705499D01*
X150928688Y-52705499D01*
X150928686Y-52705499D01*
X150807105Y-52729684D01*
X150792540Y-52732581D01*
X150782918Y-52734495D01*
X150782917Y-52734495D01*
X150726045Y-52758053D01*
X150645614Y-52791368D01*
X150522031Y-52873942D01*
X139254357Y-64141616D01*
X139228869Y-64159705D01*
X139229373Y-64160507D01*
X139070737Y-64260184D01*
X138943184Y-64387737D01*
X138847211Y-64540476D01*
X138787631Y-64710745D01*
X138787630Y-64710749D01*
X138772912Y-64841384D01*
X138745846Y-64905798D01*
X138688251Y-64945353D01*
X138649692Y-64951500D01*
X137845660Y-64951500D01*
X137778621Y-64931815D01*
X137732866Y-64879011D01*
X137721949Y-64835961D01*
X137719331Y-64797686D01*
X137719330Y-64797683D01*
X137662985Y-64526530D01*
X137662980Y-64526514D01*
X137570239Y-64265564D01*
X137570236Y-64265558D01*
X137570234Y-64265552D01*
X137442814Y-64019644D01*
X137283097Y-63793377D01*
X137094058Y-63590965D01*
X136879218Y-63416179D01*
X136879217Y-63416178D01*
X136777071Y-63354062D01*
X136730019Y-63302410D01*
X136717500Y-63248114D01*
X136717500Y-60926670D01*
X136717499Y-60926666D01*
X136678745Y-60731838D01*
X136678744Y-60731831D01*
X136630585Y-60615565D01*
X136602722Y-60548297D01*
X136562319Y-60487830D01*
X136492357Y-60383123D01*
X136492351Y-60383115D01*
X130793805Y-54684571D01*
X130760320Y-54623248D01*
X130757958Y-54607697D01*
X130748063Y-54494597D01*
X130748063Y-54494596D01*
X130748063Y-54494592D01*
X130686903Y-54266337D01*
X130587035Y-54052171D01*
X130524081Y-53962262D01*
X130451494Y-53858597D01*
X130284402Y-53691506D01*
X130284396Y-53691501D01*
X130098842Y-53561575D01*
X130055217Y-53506998D01*
X130048023Y-53437500D01*
X130079546Y-53375145D01*
X130098842Y-53358425D01*
X130209780Y-53280745D01*
X130284401Y-53228495D01*
X130451495Y-53061401D01*
X130587035Y-52867830D01*
X130686903Y-52653663D01*
X130748063Y-52425408D01*
X130768659Y-52190000D01*
X130748063Y-51954592D01*
X130686903Y-51726337D01*
X130587035Y-51512171D01*
X130451495Y-51318599D01*
X130451494Y-51318597D01*
X130284402Y-51151506D01*
X130284396Y-51151501D01*
X130098842Y-51021575D01*
X130055217Y-50966998D01*
X130048023Y-50897500D01*
X130079546Y-50835145D01*
X130098842Y-50818425D01*
X130121026Y-50802891D01*
X130284401Y-50688495D01*
X130451495Y-50521401D01*
X130587035Y-50327830D01*
X130686903Y-50113663D01*
X130748063Y-49885408D01*
X130768659Y-49650000D01*
X130748063Y-49414592D01*
X130686903Y-49186337D01*
X130587035Y-48972171D01*
X130451495Y-48778599D01*
X130451494Y-48778597D01*
X130284402Y-48611506D01*
X130284396Y-48611501D01*
X130098842Y-48481575D01*
X130055217Y-48426998D01*
X130048023Y-48357500D01*
X130079546Y-48295145D01*
X130098842Y-48278425D01*
X130121026Y-48262891D01*
X130284401Y-48148495D01*
X130451495Y-47981401D01*
X130587035Y-47787830D01*
X130686903Y-47573663D01*
X130748063Y-47345408D01*
X130768659Y-47110000D01*
X130748063Y-46874592D01*
X130686903Y-46646337D01*
X130587035Y-46432171D01*
X130553454Y-46384211D01*
X130451494Y-46238597D01*
X130284402Y-46071506D01*
X130284396Y-46071501D01*
X130098842Y-45941575D01*
X130055217Y-45886998D01*
X130048023Y-45817500D01*
X130079546Y-45755145D01*
X130098842Y-45738425D01*
X130272724Y-45616671D01*
X130284401Y-45608495D01*
X130451495Y-45441401D01*
X130587035Y-45247830D01*
X130686903Y-45033663D01*
X130748063Y-44805408D01*
X130768659Y-44570000D01*
X130748063Y-44334592D01*
X130686903Y-44106337D01*
X130587035Y-43892171D01*
X130518831Y-43794764D01*
X130451494Y-43698597D01*
X130399029Y-43646132D01*
X157087499Y-43646132D01*
X157087499Y-43800872D01*
X157087500Y-43800893D01*
X157087500Y-58949552D01*
X157087499Y-58949578D01*
X157087499Y-59103313D01*
X157106196Y-59197303D01*
X157106196Y-59197305D01*
X157116493Y-59249072D01*
X157116496Y-59249084D01*
X157135308Y-59294499D01*
X157135309Y-59294501D01*
X157173366Y-59386381D01*
X157173372Y-59386392D01*
X157255942Y-59509968D01*
X157255943Y-59509969D01*
X159144615Y-61398640D01*
X159162704Y-61424131D01*
X159163507Y-61423627D01*
X159167210Y-61429521D01*
X159167211Y-61429522D01*
X159263184Y-61582262D01*
X159390738Y-61709816D01*
X159479320Y-61765476D01*
X159549374Y-61809494D01*
X159548868Y-61810298D01*
X159574360Y-61828385D01*
X160064600Y-62318624D01*
X160064621Y-62318647D01*
X160174031Y-62428057D01*
X160204689Y-62448542D01*
X160204688Y-62448542D01*
X160297600Y-62510623D01*
X160297604Y-62510625D01*
X160297611Y-62510630D01*
X160378043Y-62543945D01*
X160378044Y-62543946D01*
X160401603Y-62553704D01*
X160434920Y-62567505D01*
X160434929Y-62567506D01*
X160434930Y-62567507D01*
X160459103Y-62572315D01*
X160459110Y-62572316D01*
X160580686Y-62596501D01*
X160580688Y-62596501D01*
X160735426Y-62596501D01*
X160735446Y-62596500D01*
X163099849Y-62596500D01*
X163166888Y-62616185D01*
X163187530Y-62632819D01*
X171763336Y-71208624D01*
X171763357Y-71208647D01*
X171872764Y-71318054D01*
X171872771Y-71318060D01*
X171939128Y-71362398D01*
X171983934Y-71416010D01*
X171992641Y-71485335D01*
X171962487Y-71548362D01*
X171903044Y-71585082D01*
X171870238Y-71589500D01*
X171856665Y-71589500D01*
X171611383Y-71630429D01*
X171376197Y-71711169D01*
X171376188Y-71711172D01*
X171157493Y-71829524D01*
X170961257Y-71982261D01*
X170792833Y-72165217D01*
X170656826Y-72373393D01*
X170556936Y-72601118D01*
X170495892Y-72842175D01*
X170495890Y-72842187D01*
X170475357Y-73089994D01*
X170475357Y-73090005D01*
X170495890Y-73337812D01*
X170495892Y-73337824D01*
X170556936Y-73578881D01*
X170656826Y-73806606D01*
X170792833Y-74014782D01*
X170792836Y-74014785D01*
X170961256Y-74197738D01*
X171157491Y-74350474D01*
X171376190Y-74468828D01*
X171611386Y-74549571D01*
X171856665Y-74590500D01*
X172105335Y-74590500D01*
X172350614Y-74549571D01*
X172585810Y-74468828D01*
X172804509Y-74350474D01*
X173000744Y-74197738D01*
X173169164Y-74014785D01*
X173305173Y-73806607D01*
X173405063Y-73578881D01*
X173466108Y-73337821D01*
X173466109Y-73337812D01*
X173486643Y-73090005D01*
X173486643Y-73089994D01*
X173466109Y-72842187D01*
X173466107Y-72842175D01*
X173405063Y-72601118D01*
X173305173Y-72373393D01*
X173169166Y-72165217D01*
X173147557Y-72141744D01*
X173000744Y-71982262D01*
X172804509Y-71829526D01*
X172804507Y-71829525D01*
X172804506Y-71829524D01*
X172601300Y-71719555D01*
X172551710Y-71670335D01*
X172536602Y-71602119D01*
X172560772Y-71536563D01*
X172616548Y-71494482D01*
X172660318Y-71486500D01*
X175531113Y-71486500D01*
X175598152Y-71506185D01*
X175618794Y-71522819D01*
X176299675Y-72203700D01*
X176333160Y-72265023D01*
X176335522Y-72302188D01*
X176317341Y-72509998D01*
X176317341Y-72510000D01*
X176337936Y-72745403D01*
X176337938Y-72745413D01*
X176399094Y-72973655D01*
X176399096Y-72973659D01*
X176399097Y-72973663D01*
X176498965Y-73187830D01*
X176498967Y-73187834D01*
X176634501Y-73381395D01*
X176634506Y-73381402D01*
X176801597Y-73548493D01*
X176801603Y-73548498D01*
X176987158Y-73678425D01*
X177030783Y-73733002D01*
X177037977Y-73802500D01*
X177006454Y-73864855D01*
X176987158Y-73881575D01*
X176801597Y-74011505D01*
X176634505Y-74178597D01*
X176498965Y-74372169D01*
X176498964Y-74372171D01*
X176399098Y-74586335D01*
X176399094Y-74586344D01*
X176337938Y-74814586D01*
X176337936Y-74814596D01*
X176317341Y-75049999D01*
X176317341Y-75050000D01*
X176337936Y-75285403D01*
X176337938Y-75285413D01*
X176399094Y-75513655D01*
X176399096Y-75513659D01*
X176399097Y-75513663D01*
X176498965Y-75727830D01*
X176498967Y-75727834D01*
X176634501Y-75921395D01*
X176634506Y-75921402D01*
X176801597Y-76088493D01*
X176801603Y-76088498D01*
X176987594Y-76218730D01*
X177031219Y-76273307D01*
X177038413Y-76342805D01*
X177006890Y-76405160D01*
X176987595Y-76421880D01*
X176801922Y-76551890D01*
X176801920Y-76551891D01*
X176634891Y-76718920D01*
X176634886Y-76718926D01*
X176499400Y-76912420D01*
X176499399Y-76912422D01*
X176399570Y-77126507D01*
X176399567Y-77126513D01*
X176342364Y-77339999D01*
X176342364Y-77340000D01*
X177239988Y-77340000D01*
X177207075Y-77397007D01*
X177173000Y-77524174D01*
X177173000Y-77655826D01*
X177207075Y-77782993D01*
X177239988Y-77840000D01*
X176342364Y-77840000D01*
X176399567Y-78053486D01*
X176399570Y-78053492D01*
X176499399Y-78267578D01*
X176634894Y-78461082D01*
X176801917Y-78628105D01*
X176995421Y-78763600D01*
X177209507Y-78863429D01*
X177209516Y-78863433D01*
X177423000Y-78920634D01*
X177423000Y-78023012D01*
X177480007Y-78055925D01*
X177607174Y-78090000D01*
X177738826Y-78090000D01*
X177865993Y-78055925D01*
X177923000Y-78023012D01*
X177923000Y-78920633D01*
X178136483Y-78863433D01*
X178136492Y-78863429D01*
X178350578Y-78763600D01*
X178544082Y-78628105D01*
X178711105Y-78461082D01*
X178846600Y-78267578D01*
X178946429Y-78053492D01*
X178946432Y-78053486D01*
X179003636Y-77840000D01*
X178106012Y-77840000D01*
X178138925Y-77782993D01*
X178173000Y-77655826D01*
X178173000Y-77524174D01*
X178138925Y-77397007D01*
X178106012Y-77340000D01*
X179003636Y-77340000D01*
X179003635Y-77339999D01*
X178946432Y-77126513D01*
X178946429Y-77126507D01*
X178846600Y-76912422D01*
X178846599Y-76912420D01*
X178711113Y-76718926D01*
X178711108Y-76718920D01*
X178544078Y-76551890D01*
X178358405Y-76421879D01*
X178314780Y-76367302D01*
X178307588Y-76297804D01*
X178339110Y-76235449D01*
X178358406Y-76218730D01*
X178368546Y-76211630D01*
X178544401Y-76088495D01*
X178711495Y-75921401D01*
X178847035Y-75727830D01*
X178946903Y-75513663D01*
X179008063Y-75285408D01*
X179028659Y-75050000D01*
X179008063Y-74814592D01*
X178961626Y-74641285D01*
X178946905Y-74586344D01*
X178946904Y-74586343D01*
X178946903Y-74586337D01*
X178847035Y-74372171D01*
X178831844Y-74350475D01*
X178711494Y-74178597D01*
X178544402Y-74011506D01*
X178544396Y-74011501D01*
X178358842Y-73881575D01*
X178315217Y-73826998D01*
X178308023Y-73757500D01*
X178339546Y-73695145D01*
X178358842Y-73678425D01*
X178501005Y-73578881D01*
X178544401Y-73548495D01*
X178711495Y-73381401D01*
X178847035Y-73187830D01*
X178946903Y-72973663D01*
X179008063Y-72745408D01*
X179028659Y-72510000D01*
X179008063Y-72274592D01*
X178946903Y-72046337D01*
X178847035Y-71832171D01*
X178711495Y-71638599D01*
X178711494Y-71638597D01*
X178544402Y-71471506D01*
X178544396Y-71471501D01*
X178358842Y-71341575D01*
X178315217Y-71286998D01*
X178308023Y-71217500D01*
X178339546Y-71155145D01*
X178358842Y-71138425D01*
X178381026Y-71122891D01*
X178544401Y-71008495D01*
X178711495Y-70841401D01*
X178847035Y-70647830D01*
X178946903Y-70433663D01*
X179008063Y-70205408D01*
X179028659Y-69970000D01*
X179008063Y-69734592D01*
X178946903Y-69506337D01*
X178847035Y-69292171D01*
X178711495Y-69098599D01*
X178711494Y-69098597D01*
X178544402Y-68931506D01*
X178544396Y-68931501D01*
X178358842Y-68801575D01*
X178315217Y-68746998D01*
X178308023Y-68677500D01*
X178339546Y-68615145D01*
X178358842Y-68598425D01*
X178381026Y-68582891D01*
X178544401Y-68468495D01*
X178711495Y-68301401D01*
X178847035Y-68107830D01*
X178946903Y-67893663D01*
X179008063Y-67665408D01*
X179028659Y-67430000D01*
X179008063Y-67194592D01*
X178955000Y-66996554D01*
X178946905Y-66966344D01*
X178946904Y-66966343D01*
X178946903Y-66966337D01*
X178847035Y-66752171D01*
X178836989Y-66737823D01*
X178711494Y-66558597D01*
X178544402Y-66391506D01*
X178544396Y-66391501D01*
X178358842Y-66261575D01*
X178315217Y-66206998D01*
X178308023Y-66137500D01*
X178339546Y-66075145D01*
X178358842Y-66058425D01*
X178428211Y-66009852D01*
X178544401Y-65928495D01*
X178711495Y-65761401D01*
X178847035Y-65567830D01*
X178946903Y-65353663D01*
X179008063Y-65125408D01*
X179028659Y-64890000D01*
X179008063Y-64654592D01*
X178946903Y-64426337D01*
X178847035Y-64212171D01*
X178830828Y-64189024D01*
X178711494Y-64018597D01*
X178544402Y-63851506D01*
X178544396Y-63851501D01*
X178358842Y-63721575D01*
X178315217Y-63666998D01*
X178308023Y-63597500D01*
X178339546Y-63535145D01*
X178358842Y-63518425D01*
X178496295Y-63422179D01*
X178544401Y-63388495D01*
X178711495Y-63221401D01*
X178847035Y-63027830D01*
X178946903Y-62813663D01*
X179008063Y-62585408D01*
X179028659Y-62350000D01*
X179008063Y-62114592D01*
X178946903Y-61886337D01*
X178847035Y-61672171D01*
X178784081Y-61582262D01*
X178711494Y-61478597D01*
X178544402Y-61311506D01*
X178544396Y-61311501D01*
X178358842Y-61181575D01*
X178315217Y-61126998D01*
X178308023Y-61057500D01*
X178339546Y-60995145D01*
X178358842Y-60978425D01*
X178381026Y-60962891D01*
X178544401Y-60848495D01*
X178711495Y-60681401D01*
X178847035Y-60487830D01*
X178946903Y-60273663D01*
X179008063Y-60045408D01*
X179028659Y-59810000D01*
X179008063Y-59574592D01*
X178946903Y-59346337D01*
X178847035Y-59132171D01*
X178826829Y-59103313D01*
X178711494Y-58938597D01*
X178544402Y-58771506D01*
X178544396Y-58771501D01*
X178358842Y-58641575D01*
X178315217Y-58586998D01*
X178308023Y-58517500D01*
X178339546Y-58455145D01*
X178358842Y-58438425D01*
X178535369Y-58314819D01*
X178544401Y-58308495D01*
X178711495Y-58141401D01*
X178847035Y-57947830D01*
X178946903Y-57733663D01*
X179008063Y-57505408D01*
X179028659Y-57270000D01*
X179008063Y-57034592D01*
X178946903Y-56806337D01*
X178847035Y-56592171D01*
X178792590Y-56514414D01*
X178711494Y-56398597D01*
X178544402Y-56231506D01*
X178544396Y-56231501D01*
X178358842Y-56101575D01*
X178315217Y-56046998D01*
X178308023Y-55977500D01*
X178339546Y-55915145D01*
X178358842Y-55898425D01*
X178381026Y-55882891D01*
X178544401Y-55768495D01*
X178711495Y-55601401D01*
X178847035Y-55407830D01*
X178946903Y-55193663D01*
X179008063Y-54965408D01*
X179028659Y-54730000D01*
X179008063Y-54494592D01*
X178946903Y-54266337D01*
X178847035Y-54052171D01*
X178784081Y-53962262D01*
X178711494Y-53858597D01*
X178544402Y-53691506D01*
X178544396Y-53691501D01*
X178358842Y-53561575D01*
X178315217Y-53506998D01*
X178308023Y-53437500D01*
X178339546Y-53375145D01*
X178358842Y-53358425D01*
X178469780Y-53280745D01*
X178544401Y-53228495D01*
X178711495Y-53061401D01*
X178847035Y-52867830D01*
X178946903Y-52653663D01*
X179008063Y-52425408D01*
X179028659Y-52190000D01*
X179008063Y-51954592D01*
X178946903Y-51726337D01*
X178847035Y-51512171D01*
X178711495Y-51318599D01*
X178711494Y-51318597D01*
X178544402Y-51151506D01*
X178544396Y-51151501D01*
X178358842Y-51021575D01*
X178315217Y-50966998D01*
X178308023Y-50897500D01*
X178339546Y-50835145D01*
X178358842Y-50818425D01*
X178381026Y-50802891D01*
X178544401Y-50688495D01*
X178711495Y-50521401D01*
X178847035Y-50327830D01*
X178946903Y-50113663D01*
X179008063Y-49885408D01*
X179028659Y-49650000D01*
X179008063Y-49414592D01*
X178946903Y-49186337D01*
X178847035Y-48972171D01*
X178711495Y-48778599D01*
X178711494Y-48778597D01*
X178544402Y-48611506D01*
X178544396Y-48611501D01*
X178358842Y-48481575D01*
X178315217Y-48426998D01*
X178308023Y-48357500D01*
X178339546Y-48295145D01*
X178358842Y-48278425D01*
X178381026Y-48262891D01*
X178544401Y-48148495D01*
X178711495Y-47981401D01*
X178847035Y-47787830D01*
X178946903Y-47573663D01*
X179008063Y-47345408D01*
X179028659Y-47110000D01*
X179008063Y-46874592D01*
X178946903Y-46646337D01*
X178847035Y-46432171D01*
X178813454Y-46384211D01*
X178711494Y-46238597D01*
X178544402Y-46071506D01*
X178544396Y-46071501D01*
X178358842Y-45941575D01*
X178315217Y-45886998D01*
X178308023Y-45817500D01*
X178339546Y-45755145D01*
X178358842Y-45738425D01*
X178532724Y-45616671D01*
X178544401Y-45608495D01*
X178711495Y-45441401D01*
X178847035Y-45247830D01*
X178946903Y-45033663D01*
X179008063Y-44805408D01*
X179028659Y-44570000D01*
X179008063Y-44334592D01*
X178946903Y-44106337D01*
X178847035Y-43892171D01*
X178778831Y-43794764D01*
X178711494Y-43698597D01*
X178544402Y-43531506D01*
X178544396Y-43531501D01*
X178358842Y-43401575D01*
X178315217Y-43346998D01*
X178308023Y-43277500D01*
X178339546Y-43215145D01*
X178358842Y-43198425D01*
X178527970Y-43080000D01*
X178544401Y-43068495D01*
X178711495Y-42901401D01*
X178847035Y-42707830D01*
X178946903Y-42493663D01*
X179008063Y-42265408D01*
X179028659Y-42030000D01*
X179008063Y-41794592D01*
X178946903Y-41566337D01*
X178847035Y-41352171D01*
X178711495Y-41158599D01*
X178589179Y-41036283D01*
X178555696Y-40974963D01*
X178560680Y-40905271D01*
X178602551Y-40849337D01*
X178633529Y-40832422D01*
X178765086Y-40783354D01*
X178765093Y-40783350D01*
X178880187Y-40697190D01*
X178880190Y-40697187D01*
X178966350Y-40582093D01*
X178966354Y-40582086D01*
X179016596Y-40447379D01*
X179016598Y-40447372D01*
X179022999Y-40387844D01*
X179023000Y-40387827D01*
X179023000Y-39740000D01*
X178106012Y-39740000D01*
X178138925Y-39682993D01*
X178173000Y-39555826D01*
X178173000Y-39424174D01*
X178138925Y-39297007D01*
X178106012Y-39240000D01*
X179023000Y-39240000D01*
X179023000Y-38592172D01*
X179022999Y-38592155D01*
X179016598Y-38532627D01*
X179016596Y-38532620D01*
X178966354Y-38397913D01*
X178966350Y-38397906D01*
X178880190Y-38282812D01*
X178880187Y-38282809D01*
X178765093Y-38196649D01*
X178765086Y-38196645D01*
X178630379Y-38146403D01*
X178630372Y-38146401D01*
X178570844Y-38140000D01*
X177923000Y-38140000D01*
X177923000Y-39056988D01*
X177865993Y-39024075D01*
X177738826Y-38990000D01*
X177607174Y-38990000D01*
X177480007Y-39024075D01*
X177423000Y-39056988D01*
X177423000Y-38140000D01*
X176775155Y-38140000D01*
X176715627Y-38146401D01*
X176715620Y-38146403D01*
X176580913Y-38196645D01*
X176580906Y-38196649D01*
X176465812Y-38282809D01*
X176465809Y-38282812D01*
X176379649Y-38397906D01*
X176379645Y-38397913D01*
X176329403Y-38532620D01*
X176329401Y-38532627D01*
X176323000Y-38592155D01*
X176323000Y-39240000D01*
X177239988Y-39240000D01*
X177207075Y-39297007D01*
X177173000Y-39424174D01*
X177173000Y-39555826D01*
X177207075Y-39682993D01*
X177239988Y-39740000D01*
X176323000Y-39740000D01*
X176323000Y-40387844D01*
X176329401Y-40447372D01*
X176329403Y-40447379D01*
X176379645Y-40582086D01*
X176379649Y-40582093D01*
X176465809Y-40697187D01*
X176465812Y-40697190D01*
X176580906Y-40783350D01*
X176580913Y-40783354D01*
X176712470Y-40832421D01*
X176768403Y-40874292D01*
X176792821Y-40939756D01*
X176777970Y-41008029D01*
X176756819Y-41036284D01*
X176634503Y-41158600D01*
X176498965Y-41352169D01*
X176498964Y-41352171D01*
X176399098Y-41566335D01*
X176399094Y-41566344D01*
X176337938Y-41794586D01*
X176337936Y-41794596D01*
X176328040Y-41907699D01*
X176302587Y-41972767D01*
X176292193Y-41984571D01*
X174751585Y-43525181D01*
X174690262Y-43558666D01*
X174663904Y-43561500D01*
X167347887Y-43561500D01*
X167280848Y-43541815D01*
X167235093Y-43489011D01*
X167225149Y-43419853D01*
X167254174Y-43356297D01*
X167260206Y-43349819D01*
X167708630Y-42901395D01*
X169746701Y-40863322D01*
X169808022Y-40829839D01*
X169845185Y-40827477D01*
X169994034Y-40840500D01*
X170052999Y-40845659D01*
X170053000Y-40845659D01*
X170053001Y-40845659D01*
X170111966Y-40840500D01*
X170288408Y-40825063D01*
X170516663Y-40763903D01*
X170730830Y-40664035D01*
X170924401Y-40528495D01*
X171046329Y-40406566D01*
X171107648Y-40373084D01*
X171177340Y-40378068D01*
X171233274Y-40419939D01*
X171250189Y-40450917D01*
X171299202Y-40582328D01*
X171299206Y-40582335D01*
X171385452Y-40697544D01*
X171385455Y-40697547D01*
X171500664Y-40783793D01*
X171500671Y-40783797D01*
X171635517Y-40834091D01*
X171635516Y-40834091D01*
X171642444Y-40834835D01*
X171695127Y-40840500D01*
X173490872Y-40840499D01*
X173550483Y-40834091D01*
X173685331Y-40783796D01*
X173800546Y-40697546D01*
X173886796Y-40582331D01*
X173937091Y-40447483D01*
X173943500Y-40387873D01*
X173943499Y-38592128D01*
X173937091Y-38532517D01*
X173936002Y-38529598D01*
X173886797Y-38397671D01*
X173886793Y-38397664D01*
X173800547Y-38282455D01*
X173800544Y-38282452D01*
X173685335Y-38196206D01*
X173685328Y-38196202D01*
X173550482Y-38145908D01*
X173550483Y-38145908D01*
X173490883Y-38139501D01*
X173490881Y-38139500D01*
X173490873Y-38139500D01*
X173490864Y-38139500D01*
X171695129Y-38139500D01*
X171695123Y-38139501D01*
X171635516Y-38145908D01*
X171500671Y-38196202D01*
X171500664Y-38196206D01*
X171385455Y-38282452D01*
X171385452Y-38282455D01*
X171299206Y-38397664D01*
X171299203Y-38397669D01*
X171250189Y-38529083D01*
X171208317Y-38585016D01*
X171142853Y-38609433D01*
X171074580Y-38594581D01*
X171046326Y-38573430D01*
X170924402Y-38451506D01*
X170924395Y-38451501D01*
X170730834Y-38315967D01*
X170730830Y-38315965D01*
X170659727Y-38282809D01*
X170516663Y-38216097D01*
X170516659Y-38216096D01*
X170516655Y-38216094D01*
X170288413Y-38154938D01*
X170288403Y-38154936D01*
X170053001Y-38134341D01*
X170052999Y-38134341D01*
X169817596Y-38154936D01*
X169817586Y-38154938D01*
X169589344Y-38216094D01*
X169589335Y-38216098D01*
X169375171Y-38315964D01*
X169375169Y-38315965D01*
X169181597Y-38451505D01*
X169014505Y-38618597D01*
X168884575Y-38804158D01*
X168829998Y-38847783D01*
X168760500Y-38854977D01*
X168698145Y-38823454D01*
X168681425Y-38804158D01*
X168551494Y-38618597D01*
X168384402Y-38451506D01*
X168384395Y-38451501D01*
X168190834Y-38315967D01*
X168190830Y-38315965D01*
X168119727Y-38282809D01*
X167976663Y-38216097D01*
X167976659Y-38216096D01*
X167976655Y-38216094D01*
X167748413Y-38154938D01*
X167748403Y-38154936D01*
X167513001Y-38134341D01*
X167512999Y-38134341D01*
X167277596Y-38154936D01*
X167277586Y-38154938D01*
X167049344Y-38216094D01*
X167049335Y-38216098D01*
X166835171Y-38315964D01*
X166835169Y-38315965D01*
X166641597Y-38451505D01*
X166474508Y-38618594D01*
X166344269Y-38804595D01*
X166289692Y-38848219D01*
X166220193Y-38855412D01*
X166157839Y-38823890D01*
X166141119Y-38804594D01*
X166011113Y-38618926D01*
X166011108Y-38618920D01*
X165844082Y-38451894D01*
X165650578Y-38316399D01*
X165436492Y-38216570D01*
X165436486Y-38216567D01*
X165223000Y-38159364D01*
X165223000Y-39056988D01*
X165165993Y-39024075D01*
X165038826Y-38990000D01*
X164907174Y-38990000D01*
X164780007Y-39024075D01*
X164723000Y-39056988D01*
X164723000Y-38159364D01*
X164722999Y-38159364D01*
X164509513Y-38216567D01*
X164509507Y-38216570D01*
X164295422Y-38316399D01*
X164295420Y-38316400D01*
X164101926Y-38451886D01*
X164101920Y-38451891D01*
X163934891Y-38618920D01*
X163934886Y-38618926D01*
X163799400Y-38812420D01*
X163799399Y-38812422D01*
X163699570Y-39026507D01*
X163699567Y-39026513D01*
X163642364Y-39239999D01*
X163642364Y-39240000D01*
X164539988Y-39240000D01*
X164507075Y-39297007D01*
X164473000Y-39424174D01*
X164473000Y-39555826D01*
X164507075Y-39682993D01*
X164539988Y-39740000D01*
X163642364Y-39740000D01*
X163699567Y-39953486D01*
X163699570Y-39953492D01*
X163799399Y-40167578D01*
X163934894Y-40361082D01*
X164101917Y-40528105D01*
X164295421Y-40663600D01*
X164509507Y-40763429D01*
X164509516Y-40763433D01*
X164737673Y-40824567D01*
X164737684Y-40824569D01*
X164816432Y-40831459D01*
X164881501Y-40856911D01*
X164922480Y-40913502D01*
X164926358Y-40983264D01*
X164893306Y-41042668D01*
X164207794Y-41728181D01*
X164146471Y-41761666D01*
X164120113Y-41764500D01*
X159123893Y-41764500D01*
X159123873Y-41764499D01*
X159117759Y-41764499D01*
X158969135Y-41764499D01*
X158969133Y-41764499D01*
X158847552Y-41788684D01*
X158832987Y-41791581D01*
X158823365Y-41793495D01*
X158823364Y-41793495D01*
X158766492Y-41817052D01*
X158766492Y-41817053D01*
X158686058Y-41850370D01*
X158686056Y-41850371D01*
X158562480Y-41932941D01*
X158522655Y-41972767D01*
X158457388Y-42038034D01*
X158457386Y-42038036D01*
X157255943Y-43239477D01*
X157255942Y-43239478D01*
X157173372Y-43363054D01*
X157173366Y-43363065D01*
X157116496Y-43500363D01*
X157116493Y-43500373D01*
X157087499Y-43646132D01*
X130399029Y-43646132D01*
X130284402Y-43531506D01*
X130284396Y-43531501D01*
X130098842Y-43401575D01*
X130055217Y-43346998D01*
X130048023Y-43277500D01*
X130079546Y-43215145D01*
X130098842Y-43198425D01*
X130267970Y-43080000D01*
X130284401Y-43068495D01*
X130451495Y-42901401D01*
X130587035Y-42707830D01*
X130686903Y-42493663D01*
X130748063Y-42265408D01*
X130768659Y-42030000D01*
X130748063Y-41794592D01*
X130686903Y-41566337D01*
X130587035Y-41352171D01*
X130451495Y-41158599D01*
X130329179Y-41036283D01*
X130295696Y-40974963D01*
X130300680Y-40905271D01*
X130342551Y-40849337D01*
X130373529Y-40832422D01*
X130505086Y-40783354D01*
X130505093Y-40783350D01*
X130620187Y-40697190D01*
X130620190Y-40697187D01*
X130706350Y-40582093D01*
X130706354Y-40582086D01*
X130756596Y-40447379D01*
X130756598Y-40447372D01*
X130762999Y-40387844D01*
X130763000Y-40387827D01*
X130763000Y-39740000D01*
X129846012Y-39740000D01*
X129878925Y-39682993D01*
X129913000Y-39555826D01*
X129913000Y-39424174D01*
X129878925Y-39297007D01*
X129846012Y-39240000D01*
X130763000Y-39240000D01*
X130763000Y-38592172D01*
X130762999Y-38592155D01*
X130756598Y-38532627D01*
X130756596Y-38532620D01*
X130706354Y-38397913D01*
X130706350Y-38397906D01*
X130620190Y-38282812D01*
X130620187Y-38282809D01*
X130505093Y-38196649D01*
X130505086Y-38196645D01*
X130370379Y-38146403D01*
X130370372Y-38146401D01*
X130310844Y-38140000D01*
X129663000Y-38140000D01*
X129663000Y-39056988D01*
X129605993Y-39024075D01*
X129478826Y-38990000D01*
X129347174Y-38990000D01*
X129220007Y-39024075D01*
X129163000Y-39056988D01*
X129163000Y-38140000D01*
X128515155Y-38140000D01*
X128455627Y-38146401D01*
X128455620Y-38146403D01*
X128320913Y-38196645D01*
X128320906Y-38196649D01*
X128205812Y-38282809D01*
X128205809Y-38282812D01*
X128119649Y-38397906D01*
X128119645Y-38397913D01*
X128069403Y-38532620D01*
X128069401Y-38532627D01*
X128063000Y-38592155D01*
X128063000Y-39240000D01*
X128979988Y-39240000D01*
X128947075Y-39297007D01*
X128913000Y-39424174D01*
X128913000Y-39555826D01*
X128947075Y-39682993D01*
X128979988Y-39740000D01*
X128063000Y-39740000D01*
X128063000Y-40387844D01*
X128069401Y-40447372D01*
X128069403Y-40447379D01*
X128119645Y-40582086D01*
X128119649Y-40582093D01*
X128205809Y-40697187D01*
X128205812Y-40697190D01*
X128320906Y-40783350D01*
X128320913Y-40783354D01*
X128452470Y-40832421D01*
X128508403Y-40874292D01*
X128532821Y-40939756D01*
X128517970Y-41008029D01*
X128496819Y-41036284D01*
X128374503Y-41158600D01*
X128238965Y-41352169D01*
X128238964Y-41352171D01*
X128139098Y-41566335D01*
X128139094Y-41566344D01*
X128077938Y-41794586D01*
X128077936Y-41794596D01*
X128057341Y-42029999D01*
X127373500Y-42029999D01*
X127373500Y-36304500D01*
X127393185Y-36237461D01*
X127445989Y-36191706D01*
X127497500Y-36180500D01*
X134369000Y-36180500D01*
X134436039Y-36200185D01*
G37*
G04 #@! TD.AperFunction*
M02*
